G04 #@! TF.GenerationSoftware,KiCad,Pcbnew,5.1.6-c6e7f7d~87~ubuntu20.04.1*
G04 #@! TF.CreationDate,2020-08-05T12:50:38+01:00*
G04 #@! TF.ProjectId,spikeling,7370696b-656c-4696-9e67-2e6b69636164,rev?*
G04 #@! TF.SameCoordinates,Original*
G04 #@! TF.FileFunction,Other,Fab,Top*
%FSLAX46Y46*%
G04 Gerber Fmt 4.6, Leading zero omitted, Abs format (unit mm)*
G04 Created by KiCad (PCBNEW 5.1.6-c6e7f7d~87~ubuntu20.04.1) date 2020-08-05 12:50:38*
%MOMM*%
%LPD*%
G01*
G04 APERTURE LIST*
%ADD10C,0.100000*%
%ADD11C,0.120000*%
%ADD12C,0.150000*%
G04 APERTURE END LIST*
D10*
X155612500Y-50750000D02*
X153037500Y-50750000D01*
X153037500Y-50750000D02*
X152412500Y-51375000D01*
X152412500Y-51375000D02*
X152412500Y-53250000D01*
X152412500Y-53250000D02*
X155612500Y-53250000D01*
X155612500Y-53250000D02*
X155612500Y-50750000D01*
X192475000Y-85675000D02*
G75*
G03*
X192475000Y-85675000I-4800000J0D01*
G01*
X177100000Y-111300000D02*
X173900000Y-111300000D01*
X177100000Y-109700000D02*
X177100000Y-111300000D01*
X173900000Y-109700000D02*
X177100000Y-109700000D01*
X173900000Y-111300000D02*
X173900000Y-109700000D01*
X166400000Y-62700000D02*
X169600000Y-62700000D01*
X166400000Y-64300000D02*
X166400000Y-62700000D01*
X169600000Y-64300000D02*
X166400000Y-64300000D01*
X169600000Y-62700000D02*
X169600000Y-64300000D01*
X165200000Y-90100000D02*
X165200000Y-86900000D01*
X166800000Y-90100000D02*
X165200000Y-90100000D01*
X166800000Y-86900000D02*
X166800000Y-90100000D01*
X165200000Y-86900000D02*
X166800000Y-86900000D01*
X169600000Y-60300000D02*
X166400000Y-60300000D01*
X169600000Y-58700000D02*
X169600000Y-60300000D01*
X166400000Y-58700000D02*
X169600000Y-58700000D01*
X166400000Y-60300000D02*
X166400000Y-58700000D01*
X169600000Y-56300000D02*
X166400000Y-56300000D01*
X169600000Y-54700000D02*
X169600000Y-56300000D01*
X166400000Y-54700000D02*
X169600000Y-54700000D01*
X166400000Y-56300000D02*
X166400000Y-54700000D01*
X159314000Y-52197000D02*
X159949000Y-51562000D01*
X159314000Y-89662000D02*
X159314000Y-52197000D01*
X161854000Y-89662000D02*
X159314000Y-89662000D01*
X161854000Y-51562000D02*
X161854000Y-89662000D01*
X159949000Y-51562000D02*
X161854000Y-51562000D01*
X177094000Y-89027000D02*
X176459000Y-89662000D01*
X177094000Y-51562000D02*
X177094000Y-89027000D01*
X174554000Y-51562000D02*
X177094000Y-51562000D01*
X174554000Y-89662000D02*
X174554000Y-51562000D01*
X176459000Y-89662000D02*
X174554000Y-89662000D01*
X154772000Y-90450000D02*
X143422000Y-90450000D01*
X154772000Y-102550000D02*
X154772000Y-90450000D01*
X143422000Y-102550000D02*
X154772000Y-102550000D01*
X143422000Y-90450000D02*
X143422000Y-102550000D01*
X152922000Y-96500000D02*
G75*
G03*
X152922000Y-96500000I-3000000J0D01*
G01*
X153000000Y-79000000D02*
G75*
G03*
X153000000Y-79000000I-3000000J0D01*
G01*
X143500000Y-72950000D02*
X143500000Y-85050000D01*
X143500000Y-85050000D02*
X154850000Y-85050000D01*
X154850000Y-85050000D02*
X154850000Y-72950000D01*
X154850000Y-72950000D02*
X143500000Y-72950000D01*
X154850000Y-55450000D02*
X143500000Y-55450000D01*
X154850000Y-67550000D02*
X154850000Y-55450000D01*
X143500000Y-67550000D02*
X154850000Y-67550000D01*
X143500000Y-55450000D02*
X143500000Y-67550000D01*
X153000000Y-61500000D02*
G75*
G03*
X153000000Y-61500000I-3000000J0D01*
G01*
X153000000Y-114000000D02*
G75*
G03*
X153000000Y-114000000I-3000000J0D01*
G01*
X143500000Y-107950000D02*
X143500000Y-120050000D01*
X143500000Y-120050000D02*
X154850000Y-120050000D01*
X154850000Y-120050000D02*
X154850000Y-107950000D01*
X154850000Y-107950000D02*
X143500000Y-107950000D01*
X192506000Y-55325000D02*
G75*
G03*
X192506000Y-55325000I-4800000J0D01*
G01*
X192300000Y-70500000D02*
G75*
G03*
X192300000Y-70500000I-4800000J0D01*
G01*
X192625000Y-100500000D02*
G75*
G03*
X192625000Y-100500000I-4800000J0D01*
G01*
X192475000Y-115175000D02*
G75*
G03*
X192475000Y-115175000I-4800000J0D01*
G01*
X179500000Y-99500000D02*
X178500000Y-100500000D01*
X170500000Y-91500000D02*
X179500000Y-91500000D01*
X170500000Y-100500000D02*
X170500000Y-91500000D01*
X178500000Y-100500000D02*
X170500000Y-100500000D01*
X179500000Y-91500000D02*
X179500000Y-99500000D01*
X157494575Y-111503213D02*
X158250000Y-110700000D01*
X157500000Y-121700000D02*
X166500000Y-121700000D01*
X157500000Y-125200000D02*
X166500000Y-125200000D01*
X166500000Y-125200000D02*
X166500000Y-110700000D01*
X166500000Y-110700000D02*
X158250000Y-110700000D01*
X157500000Y-111500000D02*
X157500000Y-125200000D01*
X163750714Y-100500000D02*
G75*
G03*
X163750714Y-100500000I-1750714J0D01*
G01*
X159000000Y-103500000D02*
X165000000Y-103500000D01*
X159000000Y-97500000D02*
X159000000Y-103500000D01*
X165000000Y-97500000D02*
X159000000Y-97500000D01*
X165000000Y-103500000D02*
X165000000Y-97500000D01*
X178650000Y-115400000D02*
X173150000Y-115400000D01*
X173150000Y-115400000D02*
X172350000Y-116200000D01*
X172350000Y-116200000D02*
X172350000Y-118600000D01*
X172350000Y-118600000D02*
X178650000Y-118600000D01*
X178650000Y-118600000D02*
X178650000Y-115400000D01*
D11*
X153422023Y-52361904D02*
X153422023Y-51561904D01*
X153612500Y-51561904D01*
X153726785Y-51600000D01*
X153802976Y-51676190D01*
X153841071Y-51752380D01*
X153879166Y-51904761D01*
X153879166Y-52019047D01*
X153841071Y-52171428D01*
X153802976Y-52247619D01*
X153726785Y-52323809D01*
X153612500Y-52361904D01*
X153422023Y-52361904D01*
X154183928Y-51638095D02*
X154222023Y-51600000D01*
X154298214Y-51561904D01*
X154488690Y-51561904D01*
X154564880Y-51600000D01*
X154602976Y-51638095D01*
X154641071Y-51714285D01*
X154641071Y-51790476D01*
X154602976Y-51904761D01*
X154145833Y-52361904D01*
X154641071Y-52361904D01*
D12*
X187341666Y-85127380D02*
X187341666Y-85841666D01*
X187294047Y-85984523D01*
X187198809Y-86079761D01*
X187055952Y-86127380D01*
X186960714Y-86127380D01*
X187722619Y-85127380D02*
X188341666Y-85127380D01*
X188008333Y-85508333D01*
X188151190Y-85508333D01*
X188246428Y-85555952D01*
X188294047Y-85603571D01*
X188341666Y-85698809D01*
X188341666Y-85936904D01*
X188294047Y-86032142D01*
X188246428Y-86079761D01*
X188151190Y-86127380D01*
X187865476Y-86127380D01*
X187770238Y-86079761D01*
X187722619Y-86032142D01*
D11*
X175366666Y-110861904D02*
X175100000Y-110480952D01*
X174909523Y-110861904D02*
X174909523Y-110061904D01*
X175214285Y-110061904D01*
X175290476Y-110100000D01*
X175328571Y-110138095D01*
X175366666Y-110214285D01*
X175366666Y-110328571D01*
X175328571Y-110404761D01*
X175290476Y-110442857D01*
X175214285Y-110480952D01*
X174909523Y-110480952D01*
X176128571Y-110861904D02*
X175671428Y-110861904D01*
X175900000Y-110861904D02*
X175900000Y-110061904D01*
X175823809Y-110176190D01*
X175747619Y-110252380D01*
X175671428Y-110290476D01*
X167866666Y-63785714D02*
X167828571Y-63823809D01*
X167714285Y-63861904D01*
X167638095Y-63861904D01*
X167523809Y-63823809D01*
X167447619Y-63747619D01*
X167409523Y-63671428D01*
X167371428Y-63519047D01*
X167371428Y-63404761D01*
X167409523Y-63252380D01*
X167447619Y-63176190D01*
X167523809Y-63100000D01*
X167638095Y-63061904D01*
X167714285Y-63061904D01*
X167828571Y-63100000D01*
X167866666Y-63138095D01*
X168628571Y-63861904D02*
X168171428Y-63861904D01*
X168400000Y-63861904D02*
X168400000Y-63061904D01*
X168323809Y-63176190D01*
X168247619Y-63252380D01*
X168171428Y-63290476D01*
X166361904Y-88633333D02*
X165980952Y-88900000D01*
X166361904Y-89090476D02*
X165561904Y-89090476D01*
X165561904Y-88785714D01*
X165600000Y-88709523D01*
X165638095Y-88671428D01*
X165714285Y-88633333D01*
X165828571Y-88633333D01*
X165904761Y-88671428D01*
X165942857Y-88709523D01*
X165980952Y-88785714D01*
X165980952Y-89090476D01*
X165828571Y-87947619D02*
X166361904Y-87947619D01*
X165523809Y-88138095D02*
X166095238Y-88328571D01*
X166095238Y-87833333D01*
X167866666Y-59861904D02*
X167600000Y-59480952D01*
X167409523Y-59861904D02*
X167409523Y-59061904D01*
X167714285Y-59061904D01*
X167790476Y-59100000D01*
X167828571Y-59138095D01*
X167866666Y-59214285D01*
X167866666Y-59328571D01*
X167828571Y-59404761D01*
X167790476Y-59442857D01*
X167714285Y-59480952D01*
X167409523Y-59480952D01*
X168133333Y-59061904D02*
X168628571Y-59061904D01*
X168361904Y-59366666D01*
X168476190Y-59366666D01*
X168552380Y-59404761D01*
X168590476Y-59442857D01*
X168628571Y-59519047D01*
X168628571Y-59709523D01*
X168590476Y-59785714D01*
X168552380Y-59823809D01*
X168476190Y-59861904D01*
X168247619Y-59861904D01*
X168171428Y-59823809D01*
X168133333Y-59785714D01*
X167879166Y-55861904D02*
X167612500Y-55480952D01*
X167422023Y-55861904D02*
X167422023Y-55061904D01*
X167726785Y-55061904D01*
X167802976Y-55100000D01*
X167841071Y-55138095D01*
X167879166Y-55214285D01*
X167879166Y-55328571D01*
X167841071Y-55404761D01*
X167802976Y-55442857D01*
X167726785Y-55480952D01*
X167422023Y-55480952D01*
X168183928Y-55138095D02*
X168222023Y-55100000D01*
X168298214Y-55061904D01*
X168488690Y-55061904D01*
X168564880Y-55100000D01*
X168602976Y-55138095D01*
X168641071Y-55214285D01*
X168641071Y-55290476D01*
X168602976Y-55404761D01*
X168145833Y-55861904D01*
X168641071Y-55861904D01*
D12*
X155464952Y-90888666D02*
X155941142Y-90888666D01*
X155369714Y-91174380D02*
X155703047Y-90174380D01*
X156036380Y-91174380D01*
X156369714Y-91174380D02*
X156369714Y-90507714D01*
X156369714Y-90698190D02*
X156417333Y-90602952D01*
X156464952Y-90555333D01*
X156560190Y-90507714D01*
X156655428Y-90507714D01*
X157417333Y-91174380D02*
X157417333Y-90174380D01*
X157417333Y-91126761D02*
X157322095Y-91174380D01*
X157131619Y-91174380D01*
X157036380Y-91126761D01*
X156988761Y-91079142D01*
X156941142Y-90983904D01*
X156941142Y-90698190D01*
X156988761Y-90602952D01*
X157036380Y-90555333D01*
X157131619Y-90507714D01*
X157322095Y-90507714D01*
X157417333Y-90555333D01*
X158322095Y-90507714D02*
X158322095Y-91174380D01*
X157893523Y-90507714D02*
X157893523Y-91031523D01*
X157941142Y-91126761D01*
X158036380Y-91174380D01*
X158179238Y-91174380D01*
X158274476Y-91126761D01*
X158322095Y-91079142D01*
X158798285Y-91174380D02*
X158798285Y-90507714D01*
X158798285Y-90174380D02*
X158750666Y-90222000D01*
X158798285Y-90269619D01*
X158845904Y-90222000D01*
X158798285Y-90174380D01*
X158798285Y-90269619D01*
X159274476Y-90507714D02*
X159274476Y-91174380D01*
X159274476Y-90602952D02*
X159322095Y-90555333D01*
X159417333Y-90507714D01*
X159560190Y-90507714D01*
X159655428Y-90555333D01*
X159703047Y-90650571D01*
X159703047Y-91174380D01*
X160322095Y-91174380D02*
X160226857Y-91126761D01*
X160179238Y-91079142D01*
X160131619Y-90983904D01*
X160131619Y-90698190D01*
X160179238Y-90602952D01*
X160226857Y-90555333D01*
X160322095Y-90507714D01*
X160464952Y-90507714D01*
X160560190Y-90555333D01*
X160607809Y-90602952D01*
X160655428Y-90698190D01*
X160655428Y-90983904D01*
X160607809Y-91079142D01*
X160560190Y-91126761D01*
X160464952Y-91174380D01*
X160322095Y-91174380D01*
X161607809Y-91174380D02*
X161036380Y-91174380D01*
X161322095Y-91174380D02*
X161322095Y-90174380D01*
X161226857Y-90317238D01*
X161131619Y-90412476D01*
X161036380Y-90460095D01*
X162464952Y-90174380D02*
X162274476Y-90174380D01*
X162179238Y-90222000D01*
X162131619Y-90269619D01*
X162036380Y-90412476D01*
X161988761Y-90602952D01*
X161988761Y-90983904D01*
X162036380Y-91079142D01*
X162084000Y-91126761D01*
X162179238Y-91174380D01*
X162369714Y-91174380D01*
X162464952Y-91126761D01*
X162512571Y-91079142D01*
X162560190Y-90983904D01*
X162560190Y-90745809D01*
X162512571Y-90650571D01*
X162464952Y-90602952D01*
X162369714Y-90555333D01*
X162179238Y-90555333D01*
X162084000Y-90602952D01*
X162036380Y-90650571D01*
X161988761Y-90745809D01*
X162988761Y-90793428D02*
X163750666Y-90793428D01*
X164131619Y-90174380D02*
X164750666Y-90174380D01*
X164417333Y-90555333D01*
X164560190Y-90555333D01*
X164655428Y-90602952D01*
X164703047Y-90650571D01*
X164750666Y-90745809D01*
X164750666Y-90983904D01*
X164703047Y-91079142D01*
X164655428Y-91126761D01*
X164560190Y-91174380D01*
X164274476Y-91174380D01*
X164179238Y-91126761D01*
X164131619Y-91079142D01*
X165369714Y-90174380D02*
X165464952Y-90174380D01*
X165560190Y-90222000D01*
X165607809Y-90269619D01*
X165655428Y-90364857D01*
X165703047Y-90555333D01*
X165703047Y-90793428D01*
X165655428Y-90983904D01*
X165607809Y-91079142D01*
X165560190Y-91126761D01*
X165464952Y-91174380D01*
X165369714Y-91174380D01*
X165274476Y-91126761D01*
X165226857Y-91079142D01*
X165179238Y-90983904D01*
X165131619Y-90793428D01*
X165131619Y-90555333D01*
X165179238Y-90364857D01*
X165226857Y-90269619D01*
X165274476Y-90222000D01*
X165369714Y-90174380D01*
X160036380Y-70945333D02*
X160750666Y-70945333D01*
X160893523Y-70992952D01*
X160988761Y-71088190D01*
X161036380Y-71231047D01*
X161036380Y-71326285D01*
X160464952Y-70326285D02*
X160417333Y-70421523D01*
X160369714Y-70469142D01*
X160274476Y-70516761D01*
X160226857Y-70516761D01*
X160131619Y-70469142D01*
X160084000Y-70421523D01*
X160036380Y-70326285D01*
X160036380Y-70135809D01*
X160084000Y-70040571D01*
X160131619Y-69992952D01*
X160226857Y-69945333D01*
X160274476Y-69945333D01*
X160369714Y-69992952D01*
X160417333Y-70040571D01*
X160464952Y-70135809D01*
X160464952Y-70326285D01*
X160512571Y-70421523D01*
X160560190Y-70469142D01*
X160655428Y-70516761D01*
X160845904Y-70516761D01*
X160941142Y-70469142D01*
X160988761Y-70421523D01*
X161036380Y-70326285D01*
X161036380Y-70135809D01*
X160988761Y-70040571D01*
X160941142Y-69992952D01*
X160845904Y-69945333D01*
X160655428Y-69945333D01*
X160560190Y-69992952D01*
X160512571Y-70040571D01*
X160464952Y-70135809D01*
X171181142Y-50668666D02*
X171657333Y-50668666D01*
X171085904Y-50954380D02*
X171419238Y-49954380D01*
X171752571Y-50954380D01*
X172085904Y-50954380D02*
X172085904Y-50287714D01*
X172085904Y-50478190D02*
X172133523Y-50382952D01*
X172181142Y-50335333D01*
X172276380Y-50287714D01*
X172371619Y-50287714D01*
X173133523Y-50954380D02*
X173133523Y-49954380D01*
X173133523Y-50906761D02*
X173038285Y-50954380D01*
X172847809Y-50954380D01*
X172752571Y-50906761D01*
X172704952Y-50859142D01*
X172657333Y-50763904D01*
X172657333Y-50478190D01*
X172704952Y-50382952D01*
X172752571Y-50335333D01*
X172847809Y-50287714D01*
X173038285Y-50287714D01*
X173133523Y-50335333D01*
X174038285Y-50287714D02*
X174038285Y-50954380D01*
X173609714Y-50287714D02*
X173609714Y-50811523D01*
X173657333Y-50906761D01*
X173752571Y-50954380D01*
X173895428Y-50954380D01*
X173990666Y-50906761D01*
X174038285Y-50859142D01*
X174514476Y-50954380D02*
X174514476Y-50287714D01*
X174514476Y-49954380D02*
X174466857Y-50002000D01*
X174514476Y-50049619D01*
X174562095Y-50002000D01*
X174514476Y-49954380D01*
X174514476Y-50049619D01*
X174990666Y-50287714D02*
X174990666Y-50954380D01*
X174990666Y-50382952D02*
X175038285Y-50335333D01*
X175133523Y-50287714D01*
X175276380Y-50287714D01*
X175371619Y-50335333D01*
X175419238Y-50430571D01*
X175419238Y-50954380D01*
X176038285Y-50954380D02*
X175943047Y-50906761D01*
X175895428Y-50859142D01*
X175847809Y-50763904D01*
X175847809Y-50478190D01*
X175895428Y-50382952D01*
X175943047Y-50335333D01*
X176038285Y-50287714D01*
X176181142Y-50287714D01*
X176276380Y-50335333D01*
X176324000Y-50382952D01*
X176371619Y-50478190D01*
X176371619Y-50763904D01*
X176324000Y-50859142D01*
X176276380Y-50906761D01*
X176181142Y-50954380D01*
X176038285Y-50954380D01*
X177324000Y-50954380D02*
X176752571Y-50954380D01*
X177038285Y-50954380D02*
X177038285Y-49954380D01*
X176943047Y-50097238D01*
X176847809Y-50192476D01*
X176752571Y-50240095D01*
X177752571Y-50573428D02*
X178514476Y-50573428D01*
X179514476Y-50954380D02*
X178943047Y-50954380D01*
X179228761Y-50954380D02*
X179228761Y-49954380D01*
X179133523Y-50097238D01*
X179038285Y-50192476D01*
X178943047Y-50240095D01*
X180419238Y-49954380D02*
X179943047Y-49954380D01*
X179895428Y-50430571D01*
X179943047Y-50382952D01*
X180038285Y-50335333D01*
X180276380Y-50335333D01*
X180371619Y-50382952D01*
X180419238Y-50430571D01*
X180466857Y-50525809D01*
X180466857Y-50763904D01*
X180419238Y-50859142D01*
X180371619Y-50906761D01*
X180276380Y-50954380D01*
X180038285Y-50954380D01*
X179943047Y-50906761D01*
X179895428Y-50859142D01*
X175276380Y-70945333D02*
X175990666Y-70945333D01*
X176133523Y-70992952D01*
X176228761Y-71088190D01*
X176276380Y-71231047D01*
X176276380Y-71326285D01*
X175276380Y-70564380D02*
X175276380Y-69897714D01*
X176276380Y-70326285D01*
X144874380Y-97095238D02*
X144398190Y-97428571D01*
X144874380Y-97666666D02*
X143874380Y-97666666D01*
X143874380Y-97285714D01*
X143922000Y-97190476D01*
X143969619Y-97142857D01*
X144064857Y-97095238D01*
X144207714Y-97095238D01*
X144302952Y-97142857D01*
X144350571Y-97190476D01*
X144398190Y-97285714D01*
X144398190Y-97666666D01*
X143874380Y-96809523D02*
X144874380Y-96476190D01*
X143874380Y-96142857D01*
X143969619Y-95857142D02*
X143922000Y-95809523D01*
X143874380Y-95714285D01*
X143874380Y-95476190D01*
X143922000Y-95380952D01*
X143969619Y-95333333D01*
X144064857Y-95285714D01*
X144160095Y-95285714D01*
X144302952Y-95333333D01*
X144874380Y-95904761D01*
X144874380Y-95285714D01*
X144952380Y-79595238D02*
X144476190Y-79928571D01*
X144952380Y-80166666D02*
X143952380Y-80166666D01*
X143952380Y-79785714D01*
X144000000Y-79690476D01*
X144047619Y-79642857D01*
X144142857Y-79595238D01*
X144285714Y-79595238D01*
X144380952Y-79642857D01*
X144428571Y-79690476D01*
X144476190Y-79785714D01*
X144476190Y-80166666D01*
X143952380Y-79309523D02*
X144952380Y-78976190D01*
X143952380Y-78642857D01*
X143952380Y-78404761D02*
X143952380Y-77785714D01*
X144333333Y-78119047D01*
X144333333Y-77976190D01*
X144380952Y-77880952D01*
X144428571Y-77833333D01*
X144523809Y-77785714D01*
X144761904Y-77785714D01*
X144857142Y-77833333D01*
X144904761Y-77880952D01*
X144952380Y-77976190D01*
X144952380Y-78261904D01*
X144904761Y-78357142D01*
X144857142Y-78404761D01*
X144952380Y-62095238D02*
X144476190Y-62428571D01*
X144952380Y-62666666D02*
X143952380Y-62666666D01*
X143952380Y-62285714D01*
X144000000Y-62190476D01*
X144047619Y-62142857D01*
X144142857Y-62095238D01*
X144285714Y-62095238D01*
X144380952Y-62142857D01*
X144428571Y-62190476D01*
X144476190Y-62285714D01*
X144476190Y-62666666D01*
X143952380Y-61809523D02*
X144952380Y-61476190D01*
X143952380Y-61142857D01*
X144285714Y-60380952D02*
X144952380Y-60380952D01*
X143904761Y-60619047D02*
X144619047Y-60857142D01*
X144619047Y-60238095D01*
X144952380Y-114595238D02*
X144476190Y-114928571D01*
X144952380Y-115166666D02*
X143952380Y-115166666D01*
X143952380Y-114785714D01*
X144000000Y-114690476D01*
X144047619Y-114642857D01*
X144142857Y-114595238D01*
X144285714Y-114595238D01*
X144380952Y-114642857D01*
X144428571Y-114690476D01*
X144476190Y-114785714D01*
X144476190Y-115166666D01*
X143952380Y-114309523D02*
X144952380Y-113976190D01*
X143952380Y-113642857D01*
X144952380Y-112785714D02*
X144952380Y-113357142D01*
X144952380Y-113071428D02*
X143952380Y-113071428D01*
X144095238Y-113166666D01*
X144190476Y-113261904D01*
X144238095Y-113357142D01*
X187372666Y-54777380D02*
X187372666Y-55491666D01*
X187325047Y-55634523D01*
X187229809Y-55729761D01*
X187086952Y-55777380D01*
X186991714Y-55777380D01*
X188372666Y-55777380D02*
X187801238Y-55777380D01*
X188086952Y-55777380D02*
X188086952Y-54777380D01*
X187991714Y-54920238D01*
X187896476Y-55015476D01*
X187801238Y-55063095D01*
X187166666Y-69952380D02*
X187166666Y-70666666D01*
X187119047Y-70809523D01*
X187023809Y-70904761D01*
X186880952Y-70952380D01*
X186785714Y-70952380D01*
X187595238Y-70047619D02*
X187642857Y-70000000D01*
X187738095Y-69952380D01*
X187976190Y-69952380D01*
X188071428Y-70000000D01*
X188119047Y-70047619D01*
X188166666Y-70142857D01*
X188166666Y-70238095D01*
X188119047Y-70380952D01*
X187547619Y-70952380D01*
X188166666Y-70952380D01*
X187491666Y-99952380D02*
X187491666Y-100666666D01*
X187444047Y-100809523D01*
X187348809Y-100904761D01*
X187205952Y-100952380D01*
X187110714Y-100952380D01*
X188396428Y-100285714D02*
X188396428Y-100952380D01*
X188158333Y-99904761D02*
X187920238Y-100619047D01*
X188539285Y-100619047D01*
X187341666Y-114627380D02*
X187341666Y-115341666D01*
X187294047Y-115484523D01*
X187198809Y-115579761D01*
X187055952Y-115627380D01*
X186960714Y-115627380D01*
X188294047Y-114627380D02*
X187817857Y-114627380D01*
X187770238Y-115103571D01*
X187817857Y-115055952D01*
X187913095Y-115008333D01*
X188151190Y-115008333D01*
X188246428Y-115055952D01*
X188294047Y-115103571D01*
X188341666Y-115198809D01*
X188341666Y-115436904D01*
X188294047Y-115532142D01*
X188246428Y-115579761D01*
X188151190Y-115627380D01*
X187913095Y-115627380D01*
X187817857Y-115579761D01*
X187770238Y-115532142D01*
X174119047Y-95928571D02*
X174261904Y-95976190D01*
X174309523Y-96023809D01*
X174357142Y-96119047D01*
X174357142Y-96261904D01*
X174309523Y-96357142D01*
X174261904Y-96404761D01*
X174166666Y-96452380D01*
X173785714Y-96452380D01*
X173785714Y-95452380D01*
X174119047Y-95452380D01*
X174214285Y-95500000D01*
X174261904Y-95547619D01*
X174309523Y-95642857D01*
X174309523Y-95738095D01*
X174261904Y-95833333D01*
X174214285Y-95880952D01*
X174119047Y-95928571D01*
X173785714Y-95928571D01*
X174690476Y-95452380D02*
X175357142Y-95452380D01*
X174690476Y-96452380D01*
X175357142Y-96452380D01*
X176261904Y-96452380D02*
X175690476Y-96452380D01*
X175976190Y-96452380D02*
X175976190Y-95452380D01*
X175880952Y-95595238D01*
X175785714Y-95690476D01*
X175690476Y-95738095D01*
X158502380Y-114833333D02*
X159216666Y-114833333D01*
X159359523Y-114880952D01*
X159454761Y-114976190D01*
X159502380Y-115119047D01*
X159502380Y-115214285D01*
X158502380Y-113928571D02*
X158502380Y-114119047D01*
X158550000Y-114214285D01*
X158597619Y-114261904D01*
X158740476Y-114357142D01*
X158930952Y-114404761D01*
X159311904Y-114404761D01*
X159407142Y-114357142D01*
X159454761Y-114309523D01*
X159502380Y-114214285D01*
X159502380Y-114023809D01*
X159454761Y-113928571D01*
X159407142Y-113880952D01*
X159311904Y-113833333D01*
X159073809Y-113833333D01*
X158978571Y-113880952D01*
X158930952Y-113928571D01*
X158883333Y-114023809D01*
X158883333Y-114214285D01*
X158930952Y-114309523D01*
X158978571Y-114357142D01*
X159073809Y-114404761D01*
X160666666Y-104954761D02*
X160809523Y-105002380D01*
X161047619Y-105002380D01*
X161142857Y-104954761D01*
X161190476Y-104907142D01*
X161238095Y-104811904D01*
X161238095Y-104716666D01*
X161190476Y-104621428D01*
X161142857Y-104573809D01*
X161047619Y-104526190D01*
X160857142Y-104478571D01*
X160761904Y-104430952D01*
X160714285Y-104383333D01*
X160666666Y-104288095D01*
X160666666Y-104192857D01*
X160714285Y-104097619D01*
X160761904Y-104050000D01*
X160857142Y-104002380D01*
X161095238Y-104002380D01*
X161238095Y-104050000D01*
X161571428Y-104002380D02*
X161809523Y-105002380D01*
X162000000Y-104288095D01*
X162190476Y-105002380D01*
X162428571Y-104002380D01*
X163333333Y-105002380D02*
X162761904Y-105002380D01*
X163047619Y-105002380D02*
X163047619Y-104002380D01*
X162952380Y-104145238D01*
X162857142Y-104240476D01*
X162761904Y-104288095D01*
X174761904Y-117452380D02*
X174761904Y-116452380D01*
X175000000Y-116452380D01*
X175142857Y-116500000D01*
X175238095Y-116595238D01*
X175285714Y-116690476D01*
X175333333Y-116880952D01*
X175333333Y-117023809D01*
X175285714Y-117214285D01*
X175238095Y-117309523D01*
X175142857Y-117404761D01*
X175000000Y-117452380D01*
X174761904Y-117452380D01*
X176285714Y-117452380D02*
X175714285Y-117452380D01*
X176000000Y-117452380D02*
X176000000Y-116452380D01*
X175904761Y-116595238D01*
X175809523Y-116690476D01*
X175714285Y-116738095D01*
M02*
