M48
; DRILL file {KiCad 5.1.6-c6e7f7d~86~ubuntu20.04.1} date Mon Jun  8 22:34:41 2020
; FORMAT={-:-/ absolute / metric / decimal}
; #@! TF.CreationDate,2020-06-08T22:34:41+01:00
; #@! TF.GenerationSoftware,Kicad,Pcbnew,5.1.6-c6e7f7d~86~ubuntu20.04.1
; #@! TF.FileFunction,Plated,1,2,PTH
FMAT,2
METRIC
T1C0.400
T2C1.000
T3C1.270
T4C1.524
%
G90
G05
T1
X151.75Y-58.75
X152.372Y-81.87
X152.372Y-88.628
X152.626Y-94.874
X156.5Y-79.0
X156.5Y-91.0
X156.656Y-72.0
X157.25Y-64.25
X163.5Y-70.0
X167.528Y-86.528
X170.65Y-101.137
X171.0Y-59.5
X171.0Y-63.5
X171.5Y-50.5
X171.528Y-82.528
X172.5Y-80.0
X181.075Y-93.075
X181.5Y-86.5
T2
X142.676Y-103.712
X142.676Y-106.212
X142.676Y-108.712
X142.676Y-71.962
X142.676Y-74.462
X142.676Y-76.962
X142.676Y-55.706
X142.676Y-58.206
X142.676Y-60.706
X142.422Y-87.71
X142.422Y-90.21
X142.422Y-92.71
X175.824Y-52.832
X175.824Y-55.372
X175.824Y-57.912
X175.824Y-60.452
X175.824Y-62.992
X175.824Y-65.532
X175.824Y-68.072
X175.824Y-70.612
X175.824Y-73.152
X175.824Y-75.692
X175.824Y-78.232
X175.824Y-80.772
X175.824Y-83.312
X175.824Y-85.852
X175.824Y-88.392
X160.584Y-52.832
X160.584Y-55.372
X160.584Y-57.912
X160.584Y-60.452
X160.584Y-62.992
X160.584Y-65.532
X160.584Y-68.072
X160.584Y-70.612
X160.584Y-73.152
X160.584Y-75.692
X160.584Y-78.232
X160.584Y-80.772
X160.584Y-83.312
X160.584Y-85.852
X160.584Y-88.392
T3
X187.706Y-82.5
X187.706Y-54.864
X187.706Y-68.5
X187.706Y-109.5
X187.706Y-96.0
T4
X184.531Y-92.825
X184.531Y-99.175
X190.881Y-92.825
X190.881Y-99.175
X184.531Y-79.325
X184.531Y-85.675
X190.881Y-79.325
X190.881Y-85.675
X184.531Y-51.689
X184.531Y-58.039
X190.881Y-51.689
X190.881Y-58.039
X184.531Y-65.325
X184.531Y-71.675
X190.881Y-65.325
X190.881Y-71.675
X184.531Y-106.325
X184.531Y-112.675
X190.881Y-106.325
X190.881Y-112.675
T2
G00X161.0Y-106.5
M15
G01X163.0Y-106.5
M16
G05
G00X161.0Y-112.5
M15
G01X163.0Y-112.5
M16
G05
G00X166.7Y-110.5
M15
G01X166.7Y-108.5
M16
G05
T0
M30
