M48
; DRILL file {KiCad 5.1.5-52549c5~84~ubuntu18.04.1} date Thu 14 May 2020 17:44:09 BST
; FORMAT={-:-/ absolute / metric / decimal}
; #@! TF.CreationDate,2020-05-14T17:44:09+01:00
; #@! TF.GenerationSoftware,Kicad,Pcbnew,5.1.5-52549c5~84~ubuntu18.04.1
; #@! TF.FileFunction,Plated,1,2,PTH
FMAT,2
METRIC
T1C0.400
T2C0.900
T3C1.000
T4C1.100
T5C1.270
T6C1.524
%
G90
G05
T1
X149.382Y-105.882
X156.132Y-99.132
X160.0Y-73.0
X161.0Y-72.0
X161.0Y-77.0
X167.0Y-67.0
X167.0Y-87.0
X169.5Y-75.0
X170.5Y-102.0
X171.0Y-55.0
X173.0Y-60.5
X175.0Y-66.5
X176.0Y-76.0
X177.0Y-77.0
X177.0Y-79.5
X181.075Y-93.075
X181.5Y-86.5
T2
X176.41Y-104.948
X176.41Y-107.488
T3
X142.676Y-103.712
X142.676Y-106.212
X142.676Y-108.712
X142.676Y-55.706
X142.676Y-58.206
X142.676Y-60.706
X164.084Y-52.832
X164.084Y-55.372
X164.084Y-57.912
X164.084Y-60.452
X164.084Y-62.992
X164.084Y-65.532
X164.084Y-68.072
X164.084Y-70.612
X164.084Y-73.152
X164.084Y-75.692
X164.084Y-78.232
X164.084Y-80.772
X164.084Y-83.312
X164.084Y-85.852
X164.084Y-88.392
X179.324Y-52.832
X179.324Y-55.372
X179.324Y-57.912
X179.324Y-60.452
X179.324Y-62.992
X179.324Y-65.532
X179.324Y-68.072
X179.324Y-70.612
X179.324Y-73.152
X179.324Y-75.692
X179.324Y-78.232
X179.324Y-80.772
X179.324Y-83.312
X179.324Y-85.852
X179.324Y-88.392
X142.422Y-87.71
X142.422Y-90.21
X142.422Y-92.71
X142.676Y-71.962
X142.676Y-74.462
X142.676Y-76.962
T4
X159.25Y-94.0
X159.25Y-98.5
X165.75Y-94.0
X165.75Y-98.5
T5
X187.706Y-105.664
X187.706Y-80.264
X187.706Y-67.564
X187.706Y-92.964
X187.706Y-54.864
T6
X184.531Y-102.489
X184.531Y-108.839
X190.881Y-102.489
X190.881Y-108.839
X184.531Y-77.089
X184.531Y-83.439
X190.881Y-77.089
X190.881Y-83.439
X184.531Y-64.389
X184.531Y-70.739
X190.881Y-64.389
X190.881Y-70.739
X184.531Y-89.789
X184.531Y-96.139
X190.881Y-89.789
X190.881Y-96.139
X184.531Y-51.689
X184.531Y-58.039
X190.881Y-51.689
X190.881Y-58.039
T3
G00X161.0Y-104.0
M15
G01X163.0Y-104.0
M16
G05
G00X161.0Y-110.0
M15
G01X163.0Y-110.0
M16
G05
G00X166.7Y-108.0
M15
G01X166.7Y-106.0
M16
G05
T0
M30
