G04 #@! TF.GenerationSoftware,KiCad,Pcbnew,5.1.5-52549c5~84~ubuntu18.04.1*
G04 #@! TF.CreationDate,2020-05-14T17:44:15+01:00*
G04 #@! TF.ProjectId,spikeling,7370696b-656c-4696-9e67-2e6b69636164,rev?*
G04 #@! TF.SameCoordinates,Original*
G04 #@! TF.FileFunction,Other,ECO2*
%FSLAX46Y46*%
G04 Gerber Fmt 4.6, Leading zero omitted, Abs format (unit mm)*
G04 Created by KiCad (PCBNEW 5.1.5-52549c5~84~ubuntu18.04.1) date 2020-05-14 17:44:15*
%MOMM*%
%LPD*%
G04 APERTURE LIST*
%ADD10C,0.150000*%
%ADD11C,0.300000*%
G04 APERTURE END LIST*
D10*
X164420952Y-38284380D02*
X163944761Y-38284380D01*
X163897142Y-38760571D01*
X163944761Y-38712952D01*
X164040000Y-38665333D01*
X164278095Y-38665333D01*
X164373333Y-38712952D01*
X164420952Y-38760571D01*
X164468571Y-38855809D01*
X164468571Y-39093904D01*
X164420952Y-39189142D01*
X164373333Y-39236761D01*
X164278095Y-39284380D01*
X164040000Y-39284380D01*
X163944761Y-39236761D01*
X163897142Y-39189142D01*
X165373333Y-38284380D02*
X164897142Y-38284380D01*
X164849523Y-38760571D01*
X164897142Y-38712952D01*
X164992380Y-38665333D01*
X165230476Y-38665333D01*
X165325714Y-38712952D01*
X165373333Y-38760571D01*
X165420952Y-38855809D01*
X165420952Y-39093904D01*
X165373333Y-39189142D01*
X165325714Y-39236761D01*
X165230476Y-39284380D01*
X164992380Y-39284380D01*
X164897142Y-39236761D01*
X164849523Y-39189142D01*
X165849523Y-39189142D02*
X165897142Y-39236761D01*
X165849523Y-39284380D01*
X165801904Y-39236761D01*
X165849523Y-39189142D01*
X165849523Y-39284380D01*
X166516190Y-38284380D02*
X166611428Y-38284380D01*
X166706666Y-38332000D01*
X166754285Y-38379619D01*
X166801904Y-38474857D01*
X166849523Y-38665333D01*
X166849523Y-38903428D01*
X166801904Y-39093904D01*
X166754285Y-39189142D01*
X166706666Y-39236761D01*
X166611428Y-39284380D01*
X166516190Y-39284380D01*
X166420952Y-39236761D01*
X166373333Y-39189142D01*
X166325714Y-39093904D01*
X166278095Y-38903428D01*
X166278095Y-38665333D01*
X166325714Y-38474857D01*
X166373333Y-38379619D01*
X166420952Y-38332000D01*
X166516190Y-38284380D01*
X167420952Y-38712952D02*
X167325714Y-38665333D01*
X167278095Y-38617714D01*
X167230476Y-38522476D01*
X167230476Y-38474857D01*
X167278095Y-38379619D01*
X167325714Y-38332000D01*
X167420952Y-38284380D01*
X167611428Y-38284380D01*
X167706666Y-38332000D01*
X167754285Y-38379619D01*
X167801904Y-38474857D01*
X167801904Y-38522476D01*
X167754285Y-38617714D01*
X167706666Y-38665333D01*
X167611428Y-38712952D01*
X167420952Y-38712952D01*
X167325714Y-38760571D01*
X167278095Y-38808190D01*
X167230476Y-38903428D01*
X167230476Y-39093904D01*
X167278095Y-39189142D01*
X167325714Y-39236761D01*
X167420952Y-39284380D01*
X167611428Y-39284380D01*
X167706666Y-39236761D01*
X167754285Y-39189142D01*
X167801904Y-39093904D01*
X167801904Y-38903428D01*
X167754285Y-38808190D01*
X167706666Y-38760571D01*
X167611428Y-38712952D01*
X168420952Y-38284380D02*
X168516190Y-38284380D01*
X168611428Y-38332000D01*
X168659047Y-38379619D01*
X168706666Y-38474857D01*
X168754285Y-38665333D01*
X168754285Y-38903428D01*
X168706666Y-39093904D01*
X168659047Y-39189142D01*
X168611428Y-39236761D01*
X168516190Y-39284380D01*
X168420952Y-39284380D01*
X168325714Y-39236761D01*
X168278095Y-39189142D01*
X168230476Y-39093904D01*
X168182857Y-38903428D01*
X168182857Y-38665333D01*
X168230476Y-38474857D01*
X168278095Y-38379619D01*
X168325714Y-38332000D01*
X168420952Y-38284380D01*
X169944761Y-39284380D02*
X169944761Y-38617714D01*
X169944761Y-38712952D02*
X169992380Y-38665333D01*
X170087619Y-38617714D01*
X170230476Y-38617714D01*
X170325714Y-38665333D01*
X170373333Y-38760571D01*
X170373333Y-39284380D01*
X170373333Y-38760571D02*
X170420952Y-38665333D01*
X170516190Y-38617714D01*
X170659047Y-38617714D01*
X170754285Y-38665333D01*
X170801904Y-38760571D01*
X170801904Y-39284380D01*
X171278095Y-39284380D02*
X171278095Y-38617714D01*
X171278095Y-38712952D02*
X171325714Y-38665333D01*
X171420952Y-38617714D01*
X171563809Y-38617714D01*
X171659047Y-38665333D01*
X171706666Y-38760571D01*
X171706666Y-39284380D01*
X171706666Y-38760571D02*
X171754285Y-38665333D01*
X171849523Y-38617714D01*
X171992380Y-38617714D01*
X172087619Y-38665333D01*
X172135238Y-38760571D01*
X172135238Y-39284380D01*
X195580000Y-40132000D02*
X140500000Y-40132000D01*
X195580000Y-48768000D02*
X195580000Y-39545579D01*
X140500000Y-48768000D02*
X140500000Y-39545579D01*
X140500000Y-40132000D02*
X141626504Y-39545579D01*
X140500000Y-40132000D02*
X141626504Y-40718421D01*
X195580000Y-40132000D02*
X194453496Y-39545579D01*
X195580000Y-40132000D02*
X194453496Y-40718421D01*
D11*
X207811816Y-86899053D02*
X207811466Y-87184767D01*
X207882719Y-87327712D01*
X207954060Y-87399228D01*
X208168171Y-87542348D01*
X208453797Y-87614127D01*
X209025225Y-87614827D01*
X209168170Y-87543574D01*
X209239686Y-87472233D01*
X209311290Y-87329464D01*
X209311640Y-87043750D01*
X209240387Y-86900805D01*
X209169046Y-86829289D01*
X209026276Y-86757685D01*
X208669134Y-86757247D01*
X208526189Y-86828500D01*
X208454673Y-86899841D01*
X208383069Y-87042611D01*
X208382719Y-87328325D01*
X208453972Y-87471270D01*
X208525313Y-87542786D01*
X208668083Y-87614389D01*
X207813656Y-85399054D02*
X207812780Y-86113339D01*
X208526978Y-86185644D01*
X208455637Y-86114128D01*
X208384383Y-85971183D01*
X208384821Y-85614040D01*
X208456425Y-85471271D01*
X208527941Y-85399930D01*
X208670886Y-85328677D01*
X209028028Y-85329115D01*
X209170798Y-85400718D01*
X209242139Y-85472235D01*
X209313392Y-85615179D01*
X209312954Y-85972322D01*
X209241350Y-86115091D01*
X209169834Y-86186432D01*
X209171674Y-84686433D02*
X209243190Y-84615092D01*
X209314531Y-84686609D01*
X209243015Y-84757949D01*
X209171674Y-84686433D01*
X209314531Y-84686609D01*
X207958177Y-84042087D02*
X207886836Y-83970571D01*
X207815583Y-83827627D01*
X207816021Y-83470484D01*
X207887625Y-83327715D01*
X207959141Y-83256374D01*
X208102086Y-83185120D01*
X208244943Y-83185296D01*
X208459141Y-83256987D01*
X209315232Y-84115180D01*
X209316370Y-83186610D01*
X207816985Y-82684770D02*
X207818124Y-81756200D01*
X208388938Y-82256900D01*
X208389201Y-82042615D01*
X208460805Y-81899845D01*
X208532321Y-81828504D01*
X208675266Y-81757251D01*
X209032408Y-81757689D01*
X209175178Y-81829293D01*
X209246519Y-81900809D01*
X209317772Y-82043753D01*
X209317246Y-82472324D01*
X209245643Y-82615094D01*
X209174127Y-82686435D01*
X207961681Y-81184947D02*
X207890340Y-81113431D01*
X207819087Y-80970486D01*
X207819525Y-80613343D01*
X207891129Y-80470574D01*
X207962645Y-80399233D01*
X208105590Y-80327980D01*
X208248447Y-80328155D01*
X208462645Y-80399846D01*
X209318736Y-81258040D01*
X209319874Y-80329469D01*
X209322064Y-78543756D02*
X208322065Y-78542530D01*
X208464922Y-78542705D02*
X208393581Y-78471189D01*
X208322328Y-78328244D01*
X208322591Y-78113958D01*
X208394194Y-77971189D01*
X208537139Y-77899936D01*
X209322853Y-77900899D01*
X208537139Y-77899936D02*
X208394370Y-77828332D01*
X208323116Y-77685387D01*
X208323379Y-77471102D01*
X208394983Y-77328332D01*
X208537927Y-77257079D01*
X209323641Y-77258043D01*
X209324517Y-76543757D02*
X208324518Y-76542531D01*
X208467375Y-76542706D02*
X208396034Y-76471190D01*
X208324781Y-76328246D01*
X208325044Y-76113960D01*
X208396647Y-75971191D01*
X208539592Y-75899937D01*
X209325306Y-75900901D01*
X208539592Y-75899937D02*
X208396822Y-75828334D01*
X208325569Y-75685389D01*
X208325832Y-75471103D01*
X208397436Y-75328334D01*
X208540380Y-75257081D01*
X209326094Y-75258044D01*
X206579992Y-48781490D02*
X206499992Y-114013490D01*
X195580000Y-48768000D02*
X207166412Y-48782209D01*
X195500000Y-114000000D02*
X207086412Y-114014209D01*
X206499992Y-114013490D02*
X205914953Y-112886268D01*
X206499992Y-114013490D02*
X207087794Y-112887706D01*
X206579992Y-48781490D02*
X205992190Y-49907274D01*
X206579992Y-48781490D02*
X207165031Y-49908712D01*
M02*
