G04 #@! TF.GenerationSoftware,KiCad,Pcbnew,5.1.6-c6e7f7d~87~ubuntu20.04.1*
G04 #@! TF.CreationDate,2020-07-16T12:52:22+01:00*
G04 #@! TF.ProjectId,spikeling,7370696b-656c-4696-9e67-2e6b69636164,rev?*
G04 #@! TF.SameCoordinates,Original*
G04 #@! TF.FileFunction,Other,ECO2*
%FSLAX46Y46*%
G04 Gerber Fmt 4.6, Leading zero omitted, Abs format (unit mm)*
G04 Created by KiCad (PCBNEW 5.1.6-c6e7f7d~87~ubuntu20.04.1) date 2020-07-16 12:52:22*
%MOMM*%
%LPD*%
G01*
G04 APERTURE LIST*
%ADD10C,0.150000*%
%ADD11C,0.300000*%
G04 APERTURE END LIST*
D10*
X164340952Y-33652380D02*
X163864761Y-33652380D01*
X163817142Y-34128571D01*
X163864761Y-34080952D01*
X163960000Y-34033333D01*
X164198095Y-34033333D01*
X164293333Y-34080952D01*
X164340952Y-34128571D01*
X164388571Y-34223809D01*
X164388571Y-34461904D01*
X164340952Y-34557142D01*
X164293333Y-34604761D01*
X164198095Y-34652380D01*
X163960000Y-34652380D01*
X163864761Y-34604761D01*
X163817142Y-34557142D01*
X165293333Y-33652380D02*
X164817142Y-33652380D01*
X164769523Y-34128571D01*
X164817142Y-34080952D01*
X164912380Y-34033333D01*
X165150476Y-34033333D01*
X165245714Y-34080952D01*
X165293333Y-34128571D01*
X165340952Y-34223809D01*
X165340952Y-34461904D01*
X165293333Y-34557142D01*
X165245714Y-34604761D01*
X165150476Y-34652380D01*
X164912380Y-34652380D01*
X164817142Y-34604761D01*
X164769523Y-34557142D01*
X165769523Y-34557142D02*
X165817142Y-34604761D01*
X165769523Y-34652380D01*
X165721904Y-34604761D01*
X165769523Y-34557142D01*
X165769523Y-34652380D01*
X166436190Y-33652380D02*
X166531428Y-33652380D01*
X166626666Y-33700000D01*
X166674285Y-33747619D01*
X166721904Y-33842857D01*
X166769523Y-34033333D01*
X166769523Y-34271428D01*
X166721904Y-34461904D01*
X166674285Y-34557142D01*
X166626666Y-34604761D01*
X166531428Y-34652380D01*
X166436190Y-34652380D01*
X166340952Y-34604761D01*
X166293333Y-34557142D01*
X166245714Y-34461904D01*
X166198095Y-34271428D01*
X166198095Y-34033333D01*
X166245714Y-33842857D01*
X166293333Y-33747619D01*
X166340952Y-33700000D01*
X166436190Y-33652380D01*
X167340952Y-34080952D02*
X167245714Y-34033333D01*
X167198095Y-33985714D01*
X167150476Y-33890476D01*
X167150476Y-33842857D01*
X167198095Y-33747619D01*
X167245714Y-33700000D01*
X167340952Y-33652380D01*
X167531428Y-33652380D01*
X167626666Y-33700000D01*
X167674285Y-33747619D01*
X167721904Y-33842857D01*
X167721904Y-33890476D01*
X167674285Y-33985714D01*
X167626666Y-34033333D01*
X167531428Y-34080952D01*
X167340952Y-34080952D01*
X167245714Y-34128571D01*
X167198095Y-34176190D01*
X167150476Y-34271428D01*
X167150476Y-34461904D01*
X167198095Y-34557142D01*
X167245714Y-34604761D01*
X167340952Y-34652380D01*
X167531428Y-34652380D01*
X167626666Y-34604761D01*
X167674285Y-34557142D01*
X167721904Y-34461904D01*
X167721904Y-34271428D01*
X167674285Y-34176190D01*
X167626666Y-34128571D01*
X167531428Y-34080952D01*
X168340952Y-33652380D02*
X168436190Y-33652380D01*
X168531428Y-33700000D01*
X168579047Y-33747619D01*
X168626666Y-33842857D01*
X168674285Y-34033333D01*
X168674285Y-34271428D01*
X168626666Y-34461904D01*
X168579047Y-34557142D01*
X168531428Y-34604761D01*
X168436190Y-34652380D01*
X168340952Y-34652380D01*
X168245714Y-34604761D01*
X168198095Y-34557142D01*
X168150476Y-34461904D01*
X168102857Y-34271428D01*
X168102857Y-34033333D01*
X168150476Y-33842857D01*
X168198095Y-33747619D01*
X168245714Y-33700000D01*
X168340952Y-33652380D01*
X169864761Y-34652380D02*
X169864761Y-33985714D01*
X169864761Y-34080952D02*
X169912380Y-34033333D01*
X170007619Y-33985714D01*
X170150476Y-33985714D01*
X170245714Y-34033333D01*
X170293333Y-34128571D01*
X170293333Y-34652380D01*
X170293333Y-34128571D02*
X170340952Y-34033333D01*
X170436190Y-33985714D01*
X170579047Y-33985714D01*
X170674285Y-34033333D01*
X170721904Y-34128571D01*
X170721904Y-34652380D01*
X171198095Y-34652380D02*
X171198095Y-33985714D01*
X171198095Y-34080952D02*
X171245714Y-34033333D01*
X171340952Y-33985714D01*
X171483809Y-33985714D01*
X171579047Y-34033333D01*
X171626666Y-34128571D01*
X171626666Y-34652380D01*
X171626666Y-34128571D02*
X171674285Y-34033333D01*
X171769523Y-33985714D01*
X171912380Y-33985714D01*
X172007619Y-34033333D01*
X172055238Y-34128571D01*
X172055238Y-34652380D01*
X195500000Y-35500000D02*
X140420000Y-35500000D01*
X195500000Y-44136000D02*
X195500000Y-34913579D01*
X140420000Y-44136000D02*
X140420000Y-34913579D01*
X140420000Y-35500000D02*
X141546504Y-34913579D01*
X140420000Y-35500000D02*
X141546504Y-36086421D01*
X195500000Y-35500000D02*
X194373496Y-34913579D01*
X195500000Y-35500000D02*
X194373496Y-36086421D01*
D11*
X210921428Y-78964285D02*
X210921428Y-79964285D01*
X209421428Y-79321428D01*
X210778571Y-80464285D02*
X210850000Y-80535714D01*
X210921428Y-80678571D01*
X210921428Y-81035714D01*
X210850000Y-81178571D01*
X210778571Y-81250000D01*
X210635714Y-81321428D01*
X210492857Y-81321428D01*
X210278571Y-81250000D01*
X209421428Y-80392857D01*
X209421428Y-81321428D01*
X209564285Y-81964285D02*
X209492857Y-82035714D01*
X209421428Y-81964285D01*
X209492857Y-81892857D01*
X209564285Y-81964285D01*
X209421428Y-81964285D01*
X210921428Y-83392857D02*
X210921428Y-82678571D01*
X210207142Y-82607142D01*
X210278571Y-82678571D01*
X210350000Y-82821428D01*
X210350000Y-83178571D01*
X210278571Y-83321428D01*
X210207142Y-83392857D01*
X210064285Y-83464285D01*
X209707142Y-83464285D01*
X209564285Y-83392857D01*
X209492857Y-83321428D01*
X209421428Y-83178571D01*
X209421428Y-82821428D01*
X209492857Y-82678571D01*
X209564285Y-82607142D01*
X210921428Y-84392857D02*
X210921428Y-84535714D01*
X210850000Y-84678571D01*
X210778571Y-84750000D01*
X210635714Y-84821428D01*
X210350000Y-84892857D01*
X209992857Y-84892857D01*
X209707142Y-84821428D01*
X209564285Y-84750000D01*
X209492857Y-84678571D01*
X209421428Y-84535714D01*
X209421428Y-84392857D01*
X209492857Y-84250000D01*
X209564285Y-84178571D01*
X209707142Y-84107142D01*
X209992857Y-84035714D01*
X210350000Y-84035714D01*
X210635714Y-84107142D01*
X210778571Y-84178571D01*
X210850000Y-84250000D01*
X210921428Y-84392857D01*
X210921428Y-85821428D02*
X210921428Y-85964285D01*
X210850000Y-86107142D01*
X210778571Y-86178571D01*
X210635714Y-86250000D01*
X210350000Y-86321428D01*
X209992857Y-86321428D01*
X209707142Y-86250000D01*
X209564285Y-86178571D01*
X209492857Y-86107142D01*
X209421428Y-85964285D01*
X209421428Y-85821428D01*
X209492857Y-85678571D01*
X209564285Y-85607142D01*
X209707142Y-85535714D01*
X209992857Y-85464285D01*
X210350000Y-85464285D01*
X210635714Y-85535714D01*
X210778571Y-85607142D01*
X210850000Y-85678571D01*
X210921428Y-85821428D01*
X209421428Y-88107142D02*
X210421428Y-88107142D01*
X210278571Y-88107142D02*
X210350000Y-88178571D01*
X210421428Y-88321428D01*
X210421428Y-88535714D01*
X210350000Y-88678571D01*
X210207142Y-88750000D01*
X209421428Y-88750000D01*
X210207142Y-88750000D02*
X210350000Y-88821428D01*
X210421428Y-88964285D01*
X210421428Y-89178571D01*
X210350000Y-89321428D01*
X210207142Y-89392857D01*
X209421428Y-89392857D01*
X209421428Y-90107142D02*
X210421428Y-90107142D01*
X210278571Y-90107142D02*
X210350000Y-90178571D01*
X210421428Y-90321428D01*
X210421428Y-90535714D01*
X210350000Y-90678571D01*
X210207142Y-90750000D01*
X209421428Y-90750000D01*
X210207142Y-90750000D02*
X210350000Y-90821428D01*
X210421428Y-90964285D01*
X210421428Y-91178571D01*
X210350000Y-91321428D01*
X210207142Y-91392857D01*
X209421428Y-91392857D01*
X208000000Y-49000000D02*
X208000000Y-121500000D01*
X197000000Y-49000000D02*
X208586421Y-49000000D01*
X197000000Y-121500000D02*
X208586421Y-121500000D01*
X208000000Y-121500000D02*
X207413579Y-120373496D01*
X208000000Y-121500000D02*
X208586421Y-120373496D01*
X208000000Y-49000000D02*
X207413579Y-50126504D01*
X208000000Y-49000000D02*
X208586421Y-50126504D01*
M02*
