G04 #@! TF.GenerationSoftware,KiCad,Pcbnew,5.1.6-c6e7f7d~86~ubuntu20.04.1*
G04 #@! TF.CreationDate,2020-06-08T22:34:45+01:00*
G04 #@! TF.ProjectId,spikeling,7370696b-656c-4696-9e67-2e6b69636164,rev?*
G04 #@! TF.SameCoordinates,Original*
G04 #@! TF.FileFunction,Legend,Top*
G04 #@! TF.FilePolarity,Positive*
%FSLAX46Y46*%
G04 Gerber Fmt 4.6, Leading zero omitted, Abs format (unit mm)*
G04 Created by KiCad (PCBNEW 5.1.6-c6e7f7d~86~ubuntu20.04.1) date 2020-06-08 22:34:45*
%MOMM*%
%LPD*%
G01*
G04 APERTURE LIST*
%ADD10C,0.120000*%
%ADD11C,0.150000*%
G04 APERTURE END LIST*
D10*
X182942411Y-80787337D02*
G75*
G03*
X182956000Y-84250000I4763589J-1712663D01*
G01*
X185993337Y-87263589D02*
G75*
G03*
X189456000Y-87250000I1712663J4763589D01*
G01*
X192469589Y-84212663D02*
G75*
G03*
X192456000Y-80750000I-4763589J1712663D01*
G01*
X189418663Y-77736411D02*
G75*
G03*
X185956000Y-77750000I-1712663J-4763589D01*
G01*
X174897936Y-105410000D02*
X176102064Y-105410000D01*
X174897936Y-103590000D02*
X176102064Y-103590000D01*
X168602064Y-62590000D02*
X167397936Y-62590000D01*
X168602064Y-64410000D02*
X167397936Y-64410000D01*
X165090000Y-87897936D02*
X165090000Y-89102064D01*
X166910000Y-87897936D02*
X166910000Y-89102064D01*
X167397936Y-60410000D02*
X168602064Y-60410000D01*
X167397936Y-58590000D02*
X168602064Y-58590000D01*
X167397936Y-56410000D02*
X168602064Y-56410000D01*
X167397936Y-54590000D02*
X168602064Y-54590000D01*
X159254000Y-51502000D02*
X160584000Y-51502000D01*
X159254000Y-52832000D02*
X159254000Y-51502000D01*
X159254000Y-54102000D02*
X161914000Y-54102000D01*
X161914000Y-54102000D02*
X161914000Y-89722000D01*
X159254000Y-54102000D02*
X159254000Y-89722000D01*
X159254000Y-89722000D02*
X161914000Y-89722000D01*
X177154000Y-89722000D02*
X175824000Y-89722000D01*
X177154000Y-88392000D02*
X177154000Y-89722000D01*
X177154000Y-87122000D02*
X174494000Y-87122000D01*
X174494000Y-87122000D02*
X174494000Y-51502000D01*
X177154000Y-87122000D02*
X177154000Y-51502000D01*
X177154000Y-51502000D02*
X174494000Y-51502000D01*
X154892000Y-84040000D02*
X154892000Y-96380000D01*
X143302000Y-93580000D02*
X143302000Y-96380000D01*
X143302000Y-91081000D02*
X143302000Y-91840000D01*
X143302000Y-88581000D02*
X143302000Y-89340000D01*
X143302000Y-84040000D02*
X143302000Y-86839000D01*
X151877000Y-96380000D02*
X154892000Y-96380000D01*
X143302000Y-96380000D02*
X147968000Y-96380000D01*
X151877000Y-84040000D02*
X154892000Y-84040000D01*
X143302000Y-84040000D02*
X147968000Y-84040000D01*
X143556000Y-68292000D02*
X148222000Y-68292000D01*
X152131000Y-68292000D02*
X155146000Y-68292000D01*
X143556000Y-80632000D02*
X148222000Y-80632000D01*
X152131000Y-80632000D02*
X155146000Y-80632000D01*
X143556000Y-68292000D02*
X143556000Y-71091000D01*
X143556000Y-72833000D02*
X143556000Y-73592000D01*
X143556000Y-75333000D02*
X143556000Y-76092000D01*
X143556000Y-77832000D02*
X143556000Y-80632000D01*
X155146000Y-68292000D02*
X155146000Y-80632000D01*
X155146000Y-52036000D02*
X155146000Y-64376000D01*
X143556000Y-61576000D02*
X143556000Y-64376000D01*
X143556000Y-59077000D02*
X143556000Y-59836000D01*
X143556000Y-56577000D02*
X143556000Y-57336000D01*
X143556000Y-52036000D02*
X143556000Y-54835000D01*
X152131000Y-64376000D02*
X155146000Y-64376000D01*
X143556000Y-64376000D02*
X148222000Y-64376000D01*
X152131000Y-52036000D02*
X155146000Y-52036000D01*
X143556000Y-52036000D02*
X148222000Y-52036000D01*
X143556000Y-100042000D02*
X148222000Y-100042000D01*
X152131000Y-100042000D02*
X155146000Y-100042000D01*
X143556000Y-112382000D02*
X148222000Y-112382000D01*
X152131000Y-112382000D02*
X155146000Y-112382000D01*
X143556000Y-100042000D02*
X143556000Y-102841000D01*
X143556000Y-104583000D02*
X143556000Y-105342000D01*
X143556000Y-107083000D02*
X143556000Y-107842000D01*
X143556000Y-109582000D02*
X143556000Y-112382000D01*
X155146000Y-100042000D02*
X155146000Y-112382000D01*
X182942411Y-53151337D02*
G75*
G03*
X182956000Y-56614000I4763589J-1712663D01*
G01*
X185993337Y-59627589D02*
G75*
G03*
X189456000Y-59614000I1712663J4763589D01*
G01*
X192469589Y-56576663D02*
G75*
G03*
X192456000Y-53114000I-4763589J1712663D01*
G01*
X189418663Y-50100411D02*
G75*
G03*
X185956000Y-50114000I-1712663J-4763589D01*
G01*
X189418663Y-63736411D02*
G75*
G03*
X185956000Y-63750000I-1712663J-4763589D01*
G01*
X192469589Y-70212663D02*
G75*
G03*
X192456000Y-66750000I-4763589J1712663D01*
G01*
X185993337Y-73263589D02*
G75*
G03*
X189456000Y-73250000I1712663J4763589D01*
G01*
X182942411Y-66787337D02*
G75*
G03*
X182956000Y-70250000I4763589J-1712663D01*
G01*
X182942411Y-94287337D02*
G75*
G03*
X182956000Y-97750000I4763589J-1712663D01*
G01*
X185993337Y-100763589D02*
G75*
G03*
X189456000Y-100750000I1712663J4763589D01*
G01*
X192469589Y-97712663D02*
G75*
G03*
X192456000Y-94250000I-4763589J1712663D01*
G01*
X189418663Y-91236411D02*
G75*
G03*
X185956000Y-91250000I-1712663J-4763589D01*
G01*
X189418663Y-104736411D02*
G75*
G03*
X185956000Y-104750000I-1712663J-4763589D01*
G01*
X192469589Y-111212663D02*
G75*
G03*
X192456000Y-107750000I-4763589J1712663D01*
G01*
X185993337Y-114263589D02*
G75*
G03*
X189456000Y-114250000I1712663J4763589D01*
G01*
X182942411Y-107787337D02*
G75*
G03*
X182956000Y-111250000I4763589J-1712663D01*
G01*
X179610000Y-97960000D02*
X179940000Y-97960000D01*
X179610000Y-91390000D02*
X179610000Y-94040000D01*
X170390000Y-91390000D02*
X179610000Y-91390000D01*
X170390000Y-94040000D02*
X170390000Y-91390000D01*
X170390000Y-100610000D02*
X170390000Y-97960000D01*
X179610000Y-100610000D02*
X170390000Y-100610000D01*
X179610000Y-97960000D02*
X179610000Y-100610000D01*
X166400000Y-53085000D02*
X170460000Y-53085000D01*
X170460000Y-53085000D02*
X170460000Y-49915000D01*
X170460000Y-49915000D02*
X166400000Y-49915000D01*
X158250000Y-105400000D02*
X157200000Y-105400000D01*
X157200000Y-106450000D02*
X157200000Y-105400000D01*
X166600000Y-111500000D02*
X166600000Y-120300000D01*
X166600000Y-120300000D02*
X157400000Y-120300000D01*
X163900000Y-105600000D02*
X166600000Y-105600000D01*
X166600000Y-105600000D02*
X166600000Y-107500000D01*
X157400000Y-120300000D02*
X157400000Y-105600000D01*
X157400000Y-105600000D02*
X160000000Y-105600000D01*
X172540000Y-111660000D02*
X177750000Y-111660000D01*
X172540000Y-109340000D02*
X172540000Y-111660000D01*
X177750000Y-109340000D02*
X172540000Y-109340000D01*
X165230000Y-93770000D02*
X158770000Y-93770000D01*
X165230000Y-98300000D02*
X165230000Y-95700000D01*
X165230000Y-100230000D02*
X158770000Y-100230000D01*
X158770000Y-98300000D02*
X158770000Y-95700000D01*
X165230000Y-100200000D02*
X165230000Y-100230000D01*
X165230000Y-93770000D02*
X165230000Y-93800000D01*
X158770000Y-93770000D02*
X158770000Y-93800000D01*
X158770000Y-100230000D02*
X158770000Y-100200000D01*
D11*
X183816666Y-81952380D02*
X183816666Y-82666666D01*
X183769047Y-82809523D01*
X183673809Y-82904761D01*
X183530952Y-82952380D01*
X183435714Y-82952380D01*
X184197619Y-81952380D02*
X184816666Y-81952380D01*
X184483333Y-82333333D01*
X184626190Y-82333333D01*
X184721428Y-82380952D01*
X184769047Y-82428571D01*
X184816666Y-82523809D01*
X184816666Y-82761904D01*
X184769047Y-82857142D01*
X184721428Y-82904761D01*
X184626190Y-82952380D01*
X184340476Y-82952380D01*
X184245238Y-82904761D01*
X184197619Y-82857142D01*
X175333333Y-103132380D02*
X175000000Y-102656190D01*
X174761904Y-103132380D02*
X174761904Y-102132380D01*
X175142857Y-102132380D01*
X175238095Y-102180000D01*
X175285714Y-102227619D01*
X175333333Y-102322857D01*
X175333333Y-102465714D01*
X175285714Y-102560952D01*
X175238095Y-102608571D01*
X175142857Y-102656190D01*
X174761904Y-102656190D01*
X176285714Y-103132380D02*
X175714285Y-103132380D01*
X176000000Y-103132380D02*
X176000000Y-102132380D01*
X175904761Y-102275238D01*
X175809523Y-102370476D01*
X175714285Y-102418095D01*
X174904761Y-106772380D02*
X174333333Y-106772380D01*
X174619047Y-106772380D02*
X174619047Y-105772380D01*
X174523809Y-105915238D01*
X174428571Y-106010476D01*
X174333333Y-106058095D01*
X175523809Y-105772380D02*
X175619047Y-105772380D01*
X175714285Y-105820000D01*
X175761904Y-105867619D01*
X175809523Y-105962857D01*
X175857142Y-106153333D01*
X175857142Y-106391428D01*
X175809523Y-106581904D01*
X175761904Y-106677142D01*
X175714285Y-106724761D01*
X175619047Y-106772380D01*
X175523809Y-106772380D01*
X175428571Y-106724761D01*
X175380952Y-106677142D01*
X175333333Y-106581904D01*
X175285714Y-106391428D01*
X175285714Y-106153333D01*
X175333333Y-105962857D01*
X175380952Y-105867619D01*
X175428571Y-105820000D01*
X175523809Y-105772380D01*
X176285714Y-106772380D02*
X176285714Y-105772380D01*
X176380952Y-106391428D02*
X176666666Y-106772380D01*
X176666666Y-106105714D02*
X176285714Y-106486666D01*
X167833333Y-65677142D02*
X167785714Y-65724761D01*
X167642857Y-65772380D01*
X167547619Y-65772380D01*
X167404761Y-65724761D01*
X167309523Y-65629523D01*
X167261904Y-65534285D01*
X167214285Y-65343809D01*
X167214285Y-65200952D01*
X167261904Y-65010476D01*
X167309523Y-64915238D01*
X167404761Y-64820000D01*
X167547619Y-64772380D01*
X167642857Y-64772380D01*
X167785714Y-64820000D01*
X167833333Y-64867619D01*
X168785714Y-65772380D02*
X168214285Y-65772380D01*
X168500000Y-65772380D02*
X168500000Y-64772380D01*
X168404761Y-64915238D01*
X168309523Y-65010476D01*
X168214285Y-65058095D01*
X167404761Y-62132380D02*
X166833333Y-62132380D01*
X167119047Y-62132380D02*
X167119047Y-61132380D01*
X167023809Y-61275238D01*
X166928571Y-61370476D01*
X166833333Y-61418095D01*
X167833333Y-61465714D02*
X167833333Y-62132380D01*
X167833333Y-61560952D02*
X167880952Y-61513333D01*
X167976190Y-61465714D01*
X168119047Y-61465714D01*
X168214285Y-61513333D01*
X168261904Y-61608571D01*
X168261904Y-62132380D01*
X169071428Y-61608571D02*
X168738095Y-61608571D01*
X168738095Y-62132380D02*
X168738095Y-61132380D01*
X169214285Y-61132380D01*
X168272380Y-88666666D02*
X167796190Y-89000000D01*
X168272380Y-89238095D02*
X167272380Y-89238095D01*
X167272380Y-88857142D01*
X167320000Y-88761904D01*
X167367619Y-88714285D01*
X167462857Y-88666666D01*
X167605714Y-88666666D01*
X167700952Y-88714285D01*
X167748571Y-88761904D01*
X167796190Y-88857142D01*
X167796190Y-89238095D01*
X167605714Y-87809523D02*
X168272380Y-87809523D01*
X167224761Y-88047619D02*
X167939047Y-88285714D01*
X167939047Y-87666666D01*
X164632380Y-89095238D02*
X164632380Y-89666666D01*
X164632380Y-89380952D02*
X163632380Y-89380952D01*
X163775238Y-89476190D01*
X163870476Y-89571428D01*
X163918095Y-89666666D01*
X163632380Y-88476190D02*
X163632380Y-88380952D01*
X163680000Y-88285714D01*
X163727619Y-88238095D01*
X163822857Y-88190476D01*
X164013333Y-88142857D01*
X164251428Y-88142857D01*
X164441904Y-88190476D01*
X164537142Y-88238095D01*
X164584761Y-88285714D01*
X164632380Y-88380952D01*
X164632380Y-88476190D01*
X164584761Y-88571428D01*
X164537142Y-88619047D01*
X164441904Y-88666666D01*
X164251428Y-88714285D01*
X164013333Y-88714285D01*
X163822857Y-88666666D01*
X163727619Y-88619047D01*
X163680000Y-88571428D01*
X163632380Y-88476190D01*
X164632380Y-87714285D02*
X163632380Y-87714285D01*
X164251428Y-87619047D02*
X164632380Y-87333333D01*
X163965714Y-87333333D02*
X164346666Y-87714285D01*
X167833333Y-58132380D02*
X167500000Y-57656190D01*
X167261904Y-58132380D02*
X167261904Y-57132380D01*
X167642857Y-57132380D01*
X167738095Y-57180000D01*
X167785714Y-57227619D01*
X167833333Y-57322857D01*
X167833333Y-57465714D01*
X167785714Y-57560952D01*
X167738095Y-57608571D01*
X167642857Y-57656190D01*
X167261904Y-57656190D01*
X168166666Y-57132380D02*
X168785714Y-57132380D01*
X168452380Y-57513333D01*
X168595238Y-57513333D01*
X168690476Y-57560952D01*
X168738095Y-57608571D01*
X168785714Y-57703809D01*
X168785714Y-57941904D01*
X168738095Y-58037142D01*
X168690476Y-58084761D01*
X168595238Y-58132380D01*
X168309523Y-58132380D01*
X168214285Y-58084761D01*
X168166666Y-58037142D01*
X170250595Y-57952380D02*
X169679166Y-57952380D01*
X169964880Y-57952380D02*
X169964880Y-56952380D01*
X169869642Y-57095238D01*
X169774404Y-57190476D01*
X169679166Y-57238095D01*
X170869642Y-56952380D02*
X170964880Y-56952380D01*
X171060119Y-57000000D01*
X171107738Y-57047619D01*
X171155357Y-57142857D01*
X171202976Y-57333333D01*
X171202976Y-57571428D01*
X171155357Y-57761904D01*
X171107738Y-57857142D01*
X171060119Y-57904761D01*
X170964880Y-57952380D01*
X170869642Y-57952380D01*
X170774404Y-57904761D01*
X170726785Y-57857142D01*
X170679166Y-57761904D01*
X170631547Y-57571428D01*
X170631547Y-57333333D01*
X170679166Y-57142857D01*
X170726785Y-57047619D01*
X170774404Y-57000000D01*
X170869642Y-56952380D01*
X171774404Y-57952380D02*
X171679166Y-57904761D01*
X171631547Y-57857142D01*
X171583928Y-57761904D01*
X171583928Y-57476190D01*
X171631547Y-57380952D01*
X171679166Y-57333333D01*
X171774404Y-57285714D01*
X171917261Y-57285714D01*
X172012500Y-57333333D01*
X172060119Y-57380952D01*
X172107738Y-57476190D01*
X172107738Y-57761904D01*
X172060119Y-57857142D01*
X172012500Y-57904761D01*
X171917261Y-57952380D01*
X171774404Y-57952380D01*
X172536309Y-57952380D02*
X172536309Y-56952380D01*
X172964880Y-57952380D02*
X172964880Y-57428571D01*
X172917261Y-57333333D01*
X172822023Y-57285714D01*
X172679166Y-57285714D01*
X172583928Y-57333333D01*
X172536309Y-57380952D01*
X173441071Y-57952380D02*
X173441071Y-57285714D01*
X173441071Y-57380952D02*
X173488690Y-57333333D01*
X173583928Y-57285714D01*
X173726785Y-57285714D01*
X173822023Y-57333333D01*
X173869642Y-57428571D01*
X173869642Y-57952380D01*
X173869642Y-57428571D02*
X173917261Y-57333333D01*
X174012500Y-57285714D01*
X174155357Y-57285714D01*
X174250595Y-57333333D01*
X174298214Y-57428571D01*
X174298214Y-57952380D01*
X165845833Y-57952380D02*
X165512500Y-57476190D01*
X165274404Y-57952380D02*
X165274404Y-56952380D01*
X165655357Y-56952380D01*
X165750595Y-57000000D01*
X165798214Y-57047619D01*
X165845833Y-57142857D01*
X165845833Y-57285714D01*
X165798214Y-57380952D01*
X165750595Y-57428571D01*
X165655357Y-57476190D01*
X165274404Y-57476190D01*
X166226785Y-57047619D02*
X166274404Y-57000000D01*
X166369642Y-56952380D01*
X166607738Y-56952380D01*
X166702976Y-57000000D01*
X166750595Y-57047619D01*
X166798214Y-57142857D01*
X166798214Y-57238095D01*
X166750595Y-57380952D01*
X166179166Y-57952380D01*
X166798214Y-57952380D01*
X169226785Y-57285714D02*
X169226785Y-57952380D01*
X168988690Y-56904761D02*
X168750595Y-57619047D01*
X169369642Y-57619047D01*
X169655357Y-56952380D02*
X170322023Y-56952380D01*
X169893452Y-57952380D01*
X160250666Y-49954380D02*
X160250666Y-50668666D01*
X160203047Y-50811523D01*
X160107809Y-50906761D01*
X159964952Y-50954380D01*
X159869714Y-50954380D01*
X160869714Y-50382952D02*
X160774476Y-50335333D01*
X160726857Y-50287714D01*
X160679238Y-50192476D01*
X160679238Y-50144857D01*
X160726857Y-50049619D01*
X160774476Y-50002000D01*
X160869714Y-49954380D01*
X161060190Y-49954380D01*
X161155428Y-50002000D01*
X161203047Y-50049619D01*
X161250666Y-50144857D01*
X161250666Y-50192476D01*
X161203047Y-50287714D01*
X161155428Y-50335333D01*
X161060190Y-50382952D01*
X160869714Y-50382952D01*
X160774476Y-50430571D01*
X160726857Y-50478190D01*
X160679238Y-50573428D01*
X160679238Y-50763904D01*
X160726857Y-50859142D01*
X160774476Y-50906761D01*
X160869714Y-50954380D01*
X161060190Y-50954380D01*
X161155428Y-50906761D01*
X161203047Y-50859142D01*
X161250666Y-50763904D01*
X161250666Y-50573428D01*
X161203047Y-50478190D01*
X161155428Y-50430571D01*
X161060190Y-50382952D01*
X175490666Y-90174380D02*
X175490666Y-90888666D01*
X175443047Y-91031523D01*
X175347809Y-91126761D01*
X175204952Y-91174380D01*
X175109714Y-91174380D01*
X175871619Y-90174380D02*
X176538285Y-90174380D01*
X176109714Y-91174380D01*
X147551761Y-82662380D02*
X147218428Y-82186190D01*
X146980333Y-82662380D02*
X146980333Y-81662380D01*
X147361285Y-81662380D01*
X147456523Y-81710000D01*
X147504142Y-81757619D01*
X147551761Y-81852857D01*
X147551761Y-81995714D01*
X147504142Y-82090952D01*
X147456523Y-82138571D01*
X147361285Y-82186190D01*
X146980333Y-82186190D01*
X147837476Y-81662380D02*
X148170809Y-82662380D01*
X148504142Y-81662380D01*
X148789857Y-81757619D02*
X148837476Y-81710000D01*
X148932714Y-81662380D01*
X149170809Y-81662380D01*
X149266047Y-81710000D01*
X149313666Y-81757619D01*
X149361285Y-81852857D01*
X149361285Y-81948095D01*
X149313666Y-82090952D01*
X148742238Y-82662380D01*
X149361285Y-82662380D01*
X147805761Y-66914380D02*
X147472428Y-66438190D01*
X147234333Y-66914380D02*
X147234333Y-65914380D01*
X147615285Y-65914380D01*
X147710523Y-65962000D01*
X147758142Y-66009619D01*
X147805761Y-66104857D01*
X147805761Y-66247714D01*
X147758142Y-66342952D01*
X147710523Y-66390571D01*
X147615285Y-66438190D01*
X147234333Y-66438190D01*
X148091476Y-65914380D02*
X148424809Y-66914380D01*
X148758142Y-65914380D01*
X148996238Y-65914380D02*
X149615285Y-65914380D01*
X149281952Y-66295333D01*
X149424809Y-66295333D01*
X149520047Y-66342952D01*
X149567666Y-66390571D01*
X149615285Y-66485809D01*
X149615285Y-66723904D01*
X149567666Y-66819142D01*
X149520047Y-66866761D01*
X149424809Y-66914380D01*
X149139095Y-66914380D01*
X149043857Y-66866761D01*
X148996238Y-66819142D01*
X147805761Y-50658380D02*
X147472428Y-50182190D01*
X147234333Y-50658380D02*
X147234333Y-49658380D01*
X147615285Y-49658380D01*
X147710523Y-49706000D01*
X147758142Y-49753619D01*
X147805761Y-49848857D01*
X147805761Y-49991714D01*
X147758142Y-50086952D01*
X147710523Y-50134571D01*
X147615285Y-50182190D01*
X147234333Y-50182190D01*
X148091476Y-49658380D02*
X148424809Y-50658380D01*
X148758142Y-49658380D01*
X149520047Y-49991714D02*
X149520047Y-50658380D01*
X149281952Y-49610761D02*
X149043857Y-50325047D01*
X149662904Y-50325047D01*
X147805761Y-98664380D02*
X147472428Y-98188190D01*
X147234333Y-98664380D02*
X147234333Y-97664380D01*
X147615285Y-97664380D01*
X147710523Y-97712000D01*
X147758142Y-97759619D01*
X147805761Y-97854857D01*
X147805761Y-97997714D01*
X147758142Y-98092952D01*
X147710523Y-98140571D01*
X147615285Y-98188190D01*
X147234333Y-98188190D01*
X148091476Y-97664380D02*
X148424809Y-98664380D01*
X148758142Y-97664380D01*
X149615285Y-98664380D02*
X149043857Y-98664380D01*
X149329571Y-98664380D02*
X149329571Y-97664380D01*
X149234333Y-97807238D01*
X149139095Y-97902476D01*
X149043857Y-97950095D01*
X183816666Y-54316380D02*
X183816666Y-55030666D01*
X183769047Y-55173523D01*
X183673809Y-55268761D01*
X183530952Y-55316380D01*
X183435714Y-55316380D01*
X184816666Y-55316380D02*
X184245238Y-55316380D01*
X184530952Y-55316380D02*
X184530952Y-54316380D01*
X184435714Y-54459238D01*
X184340476Y-54554476D01*
X184245238Y-54602095D01*
X183816666Y-67952380D02*
X183816666Y-68666666D01*
X183769047Y-68809523D01*
X183673809Y-68904761D01*
X183530952Y-68952380D01*
X183435714Y-68952380D01*
X184245238Y-68047619D02*
X184292857Y-68000000D01*
X184388095Y-67952380D01*
X184626190Y-67952380D01*
X184721428Y-68000000D01*
X184769047Y-68047619D01*
X184816666Y-68142857D01*
X184816666Y-68238095D01*
X184769047Y-68380952D01*
X184197619Y-68952380D01*
X184816666Y-68952380D01*
X183816666Y-95452380D02*
X183816666Y-96166666D01*
X183769047Y-96309523D01*
X183673809Y-96404761D01*
X183530952Y-96452380D01*
X183435714Y-96452380D01*
X184721428Y-95785714D02*
X184721428Y-96452380D01*
X184483333Y-95404761D02*
X184245238Y-96119047D01*
X184864285Y-96119047D01*
X183816666Y-108952380D02*
X183816666Y-109666666D01*
X183769047Y-109809523D01*
X183673809Y-109904761D01*
X183530952Y-109952380D01*
X183435714Y-109952380D01*
X184769047Y-108952380D02*
X184292857Y-108952380D01*
X184245238Y-109428571D01*
X184292857Y-109380952D01*
X184388095Y-109333333D01*
X184626190Y-109333333D01*
X184721428Y-109380952D01*
X184769047Y-109428571D01*
X184816666Y-109523809D01*
X184816666Y-109761904D01*
X184769047Y-109857142D01*
X184721428Y-109904761D01*
X184626190Y-109952380D01*
X184388095Y-109952380D01*
X184292857Y-109904761D01*
X184245238Y-109857142D01*
X174119047Y-101428571D02*
X174261904Y-101476190D01*
X174309523Y-101523809D01*
X174357142Y-101619047D01*
X174357142Y-101761904D01*
X174309523Y-101857142D01*
X174261904Y-101904761D01*
X174166666Y-101952380D01*
X173785714Y-101952380D01*
X173785714Y-100952380D01*
X174119047Y-100952380D01*
X174214285Y-101000000D01*
X174261904Y-101047619D01*
X174309523Y-101142857D01*
X174309523Y-101238095D01*
X174261904Y-101333333D01*
X174214285Y-101380952D01*
X174119047Y-101428571D01*
X173785714Y-101428571D01*
X174690476Y-100952380D02*
X175357142Y-100952380D01*
X174690476Y-101952380D01*
X175357142Y-101952380D01*
X176261904Y-101952380D02*
X175690476Y-101952380D01*
X175976190Y-101952380D02*
X175976190Y-100952380D01*
X175880952Y-101095238D01*
X175785714Y-101190476D01*
X175690476Y-101238095D01*
X167261904Y-54232380D02*
X167261904Y-53232380D01*
X167500000Y-53232380D01*
X167642857Y-53280000D01*
X167738095Y-53375238D01*
X167785714Y-53470476D01*
X167833333Y-53660952D01*
X167833333Y-53803809D01*
X167785714Y-53994285D01*
X167738095Y-54089523D01*
X167642857Y-54184761D01*
X167500000Y-54232380D01*
X167261904Y-54232380D01*
X168214285Y-53327619D02*
X168261904Y-53280000D01*
X168357142Y-53232380D01*
X168595238Y-53232380D01*
X168690476Y-53280000D01*
X168738095Y-53327619D01*
X168785714Y-53422857D01*
X168785714Y-53518095D01*
X168738095Y-53660952D01*
X168166666Y-54232380D01*
X168785714Y-54232380D01*
X167202380Y-115283333D02*
X167916666Y-115283333D01*
X168059523Y-115330952D01*
X168154761Y-115426190D01*
X168202380Y-115569047D01*
X168202380Y-115664285D01*
X167202380Y-114378571D02*
X167202380Y-114569047D01*
X167250000Y-114664285D01*
X167297619Y-114711904D01*
X167440476Y-114807142D01*
X167630952Y-114854761D01*
X168011904Y-114854761D01*
X168107142Y-114807142D01*
X168154761Y-114759523D01*
X168202380Y-114664285D01*
X168202380Y-114473809D01*
X168154761Y-114378571D01*
X168107142Y-114330952D01*
X168011904Y-114283333D01*
X167773809Y-114283333D01*
X167678571Y-114330952D01*
X167630952Y-114378571D01*
X167583333Y-114473809D01*
X167583333Y-114664285D01*
X167630952Y-114759523D01*
X167678571Y-114807142D01*
X167773809Y-114854761D01*
X155852380Y-112823809D02*
X156852380Y-112490476D01*
X155852380Y-112157142D01*
X156852380Y-111823809D02*
X156185714Y-111823809D01*
X155852380Y-111823809D02*
X155900000Y-111871428D01*
X155947619Y-111823809D01*
X155900000Y-111776190D01*
X155852380Y-111823809D01*
X155947619Y-111823809D01*
X156185714Y-111347619D02*
X156852380Y-111347619D01*
X156280952Y-111347619D02*
X156233333Y-111300000D01*
X156185714Y-111204761D01*
X156185714Y-111061904D01*
X156233333Y-110966666D01*
X156328571Y-110919047D01*
X156852380Y-110919047D01*
X174761904Y-109102380D02*
X174761904Y-108102380D01*
X175000000Y-108102380D01*
X175142857Y-108150000D01*
X175238095Y-108245238D01*
X175285714Y-108340476D01*
X175333333Y-108530952D01*
X175333333Y-108673809D01*
X175285714Y-108864285D01*
X175238095Y-108959523D01*
X175142857Y-109054761D01*
X175000000Y-109102380D01*
X174761904Y-109102380D01*
X176285714Y-109102380D02*
X175714285Y-109102380D01*
X176000000Y-109102380D02*
X176000000Y-108102380D01*
X175904761Y-108245238D01*
X175809523Y-108340476D01*
X175714285Y-108388095D01*
X160666666Y-101454761D02*
X160809523Y-101502380D01*
X161047619Y-101502380D01*
X161142857Y-101454761D01*
X161190476Y-101407142D01*
X161238095Y-101311904D01*
X161238095Y-101216666D01*
X161190476Y-101121428D01*
X161142857Y-101073809D01*
X161047619Y-101026190D01*
X160857142Y-100978571D01*
X160761904Y-100930952D01*
X160714285Y-100883333D01*
X160666666Y-100788095D01*
X160666666Y-100692857D01*
X160714285Y-100597619D01*
X160761904Y-100550000D01*
X160857142Y-100502380D01*
X161095238Y-100502380D01*
X161238095Y-100550000D01*
X161571428Y-100502380D02*
X161809523Y-101502380D01*
X162000000Y-100788095D01*
X162190476Y-101502380D01*
X162428571Y-100502380D01*
X163333333Y-101502380D02*
X162761904Y-101502380D01*
X163047619Y-101502380D02*
X163047619Y-100502380D01*
X162952380Y-100645238D01*
X162857142Y-100740476D01*
X162761904Y-100788095D01*
M02*
