G04 #@! TF.GenerationSoftware,KiCad,Pcbnew,5.1.6-c6e7f7d~87~ubuntu20.04.1*
G04 #@! TF.CreationDate,2020-08-05T12:50:38+01:00*
G04 #@! TF.ProjectId,spikeling,7370696b-656c-4696-9e67-2e6b69636164,rev?*
G04 #@! TF.SameCoordinates,Original*
G04 #@! TF.FileFunction,Copper,L1,Top*
G04 #@! TF.FilePolarity,Positive*
%FSLAX46Y46*%
G04 Gerber Fmt 4.6, Leading zero omitted, Abs format (unit mm)*
G04 Created by KiCad (PCBNEW 5.1.6-c6e7f7d~87~ubuntu20.04.1) date 2020-08-05 12:50:38*
%MOMM*%
%LPD*%
G01*
G04 APERTURE LIST*
G04 #@! TA.AperFunction,ComponentPad*
%ADD10C,3.810000*%
G04 #@! TD*
G04 #@! TA.AperFunction,ComponentPad*
%ADD11C,3.556000*%
G04 #@! TD*
G04 #@! TA.AperFunction,ComponentPad*
%ADD12O,1.700000X1.700000*%
G04 #@! TD*
G04 #@! TA.AperFunction,ComponentPad*
%ADD13R,1.700000X1.700000*%
G04 #@! TD*
G04 #@! TA.AperFunction,WasherPad*
%ADD14C,4.000000*%
G04 #@! TD*
G04 #@! TA.AperFunction,ComponentPad*
%ADD15C,1.800000*%
G04 #@! TD*
G04 #@! TA.AperFunction,SMDPad,CuDef*
%ADD16R,1.300000X3.400000*%
G04 #@! TD*
G04 #@! TA.AperFunction,ComponentPad*
%ADD17R,3.500000X3.500000*%
G04 #@! TD*
G04 #@! TA.AperFunction,SMDPad,CuDef*
%ADD18R,1.550000X1.300000*%
G04 #@! TD*
G04 #@! TA.AperFunction,ViaPad*
%ADD19C,0.800000*%
G04 #@! TD*
G04 #@! TA.AperFunction,Conductor*
%ADD20C,0.500000*%
G04 #@! TD*
G04 #@! TA.AperFunction,Conductor*
%ADD21C,0.254000*%
G04 #@! TD*
G04 APERTURE END LIST*
G04 #@! TA.AperFunction,SMDPad,CuDef*
G36*
G01*
X151812500Y-53075000D02*
X151812500Y-50925000D01*
G75*
G02*
X152062500Y-50675000I250000J0D01*
G01*
X152987500Y-50675000D01*
G75*
G02*
X153237500Y-50925000I0J-250000D01*
G01*
X153237500Y-53075000D01*
G75*
G02*
X152987500Y-53325000I-250000J0D01*
G01*
X152062500Y-53325000D01*
G75*
G02*
X151812500Y-53075000I0J250000D01*
G01*
G37*
G04 #@! TD.AperFunction*
G04 #@! TA.AperFunction,SMDPad,CuDef*
G36*
G01*
X154787500Y-53075000D02*
X154787500Y-50925000D01*
G75*
G02*
X155037500Y-50675000I250000J0D01*
G01*
X155962500Y-50675000D01*
G75*
G02*
X156212500Y-50925000I0J-250000D01*
G01*
X156212500Y-53075000D01*
G75*
G02*
X155962500Y-53325000I-250000J0D01*
G01*
X155037500Y-53325000D01*
G75*
G02*
X154787500Y-53075000I0J250000D01*
G01*
G37*
G04 #@! TD.AperFunction*
D10*
X184500000Y-82500000D03*
D11*
X187675000Y-85675000D03*
D10*
X190850000Y-82500000D03*
X184500000Y-88850000D03*
X190850000Y-88850000D03*
G04 #@! TA.AperFunction,SMDPad,CuDef*
G36*
G01*
X176275000Y-111125000D02*
X176275000Y-109875000D01*
G75*
G02*
X176525000Y-109625000I250000J0D01*
G01*
X177450000Y-109625000D01*
G75*
G02*
X177700000Y-109875000I0J-250000D01*
G01*
X177700000Y-111125000D01*
G75*
G02*
X177450000Y-111375000I-250000J0D01*
G01*
X176525000Y-111375000D01*
G75*
G02*
X176275000Y-111125000I0J250000D01*
G01*
G37*
G04 #@! TD.AperFunction*
G04 #@! TA.AperFunction,SMDPad,CuDef*
G36*
G01*
X173300000Y-111125000D02*
X173300000Y-109875000D01*
G75*
G02*
X173550000Y-109625000I250000J0D01*
G01*
X174475000Y-109625000D01*
G75*
G02*
X174725000Y-109875000I0J-250000D01*
G01*
X174725000Y-111125000D01*
G75*
G02*
X174475000Y-111375000I-250000J0D01*
G01*
X173550000Y-111375000D01*
G75*
G02*
X173300000Y-111125000I0J250000D01*
G01*
G37*
G04 #@! TD.AperFunction*
G04 #@! TA.AperFunction,SMDPad,CuDef*
G36*
G01*
X167225000Y-62875000D02*
X167225000Y-64125000D01*
G75*
G02*
X166975000Y-64375000I-250000J0D01*
G01*
X166050000Y-64375000D01*
G75*
G02*
X165800000Y-64125000I0J250000D01*
G01*
X165800000Y-62875000D01*
G75*
G02*
X166050000Y-62625000I250000J0D01*
G01*
X166975000Y-62625000D01*
G75*
G02*
X167225000Y-62875000I0J-250000D01*
G01*
G37*
G04 #@! TD.AperFunction*
G04 #@! TA.AperFunction,SMDPad,CuDef*
G36*
G01*
X170200000Y-62875000D02*
X170200000Y-64125000D01*
G75*
G02*
X169950000Y-64375000I-250000J0D01*
G01*
X169025000Y-64375000D01*
G75*
G02*
X168775000Y-64125000I0J250000D01*
G01*
X168775000Y-62875000D01*
G75*
G02*
X169025000Y-62625000I250000J0D01*
G01*
X169950000Y-62625000D01*
G75*
G02*
X170200000Y-62875000I0J-250000D01*
G01*
G37*
G04 #@! TD.AperFunction*
G04 #@! TA.AperFunction,SMDPad,CuDef*
G36*
G01*
X165375000Y-89275000D02*
X166625000Y-89275000D01*
G75*
G02*
X166875000Y-89525000I0J-250000D01*
G01*
X166875000Y-90450000D01*
G75*
G02*
X166625000Y-90700000I-250000J0D01*
G01*
X165375000Y-90700000D01*
G75*
G02*
X165125000Y-90450000I0J250000D01*
G01*
X165125000Y-89525000D01*
G75*
G02*
X165375000Y-89275000I250000J0D01*
G01*
G37*
G04 #@! TD.AperFunction*
G04 #@! TA.AperFunction,SMDPad,CuDef*
G36*
G01*
X165375000Y-86300000D02*
X166625000Y-86300000D01*
G75*
G02*
X166875000Y-86550000I0J-250000D01*
G01*
X166875000Y-87475000D01*
G75*
G02*
X166625000Y-87725000I-250000J0D01*
G01*
X165375000Y-87725000D01*
G75*
G02*
X165125000Y-87475000I0J250000D01*
G01*
X165125000Y-86550000D01*
G75*
G02*
X165375000Y-86300000I250000J0D01*
G01*
G37*
G04 #@! TD.AperFunction*
G04 #@! TA.AperFunction,SMDPad,CuDef*
G36*
G01*
X168775000Y-60125000D02*
X168775000Y-58875000D01*
G75*
G02*
X169025000Y-58625000I250000J0D01*
G01*
X169950000Y-58625000D01*
G75*
G02*
X170200000Y-58875000I0J-250000D01*
G01*
X170200000Y-60125000D01*
G75*
G02*
X169950000Y-60375000I-250000J0D01*
G01*
X169025000Y-60375000D01*
G75*
G02*
X168775000Y-60125000I0J250000D01*
G01*
G37*
G04 #@! TD.AperFunction*
G04 #@! TA.AperFunction,SMDPad,CuDef*
G36*
G01*
X165800000Y-60125000D02*
X165800000Y-58875000D01*
G75*
G02*
X166050000Y-58625000I250000J0D01*
G01*
X166975000Y-58625000D01*
G75*
G02*
X167225000Y-58875000I0J-250000D01*
G01*
X167225000Y-60125000D01*
G75*
G02*
X166975000Y-60375000I-250000J0D01*
G01*
X166050000Y-60375000D01*
G75*
G02*
X165800000Y-60125000I0J250000D01*
G01*
G37*
G04 #@! TD.AperFunction*
G04 #@! TA.AperFunction,SMDPad,CuDef*
G36*
G01*
X168775000Y-56125000D02*
X168775000Y-54875000D01*
G75*
G02*
X169025000Y-54625000I250000J0D01*
G01*
X169950000Y-54625000D01*
G75*
G02*
X170200000Y-54875000I0J-250000D01*
G01*
X170200000Y-56125000D01*
G75*
G02*
X169950000Y-56375000I-250000J0D01*
G01*
X169025000Y-56375000D01*
G75*
G02*
X168775000Y-56125000I0J250000D01*
G01*
G37*
G04 #@! TD.AperFunction*
G04 #@! TA.AperFunction,SMDPad,CuDef*
G36*
G01*
X165800000Y-56125000D02*
X165800000Y-54875000D01*
G75*
G02*
X166050000Y-54625000I250000J0D01*
G01*
X166975000Y-54625000D01*
G75*
G02*
X167225000Y-54875000I0J-250000D01*
G01*
X167225000Y-56125000D01*
G75*
G02*
X166975000Y-56375000I-250000J0D01*
G01*
X166050000Y-56375000D01*
G75*
G02*
X165800000Y-56125000I0J250000D01*
G01*
G37*
G04 #@! TD.AperFunction*
D12*
X160584000Y-88392000D03*
X160584000Y-85852000D03*
X160584000Y-83312000D03*
X160584000Y-80772000D03*
X160584000Y-78232000D03*
X160584000Y-75692000D03*
X160584000Y-73152000D03*
X160584000Y-70612000D03*
X160584000Y-68072000D03*
X160584000Y-65532000D03*
X160584000Y-62992000D03*
X160584000Y-60452000D03*
X160584000Y-57912000D03*
X160584000Y-55372000D03*
D13*
X160584000Y-52832000D03*
D12*
X175824000Y-52832000D03*
X175824000Y-55372000D03*
X175824000Y-57912000D03*
X175824000Y-60452000D03*
X175824000Y-62992000D03*
X175824000Y-65532000D03*
X175824000Y-68072000D03*
X175824000Y-70612000D03*
X175824000Y-73152000D03*
X175824000Y-75692000D03*
X175824000Y-78232000D03*
X175824000Y-80772000D03*
X175824000Y-83312000D03*
X175824000Y-85852000D03*
D13*
X175824000Y-88392000D03*
D14*
X149922000Y-101250000D03*
X149922000Y-91750000D03*
D15*
X142422000Y-99000000D03*
X142422000Y-96500000D03*
X142422000Y-94000000D03*
X142500000Y-76500000D03*
X142500000Y-79000000D03*
X142500000Y-81500000D03*
D14*
X150000000Y-74250000D03*
X150000000Y-83750000D03*
X150000000Y-66250000D03*
X150000000Y-56750000D03*
D15*
X142500000Y-64000000D03*
X142500000Y-61500000D03*
X142500000Y-59000000D03*
X142500000Y-111500000D03*
X142500000Y-114000000D03*
X142500000Y-116500000D03*
D14*
X150000000Y-109250000D03*
X150000000Y-118750000D03*
D10*
X184531000Y-52150000D03*
D11*
X187706000Y-55325000D03*
D10*
X190881000Y-52150000D03*
X184531000Y-58500000D03*
X190881000Y-58500000D03*
X190675000Y-73675000D03*
X184325000Y-73675000D03*
X190675000Y-67325000D03*
D11*
X187500000Y-70500000D03*
D10*
X184325000Y-67325000D03*
X184650000Y-97325000D03*
D11*
X187825000Y-100500000D03*
D10*
X191000000Y-97325000D03*
X184650000Y-103675000D03*
X191000000Y-103675000D03*
X190850000Y-118350000D03*
X184500000Y-118350000D03*
X190850000Y-112000000D03*
D11*
X187675000Y-115175000D03*
D10*
X184500000Y-112000000D03*
D16*
X179350000Y-96000000D03*
X170650000Y-96000000D03*
D17*
X162000000Y-111500000D03*
G04 #@! TA.AperFunction,ComponentPad*
G36*
G01*
X163000000Y-119000000D02*
X161000000Y-119000000D01*
G75*
G02*
X160250000Y-118250000I0J750000D01*
G01*
X160250000Y-116750000D01*
G75*
G02*
X161000000Y-116000000I750000J0D01*
G01*
X163000000Y-116000000D01*
G75*
G02*
X163750000Y-116750000I0J-750000D01*
G01*
X163750000Y-118250000D01*
G75*
G02*
X163000000Y-119000000I-750000J0D01*
G01*
G37*
G04 #@! TD.AperFunction*
G04 #@! TA.AperFunction,ComponentPad*
G36*
G01*
X167575000Y-116250000D02*
X165825000Y-116250000D01*
G75*
G02*
X164950000Y-115375000I0J875000D01*
G01*
X164950000Y-113625000D01*
G75*
G02*
X165825000Y-112750000I875000J0D01*
G01*
X167575000Y-112750000D01*
G75*
G02*
X168450000Y-113625000I0J-875000D01*
G01*
X168450000Y-115375000D01*
G75*
G02*
X167575000Y-116250000I-875000J0D01*
G01*
G37*
G04 #@! TD.AperFunction*
D18*
X165975000Y-98250000D03*
X165975000Y-102750000D03*
X158025000Y-102750000D03*
X158025000Y-98250000D03*
G04 #@! TA.AperFunction,SMDPad,CuDef*
G36*
G01*
X171925000Y-118425001D02*
X171925000Y-115574999D01*
G75*
G02*
X172174999Y-115325000I249999J0D01*
G01*
X173025001Y-115325000D01*
G75*
G02*
X173275000Y-115574999I0J-249999D01*
G01*
X173275000Y-118425001D01*
G75*
G02*
X173025001Y-118675000I-249999J0D01*
G01*
X172174999Y-118675000D01*
G75*
G02*
X171925000Y-118425001I0J249999D01*
G01*
G37*
G04 #@! TD.AperFunction*
G04 #@! TA.AperFunction,SMDPad,CuDef*
G36*
G01*
X177725000Y-118425001D02*
X177725000Y-115574999D01*
G75*
G02*
X177974999Y-115325000I249999J0D01*
G01*
X178825001Y-115325000D01*
G75*
G02*
X179075000Y-115574999I0J-249999D01*
G01*
X179075000Y-118425001D01*
G75*
G02*
X178825001Y-118675000I-249999J0D01*
G01*
X177974999Y-118675000D01*
G75*
G02*
X177725000Y-118425001I0J249999D01*
G01*
G37*
G04 #@! TD.AperFunction*
D19*
X171000000Y-63500000D03*
X170650000Y-101137500D03*
X170500000Y-118000000D03*
X150500000Y-52500000D03*
X171527999Y-78000000D03*
X181500000Y-83000000D03*
X181075000Y-93075000D03*
X163500000Y-70000000D03*
X181180001Y-71319999D03*
X177500000Y-91500000D03*
X180000000Y-89000000D03*
X171000000Y-59500000D03*
X171528000Y-82528000D03*
X167528000Y-86528000D03*
X154158000Y-84658000D03*
X150500000Y-88500000D03*
X153500000Y-71000000D03*
X149500000Y-71000000D03*
X151500000Y-79000000D03*
X162500000Y-84000000D03*
X163000000Y-88000000D03*
X155000000Y-109000000D03*
X150000000Y-114000000D03*
D20*
X169487500Y-63500000D02*
X171000000Y-63500000D01*
X170650000Y-96000000D02*
X170650000Y-101137500D01*
X174012500Y-109987500D02*
X173500000Y-110500000D01*
X174012500Y-104500000D02*
X174012500Y-109987500D01*
X170650000Y-101137500D02*
X174012500Y-104500000D01*
X166000000Y-87012500D02*
X164012500Y-87012500D01*
X162852000Y-85852000D02*
X160584000Y-85852000D01*
X164012500Y-87012500D02*
X162852000Y-85852000D01*
X174012500Y-115587500D02*
X172600000Y-117000000D01*
X174012500Y-110500000D02*
X174012500Y-115587500D01*
X172600000Y-117000000D02*
X171600000Y-118000000D01*
X171600000Y-118000000D02*
X170500000Y-118000000D01*
X152525000Y-52000000D02*
X151000000Y-52000000D01*
X151000000Y-52000000D02*
X150500000Y-52500000D01*
X166512500Y-59500000D02*
X166512500Y-63500000D01*
X166512500Y-63500000D02*
X171500000Y-68487500D01*
X171500000Y-77972001D02*
X171527999Y-78000000D01*
X171500000Y-68487500D02*
X171500000Y-77972001D01*
X157000000Y-50500000D02*
X155500000Y-52000000D01*
X166000000Y-50500000D02*
X157000000Y-50500000D01*
X166512500Y-51012500D02*
X166000000Y-50500000D01*
X166512500Y-55500000D02*
X166512500Y-51012500D01*
X180500000Y-94850000D02*
X179350000Y-96000000D01*
X180500000Y-94000000D02*
X180500000Y-94850000D01*
X180600000Y-93900000D02*
X180500000Y-94000000D01*
X180600000Y-93550000D02*
X180600000Y-93900000D01*
X181075000Y-93075000D02*
X180600000Y-93550000D01*
X184339598Y-100500000D02*
X187825000Y-100500000D01*
X180500000Y-96660402D02*
X184339598Y-100500000D01*
X180500000Y-94850000D02*
X180500000Y-96660402D01*
X179324000Y-75692000D02*
X175824000Y-75692000D01*
X181500000Y-77868000D02*
X179324000Y-75692000D01*
X181500000Y-83000000D02*
X181500000Y-77868000D01*
X176987500Y-109987500D02*
X177500000Y-110500000D01*
X176987500Y-104500000D02*
X176987500Y-109987500D01*
X176987500Y-104500000D02*
X176987500Y-96487500D01*
X176987500Y-96487500D02*
X172500000Y-92000000D01*
X172500000Y-92000000D02*
X170000000Y-89500000D01*
X170000000Y-88989963D02*
X169977989Y-88967952D01*
X170000000Y-89500000D02*
X170000000Y-88989963D01*
X169977989Y-76477989D02*
X163500000Y-70000000D01*
X169977989Y-88967952D02*
X169977989Y-76477989D01*
X178400000Y-111912500D02*
X176987500Y-110500000D01*
X178400000Y-117000000D02*
X178400000Y-111912500D01*
X186680001Y-71319999D02*
X187500000Y-70500000D01*
X181180001Y-71319999D02*
X186680001Y-71319999D01*
X170677999Y-75625999D02*
X160584000Y-65532000D01*
X173500000Y-91500000D02*
X170677999Y-88677999D01*
X177500000Y-91500000D02*
X177500000Y-91500000D01*
X180000000Y-89000000D02*
X180000000Y-89000000D01*
X170677999Y-88677999D02*
X170677999Y-75625999D01*
X180864598Y-89000000D02*
X184189598Y-85675000D01*
X184189598Y-85675000D02*
X187675000Y-85675000D01*
X180000000Y-89000000D02*
X180864598Y-89000000D01*
X177500000Y-91500000D02*
X173500000Y-91500000D01*
X171000000Y-59500000D02*
X169487500Y-59500000D01*
X174439500Y-60452000D02*
X169487500Y-55500000D01*
X175824000Y-60452000D02*
X174439500Y-60452000D01*
X167325010Y-88662490D02*
X166000000Y-89987500D01*
X167325010Y-86730990D02*
X167325010Y-88662490D01*
X175824000Y-78232000D02*
X171528000Y-82528000D01*
X167528000Y-86528000D02*
X167325010Y-86730990D01*
X166000000Y-98225000D02*
X165975000Y-98250000D01*
X166000000Y-89987500D02*
X166000000Y-98225000D01*
X165975000Y-98250000D02*
X158025000Y-98250000D01*
X149545998Y-88500000D02*
X144500000Y-93545998D01*
X150500000Y-88500000D02*
X149545998Y-88500000D01*
X144500000Y-94422000D02*
X142422000Y-96500000D01*
X144500000Y-93545998D02*
X144500000Y-94422000D01*
X150500000Y-88500000D02*
X150500000Y-88500000D01*
X160584000Y-78232000D02*
X157268000Y-78232000D01*
X154158000Y-81342000D02*
X154158000Y-84658000D01*
X157268000Y-78232000D02*
X154158000Y-81342000D01*
X160584000Y-75692000D02*
X158192000Y-75692000D01*
X158192000Y-75692000D02*
X153500000Y-71000000D01*
X143850001Y-62850001D02*
X142500000Y-61500000D01*
X143850001Y-65350001D02*
X143850001Y-62850001D01*
X149500000Y-71000000D02*
X149500000Y-71000000D01*
X153500000Y-71000000D02*
X153500000Y-71000000D01*
X149500000Y-71000000D02*
X143850001Y-65350001D01*
X151500000Y-79000000D02*
X142500000Y-79000000D01*
X160584000Y-68072000D02*
X162500000Y-69988000D01*
X162500000Y-69988000D02*
X162500000Y-84000000D01*
X155000000Y-109000000D02*
X155000000Y-109000000D01*
X155000000Y-96785037D02*
X155000000Y-109000000D01*
X157735047Y-94049990D02*
X155000000Y-96785037D01*
X150000000Y-114000000D02*
X150000000Y-114000000D01*
X157950010Y-94049990D02*
X157735047Y-94049990D01*
X163000000Y-89000000D02*
X157950010Y-94049990D01*
X163000000Y-88000000D02*
X163000000Y-89000000D01*
X150000000Y-114000000D02*
X150000000Y-114000000D01*
X155000000Y-109000000D02*
X155000000Y-109000000D01*
X150000000Y-114000000D02*
X142500000Y-114000000D01*
D21*
G36*
X156826510Y-49627805D02*
G01*
X156659687Y-49678411D01*
X156505941Y-49760589D01*
X156505939Y-49760590D01*
X156505940Y-49760590D01*
X156404953Y-49843468D01*
X156404951Y-49843470D01*
X156371183Y-49871183D01*
X156343470Y-49904951D01*
X156180773Y-50067648D01*
X156135754Y-50053992D01*
X155962500Y-50036928D01*
X155037500Y-50036928D01*
X154864246Y-50053992D01*
X154697650Y-50104528D01*
X154544114Y-50186595D01*
X154409538Y-50297038D01*
X154299095Y-50431614D01*
X154217028Y-50585150D01*
X154166492Y-50751746D01*
X154149428Y-50925000D01*
X154149428Y-53075000D01*
X154166492Y-53248254D01*
X154217028Y-53414850D01*
X154299095Y-53568386D01*
X154409538Y-53702962D01*
X154544114Y-53813405D01*
X154697650Y-53895472D01*
X154864246Y-53946008D01*
X155037500Y-53963072D01*
X155962500Y-53963072D01*
X156135754Y-53946008D01*
X156302350Y-53895472D01*
X156455886Y-53813405D01*
X156590462Y-53702962D01*
X156700905Y-53568386D01*
X156782972Y-53414850D01*
X156833508Y-53248254D01*
X156850572Y-53075000D01*
X156850572Y-51901006D01*
X157366579Y-51385000D01*
X159514538Y-51385000D01*
X159489820Y-51392498D01*
X159379506Y-51451463D01*
X159282815Y-51530815D01*
X159203463Y-51627506D01*
X159144498Y-51737820D01*
X159108188Y-51857518D01*
X159095928Y-51982000D01*
X159095928Y-53682000D01*
X159108188Y-53806482D01*
X159144498Y-53926180D01*
X159203463Y-54036494D01*
X159282815Y-54133185D01*
X159379506Y-54212537D01*
X159489820Y-54271502D01*
X159562380Y-54293513D01*
X159430525Y-54425368D01*
X159268010Y-54668589D01*
X159156068Y-54938842D01*
X159099000Y-55225740D01*
X159099000Y-55518260D01*
X159156068Y-55805158D01*
X159268010Y-56075411D01*
X159430525Y-56318632D01*
X159637368Y-56525475D01*
X159811760Y-56642000D01*
X159637368Y-56758525D01*
X159430525Y-56965368D01*
X159268010Y-57208589D01*
X159156068Y-57478842D01*
X159099000Y-57765740D01*
X159099000Y-58058260D01*
X159156068Y-58345158D01*
X159268010Y-58615411D01*
X159430525Y-58858632D01*
X159637368Y-59065475D01*
X159811760Y-59182000D01*
X159637368Y-59298525D01*
X159430525Y-59505368D01*
X159268010Y-59748589D01*
X159156068Y-60018842D01*
X159099000Y-60305740D01*
X159099000Y-60598260D01*
X159156068Y-60885158D01*
X159268010Y-61155411D01*
X159430525Y-61398632D01*
X159637368Y-61605475D01*
X159811760Y-61722000D01*
X159637368Y-61838525D01*
X159430525Y-62045368D01*
X159268010Y-62288589D01*
X159156068Y-62558842D01*
X159099000Y-62845740D01*
X159099000Y-63138260D01*
X159156068Y-63425158D01*
X159268010Y-63695411D01*
X159430525Y-63938632D01*
X159637368Y-64145475D01*
X159811760Y-64262000D01*
X159637368Y-64378525D01*
X159430525Y-64585368D01*
X159268010Y-64828589D01*
X159156068Y-65098842D01*
X159099000Y-65385740D01*
X159099000Y-65678260D01*
X159156068Y-65965158D01*
X159268010Y-66235411D01*
X159430525Y-66478632D01*
X159637368Y-66685475D01*
X159811760Y-66802000D01*
X159637368Y-66918525D01*
X159430525Y-67125368D01*
X159268010Y-67368589D01*
X159156068Y-67638842D01*
X159099000Y-67925740D01*
X159099000Y-68218260D01*
X159156068Y-68505158D01*
X159268010Y-68775411D01*
X159430525Y-69018632D01*
X159637368Y-69225475D01*
X159811760Y-69342000D01*
X159637368Y-69458525D01*
X159430525Y-69665368D01*
X159268010Y-69908589D01*
X159156068Y-70178842D01*
X159099000Y-70465740D01*
X159099000Y-70758260D01*
X159156068Y-71045158D01*
X159268010Y-71315411D01*
X159430525Y-71558632D01*
X159637368Y-71765475D01*
X159811760Y-71882000D01*
X159637368Y-71998525D01*
X159430525Y-72205368D01*
X159268010Y-72448589D01*
X159156068Y-72718842D01*
X159099000Y-73005740D01*
X159099000Y-73298260D01*
X159156068Y-73585158D01*
X159268010Y-73855411D01*
X159430525Y-74098632D01*
X159637368Y-74305475D01*
X159811760Y-74422000D01*
X159637368Y-74538525D01*
X159430525Y-74745368D01*
X159389344Y-74807000D01*
X158558579Y-74807000D01*
X154506535Y-70754957D01*
X154495226Y-70698102D01*
X154417205Y-70509744D01*
X154303937Y-70340226D01*
X154159774Y-70196063D01*
X153990256Y-70082795D01*
X153801898Y-70004774D01*
X153601939Y-69965000D01*
X153398061Y-69965000D01*
X153198102Y-70004774D01*
X153009744Y-70082795D01*
X152840226Y-70196063D01*
X152696063Y-70340226D01*
X152582795Y-70509744D01*
X152504774Y-70698102D01*
X152465000Y-70898061D01*
X152465000Y-71101939D01*
X152504774Y-71301898D01*
X152582795Y-71490256D01*
X152696063Y-71659774D01*
X152840226Y-71803937D01*
X153009744Y-71917205D01*
X153198102Y-71995226D01*
X153254957Y-72006535D01*
X157535470Y-76287049D01*
X157563183Y-76320817D01*
X157596951Y-76348530D01*
X157596953Y-76348532D01*
X157617518Y-76365409D01*
X157697941Y-76431411D01*
X157851687Y-76513589D01*
X158018510Y-76564195D01*
X158148523Y-76577000D01*
X158148533Y-76577000D01*
X158191999Y-76581281D01*
X158235466Y-76577000D01*
X159389344Y-76577000D01*
X159430525Y-76638632D01*
X159637368Y-76845475D01*
X159811760Y-76962000D01*
X159637368Y-77078525D01*
X159430525Y-77285368D01*
X159389344Y-77347000D01*
X157311465Y-77347000D01*
X157267999Y-77342719D01*
X157224533Y-77347000D01*
X157224523Y-77347000D01*
X157094510Y-77359805D01*
X156927687Y-77410411D01*
X156773941Y-77492589D01*
X156753038Y-77509744D01*
X156672953Y-77575468D01*
X156672951Y-77575470D01*
X156639183Y-77603183D01*
X156611470Y-77636951D01*
X153562956Y-80685466D01*
X153529183Y-80713183D01*
X153418589Y-80847942D01*
X153336411Y-81001688D01*
X153285805Y-81168511D01*
X153273000Y-81298524D01*
X153273000Y-81298531D01*
X153268719Y-81342000D01*
X153273000Y-81385469D01*
X153273001Y-84119544D01*
X153240795Y-84167744D01*
X153162774Y-84356102D01*
X153123000Y-84556061D01*
X153123000Y-84759939D01*
X153162774Y-84959898D01*
X153240795Y-85148256D01*
X153354063Y-85317774D01*
X153498226Y-85461937D01*
X153667744Y-85575205D01*
X153856102Y-85653226D01*
X154056061Y-85693000D01*
X154259939Y-85693000D01*
X154459898Y-85653226D01*
X154648256Y-85575205D01*
X154817774Y-85461937D01*
X154961937Y-85317774D01*
X155075205Y-85148256D01*
X155153226Y-84959898D01*
X155193000Y-84759939D01*
X155193000Y-84556061D01*
X155153226Y-84356102D01*
X155075205Y-84167744D01*
X155043000Y-84119546D01*
X155043000Y-81708578D01*
X157634579Y-79117000D01*
X159389344Y-79117000D01*
X159430525Y-79178632D01*
X159637368Y-79385475D01*
X159819534Y-79507195D01*
X159702645Y-79576822D01*
X159486412Y-79771731D01*
X159312359Y-80005080D01*
X159187175Y-80267901D01*
X159142524Y-80415110D01*
X159263845Y-80645000D01*
X160457000Y-80645000D01*
X160457000Y-80625000D01*
X160711000Y-80625000D01*
X160711000Y-80645000D01*
X160731000Y-80645000D01*
X160731000Y-80899000D01*
X160711000Y-80899000D01*
X160711000Y-80919000D01*
X160457000Y-80919000D01*
X160457000Y-80899000D01*
X159263845Y-80899000D01*
X159142524Y-81128890D01*
X159187175Y-81276099D01*
X159312359Y-81538920D01*
X159486412Y-81772269D01*
X159702645Y-81967178D01*
X159819534Y-82036805D01*
X159637368Y-82158525D01*
X159430525Y-82365368D01*
X159268010Y-82608589D01*
X159156068Y-82878842D01*
X159099000Y-83165740D01*
X159099000Y-83458260D01*
X159156068Y-83745158D01*
X159268010Y-84015411D01*
X159430525Y-84258632D01*
X159637368Y-84465475D01*
X159811760Y-84582000D01*
X159637368Y-84698525D01*
X159430525Y-84905368D01*
X159268010Y-85148589D01*
X159156068Y-85418842D01*
X159099000Y-85705740D01*
X159099000Y-85998260D01*
X159156068Y-86285158D01*
X159268010Y-86555411D01*
X159430525Y-86798632D01*
X159637368Y-87005475D01*
X159811760Y-87122000D01*
X159637368Y-87238525D01*
X159430525Y-87445368D01*
X159268010Y-87688589D01*
X159156068Y-87958842D01*
X159099000Y-88245740D01*
X159099000Y-88538260D01*
X159156068Y-88825158D01*
X159268010Y-89095411D01*
X159430525Y-89338632D01*
X159637368Y-89545475D01*
X159880589Y-89707990D01*
X160150842Y-89819932D01*
X160437740Y-89877000D01*
X160730260Y-89877000D01*
X160906472Y-89841949D01*
X157571618Y-93176804D01*
X157561557Y-93177795D01*
X157394733Y-93228401D01*
X157240988Y-93310579D01*
X157140000Y-93393458D01*
X157139998Y-93393460D01*
X157106230Y-93421173D01*
X157078517Y-93454941D01*
X154404956Y-96128503D01*
X154371183Y-96156220D01*
X154260589Y-96290979D01*
X154178411Y-96444725D01*
X154127805Y-96611548D01*
X154115000Y-96741561D01*
X154115000Y-96741568D01*
X154110719Y-96785037D01*
X154115000Y-96828506D01*
X154115001Y-108461544D01*
X154082795Y-108509744D01*
X154004774Y-108698102D01*
X153965000Y-108898061D01*
X153965000Y-109101939D01*
X154004774Y-109301898D01*
X154082795Y-109490256D01*
X154196063Y-109659774D01*
X154340226Y-109803937D01*
X154509744Y-109917205D01*
X154698102Y-109995226D01*
X154898061Y-110035000D01*
X155101939Y-110035000D01*
X155301898Y-109995226D01*
X155490256Y-109917205D01*
X155659774Y-109803937D01*
X155713711Y-109750000D01*
X159611928Y-109750000D01*
X159611928Y-113250000D01*
X159624188Y-113374482D01*
X159660498Y-113494180D01*
X159719463Y-113604494D01*
X159798815Y-113701185D01*
X159895506Y-113780537D01*
X160005820Y-113839502D01*
X160125518Y-113875812D01*
X160250000Y-113888072D01*
X163750000Y-113888072D01*
X163874482Y-113875812D01*
X163994180Y-113839502D01*
X164104494Y-113780537D01*
X164201185Y-113701185D01*
X164280537Y-113604494D01*
X164321494Y-113527869D01*
X164311928Y-113625000D01*
X164311928Y-115375000D01*
X164341001Y-115670186D01*
X164427104Y-115954028D01*
X164566927Y-116215618D01*
X164755097Y-116444903D01*
X164984382Y-116633073D01*
X165245972Y-116772896D01*
X165529814Y-116858999D01*
X165825000Y-116888072D01*
X167575000Y-116888072D01*
X167870186Y-116858999D01*
X168154028Y-116772896D01*
X168415618Y-116633073D01*
X168644903Y-116444903D01*
X168833073Y-116215618D01*
X168972896Y-115954028D01*
X169058999Y-115670186D01*
X169088072Y-115375000D01*
X169088072Y-113625000D01*
X169058999Y-113329814D01*
X168972896Y-113045972D01*
X168833073Y-112784382D01*
X168644903Y-112555097D01*
X168415618Y-112366927D01*
X168154028Y-112227104D01*
X167870186Y-112141001D01*
X167575000Y-112111928D01*
X165825000Y-112111928D01*
X165529814Y-112141001D01*
X165245972Y-112227104D01*
X164984382Y-112366927D01*
X164755097Y-112555097D01*
X164566927Y-112784382D01*
X164427104Y-113045972D01*
X164388072Y-113174643D01*
X164388072Y-109750000D01*
X164375812Y-109625518D01*
X164339502Y-109505820D01*
X164280537Y-109395506D01*
X164201185Y-109298815D01*
X164104494Y-109219463D01*
X163994180Y-109160498D01*
X163874482Y-109124188D01*
X163750000Y-109111928D01*
X160250000Y-109111928D01*
X160125518Y-109124188D01*
X160005820Y-109160498D01*
X159895506Y-109219463D01*
X159798815Y-109298815D01*
X159719463Y-109395506D01*
X159660498Y-109505820D01*
X159624188Y-109625518D01*
X159611928Y-109750000D01*
X155713711Y-109750000D01*
X155803937Y-109659774D01*
X155917205Y-109490256D01*
X155995226Y-109301898D01*
X156035000Y-109101939D01*
X156035000Y-108898061D01*
X155995226Y-108698102D01*
X155917205Y-108509744D01*
X155885000Y-108461546D01*
X155885000Y-103400000D01*
X156611928Y-103400000D01*
X156624188Y-103524482D01*
X156660498Y-103644180D01*
X156719463Y-103754494D01*
X156798815Y-103851185D01*
X156895506Y-103930537D01*
X157005820Y-103989502D01*
X157125518Y-104025812D01*
X157250000Y-104038072D01*
X157739250Y-104035000D01*
X157898000Y-103876250D01*
X157898000Y-102877000D01*
X158152000Y-102877000D01*
X158152000Y-103876250D01*
X158310750Y-104035000D01*
X158800000Y-104038072D01*
X158924482Y-104025812D01*
X159044180Y-103989502D01*
X159154494Y-103930537D01*
X159251185Y-103851185D01*
X159330537Y-103754494D01*
X159389502Y-103644180D01*
X159425812Y-103524482D01*
X159438072Y-103400000D01*
X164561928Y-103400000D01*
X164574188Y-103524482D01*
X164610498Y-103644180D01*
X164669463Y-103754494D01*
X164748815Y-103851185D01*
X164845506Y-103930537D01*
X164955820Y-103989502D01*
X165075518Y-104025812D01*
X165200000Y-104038072D01*
X165689250Y-104035000D01*
X165848000Y-103876250D01*
X165848000Y-102877000D01*
X166102000Y-102877000D01*
X166102000Y-103876250D01*
X166260750Y-104035000D01*
X166750000Y-104038072D01*
X166874482Y-104025812D01*
X166994180Y-103989502D01*
X167104494Y-103930537D01*
X167201185Y-103851185D01*
X167280537Y-103754494D01*
X167339502Y-103644180D01*
X167375812Y-103524482D01*
X167388072Y-103400000D01*
X167385000Y-103035750D01*
X167226250Y-102877000D01*
X166102000Y-102877000D01*
X165848000Y-102877000D01*
X164723750Y-102877000D01*
X164565000Y-103035750D01*
X164561928Y-103400000D01*
X159438072Y-103400000D01*
X159435000Y-103035750D01*
X159276250Y-102877000D01*
X158152000Y-102877000D01*
X157898000Y-102877000D01*
X156773750Y-102877000D01*
X156615000Y-103035750D01*
X156611928Y-103400000D01*
X155885000Y-103400000D01*
X155885000Y-102100000D01*
X156611928Y-102100000D01*
X156615000Y-102464250D01*
X156773750Y-102623000D01*
X157898000Y-102623000D01*
X157898000Y-101623750D01*
X158152000Y-101623750D01*
X158152000Y-102623000D01*
X159276250Y-102623000D01*
X159435000Y-102464250D01*
X159438072Y-102100000D01*
X164561928Y-102100000D01*
X164565000Y-102464250D01*
X164723750Y-102623000D01*
X165848000Y-102623000D01*
X165848000Y-101623750D01*
X166102000Y-101623750D01*
X166102000Y-102623000D01*
X167226250Y-102623000D01*
X167385000Y-102464250D01*
X167388072Y-102100000D01*
X167375812Y-101975518D01*
X167339502Y-101855820D01*
X167280537Y-101745506D01*
X167201185Y-101648815D01*
X167104494Y-101569463D01*
X166994180Y-101510498D01*
X166874482Y-101474188D01*
X166750000Y-101461928D01*
X166260750Y-101465000D01*
X166102000Y-101623750D01*
X165848000Y-101623750D01*
X165689250Y-101465000D01*
X165200000Y-101461928D01*
X165075518Y-101474188D01*
X164955820Y-101510498D01*
X164845506Y-101569463D01*
X164748815Y-101648815D01*
X164669463Y-101745506D01*
X164610498Y-101855820D01*
X164574188Y-101975518D01*
X164561928Y-102100000D01*
X159438072Y-102100000D01*
X159425812Y-101975518D01*
X159389502Y-101855820D01*
X159330537Y-101745506D01*
X159251185Y-101648815D01*
X159154494Y-101569463D01*
X159044180Y-101510498D01*
X158924482Y-101474188D01*
X158800000Y-101461928D01*
X158310750Y-101465000D01*
X158152000Y-101623750D01*
X157898000Y-101623750D01*
X157739250Y-101465000D01*
X157250000Y-101461928D01*
X157125518Y-101474188D01*
X157005820Y-101510498D01*
X156895506Y-101569463D01*
X156798815Y-101648815D01*
X156719463Y-101745506D01*
X156660498Y-101855820D01*
X156624188Y-101975518D01*
X156611928Y-102100000D01*
X155885000Y-102100000D01*
X155885000Y-97151615D01*
X158113440Y-94923176D01*
X158123500Y-94922185D01*
X158290323Y-94871579D01*
X158444069Y-94789401D01*
X158578827Y-94678807D01*
X158606544Y-94645034D01*
X163595049Y-89656530D01*
X163628817Y-89628817D01*
X163659943Y-89590891D01*
X163739410Y-89494060D01*
X163739411Y-89494059D01*
X163821589Y-89340313D01*
X163872195Y-89173490D01*
X163885000Y-89043477D01*
X163885000Y-89043467D01*
X163889281Y-89000001D01*
X163885000Y-88956535D01*
X163885000Y-88538454D01*
X163917205Y-88490256D01*
X163995226Y-88301898D01*
X164035000Y-88101939D01*
X164035000Y-87899565D01*
X164055969Y-87897500D01*
X164598706Y-87897500D01*
X164636595Y-87968386D01*
X164747038Y-88102962D01*
X164881614Y-88213405D01*
X165035150Y-88295472D01*
X165201746Y-88346008D01*
X165375000Y-88363072D01*
X166372849Y-88363072D01*
X166098993Y-88636928D01*
X165375000Y-88636928D01*
X165201746Y-88653992D01*
X165035150Y-88704528D01*
X164881614Y-88786595D01*
X164747038Y-88897038D01*
X164636595Y-89031614D01*
X164554528Y-89185150D01*
X164503992Y-89351746D01*
X164486928Y-89525000D01*
X164486928Y-90450000D01*
X164503992Y-90623254D01*
X164554528Y-90789850D01*
X164636595Y-90943386D01*
X164747038Y-91077962D01*
X164881614Y-91188405D01*
X165035150Y-91270472D01*
X165115000Y-91294694D01*
X165115001Y-96970299D01*
X165075518Y-96974188D01*
X164955820Y-97010498D01*
X164845506Y-97069463D01*
X164748815Y-97148815D01*
X164669463Y-97245506D01*
X164610498Y-97355820D01*
X164607713Y-97365000D01*
X159392287Y-97365000D01*
X159389502Y-97355820D01*
X159330537Y-97245506D01*
X159251185Y-97148815D01*
X159154494Y-97069463D01*
X159044180Y-97010498D01*
X158924482Y-96974188D01*
X158800000Y-96961928D01*
X157250000Y-96961928D01*
X157125518Y-96974188D01*
X157005820Y-97010498D01*
X156895506Y-97069463D01*
X156798815Y-97148815D01*
X156719463Y-97245506D01*
X156660498Y-97355820D01*
X156624188Y-97475518D01*
X156611928Y-97600000D01*
X156611928Y-98900000D01*
X156624188Y-99024482D01*
X156660498Y-99144180D01*
X156719463Y-99254494D01*
X156798815Y-99351185D01*
X156895506Y-99430537D01*
X157005820Y-99489502D01*
X157125518Y-99525812D01*
X157250000Y-99538072D01*
X158800000Y-99538072D01*
X158924482Y-99525812D01*
X159044180Y-99489502D01*
X159154494Y-99430537D01*
X159251185Y-99351185D01*
X159330537Y-99254494D01*
X159389502Y-99144180D01*
X159392287Y-99135000D01*
X164607713Y-99135000D01*
X164610498Y-99144180D01*
X164669463Y-99254494D01*
X164748815Y-99351185D01*
X164845506Y-99430537D01*
X164955820Y-99489502D01*
X165075518Y-99525812D01*
X165200000Y-99538072D01*
X166750000Y-99538072D01*
X166874482Y-99525812D01*
X166994180Y-99489502D01*
X167104494Y-99430537D01*
X167201185Y-99351185D01*
X167280537Y-99254494D01*
X167339502Y-99144180D01*
X167375812Y-99024482D01*
X167388072Y-98900000D01*
X167388072Y-97600000D01*
X167375812Y-97475518D01*
X167339502Y-97355820D01*
X167280537Y-97245506D01*
X167201185Y-97148815D01*
X167104494Y-97069463D01*
X166994180Y-97010498D01*
X166885000Y-96977379D01*
X166885000Y-94300000D01*
X169361928Y-94300000D01*
X169361928Y-97700000D01*
X169374188Y-97824482D01*
X169410498Y-97944180D01*
X169469463Y-98054494D01*
X169548815Y-98151185D01*
X169645506Y-98230537D01*
X169755820Y-98289502D01*
X169765000Y-98292287D01*
X169765001Y-100599044D01*
X169732795Y-100647244D01*
X169654774Y-100835602D01*
X169615000Y-101035561D01*
X169615000Y-101239439D01*
X169654774Y-101439398D01*
X169732795Y-101627756D01*
X169846063Y-101797274D01*
X169990226Y-101941437D01*
X170159744Y-102054705D01*
X170348102Y-102132726D01*
X170404957Y-102144035D01*
X173127500Y-104866579D01*
X173127501Y-109098705D01*
X173056614Y-109136595D01*
X172922038Y-109247038D01*
X172811595Y-109381614D01*
X172729528Y-109535150D01*
X172678992Y-109701746D01*
X172661928Y-109875000D01*
X172661928Y-110214026D01*
X172627805Y-110326510D01*
X172610719Y-110500000D01*
X172627805Y-110673490D01*
X172661928Y-110785974D01*
X172661928Y-111125000D01*
X172678992Y-111298254D01*
X172729528Y-111464850D01*
X172811595Y-111618386D01*
X172922038Y-111752962D01*
X173056614Y-111863405D01*
X173127500Y-111901295D01*
X173127501Y-114697023D01*
X173025001Y-114686928D01*
X172174999Y-114686928D01*
X172001745Y-114703992D01*
X171835149Y-114754528D01*
X171681613Y-114836595D01*
X171547038Y-114947038D01*
X171436595Y-115081613D01*
X171354528Y-115235149D01*
X171303992Y-115401745D01*
X171286928Y-115574999D01*
X171286928Y-117061494D01*
X171233422Y-117115000D01*
X171038454Y-117115000D01*
X170990256Y-117082795D01*
X170801898Y-117004774D01*
X170601939Y-116965000D01*
X170398061Y-116965000D01*
X170198102Y-117004774D01*
X170009744Y-117082795D01*
X169840226Y-117196063D01*
X169696063Y-117340226D01*
X169582795Y-117509744D01*
X169504774Y-117698102D01*
X169465000Y-117898061D01*
X169465000Y-118101939D01*
X169504774Y-118301898D01*
X169582795Y-118490256D01*
X169696063Y-118659774D01*
X169840226Y-118803937D01*
X170009744Y-118917205D01*
X170198102Y-118995226D01*
X170398061Y-119035000D01*
X170601939Y-119035000D01*
X170801898Y-118995226D01*
X170990256Y-118917205D01*
X171038454Y-118885000D01*
X171418749Y-118885000D01*
X171436595Y-118918387D01*
X171547038Y-119052962D01*
X171681613Y-119163405D01*
X171835149Y-119245472D01*
X172001745Y-119296008D01*
X172174999Y-119313072D01*
X173025001Y-119313072D01*
X173198255Y-119296008D01*
X173364851Y-119245472D01*
X173518387Y-119163405D01*
X173652962Y-119052962D01*
X173763405Y-118918387D01*
X173845472Y-118764851D01*
X173896008Y-118598255D01*
X173913072Y-118425001D01*
X173913072Y-116938506D01*
X174607549Y-116244030D01*
X174641317Y-116216317D01*
X174724467Y-116115000D01*
X174751911Y-116081559D01*
X174834089Y-115927814D01*
X174884695Y-115760990D01*
X174893638Y-115670186D01*
X174897500Y-115630977D01*
X174897500Y-115630969D01*
X174901781Y-115587500D01*
X174897500Y-115544031D01*
X174897500Y-111901294D01*
X174968386Y-111863405D01*
X175102962Y-111752962D01*
X175213405Y-111618386D01*
X175295472Y-111464850D01*
X175346008Y-111298254D01*
X175363072Y-111125000D01*
X175363072Y-109875000D01*
X175346008Y-109701746D01*
X175295472Y-109535150D01*
X175213405Y-109381614D01*
X175102962Y-109247038D01*
X174968386Y-109136595D01*
X174897500Y-109098706D01*
X174897500Y-104543465D01*
X174901781Y-104499999D01*
X174897500Y-104456533D01*
X174897500Y-104456523D01*
X174884695Y-104326510D01*
X174834089Y-104159687D01*
X174751911Y-104005941D01*
X174641317Y-103871183D01*
X174607550Y-103843471D01*
X171656535Y-100892457D01*
X171645226Y-100835602D01*
X171567205Y-100647244D01*
X171535000Y-100599046D01*
X171535000Y-98292287D01*
X171544180Y-98289502D01*
X171654494Y-98230537D01*
X171751185Y-98151185D01*
X171830537Y-98054494D01*
X171889502Y-97944180D01*
X171925812Y-97824482D01*
X171938072Y-97700000D01*
X171938072Y-94300000D01*
X171925812Y-94175518D01*
X171889502Y-94055820D01*
X171830537Y-93945506D01*
X171751185Y-93848815D01*
X171654494Y-93769463D01*
X171544180Y-93710498D01*
X171424482Y-93674188D01*
X171300000Y-93661928D01*
X170000000Y-93661928D01*
X169875518Y-93674188D01*
X169755820Y-93710498D01*
X169645506Y-93769463D01*
X169548815Y-93848815D01*
X169469463Y-93945506D01*
X169410498Y-94055820D01*
X169374188Y-94175518D01*
X169361928Y-94300000D01*
X166885000Y-94300000D01*
X166885000Y-91294694D01*
X166964850Y-91270472D01*
X167118386Y-91188405D01*
X167252962Y-91077962D01*
X167363405Y-90943386D01*
X167445472Y-90789850D01*
X167496008Y-90623254D01*
X167513072Y-90450000D01*
X167513072Y-89726007D01*
X167920059Y-89319020D01*
X167953827Y-89291307D01*
X167989296Y-89248089D01*
X168064420Y-89156550D01*
X168064421Y-89156549D01*
X168146599Y-89002803D01*
X168197205Y-88835980D01*
X168210010Y-88705967D01*
X168210010Y-88705957D01*
X168214291Y-88662491D01*
X168210010Y-88619025D01*
X168210010Y-87309701D01*
X168331937Y-87187774D01*
X168445205Y-87018256D01*
X168523226Y-86829898D01*
X168563000Y-86629939D01*
X168563000Y-86426061D01*
X168523226Y-86226102D01*
X168445205Y-86037744D01*
X168331937Y-85868226D01*
X168187774Y-85724063D01*
X168018256Y-85610795D01*
X167829898Y-85532774D01*
X167629939Y-85493000D01*
X167426061Y-85493000D01*
X167226102Y-85532774D01*
X167037744Y-85610795D01*
X166892770Y-85707663D01*
X166798254Y-85678992D01*
X166625000Y-85661928D01*
X165375000Y-85661928D01*
X165201746Y-85678992D01*
X165035150Y-85729528D01*
X164881614Y-85811595D01*
X164747038Y-85922038D01*
X164636595Y-86056614D01*
X164598706Y-86127500D01*
X164379079Y-86127500D01*
X163508534Y-85256956D01*
X163480817Y-85223183D01*
X163346059Y-85112589D01*
X163192313Y-85030411D01*
X163025490Y-84979805D01*
X162895477Y-84967000D01*
X162895469Y-84967000D01*
X162874926Y-84964977D01*
X162990256Y-84917205D01*
X163159774Y-84803937D01*
X163303937Y-84659774D01*
X163417205Y-84490256D01*
X163495226Y-84301898D01*
X163535000Y-84101939D01*
X163535000Y-83898061D01*
X163495226Y-83698102D01*
X163417205Y-83509744D01*
X163385000Y-83461546D01*
X163385000Y-71136578D01*
X169092990Y-76844569D01*
X169092989Y-88924483D01*
X169088708Y-88967952D01*
X169092989Y-89011421D01*
X169092989Y-89011428D01*
X169105794Y-89141441D01*
X169115000Y-89171789D01*
X169115000Y-89456531D01*
X169110719Y-89500000D01*
X169115000Y-89543469D01*
X169115000Y-89543476D01*
X169127805Y-89673489D01*
X169178411Y-89840312D01*
X169260589Y-89994058D01*
X169371183Y-90128817D01*
X169404956Y-90156534D01*
X171904953Y-92656532D01*
X171904959Y-92656537D01*
X176102501Y-96854080D01*
X176102500Y-104456523D01*
X176102500Y-104456524D01*
X176102501Y-109098705D01*
X176031614Y-109136595D01*
X175897038Y-109247038D01*
X175786595Y-109381614D01*
X175704528Y-109535150D01*
X175653992Y-109701746D01*
X175636928Y-109875000D01*
X175636928Y-111125000D01*
X175653992Y-111298254D01*
X175704528Y-111464850D01*
X175786595Y-111618386D01*
X175897038Y-111752962D01*
X176031614Y-111863405D01*
X176185150Y-111945472D01*
X176351746Y-111996008D01*
X176525000Y-112013072D01*
X177248993Y-112013072D01*
X177515001Y-112279080D01*
X177515000Y-114818749D01*
X177481613Y-114836595D01*
X177347038Y-114947038D01*
X177236595Y-115081613D01*
X177154528Y-115235149D01*
X177103992Y-115401745D01*
X177086928Y-115574999D01*
X177086928Y-118425001D01*
X177103992Y-118598255D01*
X177154528Y-118764851D01*
X177236595Y-118918387D01*
X177347038Y-119052962D01*
X177481613Y-119163405D01*
X177635149Y-119245472D01*
X177801745Y-119296008D01*
X177974999Y-119313072D01*
X178825001Y-119313072D01*
X178998255Y-119296008D01*
X179164851Y-119245472D01*
X179318387Y-119163405D01*
X179452962Y-119052962D01*
X179563405Y-118918387D01*
X179645472Y-118764851D01*
X179696008Y-118598255D01*
X179713072Y-118425001D01*
X179713072Y-115574999D01*
X179696008Y-115401745D01*
X179645472Y-115235149D01*
X179563405Y-115081613D01*
X179452962Y-114947038D01*
X179318387Y-114836595D01*
X179285000Y-114818749D01*
X179285000Y-111955969D01*
X179289281Y-111912500D01*
X179285000Y-111869031D01*
X179285000Y-111869023D01*
X179272195Y-111739010D01*
X179235604Y-111618386D01*
X179221589Y-111572186D01*
X179139411Y-111418441D01*
X179056532Y-111317453D01*
X179056530Y-111317451D01*
X179028817Y-111283683D01*
X178995049Y-111255970D01*
X178375814Y-110636735D01*
X178389281Y-110499999D01*
X178372194Y-110326509D01*
X178338072Y-110214026D01*
X178338072Y-109875000D01*
X178321008Y-109701746D01*
X178270472Y-109535150D01*
X178188405Y-109381614D01*
X178077962Y-109247038D01*
X177943386Y-109136595D01*
X177872500Y-109098706D01*
X177872500Y-96530965D01*
X177876781Y-96487499D01*
X177872500Y-96444033D01*
X177872500Y-96444023D01*
X177859695Y-96314010D01*
X177809089Y-96147187D01*
X177726911Y-95993441D01*
X177654291Y-95904954D01*
X177644032Y-95892453D01*
X177644030Y-95892451D01*
X177616317Y-95858683D01*
X177582549Y-95830970D01*
X176051579Y-94300000D01*
X178061928Y-94300000D01*
X178061928Y-97700000D01*
X178074188Y-97824482D01*
X178110498Y-97944180D01*
X178169463Y-98054494D01*
X178248815Y-98151185D01*
X178345506Y-98230537D01*
X178455820Y-98289502D01*
X178575518Y-98325812D01*
X178700000Y-98338072D01*
X180000000Y-98338072D01*
X180124482Y-98325812D01*
X180244180Y-98289502D01*
X180354494Y-98230537D01*
X180451185Y-98151185D01*
X180530537Y-98054494D01*
X180569542Y-97981522D01*
X183683068Y-101095049D01*
X183710781Y-101128817D01*
X183744549Y-101156530D01*
X183744551Y-101156532D01*
X183845539Y-101239411D01*
X183866126Y-101250415D01*
X183446859Y-101424081D01*
X183030844Y-101702053D01*
X182677053Y-102055844D01*
X182399081Y-102471859D01*
X182207611Y-102934109D01*
X182110000Y-103424832D01*
X182110000Y-103925168D01*
X182207611Y-104415891D01*
X182399081Y-104878141D01*
X182677053Y-105294156D01*
X183030844Y-105647947D01*
X183446859Y-105925919D01*
X183909109Y-106117389D01*
X184399832Y-106215000D01*
X184900168Y-106215000D01*
X185390891Y-106117389D01*
X185853141Y-105925919D01*
X186269156Y-105647947D01*
X186622947Y-105294156D01*
X186900919Y-104878141D01*
X187092389Y-104415891D01*
X187190000Y-103925168D01*
X187190000Y-103424832D01*
X187092389Y-102934109D01*
X187029512Y-102782309D01*
X187121154Y-102820269D01*
X187587340Y-102913000D01*
X188062660Y-102913000D01*
X188528846Y-102820269D01*
X188620488Y-102782309D01*
X188557611Y-102934109D01*
X188460000Y-103424832D01*
X188460000Y-103925168D01*
X188557611Y-104415891D01*
X188749081Y-104878141D01*
X189027053Y-105294156D01*
X189380844Y-105647947D01*
X189796859Y-105925919D01*
X190259109Y-106117389D01*
X190749832Y-106215000D01*
X191250168Y-106215000D01*
X191740891Y-106117389D01*
X192203141Y-105925919D01*
X192619156Y-105647947D01*
X192972947Y-105294156D01*
X193250919Y-104878141D01*
X193442389Y-104415891D01*
X193540000Y-103925168D01*
X193540000Y-103424832D01*
X193442389Y-102934109D01*
X193250919Y-102471859D01*
X192972947Y-102055844D01*
X192619156Y-101702053D01*
X192203141Y-101424081D01*
X191740891Y-101232611D01*
X191250168Y-101135000D01*
X190749832Y-101135000D01*
X190259109Y-101232611D01*
X190107309Y-101295488D01*
X190145269Y-101203846D01*
X190238000Y-100737660D01*
X190238000Y-100262340D01*
X190145269Y-99796154D01*
X190107309Y-99704512D01*
X190259109Y-99767389D01*
X190749832Y-99865000D01*
X191250168Y-99865000D01*
X191740891Y-99767389D01*
X192203141Y-99575919D01*
X192619156Y-99297947D01*
X192972947Y-98944156D01*
X193250919Y-98528141D01*
X193442389Y-98065891D01*
X193540000Y-97575168D01*
X193540000Y-97074832D01*
X193442389Y-96584109D01*
X193250919Y-96121859D01*
X192972947Y-95705844D01*
X192619156Y-95352053D01*
X192203141Y-95074081D01*
X191740891Y-94882611D01*
X191250168Y-94785000D01*
X190749832Y-94785000D01*
X190259109Y-94882611D01*
X189796859Y-95074081D01*
X189380844Y-95352053D01*
X189027053Y-95705844D01*
X188749081Y-96121859D01*
X188557611Y-96584109D01*
X188460000Y-97074832D01*
X188460000Y-97575168D01*
X188557611Y-98065891D01*
X188620488Y-98217691D01*
X188528846Y-98179731D01*
X188062660Y-98087000D01*
X187587340Y-98087000D01*
X187121154Y-98179731D01*
X187029512Y-98217691D01*
X187092389Y-98065891D01*
X187190000Y-97575168D01*
X187190000Y-97074832D01*
X187092389Y-96584109D01*
X186900919Y-96121859D01*
X186622947Y-95705844D01*
X186269156Y-95352053D01*
X185853141Y-95074081D01*
X185390891Y-94882611D01*
X184900168Y-94785000D01*
X184399832Y-94785000D01*
X183909109Y-94882611D01*
X183446859Y-95074081D01*
X183030844Y-95352053D01*
X182677053Y-95705844D01*
X182399081Y-96121859D01*
X182207611Y-96584109D01*
X182119292Y-97028116D01*
X181385000Y-96293824D01*
X181385000Y-94893469D01*
X181389281Y-94850000D01*
X181385000Y-94806531D01*
X181385000Y-94308767D01*
X181421589Y-94240313D01*
X181472195Y-94073489D01*
X181476583Y-94028935D01*
X181565256Y-93992205D01*
X181734774Y-93878937D01*
X181878937Y-93734774D01*
X181992205Y-93565256D01*
X182070226Y-93376898D01*
X182110000Y-93176939D01*
X182110000Y-92973061D01*
X182070226Y-92773102D01*
X181992205Y-92584744D01*
X181878937Y-92415226D01*
X181734774Y-92271063D01*
X181565256Y-92157795D01*
X181376898Y-92079774D01*
X181176939Y-92040000D01*
X180973061Y-92040000D01*
X180773102Y-92079774D01*
X180584744Y-92157795D01*
X180415226Y-92271063D01*
X180271063Y-92415226D01*
X180157795Y-92584744D01*
X180079774Y-92773102D01*
X180068465Y-92829957D01*
X180004956Y-92893466D01*
X179971183Y-92921183D01*
X179860589Y-93055942D01*
X179778411Y-93209688D01*
X179727805Y-93376511D01*
X179715000Y-93506524D01*
X179715000Y-93506531D01*
X179710719Y-93550000D01*
X179714814Y-93591582D01*
X179678411Y-93659688D01*
X179677731Y-93661928D01*
X178700000Y-93661928D01*
X178575518Y-93674188D01*
X178455820Y-93710498D01*
X178345506Y-93769463D01*
X178248815Y-93848815D01*
X178169463Y-93945506D01*
X178110498Y-94055820D01*
X178074188Y-94175518D01*
X178061928Y-94300000D01*
X176051579Y-94300000D01*
X174136578Y-92385000D01*
X176961546Y-92385000D01*
X177009744Y-92417205D01*
X177198102Y-92495226D01*
X177398061Y-92535000D01*
X177601939Y-92535000D01*
X177801898Y-92495226D01*
X177990256Y-92417205D01*
X178159774Y-92303937D01*
X178303937Y-92159774D01*
X178417205Y-91990256D01*
X178495226Y-91801898D01*
X178535000Y-91601939D01*
X178535000Y-91398061D01*
X178495226Y-91198102D01*
X178417205Y-91009744D01*
X178303937Y-90840226D01*
X178159774Y-90696063D01*
X177990256Y-90582795D01*
X177801898Y-90504774D01*
X177601939Y-90465000D01*
X177398061Y-90465000D01*
X177198102Y-90504774D01*
X177009744Y-90582795D01*
X176961546Y-90615000D01*
X173866579Y-90615000D01*
X171562999Y-88311421D01*
X171562999Y-83563000D01*
X171629939Y-83563000D01*
X171829898Y-83523226D01*
X172018256Y-83445205D01*
X172187774Y-83331937D01*
X172331937Y-83187774D01*
X172445205Y-83018256D01*
X172523226Y-82829898D01*
X172534535Y-82773043D01*
X174347348Y-80960230D01*
X174396068Y-81205158D01*
X174508010Y-81475411D01*
X174670525Y-81718632D01*
X174877368Y-81925475D01*
X175051760Y-82042000D01*
X174877368Y-82158525D01*
X174670525Y-82365368D01*
X174508010Y-82608589D01*
X174396068Y-82878842D01*
X174339000Y-83165740D01*
X174339000Y-83458260D01*
X174396068Y-83745158D01*
X174508010Y-84015411D01*
X174670525Y-84258632D01*
X174877368Y-84465475D01*
X175051760Y-84582000D01*
X174877368Y-84698525D01*
X174670525Y-84905368D01*
X174508010Y-85148589D01*
X174396068Y-85418842D01*
X174339000Y-85705740D01*
X174339000Y-85998260D01*
X174396068Y-86285158D01*
X174508010Y-86555411D01*
X174670525Y-86798632D01*
X174802380Y-86930487D01*
X174729820Y-86952498D01*
X174619506Y-87011463D01*
X174522815Y-87090815D01*
X174443463Y-87187506D01*
X174384498Y-87297820D01*
X174348188Y-87417518D01*
X174335928Y-87542000D01*
X174335928Y-89242000D01*
X174348188Y-89366482D01*
X174384498Y-89486180D01*
X174443463Y-89596494D01*
X174522815Y-89693185D01*
X174619506Y-89772537D01*
X174729820Y-89831502D01*
X174849518Y-89867812D01*
X174974000Y-89880072D01*
X176674000Y-89880072D01*
X176798482Y-89867812D01*
X176918180Y-89831502D01*
X177028494Y-89772537D01*
X177125185Y-89693185D01*
X177204537Y-89596494D01*
X177263502Y-89486180D01*
X177299812Y-89366482D01*
X177312072Y-89242000D01*
X177312072Y-87542000D01*
X177299812Y-87417518D01*
X177263502Y-87297820D01*
X177204537Y-87187506D01*
X177125185Y-87090815D01*
X177028494Y-87011463D01*
X176918180Y-86952498D01*
X176845620Y-86930487D01*
X176977475Y-86798632D01*
X177139990Y-86555411D01*
X177251932Y-86285158D01*
X177309000Y-85998260D01*
X177309000Y-85705740D01*
X177251932Y-85418842D01*
X177139990Y-85148589D01*
X176977475Y-84905368D01*
X176770632Y-84698525D01*
X176596240Y-84582000D01*
X176770632Y-84465475D01*
X176977475Y-84258632D01*
X177139990Y-84015411D01*
X177251932Y-83745158D01*
X177309000Y-83458260D01*
X177309000Y-83165740D01*
X177251932Y-82878842D01*
X177139990Y-82608589D01*
X176977475Y-82365368D01*
X176770632Y-82158525D01*
X176596240Y-82042000D01*
X176770632Y-81925475D01*
X176977475Y-81718632D01*
X177139990Y-81475411D01*
X177251932Y-81205158D01*
X177309000Y-80918260D01*
X177309000Y-80625740D01*
X177251932Y-80338842D01*
X177139990Y-80068589D01*
X176977475Y-79825368D01*
X176770632Y-79618525D01*
X176596240Y-79502000D01*
X176770632Y-79385475D01*
X176977475Y-79178632D01*
X177139990Y-78935411D01*
X177251932Y-78665158D01*
X177309000Y-78378260D01*
X177309000Y-78085740D01*
X177251932Y-77798842D01*
X177139990Y-77528589D01*
X176977475Y-77285368D01*
X176770632Y-77078525D01*
X176596240Y-76962000D01*
X176770632Y-76845475D01*
X176977475Y-76638632D01*
X177018656Y-76577000D01*
X178957422Y-76577000D01*
X180615001Y-78234580D01*
X180615000Y-82461546D01*
X180582795Y-82509744D01*
X180504774Y-82698102D01*
X180465000Y-82898061D01*
X180465000Y-83101939D01*
X180504774Y-83301898D01*
X180582795Y-83490256D01*
X180696063Y-83659774D01*
X180840226Y-83803937D01*
X181009744Y-83917205D01*
X181198102Y-83995226D01*
X181398061Y-84035000D01*
X181601939Y-84035000D01*
X181801898Y-83995226D01*
X181990256Y-83917205D01*
X182159774Y-83803937D01*
X182253683Y-83710028D01*
X182527053Y-84119156D01*
X182880844Y-84472947D01*
X183296859Y-84750919D01*
X183716126Y-84924585D01*
X183695539Y-84935589D01*
X183695537Y-84935590D01*
X183695538Y-84935590D01*
X183594551Y-85018468D01*
X183594549Y-85018470D01*
X183560781Y-85046183D01*
X183533068Y-85079951D01*
X180514216Y-88098804D01*
X180490256Y-88082795D01*
X180301898Y-88004774D01*
X180101939Y-87965000D01*
X179898061Y-87965000D01*
X179698102Y-88004774D01*
X179509744Y-88082795D01*
X179340226Y-88196063D01*
X179196063Y-88340226D01*
X179082795Y-88509744D01*
X179004774Y-88698102D01*
X178965000Y-88898061D01*
X178965000Y-89101939D01*
X179004774Y-89301898D01*
X179082795Y-89490256D01*
X179196063Y-89659774D01*
X179340226Y-89803937D01*
X179509744Y-89917205D01*
X179698102Y-89995226D01*
X179898061Y-90035000D01*
X180101939Y-90035000D01*
X180301898Y-89995226D01*
X180490256Y-89917205D01*
X180538454Y-89885000D01*
X180821129Y-89885000D01*
X180864598Y-89889281D01*
X180908067Y-89885000D01*
X180908075Y-89885000D01*
X181038088Y-89872195D01*
X181204911Y-89821589D01*
X181358657Y-89739411D01*
X181493415Y-89628817D01*
X181521132Y-89595044D01*
X181969292Y-89146884D01*
X182057611Y-89590891D01*
X182249081Y-90053141D01*
X182527053Y-90469156D01*
X182880844Y-90822947D01*
X183296859Y-91100919D01*
X183759109Y-91292389D01*
X184249832Y-91390000D01*
X184750168Y-91390000D01*
X185240891Y-91292389D01*
X185703141Y-91100919D01*
X186119156Y-90822947D01*
X186472947Y-90469156D01*
X186750919Y-90053141D01*
X186942389Y-89590891D01*
X187040000Y-89100168D01*
X187040000Y-88599832D01*
X186942389Y-88109109D01*
X186879512Y-87957309D01*
X186971154Y-87995269D01*
X187437340Y-88088000D01*
X187912660Y-88088000D01*
X188378846Y-87995269D01*
X188470488Y-87957309D01*
X188407611Y-88109109D01*
X188310000Y-88599832D01*
X188310000Y-89100168D01*
X188407611Y-89590891D01*
X188599081Y-90053141D01*
X188877053Y-90469156D01*
X189230844Y-90822947D01*
X189646859Y-91100919D01*
X190109109Y-91292389D01*
X190599832Y-91390000D01*
X191100168Y-91390000D01*
X191590891Y-91292389D01*
X192053141Y-91100919D01*
X192469156Y-90822947D01*
X192822947Y-90469156D01*
X193100919Y-90053141D01*
X193292389Y-89590891D01*
X193390000Y-89100168D01*
X193390000Y-88599832D01*
X193292389Y-88109109D01*
X193100919Y-87646859D01*
X192822947Y-87230844D01*
X192469156Y-86877053D01*
X192053141Y-86599081D01*
X191590891Y-86407611D01*
X191100168Y-86310000D01*
X190599832Y-86310000D01*
X190109109Y-86407611D01*
X189957309Y-86470488D01*
X189995269Y-86378846D01*
X190088000Y-85912660D01*
X190088000Y-85437340D01*
X189995269Y-84971154D01*
X189957309Y-84879512D01*
X190109109Y-84942389D01*
X190599832Y-85040000D01*
X191100168Y-85040000D01*
X191590891Y-84942389D01*
X192053141Y-84750919D01*
X192469156Y-84472947D01*
X192822947Y-84119156D01*
X193100919Y-83703141D01*
X193292389Y-83240891D01*
X193390000Y-82750168D01*
X193390000Y-82249832D01*
X193292389Y-81759109D01*
X193100919Y-81296859D01*
X192822947Y-80880844D01*
X192469156Y-80527053D01*
X192053141Y-80249081D01*
X191590891Y-80057611D01*
X191100168Y-79960000D01*
X190599832Y-79960000D01*
X190109109Y-80057611D01*
X189646859Y-80249081D01*
X189230844Y-80527053D01*
X188877053Y-80880844D01*
X188599081Y-81296859D01*
X188407611Y-81759109D01*
X188310000Y-82249832D01*
X188310000Y-82750168D01*
X188407611Y-83240891D01*
X188470488Y-83392691D01*
X188378846Y-83354731D01*
X187912660Y-83262000D01*
X187437340Y-83262000D01*
X186971154Y-83354731D01*
X186879512Y-83392691D01*
X186942389Y-83240891D01*
X187040000Y-82750168D01*
X187040000Y-82249832D01*
X186942389Y-81759109D01*
X186750919Y-81296859D01*
X186472947Y-80880844D01*
X186119156Y-80527053D01*
X185703141Y-80249081D01*
X185240891Y-80057611D01*
X184750168Y-79960000D01*
X184249832Y-79960000D01*
X183759109Y-80057611D01*
X183296859Y-80249081D01*
X182880844Y-80527053D01*
X182527053Y-80880844D01*
X182385000Y-81093442D01*
X182385000Y-77911469D01*
X182389281Y-77868000D01*
X182385000Y-77824531D01*
X182385000Y-77824523D01*
X182372195Y-77694510D01*
X182321589Y-77527687D01*
X182239411Y-77373941D01*
X182178382Y-77299577D01*
X182156532Y-77272953D01*
X182156530Y-77272951D01*
X182128817Y-77239183D01*
X182095049Y-77211470D01*
X179980534Y-75096956D01*
X179952817Y-75063183D01*
X179818059Y-74952589D01*
X179664313Y-74870411D01*
X179497490Y-74819805D01*
X179367477Y-74807000D01*
X179367469Y-74807000D01*
X179324000Y-74802719D01*
X179280531Y-74807000D01*
X177018656Y-74807000D01*
X176977475Y-74745368D01*
X176770632Y-74538525D01*
X176596240Y-74422000D01*
X176770632Y-74305475D01*
X176977475Y-74098632D01*
X177139990Y-73855411D01*
X177251932Y-73585158D01*
X177309000Y-73298260D01*
X177309000Y-73005740D01*
X177251932Y-72718842D01*
X177139990Y-72448589D01*
X176977475Y-72205368D01*
X176770632Y-71998525D01*
X176596240Y-71882000D01*
X176770632Y-71765475D01*
X176977475Y-71558632D01*
X177139990Y-71315411D01*
X177180313Y-71218060D01*
X180145001Y-71218060D01*
X180145001Y-71421938D01*
X180184775Y-71621897D01*
X180262796Y-71810255D01*
X180376064Y-71979773D01*
X180520227Y-72123936D01*
X180689745Y-72237204D01*
X180878103Y-72315225D01*
X181078062Y-72354999D01*
X181281940Y-72354999D01*
X181481899Y-72315225D01*
X181670257Y-72237204D01*
X181718455Y-72204999D01*
X182252391Y-72204999D01*
X182074081Y-72471859D01*
X181882611Y-72934109D01*
X181785000Y-73424832D01*
X181785000Y-73925168D01*
X181882611Y-74415891D01*
X182074081Y-74878141D01*
X182352053Y-75294156D01*
X182705844Y-75647947D01*
X183121859Y-75925919D01*
X183584109Y-76117389D01*
X184074832Y-76215000D01*
X184575168Y-76215000D01*
X185065891Y-76117389D01*
X185528141Y-75925919D01*
X185944156Y-75647947D01*
X186297947Y-75294156D01*
X186575919Y-74878141D01*
X186767389Y-74415891D01*
X186865000Y-73925168D01*
X186865000Y-73424832D01*
X186767389Y-72934109D01*
X186704512Y-72782309D01*
X186796154Y-72820269D01*
X187262340Y-72913000D01*
X187737660Y-72913000D01*
X188203846Y-72820269D01*
X188295488Y-72782309D01*
X188232611Y-72934109D01*
X188135000Y-73424832D01*
X188135000Y-73925168D01*
X188232611Y-74415891D01*
X188424081Y-74878141D01*
X188702053Y-75294156D01*
X189055844Y-75647947D01*
X189471859Y-75925919D01*
X189934109Y-76117389D01*
X190424832Y-76215000D01*
X190925168Y-76215000D01*
X191415891Y-76117389D01*
X191878141Y-75925919D01*
X192294156Y-75647947D01*
X192647947Y-75294156D01*
X192925919Y-74878141D01*
X193117389Y-74415891D01*
X193215000Y-73925168D01*
X193215000Y-73424832D01*
X193117389Y-72934109D01*
X192925919Y-72471859D01*
X192647947Y-72055844D01*
X192294156Y-71702053D01*
X191878141Y-71424081D01*
X191415891Y-71232611D01*
X190925168Y-71135000D01*
X190424832Y-71135000D01*
X189934109Y-71232611D01*
X189782309Y-71295488D01*
X189820269Y-71203846D01*
X189913000Y-70737660D01*
X189913000Y-70262340D01*
X189820269Y-69796154D01*
X189782309Y-69704512D01*
X189934109Y-69767389D01*
X190424832Y-69865000D01*
X190925168Y-69865000D01*
X191415891Y-69767389D01*
X191878141Y-69575919D01*
X192294156Y-69297947D01*
X192647947Y-68944156D01*
X192925919Y-68528141D01*
X193117389Y-68065891D01*
X193215000Y-67575168D01*
X193215000Y-67074832D01*
X193117389Y-66584109D01*
X192925919Y-66121859D01*
X192647947Y-65705844D01*
X192294156Y-65352053D01*
X191878141Y-65074081D01*
X191415891Y-64882611D01*
X190925168Y-64785000D01*
X190424832Y-64785000D01*
X189934109Y-64882611D01*
X189471859Y-65074081D01*
X189055844Y-65352053D01*
X188702053Y-65705844D01*
X188424081Y-66121859D01*
X188232611Y-66584109D01*
X188135000Y-67074832D01*
X188135000Y-67575168D01*
X188232611Y-68065891D01*
X188295488Y-68217691D01*
X188203846Y-68179731D01*
X187737660Y-68087000D01*
X187262340Y-68087000D01*
X186796154Y-68179731D01*
X186704512Y-68217691D01*
X186767389Y-68065891D01*
X186865000Y-67575168D01*
X186865000Y-67074832D01*
X186767389Y-66584109D01*
X186575919Y-66121859D01*
X186297947Y-65705844D01*
X185944156Y-65352053D01*
X185528141Y-65074081D01*
X185065891Y-64882611D01*
X184575168Y-64785000D01*
X184074832Y-64785000D01*
X183584109Y-64882611D01*
X183121859Y-65074081D01*
X182705844Y-65352053D01*
X182352053Y-65705844D01*
X182074081Y-66121859D01*
X181882611Y-66584109D01*
X181785000Y-67074832D01*
X181785000Y-67575168D01*
X181882611Y-68065891D01*
X182074081Y-68528141D01*
X182352053Y-68944156D01*
X182705844Y-69297947D01*
X183121859Y-69575919D01*
X183584109Y-69767389D01*
X184074832Y-69865000D01*
X184575168Y-69865000D01*
X185065891Y-69767389D01*
X185217691Y-69704512D01*
X185179731Y-69796154D01*
X185087000Y-70262340D01*
X185087000Y-70434999D01*
X181718455Y-70434999D01*
X181670257Y-70402794D01*
X181481899Y-70324773D01*
X181281940Y-70284999D01*
X181078062Y-70284999D01*
X180878103Y-70324773D01*
X180689745Y-70402794D01*
X180520227Y-70516062D01*
X180376064Y-70660225D01*
X180262796Y-70829743D01*
X180184775Y-71018101D01*
X180145001Y-71218060D01*
X177180313Y-71218060D01*
X177251932Y-71045158D01*
X177309000Y-70758260D01*
X177309000Y-70465740D01*
X177251932Y-70178842D01*
X177139990Y-69908589D01*
X176977475Y-69665368D01*
X176770632Y-69458525D01*
X176596240Y-69342000D01*
X176770632Y-69225475D01*
X176977475Y-69018632D01*
X177139990Y-68775411D01*
X177251932Y-68505158D01*
X177309000Y-68218260D01*
X177309000Y-67925740D01*
X177251932Y-67638842D01*
X177139990Y-67368589D01*
X176977475Y-67125368D01*
X176770632Y-66918525D01*
X176596240Y-66802000D01*
X176770632Y-66685475D01*
X176977475Y-66478632D01*
X177139990Y-66235411D01*
X177251932Y-65965158D01*
X177309000Y-65678260D01*
X177309000Y-65385740D01*
X177251932Y-65098842D01*
X177139990Y-64828589D01*
X176977475Y-64585368D01*
X176770632Y-64378525D01*
X176596240Y-64262000D01*
X176770632Y-64145475D01*
X176977475Y-63938632D01*
X177139990Y-63695411D01*
X177251932Y-63425158D01*
X177309000Y-63138260D01*
X177309000Y-62845740D01*
X177251932Y-62558842D01*
X177139990Y-62288589D01*
X176977475Y-62045368D01*
X176770632Y-61838525D01*
X176596240Y-61722000D01*
X176770632Y-61605475D01*
X176977475Y-61398632D01*
X177139990Y-61155411D01*
X177251932Y-60885158D01*
X177309000Y-60598260D01*
X177309000Y-60305740D01*
X177251932Y-60018842D01*
X177139990Y-59748589D01*
X176977475Y-59505368D01*
X176770632Y-59298525D01*
X176596240Y-59182000D01*
X176770632Y-59065475D01*
X176977475Y-58858632D01*
X177139990Y-58615411D01*
X177251932Y-58345158D01*
X177309000Y-58058260D01*
X177309000Y-57765740D01*
X177251932Y-57478842D01*
X177139990Y-57208589D01*
X176977475Y-56965368D01*
X176770632Y-56758525D01*
X176596240Y-56642000D01*
X176770632Y-56525475D01*
X176977475Y-56318632D01*
X177139990Y-56075411D01*
X177251932Y-55805158D01*
X177309000Y-55518260D01*
X177309000Y-55225740D01*
X177251932Y-54938842D01*
X177139990Y-54668589D01*
X176977475Y-54425368D01*
X176770632Y-54218525D01*
X176596240Y-54102000D01*
X176770632Y-53985475D01*
X176977475Y-53778632D01*
X177139990Y-53535411D01*
X177251932Y-53265158D01*
X177309000Y-52978260D01*
X177309000Y-52685740D01*
X177251932Y-52398842D01*
X177139990Y-52128589D01*
X176977475Y-51885368D01*
X176770632Y-51678525D01*
X176527411Y-51516010D01*
X176257158Y-51404068D01*
X175970260Y-51347000D01*
X175677740Y-51347000D01*
X175390842Y-51404068D01*
X175120589Y-51516010D01*
X174877368Y-51678525D01*
X174670525Y-51885368D01*
X174508010Y-52128589D01*
X174396068Y-52398842D01*
X174339000Y-52685740D01*
X174339000Y-52978260D01*
X174396068Y-53265158D01*
X174508010Y-53535411D01*
X174670525Y-53778632D01*
X174877368Y-53985475D01*
X175051760Y-54102000D01*
X174877368Y-54218525D01*
X174670525Y-54425368D01*
X174508010Y-54668589D01*
X174396068Y-54938842D01*
X174339000Y-55225740D01*
X174339000Y-55518260D01*
X174396068Y-55805158D01*
X174508010Y-56075411D01*
X174670525Y-56318632D01*
X174877368Y-56525475D01*
X175051760Y-56642000D01*
X174877368Y-56758525D01*
X174670525Y-56965368D01*
X174508010Y-57208589D01*
X174396068Y-57478842D01*
X174339000Y-57765740D01*
X174339000Y-58058260D01*
X174396068Y-58345158D01*
X174508010Y-58615411D01*
X174670525Y-58858632D01*
X174877368Y-59065475D01*
X175051760Y-59182000D01*
X174877368Y-59298525D01*
X174707486Y-59468407D01*
X170838072Y-55598994D01*
X170838072Y-54875000D01*
X170821008Y-54701746D01*
X170770472Y-54535150D01*
X170688405Y-54381614D01*
X170577962Y-54247038D01*
X170443386Y-54136595D01*
X170289850Y-54054528D01*
X170123254Y-54003992D01*
X169950000Y-53986928D01*
X169025000Y-53986928D01*
X168851746Y-54003992D01*
X168685150Y-54054528D01*
X168531614Y-54136595D01*
X168397038Y-54247038D01*
X168286595Y-54381614D01*
X168204528Y-54535150D01*
X168153992Y-54701746D01*
X168136928Y-54875000D01*
X168136928Y-56125000D01*
X168153992Y-56298254D01*
X168204528Y-56464850D01*
X168286595Y-56618386D01*
X168397038Y-56752962D01*
X168531614Y-56863405D01*
X168685150Y-56945472D01*
X168851746Y-56996008D01*
X169025000Y-57013072D01*
X169748994Y-57013072D01*
X171225499Y-58489577D01*
X171101939Y-58465000D01*
X170898061Y-58465000D01*
X170748841Y-58494681D01*
X170688405Y-58381614D01*
X170577962Y-58247038D01*
X170443386Y-58136595D01*
X170289850Y-58054528D01*
X170123254Y-58003992D01*
X169950000Y-57986928D01*
X169025000Y-57986928D01*
X168851746Y-58003992D01*
X168685150Y-58054528D01*
X168531614Y-58136595D01*
X168397038Y-58247038D01*
X168286595Y-58381614D01*
X168204528Y-58535150D01*
X168153992Y-58701746D01*
X168136928Y-58875000D01*
X168136928Y-60125000D01*
X168153992Y-60298254D01*
X168204528Y-60464850D01*
X168286595Y-60618386D01*
X168397038Y-60752962D01*
X168531614Y-60863405D01*
X168685150Y-60945472D01*
X168851746Y-60996008D01*
X169025000Y-61013072D01*
X169950000Y-61013072D01*
X170123254Y-60996008D01*
X170289850Y-60945472D01*
X170443386Y-60863405D01*
X170577962Y-60752962D01*
X170688405Y-60618386D01*
X170748841Y-60505319D01*
X170898061Y-60535000D01*
X171101939Y-60535000D01*
X171301898Y-60495226D01*
X171490256Y-60417205D01*
X171659774Y-60303937D01*
X171803937Y-60159774D01*
X171917205Y-59990256D01*
X171995226Y-59801898D01*
X172035000Y-59601939D01*
X172035000Y-59398061D01*
X172010423Y-59274501D01*
X173782970Y-61047049D01*
X173810683Y-61080817D01*
X173844451Y-61108530D01*
X173844453Y-61108532D01*
X173945441Y-61191411D01*
X174099186Y-61273589D01*
X174266010Y-61324195D01*
X174396023Y-61337000D01*
X174396031Y-61337000D01*
X174439500Y-61341281D01*
X174482969Y-61337000D01*
X174629344Y-61337000D01*
X174670525Y-61398632D01*
X174877368Y-61605475D01*
X175051760Y-61722000D01*
X174877368Y-61838525D01*
X174670525Y-62045368D01*
X174508010Y-62288589D01*
X174396068Y-62558842D01*
X174339000Y-62845740D01*
X174339000Y-63138260D01*
X174396068Y-63425158D01*
X174508010Y-63695411D01*
X174670525Y-63938632D01*
X174877368Y-64145475D01*
X175051760Y-64262000D01*
X174877368Y-64378525D01*
X174670525Y-64585368D01*
X174508010Y-64828589D01*
X174396068Y-65098842D01*
X174339000Y-65385740D01*
X174339000Y-65678260D01*
X174396068Y-65965158D01*
X174508010Y-66235411D01*
X174670525Y-66478632D01*
X174877368Y-66685475D01*
X175051760Y-66802000D01*
X174877368Y-66918525D01*
X174670525Y-67125368D01*
X174508010Y-67368589D01*
X174396068Y-67638842D01*
X174339000Y-67925740D01*
X174339000Y-68218260D01*
X174396068Y-68505158D01*
X174508010Y-68775411D01*
X174670525Y-69018632D01*
X174877368Y-69225475D01*
X175051760Y-69342000D01*
X174877368Y-69458525D01*
X174670525Y-69665368D01*
X174508010Y-69908589D01*
X174396068Y-70178842D01*
X174339000Y-70465740D01*
X174339000Y-70758260D01*
X174396068Y-71045158D01*
X174508010Y-71315411D01*
X174670525Y-71558632D01*
X174877368Y-71765475D01*
X175051760Y-71882000D01*
X174877368Y-71998525D01*
X174670525Y-72205368D01*
X174508010Y-72448589D01*
X174396068Y-72718842D01*
X174339000Y-73005740D01*
X174339000Y-73298260D01*
X174396068Y-73585158D01*
X174508010Y-73855411D01*
X174670525Y-74098632D01*
X174877368Y-74305475D01*
X175051760Y-74422000D01*
X174877368Y-74538525D01*
X174670525Y-74745368D01*
X174508010Y-74988589D01*
X174396068Y-75258842D01*
X174339000Y-75545740D01*
X174339000Y-75838260D01*
X174396068Y-76125158D01*
X174508010Y-76395411D01*
X174670525Y-76638632D01*
X174877368Y-76845475D01*
X175051760Y-76962000D01*
X174877368Y-77078525D01*
X174670525Y-77285368D01*
X174508010Y-77528589D01*
X174396068Y-77798842D01*
X174339000Y-78085740D01*
X174339000Y-78378260D01*
X174353461Y-78450960D01*
X171562999Y-81241423D01*
X171562999Y-79035000D01*
X171629938Y-79035000D01*
X171829897Y-78995226D01*
X172018255Y-78917205D01*
X172187773Y-78803937D01*
X172331936Y-78659774D01*
X172445204Y-78490256D01*
X172523225Y-78301898D01*
X172562999Y-78101939D01*
X172562999Y-77898061D01*
X172523225Y-77698102D01*
X172445204Y-77509744D01*
X172385000Y-77419642D01*
X172385000Y-68530965D01*
X172389281Y-68487499D01*
X172385000Y-68444033D01*
X172385000Y-68444023D01*
X172372195Y-68314010D01*
X172321589Y-68147187D01*
X172239411Y-67993441D01*
X172183850Y-67925740D01*
X172156532Y-67892453D01*
X172156530Y-67892451D01*
X172128817Y-67858683D01*
X172095051Y-67830972D01*
X169277150Y-65013072D01*
X169950000Y-65013072D01*
X170123254Y-64996008D01*
X170289850Y-64945472D01*
X170443386Y-64863405D01*
X170577962Y-64752962D01*
X170688405Y-64618386D01*
X170748841Y-64505319D01*
X170898061Y-64535000D01*
X171101939Y-64535000D01*
X171301898Y-64495226D01*
X171490256Y-64417205D01*
X171659774Y-64303937D01*
X171803937Y-64159774D01*
X171917205Y-63990256D01*
X171995226Y-63801898D01*
X172035000Y-63601939D01*
X172035000Y-63398061D01*
X171995226Y-63198102D01*
X171917205Y-63009744D01*
X171803937Y-62840226D01*
X171659774Y-62696063D01*
X171490256Y-62582795D01*
X171301898Y-62504774D01*
X171101939Y-62465000D01*
X170898061Y-62465000D01*
X170748841Y-62494681D01*
X170688405Y-62381614D01*
X170577962Y-62247038D01*
X170443386Y-62136595D01*
X170289850Y-62054528D01*
X170123254Y-62003992D01*
X169950000Y-61986928D01*
X169025000Y-61986928D01*
X168851746Y-62003992D01*
X168685150Y-62054528D01*
X168531614Y-62136595D01*
X168397038Y-62247038D01*
X168286595Y-62381614D01*
X168204528Y-62535150D01*
X168153992Y-62701746D01*
X168136928Y-62875000D01*
X168136928Y-63872850D01*
X167863072Y-63598994D01*
X167863072Y-62875000D01*
X167846008Y-62701746D01*
X167795472Y-62535150D01*
X167713405Y-62381614D01*
X167602962Y-62247038D01*
X167468386Y-62136595D01*
X167397500Y-62098706D01*
X167397500Y-60901294D01*
X167468386Y-60863405D01*
X167602962Y-60752962D01*
X167713405Y-60618386D01*
X167795472Y-60464850D01*
X167846008Y-60298254D01*
X167863072Y-60125000D01*
X167863072Y-58875000D01*
X167846008Y-58701746D01*
X167795472Y-58535150D01*
X167713405Y-58381614D01*
X167602962Y-58247038D01*
X167468386Y-58136595D01*
X167314850Y-58054528D01*
X167148254Y-58003992D01*
X166975000Y-57986928D01*
X166050000Y-57986928D01*
X165876746Y-58003992D01*
X165710150Y-58054528D01*
X165556614Y-58136595D01*
X165422038Y-58247038D01*
X165311595Y-58381614D01*
X165229528Y-58535150D01*
X165178992Y-58701746D01*
X165161928Y-58875000D01*
X165161928Y-60125000D01*
X165178992Y-60298254D01*
X165229528Y-60464850D01*
X165311595Y-60618386D01*
X165422038Y-60752962D01*
X165556614Y-60863405D01*
X165627500Y-60901295D01*
X165627501Y-62098705D01*
X165556614Y-62136595D01*
X165422038Y-62247038D01*
X165311595Y-62381614D01*
X165229528Y-62535150D01*
X165178992Y-62701746D01*
X165161928Y-62875000D01*
X165161928Y-64125000D01*
X165178992Y-64298254D01*
X165229528Y-64464850D01*
X165311595Y-64618386D01*
X165422038Y-64752962D01*
X165556614Y-64863405D01*
X165710150Y-64945472D01*
X165876746Y-64996008D01*
X166050000Y-65013072D01*
X166773994Y-65013072D01*
X170615000Y-68854079D01*
X170615001Y-74311422D01*
X162054539Y-65750961D01*
X162069000Y-65678260D01*
X162069000Y-65385740D01*
X162011932Y-65098842D01*
X161899990Y-64828589D01*
X161737475Y-64585368D01*
X161530632Y-64378525D01*
X161356240Y-64262000D01*
X161530632Y-64145475D01*
X161737475Y-63938632D01*
X161899990Y-63695411D01*
X162011932Y-63425158D01*
X162069000Y-63138260D01*
X162069000Y-62845740D01*
X162011932Y-62558842D01*
X161899990Y-62288589D01*
X161737475Y-62045368D01*
X161530632Y-61838525D01*
X161356240Y-61722000D01*
X161530632Y-61605475D01*
X161737475Y-61398632D01*
X161899990Y-61155411D01*
X162011932Y-60885158D01*
X162069000Y-60598260D01*
X162069000Y-60305740D01*
X162011932Y-60018842D01*
X161899990Y-59748589D01*
X161737475Y-59505368D01*
X161530632Y-59298525D01*
X161356240Y-59182000D01*
X161530632Y-59065475D01*
X161737475Y-58858632D01*
X161899990Y-58615411D01*
X162011932Y-58345158D01*
X162069000Y-58058260D01*
X162069000Y-57765740D01*
X162011932Y-57478842D01*
X161899990Y-57208589D01*
X161737475Y-56965368D01*
X161530632Y-56758525D01*
X161356240Y-56642000D01*
X161530632Y-56525475D01*
X161737475Y-56318632D01*
X161899990Y-56075411D01*
X162011932Y-55805158D01*
X162069000Y-55518260D01*
X162069000Y-55225740D01*
X162011932Y-54938842D01*
X161899990Y-54668589D01*
X161737475Y-54425368D01*
X161605620Y-54293513D01*
X161678180Y-54271502D01*
X161788494Y-54212537D01*
X161885185Y-54133185D01*
X161964537Y-54036494D01*
X162023502Y-53926180D01*
X162059812Y-53806482D01*
X162072072Y-53682000D01*
X162072072Y-51982000D01*
X162059812Y-51857518D01*
X162023502Y-51737820D01*
X161964537Y-51627506D01*
X161885185Y-51530815D01*
X161788494Y-51451463D01*
X161678180Y-51392498D01*
X161653462Y-51385000D01*
X165627501Y-51385000D01*
X165627500Y-54098705D01*
X165556614Y-54136595D01*
X165422038Y-54247038D01*
X165311595Y-54381614D01*
X165229528Y-54535150D01*
X165178992Y-54701746D01*
X165161928Y-54875000D01*
X165161928Y-56125000D01*
X165178992Y-56298254D01*
X165229528Y-56464850D01*
X165311595Y-56618386D01*
X165422038Y-56752962D01*
X165556614Y-56863405D01*
X165710150Y-56945472D01*
X165876746Y-56996008D01*
X166050000Y-57013072D01*
X166975000Y-57013072D01*
X167148254Y-56996008D01*
X167314850Y-56945472D01*
X167468386Y-56863405D01*
X167602962Y-56752962D01*
X167713405Y-56618386D01*
X167795472Y-56464850D01*
X167846008Y-56298254D01*
X167863072Y-56125000D01*
X167863072Y-54875000D01*
X167846008Y-54701746D01*
X167795472Y-54535150D01*
X167713405Y-54381614D01*
X167602962Y-54247038D01*
X167468386Y-54136595D01*
X167397500Y-54098706D01*
X167397500Y-51055965D01*
X167401781Y-51012499D01*
X167397500Y-50969033D01*
X167397500Y-50969023D01*
X167384695Y-50839010D01*
X167334089Y-50672187D01*
X167251911Y-50518441D01*
X167141317Y-50383683D01*
X167107544Y-50355966D01*
X166656534Y-49904956D01*
X166628817Y-49871183D01*
X166494059Y-49760589D01*
X166340313Y-49678411D01*
X166173490Y-49627805D01*
X166165317Y-49627000D01*
X184195367Y-49627000D01*
X183790109Y-49707611D01*
X183327859Y-49899081D01*
X182911844Y-50177053D01*
X182558053Y-50530844D01*
X182280081Y-50946859D01*
X182088611Y-51409109D01*
X181991000Y-51899832D01*
X181991000Y-52400168D01*
X182088611Y-52890891D01*
X182280081Y-53353141D01*
X182558053Y-53769156D01*
X182911844Y-54122947D01*
X183327859Y-54400919D01*
X183790109Y-54592389D01*
X184280832Y-54690000D01*
X184781168Y-54690000D01*
X185271891Y-54592389D01*
X185423691Y-54529512D01*
X185385731Y-54621154D01*
X185293000Y-55087340D01*
X185293000Y-55562660D01*
X185385731Y-56028846D01*
X185423691Y-56120488D01*
X185271891Y-56057611D01*
X184781168Y-55960000D01*
X184280832Y-55960000D01*
X183790109Y-56057611D01*
X183327859Y-56249081D01*
X182911844Y-56527053D01*
X182558053Y-56880844D01*
X182280081Y-57296859D01*
X182088611Y-57759109D01*
X181991000Y-58249832D01*
X181991000Y-58750168D01*
X182088611Y-59240891D01*
X182280081Y-59703141D01*
X182558053Y-60119156D01*
X182911844Y-60472947D01*
X183327859Y-60750919D01*
X183790109Y-60942389D01*
X184280832Y-61040000D01*
X184781168Y-61040000D01*
X185271891Y-60942389D01*
X185734141Y-60750919D01*
X186150156Y-60472947D01*
X186503947Y-60119156D01*
X186781919Y-59703141D01*
X186973389Y-59240891D01*
X187071000Y-58750168D01*
X187071000Y-58249832D01*
X186973389Y-57759109D01*
X186910512Y-57607309D01*
X187002154Y-57645269D01*
X187468340Y-57738000D01*
X187943660Y-57738000D01*
X188409846Y-57645269D01*
X188501488Y-57607309D01*
X188438611Y-57759109D01*
X188341000Y-58249832D01*
X188341000Y-58750168D01*
X188438611Y-59240891D01*
X188630081Y-59703141D01*
X188908053Y-60119156D01*
X189261844Y-60472947D01*
X189677859Y-60750919D01*
X190140109Y-60942389D01*
X190630832Y-61040000D01*
X191131168Y-61040000D01*
X191621891Y-60942389D01*
X192084141Y-60750919D01*
X192500156Y-60472947D01*
X192853947Y-60119156D01*
X193131919Y-59703141D01*
X193323389Y-59240891D01*
X193421000Y-58750168D01*
X193421000Y-58249832D01*
X193323389Y-57759109D01*
X193131919Y-57296859D01*
X192853947Y-56880844D01*
X192500156Y-56527053D01*
X192084141Y-56249081D01*
X191621891Y-56057611D01*
X191131168Y-55960000D01*
X190630832Y-55960000D01*
X190140109Y-56057611D01*
X189988309Y-56120488D01*
X190026269Y-56028846D01*
X190119000Y-55562660D01*
X190119000Y-55087340D01*
X190026269Y-54621154D01*
X189988309Y-54529512D01*
X190140109Y-54592389D01*
X190630832Y-54690000D01*
X191131168Y-54690000D01*
X191621891Y-54592389D01*
X192084141Y-54400919D01*
X192500156Y-54122947D01*
X192853947Y-53769156D01*
X193131919Y-53353141D01*
X193323389Y-52890891D01*
X193421000Y-52400168D01*
X193421000Y-51899832D01*
X193323389Y-51409109D01*
X193131919Y-50946859D01*
X192853947Y-50530844D01*
X192500156Y-50177053D01*
X192084141Y-49899081D01*
X191621891Y-49707611D01*
X191216633Y-49627000D01*
X194868985Y-49627000D01*
X194790042Y-116464699D01*
X194790000Y-116465124D01*
X194790000Y-116500000D01*
X194789960Y-116534038D01*
X194790000Y-116534449D01*
X194790001Y-120790000D01*
X191596659Y-120790000D01*
X192053141Y-120600919D01*
X192469156Y-120322947D01*
X192822947Y-119969156D01*
X193100919Y-119553141D01*
X193292389Y-119090891D01*
X193390000Y-118600168D01*
X193390000Y-118099832D01*
X193292389Y-117609109D01*
X193100919Y-117146859D01*
X192822947Y-116730844D01*
X192469156Y-116377053D01*
X192053141Y-116099081D01*
X191590891Y-115907611D01*
X191100168Y-115810000D01*
X190599832Y-115810000D01*
X190109109Y-115907611D01*
X189957309Y-115970488D01*
X189995269Y-115878846D01*
X190088000Y-115412660D01*
X190088000Y-114937340D01*
X189995269Y-114471154D01*
X189957309Y-114379512D01*
X190109109Y-114442389D01*
X190599832Y-114540000D01*
X191100168Y-114540000D01*
X191590891Y-114442389D01*
X192053141Y-114250919D01*
X192469156Y-113972947D01*
X192822947Y-113619156D01*
X193100919Y-113203141D01*
X193292389Y-112740891D01*
X193390000Y-112250168D01*
X193390000Y-111749832D01*
X193292389Y-111259109D01*
X193100919Y-110796859D01*
X192822947Y-110380844D01*
X192469156Y-110027053D01*
X192053141Y-109749081D01*
X191590891Y-109557611D01*
X191100168Y-109460000D01*
X190599832Y-109460000D01*
X190109109Y-109557611D01*
X189646859Y-109749081D01*
X189230844Y-110027053D01*
X188877053Y-110380844D01*
X188599081Y-110796859D01*
X188407611Y-111259109D01*
X188310000Y-111749832D01*
X188310000Y-112250168D01*
X188407611Y-112740891D01*
X188470488Y-112892691D01*
X188378846Y-112854731D01*
X187912660Y-112762000D01*
X187437340Y-112762000D01*
X186971154Y-112854731D01*
X186879512Y-112892691D01*
X186942389Y-112740891D01*
X187040000Y-112250168D01*
X187040000Y-111749832D01*
X186942389Y-111259109D01*
X186750919Y-110796859D01*
X186472947Y-110380844D01*
X186119156Y-110027053D01*
X185703141Y-109749081D01*
X185240891Y-109557611D01*
X184750168Y-109460000D01*
X184249832Y-109460000D01*
X183759109Y-109557611D01*
X183296859Y-109749081D01*
X182880844Y-110027053D01*
X182527053Y-110380844D01*
X182249081Y-110796859D01*
X182057611Y-111259109D01*
X181960000Y-111749832D01*
X181960000Y-112250168D01*
X182057611Y-112740891D01*
X182249081Y-113203141D01*
X182527053Y-113619156D01*
X182880844Y-113972947D01*
X183296859Y-114250919D01*
X183759109Y-114442389D01*
X184249832Y-114540000D01*
X184750168Y-114540000D01*
X185240891Y-114442389D01*
X185392691Y-114379512D01*
X185354731Y-114471154D01*
X185262000Y-114937340D01*
X185262000Y-115412660D01*
X185354731Y-115878846D01*
X185392691Y-115970488D01*
X185240891Y-115907611D01*
X184750168Y-115810000D01*
X184249832Y-115810000D01*
X183759109Y-115907611D01*
X183296859Y-116099081D01*
X182880844Y-116377053D01*
X182527053Y-116730844D01*
X182249081Y-117146859D01*
X182057611Y-117609109D01*
X181960000Y-118099832D01*
X181960000Y-118600168D01*
X182057611Y-119090891D01*
X182249081Y-119553141D01*
X182527053Y-119969156D01*
X182880844Y-120322947D01*
X183296859Y-120600919D01*
X183753341Y-120790000D01*
X151686453Y-120790000D01*
X152046738Y-120429715D01*
X152335107Y-119998141D01*
X152533739Y-119518601D01*
X152635000Y-119009525D01*
X152635000Y-118490475D01*
X152533739Y-117981399D01*
X152335107Y-117501859D01*
X152046738Y-117070285D01*
X151726453Y-116750000D01*
X159611928Y-116750000D01*
X159611928Y-118250000D01*
X159638599Y-118520799D01*
X159717589Y-118781192D01*
X159845860Y-119021171D01*
X160018485Y-119231515D01*
X160228829Y-119404140D01*
X160468808Y-119532411D01*
X160729201Y-119611401D01*
X161000000Y-119638072D01*
X163000000Y-119638072D01*
X163270799Y-119611401D01*
X163531192Y-119532411D01*
X163771171Y-119404140D01*
X163981515Y-119231515D01*
X164154140Y-119021171D01*
X164282411Y-118781192D01*
X164361401Y-118520799D01*
X164388072Y-118250000D01*
X164388072Y-116750000D01*
X164361401Y-116479201D01*
X164282411Y-116218808D01*
X164154140Y-115978829D01*
X163981515Y-115768485D01*
X163771171Y-115595860D01*
X163531192Y-115467589D01*
X163270799Y-115388599D01*
X163000000Y-115361928D01*
X161000000Y-115361928D01*
X160729201Y-115388599D01*
X160468808Y-115467589D01*
X160228829Y-115595860D01*
X160018485Y-115768485D01*
X159845860Y-115978829D01*
X159717589Y-116218808D01*
X159638599Y-116479201D01*
X159611928Y-116750000D01*
X151726453Y-116750000D01*
X151679715Y-116703262D01*
X151248141Y-116414893D01*
X150768601Y-116216261D01*
X150259525Y-116115000D01*
X149740475Y-116115000D01*
X149231399Y-116216261D01*
X148751859Y-116414893D01*
X148320285Y-116703262D01*
X147953262Y-117070285D01*
X147664893Y-117501859D01*
X147466261Y-117981399D01*
X147365000Y-118490475D01*
X147365000Y-119009525D01*
X147466261Y-119518601D01*
X147664893Y-119998141D01*
X147953262Y-120429715D01*
X148313547Y-120790000D01*
X141210000Y-120790000D01*
X141210000Y-117564080D01*
X141615525Y-117564080D01*
X141699208Y-117818261D01*
X141971775Y-117949158D01*
X142264642Y-118024365D01*
X142566553Y-118040991D01*
X142865907Y-117998397D01*
X143151199Y-117898222D01*
X143300792Y-117818261D01*
X143384475Y-117564080D01*
X142500000Y-116679605D01*
X141615525Y-117564080D01*
X141210000Y-117564080D01*
X141210000Y-117310096D01*
X141435920Y-117384475D01*
X142320395Y-116500000D01*
X142679605Y-116500000D01*
X143564080Y-117384475D01*
X143818261Y-117300792D01*
X143949158Y-117028225D01*
X144024365Y-116735358D01*
X144040991Y-116433447D01*
X143998397Y-116134093D01*
X143898222Y-115848801D01*
X143818261Y-115699208D01*
X143564080Y-115615525D01*
X142679605Y-116500000D01*
X142320395Y-116500000D01*
X141435920Y-115615525D01*
X141210000Y-115689904D01*
X141210000Y-114832305D01*
X141307688Y-114978505D01*
X141521495Y-115192312D01*
X141664310Y-115287738D01*
X141615525Y-115435920D01*
X142500000Y-116320395D01*
X143384475Y-115435920D01*
X143335690Y-115287738D01*
X143478505Y-115192312D01*
X143692312Y-114978505D01*
X143754790Y-114885000D01*
X149461546Y-114885000D01*
X149509744Y-114917205D01*
X149698102Y-114995226D01*
X149898061Y-115035000D01*
X150101939Y-115035000D01*
X150301898Y-114995226D01*
X150490256Y-114917205D01*
X150659774Y-114803937D01*
X150803937Y-114659774D01*
X150917205Y-114490256D01*
X150995226Y-114301898D01*
X151035000Y-114101939D01*
X151035000Y-113898061D01*
X150995226Y-113698102D01*
X150917205Y-113509744D01*
X150803937Y-113340226D01*
X150659774Y-113196063D01*
X150490256Y-113082795D01*
X150301898Y-113004774D01*
X150101939Y-112965000D01*
X149898061Y-112965000D01*
X149698102Y-113004774D01*
X149509744Y-113082795D01*
X149461546Y-113115000D01*
X143754790Y-113115000D01*
X143692312Y-113021495D01*
X143478505Y-112807688D01*
X143392169Y-112750000D01*
X143478505Y-112692312D01*
X143692312Y-112478505D01*
X143860299Y-112227095D01*
X143976011Y-111947743D01*
X144035000Y-111651184D01*
X144035000Y-111348816D01*
X143976011Y-111052257D01*
X143860299Y-110772905D01*
X143692312Y-110521495D01*
X143478505Y-110307688D01*
X143227095Y-110139701D01*
X142947743Y-110023989D01*
X142651184Y-109965000D01*
X142348816Y-109965000D01*
X142052257Y-110023989D01*
X141772905Y-110139701D01*
X141521495Y-110307688D01*
X141307688Y-110521495D01*
X141210000Y-110667695D01*
X141210000Y-108990475D01*
X147365000Y-108990475D01*
X147365000Y-109509525D01*
X147466261Y-110018601D01*
X147664893Y-110498141D01*
X147953262Y-110929715D01*
X148320285Y-111296738D01*
X148751859Y-111585107D01*
X149231399Y-111783739D01*
X149740475Y-111885000D01*
X150259525Y-111885000D01*
X150768601Y-111783739D01*
X151248141Y-111585107D01*
X151679715Y-111296738D01*
X152046738Y-110929715D01*
X152335107Y-110498141D01*
X152533739Y-110018601D01*
X152635000Y-109509525D01*
X152635000Y-108990475D01*
X152533739Y-108481399D01*
X152335107Y-108001859D01*
X152046738Y-107570285D01*
X151679715Y-107203262D01*
X151248141Y-106914893D01*
X150768601Y-106716261D01*
X150259525Y-106615000D01*
X149740475Y-106615000D01*
X149231399Y-106716261D01*
X148751859Y-106914893D01*
X148320285Y-107203262D01*
X147953262Y-107570285D01*
X147664893Y-108001859D01*
X147466261Y-108481399D01*
X147365000Y-108990475D01*
X141210000Y-108990475D01*
X141210000Y-100990475D01*
X147287000Y-100990475D01*
X147287000Y-101509525D01*
X147388261Y-102018601D01*
X147586893Y-102498141D01*
X147875262Y-102929715D01*
X148242285Y-103296738D01*
X148673859Y-103585107D01*
X149153399Y-103783739D01*
X149662475Y-103885000D01*
X150181525Y-103885000D01*
X150690601Y-103783739D01*
X151170141Y-103585107D01*
X151601715Y-103296738D01*
X151968738Y-102929715D01*
X152257107Y-102498141D01*
X152455739Y-102018601D01*
X152557000Y-101509525D01*
X152557000Y-100990475D01*
X152455739Y-100481399D01*
X152257107Y-100001859D01*
X151968738Y-99570285D01*
X151601715Y-99203262D01*
X151170141Y-98914893D01*
X150690601Y-98716261D01*
X150181525Y-98615000D01*
X149662475Y-98615000D01*
X149153399Y-98716261D01*
X148673859Y-98914893D01*
X148242285Y-99203262D01*
X147875262Y-99570285D01*
X147586893Y-100001859D01*
X147388261Y-100481399D01*
X147287000Y-100990475D01*
X141210000Y-100990475D01*
X141210000Y-100064080D01*
X141537525Y-100064080D01*
X141621208Y-100318261D01*
X141893775Y-100449158D01*
X142186642Y-100524365D01*
X142488553Y-100540991D01*
X142787907Y-100498397D01*
X143073199Y-100398222D01*
X143222792Y-100318261D01*
X143306475Y-100064080D01*
X142422000Y-99179605D01*
X141537525Y-100064080D01*
X141210000Y-100064080D01*
X141210000Y-99835776D01*
X141357920Y-99884475D01*
X142242395Y-99000000D01*
X142601605Y-99000000D01*
X143486080Y-99884475D01*
X143740261Y-99800792D01*
X143871158Y-99528225D01*
X143946365Y-99235358D01*
X143962991Y-98933447D01*
X143920397Y-98634093D01*
X143820222Y-98348801D01*
X143740261Y-98199208D01*
X143486080Y-98115525D01*
X142601605Y-99000000D01*
X142242395Y-99000000D01*
X141357920Y-98115525D01*
X141210000Y-98164224D01*
X141210000Y-97449040D01*
X141229688Y-97478505D01*
X141443495Y-97692312D01*
X141586310Y-97787738D01*
X141537525Y-97935920D01*
X142422000Y-98820395D01*
X143306475Y-97935920D01*
X143257690Y-97787738D01*
X143400505Y-97692312D01*
X143614312Y-97478505D01*
X143782299Y-97227095D01*
X143898011Y-96947743D01*
X143957000Y-96651184D01*
X143957000Y-96348816D01*
X143935060Y-96238518D01*
X145095049Y-95078530D01*
X145128817Y-95050817D01*
X145188163Y-94978505D01*
X145239411Y-94916059D01*
X145257289Y-94882611D01*
X145321589Y-94762313D01*
X145372195Y-94595490D01*
X145385000Y-94465477D01*
X145385000Y-94465469D01*
X145389281Y-94422000D01*
X145385000Y-94378531D01*
X145385000Y-93912576D01*
X147287174Y-92010402D01*
X147388261Y-92518601D01*
X147586893Y-92998141D01*
X147875262Y-93429715D01*
X148242285Y-93796738D01*
X148673859Y-94085107D01*
X149153399Y-94283739D01*
X149662475Y-94385000D01*
X150181525Y-94385000D01*
X150690601Y-94283739D01*
X151170141Y-94085107D01*
X151601715Y-93796738D01*
X151968738Y-93429715D01*
X152257107Y-92998141D01*
X152455739Y-92518601D01*
X152557000Y-92009525D01*
X152557000Y-91490475D01*
X152455739Y-90981399D01*
X152257107Y-90501859D01*
X151968738Y-90070285D01*
X151601715Y-89703262D01*
X151170141Y-89414893D01*
X151061231Y-89369781D01*
X151159774Y-89303937D01*
X151303937Y-89159774D01*
X151417205Y-88990256D01*
X151495226Y-88801898D01*
X151535000Y-88601939D01*
X151535000Y-88398061D01*
X151495226Y-88198102D01*
X151417205Y-88009744D01*
X151303937Y-87840226D01*
X151159774Y-87696063D01*
X150990256Y-87582795D01*
X150801898Y-87504774D01*
X150601939Y-87465000D01*
X150398061Y-87465000D01*
X150198102Y-87504774D01*
X150009744Y-87582795D01*
X149961546Y-87615000D01*
X149589467Y-87615000D01*
X149545998Y-87610719D01*
X149502529Y-87615000D01*
X149502521Y-87615000D01*
X149372508Y-87627805D01*
X149205685Y-87678411D01*
X149068175Y-87751911D01*
X149051939Y-87760589D01*
X148950951Y-87843468D01*
X148950949Y-87843470D01*
X148917181Y-87871183D01*
X148889468Y-87904951D01*
X143904956Y-92889464D01*
X143871183Y-92917181D01*
X143760589Y-93051940D01*
X143704620Y-93156651D01*
X143614312Y-93021495D01*
X143400505Y-92807688D01*
X143149095Y-92639701D01*
X142869743Y-92523989D01*
X142573184Y-92465000D01*
X142270816Y-92465000D01*
X141974257Y-92523989D01*
X141694905Y-92639701D01*
X141443495Y-92807688D01*
X141229688Y-93021495D01*
X141210000Y-93050960D01*
X141210000Y-83490475D01*
X147365000Y-83490475D01*
X147365000Y-84009525D01*
X147466261Y-84518601D01*
X147664893Y-84998141D01*
X147953262Y-85429715D01*
X148320285Y-85796738D01*
X148751859Y-86085107D01*
X149231399Y-86283739D01*
X149740475Y-86385000D01*
X150259525Y-86385000D01*
X150768601Y-86283739D01*
X151248141Y-86085107D01*
X151679715Y-85796738D01*
X152046738Y-85429715D01*
X152335107Y-84998141D01*
X152533739Y-84518601D01*
X152635000Y-84009525D01*
X152635000Y-83490475D01*
X152533739Y-82981399D01*
X152335107Y-82501859D01*
X152046738Y-82070285D01*
X151679715Y-81703262D01*
X151248141Y-81414893D01*
X150768601Y-81216261D01*
X150259525Y-81115000D01*
X149740475Y-81115000D01*
X149231399Y-81216261D01*
X148751859Y-81414893D01*
X148320285Y-81703262D01*
X147953262Y-82070285D01*
X147664893Y-82501859D01*
X147466261Y-82981399D01*
X147365000Y-83490475D01*
X141210000Y-83490475D01*
X141210000Y-82564080D01*
X141615525Y-82564080D01*
X141699208Y-82818261D01*
X141971775Y-82949158D01*
X142264642Y-83024365D01*
X142566553Y-83040991D01*
X142865907Y-82998397D01*
X143151199Y-82898222D01*
X143300792Y-82818261D01*
X143384475Y-82564080D01*
X142500000Y-81679605D01*
X141615525Y-82564080D01*
X141210000Y-82564080D01*
X141210000Y-82310096D01*
X141435920Y-82384475D01*
X142320395Y-81500000D01*
X142679605Y-81500000D01*
X143564080Y-82384475D01*
X143818261Y-82300792D01*
X143949158Y-82028225D01*
X144024365Y-81735358D01*
X144040991Y-81433447D01*
X143998397Y-81134093D01*
X143898222Y-80848801D01*
X143818261Y-80699208D01*
X143564080Y-80615525D01*
X142679605Y-81500000D01*
X142320395Y-81500000D01*
X141435920Y-80615525D01*
X141210000Y-80689904D01*
X141210000Y-79832305D01*
X141307688Y-79978505D01*
X141521495Y-80192312D01*
X141664310Y-80287738D01*
X141615525Y-80435920D01*
X142500000Y-81320395D01*
X143384475Y-80435920D01*
X143335690Y-80287738D01*
X143478505Y-80192312D01*
X143692312Y-79978505D01*
X143754790Y-79885000D01*
X150961546Y-79885000D01*
X151009744Y-79917205D01*
X151198102Y-79995226D01*
X151398061Y-80035000D01*
X151601939Y-80035000D01*
X151801898Y-79995226D01*
X151990256Y-79917205D01*
X152159774Y-79803937D01*
X152303937Y-79659774D01*
X152417205Y-79490256D01*
X152495226Y-79301898D01*
X152535000Y-79101939D01*
X152535000Y-78898061D01*
X152495226Y-78698102D01*
X152417205Y-78509744D01*
X152303937Y-78340226D01*
X152159774Y-78196063D01*
X151990256Y-78082795D01*
X151801898Y-78004774D01*
X151601939Y-77965000D01*
X151398061Y-77965000D01*
X151198102Y-78004774D01*
X151009744Y-78082795D01*
X150961546Y-78115000D01*
X143754790Y-78115000D01*
X143692312Y-78021495D01*
X143478505Y-77807688D01*
X143392169Y-77750000D01*
X143478505Y-77692312D01*
X143692312Y-77478505D01*
X143860299Y-77227095D01*
X143976011Y-76947743D01*
X144035000Y-76651184D01*
X144035000Y-76348816D01*
X143976011Y-76052257D01*
X143860299Y-75772905D01*
X143692312Y-75521495D01*
X143478505Y-75307688D01*
X143227095Y-75139701D01*
X142947743Y-75023989D01*
X142651184Y-74965000D01*
X142348816Y-74965000D01*
X142052257Y-75023989D01*
X141772905Y-75139701D01*
X141521495Y-75307688D01*
X141307688Y-75521495D01*
X141210000Y-75667695D01*
X141210000Y-64810096D01*
X141435920Y-64884475D01*
X142320395Y-64000000D01*
X141435920Y-63115525D01*
X141210000Y-63189904D01*
X141210000Y-62332305D01*
X141307688Y-62478505D01*
X141521495Y-62692312D01*
X141664310Y-62787738D01*
X141615525Y-62935920D01*
X142500000Y-63820395D01*
X142514143Y-63806253D01*
X142693748Y-63985858D01*
X142679605Y-64000000D01*
X142693748Y-64014143D01*
X142514143Y-64193748D01*
X142500000Y-64179605D01*
X141615525Y-65064080D01*
X141699208Y-65318261D01*
X141971775Y-65449158D01*
X142264642Y-65524365D01*
X142566553Y-65540991D01*
X142865907Y-65498397D01*
X142971677Y-65461258D01*
X142975335Y-65498397D01*
X142977806Y-65523491D01*
X142983115Y-65540991D01*
X143028412Y-65690313D01*
X143110590Y-65844059D01*
X143221184Y-65978818D01*
X143254957Y-66006535D01*
X148493465Y-71245044D01*
X148504774Y-71301898D01*
X148582795Y-71490256D01*
X148696063Y-71659774D01*
X148840226Y-71803937D01*
X148908919Y-71849836D01*
X148751859Y-71914893D01*
X148320285Y-72203262D01*
X147953262Y-72570285D01*
X147664893Y-73001859D01*
X147466261Y-73481399D01*
X147365000Y-73990475D01*
X147365000Y-74509525D01*
X147466261Y-75018601D01*
X147664893Y-75498141D01*
X147953262Y-75929715D01*
X148320285Y-76296738D01*
X148751859Y-76585107D01*
X149231399Y-76783739D01*
X149740475Y-76885000D01*
X150259525Y-76885000D01*
X150768601Y-76783739D01*
X151248141Y-76585107D01*
X151679715Y-76296738D01*
X152046738Y-75929715D01*
X152335107Y-75498141D01*
X152533739Y-75018601D01*
X152635000Y-74509525D01*
X152635000Y-73990475D01*
X152533739Y-73481399D01*
X152335107Y-73001859D01*
X152046738Y-72570285D01*
X151679715Y-72203262D01*
X151248141Y-71914893D01*
X150768601Y-71716261D01*
X150325134Y-71628050D01*
X150417205Y-71490256D01*
X150495226Y-71301898D01*
X150535000Y-71101939D01*
X150535000Y-70898061D01*
X150495226Y-70698102D01*
X150417205Y-70509744D01*
X150303937Y-70340226D01*
X150159774Y-70196063D01*
X149990256Y-70082795D01*
X149801898Y-70004774D01*
X149745044Y-69993465D01*
X145742054Y-65990475D01*
X147365000Y-65990475D01*
X147365000Y-66509525D01*
X147466261Y-67018601D01*
X147664893Y-67498141D01*
X147953262Y-67929715D01*
X148320285Y-68296738D01*
X148751859Y-68585107D01*
X149231399Y-68783739D01*
X149740475Y-68885000D01*
X150259525Y-68885000D01*
X150768601Y-68783739D01*
X151248141Y-68585107D01*
X151679715Y-68296738D01*
X152046738Y-67929715D01*
X152335107Y-67498141D01*
X152533739Y-67018601D01*
X152635000Y-66509525D01*
X152635000Y-65990475D01*
X152533739Y-65481399D01*
X152335107Y-65001859D01*
X152046738Y-64570285D01*
X151679715Y-64203262D01*
X151248141Y-63914893D01*
X150768601Y-63716261D01*
X150259525Y-63615000D01*
X149740475Y-63615000D01*
X149231399Y-63716261D01*
X148751859Y-63914893D01*
X148320285Y-64203262D01*
X147953262Y-64570285D01*
X147664893Y-65001859D01*
X147466261Y-65481399D01*
X147365000Y-65990475D01*
X145742054Y-65990475D01*
X144735001Y-64983423D01*
X144735001Y-62893470D01*
X144739282Y-62850001D01*
X144735001Y-62806532D01*
X144735001Y-62806524D01*
X144722196Y-62676511D01*
X144671590Y-62509688D01*
X144589412Y-62355942D01*
X144506533Y-62254954D01*
X144506531Y-62254952D01*
X144478818Y-62221184D01*
X144445050Y-62193471D01*
X144013060Y-61761482D01*
X144035000Y-61651184D01*
X144035000Y-61348816D01*
X143976011Y-61052257D01*
X143860299Y-60772905D01*
X143692312Y-60521495D01*
X143478505Y-60307688D01*
X143392169Y-60250000D01*
X143478505Y-60192312D01*
X143692312Y-59978505D01*
X143860299Y-59727095D01*
X143976011Y-59447743D01*
X144035000Y-59151184D01*
X144035000Y-58848816D01*
X143976011Y-58552257D01*
X143860299Y-58272905D01*
X143692312Y-58021495D01*
X143478505Y-57807688D01*
X143227095Y-57639701D01*
X142947743Y-57523989D01*
X142651184Y-57465000D01*
X142348816Y-57465000D01*
X142052257Y-57523989D01*
X141772905Y-57639701D01*
X141521495Y-57807688D01*
X141307688Y-58021495D01*
X141210000Y-58167695D01*
X141210000Y-56490475D01*
X147365000Y-56490475D01*
X147365000Y-57009525D01*
X147466261Y-57518601D01*
X147664893Y-57998141D01*
X147953262Y-58429715D01*
X148320285Y-58796738D01*
X148751859Y-59085107D01*
X149231399Y-59283739D01*
X149740475Y-59385000D01*
X150259525Y-59385000D01*
X150768601Y-59283739D01*
X151248141Y-59085107D01*
X151679715Y-58796738D01*
X152046738Y-58429715D01*
X152335107Y-57998141D01*
X152533739Y-57518601D01*
X152635000Y-57009525D01*
X152635000Y-56490475D01*
X152533739Y-55981399D01*
X152335107Y-55501859D01*
X152046738Y-55070285D01*
X151679715Y-54703262D01*
X151248141Y-54414893D01*
X150768601Y-54216261D01*
X150259525Y-54115000D01*
X149740475Y-54115000D01*
X149231399Y-54216261D01*
X148751859Y-54414893D01*
X148320285Y-54703262D01*
X147953262Y-55070285D01*
X147664893Y-55501859D01*
X147466261Y-55981399D01*
X147365000Y-56490475D01*
X141210000Y-56490475D01*
X141210000Y-52398061D01*
X149465000Y-52398061D01*
X149465000Y-52601939D01*
X149504774Y-52801898D01*
X149582795Y-52990256D01*
X149696063Y-53159774D01*
X149840226Y-53303937D01*
X150009744Y-53417205D01*
X150198102Y-53495226D01*
X150398061Y-53535000D01*
X150601939Y-53535000D01*
X150801898Y-53495226D01*
X150990256Y-53417205D01*
X151159774Y-53303937D01*
X151197070Y-53266641D01*
X151242028Y-53414850D01*
X151324095Y-53568386D01*
X151434538Y-53702962D01*
X151569114Y-53813405D01*
X151722650Y-53895472D01*
X151889246Y-53946008D01*
X152062500Y-53963072D01*
X152987500Y-53963072D01*
X153160754Y-53946008D01*
X153327350Y-53895472D01*
X153480886Y-53813405D01*
X153615462Y-53702962D01*
X153725905Y-53568386D01*
X153807972Y-53414850D01*
X153858508Y-53248254D01*
X153875572Y-53075000D01*
X153875572Y-50925000D01*
X153858508Y-50751746D01*
X153807972Y-50585150D01*
X153725905Y-50431614D01*
X153615462Y-50297038D01*
X153480886Y-50186595D01*
X153327350Y-50104528D01*
X153160754Y-50053992D01*
X152987500Y-50036928D01*
X152062500Y-50036928D01*
X151889246Y-50053992D01*
X151722650Y-50104528D01*
X151569114Y-50186595D01*
X151434538Y-50297038D01*
X151324095Y-50431614D01*
X151242028Y-50585150D01*
X151191492Y-50751746D01*
X151174428Y-50925000D01*
X151174428Y-51115000D01*
X151043469Y-51115000D01*
X151000000Y-51110719D01*
X150956531Y-51115000D01*
X150956523Y-51115000D01*
X150826510Y-51127805D01*
X150659687Y-51178411D01*
X150505941Y-51260589D01*
X150371183Y-51371183D01*
X150343468Y-51404954D01*
X150254957Y-51493465D01*
X150198102Y-51504774D01*
X150009744Y-51582795D01*
X149840226Y-51696063D01*
X149696063Y-51840226D01*
X149582795Y-52009744D01*
X149504774Y-52198102D01*
X149465000Y-52398061D01*
X141210000Y-52398061D01*
X141210000Y-49627000D01*
X156834683Y-49627000D01*
X156826510Y-49627805D01*
G37*
X156826510Y-49627805D02*
X156659687Y-49678411D01*
X156505941Y-49760589D01*
X156505939Y-49760590D01*
X156505940Y-49760590D01*
X156404953Y-49843468D01*
X156404951Y-49843470D01*
X156371183Y-49871183D01*
X156343470Y-49904951D01*
X156180773Y-50067648D01*
X156135754Y-50053992D01*
X155962500Y-50036928D01*
X155037500Y-50036928D01*
X154864246Y-50053992D01*
X154697650Y-50104528D01*
X154544114Y-50186595D01*
X154409538Y-50297038D01*
X154299095Y-50431614D01*
X154217028Y-50585150D01*
X154166492Y-50751746D01*
X154149428Y-50925000D01*
X154149428Y-53075000D01*
X154166492Y-53248254D01*
X154217028Y-53414850D01*
X154299095Y-53568386D01*
X154409538Y-53702962D01*
X154544114Y-53813405D01*
X154697650Y-53895472D01*
X154864246Y-53946008D01*
X155037500Y-53963072D01*
X155962500Y-53963072D01*
X156135754Y-53946008D01*
X156302350Y-53895472D01*
X156455886Y-53813405D01*
X156590462Y-53702962D01*
X156700905Y-53568386D01*
X156782972Y-53414850D01*
X156833508Y-53248254D01*
X156850572Y-53075000D01*
X156850572Y-51901006D01*
X157366579Y-51385000D01*
X159514538Y-51385000D01*
X159489820Y-51392498D01*
X159379506Y-51451463D01*
X159282815Y-51530815D01*
X159203463Y-51627506D01*
X159144498Y-51737820D01*
X159108188Y-51857518D01*
X159095928Y-51982000D01*
X159095928Y-53682000D01*
X159108188Y-53806482D01*
X159144498Y-53926180D01*
X159203463Y-54036494D01*
X159282815Y-54133185D01*
X159379506Y-54212537D01*
X159489820Y-54271502D01*
X159562380Y-54293513D01*
X159430525Y-54425368D01*
X159268010Y-54668589D01*
X159156068Y-54938842D01*
X159099000Y-55225740D01*
X159099000Y-55518260D01*
X159156068Y-55805158D01*
X159268010Y-56075411D01*
X159430525Y-56318632D01*
X159637368Y-56525475D01*
X159811760Y-56642000D01*
X159637368Y-56758525D01*
X159430525Y-56965368D01*
X159268010Y-57208589D01*
X159156068Y-57478842D01*
X159099000Y-57765740D01*
X159099000Y-58058260D01*
X159156068Y-58345158D01*
X159268010Y-58615411D01*
X159430525Y-58858632D01*
X159637368Y-59065475D01*
X159811760Y-59182000D01*
X159637368Y-59298525D01*
X159430525Y-59505368D01*
X159268010Y-59748589D01*
X159156068Y-60018842D01*
X159099000Y-60305740D01*
X159099000Y-60598260D01*
X159156068Y-60885158D01*
X159268010Y-61155411D01*
X159430525Y-61398632D01*
X159637368Y-61605475D01*
X159811760Y-61722000D01*
X159637368Y-61838525D01*
X159430525Y-62045368D01*
X159268010Y-62288589D01*
X159156068Y-62558842D01*
X159099000Y-62845740D01*
X159099000Y-63138260D01*
X159156068Y-63425158D01*
X159268010Y-63695411D01*
X159430525Y-63938632D01*
X159637368Y-64145475D01*
X159811760Y-64262000D01*
X159637368Y-64378525D01*
X159430525Y-64585368D01*
X159268010Y-64828589D01*
X159156068Y-65098842D01*
X159099000Y-65385740D01*
X159099000Y-65678260D01*
X159156068Y-65965158D01*
X159268010Y-66235411D01*
X159430525Y-66478632D01*
X159637368Y-66685475D01*
X159811760Y-66802000D01*
X159637368Y-66918525D01*
X159430525Y-67125368D01*
X159268010Y-67368589D01*
X159156068Y-67638842D01*
X159099000Y-67925740D01*
X159099000Y-68218260D01*
X159156068Y-68505158D01*
X159268010Y-68775411D01*
X159430525Y-69018632D01*
X159637368Y-69225475D01*
X159811760Y-69342000D01*
X159637368Y-69458525D01*
X159430525Y-69665368D01*
X159268010Y-69908589D01*
X159156068Y-70178842D01*
X159099000Y-70465740D01*
X159099000Y-70758260D01*
X159156068Y-71045158D01*
X159268010Y-71315411D01*
X159430525Y-71558632D01*
X159637368Y-71765475D01*
X159811760Y-71882000D01*
X159637368Y-71998525D01*
X159430525Y-72205368D01*
X159268010Y-72448589D01*
X159156068Y-72718842D01*
X159099000Y-73005740D01*
X159099000Y-73298260D01*
X159156068Y-73585158D01*
X159268010Y-73855411D01*
X159430525Y-74098632D01*
X159637368Y-74305475D01*
X159811760Y-74422000D01*
X159637368Y-74538525D01*
X159430525Y-74745368D01*
X159389344Y-74807000D01*
X158558579Y-74807000D01*
X154506535Y-70754957D01*
X154495226Y-70698102D01*
X154417205Y-70509744D01*
X154303937Y-70340226D01*
X154159774Y-70196063D01*
X153990256Y-70082795D01*
X153801898Y-70004774D01*
X153601939Y-69965000D01*
X153398061Y-69965000D01*
X153198102Y-70004774D01*
X153009744Y-70082795D01*
X152840226Y-70196063D01*
X152696063Y-70340226D01*
X152582795Y-70509744D01*
X152504774Y-70698102D01*
X152465000Y-70898061D01*
X152465000Y-71101939D01*
X152504774Y-71301898D01*
X152582795Y-71490256D01*
X152696063Y-71659774D01*
X152840226Y-71803937D01*
X153009744Y-71917205D01*
X153198102Y-71995226D01*
X153254957Y-72006535D01*
X157535470Y-76287049D01*
X157563183Y-76320817D01*
X157596951Y-76348530D01*
X157596953Y-76348532D01*
X157617518Y-76365409D01*
X157697941Y-76431411D01*
X157851687Y-76513589D01*
X158018510Y-76564195D01*
X158148523Y-76577000D01*
X158148533Y-76577000D01*
X158191999Y-76581281D01*
X158235466Y-76577000D01*
X159389344Y-76577000D01*
X159430525Y-76638632D01*
X159637368Y-76845475D01*
X159811760Y-76962000D01*
X159637368Y-77078525D01*
X159430525Y-77285368D01*
X159389344Y-77347000D01*
X157311465Y-77347000D01*
X157267999Y-77342719D01*
X157224533Y-77347000D01*
X157224523Y-77347000D01*
X157094510Y-77359805D01*
X156927687Y-77410411D01*
X156773941Y-77492589D01*
X156753038Y-77509744D01*
X156672953Y-77575468D01*
X156672951Y-77575470D01*
X156639183Y-77603183D01*
X156611470Y-77636951D01*
X153562956Y-80685466D01*
X153529183Y-80713183D01*
X153418589Y-80847942D01*
X153336411Y-81001688D01*
X153285805Y-81168511D01*
X153273000Y-81298524D01*
X153273000Y-81298531D01*
X153268719Y-81342000D01*
X153273000Y-81385469D01*
X153273001Y-84119544D01*
X153240795Y-84167744D01*
X153162774Y-84356102D01*
X153123000Y-84556061D01*
X153123000Y-84759939D01*
X153162774Y-84959898D01*
X153240795Y-85148256D01*
X153354063Y-85317774D01*
X153498226Y-85461937D01*
X153667744Y-85575205D01*
X153856102Y-85653226D01*
X154056061Y-85693000D01*
X154259939Y-85693000D01*
X154459898Y-85653226D01*
X154648256Y-85575205D01*
X154817774Y-85461937D01*
X154961937Y-85317774D01*
X155075205Y-85148256D01*
X155153226Y-84959898D01*
X155193000Y-84759939D01*
X155193000Y-84556061D01*
X155153226Y-84356102D01*
X155075205Y-84167744D01*
X155043000Y-84119546D01*
X155043000Y-81708578D01*
X157634579Y-79117000D01*
X159389344Y-79117000D01*
X159430525Y-79178632D01*
X159637368Y-79385475D01*
X159819534Y-79507195D01*
X159702645Y-79576822D01*
X159486412Y-79771731D01*
X159312359Y-80005080D01*
X159187175Y-80267901D01*
X159142524Y-80415110D01*
X159263845Y-80645000D01*
X160457000Y-80645000D01*
X160457000Y-80625000D01*
X160711000Y-80625000D01*
X160711000Y-80645000D01*
X160731000Y-80645000D01*
X160731000Y-80899000D01*
X160711000Y-80899000D01*
X160711000Y-80919000D01*
X160457000Y-80919000D01*
X160457000Y-80899000D01*
X159263845Y-80899000D01*
X159142524Y-81128890D01*
X159187175Y-81276099D01*
X159312359Y-81538920D01*
X159486412Y-81772269D01*
X159702645Y-81967178D01*
X159819534Y-82036805D01*
X159637368Y-82158525D01*
X159430525Y-82365368D01*
X159268010Y-82608589D01*
X159156068Y-82878842D01*
X159099000Y-83165740D01*
X159099000Y-83458260D01*
X159156068Y-83745158D01*
X159268010Y-84015411D01*
X159430525Y-84258632D01*
X159637368Y-84465475D01*
X159811760Y-84582000D01*
X159637368Y-84698525D01*
X159430525Y-84905368D01*
X159268010Y-85148589D01*
X159156068Y-85418842D01*
X159099000Y-85705740D01*
X159099000Y-85998260D01*
X159156068Y-86285158D01*
X159268010Y-86555411D01*
X159430525Y-86798632D01*
X159637368Y-87005475D01*
X159811760Y-87122000D01*
X159637368Y-87238525D01*
X159430525Y-87445368D01*
X159268010Y-87688589D01*
X159156068Y-87958842D01*
X159099000Y-88245740D01*
X159099000Y-88538260D01*
X159156068Y-88825158D01*
X159268010Y-89095411D01*
X159430525Y-89338632D01*
X159637368Y-89545475D01*
X159880589Y-89707990D01*
X160150842Y-89819932D01*
X160437740Y-89877000D01*
X160730260Y-89877000D01*
X160906472Y-89841949D01*
X157571618Y-93176804D01*
X157561557Y-93177795D01*
X157394733Y-93228401D01*
X157240988Y-93310579D01*
X157140000Y-93393458D01*
X157139998Y-93393460D01*
X157106230Y-93421173D01*
X157078517Y-93454941D01*
X154404956Y-96128503D01*
X154371183Y-96156220D01*
X154260589Y-96290979D01*
X154178411Y-96444725D01*
X154127805Y-96611548D01*
X154115000Y-96741561D01*
X154115000Y-96741568D01*
X154110719Y-96785037D01*
X154115000Y-96828506D01*
X154115001Y-108461544D01*
X154082795Y-108509744D01*
X154004774Y-108698102D01*
X153965000Y-108898061D01*
X153965000Y-109101939D01*
X154004774Y-109301898D01*
X154082795Y-109490256D01*
X154196063Y-109659774D01*
X154340226Y-109803937D01*
X154509744Y-109917205D01*
X154698102Y-109995226D01*
X154898061Y-110035000D01*
X155101939Y-110035000D01*
X155301898Y-109995226D01*
X155490256Y-109917205D01*
X155659774Y-109803937D01*
X155713711Y-109750000D01*
X159611928Y-109750000D01*
X159611928Y-113250000D01*
X159624188Y-113374482D01*
X159660498Y-113494180D01*
X159719463Y-113604494D01*
X159798815Y-113701185D01*
X159895506Y-113780537D01*
X160005820Y-113839502D01*
X160125518Y-113875812D01*
X160250000Y-113888072D01*
X163750000Y-113888072D01*
X163874482Y-113875812D01*
X163994180Y-113839502D01*
X164104494Y-113780537D01*
X164201185Y-113701185D01*
X164280537Y-113604494D01*
X164321494Y-113527869D01*
X164311928Y-113625000D01*
X164311928Y-115375000D01*
X164341001Y-115670186D01*
X164427104Y-115954028D01*
X164566927Y-116215618D01*
X164755097Y-116444903D01*
X164984382Y-116633073D01*
X165245972Y-116772896D01*
X165529814Y-116858999D01*
X165825000Y-116888072D01*
X167575000Y-116888072D01*
X167870186Y-116858999D01*
X168154028Y-116772896D01*
X168415618Y-116633073D01*
X168644903Y-116444903D01*
X168833073Y-116215618D01*
X168972896Y-115954028D01*
X169058999Y-115670186D01*
X169088072Y-115375000D01*
X169088072Y-113625000D01*
X169058999Y-113329814D01*
X168972896Y-113045972D01*
X168833073Y-112784382D01*
X168644903Y-112555097D01*
X168415618Y-112366927D01*
X168154028Y-112227104D01*
X167870186Y-112141001D01*
X167575000Y-112111928D01*
X165825000Y-112111928D01*
X165529814Y-112141001D01*
X165245972Y-112227104D01*
X164984382Y-112366927D01*
X164755097Y-112555097D01*
X164566927Y-112784382D01*
X164427104Y-113045972D01*
X164388072Y-113174643D01*
X164388072Y-109750000D01*
X164375812Y-109625518D01*
X164339502Y-109505820D01*
X164280537Y-109395506D01*
X164201185Y-109298815D01*
X164104494Y-109219463D01*
X163994180Y-109160498D01*
X163874482Y-109124188D01*
X163750000Y-109111928D01*
X160250000Y-109111928D01*
X160125518Y-109124188D01*
X160005820Y-109160498D01*
X159895506Y-109219463D01*
X159798815Y-109298815D01*
X159719463Y-109395506D01*
X159660498Y-109505820D01*
X159624188Y-109625518D01*
X159611928Y-109750000D01*
X155713711Y-109750000D01*
X155803937Y-109659774D01*
X155917205Y-109490256D01*
X155995226Y-109301898D01*
X156035000Y-109101939D01*
X156035000Y-108898061D01*
X155995226Y-108698102D01*
X155917205Y-108509744D01*
X155885000Y-108461546D01*
X155885000Y-103400000D01*
X156611928Y-103400000D01*
X156624188Y-103524482D01*
X156660498Y-103644180D01*
X156719463Y-103754494D01*
X156798815Y-103851185D01*
X156895506Y-103930537D01*
X157005820Y-103989502D01*
X157125518Y-104025812D01*
X157250000Y-104038072D01*
X157739250Y-104035000D01*
X157898000Y-103876250D01*
X157898000Y-102877000D01*
X158152000Y-102877000D01*
X158152000Y-103876250D01*
X158310750Y-104035000D01*
X158800000Y-104038072D01*
X158924482Y-104025812D01*
X159044180Y-103989502D01*
X159154494Y-103930537D01*
X159251185Y-103851185D01*
X159330537Y-103754494D01*
X159389502Y-103644180D01*
X159425812Y-103524482D01*
X159438072Y-103400000D01*
X164561928Y-103400000D01*
X164574188Y-103524482D01*
X164610498Y-103644180D01*
X164669463Y-103754494D01*
X164748815Y-103851185D01*
X164845506Y-103930537D01*
X164955820Y-103989502D01*
X165075518Y-104025812D01*
X165200000Y-104038072D01*
X165689250Y-104035000D01*
X165848000Y-103876250D01*
X165848000Y-102877000D01*
X166102000Y-102877000D01*
X166102000Y-103876250D01*
X166260750Y-104035000D01*
X166750000Y-104038072D01*
X166874482Y-104025812D01*
X166994180Y-103989502D01*
X167104494Y-103930537D01*
X167201185Y-103851185D01*
X167280537Y-103754494D01*
X167339502Y-103644180D01*
X167375812Y-103524482D01*
X167388072Y-103400000D01*
X167385000Y-103035750D01*
X167226250Y-102877000D01*
X166102000Y-102877000D01*
X165848000Y-102877000D01*
X164723750Y-102877000D01*
X164565000Y-103035750D01*
X164561928Y-103400000D01*
X159438072Y-103400000D01*
X159435000Y-103035750D01*
X159276250Y-102877000D01*
X158152000Y-102877000D01*
X157898000Y-102877000D01*
X156773750Y-102877000D01*
X156615000Y-103035750D01*
X156611928Y-103400000D01*
X155885000Y-103400000D01*
X155885000Y-102100000D01*
X156611928Y-102100000D01*
X156615000Y-102464250D01*
X156773750Y-102623000D01*
X157898000Y-102623000D01*
X157898000Y-101623750D01*
X158152000Y-101623750D01*
X158152000Y-102623000D01*
X159276250Y-102623000D01*
X159435000Y-102464250D01*
X159438072Y-102100000D01*
X164561928Y-102100000D01*
X164565000Y-102464250D01*
X164723750Y-102623000D01*
X165848000Y-102623000D01*
X165848000Y-101623750D01*
X166102000Y-101623750D01*
X166102000Y-102623000D01*
X167226250Y-102623000D01*
X167385000Y-102464250D01*
X167388072Y-102100000D01*
X167375812Y-101975518D01*
X167339502Y-101855820D01*
X167280537Y-101745506D01*
X167201185Y-101648815D01*
X167104494Y-101569463D01*
X166994180Y-101510498D01*
X166874482Y-101474188D01*
X166750000Y-101461928D01*
X166260750Y-101465000D01*
X166102000Y-101623750D01*
X165848000Y-101623750D01*
X165689250Y-101465000D01*
X165200000Y-101461928D01*
X165075518Y-101474188D01*
X164955820Y-101510498D01*
X164845506Y-101569463D01*
X164748815Y-101648815D01*
X164669463Y-101745506D01*
X164610498Y-101855820D01*
X164574188Y-101975518D01*
X164561928Y-102100000D01*
X159438072Y-102100000D01*
X159425812Y-101975518D01*
X159389502Y-101855820D01*
X159330537Y-101745506D01*
X159251185Y-101648815D01*
X159154494Y-101569463D01*
X159044180Y-101510498D01*
X158924482Y-101474188D01*
X158800000Y-101461928D01*
X158310750Y-101465000D01*
X158152000Y-101623750D01*
X157898000Y-101623750D01*
X157739250Y-101465000D01*
X157250000Y-101461928D01*
X157125518Y-101474188D01*
X157005820Y-101510498D01*
X156895506Y-101569463D01*
X156798815Y-101648815D01*
X156719463Y-101745506D01*
X156660498Y-101855820D01*
X156624188Y-101975518D01*
X156611928Y-102100000D01*
X155885000Y-102100000D01*
X155885000Y-97151615D01*
X158113440Y-94923176D01*
X158123500Y-94922185D01*
X158290323Y-94871579D01*
X158444069Y-94789401D01*
X158578827Y-94678807D01*
X158606544Y-94645034D01*
X163595049Y-89656530D01*
X163628817Y-89628817D01*
X163659943Y-89590891D01*
X163739410Y-89494060D01*
X163739411Y-89494059D01*
X163821589Y-89340313D01*
X163872195Y-89173490D01*
X163885000Y-89043477D01*
X163885000Y-89043467D01*
X163889281Y-89000001D01*
X163885000Y-88956535D01*
X163885000Y-88538454D01*
X163917205Y-88490256D01*
X163995226Y-88301898D01*
X164035000Y-88101939D01*
X164035000Y-87899565D01*
X164055969Y-87897500D01*
X164598706Y-87897500D01*
X164636595Y-87968386D01*
X164747038Y-88102962D01*
X164881614Y-88213405D01*
X165035150Y-88295472D01*
X165201746Y-88346008D01*
X165375000Y-88363072D01*
X166372849Y-88363072D01*
X166098993Y-88636928D01*
X165375000Y-88636928D01*
X165201746Y-88653992D01*
X165035150Y-88704528D01*
X164881614Y-88786595D01*
X164747038Y-88897038D01*
X164636595Y-89031614D01*
X164554528Y-89185150D01*
X164503992Y-89351746D01*
X164486928Y-89525000D01*
X164486928Y-90450000D01*
X164503992Y-90623254D01*
X164554528Y-90789850D01*
X164636595Y-90943386D01*
X164747038Y-91077962D01*
X164881614Y-91188405D01*
X165035150Y-91270472D01*
X165115000Y-91294694D01*
X165115001Y-96970299D01*
X165075518Y-96974188D01*
X164955820Y-97010498D01*
X164845506Y-97069463D01*
X164748815Y-97148815D01*
X164669463Y-97245506D01*
X164610498Y-97355820D01*
X164607713Y-97365000D01*
X159392287Y-97365000D01*
X159389502Y-97355820D01*
X159330537Y-97245506D01*
X159251185Y-97148815D01*
X159154494Y-97069463D01*
X159044180Y-97010498D01*
X158924482Y-96974188D01*
X158800000Y-96961928D01*
X157250000Y-96961928D01*
X157125518Y-96974188D01*
X157005820Y-97010498D01*
X156895506Y-97069463D01*
X156798815Y-97148815D01*
X156719463Y-97245506D01*
X156660498Y-97355820D01*
X156624188Y-97475518D01*
X156611928Y-97600000D01*
X156611928Y-98900000D01*
X156624188Y-99024482D01*
X156660498Y-99144180D01*
X156719463Y-99254494D01*
X156798815Y-99351185D01*
X156895506Y-99430537D01*
X157005820Y-99489502D01*
X157125518Y-99525812D01*
X157250000Y-99538072D01*
X158800000Y-99538072D01*
X158924482Y-99525812D01*
X159044180Y-99489502D01*
X159154494Y-99430537D01*
X159251185Y-99351185D01*
X159330537Y-99254494D01*
X159389502Y-99144180D01*
X159392287Y-99135000D01*
X164607713Y-99135000D01*
X164610498Y-99144180D01*
X164669463Y-99254494D01*
X164748815Y-99351185D01*
X164845506Y-99430537D01*
X164955820Y-99489502D01*
X165075518Y-99525812D01*
X165200000Y-99538072D01*
X166750000Y-99538072D01*
X166874482Y-99525812D01*
X166994180Y-99489502D01*
X167104494Y-99430537D01*
X167201185Y-99351185D01*
X167280537Y-99254494D01*
X167339502Y-99144180D01*
X167375812Y-99024482D01*
X167388072Y-98900000D01*
X167388072Y-97600000D01*
X167375812Y-97475518D01*
X167339502Y-97355820D01*
X167280537Y-97245506D01*
X167201185Y-97148815D01*
X167104494Y-97069463D01*
X166994180Y-97010498D01*
X166885000Y-96977379D01*
X166885000Y-94300000D01*
X169361928Y-94300000D01*
X169361928Y-97700000D01*
X169374188Y-97824482D01*
X169410498Y-97944180D01*
X169469463Y-98054494D01*
X169548815Y-98151185D01*
X169645506Y-98230537D01*
X169755820Y-98289502D01*
X169765000Y-98292287D01*
X169765001Y-100599044D01*
X169732795Y-100647244D01*
X169654774Y-100835602D01*
X169615000Y-101035561D01*
X169615000Y-101239439D01*
X169654774Y-101439398D01*
X169732795Y-101627756D01*
X169846063Y-101797274D01*
X169990226Y-101941437D01*
X170159744Y-102054705D01*
X170348102Y-102132726D01*
X170404957Y-102144035D01*
X173127500Y-104866579D01*
X173127501Y-109098705D01*
X173056614Y-109136595D01*
X172922038Y-109247038D01*
X172811595Y-109381614D01*
X172729528Y-109535150D01*
X172678992Y-109701746D01*
X172661928Y-109875000D01*
X172661928Y-110214026D01*
X172627805Y-110326510D01*
X172610719Y-110500000D01*
X172627805Y-110673490D01*
X172661928Y-110785974D01*
X172661928Y-111125000D01*
X172678992Y-111298254D01*
X172729528Y-111464850D01*
X172811595Y-111618386D01*
X172922038Y-111752962D01*
X173056614Y-111863405D01*
X173127500Y-111901295D01*
X173127501Y-114697023D01*
X173025001Y-114686928D01*
X172174999Y-114686928D01*
X172001745Y-114703992D01*
X171835149Y-114754528D01*
X171681613Y-114836595D01*
X171547038Y-114947038D01*
X171436595Y-115081613D01*
X171354528Y-115235149D01*
X171303992Y-115401745D01*
X171286928Y-115574999D01*
X171286928Y-117061494D01*
X171233422Y-117115000D01*
X171038454Y-117115000D01*
X170990256Y-117082795D01*
X170801898Y-117004774D01*
X170601939Y-116965000D01*
X170398061Y-116965000D01*
X170198102Y-117004774D01*
X170009744Y-117082795D01*
X169840226Y-117196063D01*
X169696063Y-117340226D01*
X169582795Y-117509744D01*
X169504774Y-117698102D01*
X169465000Y-117898061D01*
X169465000Y-118101939D01*
X169504774Y-118301898D01*
X169582795Y-118490256D01*
X169696063Y-118659774D01*
X169840226Y-118803937D01*
X170009744Y-118917205D01*
X170198102Y-118995226D01*
X170398061Y-119035000D01*
X170601939Y-119035000D01*
X170801898Y-118995226D01*
X170990256Y-118917205D01*
X171038454Y-118885000D01*
X171418749Y-118885000D01*
X171436595Y-118918387D01*
X171547038Y-119052962D01*
X171681613Y-119163405D01*
X171835149Y-119245472D01*
X172001745Y-119296008D01*
X172174999Y-119313072D01*
X173025001Y-119313072D01*
X173198255Y-119296008D01*
X173364851Y-119245472D01*
X173518387Y-119163405D01*
X173652962Y-119052962D01*
X173763405Y-118918387D01*
X173845472Y-118764851D01*
X173896008Y-118598255D01*
X173913072Y-118425001D01*
X173913072Y-116938506D01*
X174607549Y-116244030D01*
X174641317Y-116216317D01*
X174724467Y-116115000D01*
X174751911Y-116081559D01*
X174834089Y-115927814D01*
X174884695Y-115760990D01*
X174893638Y-115670186D01*
X174897500Y-115630977D01*
X174897500Y-115630969D01*
X174901781Y-115587500D01*
X174897500Y-115544031D01*
X174897500Y-111901294D01*
X174968386Y-111863405D01*
X175102962Y-111752962D01*
X175213405Y-111618386D01*
X175295472Y-111464850D01*
X175346008Y-111298254D01*
X175363072Y-111125000D01*
X175363072Y-109875000D01*
X175346008Y-109701746D01*
X175295472Y-109535150D01*
X175213405Y-109381614D01*
X175102962Y-109247038D01*
X174968386Y-109136595D01*
X174897500Y-109098706D01*
X174897500Y-104543465D01*
X174901781Y-104499999D01*
X174897500Y-104456533D01*
X174897500Y-104456523D01*
X174884695Y-104326510D01*
X174834089Y-104159687D01*
X174751911Y-104005941D01*
X174641317Y-103871183D01*
X174607550Y-103843471D01*
X171656535Y-100892457D01*
X171645226Y-100835602D01*
X171567205Y-100647244D01*
X171535000Y-100599046D01*
X171535000Y-98292287D01*
X171544180Y-98289502D01*
X171654494Y-98230537D01*
X171751185Y-98151185D01*
X171830537Y-98054494D01*
X171889502Y-97944180D01*
X171925812Y-97824482D01*
X171938072Y-97700000D01*
X171938072Y-94300000D01*
X171925812Y-94175518D01*
X171889502Y-94055820D01*
X171830537Y-93945506D01*
X171751185Y-93848815D01*
X171654494Y-93769463D01*
X171544180Y-93710498D01*
X171424482Y-93674188D01*
X171300000Y-93661928D01*
X170000000Y-93661928D01*
X169875518Y-93674188D01*
X169755820Y-93710498D01*
X169645506Y-93769463D01*
X169548815Y-93848815D01*
X169469463Y-93945506D01*
X169410498Y-94055820D01*
X169374188Y-94175518D01*
X169361928Y-94300000D01*
X166885000Y-94300000D01*
X166885000Y-91294694D01*
X166964850Y-91270472D01*
X167118386Y-91188405D01*
X167252962Y-91077962D01*
X167363405Y-90943386D01*
X167445472Y-90789850D01*
X167496008Y-90623254D01*
X167513072Y-90450000D01*
X167513072Y-89726007D01*
X167920059Y-89319020D01*
X167953827Y-89291307D01*
X167989296Y-89248089D01*
X168064420Y-89156550D01*
X168064421Y-89156549D01*
X168146599Y-89002803D01*
X168197205Y-88835980D01*
X168210010Y-88705967D01*
X168210010Y-88705957D01*
X168214291Y-88662491D01*
X168210010Y-88619025D01*
X168210010Y-87309701D01*
X168331937Y-87187774D01*
X168445205Y-87018256D01*
X168523226Y-86829898D01*
X168563000Y-86629939D01*
X168563000Y-86426061D01*
X168523226Y-86226102D01*
X168445205Y-86037744D01*
X168331937Y-85868226D01*
X168187774Y-85724063D01*
X168018256Y-85610795D01*
X167829898Y-85532774D01*
X167629939Y-85493000D01*
X167426061Y-85493000D01*
X167226102Y-85532774D01*
X167037744Y-85610795D01*
X166892770Y-85707663D01*
X166798254Y-85678992D01*
X166625000Y-85661928D01*
X165375000Y-85661928D01*
X165201746Y-85678992D01*
X165035150Y-85729528D01*
X164881614Y-85811595D01*
X164747038Y-85922038D01*
X164636595Y-86056614D01*
X164598706Y-86127500D01*
X164379079Y-86127500D01*
X163508534Y-85256956D01*
X163480817Y-85223183D01*
X163346059Y-85112589D01*
X163192313Y-85030411D01*
X163025490Y-84979805D01*
X162895477Y-84967000D01*
X162895469Y-84967000D01*
X162874926Y-84964977D01*
X162990256Y-84917205D01*
X163159774Y-84803937D01*
X163303937Y-84659774D01*
X163417205Y-84490256D01*
X163495226Y-84301898D01*
X163535000Y-84101939D01*
X163535000Y-83898061D01*
X163495226Y-83698102D01*
X163417205Y-83509744D01*
X163385000Y-83461546D01*
X163385000Y-71136578D01*
X169092990Y-76844569D01*
X169092989Y-88924483D01*
X169088708Y-88967952D01*
X169092989Y-89011421D01*
X169092989Y-89011428D01*
X169105794Y-89141441D01*
X169115000Y-89171789D01*
X169115000Y-89456531D01*
X169110719Y-89500000D01*
X169115000Y-89543469D01*
X169115000Y-89543476D01*
X169127805Y-89673489D01*
X169178411Y-89840312D01*
X169260589Y-89994058D01*
X169371183Y-90128817D01*
X169404956Y-90156534D01*
X171904953Y-92656532D01*
X171904959Y-92656537D01*
X176102501Y-96854080D01*
X176102500Y-104456523D01*
X176102500Y-104456524D01*
X176102501Y-109098705D01*
X176031614Y-109136595D01*
X175897038Y-109247038D01*
X175786595Y-109381614D01*
X175704528Y-109535150D01*
X175653992Y-109701746D01*
X175636928Y-109875000D01*
X175636928Y-111125000D01*
X175653992Y-111298254D01*
X175704528Y-111464850D01*
X175786595Y-111618386D01*
X175897038Y-111752962D01*
X176031614Y-111863405D01*
X176185150Y-111945472D01*
X176351746Y-111996008D01*
X176525000Y-112013072D01*
X177248993Y-112013072D01*
X177515001Y-112279080D01*
X177515000Y-114818749D01*
X177481613Y-114836595D01*
X177347038Y-114947038D01*
X177236595Y-115081613D01*
X177154528Y-115235149D01*
X177103992Y-115401745D01*
X177086928Y-115574999D01*
X177086928Y-118425001D01*
X177103992Y-118598255D01*
X177154528Y-118764851D01*
X177236595Y-118918387D01*
X177347038Y-119052962D01*
X177481613Y-119163405D01*
X177635149Y-119245472D01*
X177801745Y-119296008D01*
X177974999Y-119313072D01*
X178825001Y-119313072D01*
X178998255Y-119296008D01*
X179164851Y-119245472D01*
X179318387Y-119163405D01*
X179452962Y-119052962D01*
X179563405Y-118918387D01*
X179645472Y-118764851D01*
X179696008Y-118598255D01*
X179713072Y-118425001D01*
X179713072Y-115574999D01*
X179696008Y-115401745D01*
X179645472Y-115235149D01*
X179563405Y-115081613D01*
X179452962Y-114947038D01*
X179318387Y-114836595D01*
X179285000Y-114818749D01*
X179285000Y-111955969D01*
X179289281Y-111912500D01*
X179285000Y-111869031D01*
X179285000Y-111869023D01*
X179272195Y-111739010D01*
X179235604Y-111618386D01*
X179221589Y-111572186D01*
X179139411Y-111418441D01*
X179056532Y-111317453D01*
X179056530Y-111317451D01*
X179028817Y-111283683D01*
X178995049Y-111255970D01*
X178375814Y-110636735D01*
X178389281Y-110499999D01*
X178372194Y-110326509D01*
X178338072Y-110214026D01*
X178338072Y-109875000D01*
X178321008Y-109701746D01*
X178270472Y-109535150D01*
X178188405Y-109381614D01*
X178077962Y-109247038D01*
X177943386Y-109136595D01*
X177872500Y-109098706D01*
X177872500Y-96530965D01*
X177876781Y-96487499D01*
X177872500Y-96444033D01*
X177872500Y-96444023D01*
X177859695Y-96314010D01*
X177809089Y-96147187D01*
X177726911Y-95993441D01*
X177654291Y-95904954D01*
X177644032Y-95892453D01*
X177644030Y-95892451D01*
X177616317Y-95858683D01*
X177582549Y-95830970D01*
X176051579Y-94300000D01*
X178061928Y-94300000D01*
X178061928Y-97700000D01*
X178074188Y-97824482D01*
X178110498Y-97944180D01*
X178169463Y-98054494D01*
X178248815Y-98151185D01*
X178345506Y-98230537D01*
X178455820Y-98289502D01*
X178575518Y-98325812D01*
X178700000Y-98338072D01*
X180000000Y-98338072D01*
X180124482Y-98325812D01*
X180244180Y-98289502D01*
X180354494Y-98230537D01*
X180451185Y-98151185D01*
X180530537Y-98054494D01*
X180569542Y-97981522D01*
X183683068Y-101095049D01*
X183710781Y-101128817D01*
X183744549Y-101156530D01*
X183744551Y-101156532D01*
X183845539Y-101239411D01*
X183866126Y-101250415D01*
X183446859Y-101424081D01*
X183030844Y-101702053D01*
X182677053Y-102055844D01*
X182399081Y-102471859D01*
X182207611Y-102934109D01*
X182110000Y-103424832D01*
X182110000Y-103925168D01*
X182207611Y-104415891D01*
X182399081Y-104878141D01*
X182677053Y-105294156D01*
X183030844Y-105647947D01*
X183446859Y-105925919D01*
X183909109Y-106117389D01*
X184399832Y-106215000D01*
X184900168Y-106215000D01*
X185390891Y-106117389D01*
X185853141Y-105925919D01*
X186269156Y-105647947D01*
X186622947Y-105294156D01*
X186900919Y-104878141D01*
X187092389Y-104415891D01*
X187190000Y-103925168D01*
X187190000Y-103424832D01*
X187092389Y-102934109D01*
X187029512Y-102782309D01*
X187121154Y-102820269D01*
X187587340Y-102913000D01*
X188062660Y-102913000D01*
X188528846Y-102820269D01*
X188620488Y-102782309D01*
X188557611Y-102934109D01*
X188460000Y-103424832D01*
X188460000Y-103925168D01*
X188557611Y-104415891D01*
X188749081Y-104878141D01*
X189027053Y-105294156D01*
X189380844Y-105647947D01*
X189796859Y-105925919D01*
X190259109Y-106117389D01*
X190749832Y-106215000D01*
X191250168Y-106215000D01*
X191740891Y-106117389D01*
X192203141Y-105925919D01*
X192619156Y-105647947D01*
X192972947Y-105294156D01*
X193250919Y-104878141D01*
X193442389Y-104415891D01*
X193540000Y-103925168D01*
X193540000Y-103424832D01*
X193442389Y-102934109D01*
X193250919Y-102471859D01*
X192972947Y-102055844D01*
X192619156Y-101702053D01*
X192203141Y-101424081D01*
X191740891Y-101232611D01*
X191250168Y-101135000D01*
X190749832Y-101135000D01*
X190259109Y-101232611D01*
X190107309Y-101295488D01*
X190145269Y-101203846D01*
X190238000Y-100737660D01*
X190238000Y-100262340D01*
X190145269Y-99796154D01*
X190107309Y-99704512D01*
X190259109Y-99767389D01*
X190749832Y-99865000D01*
X191250168Y-99865000D01*
X191740891Y-99767389D01*
X192203141Y-99575919D01*
X192619156Y-99297947D01*
X192972947Y-98944156D01*
X193250919Y-98528141D01*
X193442389Y-98065891D01*
X193540000Y-97575168D01*
X193540000Y-97074832D01*
X193442389Y-96584109D01*
X193250919Y-96121859D01*
X192972947Y-95705844D01*
X192619156Y-95352053D01*
X192203141Y-95074081D01*
X191740891Y-94882611D01*
X191250168Y-94785000D01*
X190749832Y-94785000D01*
X190259109Y-94882611D01*
X189796859Y-95074081D01*
X189380844Y-95352053D01*
X189027053Y-95705844D01*
X188749081Y-96121859D01*
X188557611Y-96584109D01*
X188460000Y-97074832D01*
X188460000Y-97575168D01*
X188557611Y-98065891D01*
X188620488Y-98217691D01*
X188528846Y-98179731D01*
X188062660Y-98087000D01*
X187587340Y-98087000D01*
X187121154Y-98179731D01*
X187029512Y-98217691D01*
X187092389Y-98065891D01*
X187190000Y-97575168D01*
X187190000Y-97074832D01*
X187092389Y-96584109D01*
X186900919Y-96121859D01*
X186622947Y-95705844D01*
X186269156Y-95352053D01*
X185853141Y-95074081D01*
X185390891Y-94882611D01*
X184900168Y-94785000D01*
X184399832Y-94785000D01*
X183909109Y-94882611D01*
X183446859Y-95074081D01*
X183030844Y-95352053D01*
X182677053Y-95705844D01*
X182399081Y-96121859D01*
X182207611Y-96584109D01*
X182119292Y-97028116D01*
X181385000Y-96293824D01*
X181385000Y-94893469D01*
X181389281Y-94850000D01*
X181385000Y-94806531D01*
X181385000Y-94308767D01*
X181421589Y-94240313D01*
X181472195Y-94073489D01*
X181476583Y-94028935D01*
X181565256Y-93992205D01*
X181734774Y-93878937D01*
X181878937Y-93734774D01*
X181992205Y-93565256D01*
X182070226Y-93376898D01*
X182110000Y-93176939D01*
X182110000Y-92973061D01*
X182070226Y-92773102D01*
X181992205Y-92584744D01*
X181878937Y-92415226D01*
X181734774Y-92271063D01*
X181565256Y-92157795D01*
X181376898Y-92079774D01*
X181176939Y-92040000D01*
X180973061Y-92040000D01*
X180773102Y-92079774D01*
X180584744Y-92157795D01*
X180415226Y-92271063D01*
X180271063Y-92415226D01*
X180157795Y-92584744D01*
X180079774Y-92773102D01*
X180068465Y-92829957D01*
X180004956Y-92893466D01*
X179971183Y-92921183D01*
X179860589Y-93055942D01*
X179778411Y-93209688D01*
X179727805Y-93376511D01*
X179715000Y-93506524D01*
X179715000Y-93506531D01*
X179710719Y-93550000D01*
X179714814Y-93591582D01*
X179678411Y-93659688D01*
X179677731Y-93661928D01*
X178700000Y-93661928D01*
X178575518Y-93674188D01*
X178455820Y-93710498D01*
X178345506Y-93769463D01*
X178248815Y-93848815D01*
X178169463Y-93945506D01*
X178110498Y-94055820D01*
X178074188Y-94175518D01*
X178061928Y-94300000D01*
X176051579Y-94300000D01*
X174136578Y-92385000D01*
X176961546Y-92385000D01*
X177009744Y-92417205D01*
X177198102Y-92495226D01*
X177398061Y-92535000D01*
X177601939Y-92535000D01*
X177801898Y-92495226D01*
X177990256Y-92417205D01*
X178159774Y-92303937D01*
X178303937Y-92159774D01*
X178417205Y-91990256D01*
X178495226Y-91801898D01*
X178535000Y-91601939D01*
X178535000Y-91398061D01*
X178495226Y-91198102D01*
X178417205Y-91009744D01*
X178303937Y-90840226D01*
X178159774Y-90696063D01*
X177990256Y-90582795D01*
X177801898Y-90504774D01*
X177601939Y-90465000D01*
X177398061Y-90465000D01*
X177198102Y-90504774D01*
X177009744Y-90582795D01*
X176961546Y-90615000D01*
X173866579Y-90615000D01*
X171562999Y-88311421D01*
X171562999Y-83563000D01*
X171629939Y-83563000D01*
X171829898Y-83523226D01*
X172018256Y-83445205D01*
X172187774Y-83331937D01*
X172331937Y-83187774D01*
X172445205Y-83018256D01*
X172523226Y-82829898D01*
X172534535Y-82773043D01*
X174347348Y-80960230D01*
X174396068Y-81205158D01*
X174508010Y-81475411D01*
X174670525Y-81718632D01*
X174877368Y-81925475D01*
X175051760Y-82042000D01*
X174877368Y-82158525D01*
X174670525Y-82365368D01*
X174508010Y-82608589D01*
X174396068Y-82878842D01*
X174339000Y-83165740D01*
X174339000Y-83458260D01*
X174396068Y-83745158D01*
X174508010Y-84015411D01*
X174670525Y-84258632D01*
X174877368Y-84465475D01*
X175051760Y-84582000D01*
X174877368Y-84698525D01*
X174670525Y-84905368D01*
X174508010Y-85148589D01*
X174396068Y-85418842D01*
X174339000Y-85705740D01*
X174339000Y-85998260D01*
X174396068Y-86285158D01*
X174508010Y-86555411D01*
X174670525Y-86798632D01*
X174802380Y-86930487D01*
X174729820Y-86952498D01*
X174619506Y-87011463D01*
X174522815Y-87090815D01*
X174443463Y-87187506D01*
X174384498Y-87297820D01*
X174348188Y-87417518D01*
X174335928Y-87542000D01*
X174335928Y-89242000D01*
X174348188Y-89366482D01*
X174384498Y-89486180D01*
X174443463Y-89596494D01*
X174522815Y-89693185D01*
X174619506Y-89772537D01*
X174729820Y-89831502D01*
X174849518Y-89867812D01*
X174974000Y-89880072D01*
X176674000Y-89880072D01*
X176798482Y-89867812D01*
X176918180Y-89831502D01*
X177028494Y-89772537D01*
X177125185Y-89693185D01*
X177204537Y-89596494D01*
X177263502Y-89486180D01*
X177299812Y-89366482D01*
X177312072Y-89242000D01*
X177312072Y-87542000D01*
X177299812Y-87417518D01*
X177263502Y-87297820D01*
X177204537Y-87187506D01*
X177125185Y-87090815D01*
X177028494Y-87011463D01*
X176918180Y-86952498D01*
X176845620Y-86930487D01*
X176977475Y-86798632D01*
X177139990Y-86555411D01*
X177251932Y-86285158D01*
X177309000Y-85998260D01*
X177309000Y-85705740D01*
X177251932Y-85418842D01*
X177139990Y-85148589D01*
X176977475Y-84905368D01*
X176770632Y-84698525D01*
X176596240Y-84582000D01*
X176770632Y-84465475D01*
X176977475Y-84258632D01*
X177139990Y-84015411D01*
X177251932Y-83745158D01*
X177309000Y-83458260D01*
X177309000Y-83165740D01*
X177251932Y-82878842D01*
X177139990Y-82608589D01*
X176977475Y-82365368D01*
X176770632Y-82158525D01*
X176596240Y-82042000D01*
X176770632Y-81925475D01*
X176977475Y-81718632D01*
X177139990Y-81475411D01*
X177251932Y-81205158D01*
X177309000Y-80918260D01*
X177309000Y-80625740D01*
X177251932Y-80338842D01*
X177139990Y-80068589D01*
X176977475Y-79825368D01*
X176770632Y-79618525D01*
X176596240Y-79502000D01*
X176770632Y-79385475D01*
X176977475Y-79178632D01*
X177139990Y-78935411D01*
X177251932Y-78665158D01*
X177309000Y-78378260D01*
X177309000Y-78085740D01*
X177251932Y-77798842D01*
X177139990Y-77528589D01*
X176977475Y-77285368D01*
X176770632Y-77078525D01*
X176596240Y-76962000D01*
X176770632Y-76845475D01*
X176977475Y-76638632D01*
X177018656Y-76577000D01*
X178957422Y-76577000D01*
X180615001Y-78234580D01*
X180615000Y-82461546D01*
X180582795Y-82509744D01*
X180504774Y-82698102D01*
X180465000Y-82898061D01*
X180465000Y-83101939D01*
X180504774Y-83301898D01*
X180582795Y-83490256D01*
X180696063Y-83659774D01*
X180840226Y-83803937D01*
X181009744Y-83917205D01*
X181198102Y-83995226D01*
X181398061Y-84035000D01*
X181601939Y-84035000D01*
X181801898Y-83995226D01*
X181990256Y-83917205D01*
X182159774Y-83803937D01*
X182253683Y-83710028D01*
X182527053Y-84119156D01*
X182880844Y-84472947D01*
X183296859Y-84750919D01*
X183716126Y-84924585D01*
X183695539Y-84935589D01*
X183695537Y-84935590D01*
X183695538Y-84935590D01*
X183594551Y-85018468D01*
X183594549Y-85018470D01*
X183560781Y-85046183D01*
X183533068Y-85079951D01*
X180514216Y-88098804D01*
X180490256Y-88082795D01*
X180301898Y-88004774D01*
X180101939Y-87965000D01*
X179898061Y-87965000D01*
X179698102Y-88004774D01*
X179509744Y-88082795D01*
X179340226Y-88196063D01*
X179196063Y-88340226D01*
X179082795Y-88509744D01*
X179004774Y-88698102D01*
X178965000Y-88898061D01*
X178965000Y-89101939D01*
X179004774Y-89301898D01*
X179082795Y-89490256D01*
X179196063Y-89659774D01*
X179340226Y-89803937D01*
X179509744Y-89917205D01*
X179698102Y-89995226D01*
X179898061Y-90035000D01*
X180101939Y-90035000D01*
X180301898Y-89995226D01*
X180490256Y-89917205D01*
X180538454Y-89885000D01*
X180821129Y-89885000D01*
X180864598Y-89889281D01*
X180908067Y-89885000D01*
X180908075Y-89885000D01*
X181038088Y-89872195D01*
X181204911Y-89821589D01*
X181358657Y-89739411D01*
X181493415Y-89628817D01*
X181521132Y-89595044D01*
X181969292Y-89146884D01*
X182057611Y-89590891D01*
X182249081Y-90053141D01*
X182527053Y-90469156D01*
X182880844Y-90822947D01*
X183296859Y-91100919D01*
X183759109Y-91292389D01*
X184249832Y-91390000D01*
X184750168Y-91390000D01*
X185240891Y-91292389D01*
X185703141Y-91100919D01*
X186119156Y-90822947D01*
X186472947Y-90469156D01*
X186750919Y-90053141D01*
X186942389Y-89590891D01*
X187040000Y-89100168D01*
X187040000Y-88599832D01*
X186942389Y-88109109D01*
X186879512Y-87957309D01*
X186971154Y-87995269D01*
X187437340Y-88088000D01*
X187912660Y-88088000D01*
X188378846Y-87995269D01*
X188470488Y-87957309D01*
X188407611Y-88109109D01*
X188310000Y-88599832D01*
X188310000Y-89100168D01*
X188407611Y-89590891D01*
X188599081Y-90053141D01*
X188877053Y-90469156D01*
X189230844Y-90822947D01*
X189646859Y-91100919D01*
X190109109Y-91292389D01*
X190599832Y-91390000D01*
X191100168Y-91390000D01*
X191590891Y-91292389D01*
X192053141Y-91100919D01*
X192469156Y-90822947D01*
X192822947Y-90469156D01*
X193100919Y-90053141D01*
X193292389Y-89590891D01*
X193390000Y-89100168D01*
X193390000Y-88599832D01*
X193292389Y-88109109D01*
X193100919Y-87646859D01*
X192822947Y-87230844D01*
X192469156Y-86877053D01*
X192053141Y-86599081D01*
X191590891Y-86407611D01*
X191100168Y-86310000D01*
X190599832Y-86310000D01*
X190109109Y-86407611D01*
X189957309Y-86470488D01*
X189995269Y-86378846D01*
X190088000Y-85912660D01*
X190088000Y-85437340D01*
X189995269Y-84971154D01*
X189957309Y-84879512D01*
X190109109Y-84942389D01*
X190599832Y-85040000D01*
X191100168Y-85040000D01*
X191590891Y-84942389D01*
X192053141Y-84750919D01*
X192469156Y-84472947D01*
X192822947Y-84119156D01*
X193100919Y-83703141D01*
X193292389Y-83240891D01*
X193390000Y-82750168D01*
X193390000Y-82249832D01*
X193292389Y-81759109D01*
X193100919Y-81296859D01*
X192822947Y-80880844D01*
X192469156Y-80527053D01*
X192053141Y-80249081D01*
X191590891Y-80057611D01*
X191100168Y-79960000D01*
X190599832Y-79960000D01*
X190109109Y-80057611D01*
X189646859Y-80249081D01*
X189230844Y-80527053D01*
X188877053Y-80880844D01*
X188599081Y-81296859D01*
X188407611Y-81759109D01*
X188310000Y-82249832D01*
X188310000Y-82750168D01*
X188407611Y-83240891D01*
X188470488Y-83392691D01*
X188378846Y-83354731D01*
X187912660Y-83262000D01*
X187437340Y-83262000D01*
X186971154Y-83354731D01*
X186879512Y-83392691D01*
X186942389Y-83240891D01*
X187040000Y-82750168D01*
X187040000Y-82249832D01*
X186942389Y-81759109D01*
X186750919Y-81296859D01*
X186472947Y-80880844D01*
X186119156Y-80527053D01*
X185703141Y-80249081D01*
X185240891Y-80057611D01*
X184750168Y-79960000D01*
X184249832Y-79960000D01*
X183759109Y-80057611D01*
X183296859Y-80249081D01*
X182880844Y-80527053D01*
X182527053Y-80880844D01*
X182385000Y-81093442D01*
X182385000Y-77911469D01*
X182389281Y-77868000D01*
X182385000Y-77824531D01*
X182385000Y-77824523D01*
X182372195Y-77694510D01*
X182321589Y-77527687D01*
X182239411Y-77373941D01*
X182178382Y-77299577D01*
X182156532Y-77272953D01*
X182156530Y-77272951D01*
X182128817Y-77239183D01*
X182095049Y-77211470D01*
X179980534Y-75096956D01*
X179952817Y-75063183D01*
X179818059Y-74952589D01*
X179664313Y-74870411D01*
X179497490Y-74819805D01*
X179367477Y-74807000D01*
X179367469Y-74807000D01*
X179324000Y-74802719D01*
X179280531Y-74807000D01*
X177018656Y-74807000D01*
X176977475Y-74745368D01*
X176770632Y-74538525D01*
X176596240Y-74422000D01*
X176770632Y-74305475D01*
X176977475Y-74098632D01*
X177139990Y-73855411D01*
X177251932Y-73585158D01*
X177309000Y-73298260D01*
X177309000Y-73005740D01*
X177251932Y-72718842D01*
X177139990Y-72448589D01*
X176977475Y-72205368D01*
X176770632Y-71998525D01*
X176596240Y-71882000D01*
X176770632Y-71765475D01*
X176977475Y-71558632D01*
X177139990Y-71315411D01*
X177180313Y-71218060D01*
X180145001Y-71218060D01*
X180145001Y-71421938D01*
X180184775Y-71621897D01*
X180262796Y-71810255D01*
X180376064Y-71979773D01*
X180520227Y-72123936D01*
X180689745Y-72237204D01*
X180878103Y-72315225D01*
X181078062Y-72354999D01*
X181281940Y-72354999D01*
X181481899Y-72315225D01*
X181670257Y-72237204D01*
X181718455Y-72204999D01*
X182252391Y-72204999D01*
X182074081Y-72471859D01*
X181882611Y-72934109D01*
X181785000Y-73424832D01*
X181785000Y-73925168D01*
X181882611Y-74415891D01*
X182074081Y-74878141D01*
X182352053Y-75294156D01*
X182705844Y-75647947D01*
X183121859Y-75925919D01*
X183584109Y-76117389D01*
X184074832Y-76215000D01*
X184575168Y-76215000D01*
X185065891Y-76117389D01*
X185528141Y-75925919D01*
X185944156Y-75647947D01*
X186297947Y-75294156D01*
X186575919Y-74878141D01*
X186767389Y-74415891D01*
X186865000Y-73925168D01*
X186865000Y-73424832D01*
X186767389Y-72934109D01*
X186704512Y-72782309D01*
X186796154Y-72820269D01*
X187262340Y-72913000D01*
X187737660Y-72913000D01*
X188203846Y-72820269D01*
X188295488Y-72782309D01*
X188232611Y-72934109D01*
X188135000Y-73424832D01*
X188135000Y-73925168D01*
X188232611Y-74415891D01*
X188424081Y-74878141D01*
X188702053Y-75294156D01*
X189055844Y-75647947D01*
X189471859Y-75925919D01*
X189934109Y-76117389D01*
X190424832Y-76215000D01*
X190925168Y-76215000D01*
X191415891Y-76117389D01*
X191878141Y-75925919D01*
X192294156Y-75647947D01*
X192647947Y-75294156D01*
X192925919Y-74878141D01*
X193117389Y-74415891D01*
X193215000Y-73925168D01*
X193215000Y-73424832D01*
X193117389Y-72934109D01*
X192925919Y-72471859D01*
X192647947Y-72055844D01*
X192294156Y-71702053D01*
X191878141Y-71424081D01*
X191415891Y-71232611D01*
X190925168Y-71135000D01*
X190424832Y-71135000D01*
X189934109Y-71232611D01*
X189782309Y-71295488D01*
X189820269Y-71203846D01*
X189913000Y-70737660D01*
X189913000Y-70262340D01*
X189820269Y-69796154D01*
X189782309Y-69704512D01*
X189934109Y-69767389D01*
X190424832Y-69865000D01*
X190925168Y-69865000D01*
X191415891Y-69767389D01*
X191878141Y-69575919D01*
X192294156Y-69297947D01*
X192647947Y-68944156D01*
X192925919Y-68528141D01*
X193117389Y-68065891D01*
X193215000Y-67575168D01*
X193215000Y-67074832D01*
X193117389Y-66584109D01*
X192925919Y-66121859D01*
X192647947Y-65705844D01*
X192294156Y-65352053D01*
X191878141Y-65074081D01*
X191415891Y-64882611D01*
X190925168Y-64785000D01*
X190424832Y-64785000D01*
X189934109Y-64882611D01*
X189471859Y-65074081D01*
X189055844Y-65352053D01*
X188702053Y-65705844D01*
X188424081Y-66121859D01*
X188232611Y-66584109D01*
X188135000Y-67074832D01*
X188135000Y-67575168D01*
X188232611Y-68065891D01*
X188295488Y-68217691D01*
X188203846Y-68179731D01*
X187737660Y-68087000D01*
X187262340Y-68087000D01*
X186796154Y-68179731D01*
X186704512Y-68217691D01*
X186767389Y-68065891D01*
X186865000Y-67575168D01*
X186865000Y-67074832D01*
X186767389Y-66584109D01*
X186575919Y-66121859D01*
X186297947Y-65705844D01*
X185944156Y-65352053D01*
X185528141Y-65074081D01*
X185065891Y-64882611D01*
X184575168Y-64785000D01*
X184074832Y-64785000D01*
X183584109Y-64882611D01*
X183121859Y-65074081D01*
X182705844Y-65352053D01*
X182352053Y-65705844D01*
X182074081Y-66121859D01*
X181882611Y-66584109D01*
X181785000Y-67074832D01*
X181785000Y-67575168D01*
X181882611Y-68065891D01*
X182074081Y-68528141D01*
X182352053Y-68944156D01*
X182705844Y-69297947D01*
X183121859Y-69575919D01*
X183584109Y-69767389D01*
X184074832Y-69865000D01*
X184575168Y-69865000D01*
X185065891Y-69767389D01*
X185217691Y-69704512D01*
X185179731Y-69796154D01*
X185087000Y-70262340D01*
X185087000Y-70434999D01*
X181718455Y-70434999D01*
X181670257Y-70402794D01*
X181481899Y-70324773D01*
X181281940Y-70284999D01*
X181078062Y-70284999D01*
X180878103Y-70324773D01*
X180689745Y-70402794D01*
X180520227Y-70516062D01*
X180376064Y-70660225D01*
X180262796Y-70829743D01*
X180184775Y-71018101D01*
X180145001Y-71218060D01*
X177180313Y-71218060D01*
X177251932Y-71045158D01*
X177309000Y-70758260D01*
X177309000Y-70465740D01*
X177251932Y-70178842D01*
X177139990Y-69908589D01*
X176977475Y-69665368D01*
X176770632Y-69458525D01*
X176596240Y-69342000D01*
X176770632Y-69225475D01*
X176977475Y-69018632D01*
X177139990Y-68775411D01*
X177251932Y-68505158D01*
X177309000Y-68218260D01*
X177309000Y-67925740D01*
X177251932Y-67638842D01*
X177139990Y-67368589D01*
X176977475Y-67125368D01*
X176770632Y-66918525D01*
X176596240Y-66802000D01*
X176770632Y-66685475D01*
X176977475Y-66478632D01*
X177139990Y-66235411D01*
X177251932Y-65965158D01*
X177309000Y-65678260D01*
X177309000Y-65385740D01*
X177251932Y-65098842D01*
X177139990Y-64828589D01*
X176977475Y-64585368D01*
X176770632Y-64378525D01*
X176596240Y-64262000D01*
X176770632Y-64145475D01*
X176977475Y-63938632D01*
X177139990Y-63695411D01*
X177251932Y-63425158D01*
X177309000Y-63138260D01*
X177309000Y-62845740D01*
X177251932Y-62558842D01*
X177139990Y-62288589D01*
X176977475Y-62045368D01*
X176770632Y-61838525D01*
X176596240Y-61722000D01*
X176770632Y-61605475D01*
X176977475Y-61398632D01*
X177139990Y-61155411D01*
X177251932Y-60885158D01*
X177309000Y-60598260D01*
X177309000Y-60305740D01*
X177251932Y-60018842D01*
X177139990Y-59748589D01*
X176977475Y-59505368D01*
X176770632Y-59298525D01*
X176596240Y-59182000D01*
X176770632Y-59065475D01*
X176977475Y-58858632D01*
X177139990Y-58615411D01*
X177251932Y-58345158D01*
X177309000Y-58058260D01*
X177309000Y-57765740D01*
X177251932Y-57478842D01*
X177139990Y-57208589D01*
X176977475Y-56965368D01*
X176770632Y-56758525D01*
X176596240Y-56642000D01*
X176770632Y-56525475D01*
X176977475Y-56318632D01*
X177139990Y-56075411D01*
X177251932Y-55805158D01*
X177309000Y-55518260D01*
X177309000Y-55225740D01*
X177251932Y-54938842D01*
X177139990Y-54668589D01*
X176977475Y-54425368D01*
X176770632Y-54218525D01*
X176596240Y-54102000D01*
X176770632Y-53985475D01*
X176977475Y-53778632D01*
X177139990Y-53535411D01*
X177251932Y-53265158D01*
X177309000Y-52978260D01*
X177309000Y-52685740D01*
X177251932Y-52398842D01*
X177139990Y-52128589D01*
X176977475Y-51885368D01*
X176770632Y-51678525D01*
X176527411Y-51516010D01*
X176257158Y-51404068D01*
X175970260Y-51347000D01*
X175677740Y-51347000D01*
X175390842Y-51404068D01*
X175120589Y-51516010D01*
X174877368Y-51678525D01*
X174670525Y-51885368D01*
X174508010Y-52128589D01*
X174396068Y-52398842D01*
X174339000Y-52685740D01*
X174339000Y-52978260D01*
X174396068Y-53265158D01*
X174508010Y-53535411D01*
X174670525Y-53778632D01*
X174877368Y-53985475D01*
X175051760Y-54102000D01*
X174877368Y-54218525D01*
X174670525Y-54425368D01*
X174508010Y-54668589D01*
X174396068Y-54938842D01*
X174339000Y-55225740D01*
X174339000Y-55518260D01*
X174396068Y-55805158D01*
X174508010Y-56075411D01*
X174670525Y-56318632D01*
X174877368Y-56525475D01*
X175051760Y-56642000D01*
X174877368Y-56758525D01*
X174670525Y-56965368D01*
X174508010Y-57208589D01*
X174396068Y-57478842D01*
X174339000Y-57765740D01*
X174339000Y-58058260D01*
X174396068Y-58345158D01*
X174508010Y-58615411D01*
X174670525Y-58858632D01*
X174877368Y-59065475D01*
X175051760Y-59182000D01*
X174877368Y-59298525D01*
X174707486Y-59468407D01*
X170838072Y-55598994D01*
X170838072Y-54875000D01*
X170821008Y-54701746D01*
X170770472Y-54535150D01*
X170688405Y-54381614D01*
X170577962Y-54247038D01*
X170443386Y-54136595D01*
X170289850Y-54054528D01*
X170123254Y-54003992D01*
X169950000Y-53986928D01*
X169025000Y-53986928D01*
X168851746Y-54003992D01*
X168685150Y-54054528D01*
X168531614Y-54136595D01*
X168397038Y-54247038D01*
X168286595Y-54381614D01*
X168204528Y-54535150D01*
X168153992Y-54701746D01*
X168136928Y-54875000D01*
X168136928Y-56125000D01*
X168153992Y-56298254D01*
X168204528Y-56464850D01*
X168286595Y-56618386D01*
X168397038Y-56752962D01*
X168531614Y-56863405D01*
X168685150Y-56945472D01*
X168851746Y-56996008D01*
X169025000Y-57013072D01*
X169748994Y-57013072D01*
X171225499Y-58489577D01*
X171101939Y-58465000D01*
X170898061Y-58465000D01*
X170748841Y-58494681D01*
X170688405Y-58381614D01*
X170577962Y-58247038D01*
X170443386Y-58136595D01*
X170289850Y-58054528D01*
X170123254Y-58003992D01*
X169950000Y-57986928D01*
X169025000Y-57986928D01*
X168851746Y-58003992D01*
X168685150Y-58054528D01*
X168531614Y-58136595D01*
X168397038Y-58247038D01*
X168286595Y-58381614D01*
X168204528Y-58535150D01*
X168153992Y-58701746D01*
X168136928Y-58875000D01*
X168136928Y-60125000D01*
X168153992Y-60298254D01*
X168204528Y-60464850D01*
X168286595Y-60618386D01*
X168397038Y-60752962D01*
X168531614Y-60863405D01*
X168685150Y-60945472D01*
X168851746Y-60996008D01*
X169025000Y-61013072D01*
X169950000Y-61013072D01*
X170123254Y-60996008D01*
X170289850Y-60945472D01*
X170443386Y-60863405D01*
X170577962Y-60752962D01*
X170688405Y-60618386D01*
X170748841Y-60505319D01*
X170898061Y-60535000D01*
X171101939Y-60535000D01*
X171301898Y-60495226D01*
X171490256Y-60417205D01*
X171659774Y-60303937D01*
X171803937Y-60159774D01*
X171917205Y-59990256D01*
X171995226Y-59801898D01*
X172035000Y-59601939D01*
X172035000Y-59398061D01*
X172010423Y-59274501D01*
X173782970Y-61047049D01*
X173810683Y-61080817D01*
X173844451Y-61108530D01*
X173844453Y-61108532D01*
X173945441Y-61191411D01*
X174099186Y-61273589D01*
X174266010Y-61324195D01*
X174396023Y-61337000D01*
X174396031Y-61337000D01*
X174439500Y-61341281D01*
X174482969Y-61337000D01*
X174629344Y-61337000D01*
X174670525Y-61398632D01*
X174877368Y-61605475D01*
X175051760Y-61722000D01*
X174877368Y-61838525D01*
X174670525Y-62045368D01*
X174508010Y-62288589D01*
X174396068Y-62558842D01*
X174339000Y-62845740D01*
X174339000Y-63138260D01*
X174396068Y-63425158D01*
X174508010Y-63695411D01*
X174670525Y-63938632D01*
X174877368Y-64145475D01*
X175051760Y-64262000D01*
X174877368Y-64378525D01*
X174670525Y-64585368D01*
X174508010Y-64828589D01*
X174396068Y-65098842D01*
X174339000Y-65385740D01*
X174339000Y-65678260D01*
X174396068Y-65965158D01*
X174508010Y-66235411D01*
X174670525Y-66478632D01*
X174877368Y-66685475D01*
X175051760Y-66802000D01*
X174877368Y-66918525D01*
X174670525Y-67125368D01*
X174508010Y-67368589D01*
X174396068Y-67638842D01*
X174339000Y-67925740D01*
X174339000Y-68218260D01*
X174396068Y-68505158D01*
X174508010Y-68775411D01*
X174670525Y-69018632D01*
X174877368Y-69225475D01*
X175051760Y-69342000D01*
X174877368Y-69458525D01*
X174670525Y-69665368D01*
X174508010Y-69908589D01*
X174396068Y-70178842D01*
X174339000Y-70465740D01*
X174339000Y-70758260D01*
X174396068Y-71045158D01*
X174508010Y-71315411D01*
X174670525Y-71558632D01*
X174877368Y-71765475D01*
X175051760Y-71882000D01*
X174877368Y-71998525D01*
X174670525Y-72205368D01*
X174508010Y-72448589D01*
X174396068Y-72718842D01*
X174339000Y-73005740D01*
X174339000Y-73298260D01*
X174396068Y-73585158D01*
X174508010Y-73855411D01*
X174670525Y-74098632D01*
X174877368Y-74305475D01*
X175051760Y-74422000D01*
X174877368Y-74538525D01*
X174670525Y-74745368D01*
X174508010Y-74988589D01*
X174396068Y-75258842D01*
X174339000Y-75545740D01*
X174339000Y-75838260D01*
X174396068Y-76125158D01*
X174508010Y-76395411D01*
X174670525Y-76638632D01*
X174877368Y-76845475D01*
X175051760Y-76962000D01*
X174877368Y-77078525D01*
X174670525Y-77285368D01*
X174508010Y-77528589D01*
X174396068Y-77798842D01*
X174339000Y-78085740D01*
X174339000Y-78378260D01*
X174353461Y-78450960D01*
X171562999Y-81241423D01*
X171562999Y-79035000D01*
X171629938Y-79035000D01*
X171829897Y-78995226D01*
X172018255Y-78917205D01*
X172187773Y-78803937D01*
X172331936Y-78659774D01*
X172445204Y-78490256D01*
X172523225Y-78301898D01*
X172562999Y-78101939D01*
X172562999Y-77898061D01*
X172523225Y-77698102D01*
X172445204Y-77509744D01*
X172385000Y-77419642D01*
X172385000Y-68530965D01*
X172389281Y-68487499D01*
X172385000Y-68444033D01*
X172385000Y-68444023D01*
X172372195Y-68314010D01*
X172321589Y-68147187D01*
X172239411Y-67993441D01*
X172183850Y-67925740D01*
X172156532Y-67892453D01*
X172156530Y-67892451D01*
X172128817Y-67858683D01*
X172095051Y-67830972D01*
X169277150Y-65013072D01*
X169950000Y-65013072D01*
X170123254Y-64996008D01*
X170289850Y-64945472D01*
X170443386Y-64863405D01*
X170577962Y-64752962D01*
X170688405Y-64618386D01*
X170748841Y-64505319D01*
X170898061Y-64535000D01*
X171101939Y-64535000D01*
X171301898Y-64495226D01*
X171490256Y-64417205D01*
X171659774Y-64303937D01*
X171803937Y-64159774D01*
X171917205Y-63990256D01*
X171995226Y-63801898D01*
X172035000Y-63601939D01*
X172035000Y-63398061D01*
X171995226Y-63198102D01*
X171917205Y-63009744D01*
X171803937Y-62840226D01*
X171659774Y-62696063D01*
X171490256Y-62582795D01*
X171301898Y-62504774D01*
X171101939Y-62465000D01*
X170898061Y-62465000D01*
X170748841Y-62494681D01*
X170688405Y-62381614D01*
X170577962Y-62247038D01*
X170443386Y-62136595D01*
X170289850Y-62054528D01*
X170123254Y-62003992D01*
X169950000Y-61986928D01*
X169025000Y-61986928D01*
X168851746Y-62003992D01*
X168685150Y-62054528D01*
X168531614Y-62136595D01*
X168397038Y-62247038D01*
X168286595Y-62381614D01*
X168204528Y-62535150D01*
X168153992Y-62701746D01*
X168136928Y-62875000D01*
X168136928Y-63872850D01*
X167863072Y-63598994D01*
X167863072Y-62875000D01*
X167846008Y-62701746D01*
X167795472Y-62535150D01*
X167713405Y-62381614D01*
X167602962Y-62247038D01*
X167468386Y-62136595D01*
X167397500Y-62098706D01*
X167397500Y-60901294D01*
X167468386Y-60863405D01*
X167602962Y-60752962D01*
X167713405Y-60618386D01*
X167795472Y-60464850D01*
X167846008Y-60298254D01*
X167863072Y-60125000D01*
X167863072Y-58875000D01*
X167846008Y-58701746D01*
X167795472Y-58535150D01*
X167713405Y-58381614D01*
X167602962Y-58247038D01*
X167468386Y-58136595D01*
X167314850Y-58054528D01*
X167148254Y-58003992D01*
X166975000Y-57986928D01*
X166050000Y-57986928D01*
X165876746Y-58003992D01*
X165710150Y-58054528D01*
X165556614Y-58136595D01*
X165422038Y-58247038D01*
X165311595Y-58381614D01*
X165229528Y-58535150D01*
X165178992Y-58701746D01*
X165161928Y-58875000D01*
X165161928Y-60125000D01*
X165178992Y-60298254D01*
X165229528Y-60464850D01*
X165311595Y-60618386D01*
X165422038Y-60752962D01*
X165556614Y-60863405D01*
X165627500Y-60901295D01*
X165627501Y-62098705D01*
X165556614Y-62136595D01*
X165422038Y-62247038D01*
X165311595Y-62381614D01*
X165229528Y-62535150D01*
X165178992Y-62701746D01*
X165161928Y-62875000D01*
X165161928Y-64125000D01*
X165178992Y-64298254D01*
X165229528Y-64464850D01*
X165311595Y-64618386D01*
X165422038Y-64752962D01*
X165556614Y-64863405D01*
X165710150Y-64945472D01*
X165876746Y-64996008D01*
X166050000Y-65013072D01*
X166773994Y-65013072D01*
X170615000Y-68854079D01*
X170615001Y-74311422D01*
X162054539Y-65750961D01*
X162069000Y-65678260D01*
X162069000Y-65385740D01*
X162011932Y-65098842D01*
X161899990Y-64828589D01*
X161737475Y-64585368D01*
X161530632Y-64378525D01*
X161356240Y-64262000D01*
X161530632Y-64145475D01*
X161737475Y-63938632D01*
X161899990Y-63695411D01*
X162011932Y-63425158D01*
X162069000Y-63138260D01*
X162069000Y-62845740D01*
X162011932Y-62558842D01*
X161899990Y-62288589D01*
X161737475Y-62045368D01*
X161530632Y-61838525D01*
X161356240Y-61722000D01*
X161530632Y-61605475D01*
X161737475Y-61398632D01*
X161899990Y-61155411D01*
X162011932Y-60885158D01*
X162069000Y-60598260D01*
X162069000Y-60305740D01*
X162011932Y-60018842D01*
X161899990Y-59748589D01*
X161737475Y-59505368D01*
X161530632Y-59298525D01*
X161356240Y-59182000D01*
X161530632Y-59065475D01*
X161737475Y-58858632D01*
X161899990Y-58615411D01*
X162011932Y-58345158D01*
X162069000Y-58058260D01*
X162069000Y-57765740D01*
X162011932Y-57478842D01*
X161899990Y-57208589D01*
X161737475Y-56965368D01*
X161530632Y-56758525D01*
X161356240Y-56642000D01*
X161530632Y-56525475D01*
X161737475Y-56318632D01*
X161899990Y-56075411D01*
X162011932Y-55805158D01*
X162069000Y-55518260D01*
X162069000Y-55225740D01*
X162011932Y-54938842D01*
X161899990Y-54668589D01*
X161737475Y-54425368D01*
X161605620Y-54293513D01*
X161678180Y-54271502D01*
X161788494Y-54212537D01*
X161885185Y-54133185D01*
X161964537Y-54036494D01*
X162023502Y-53926180D01*
X162059812Y-53806482D01*
X162072072Y-53682000D01*
X162072072Y-51982000D01*
X162059812Y-51857518D01*
X162023502Y-51737820D01*
X161964537Y-51627506D01*
X161885185Y-51530815D01*
X161788494Y-51451463D01*
X161678180Y-51392498D01*
X161653462Y-51385000D01*
X165627501Y-51385000D01*
X165627500Y-54098705D01*
X165556614Y-54136595D01*
X165422038Y-54247038D01*
X165311595Y-54381614D01*
X165229528Y-54535150D01*
X165178992Y-54701746D01*
X165161928Y-54875000D01*
X165161928Y-56125000D01*
X165178992Y-56298254D01*
X165229528Y-56464850D01*
X165311595Y-56618386D01*
X165422038Y-56752962D01*
X165556614Y-56863405D01*
X165710150Y-56945472D01*
X165876746Y-56996008D01*
X166050000Y-57013072D01*
X166975000Y-57013072D01*
X167148254Y-56996008D01*
X167314850Y-56945472D01*
X167468386Y-56863405D01*
X167602962Y-56752962D01*
X167713405Y-56618386D01*
X167795472Y-56464850D01*
X167846008Y-56298254D01*
X167863072Y-56125000D01*
X167863072Y-54875000D01*
X167846008Y-54701746D01*
X167795472Y-54535150D01*
X167713405Y-54381614D01*
X167602962Y-54247038D01*
X167468386Y-54136595D01*
X167397500Y-54098706D01*
X167397500Y-51055965D01*
X167401781Y-51012499D01*
X167397500Y-50969033D01*
X167397500Y-50969023D01*
X167384695Y-50839010D01*
X167334089Y-50672187D01*
X167251911Y-50518441D01*
X167141317Y-50383683D01*
X167107544Y-50355966D01*
X166656534Y-49904956D01*
X166628817Y-49871183D01*
X166494059Y-49760589D01*
X166340313Y-49678411D01*
X166173490Y-49627805D01*
X166165317Y-49627000D01*
X184195367Y-49627000D01*
X183790109Y-49707611D01*
X183327859Y-49899081D01*
X182911844Y-50177053D01*
X182558053Y-50530844D01*
X182280081Y-50946859D01*
X182088611Y-51409109D01*
X181991000Y-51899832D01*
X181991000Y-52400168D01*
X182088611Y-52890891D01*
X182280081Y-53353141D01*
X182558053Y-53769156D01*
X182911844Y-54122947D01*
X183327859Y-54400919D01*
X183790109Y-54592389D01*
X184280832Y-54690000D01*
X184781168Y-54690000D01*
X185271891Y-54592389D01*
X185423691Y-54529512D01*
X185385731Y-54621154D01*
X185293000Y-55087340D01*
X185293000Y-55562660D01*
X185385731Y-56028846D01*
X185423691Y-56120488D01*
X185271891Y-56057611D01*
X184781168Y-55960000D01*
X184280832Y-55960000D01*
X183790109Y-56057611D01*
X183327859Y-56249081D01*
X182911844Y-56527053D01*
X182558053Y-56880844D01*
X182280081Y-57296859D01*
X182088611Y-57759109D01*
X181991000Y-58249832D01*
X181991000Y-58750168D01*
X182088611Y-59240891D01*
X182280081Y-59703141D01*
X182558053Y-60119156D01*
X182911844Y-60472947D01*
X183327859Y-60750919D01*
X183790109Y-60942389D01*
X184280832Y-61040000D01*
X184781168Y-61040000D01*
X185271891Y-60942389D01*
X185734141Y-60750919D01*
X186150156Y-60472947D01*
X186503947Y-60119156D01*
X186781919Y-59703141D01*
X186973389Y-59240891D01*
X187071000Y-58750168D01*
X187071000Y-58249832D01*
X186973389Y-57759109D01*
X186910512Y-57607309D01*
X187002154Y-57645269D01*
X187468340Y-57738000D01*
X187943660Y-57738000D01*
X188409846Y-57645269D01*
X188501488Y-57607309D01*
X188438611Y-57759109D01*
X188341000Y-58249832D01*
X188341000Y-58750168D01*
X188438611Y-59240891D01*
X188630081Y-59703141D01*
X188908053Y-60119156D01*
X189261844Y-60472947D01*
X189677859Y-60750919D01*
X190140109Y-60942389D01*
X190630832Y-61040000D01*
X191131168Y-61040000D01*
X191621891Y-60942389D01*
X192084141Y-60750919D01*
X192500156Y-60472947D01*
X192853947Y-60119156D01*
X193131919Y-59703141D01*
X193323389Y-59240891D01*
X193421000Y-58750168D01*
X193421000Y-58249832D01*
X193323389Y-57759109D01*
X193131919Y-57296859D01*
X192853947Y-56880844D01*
X192500156Y-56527053D01*
X192084141Y-56249081D01*
X191621891Y-56057611D01*
X191131168Y-55960000D01*
X190630832Y-55960000D01*
X190140109Y-56057611D01*
X189988309Y-56120488D01*
X190026269Y-56028846D01*
X190119000Y-55562660D01*
X190119000Y-55087340D01*
X190026269Y-54621154D01*
X189988309Y-54529512D01*
X190140109Y-54592389D01*
X190630832Y-54690000D01*
X191131168Y-54690000D01*
X191621891Y-54592389D01*
X192084141Y-54400919D01*
X192500156Y-54122947D01*
X192853947Y-53769156D01*
X193131919Y-53353141D01*
X193323389Y-52890891D01*
X193421000Y-52400168D01*
X193421000Y-51899832D01*
X193323389Y-51409109D01*
X193131919Y-50946859D01*
X192853947Y-50530844D01*
X192500156Y-50177053D01*
X192084141Y-49899081D01*
X191621891Y-49707611D01*
X191216633Y-49627000D01*
X194868985Y-49627000D01*
X194790042Y-116464699D01*
X194790000Y-116465124D01*
X194790000Y-116500000D01*
X194789960Y-116534038D01*
X194790000Y-116534449D01*
X194790001Y-120790000D01*
X191596659Y-120790000D01*
X192053141Y-120600919D01*
X192469156Y-120322947D01*
X192822947Y-119969156D01*
X193100919Y-119553141D01*
X193292389Y-119090891D01*
X193390000Y-118600168D01*
X193390000Y-118099832D01*
X193292389Y-117609109D01*
X193100919Y-117146859D01*
X192822947Y-116730844D01*
X192469156Y-116377053D01*
X192053141Y-116099081D01*
X191590891Y-115907611D01*
X191100168Y-115810000D01*
X190599832Y-115810000D01*
X190109109Y-115907611D01*
X189957309Y-115970488D01*
X189995269Y-115878846D01*
X190088000Y-115412660D01*
X190088000Y-114937340D01*
X189995269Y-114471154D01*
X189957309Y-114379512D01*
X190109109Y-114442389D01*
X190599832Y-114540000D01*
X191100168Y-114540000D01*
X191590891Y-114442389D01*
X192053141Y-114250919D01*
X192469156Y-113972947D01*
X192822947Y-113619156D01*
X193100919Y-113203141D01*
X193292389Y-112740891D01*
X193390000Y-112250168D01*
X193390000Y-111749832D01*
X193292389Y-111259109D01*
X193100919Y-110796859D01*
X192822947Y-110380844D01*
X192469156Y-110027053D01*
X192053141Y-109749081D01*
X191590891Y-109557611D01*
X191100168Y-109460000D01*
X190599832Y-109460000D01*
X190109109Y-109557611D01*
X189646859Y-109749081D01*
X189230844Y-110027053D01*
X188877053Y-110380844D01*
X188599081Y-110796859D01*
X188407611Y-111259109D01*
X188310000Y-111749832D01*
X188310000Y-112250168D01*
X188407611Y-112740891D01*
X188470488Y-112892691D01*
X188378846Y-112854731D01*
X187912660Y-112762000D01*
X187437340Y-112762000D01*
X186971154Y-112854731D01*
X186879512Y-112892691D01*
X186942389Y-112740891D01*
X187040000Y-112250168D01*
X187040000Y-111749832D01*
X186942389Y-111259109D01*
X186750919Y-110796859D01*
X186472947Y-110380844D01*
X186119156Y-110027053D01*
X185703141Y-109749081D01*
X185240891Y-109557611D01*
X184750168Y-109460000D01*
X184249832Y-109460000D01*
X183759109Y-109557611D01*
X183296859Y-109749081D01*
X182880844Y-110027053D01*
X182527053Y-110380844D01*
X182249081Y-110796859D01*
X182057611Y-111259109D01*
X181960000Y-111749832D01*
X181960000Y-112250168D01*
X182057611Y-112740891D01*
X182249081Y-113203141D01*
X182527053Y-113619156D01*
X182880844Y-113972947D01*
X183296859Y-114250919D01*
X183759109Y-114442389D01*
X184249832Y-114540000D01*
X184750168Y-114540000D01*
X185240891Y-114442389D01*
X185392691Y-114379512D01*
X185354731Y-114471154D01*
X185262000Y-114937340D01*
X185262000Y-115412660D01*
X185354731Y-115878846D01*
X185392691Y-115970488D01*
X185240891Y-115907611D01*
X184750168Y-115810000D01*
X184249832Y-115810000D01*
X183759109Y-115907611D01*
X183296859Y-116099081D01*
X182880844Y-116377053D01*
X182527053Y-116730844D01*
X182249081Y-117146859D01*
X182057611Y-117609109D01*
X181960000Y-118099832D01*
X181960000Y-118600168D01*
X182057611Y-119090891D01*
X182249081Y-119553141D01*
X182527053Y-119969156D01*
X182880844Y-120322947D01*
X183296859Y-120600919D01*
X183753341Y-120790000D01*
X151686453Y-120790000D01*
X152046738Y-120429715D01*
X152335107Y-119998141D01*
X152533739Y-119518601D01*
X152635000Y-119009525D01*
X152635000Y-118490475D01*
X152533739Y-117981399D01*
X152335107Y-117501859D01*
X152046738Y-117070285D01*
X151726453Y-116750000D01*
X159611928Y-116750000D01*
X159611928Y-118250000D01*
X159638599Y-118520799D01*
X159717589Y-118781192D01*
X159845860Y-119021171D01*
X160018485Y-119231515D01*
X160228829Y-119404140D01*
X160468808Y-119532411D01*
X160729201Y-119611401D01*
X161000000Y-119638072D01*
X163000000Y-119638072D01*
X163270799Y-119611401D01*
X163531192Y-119532411D01*
X163771171Y-119404140D01*
X163981515Y-119231515D01*
X164154140Y-119021171D01*
X164282411Y-118781192D01*
X164361401Y-118520799D01*
X164388072Y-118250000D01*
X164388072Y-116750000D01*
X164361401Y-116479201D01*
X164282411Y-116218808D01*
X164154140Y-115978829D01*
X163981515Y-115768485D01*
X163771171Y-115595860D01*
X163531192Y-115467589D01*
X163270799Y-115388599D01*
X163000000Y-115361928D01*
X161000000Y-115361928D01*
X160729201Y-115388599D01*
X160468808Y-115467589D01*
X160228829Y-115595860D01*
X160018485Y-115768485D01*
X159845860Y-115978829D01*
X159717589Y-116218808D01*
X159638599Y-116479201D01*
X159611928Y-116750000D01*
X151726453Y-116750000D01*
X151679715Y-116703262D01*
X151248141Y-116414893D01*
X150768601Y-116216261D01*
X150259525Y-116115000D01*
X149740475Y-116115000D01*
X149231399Y-116216261D01*
X148751859Y-116414893D01*
X148320285Y-116703262D01*
X147953262Y-117070285D01*
X147664893Y-117501859D01*
X147466261Y-117981399D01*
X147365000Y-118490475D01*
X147365000Y-119009525D01*
X147466261Y-119518601D01*
X147664893Y-119998141D01*
X147953262Y-120429715D01*
X148313547Y-120790000D01*
X141210000Y-120790000D01*
X141210000Y-117564080D01*
X141615525Y-117564080D01*
X141699208Y-117818261D01*
X141971775Y-117949158D01*
X142264642Y-118024365D01*
X142566553Y-118040991D01*
X142865907Y-117998397D01*
X143151199Y-117898222D01*
X143300792Y-117818261D01*
X143384475Y-117564080D01*
X142500000Y-116679605D01*
X141615525Y-117564080D01*
X141210000Y-117564080D01*
X141210000Y-117310096D01*
X141435920Y-117384475D01*
X142320395Y-116500000D01*
X142679605Y-116500000D01*
X143564080Y-117384475D01*
X143818261Y-117300792D01*
X143949158Y-117028225D01*
X144024365Y-116735358D01*
X144040991Y-116433447D01*
X143998397Y-116134093D01*
X143898222Y-115848801D01*
X143818261Y-115699208D01*
X143564080Y-115615525D01*
X142679605Y-116500000D01*
X142320395Y-116500000D01*
X141435920Y-115615525D01*
X141210000Y-115689904D01*
X141210000Y-114832305D01*
X141307688Y-114978505D01*
X141521495Y-115192312D01*
X141664310Y-115287738D01*
X141615525Y-115435920D01*
X142500000Y-116320395D01*
X143384475Y-115435920D01*
X143335690Y-115287738D01*
X143478505Y-115192312D01*
X143692312Y-114978505D01*
X143754790Y-114885000D01*
X149461546Y-114885000D01*
X149509744Y-114917205D01*
X149698102Y-114995226D01*
X149898061Y-115035000D01*
X150101939Y-115035000D01*
X150301898Y-114995226D01*
X150490256Y-114917205D01*
X150659774Y-114803937D01*
X150803937Y-114659774D01*
X150917205Y-114490256D01*
X150995226Y-114301898D01*
X151035000Y-114101939D01*
X151035000Y-113898061D01*
X150995226Y-113698102D01*
X150917205Y-113509744D01*
X150803937Y-113340226D01*
X150659774Y-113196063D01*
X150490256Y-113082795D01*
X150301898Y-113004774D01*
X150101939Y-112965000D01*
X149898061Y-112965000D01*
X149698102Y-113004774D01*
X149509744Y-113082795D01*
X149461546Y-113115000D01*
X143754790Y-113115000D01*
X143692312Y-113021495D01*
X143478505Y-112807688D01*
X143392169Y-112750000D01*
X143478505Y-112692312D01*
X143692312Y-112478505D01*
X143860299Y-112227095D01*
X143976011Y-111947743D01*
X144035000Y-111651184D01*
X144035000Y-111348816D01*
X143976011Y-111052257D01*
X143860299Y-110772905D01*
X143692312Y-110521495D01*
X143478505Y-110307688D01*
X143227095Y-110139701D01*
X142947743Y-110023989D01*
X142651184Y-109965000D01*
X142348816Y-109965000D01*
X142052257Y-110023989D01*
X141772905Y-110139701D01*
X141521495Y-110307688D01*
X141307688Y-110521495D01*
X141210000Y-110667695D01*
X141210000Y-108990475D01*
X147365000Y-108990475D01*
X147365000Y-109509525D01*
X147466261Y-110018601D01*
X147664893Y-110498141D01*
X147953262Y-110929715D01*
X148320285Y-111296738D01*
X148751859Y-111585107D01*
X149231399Y-111783739D01*
X149740475Y-111885000D01*
X150259525Y-111885000D01*
X150768601Y-111783739D01*
X151248141Y-111585107D01*
X151679715Y-111296738D01*
X152046738Y-110929715D01*
X152335107Y-110498141D01*
X152533739Y-110018601D01*
X152635000Y-109509525D01*
X152635000Y-108990475D01*
X152533739Y-108481399D01*
X152335107Y-108001859D01*
X152046738Y-107570285D01*
X151679715Y-107203262D01*
X151248141Y-106914893D01*
X150768601Y-106716261D01*
X150259525Y-106615000D01*
X149740475Y-106615000D01*
X149231399Y-106716261D01*
X148751859Y-106914893D01*
X148320285Y-107203262D01*
X147953262Y-107570285D01*
X147664893Y-108001859D01*
X147466261Y-108481399D01*
X147365000Y-108990475D01*
X141210000Y-108990475D01*
X141210000Y-100990475D01*
X147287000Y-100990475D01*
X147287000Y-101509525D01*
X147388261Y-102018601D01*
X147586893Y-102498141D01*
X147875262Y-102929715D01*
X148242285Y-103296738D01*
X148673859Y-103585107D01*
X149153399Y-103783739D01*
X149662475Y-103885000D01*
X150181525Y-103885000D01*
X150690601Y-103783739D01*
X151170141Y-103585107D01*
X151601715Y-103296738D01*
X151968738Y-102929715D01*
X152257107Y-102498141D01*
X152455739Y-102018601D01*
X152557000Y-101509525D01*
X152557000Y-100990475D01*
X152455739Y-100481399D01*
X152257107Y-100001859D01*
X151968738Y-99570285D01*
X151601715Y-99203262D01*
X151170141Y-98914893D01*
X150690601Y-98716261D01*
X150181525Y-98615000D01*
X149662475Y-98615000D01*
X149153399Y-98716261D01*
X148673859Y-98914893D01*
X148242285Y-99203262D01*
X147875262Y-99570285D01*
X147586893Y-100001859D01*
X147388261Y-100481399D01*
X147287000Y-100990475D01*
X141210000Y-100990475D01*
X141210000Y-100064080D01*
X141537525Y-100064080D01*
X141621208Y-100318261D01*
X141893775Y-100449158D01*
X142186642Y-100524365D01*
X142488553Y-100540991D01*
X142787907Y-100498397D01*
X143073199Y-100398222D01*
X143222792Y-100318261D01*
X143306475Y-100064080D01*
X142422000Y-99179605D01*
X141537525Y-100064080D01*
X141210000Y-100064080D01*
X141210000Y-99835776D01*
X141357920Y-99884475D01*
X142242395Y-99000000D01*
X142601605Y-99000000D01*
X143486080Y-99884475D01*
X143740261Y-99800792D01*
X143871158Y-99528225D01*
X143946365Y-99235358D01*
X143962991Y-98933447D01*
X143920397Y-98634093D01*
X143820222Y-98348801D01*
X143740261Y-98199208D01*
X143486080Y-98115525D01*
X142601605Y-99000000D01*
X142242395Y-99000000D01*
X141357920Y-98115525D01*
X141210000Y-98164224D01*
X141210000Y-97449040D01*
X141229688Y-97478505D01*
X141443495Y-97692312D01*
X141586310Y-97787738D01*
X141537525Y-97935920D01*
X142422000Y-98820395D01*
X143306475Y-97935920D01*
X143257690Y-97787738D01*
X143400505Y-97692312D01*
X143614312Y-97478505D01*
X143782299Y-97227095D01*
X143898011Y-96947743D01*
X143957000Y-96651184D01*
X143957000Y-96348816D01*
X143935060Y-96238518D01*
X145095049Y-95078530D01*
X145128817Y-95050817D01*
X145188163Y-94978505D01*
X145239411Y-94916059D01*
X145257289Y-94882611D01*
X145321589Y-94762313D01*
X145372195Y-94595490D01*
X145385000Y-94465477D01*
X145385000Y-94465469D01*
X145389281Y-94422000D01*
X145385000Y-94378531D01*
X145385000Y-93912576D01*
X147287174Y-92010402D01*
X147388261Y-92518601D01*
X147586893Y-92998141D01*
X147875262Y-93429715D01*
X148242285Y-93796738D01*
X148673859Y-94085107D01*
X149153399Y-94283739D01*
X149662475Y-94385000D01*
X150181525Y-94385000D01*
X150690601Y-94283739D01*
X151170141Y-94085107D01*
X151601715Y-93796738D01*
X151968738Y-93429715D01*
X152257107Y-92998141D01*
X152455739Y-92518601D01*
X152557000Y-92009525D01*
X152557000Y-91490475D01*
X152455739Y-90981399D01*
X152257107Y-90501859D01*
X151968738Y-90070285D01*
X151601715Y-89703262D01*
X151170141Y-89414893D01*
X151061231Y-89369781D01*
X151159774Y-89303937D01*
X151303937Y-89159774D01*
X151417205Y-88990256D01*
X151495226Y-88801898D01*
X151535000Y-88601939D01*
X151535000Y-88398061D01*
X151495226Y-88198102D01*
X151417205Y-88009744D01*
X151303937Y-87840226D01*
X151159774Y-87696063D01*
X150990256Y-87582795D01*
X150801898Y-87504774D01*
X150601939Y-87465000D01*
X150398061Y-87465000D01*
X150198102Y-87504774D01*
X150009744Y-87582795D01*
X149961546Y-87615000D01*
X149589467Y-87615000D01*
X149545998Y-87610719D01*
X149502529Y-87615000D01*
X149502521Y-87615000D01*
X149372508Y-87627805D01*
X149205685Y-87678411D01*
X149068175Y-87751911D01*
X149051939Y-87760589D01*
X148950951Y-87843468D01*
X148950949Y-87843470D01*
X148917181Y-87871183D01*
X148889468Y-87904951D01*
X143904956Y-92889464D01*
X143871183Y-92917181D01*
X143760589Y-93051940D01*
X143704620Y-93156651D01*
X143614312Y-93021495D01*
X143400505Y-92807688D01*
X143149095Y-92639701D01*
X142869743Y-92523989D01*
X142573184Y-92465000D01*
X142270816Y-92465000D01*
X141974257Y-92523989D01*
X141694905Y-92639701D01*
X141443495Y-92807688D01*
X141229688Y-93021495D01*
X141210000Y-93050960D01*
X141210000Y-83490475D01*
X147365000Y-83490475D01*
X147365000Y-84009525D01*
X147466261Y-84518601D01*
X147664893Y-84998141D01*
X147953262Y-85429715D01*
X148320285Y-85796738D01*
X148751859Y-86085107D01*
X149231399Y-86283739D01*
X149740475Y-86385000D01*
X150259525Y-86385000D01*
X150768601Y-86283739D01*
X151248141Y-86085107D01*
X151679715Y-85796738D01*
X152046738Y-85429715D01*
X152335107Y-84998141D01*
X152533739Y-84518601D01*
X152635000Y-84009525D01*
X152635000Y-83490475D01*
X152533739Y-82981399D01*
X152335107Y-82501859D01*
X152046738Y-82070285D01*
X151679715Y-81703262D01*
X151248141Y-81414893D01*
X150768601Y-81216261D01*
X150259525Y-81115000D01*
X149740475Y-81115000D01*
X149231399Y-81216261D01*
X148751859Y-81414893D01*
X148320285Y-81703262D01*
X147953262Y-82070285D01*
X147664893Y-82501859D01*
X147466261Y-82981399D01*
X147365000Y-83490475D01*
X141210000Y-83490475D01*
X141210000Y-82564080D01*
X141615525Y-82564080D01*
X141699208Y-82818261D01*
X141971775Y-82949158D01*
X142264642Y-83024365D01*
X142566553Y-83040991D01*
X142865907Y-82998397D01*
X143151199Y-82898222D01*
X143300792Y-82818261D01*
X143384475Y-82564080D01*
X142500000Y-81679605D01*
X141615525Y-82564080D01*
X141210000Y-82564080D01*
X141210000Y-82310096D01*
X141435920Y-82384475D01*
X142320395Y-81500000D01*
X142679605Y-81500000D01*
X143564080Y-82384475D01*
X143818261Y-82300792D01*
X143949158Y-82028225D01*
X144024365Y-81735358D01*
X144040991Y-81433447D01*
X143998397Y-81134093D01*
X143898222Y-80848801D01*
X143818261Y-80699208D01*
X143564080Y-80615525D01*
X142679605Y-81500000D01*
X142320395Y-81500000D01*
X141435920Y-80615525D01*
X141210000Y-80689904D01*
X141210000Y-79832305D01*
X141307688Y-79978505D01*
X141521495Y-80192312D01*
X141664310Y-80287738D01*
X141615525Y-80435920D01*
X142500000Y-81320395D01*
X143384475Y-80435920D01*
X143335690Y-80287738D01*
X143478505Y-80192312D01*
X143692312Y-79978505D01*
X143754790Y-79885000D01*
X150961546Y-79885000D01*
X151009744Y-79917205D01*
X151198102Y-79995226D01*
X151398061Y-80035000D01*
X151601939Y-80035000D01*
X151801898Y-79995226D01*
X151990256Y-79917205D01*
X152159774Y-79803937D01*
X152303937Y-79659774D01*
X152417205Y-79490256D01*
X152495226Y-79301898D01*
X152535000Y-79101939D01*
X152535000Y-78898061D01*
X152495226Y-78698102D01*
X152417205Y-78509744D01*
X152303937Y-78340226D01*
X152159774Y-78196063D01*
X151990256Y-78082795D01*
X151801898Y-78004774D01*
X151601939Y-77965000D01*
X151398061Y-77965000D01*
X151198102Y-78004774D01*
X151009744Y-78082795D01*
X150961546Y-78115000D01*
X143754790Y-78115000D01*
X143692312Y-78021495D01*
X143478505Y-77807688D01*
X143392169Y-77750000D01*
X143478505Y-77692312D01*
X143692312Y-77478505D01*
X143860299Y-77227095D01*
X143976011Y-76947743D01*
X144035000Y-76651184D01*
X144035000Y-76348816D01*
X143976011Y-76052257D01*
X143860299Y-75772905D01*
X143692312Y-75521495D01*
X143478505Y-75307688D01*
X143227095Y-75139701D01*
X142947743Y-75023989D01*
X142651184Y-74965000D01*
X142348816Y-74965000D01*
X142052257Y-75023989D01*
X141772905Y-75139701D01*
X141521495Y-75307688D01*
X141307688Y-75521495D01*
X141210000Y-75667695D01*
X141210000Y-64810096D01*
X141435920Y-64884475D01*
X142320395Y-64000000D01*
X141435920Y-63115525D01*
X141210000Y-63189904D01*
X141210000Y-62332305D01*
X141307688Y-62478505D01*
X141521495Y-62692312D01*
X141664310Y-62787738D01*
X141615525Y-62935920D01*
X142500000Y-63820395D01*
X142514143Y-63806253D01*
X142693748Y-63985858D01*
X142679605Y-64000000D01*
X142693748Y-64014143D01*
X142514143Y-64193748D01*
X142500000Y-64179605D01*
X141615525Y-65064080D01*
X141699208Y-65318261D01*
X141971775Y-65449158D01*
X142264642Y-65524365D01*
X142566553Y-65540991D01*
X142865907Y-65498397D01*
X142971677Y-65461258D01*
X142975335Y-65498397D01*
X142977806Y-65523491D01*
X142983115Y-65540991D01*
X143028412Y-65690313D01*
X143110590Y-65844059D01*
X143221184Y-65978818D01*
X143254957Y-66006535D01*
X148493465Y-71245044D01*
X148504774Y-71301898D01*
X148582795Y-71490256D01*
X148696063Y-71659774D01*
X148840226Y-71803937D01*
X148908919Y-71849836D01*
X148751859Y-71914893D01*
X148320285Y-72203262D01*
X147953262Y-72570285D01*
X147664893Y-73001859D01*
X147466261Y-73481399D01*
X147365000Y-73990475D01*
X147365000Y-74509525D01*
X147466261Y-75018601D01*
X147664893Y-75498141D01*
X147953262Y-75929715D01*
X148320285Y-76296738D01*
X148751859Y-76585107D01*
X149231399Y-76783739D01*
X149740475Y-76885000D01*
X150259525Y-76885000D01*
X150768601Y-76783739D01*
X151248141Y-76585107D01*
X151679715Y-76296738D01*
X152046738Y-75929715D01*
X152335107Y-75498141D01*
X152533739Y-75018601D01*
X152635000Y-74509525D01*
X152635000Y-73990475D01*
X152533739Y-73481399D01*
X152335107Y-73001859D01*
X152046738Y-72570285D01*
X151679715Y-72203262D01*
X151248141Y-71914893D01*
X150768601Y-71716261D01*
X150325134Y-71628050D01*
X150417205Y-71490256D01*
X150495226Y-71301898D01*
X150535000Y-71101939D01*
X150535000Y-70898061D01*
X150495226Y-70698102D01*
X150417205Y-70509744D01*
X150303937Y-70340226D01*
X150159774Y-70196063D01*
X149990256Y-70082795D01*
X149801898Y-70004774D01*
X149745044Y-69993465D01*
X145742054Y-65990475D01*
X147365000Y-65990475D01*
X147365000Y-66509525D01*
X147466261Y-67018601D01*
X147664893Y-67498141D01*
X147953262Y-67929715D01*
X148320285Y-68296738D01*
X148751859Y-68585107D01*
X149231399Y-68783739D01*
X149740475Y-68885000D01*
X150259525Y-68885000D01*
X150768601Y-68783739D01*
X151248141Y-68585107D01*
X151679715Y-68296738D01*
X152046738Y-67929715D01*
X152335107Y-67498141D01*
X152533739Y-67018601D01*
X152635000Y-66509525D01*
X152635000Y-65990475D01*
X152533739Y-65481399D01*
X152335107Y-65001859D01*
X152046738Y-64570285D01*
X151679715Y-64203262D01*
X151248141Y-63914893D01*
X150768601Y-63716261D01*
X150259525Y-63615000D01*
X149740475Y-63615000D01*
X149231399Y-63716261D01*
X148751859Y-63914893D01*
X148320285Y-64203262D01*
X147953262Y-64570285D01*
X147664893Y-65001859D01*
X147466261Y-65481399D01*
X147365000Y-65990475D01*
X145742054Y-65990475D01*
X144735001Y-64983423D01*
X144735001Y-62893470D01*
X144739282Y-62850001D01*
X144735001Y-62806532D01*
X144735001Y-62806524D01*
X144722196Y-62676511D01*
X144671590Y-62509688D01*
X144589412Y-62355942D01*
X144506533Y-62254954D01*
X144506531Y-62254952D01*
X144478818Y-62221184D01*
X144445050Y-62193471D01*
X144013060Y-61761482D01*
X144035000Y-61651184D01*
X144035000Y-61348816D01*
X143976011Y-61052257D01*
X143860299Y-60772905D01*
X143692312Y-60521495D01*
X143478505Y-60307688D01*
X143392169Y-60250000D01*
X143478505Y-60192312D01*
X143692312Y-59978505D01*
X143860299Y-59727095D01*
X143976011Y-59447743D01*
X144035000Y-59151184D01*
X144035000Y-58848816D01*
X143976011Y-58552257D01*
X143860299Y-58272905D01*
X143692312Y-58021495D01*
X143478505Y-57807688D01*
X143227095Y-57639701D01*
X142947743Y-57523989D01*
X142651184Y-57465000D01*
X142348816Y-57465000D01*
X142052257Y-57523989D01*
X141772905Y-57639701D01*
X141521495Y-57807688D01*
X141307688Y-58021495D01*
X141210000Y-58167695D01*
X141210000Y-56490475D01*
X147365000Y-56490475D01*
X147365000Y-57009525D01*
X147466261Y-57518601D01*
X147664893Y-57998141D01*
X147953262Y-58429715D01*
X148320285Y-58796738D01*
X148751859Y-59085107D01*
X149231399Y-59283739D01*
X149740475Y-59385000D01*
X150259525Y-59385000D01*
X150768601Y-59283739D01*
X151248141Y-59085107D01*
X151679715Y-58796738D01*
X152046738Y-58429715D01*
X152335107Y-57998141D01*
X152533739Y-57518601D01*
X152635000Y-57009525D01*
X152635000Y-56490475D01*
X152533739Y-55981399D01*
X152335107Y-55501859D01*
X152046738Y-55070285D01*
X151679715Y-54703262D01*
X151248141Y-54414893D01*
X150768601Y-54216261D01*
X150259525Y-54115000D01*
X149740475Y-54115000D01*
X149231399Y-54216261D01*
X148751859Y-54414893D01*
X148320285Y-54703262D01*
X147953262Y-55070285D01*
X147664893Y-55501859D01*
X147466261Y-55981399D01*
X147365000Y-56490475D01*
X141210000Y-56490475D01*
X141210000Y-52398061D01*
X149465000Y-52398061D01*
X149465000Y-52601939D01*
X149504774Y-52801898D01*
X149582795Y-52990256D01*
X149696063Y-53159774D01*
X149840226Y-53303937D01*
X150009744Y-53417205D01*
X150198102Y-53495226D01*
X150398061Y-53535000D01*
X150601939Y-53535000D01*
X150801898Y-53495226D01*
X150990256Y-53417205D01*
X151159774Y-53303937D01*
X151197070Y-53266641D01*
X151242028Y-53414850D01*
X151324095Y-53568386D01*
X151434538Y-53702962D01*
X151569114Y-53813405D01*
X151722650Y-53895472D01*
X151889246Y-53946008D01*
X152062500Y-53963072D01*
X152987500Y-53963072D01*
X153160754Y-53946008D01*
X153327350Y-53895472D01*
X153480886Y-53813405D01*
X153615462Y-53702962D01*
X153725905Y-53568386D01*
X153807972Y-53414850D01*
X153858508Y-53248254D01*
X153875572Y-53075000D01*
X153875572Y-50925000D01*
X153858508Y-50751746D01*
X153807972Y-50585150D01*
X153725905Y-50431614D01*
X153615462Y-50297038D01*
X153480886Y-50186595D01*
X153327350Y-50104528D01*
X153160754Y-50053992D01*
X152987500Y-50036928D01*
X152062500Y-50036928D01*
X151889246Y-50053992D01*
X151722650Y-50104528D01*
X151569114Y-50186595D01*
X151434538Y-50297038D01*
X151324095Y-50431614D01*
X151242028Y-50585150D01*
X151191492Y-50751746D01*
X151174428Y-50925000D01*
X151174428Y-51115000D01*
X151043469Y-51115000D01*
X151000000Y-51110719D01*
X150956531Y-51115000D01*
X150956523Y-51115000D01*
X150826510Y-51127805D01*
X150659687Y-51178411D01*
X150505941Y-51260589D01*
X150371183Y-51371183D01*
X150343468Y-51404954D01*
X150254957Y-51493465D01*
X150198102Y-51504774D01*
X150009744Y-51582795D01*
X149840226Y-51696063D01*
X149696063Y-51840226D01*
X149582795Y-52009744D01*
X149504774Y-52198102D01*
X149465000Y-52398061D01*
X141210000Y-52398061D01*
X141210000Y-49627000D01*
X156834683Y-49627000D01*
X156826510Y-49627805D01*
M02*
