G04 #@! TF.GenerationSoftware,KiCad,Pcbnew,5.1.6-c6e7f7d~87~ubuntu20.04.1*
G04 #@! TF.CreationDate,2020-07-16T12:52:22+01:00*
G04 #@! TF.ProjectId,spikeling,7370696b-656c-4696-9e67-2e6b69636164,rev?*
G04 #@! TF.SameCoordinates,Original*
G04 #@! TF.FileFunction,Soldermask,Bot*
G04 #@! TF.FilePolarity,Negative*
%FSLAX46Y46*%
G04 Gerber Fmt 4.6, Leading zero omitted, Abs format (unit mm)*
G04 Created by KiCad (PCBNEW 5.1.6-c6e7f7d~87~ubuntu20.04.1) date 2020-07-16 12:52:22*
%MOMM*%
%LPD*%
G01*
G04 APERTURE LIST*
%ADD10C,0.100000*%
G04 APERTURE END LIST*
D10*
G36*
X150598254Y-116777818D02*
G01*
X150971511Y-116932426D01*
X150971513Y-116932427D01*
X151307436Y-117156884D01*
X151593116Y-117442564D01*
X151817574Y-117778489D01*
X151972182Y-118151746D01*
X152051000Y-118547993D01*
X152051000Y-118952007D01*
X151972182Y-119348254D01*
X151869199Y-119596876D01*
X151817573Y-119721513D01*
X151593116Y-120057436D01*
X151307436Y-120343116D01*
X150971513Y-120567573D01*
X150971512Y-120567574D01*
X150971511Y-120567574D01*
X150598254Y-120722182D01*
X150202007Y-120801000D01*
X149797993Y-120801000D01*
X149401746Y-120722182D01*
X149028489Y-120567574D01*
X149028488Y-120567574D01*
X149028487Y-120567573D01*
X148692564Y-120343116D01*
X148406884Y-120057436D01*
X148182427Y-119721513D01*
X148130801Y-119596876D01*
X148027818Y-119348254D01*
X147949000Y-118952007D01*
X147949000Y-118547993D01*
X148027818Y-118151746D01*
X148182426Y-117778489D01*
X148406884Y-117442564D01*
X148692564Y-117156884D01*
X149028487Y-116932427D01*
X149028489Y-116932426D01*
X149401746Y-116777818D01*
X149797993Y-116699000D01*
X150202007Y-116699000D01*
X150598254Y-116777818D01*
G37*
G36*
X191294579Y-116444112D02*
G01*
X191420544Y-116469168D01*
X191550556Y-116523021D01*
X191776512Y-116616615D01*
X191776513Y-116616616D01*
X192096877Y-116830676D01*
X192369324Y-117103123D01*
X192459907Y-117238690D01*
X192583385Y-117423488D01*
X192669757Y-117632009D01*
X192730832Y-117779456D01*
X192806000Y-118157351D01*
X192806000Y-118542649D01*
X192730832Y-118920544D01*
X192699508Y-118996166D01*
X192583385Y-119276512D01*
X192583384Y-119276513D01*
X192369324Y-119596877D01*
X192096877Y-119869324D01*
X191882816Y-120012355D01*
X191776512Y-120083385D01*
X191567991Y-120169757D01*
X191420544Y-120230832D01*
X191294579Y-120255888D01*
X191042651Y-120306000D01*
X190657349Y-120306000D01*
X190405421Y-120255888D01*
X190279456Y-120230832D01*
X190132009Y-120169757D01*
X189923488Y-120083385D01*
X189817184Y-120012355D01*
X189603123Y-119869324D01*
X189330676Y-119596877D01*
X189116616Y-119276513D01*
X189116615Y-119276512D01*
X189000492Y-118996166D01*
X188969168Y-118920544D01*
X188894000Y-118542649D01*
X188894000Y-118157351D01*
X188969168Y-117779456D01*
X189030243Y-117632009D01*
X189116615Y-117423488D01*
X189240093Y-117238690D01*
X189330676Y-117103123D01*
X189603123Y-116830676D01*
X189923487Y-116616616D01*
X189923488Y-116616615D01*
X190149444Y-116523021D01*
X190279456Y-116469168D01*
X190405421Y-116444112D01*
X190657349Y-116394000D01*
X191042651Y-116394000D01*
X191294579Y-116444112D01*
G37*
G36*
X184944579Y-116444112D02*
G01*
X185070544Y-116469168D01*
X185200556Y-116523021D01*
X185426512Y-116616615D01*
X185426513Y-116616616D01*
X185746877Y-116830676D01*
X186019324Y-117103123D01*
X186109907Y-117238690D01*
X186233385Y-117423488D01*
X186319757Y-117632009D01*
X186380832Y-117779456D01*
X186456000Y-118157351D01*
X186456000Y-118542649D01*
X186380832Y-118920544D01*
X186349508Y-118996166D01*
X186233385Y-119276512D01*
X186233384Y-119276513D01*
X186019324Y-119596877D01*
X185746877Y-119869324D01*
X185532816Y-120012355D01*
X185426512Y-120083385D01*
X185217991Y-120169757D01*
X185070544Y-120230832D01*
X184944579Y-120255888D01*
X184692651Y-120306000D01*
X184307349Y-120306000D01*
X184055421Y-120255888D01*
X183929456Y-120230832D01*
X183782009Y-120169757D01*
X183573488Y-120083385D01*
X183467184Y-120012355D01*
X183253123Y-119869324D01*
X182980676Y-119596877D01*
X182766616Y-119276513D01*
X182766615Y-119276512D01*
X182650492Y-118996166D01*
X182619168Y-118920544D01*
X182544000Y-118542649D01*
X182544000Y-118157351D01*
X182619168Y-117779456D01*
X182680243Y-117632009D01*
X182766615Y-117423488D01*
X182890093Y-117238690D01*
X182980676Y-117103123D01*
X183253123Y-116830676D01*
X183573487Y-116616616D01*
X183573488Y-116616615D01*
X183799444Y-116523021D01*
X183929456Y-116469168D01*
X184055421Y-116444112D01*
X184307349Y-116394000D01*
X184692651Y-116394000D01*
X184944579Y-116444112D01*
G37*
G36*
X163226979Y-115963293D02*
G01*
X163360625Y-116003834D01*
X163483784Y-116069664D01*
X163591740Y-116158260D01*
X163680336Y-116266216D01*
X163746166Y-116389375D01*
X163786707Y-116523021D01*
X163801000Y-116668140D01*
X163801000Y-118331860D01*
X163786707Y-118476979D01*
X163746166Y-118610625D01*
X163680336Y-118733784D01*
X163591740Y-118841740D01*
X163483784Y-118930336D01*
X163360625Y-118996166D01*
X163226979Y-119036707D01*
X163081860Y-119051000D01*
X160918140Y-119051000D01*
X160773021Y-119036707D01*
X160639375Y-118996166D01*
X160516216Y-118930336D01*
X160408260Y-118841740D01*
X160319664Y-118733784D01*
X160253834Y-118610625D01*
X160213293Y-118476979D01*
X160199000Y-118331860D01*
X160199000Y-116668140D01*
X160213293Y-116523021D01*
X160253834Y-116389375D01*
X160319664Y-116266216D01*
X160408260Y-116158260D01*
X160516216Y-116069664D01*
X160639375Y-116003834D01*
X160773021Y-115963293D01*
X160918140Y-115949000D01*
X163081860Y-115949000D01*
X163226979Y-115963293D01*
G37*
G36*
X142777395Y-115585546D02*
G01*
X142950466Y-115657234D01*
X142950467Y-115657235D01*
X143106227Y-115761310D01*
X143238690Y-115893773D01*
X143238691Y-115893775D01*
X143342766Y-116049534D01*
X143414454Y-116222605D01*
X143451000Y-116406333D01*
X143451000Y-116593667D01*
X143414454Y-116777395D01*
X143342766Y-116950466D01*
X143342765Y-116950467D01*
X143238690Y-117106227D01*
X143106227Y-117238690D01*
X143027818Y-117291081D01*
X142950466Y-117342766D01*
X142777395Y-117414454D01*
X142593667Y-117451000D01*
X142406333Y-117451000D01*
X142222605Y-117414454D01*
X142049534Y-117342766D01*
X141972182Y-117291081D01*
X141893773Y-117238690D01*
X141761310Y-117106227D01*
X141657235Y-116950467D01*
X141657234Y-116950466D01*
X141585546Y-116777395D01*
X141549000Y-116593667D01*
X141549000Y-116406333D01*
X141585546Y-116222605D01*
X141657234Y-116049534D01*
X141761309Y-115893775D01*
X141761310Y-115893773D01*
X141893773Y-115761310D01*
X142049533Y-115657235D01*
X142049534Y-115657234D01*
X142222605Y-115585546D01*
X142406333Y-115549000D01*
X142593667Y-115549000D01*
X142777395Y-115585546D01*
G37*
G36*
X188031820Y-113381143D02*
G01*
X188208500Y-113416287D01*
X188346373Y-113473396D01*
X188541355Y-113554160D01*
X188541356Y-113554161D01*
X188840920Y-113754323D01*
X189095677Y-114009080D01*
X189095678Y-114009082D01*
X189295840Y-114308645D01*
X189354584Y-114450466D01*
X189433713Y-114641500D01*
X189504000Y-114994859D01*
X189504000Y-115355141D01*
X189433713Y-115708500D01*
X189411838Y-115761310D01*
X189295840Y-116041355D01*
X189290375Y-116049534D01*
X189095677Y-116340920D01*
X188840920Y-116595677D01*
X188732471Y-116668140D01*
X188541355Y-116795840D01*
X188346373Y-116876604D01*
X188208500Y-116933713D01*
X188124276Y-116950466D01*
X187855142Y-117004000D01*
X187494858Y-117004000D01*
X187225724Y-116950466D01*
X187141500Y-116933713D01*
X187003627Y-116876604D01*
X186808645Y-116795840D01*
X186617529Y-116668140D01*
X186509080Y-116595677D01*
X186254323Y-116340920D01*
X186059625Y-116049534D01*
X186054160Y-116041355D01*
X185938162Y-115761310D01*
X185916287Y-115708500D01*
X185846000Y-115355141D01*
X185846000Y-114994859D01*
X185916287Y-114641500D01*
X185995416Y-114450466D01*
X186054160Y-114308645D01*
X186254322Y-114009082D01*
X186254323Y-114009080D01*
X186509080Y-113754323D01*
X186808644Y-113554161D01*
X186808645Y-113554160D01*
X187003627Y-113473396D01*
X187141500Y-113416287D01*
X187318180Y-113381143D01*
X187494858Y-113346000D01*
X187855142Y-113346000D01*
X188031820Y-113381143D01*
G37*
G36*
X167826366Y-112715695D02*
G01*
X167983460Y-112763349D01*
X168128231Y-112840731D01*
X168255128Y-112944872D01*
X168359269Y-113071769D01*
X168436651Y-113216540D01*
X168484305Y-113373634D01*
X168501000Y-113543140D01*
X168501000Y-115456860D01*
X168484305Y-115626366D01*
X168436651Y-115783460D01*
X168359269Y-115928231D01*
X168255128Y-116055128D01*
X168128231Y-116159269D01*
X167983460Y-116236651D01*
X167826366Y-116284305D01*
X167656860Y-116301000D01*
X165743140Y-116301000D01*
X165573634Y-116284305D01*
X165416540Y-116236651D01*
X165271769Y-116159269D01*
X165144872Y-116055128D01*
X165040731Y-115928231D01*
X164963349Y-115783460D01*
X164915695Y-115626366D01*
X164899000Y-115456860D01*
X164899000Y-113543140D01*
X164915695Y-113373634D01*
X164963349Y-113216540D01*
X165040731Y-113071769D01*
X165144872Y-112944872D01*
X165271769Y-112840731D01*
X165416540Y-112763349D01*
X165573634Y-112715695D01*
X165743140Y-112699000D01*
X167656860Y-112699000D01*
X167826366Y-112715695D01*
G37*
G36*
X142777395Y-113085546D02*
G01*
X142950466Y-113157234D01*
X142950467Y-113157235D01*
X143106227Y-113261310D01*
X143238690Y-113393773D01*
X143238691Y-113393775D01*
X143342766Y-113549534D01*
X143414454Y-113722605D01*
X143451000Y-113906333D01*
X143451000Y-114093667D01*
X143414454Y-114277395D01*
X143342766Y-114450466D01*
X143342765Y-114450467D01*
X143238690Y-114606227D01*
X143106227Y-114738690D01*
X143027818Y-114791081D01*
X142950466Y-114842766D01*
X142777395Y-114914454D01*
X142593667Y-114951000D01*
X142406333Y-114951000D01*
X142222605Y-114914454D01*
X142049534Y-114842766D01*
X141972182Y-114791081D01*
X141893773Y-114738690D01*
X141761310Y-114606227D01*
X141657235Y-114450467D01*
X141657234Y-114450466D01*
X141585546Y-114277395D01*
X141549000Y-114093667D01*
X141549000Y-113906333D01*
X141585546Y-113722605D01*
X141657234Y-113549534D01*
X141761309Y-113393775D01*
X141761310Y-113393773D01*
X141893773Y-113261310D01*
X142049533Y-113157235D01*
X142049534Y-113157234D01*
X142222605Y-113085546D01*
X142406333Y-113049000D01*
X142593667Y-113049000D01*
X142777395Y-113085546D01*
G37*
G36*
X184944579Y-110094112D02*
G01*
X185070544Y-110119168D01*
X185217991Y-110180243D01*
X185426512Y-110266615D01*
X185426513Y-110266616D01*
X185746877Y-110480676D01*
X186019324Y-110753123D01*
X186024794Y-110761310D01*
X186233385Y-111073488D01*
X186380832Y-111429457D01*
X186456000Y-111807349D01*
X186456000Y-112192651D01*
X186380832Y-112570543D01*
X186233385Y-112926512D01*
X186233384Y-112926513D01*
X186019324Y-113246877D01*
X185746877Y-113519324D01*
X185532816Y-113662355D01*
X185426512Y-113733385D01*
X185217991Y-113819757D01*
X185070544Y-113880832D01*
X184944579Y-113905888D01*
X184692651Y-113956000D01*
X184307349Y-113956000D01*
X184055421Y-113905888D01*
X183929456Y-113880832D01*
X183782009Y-113819757D01*
X183573488Y-113733385D01*
X183467184Y-113662355D01*
X183253123Y-113519324D01*
X182980676Y-113246877D01*
X182766616Y-112926513D01*
X182766615Y-112926512D01*
X182619168Y-112570543D01*
X182544000Y-112192651D01*
X182544000Y-111807349D01*
X182619168Y-111429457D01*
X182766615Y-111073488D01*
X182975206Y-110761310D01*
X182980676Y-110753123D01*
X183253123Y-110480676D01*
X183573487Y-110266616D01*
X183573488Y-110266615D01*
X183782009Y-110180243D01*
X183929456Y-110119168D01*
X184055421Y-110094112D01*
X184307349Y-110044000D01*
X184692651Y-110044000D01*
X184944579Y-110094112D01*
G37*
G36*
X191294579Y-110094112D02*
G01*
X191420544Y-110119168D01*
X191567991Y-110180243D01*
X191776512Y-110266615D01*
X191776513Y-110266616D01*
X192096877Y-110480676D01*
X192369324Y-110753123D01*
X192374794Y-110761310D01*
X192583385Y-111073488D01*
X192730832Y-111429457D01*
X192806000Y-111807349D01*
X192806000Y-112192651D01*
X192730832Y-112570543D01*
X192583385Y-112926512D01*
X192583384Y-112926513D01*
X192369324Y-113246877D01*
X192096877Y-113519324D01*
X191882816Y-113662355D01*
X191776512Y-113733385D01*
X191567991Y-113819757D01*
X191420544Y-113880832D01*
X191294579Y-113905888D01*
X191042651Y-113956000D01*
X190657349Y-113956000D01*
X190405421Y-113905888D01*
X190279456Y-113880832D01*
X190132009Y-113819757D01*
X189923488Y-113733385D01*
X189817184Y-113662355D01*
X189603123Y-113519324D01*
X189330676Y-113246877D01*
X189116616Y-112926513D01*
X189116615Y-112926512D01*
X188969168Y-112570543D01*
X188894000Y-112192651D01*
X188894000Y-111807349D01*
X188969168Y-111429457D01*
X189116615Y-111073488D01*
X189325206Y-110761310D01*
X189330676Y-110753123D01*
X189603123Y-110480676D01*
X189923487Y-110266616D01*
X189923488Y-110266615D01*
X190132009Y-110180243D01*
X190279456Y-110119168D01*
X190405421Y-110094112D01*
X190657349Y-110044000D01*
X191042651Y-110044000D01*
X191294579Y-110094112D01*
G37*
G36*
X163801000Y-113301000D02*
G01*
X160199000Y-113301000D01*
X160199000Y-109699000D01*
X163801000Y-109699000D01*
X163801000Y-113301000D01*
G37*
G36*
X142777395Y-110585546D02*
G01*
X142950466Y-110657234D01*
X142950467Y-110657235D01*
X143106227Y-110761310D01*
X143238690Y-110893773D01*
X143238691Y-110893775D01*
X143342766Y-111049534D01*
X143414454Y-111222605D01*
X143451000Y-111406333D01*
X143451000Y-111593667D01*
X143414454Y-111777395D01*
X143342766Y-111950466D01*
X143342765Y-111950467D01*
X143238690Y-112106227D01*
X143106227Y-112238690D01*
X143027818Y-112291081D01*
X142950466Y-112342766D01*
X142777395Y-112414454D01*
X142593667Y-112451000D01*
X142406333Y-112451000D01*
X142222605Y-112414454D01*
X142049534Y-112342766D01*
X141972182Y-112291081D01*
X141893773Y-112238690D01*
X141761310Y-112106227D01*
X141657235Y-111950467D01*
X141657234Y-111950466D01*
X141585546Y-111777395D01*
X141549000Y-111593667D01*
X141549000Y-111406333D01*
X141585546Y-111222605D01*
X141657234Y-111049534D01*
X141761309Y-110893775D01*
X141761310Y-110893773D01*
X141893773Y-110761310D01*
X142049533Y-110657235D01*
X142049534Y-110657234D01*
X142222605Y-110585546D01*
X142406333Y-110549000D01*
X142593667Y-110549000D01*
X142777395Y-110585546D01*
G37*
G36*
X150598254Y-107277818D02*
G01*
X150971511Y-107432426D01*
X150971513Y-107432427D01*
X151307436Y-107656884D01*
X151593116Y-107942564D01*
X151817574Y-108278489D01*
X151972182Y-108651746D01*
X152051000Y-109047993D01*
X152051000Y-109452007D01*
X151972182Y-109848254D01*
X151891101Y-110044000D01*
X151817573Y-110221513D01*
X151593116Y-110557436D01*
X151307436Y-110843116D01*
X150971513Y-111067573D01*
X150971512Y-111067574D01*
X150971511Y-111067574D01*
X150598254Y-111222182D01*
X150202007Y-111301000D01*
X149797993Y-111301000D01*
X149401746Y-111222182D01*
X149028489Y-111067574D01*
X149028488Y-111067574D01*
X149028487Y-111067573D01*
X148692564Y-110843116D01*
X148406884Y-110557436D01*
X148182427Y-110221513D01*
X148108899Y-110044000D01*
X148027818Y-109848254D01*
X147949000Y-109452007D01*
X147949000Y-109047993D01*
X148027818Y-108651746D01*
X148182426Y-108278489D01*
X148406884Y-107942564D01*
X148692564Y-107656884D01*
X149028487Y-107432427D01*
X149028489Y-107432426D01*
X149401746Y-107277818D01*
X149797993Y-107199000D01*
X150202007Y-107199000D01*
X150598254Y-107277818D01*
G37*
G36*
X185094579Y-101769112D02*
G01*
X185220544Y-101794168D01*
X185351118Y-101848254D01*
X185576512Y-101941615D01*
X185576513Y-101941616D01*
X185896877Y-102155676D01*
X186169324Y-102428123D01*
X186255728Y-102557436D01*
X186383385Y-102748488D01*
X186530832Y-103104457D01*
X186606000Y-103482349D01*
X186606000Y-103867651D01*
X186530832Y-104245543D01*
X186383385Y-104601512D01*
X186383384Y-104601513D01*
X186169324Y-104921877D01*
X185896877Y-105194324D01*
X185682816Y-105337355D01*
X185576512Y-105408385D01*
X185367991Y-105494757D01*
X185220544Y-105555832D01*
X185094579Y-105580888D01*
X184842651Y-105631000D01*
X184457349Y-105631000D01*
X184205421Y-105580888D01*
X184079456Y-105555832D01*
X183932009Y-105494757D01*
X183723488Y-105408385D01*
X183617184Y-105337355D01*
X183403123Y-105194324D01*
X183130676Y-104921877D01*
X182916616Y-104601513D01*
X182916615Y-104601512D01*
X182769168Y-104245543D01*
X182694000Y-103867651D01*
X182694000Y-103482349D01*
X182769168Y-103104457D01*
X182916615Y-102748488D01*
X183044272Y-102557436D01*
X183130676Y-102428123D01*
X183403123Y-102155676D01*
X183723487Y-101941616D01*
X183723488Y-101941615D01*
X183948882Y-101848254D01*
X184079456Y-101794168D01*
X184205421Y-101769112D01*
X184457349Y-101719000D01*
X184842651Y-101719000D01*
X185094579Y-101769112D01*
G37*
G36*
X191444579Y-101769112D02*
G01*
X191570544Y-101794168D01*
X191701118Y-101848254D01*
X191926512Y-101941615D01*
X191926513Y-101941616D01*
X192246877Y-102155676D01*
X192519324Y-102428123D01*
X192605728Y-102557436D01*
X192733385Y-102748488D01*
X192880832Y-103104457D01*
X192956000Y-103482349D01*
X192956000Y-103867651D01*
X192880832Y-104245543D01*
X192733385Y-104601512D01*
X192733384Y-104601513D01*
X192519324Y-104921877D01*
X192246877Y-105194324D01*
X192032816Y-105337355D01*
X191926512Y-105408385D01*
X191717991Y-105494757D01*
X191570544Y-105555832D01*
X191444579Y-105580888D01*
X191192651Y-105631000D01*
X190807349Y-105631000D01*
X190555421Y-105580888D01*
X190429456Y-105555832D01*
X190282009Y-105494757D01*
X190073488Y-105408385D01*
X189967184Y-105337355D01*
X189753123Y-105194324D01*
X189480676Y-104921877D01*
X189266616Y-104601513D01*
X189266615Y-104601512D01*
X189119168Y-104245543D01*
X189044000Y-103867651D01*
X189044000Y-103482349D01*
X189119168Y-103104457D01*
X189266615Y-102748488D01*
X189394272Y-102557436D01*
X189480676Y-102428123D01*
X189753123Y-102155676D01*
X190073487Y-101941616D01*
X190073488Y-101941615D01*
X190298882Y-101848254D01*
X190429456Y-101794168D01*
X190555421Y-101769112D01*
X190807349Y-101719000D01*
X191192651Y-101719000D01*
X191444579Y-101769112D01*
G37*
G36*
X150520254Y-99277818D02*
G01*
X150893511Y-99432426D01*
X150893513Y-99432427D01*
X151194655Y-99633644D01*
X151229436Y-99656884D01*
X151515116Y-99942564D01*
X151739574Y-100278489D01*
X151894182Y-100651746D01*
X151973000Y-101047993D01*
X151973000Y-101452007D01*
X151894182Y-101848254D01*
X151739574Y-102221511D01*
X151739573Y-102221513D01*
X151515116Y-102557436D01*
X151229436Y-102843116D01*
X150893513Y-103067573D01*
X150893512Y-103067574D01*
X150893511Y-103067574D01*
X150520254Y-103222182D01*
X150124007Y-103301000D01*
X149719993Y-103301000D01*
X149323746Y-103222182D01*
X148950489Y-103067574D01*
X148950488Y-103067574D01*
X148950487Y-103067573D01*
X148614564Y-102843116D01*
X148328884Y-102557436D01*
X148104427Y-102221513D01*
X148104426Y-102221511D01*
X147949818Y-101848254D01*
X147871000Y-101452007D01*
X147871000Y-101047993D01*
X147949818Y-100651746D01*
X148104426Y-100278489D01*
X148328884Y-99942564D01*
X148614564Y-99656884D01*
X148649345Y-99633644D01*
X148950487Y-99432427D01*
X148950489Y-99432426D01*
X149323746Y-99277818D01*
X149719993Y-99199000D01*
X150124007Y-99199000D01*
X150520254Y-99277818D01*
G37*
G36*
X188181821Y-98706144D02*
G01*
X188358500Y-98741287D01*
X188496373Y-98798396D01*
X188691355Y-98879160D01*
X188691356Y-98879161D01*
X188990920Y-99079323D01*
X189245677Y-99334080D01*
X189323444Y-99450467D01*
X189445840Y-99633645D01*
X189489351Y-99738690D01*
X189583713Y-99966500D01*
X189654000Y-100319859D01*
X189654000Y-100680141D01*
X189583713Y-101033500D01*
X189577709Y-101047994D01*
X189445840Y-101366355D01*
X189445839Y-101366356D01*
X189245677Y-101665920D01*
X188990920Y-101920677D01*
X188840120Y-102021438D01*
X188691355Y-102120840D01*
X188496373Y-102201604D01*
X188358500Y-102258713D01*
X188181821Y-102293856D01*
X188005142Y-102329000D01*
X187644858Y-102329000D01*
X187468179Y-102293856D01*
X187291500Y-102258713D01*
X187153627Y-102201604D01*
X186958645Y-102120840D01*
X186809880Y-102021438D01*
X186659080Y-101920677D01*
X186404323Y-101665920D01*
X186204161Y-101366356D01*
X186204160Y-101366355D01*
X186072291Y-101047994D01*
X186066287Y-101033500D01*
X185996000Y-100680141D01*
X185996000Y-100319859D01*
X186066287Y-99966500D01*
X186160649Y-99738690D01*
X186204160Y-99633645D01*
X186326556Y-99450467D01*
X186404323Y-99334080D01*
X186659080Y-99079323D01*
X186958644Y-98879161D01*
X186958645Y-98879160D01*
X187153627Y-98798396D01*
X187291500Y-98741287D01*
X187468179Y-98706144D01*
X187644858Y-98671000D01*
X188005142Y-98671000D01*
X188181821Y-98706144D01*
G37*
G36*
X142699395Y-98085546D02*
G01*
X142872466Y-98157234D01*
X142872467Y-98157235D01*
X143028227Y-98261310D01*
X143160690Y-98393773D01*
X143160691Y-98393775D01*
X143264766Y-98549534D01*
X143336454Y-98722605D01*
X143373000Y-98906333D01*
X143373000Y-99093667D01*
X143336454Y-99277395D01*
X143264766Y-99450466D01*
X143264765Y-99450467D01*
X143160690Y-99606227D01*
X143028227Y-99738690D01*
X142949818Y-99791081D01*
X142872466Y-99842766D01*
X142699395Y-99914454D01*
X142515667Y-99951000D01*
X142328333Y-99951000D01*
X142144605Y-99914454D01*
X141971534Y-99842766D01*
X141894182Y-99791081D01*
X141815773Y-99738690D01*
X141683310Y-99606227D01*
X141579235Y-99450467D01*
X141579234Y-99450466D01*
X141507546Y-99277395D01*
X141471000Y-99093667D01*
X141471000Y-98906333D01*
X141507546Y-98722605D01*
X141579234Y-98549534D01*
X141683309Y-98393775D01*
X141683310Y-98393773D01*
X141815773Y-98261310D01*
X141971533Y-98157235D01*
X141971534Y-98157234D01*
X142144605Y-98085546D01*
X142328333Y-98049000D01*
X142515667Y-98049000D01*
X142699395Y-98085546D01*
G37*
G36*
X191444579Y-95419112D02*
G01*
X191570544Y-95444168D01*
X191717991Y-95505243D01*
X191926512Y-95591615D01*
X191926513Y-95591616D01*
X192246877Y-95805676D01*
X192519324Y-96078123D01*
X192662355Y-96292184D01*
X192733385Y-96398488D01*
X192880832Y-96754457D01*
X192956000Y-97132349D01*
X192956000Y-97517651D01*
X192880832Y-97895543D01*
X192733385Y-98251512D01*
X192733384Y-98251513D01*
X192519324Y-98571877D01*
X192246877Y-98844324D01*
X192032816Y-98987355D01*
X191926512Y-99058385D01*
X191717991Y-99144757D01*
X191570544Y-99205832D01*
X191444579Y-99230888D01*
X191192651Y-99281000D01*
X190807349Y-99281000D01*
X190555421Y-99230888D01*
X190429456Y-99205832D01*
X190282009Y-99144757D01*
X190073488Y-99058385D01*
X189967184Y-98987355D01*
X189753123Y-98844324D01*
X189480676Y-98571877D01*
X189266616Y-98251513D01*
X189266615Y-98251512D01*
X189119168Y-97895543D01*
X189044000Y-97517651D01*
X189044000Y-97132349D01*
X189119168Y-96754457D01*
X189266615Y-96398488D01*
X189337645Y-96292184D01*
X189480676Y-96078123D01*
X189753123Y-95805676D01*
X190073487Y-95591616D01*
X190073488Y-95591615D01*
X190282009Y-95505243D01*
X190429456Y-95444168D01*
X190555421Y-95419112D01*
X190807349Y-95369000D01*
X191192651Y-95369000D01*
X191444579Y-95419112D01*
G37*
G36*
X185094579Y-95419112D02*
G01*
X185220544Y-95444168D01*
X185367991Y-95505243D01*
X185576512Y-95591615D01*
X185576513Y-95591616D01*
X185896877Y-95805676D01*
X186169324Y-96078123D01*
X186312355Y-96292184D01*
X186383385Y-96398488D01*
X186530832Y-96754457D01*
X186606000Y-97132349D01*
X186606000Y-97517651D01*
X186530832Y-97895543D01*
X186383385Y-98251512D01*
X186383384Y-98251513D01*
X186169324Y-98571877D01*
X185896877Y-98844324D01*
X185682816Y-98987355D01*
X185576512Y-99058385D01*
X185367991Y-99144757D01*
X185220544Y-99205832D01*
X185094579Y-99230888D01*
X184842651Y-99281000D01*
X184457349Y-99281000D01*
X184205421Y-99230888D01*
X184079456Y-99205832D01*
X183932009Y-99144757D01*
X183723488Y-99058385D01*
X183617184Y-98987355D01*
X183403123Y-98844324D01*
X183130676Y-98571877D01*
X182916616Y-98251513D01*
X182916615Y-98251512D01*
X182769168Y-97895543D01*
X182694000Y-97517651D01*
X182694000Y-97132349D01*
X182769168Y-96754457D01*
X182916615Y-96398488D01*
X182987645Y-96292184D01*
X183130676Y-96078123D01*
X183403123Y-95805676D01*
X183723487Y-95591616D01*
X183723488Y-95591615D01*
X183932009Y-95505243D01*
X184079456Y-95444168D01*
X184205421Y-95419112D01*
X184457349Y-95369000D01*
X184842651Y-95369000D01*
X185094579Y-95419112D01*
G37*
G36*
X142699395Y-95585546D02*
G01*
X142872466Y-95657234D01*
X142872467Y-95657235D01*
X143028227Y-95761310D01*
X143160690Y-95893773D01*
X143160691Y-95893775D01*
X143264766Y-96049534D01*
X143336454Y-96222605D01*
X143373000Y-96406333D01*
X143373000Y-96593667D01*
X143336454Y-96777395D01*
X143264766Y-96950466D01*
X143264765Y-96950467D01*
X143160690Y-97106227D01*
X143028227Y-97238690D01*
X142949818Y-97291081D01*
X142872466Y-97342766D01*
X142699395Y-97414454D01*
X142515667Y-97451000D01*
X142328333Y-97451000D01*
X142144605Y-97414454D01*
X141971534Y-97342766D01*
X141894182Y-97291081D01*
X141815773Y-97238690D01*
X141683310Y-97106227D01*
X141579235Y-96950467D01*
X141579234Y-96950466D01*
X141507546Y-96777395D01*
X141471000Y-96593667D01*
X141471000Y-96406333D01*
X141507546Y-96222605D01*
X141579234Y-96049534D01*
X141683309Y-95893775D01*
X141683310Y-95893773D01*
X141815773Y-95761310D01*
X141971533Y-95657235D01*
X141971534Y-95657234D01*
X142144605Y-95585546D01*
X142328333Y-95549000D01*
X142515667Y-95549000D01*
X142699395Y-95585546D01*
G37*
G36*
X142699395Y-93085546D02*
G01*
X142872466Y-93157234D01*
X142872467Y-93157235D01*
X143028227Y-93261310D01*
X143160690Y-93393773D01*
X143160691Y-93393775D01*
X143264766Y-93549534D01*
X143336454Y-93722605D01*
X143373000Y-93906333D01*
X143373000Y-94093667D01*
X143336454Y-94277395D01*
X143264766Y-94450466D01*
X143264765Y-94450467D01*
X143160690Y-94606227D01*
X143028227Y-94738690D01*
X142949818Y-94791081D01*
X142872466Y-94842766D01*
X142699395Y-94914454D01*
X142515667Y-94951000D01*
X142328333Y-94951000D01*
X142144605Y-94914454D01*
X141971534Y-94842766D01*
X141894182Y-94791081D01*
X141815773Y-94738690D01*
X141683310Y-94606227D01*
X141579235Y-94450467D01*
X141579234Y-94450466D01*
X141507546Y-94277395D01*
X141471000Y-94093667D01*
X141471000Y-93906333D01*
X141507546Y-93722605D01*
X141579234Y-93549534D01*
X141683309Y-93393775D01*
X141683310Y-93393773D01*
X141815773Y-93261310D01*
X141971533Y-93157235D01*
X141971534Y-93157234D01*
X142144605Y-93085546D01*
X142328333Y-93049000D01*
X142515667Y-93049000D01*
X142699395Y-93085546D01*
G37*
G36*
X150520254Y-89777818D02*
G01*
X150893511Y-89932426D01*
X150893513Y-89932427D01*
X151139628Y-90096876D01*
X151229436Y-90156884D01*
X151515116Y-90442564D01*
X151739574Y-90778489D01*
X151894182Y-91151746D01*
X151973000Y-91547993D01*
X151973000Y-91952007D01*
X151894182Y-92348254D01*
X151739574Y-92721511D01*
X151739573Y-92721513D01*
X151515116Y-93057436D01*
X151229436Y-93343116D01*
X150893513Y-93567573D01*
X150893512Y-93567574D01*
X150893511Y-93567574D01*
X150520254Y-93722182D01*
X150124007Y-93801000D01*
X149719993Y-93801000D01*
X149323746Y-93722182D01*
X148950489Y-93567574D01*
X148950488Y-93567574D01*
X148950487Y-93567573D01*
X148614564Y-93343116D01*
X148328884Y-93057436D01*
X148104427Y-92721513D01*
X148104426Y-92721511D01*
X147949818Y-92348254D01*
X147871000Y-91952007D01*
X147871000Y-91547993D01*
X147949818Y-91151746D01*
X148104426Y-90778489D01*
X148328884Y-90442564D01*
X148614564Y-90156884D01*
X148704372Y-90096876D01*
X148950487Y-89932427D01*
X148950489Y-89932426D01*
X149323746Y-89777818D01*
X149719993Y-89699000D01*
X150124007Y-89699000D01*
X150520254Y-89777818D01*
G37*
G36*
X184944579Y-86944112D02*
G01*
X185070544Y-86969168D01*
X185217991Y-87030243D01*
X185426512Y-87116615D01*
X185426513Y-87116616D01*
X185746877Y-87330676D01*
X186019324Y-87603123D01*
X186078808Y-87692148D01*
X186233385Y-87923488D01*
X186250669Y-87965216D01*
X186380832Y-88279456D01*
X186385567Y-88303259D01*
X186456000Y-88657349D01*
X186456000Y-89042651D01*
X186380832Y-89420543D01*
X186233385Y-89776512D01*
X186162355Y-89882816D01*
X186019324Y-90096877D01*
X185746877Y-90369324D01*
X185637265Y-90442564D01*
X185426512Y-90583385D01*
X185217991Y-90669757D01*
X185070544Y-90730832D01*
X184944579Y-90755888D01*
X184692651Y-90806000D01*
X184307349Y-90806000D01*
X184055421Y-90755888D01*
X183929456Y-90730832D01*
X183782009Y-90669757D01*
X183573488Y-90583385D01*
X183362735Y-90442564D01*
X183253123Y-90369324D01*
X182980676Y-90096877D01*
X182837645Y-89882816D01*
X182766615Y-89776512D01*
X182619168Y-89420543D01*
X182544000Y-89042651D01*
X182544000Y-88657349D01*
X182614433Y-88303259D01*
X182619168Y-88279456D01*
X182749331Y-87965216D01*
X182766615Y-87923488D01*
X182921192Y-87692148D01*
X182980676Y-87603123D01*
X183253123Y-87330676D01*
X183573487Y-87116616D01*
X183573488Y-87116615D01*
X183782009Y-87030243D01*
X183929456Y-86969168D01*
X184055421Y-86944112D01*
X184307349Y-86894000D01*
X184692651Y-86894000D01*
X184944579Y-86944112D01*
G37*
G36*
X191294579Y-86944112D02*
G01*
X191420544Y-86969168D01*
X191567991Y-87030243D01*
X191776512Y-87116615D01*
X191776513Y-87116616D01*
X192096877Y-87330676D01*
X192369324Y-87603123D01*
X192428808Y-87692148D01*
X192583385Y-87923488D01*
X192600669Y-87965216D01*
X192730832Y-88279456D01*
X192735567Y-88303259D01*
X192806000Y-88657349D01*
X192806000Y-89042651D01*
X192730832Y-89420543D01*
X192583385Y-89776512D01*
X192512355Y-89882816D01*
X192369324Y-90096877D01*
X192096877Y-90369324D01*
X191987265Y-90442564D01*
X191776512Y-90583385D01*
X191567991Y-90669757D01*
X191420544Y-90730832D01*
X191294579Y-90755888D01*
X191042651Y-90806000D01*
X190657349Y-90806000D01*
X190405421Y-90755888D01*
X190279456Y-90730832D01*
X190132009Y-90669757D01*
X189923488Y-90583385D01*
X189712735Y-90442564D01*
X189603123Y-90369324D01*
X189330676Y-90096877D01*
X189187645Y-89882816D01*
X189116615Y-89776512D01*
X188969168Y-89420543D01*
X188894000Y-89042651D01*
X188894000Y-88657349D01*
X188964433Y-88303259D01*
X188969168Y-88279456D01*
X189099331Y-87965216D01*
X189116615Y-87923488D01*
X189271192Y-87692148D01*
X189330676Y-87603123D01*
X189603123Y-87330676D01*
X189923487Y-87116616D01*
X189923488Y-87116615D01*
X190132009Y-87030243D01*
X190279456Y-86969168D01*
X190405421Y-86944112D01*
X190657349Y-86894000D01*
X191042651Y-86894000D01*
X191294579Y-86944112D01*
G37*
G36*
X160697512Y-87495927D02*
G01*
X160846812Y-87525624D01*
X161010784Y-87593544D01*
X161158354Y-87692147D01*
X161283853Y-87817646D01*
X161382456Y-87965216D01*
X161450376Y-88129188D01*
X161485000Y-88303259D01*
X161485000Y-88480741D01*
X161450376Y-88654812D01*
X161382456Y-88818784D01*
X161283853Y-88966354D01*
X161158354Y-89091853D01*
X161010784Y-89190456D01*
X160846812Y-89258376D01*
X160697512Y-89288073D01*
X160672742Y-89293000D01*
X160495258Y-89293000D01*
X160470488Y-89288073D01*
X160321188Y-89258376D01*
X160157216Y-89190456D01*
X160009646Y-89091853D01*
X159884147Y-88966354D01*
X159785544Y-88818784D01*
X159717624Y-88654812D01*
X159683000Y-88480741D01*
X159683000Y-88303259D01*
X159717624Y-88129188D01*
X159785544Y-87965216D01*
X159884147Y-87817646D01*
X160009646Y-87692147D01*
X160157216Y-87593544D01*
X160321188Y-87525624D01*
X160470488Y-87495927D01*
X160495258Y-87491000D01*
X160672742Y-87491000D01*
X160697512Y-87495927D01*
G37*
G36*
X176725000Y-89293000D02*
G01*
X174923000Y-89293000D01*
X174923000Y-87491000D01*
X176725000Y-87491000D01*
X176725000Y-89293000D01*
G37*
G36*
X188031821Y-83881144D02*
G01*
X188208500Y-83916287D01*
X188294733Y-83952006D01*
X188541355Y-84054160D01*
X188541356Y-84054161D01*
X188840920Y-84254323D01*
X189095677Y-84509080D01*
X189095678Y-84509082D01*
X189295840Y-84808645D01*
X189354805Y-84951000D01*
X189433713Y-85141500D01*
X189504000Y-85494859D01*
X189504000Y-85855141D01*
X189452349Y-86114812D01*
X189433713Y-86208499D01*
X189295840Y-86541355D01*
X189295839Y-86541356D01*
X189095677Y-86840920D01*
X188840920Y-87095677D01*
X188690120Y-87196438D01*
X188541355Y-87295840D01*
X188346373Y-87376604D01*
X188208500Y-87433713D01*
X188031820Y-87468857D01*
X187855142Y-87504000D01*
X187494858Y-87504000D01*
X187318180Y-87468857D01*
X187141500Y-87433713D01*
X187003627Y-87376604D01*
X186808645Y-87295840D01*
X186659880Y-87196438D01*
X186509080Y-87095677D01*
X186254323Y-86840920D01*
X186054161Y-86541356D01*
X186054160Y-86541355D01*
X185916287Y-86208499D01*
X185897652Y-86114812D01*
X185846000Y-85855141D01*
X185846000Y-85494859D01*
X185916287Y-85141500D01*
X185995195Y-84951000D01*
X186054160Y-84808645D01*
X186254322Y-84509082D01*
X186254323Y-84509080D01*
X186509080Y-84254323D01*
X186808644Y-84054161D01*
X186808645Y-84054160D01*
X187055267Y-83952006D01*
X187141500Y-83916287D01*
X187318180Y-83881143D01*
X187494858Y-83846000D01*
X187855142Y-83846000D01*
X188031821Y-83881144D01*
G37*
G36*
X175937512Y-84955927D02*
G01*
X176086812Y-84985624D01*
X176250784Y-85053544D01*
X176398354Y-85152147D01*
X176523853Y-85277646D01*
X176622456Y-85425216D01*
X176690376Y-85589188D01*
X176725000Y-85763259D01*
X176725000Y-85940741D01*
X176690376Y-86114812D01*
X176622456Y-86278784D01*
X176523853Y-86426354D01*
X176398354Y-86551853D01*
X176250784Y-86650456D01*
X176086812Y-86718376D01*
X175937512Y-86748073D01*
X175912742Y-86753000D01*
X175735258Y-86753000D01*
X175710488Y-86748073D01*
X175561188Y-86718376D01*
X175397216Y-86650456D01*
X175249646Y-86551853D01*
X175124147Y-86426354D01*
X175025544Y-86278784D01*
X174957624Y-86114812D01*
X174923000Y-85940741D01*
X174923000Y-85763259D01*
X174957624Y-85589188D01*
X175025544Y-85425216D01*
X175124147Y-85277646D01*
X175249646Y-85152147D01*
X175397216Y-85053544D01*
X175561188Y-84985624D01*
X175710488Y-84955927D01*
X175735258Y-84951000D01*
X175912742Y-84951000D01*
X175937512Y-84955927D01*
G37*
G36*
X160697512Y-84955927D02*
G01*
X160846812Y-84985624D01*
X161010784Y-85053544D01*
X161158354Y-85152147D01*
X161283853Y-85277646D01*
X161382456Y-85425216D01*
X161450376Y-85589188D01*
X161485000Y-85763259D01*
X161485000Y-85940741D01*
X161450376Y-86114812D01*
X161382456Y-86278784D01*
X161283853Y-86426354D01*
X161158354Y-86551853D01*
X161010784Y-86650456D01*
X160846812Y-86718376D01*
X160697512Y-86748073D01*
X160672742Y-86753000D01*
X160495258Y-86753000D01*
X160470488Y-86748073D01*
X160321188Y-86718376D01*
X160157216Y-86650456D01*
X160009646Y-86551853D01*
X159884147Y-86426354D01*
X159785544Y-86278784D01*
X159717624Y-86114812D01*
X159683000Y-85940741D01*
X159683000Y-85763259D01*
X159717624Y-85589188D01*
X159785544Y-85425216D01*
X159884147Y-85277646D01*
X160009646Y-85152147D01*
X160157216Y-85053544D01*
X160321188Y-84985624D01*
X160470488Y-84955927D01*
X160495258Y-84951000D01*
X160672742Y-84951000D01*
X160697512Y-84955927D01*
G37*
G36*
X150598254Y-81777818D02*
G01*
X150964343Y-81929457D01*
X150971513Y-81932427D01*
X151307436Y-82156884D01*
X151593116Y-82442564D01*
X151790285Y-82737647D01*
X151817574Y-82778489D01*
X151972182Y-83151746D01*
X152051000Y-83547993D01*
X152051000Y-83952007D01*
X151972182Y-84348254D01*
X151905565Y-84509082D01*
X151817573Y-84721513D01*
X151593116Y-85057436D01*
X151307436Y-85343116D01*
X150971513Y-85567573D01*
X150971512Y-85567574D01*
X150971511Y-85567574D01*
X150598254Y-85722182D01*
X150202007Y-85801000D01*
X149797993Y-85801000D01*
X149401746Y-85722182D01*
X149028489Y-85567574D01*
X149028488Y-85567574D01*
X149028487Y-85567573D01*
X148692564Y-85343116D01*
X148406884Y-85057436D01*
X148182427Y-84721513D01*
X148094435Y-84509082D01*
X148027818Y-84348254D01*
X147949000Y-83952007D01*
X147949000Y-83547993D01*
X148027818Y-83151746D01*
X148182426Y-82778489D01*
X148209716Y-82737647D01*
X148406884Y-82442564D01*
X148692564Y-82156884D01*
X149028487Y-81932427D01*
X149035657Y-81929457D01*
X149401746Y-81777818D01*
X149797993Y-81699000D01*
X150202007Y-81699000D01*
X150598254Y-81777818D01*
G37*
G36*
X191251515Y-80585546D02*
G01*
X191420544Y-80619168D01*
X191512443Y-80657234D01*
X191776512Y-80766615D01*
X191776513Y-80766616D01*
X192096877Y-80980676D01*
X192369324Y-81253123D01*
X192471695Y-81406333D01*
X192583385Y-81573488D01*
X192730832Y-81929457D01*
X192806000Y-82307349D01*
X192806000Y-82692651D01*
X192730832Y-83070543D01*
X192583385Y-83426512D01*
X192583384Y-83426513D01*
X192369324Y-83746877D01*
X192096877Y-84019324D01*
X191960488Y-84110456D01*
X191776512Y-84233385D01*
X191567991Y-84319757D01*
X191420544Y-84380832D01*
X191294579Y-84405888D01*
X191042651Y-84456000D01*
X190657349Y-84456000D01*
X190405421Y-84405888D01*
X190279456Y-84380832D01*
X190132009Y-84319757D01*
X189923488Y-84233385D01*
X189739512Y-84110456D01*
X189603123Y-84019324D01*
X189330676Y-83746877D01*
X189116616Y-83426513D01*
X189116615Y-83426512D01*
X188969168Y-83070543D01*
X188894000Y-82692651D01*
X188894000Y-82307349D01*
X188969168Y-81929457D01*
X189116615Y-81573488D01*
X189228305Y-81406333D01*
X189330676Y-81253123D01*
X189603123Y-80980676D01*
X189923487Y-80766616D01*
X189923488Y-80766615D01*
X190187557Y-80657234D01*
X190279456Y-80619168D01*
X190448485Y-80585546D01*
X190657349Y-80544000D01*
X191042651Y-80544000D01*
X191251515Y-80585546D01*
G37*
G36*
X184901515Y-80585546D02*
G01*
X185070544Y-80619168D01*
X185162443Y-80657234D01*
X185426512Y-80766615D01*
X185426513Y-80766616D01*
X185746877Y-80980676D01*
X186019324Y-81253123D01*
X186121695Y-81406333D01*
X186233385Y-81573488D01*
X186380832Y-81929457D01*
X186456000Y-82307349D01*
X186456000Y-82692651D01*
X186380832Y-83070543D01*
X186233385Y-83426512D01*
X186233384Y-83426513D01*
X186019324Y-83746877D01*
X185746877Y-84019324D01*
X185610488Y-84110456D01*
X185426512Y-84233385D01*
X185217991Y-84319757D01*
X185070544Y-84380832D01*
X184944579Y-84405888D01*
X184692651Y-84456000D01*
X184307349Y-84456000D01*
X184055421Y-84405888D01*
X183929456Y-84380832D01*
X183782009Y-84319757D01*
X183573488Y-84233385D01*
X183389512Y-84110456D01*
X183253123Y-84019324D01*
X182980676Y-83746877D01*
X182766616Y-83426513D01*
X182766615Y-83426512D01*
X182619168Y-83070543D01*
X182544000Y-82692651D01*
X182544000Y-82307349D01*
X182619168Y-81929457D01*
X182766615Y-81573488D01*
X182878305Y-81406333D01*
X182980676Y-81253123D01*
X183253123Y-80980676D01*
X183573487Y-80766616D01*
X183573488Y-80766615D01*
X183837557Y-80657234D01*
X183929456Y-80619168D01*
X184098485Y-80585546D01*
X184307349Y-80544000D01*
X184692651Y-80544000D01*
X184901515Y-80585546D01*
G37*
G36*
X175930101Y-82414453D02*
G01*
X176086812Y-82445624D01*
X176250784Y-82513544D01*
X176398354Y-82612147D01*
X176523853Y-82737646D01*
X176622456Y-82885216D01*
X176690376Y-83049188D01*
X176725000Y-83223259D01*
X176725000Y-83400741D01*
X176690376Y-83574812D01*
X176622456Y-83738784D01*
X176523853Y-83886354D01*
X176398354Y-84011853D01*
X176250784Y-84110456D01*
X176086812Y-84178376D01*
X175937512Y-84208073D01*
X175912742Y-84213000D01*
X175735258Y-84213000D01*
X175710488Y-84208073D01*
X175561188Y-84178376D01*
X175397216Y-84110456D01*
X175249646Y-84011853D01*
X175124147Y-83886354D01*
X175025544Y-83738784D01*
X174957624Y-83574812D01*
X174923000Y-83400741D01*
X174923000Y-83223259D01*
X174957624Y-83049188D01*
X175025544Y-82885216D01*
X175124147Y-82737646D01*
X175249646Y-82612147D01*
X175397216Y-82513544D01*
X175561188Y-82445624D01*
X175717899Y-82414453D01*
X175735258Y-82411000D01*
X175912742Y-82411000D01*
X175930101Y-82414453D01*
G37*
G36*
X160690101Y-82414453D02*
G01*
X160846812Y-82445624D01*
X161010784Y-82513544D01*
X161158354Y-82612147D01*
X161283853Y-82737646D01*
X161382456Y-82885216D01*
X161450376Y-83049188D01*
X161485000Y-83223259D01*
X161485000Y-83400741D01*
X161450376Y-83574812D01*
X161382456Y-83738784D01*
X161283853Y-83886354D01*
X161158354Y-84011853D01*
X161010784Y-84110456D01*
X160846812Y-84178376D01*
X160697512Y-84208073D01*
X160672742Y-84213000D01*
X160495258Y-84213000D01*
X160470488Y-84208073D01*
X160321188Y-84178376D01*
X160157216Y-84110456D01*
X160009646Y-84011853D01*
X159884147Y-83886354D01*
X159785544Y-83738784D01*
X159717624Y-83574812D01*
X159683000Y-83400741D01*
X159683000Y-83223259D01*
X159717624Y-83049188D01*
X159785544Y-82885216D01*
X159884147Y-82737646D01*
X160009646Y-82612147D01*
X160157216Y-82513544D01*
X160321188Y-82445624D01*
X160477899Y-82414453D01*
X160495258Y-82411000D01*
X160672742Y-82411000D01*
X160690101Y-82414453D01*
G37*
G36*
X142777395Y-80585546D02*
G01*
X142950466Y-80657234D01*
X142989415Y-80683259D01*
X143106227Y-80761310D01*
X143238690Y-80893773D01*
X143238691Y-80893775D01*
X143342766Y-81049534D01*
X143414454Y-81222605D01*
X143451000Y-81406333D01*
X143451000Y-81593667D01*
X143414454Y-81777395D01*
X143342766Y-81950466D01*
X143342765Y-81950467D01*
X143238690Y-82106227D01*
X143106227Y-82238690D01*
X143027818Y-82291081D01*
X142950466Y-82342766D01*
X142777395Y-82414454D01*
X142593667Y-82451000D01*
X142406333Y-82451000D01*
X142222605Y-82414454D01*
X142049534Y-82342766D01*
X141972182Y-82291081D01*
X141893773Y-82238690D01*
X141761310Y-82106227D01*
X141657235Y-81950467D01*
X141657234Y-81950466D01*
X141585546Y-81777395D01*
X141549000Y-81593667D01*
X141549000Y-81406333D01*
X141585546Y-81222605D01*
X141657234Y-81049534D01*
X141761309Y-80893775D01*
X141761310Y-80893773D01*
X141893773Y-80761310D01*
X142010585Y-80683259D01*
X142049534Y-80657234D01*
X142222605Y-80585546D01*
X142406333Y-80549000D01*
X142593667Y-80549000D01*
X142777395Y-80585546D01*
G37*
G36*
X175937512Y-79875927D02*
G01*
X176086812Y-79905624D01*
X176250784Y-79973544D01*
X176398354Y-80072147D01*
X176523853Y-80197646D01*
X176622456Y-80345216D01*
X176690376Y-80509188D01*
X176725000Y-80683259D01*
X176725000Y-80860741D01*
X176690376Y-81034812D01*
X176622456Y-81198784D01*
X176523853Y-81346354D01*
X176398354Y-81471853D01*
X176250784Y-81570456D01*
X176086812Y-81638376D01*
X175937512Y-81668073D01*
X175912742Y-81673000D01*
X175735258Y-81673000D01*
X175710488Y-81668073D01*
X175561188Y-81638376D01*
X175397216Y-81570456D01*
X175249646Y-81471853D01*
X175124147Y-81346354D01*
X175025544Y-81198784D01*
X174957624Y-81034812D01*
X174923000Y-80860741D01*
X174923000Y-80683259D01*
X174957624Y-80509188D01*
X175025544Y-80345216D01*
X175124147Y-80197646D01*
X175249646Y-80072147D01*
X175397216Y-79973544D01*
X175561188Y-79905624D01*
X175710488Y-79875927D01*
X175735258Y-79871000D01*
X175912742Y-79871000D01*
X175937512Y-79875927D01*
G37*
G36*
X160697512Y-79875927D02*
G01*
X160846812Y-79905624D01*
X161010784Y-79973544D01*
X161158354Y-80072147D01*
X161283853Y-80197646D01*
X161382456Y-80345216D01*
X161450376Y-80509188D01*
X161485000Y-80683259D01*
X161485000Y-80860741D01*
X161450376Y-81034812D01*
X161382456Y-81198784D01*
X161283853Y-81346354D01*
X161158354Y-81471853D01*
X161010784Y-81570456D01*
X160846812Y-81638376D01*
X160697512Y-81668073D01*
X160672742Y-81673000D01*
X160495258Y-81673000D01*
X160470488Y-81668073D01*
X160321188Y-81638376D01*
X160157216Y-81570456D01*
X160009646Y-81471853D01*
X159884147Y-81346354D01*
X159785544Y-81198784D01*
X159717624Y-81034812D01*
X159683000Y-80860741D01*
X159683000Y-80683259D01*
X159717624Y-80509188D01*
X159785544Y-80345216D01*
X159884147Y-80197646D01*
X160009646Y-80072147D01*
X160157216Y-79973544D01*
X160321188Y-79905624D01*
X160470488Y-79875927D01*
X160495258Y-79871000D01*
X160672742Y-79871000D01*
X160697512Y-79875927D01*
G37*
G36*
X142777395Y-78085546D02*
G01*
X142950466Y-78157234D01*
X142950467Y-78157235D01*
X143106227Y-78261310D01*
X143238690Y-78393773D01*
X143238691Y-78393775D01*
X143342766Y-78549534D01*
X143414454Y-78722605D01*
X143451000Y-78906333D01*
X143451000Y-79093667D01*
X143414454Y-79277395D01*
X143342766Y-79450466D01*
X143342765Y-79450467D01*
X143238690Y-79606227D01*
X143106227Y-79738690D01*
X143027818Y-79791081D01*
X142950466Y-79842766D01*
X142777395Y-79914454D01*
X142593667Y-79951000D01*
X142406333Y-79951000D01*
X142222605Y-79914454D01*
X142049534Y-79842766D01*
X141972182Y-79791081D01*
X141893773Y-79738690D01*
X141761310Y-79606227D01*
X141657235Y-79450467D01*
X141657234Y-79450466D01*
X141585546Y-79277395D01*
X141549000Y-79093667D01*
X141549000Y-78906333D01*
X141585546Y-78722605D01*
X141657234Y-78549534D01*
X141761309Y-78393775D01*
X141761310Y-78393773D01*
X141893773Y-78261310D01*
X142049533Y-78157235D01*
X142049534Y-78157234D01*
X142222605Y-78085546D01*
X142406333Y-78049000D01*
X142593667Y-78049000D01*
X142777395Y-78085546D01*
G37*
G36*
X175937512Y-77335927D02*
G01*
X176086812Y-77365624D01*
X176250784Y-77433544D01*
X176398354Y-77532147D01*
X176523853Y-77657646D01*
X176622456Y-77805216D01*
X176690376Y-77969188D01*
X176725000Y-78143259D01*
X176725000Y-78320741D01*
X176690376Y-78494812D01*
X176622456Y-78658784D01*
X176523853Y-78806354D01*
X176398354Y-78931853D01*
X176250784Y-79030456D01*
X176086812Y-79098376D01*
X175937512Y-79128073D01*
X175912742Y-79133000D01*
X175735258Y-79133000D01*
X175710488Y-79128073D01*
X175561188Y-79098376D01*
X175397216Y-79030456D01*
X175249646Y-78931853D01*
X175124147Y-78806354D01*
X175025544Y-78658784D01*
X174957624Y-78494812D01*
X174923000Y-78320741D01*
X174923000Y-78143259D01*
X174957624Y-77969188D01*
X175025544Y-77805216D01*
X175124147Y-77657646D01*
X175249646Y-77532147D01*
X175397216Y-77433544D01*
X175561188Y-77365624D01*
X175710488Y-77335927D01*
X175735258Y-77331000D01*
X175912742Y-77331000D01*
X175937512Y-77335927D01*
G37*
G36*
X160697512Y-77335927D02*
G01*
X160846812Y-77365624D01*
X161010784Y-77433544D01*
X161158354Y-77532147D01*
X161283853Y-77657646D01*
X161382456Y-77805216D01*
X161450376Y-77969188D01*
X161485000Y-78143259D01*
X161485000Y-78320741D01*
X161450376Y-78494812D01*
X161382456Y-78658784D01*
X161283853Y-78806354D01*
X161158354Y-78931853D01*
X161010784Y-79030456D01*
X160846812Y-79098376D01*
X160697512Y-79128073D01*
X160672742Y-79133000D01*
X160495258Y-79133000D01*
X160470488Y-79128073D01*
X160321188Y-79098376D01*
X160157216Y-79030456D01*
X160009646Y-78931853D01*
X159884147Y-78806354D01*
X159785544Y-78658784D01*
X159717624Y-78494812D01*
X159683000Y-78320741D01*
X159683000Y-78143259D01*
X159717624Y-77969188D01*
X159785544Y-77805216D01*
X159884147Y-77657646D01*
X160009646Y-77532147D01*
X160157216Y-77433544D01*
X160321188Y-77365624D01*
X160470488Y-77335927D01*
X160495258Y-77331000D01*
X160672742Y-77331000D01*
X160697512Y-77335927D01*
G37*
G36*
X142777395Y-75585546D02*
G01*
X142950466Y-75657234D01*
X142950467Y-75657235D01*
X143106227Y-75761310D01*
X143238690Y-75893773D01*
X143238691Y-75893775D01*
X143342766Y-76049534D01*
X143414454Y-76222605D01*
X143451000Y-76406333D01*
X143451000Y-76593667D01*
X143414454Y-76777395D01*
X143342766Y-76950466D01*
X143342765Y-76950467D01*
X143238690Y-77106227D01*
X143106227Y-77238690D01*
X143027818Y-77291081D01*
X142950466Y-77342766D01*
X142777395Y-77414454D01*
X142593667Y-77451000D01*
X142406333Y-77451000D01*
X142222605Y-77414454D01*
X142049534Y-77342766D01*
X141972182Y-77291081D01*
X141893773Y-77238690D01*
X141761310Y-77106227D01*
X141657235Y-76950467D01*
X141657234Y-76950466D01*
X141585546Y-76777395D01*
X141549000Y-76593667D01*
X141549000Y-76406333D01*
X141585546Y-76222605D01*
X141657234Y-76049534D01*
X141761309Y-75893775D01*
X141761310Y-75893773D01*
X141893773Y-75761310D01*
X142049533Y-75657235D01*
X142049534Y-75657234D01*
X142222605Y-75585546D01*
X142406333Y-75549000D01*
X142593667Y-75549000D01*
X142777395Y-75585546D01*
G37*
G36*
X175937512Y-74795927D02*
G01*
X176086812Y-74825624D01*
X176250784Y-74893544D01*
X176398354Y-74992147D01*
X176523853Y-75117646D01*
X176622456Y-75265216D01*
X176690376Y-75429188D01*
X176725000Y-75603259D01*
X176725000Y-75780741D01*
X176690376Y-75954812D01*
X176622456Y-76118784D01*
X176523853Y-76266354D01*
X176398354Y-76391853D01*
X176250784Y-76490456D01*
X176086812Y-76558376D01*
X175937512Y-76588073D01*
X175912742Y-76593000D01*
X175735258Y-76593000D01*
X175710488Y-76588073D01*
X175561188Y-76558376D01*
X175397216Y-76490456D01*
X175249646Y-76391853D01*
X175124147Y-76266354D01*
X175025544Y-76118784D01*
X174957624Y-75954812D01*
X174923000Y-75780741D01*
X174923000Y-75603259D01*
X174957624Y-75429188D01*
X175025544Y-75265216D01*
X175124147Y-75117646D01*
X175249646Y-74992147D01*
X175397216Y-74893544D01*
X175561188Y-74825624D01*
X175710488Y-74795927D01*
X175735258Y-74791000D01*
X175912742Y-74791000D01*
X175937512Y-74795927D01*
G37*
G36*
X160697512Y-74795927D02*
G01*
X160846812Y-74825624D01*
X161010784Y-74893544D01*
X161158354Y-74992147D01*
X161283853Y-75117646D01*
X161382456Y-75265216D01*
X161450376Y-75429188D01*
X161485000Y-75603259D01*
X161485000Y-75780741D01*
X161450376Y-75954812D01*
X161382456Y-76118784D01*
X161283853Y-76266354D01*
X161158354Y-76391853D01*
X161010784Y-76490456D01*
X160846812Y-76558376D01*
X160697512Y-76588073D01*
X160672742Y-76593000D01*
X160495258Y-76593000D01*
X160470488Y-76588073D01*
X160321188Y-76558376D01*
X160157216Y-76490456D01*
X160009646Y-76391853D01*
X159884147Y-76266354D01*
X159785544Y-76118784D01*
X159717624Y-75954812D01*
X159683000Y-75780741D01*
X159683000Y-75603259D01*
X159717624Y-75429188D01*
X159785544Y-75265216D01*
X159884147Y-75117646D01*
X160009646Y-74992147D01*
X160157216Y-74893544D01*
X160321188Y-74825624D01*
X160470488Y-74795927D01*
X160495258Y-74791000D01*
X160672742Y-74791000D01*
X160697512Y-74795927D01*
G37*
G36*
X150598254Y-72277818D02*
G01*
X150961125Y-72428124D01*
X150971513Y-72432427D01*
X151307436Y-72656884D01*
X151593116Y-72942564D01*
X151792353Y-73240742D01*
X151817574Y-73278489D01*
X151972182Y-73651746D01*
X152051000Y-74047993D01*
X152051000Y-74452007D01*
X151972182Y-74848254D01*
X151912579Y-74992148D01*
X151817573Y-75221513D01*
X151593116Y-75557436D01*
X151307436Y-75843116D01*
X150971513Y-76067573D01*
X150971512Y-76067574D01*
X150971511Y-76067574D01*
X150598254Y-76222182D01*
X150202007Y-76301000D01*
X149797993Y-76301000D01*
X149401746Y-76222182D01*
X149028489Y-76067574D01*
X149028488Y-76067574D01*
X149028487Y-76067573D01*
X148692564Y-75843116D01*
X148406884Y-75557436D01*
X148182427Y-75221513D01*
X148087421Y-74992148D01*
X148027818Y-74848254D01*
X147949000Y-74452007D01*
X147949000Y-74047993D01*
X148027818Y-73651746D01*
X148182426Y-73278489D01*
X148207648Y-73240742D01*
X148406884Y-72942564D01*
X148692564Y-72656884D01*
X149028487Y-72432427D01*
X149038875Y-72428124D01*
X149401746Y-72277818D01*
X149797993Y-72199000D01*
X150202007Y-72199000D01*
X150598254Y-72277818D01*
G37*
G36*
X191119579Y-71769112D02*
G01*
X191245544Y-71794168D01*
X191392991Y-71855243D01*
X191601512Y-71941615D01*
X191601513Y-71941616D01*
X191921877Y-72155676D01*
X192194324Y-72428123D01*
X192337355Y-72642184D01*
X192408385Y-72748488D01*
X192466665Y-72889188D01*
X192538768Y-73063259D01*
X192555832Y-73104457D01*
X192631000Y-73482349D01*
X192631000Y-73867651D01*
X192555832Y-74245543D01*
X192408385Y-74601512D01*
X192408384Y-74601513D01*
X192194324Y-74921877D01*
X191921877Y-75194324D01*
X191815779Y-75265216D01*
X191601512Y-75408385D01*
X191392991Y-75494757D01*
X191245544Y-75555832D01*
X191119579Y-75580888D01*
X190867651Y-75631000D01*
X190482349Y-75631000D01*
X190230421Y-75580888D01*
X190104456Y-75555832D01*
X189957009Y-75494757D01*
X189748488Y-75408385D01*
X189534221Y-75265216D01*
X189428123Y-75194324D01*
X189155676Y-74921877D01*
X188941616Y-74601513D01*
X188941615Y-74601512D01*
X188794168Y-74245543D01*
X188719000Y-73867651D01*
X188719000Y-73482349D01*
X188794168Y-73104457D01*
X188811233Y-73063259D01*
X188883335Y-72889188D01*
X188941615Y-72748488D01*
X189012645Y-72642184D01*
X189155676Y-72428123D01*
X189428123Y-72155676D01*
X189748487Y-71941616D01*
X189748488Y-71941615D01*
X189957009Y-71855243D01*
X190104456Y-71794168D01*
X190230421Y-71769112D01*
X190482349Y-71719000D01*
X190867651Y-71719000D01*
X191119579Y-71769112D01*
G37*
G36*
X184769579Y-71769112D02*
G01*
X184895544Y-71794168D01*
X185042991Y-71855243D01*
X185251512Y-71941615D01*
X185251513Y-71941616D01*
X185571877Y-72155676D01*
X185844324Y-72428123D01*
X185987355Y-72642184D01*
X186058385Y-72748488D01*
X186116665Y-72889188D01*
X186188768Y-73063259D01*
X186205832Y-73104457D01*
X186281000Y-73482349D01*
X186281000Y-73867651D01*
X186205832Y-74245543D01*
X186058385Y-74601512D01*
X186058384Y-74601513D01*
X185844324Y-74921877D01*
X185571877Y-75194324D01*
X185465779Y-75265216D01*
X185251512Y-75408385D01*
X185042991Y-75494757D01*
X184895544Y-75555832D01*
X184769579Y-75580888D01*
X184517651Y-75631000D01*
X184132349Y-75631000D01*
X183880421Y-75580888D01*
X183754456Y-75555832D01*
X183607009Y-75494757D01*
X183398488Y-75408385D01*
X183184221Y-75265216D01*
X183078123Y-75194324D01*
X182805676Y-74921877D01*
X182591616Y-74601513D01*
X182591615Y-74601512D01*
X182444168Y-74245543D01*
X182369000Y-73867651D01*
X182369000Y-73482349D01*
X182444168Y-73104457D01*
X182461233Y-73063259D01*
X182533335Y-72889188D01*
X182591615Y-72748488D01*
X182662645Y-72642184D01*
X182805676Y-72428123D01*
X183078123Y-72155676D01*
X183398487Y-71941616D01*
X183398488Y-71941615D01*
X183607009Y-71855243D01*
X183754456Y-71794168D01*
X183880421Y-71769112D01*
X184132349Y-71719000D01*
X184517651Y-71719000D01*
X184769579Y-71769112D01*
G37*
G36*
X175937512Y-72255927D02*
G01*
X176086812Y-72285624D01*
X176250784Y-72353544D01*
X176398354Y-72452147D01*
X176523853Y-72577646D01*
X176622456Y-72725216D01*
X176690376Y-72889188D01*
X176725000Y-73063259D01*
X176725000Y-73240741D01*
X176690376Y-73414812D01*
X176622456Y-73578784D01*
X176523853Y-73726354D01*
X176398354Y-73851853D01*
X176250784Y-73950456D01*
X176086812Y-74018376D01*
X175937914Y-74047993D01*
X175912742Y-74053000D01*
X175735258Y-74053000D01*
X175710086Y-74047993D01*
X175561188Y-74018376D01*
X175397216Y-73950456D01*
X175249646Y-73851853D01*
X175124147Y-73726354D01*
X175025544Y-73578784D01*
X174957624Y-73414812D01*
X174923000Y-73240741D01*
X174923000Y-73063259D01*
X174957624Y-72889188D01*
X175025544Y-72725216D01*
X175124147Y-72577646D01*
X175249646Y-72452147D01*
X175397216Y-72353544D01*
X175561188Y-72285624D01*
X175710488Y-72255927D01*
X175735258Y-72251000D01*
X175912742Y-72251000D01*
X175937512Y-72255927D01*
G37*
G36*
X160697512Y-72255927D02*
G01*
X160846812Y-72285624D01*
X161010784Y-72353544D01*
X161158354Y-72452147D01*
X161283853Y-72577646D01*
X161382456Y-72725216D01*
X161450376Y-72889188D01*
X161485000Y-73063259D01*
X161485000Y-73240741D01*
X161450376Y-73414812D01*
X161382456Y-73578784D01*
X161283853Y-73726354D01*
X161158354Y-73851853D01*
X161010784Y-73950456D01*
X160846812Y-74018376D01*
X160697914Y-74047993D01*
X160672742Y-74053000D01*
X160495258Y-74053000D01*
X160470086Y-74047993D01*
X160321188Y-74018376D01*
X160157216Y-73950456D01*
X160009646Y-73851853D01*
X159884147Y-73726354D01*
X159785544Y-73578784D01*
X159717624Y-73414812D01*
X159683000Y-73240741D01*
X159683000Y-73063259D01*
X159717624Y-72889188D01*
X159785544Y-72725216D01*
X159884147Y-72577646D01*
X160009646Y-72452147D01*
X160157216Y-72353544D01*
X160321188Y-72285624D01*
X160470488Y-72255927D01*
X160495258Y-72251000D01*
X160672742Y-72251000D01*
X160697512Y-72255927D01*
G37*
G36*
X187856821Y-68706144D02*
G01*
X188033500Y-68741287D01*
X188171373Y-68798396D01*
X188366355Y-68879160D01*
X188366356Y-68879161D01*
X188665920Y-69079323D01*
X188920677Y-69334080D01*
X188920678Y-69334082D01*
X189120840Y-69633645D01*
X189152881Y-69711000D01*
X189236200Y-69912148D01*
X189258713Y-69966501D01*
X189329000Y-70319858D01*
X189329000Y-70680142D01*
X189258713Y-71033499D01*
X189120840Y-71366355D01*
X189045990Y-71478375D01*
X188920677Y-71665920D01*
X188665920Y-71920677D01*
X188515120Y-72021438D01*
X188366355Y-72120840D01*
X188177659Y-72199000D01*
X188033500Y-72258713D01*
X187937452Y-72277818D01*
X187680142Y-72329000D01*
X187319858Y-72329000D01*
X187062548Y-72277818D01*
X186966500Y-72258713D01*
X186822341Y-72199000D01*
X186633645Y-72120840D01*
X186484880Y-72021438D01*
X186334080Y-71920677D01*
X186079323Y-71665920D01*
X185954010Y-71478375D01*
X185879160Y-71366355D01*
X185741287Y-71033499D01*
X185671000Y-70680142D01*
X185671000Y-70319858D01*
X185741287Y-69966501D01*
X185763801Y-69912148D01*
X185847119Y-69711000D01*
X185879160Y-69633645D01*
X186079322Y-69334082D01*
X186079323Y-69334080D01*
X186334080Y-69079323D01*
X186633644Y-68879161D01*
X186633645Y-68879160D01*
X186828627Y-68798396D01*
X186966500Y-68741287D01*
X187143179Y-68706144D01*
X187319858Y-68671000D01*
X187680142Y-68671000D01*
X187856821Y-68706144D01*
G37*
G36*
X160697512Y-69715927D02*
G01*
X160846812Y-69745624D01*
X161010784Y-69813544D01*
X161158354Y-69912147D01*
X161283853Y-70037646D01*
X161382456Y-70185216D01*
X161450376Y-70349188D01*
X161485000Y-70523259D01*
X161485000Y-70700741D01*
X161450376Y-70874812D01*
X161382456Y-71038784D01*
X161283853Y-71186354D01*
X161158354Y-71311853D01*
X161010784Y-71410456D01*
X160846812Y-71478376D01*
X160697512Y-71508073D01*
X160672742Y-71513000D01*
X160495258Y-71513000D01*
X160470488Y-71508073D01*
X160321188Y-71478376D01*
X160157216Y-71410456D01*
X160009646Y-71311853D01*
X159884147Y-71186354D01*
X159785544Y-71038784D01*
X159717624Y-70874812D01*
X159683000Y-70700741D01*
X159683000Y-70523259D01*
X159717624Y-70349188D01*
X159785544Y-70185216D01*
X159884147Y-70037646D01*
X160009646Y-69912147D01*
X160157216Y-69813544D01*
X160321188Y-69745624D01*
X160470488Y-69715927D01*
X160495258Y-69711000D01*
X160672742Y-69711000D01*
X160697512Y-69715927D01*
G37*
G36*
X175937512Y-69715927D02*
G01*
X176086812Y-69745624D01*
X176250784Y-69813544D01*
X176398354Y-69912147D01*
X176523853Y-70037646D01*
X176622456Y-70185216D01*
X176690376Y-70349188D01*
X176725000Y-70523259D01*
X176725000Y-70700741D01*
X176690376Y-70874812D01*
X176622456Y-71038784D01*
X176523853Y-71186354D01*
X176398354Y-71311853D01*
X176250784Y-71410456D01*
X176086812Y-71478376D01*
X175937512Y-71508073D01*
X175912742Y-71513000D01*
X175735258Y-71513000D01*
X175710488Y-71508073D01*
X175561188Y-71478376D01*
X175397216Y-71410456D01*
X175249646Y-71311853D01*
X175124147Y-71186354D01*
X175025544Y-71038784D01*
X174957624Y-70874812D01*
X174923000Y-70700741D01*
X174923000Y-70523259D01*
X174957624Y-70349188D01*
X175025544Y-70185216D01*
X175124147Y-70037646D01*
X175249646Y-69912147D01*
X175397216Y-69813544D01*
X175561188Y-69745624D01*
X175710488Y-69715927D01*
X175735258Y-69711000D01*
X175912742Y-69711000D01*
X175937512Y-69715927D01*
G37*
G36*
X184769579Y-65419112D02*
G01*
X184895544Y-65444168D01*
X185042991Y-65505243D01*
X185251512Y-65591615D01*
X185341503Y-65651745D01*
X185571877Y-65805676D01*
X185844324Y-66078123D01*
X185863187Y-66106354D01*
X186058385Y-66398488D01*
X186205832Y-66754457D01*
X186281000Y-67132349D01*
X186281000Y-67517651D01*
X186255625Y-67645218D01*
X186216261Y-67843116D01*
X186205832Y-67895543D01*
X186058385Y-68251512D01*
X185987355Y-68357816D01*
X185844324Y-68571877D01*
X185571877Y-68844324D01*
X185431119Y-68938375D01*
X185251512Y-69058385D01*
X185042991Y-69144757D01*
X184895544Y-69205832D01*
X184769579Y-69230888D01*
X184517651Y-69281000D01*
X184132349Y-69281000D01*
X183880421Y-69230888D01*
X183754456Y-69205832D01*
X183607009Y-69144757D01*
X183398488Y-69058385D01*
X183218881Y-68938375D01*
X183078123Y-68844324D01*
X182805676Y-68571877D01*
X182662645Y-68357816D01*
X182591615Y-68251512D01*
X182444168Y-67895543D01*
X182433740Y-67843116D01*
X182394375Y-67645218D01*
X182369000Y-67517651D01*
X182369000Y-67132349D01*
X182444168Y-66754457D01*
X182591615Y-66398488D01*
X182786813Y-66106354D01*
X182805676Y-66078123D01*
X183078123Y-65805676D01*
X183308497Y-65651745D01*
X183398488Y-65591615D01*
X183607009Y-65505243D01*
X183754456Y-65444168D01*
X183880421Y-65419112D01*
X184132349Y-65369000D01*
X184517651Y-65369000D01*
X184769579Y-65419112D01*
G37*
G36*
X191119579Y-65419112D02*
G01*
X191245544Y-65444168D01*
X191392991Y-65505243D01*
X191601512Y-65591615D01*
X191691503Y-65651745D01*
X191921877Y-65805676D01*
X192194324Y-66078123D01*
X192213187Y-66106354D01*
X192408385Y-66398488D01*
X192555832Y-66754457D01*
X192631000Y-67132349D01*
X192631000Y-67517651D01*
X192605625Y-67645218D01*
X192566261Y-67843116D01*
X192555832Y-67895543D01*
X192408385Y-68251512D01*
X192337355Y-68357816D01*
X192194324Y-68571877D01*
X191921877Y-68844324D01*
X191781119Y-68938375D01*
X191601512Y-69058385D01*
X191392991Y-69144757D01*
X191245544Y-69205832D01*
X191119579Y-69230888D01*
X190867651Y-69281000D01*
X190482349Y-69281000D01*
X190230421Y-69230888D01*
X190104456Y-69205832D01*
X189957009Y-69144757D01*
X189748488Y-69058385D01*
X189568881Y-68938375D01*
X189428123Y-68844324D01*
X189155676Y-68571877D01*
X189012645Y-68357816D01*
X188941615Y-68251512D01*
X188794168Y-67895543D01*
X188783740Y-67843116D01*
X188744375Y-67645218D01*
X188719000Y-67517651D01*
X188719000Y-67132349D01*
X188794168Y-66754457D01*
X188941615Y-66398488D01*
X189136813Y-66106354D01*
X189155676Y-66078123D01*
X189428123Y-65805676D01*
X189658497Y-65651745D01*
X189748488Y-65591615D01*
X189957009Y-65505243D01*
X190104456Y-65444168D01*
X190230421Y-65419112D01*
X190482349Y-65369000D01*
X190867651Y-65369000D01*
X191119579Y-65419112D01*
G37*
G36*
X175937512Y-67175927D02*
G01*
X176086812Y-67205624D01*
X176250784Y-67273544D01*
X176398354Y-67372147D01*
X176523853Y-67497646D01*
X176622456Y-67645216D01*
X176690376Y-67809188D01*
X176725000Y-67983259D01*
X176725000Y-68160741D01*
X176690376Y-68334812D01*
X176622456Y-68498784D01*
X176523853Y-68646354D01*
X176398354Y-68771853D01*
X176250784Y-68870456D01*
X176086812Y-68938376D01*
X175937512Y-68968073D01*
X175912742Y-68973000D01*
X175735258Y-68973000D01*
X175710488Y-68968073D01*
X175561188Y-68938376D01*
X175397216Y-68870456D01*
X175249646Y-68771853D01*
X175124147Y-68646354D01*
X175025544Y-68498784D01*
X174957624Y-68334812D01*
X174923000Y-68160741D01*
X174923000Y-67983259D01*
X174957624Y-67809188D01*
X175025544Y-67645216D01*
X175124147Y-67497646D01*
X175249646Y-67372147D01*
X175397216Y-67273544D01*
X175561188Y-67205624D01*
X175710488Y-67175927D01*
X175735258Y-67171000D01*
X175912742Y-67171000D01*
X175937512Y-67175927D01*
G37*
G36*
X160697512Y-67175927D02*
G01*
X160846812Y-67205624D01*
X161010784Y-67273544D01*
X161158354Y-67372147D01*
X161283853Y-67497646D01*
X161382456Y-67645216D01*
X161450376Y-67809188D01*
X161485000Y-67983259D01*
X161485000Y-68160741D01*
X161450376Y-68334812D01*
X161382456Y-68498784D01*
X161283853Y-68646354D01*
X161158354Y-68771853D01*
X161010784Y-68870456D01*
X160846812Y-68938376D01*
X160697512Y-68968073D01*
X160672742Y-68973000D01*
X160495258Y-68973000D01*
X160470488Y-68968073D01*
X160321188Y-68938376D01*
X160157216Y-68870456D01*
X160009646Y-68771853D01*
X159884147Y-68646354D01*
X159785544Y-68498784D01*
X159717624Y-68334812D01*
X159683000Y-68160741D01*
X159683000Y-67983259D01*
X159717624Y-67809188D01*
X159785544Y-67645216D01*
X159884147Y-67497646D01*
X160009646Y-67372147D01*
X160157216Y-67273544D01*
X160321188Y-67205624D01*
X160470488Y-67175927D01*
X160495258Y-67171000D01*
X160672742Y-67171000D01*
X160697512Y-67175927D01*
G37*
G36*
X150598254Y-64277818D02*
G01*
X150971511Y-64432426D01*
X150971513Y-64432427D01*
X151307436Y-64656884D01*
X151593116Y-64942564D01*
X151811360Y-65269188D01*
X151817574Y-65278489D01*
X151972182Y-65651746D01*
X152051000Y-66047993D01*
X152051000Y-66452007D01*
X151972182Y-66848254D01*
X151824154Y-67205625D01*
X151817573Y-67221513D01*
X151593116Y-67557436D01*
X151307436Y-67843116D01*
X150971513Y-68067573D01*
X150971512Y-68067574D01*
X150971511Y-68067574D01*
X150598254Y-68222182D01*
X150202007Y-68301000D01*
X149797993Y-68301000D01*
X149401746Y-68222182D01*
X149028489Y-68067574D01*
X149028488Y-68067574D01*
X149028487Y-68067573D01*
X148692564Y-67843116D01*
X148406884Y-67557436D01*
X148182427Y-67221513D01*
X148175846Y-67205625D01*
X148027818Y-66848254D01*
X147949000Y-66452007D01*
X147949000Y-66047993D01*
X148027818Y-65651746D01*
X148182426Y-65278489D01*
X148188641Y-65269188D01*
X148406884Y-64942564D01*
X148692564Y-64656884D01*
X149028487Y-64432427D01*
X149028489Y-64432426D01*
X149401746Y-64277818D01*
X149797993Y-64199000D01*
X150202007Y-64199000D01*
X150598254Y-64277818D01*
G37*
G36*
X175937512Y-64635927D02*
G01*
X176086812Y-64665624D01*
X176250784Y-64733544D01*
X176398354Y-64832147D01*
X176523853Y-64957646D01*
X176622456Y-65105216D01*
X176690376Y-65269188D01*
X176725000Y-65443259D01*
X176725000Y-65620741D01*
X176690376Y-65794812D01*
X176622456Y-65958784D01*
X176523853Y-66106354D01*
X176398354Y-66231853D01*
X176250784Y-66330456D01*
X176086812Y-66398376D01*
X175937512Y-66428073D01*
X175912742Y-66433000D01*
X175735258Y-66433000D01*
X175710488Y-66428073D01*
X175561188Y-66398376D01*
X175397216Y-66330456D01*
X175249646Y-66231853D01*
X175124147Y-66106354D01*
X175025544Y-65958784D01*
X174957624Y-65794812D01*
X174923000Y-65620741D01*
X174923000Y-65443259D01*
X174957624Y-65269188D01*
X175025544Y-65105216D01*
X175124147Y-64957646D01*
X175249646Y-64832147D01*
X175397216Y-64733544D01*
X175561188Y-64665624D01*
X175710488Y-64635927D01*
X175735258Y-64631000D01*
X175912742Y-64631000D01*
X175937512Y-64635927D01*
G37*
G36*
X160697512Y-64635927D02*
G01*
X160846812Y-64665624D01*
X161010784Y-64733544D01*
X161158354Y-64832147D01*
X161283853Y-64957646D01*
X161382456Y-65105216D01*
X161450376Y-65269188D01*
X161485000Y-65443259D01*
X161485000Y-65620741D01*
X161450376Y-65794812D01*
X161382456Y-65958784D01*
X161283853Y-66106354D01*
X161158354Y-66231853D01*
X161010784Y-66330456D01*
X160846812Y-66398376D01*
X160697512Y-66428073D01*
X160672742Y-66433000D01*
X160495258Y-66433000D01*
X160470488Y-66428073D01*
X160321188Y-66398376D01*
X160157216Y-66330456D01*
X160009646Y-66231853D01*
X159884147Y-66106354D01*
X159785544Y-65958784D01*
X159717624Y-65794812D01*
X159683000Y-65620741D01*
X159683000Y-65443259D01*
X159717624Y-65269188D01*
X159785544Y-65105216D01*
X159884147Y-64957646D01*
X160009646Y-64832147D01*
X160157216Y-64733544D01*
X160321188Y-64665624D01*
X160470488Y-64635927D01*
X160495258Y-64631000D01*
X160672742Y-64631000D01*
X160697512Y-64635927D01*
G37*
G36*
X142777395Y-63085546D02*
G01*
X142950466Y-63157234D01*
X142950467Y-63157235D01*
X143106227Y-63261310D01*
X143238690Y-63393773D01*
X143238691Y-63393775D01*
X143342766Y-63549534D01*
X143414454Y-63722605D01*
X143451000Y-63906333D01*
X143451000Y-64093667D01*
X143414454Y-64277395D01*
X143342766Y-64450466D01*
X143342765Y-64450467D01*
X143238690Y-64606227D01*
X143106227Y-64738690D01*
X143027818Y-64791081D01*
X142950466Y-64842766D01*
X142777395Y-64914454D01*
X142593667Y-64951000D01*
X142406333Y-64951000D01*
X142222605Y-64914454D01*
X142049534Y-64842766D01*
X141972182Y-64791081D01*
X141893773Y-64738690D01*
X141761310Y-64606227D01*
X141657235Y-64450467D01*
X141657234Y-64450466D01*
X141585546Y-64277395D01*
X141549000Y-64093667D01*
X141549000Y-63906333D01*
X141585546Y-63722605D01*
X141657234Y-63549534D01*
X141761309Y-63393775D01*
X141761310Y-63393773D01*
X141893773Y-63261310D01*
X142049533Y-63157235D01*
X142049534Y-63157234D01*
X142222605Y-63085546D01*
X142406333Y-63049000D01*
X142593667Y-63049000D01*
X142777395Y-63085546D01*
G37*
G36*
X160697512Y-62095927D02*
G01*
X160846812Y-62125624D01*
X161010784Y-62193544D01*
X161158354Y-62292147D01*
X161283853Y-62417646D01*
X161382456Y-62565216D01*
X161450376Y-62729188D01*
X161485000Y-62903259D01*
X161485000Y-63080741D01*
X161450376Y-63254812D01*
X161382456Y-63418784D01*
X161283853Y-63566354D01*
X161158354Y-63691853D01*
X161010784Y-63790456D01*
X160846812Y-63858376D01*
X160697512Y-63888073D01*
X160672742Y-63893000D01*
X160495258Y-63893000D01*
X160470488Y-63888073D01*
X160321188Y-63858376D01*
X160157216Y-63790456D01*
X160009646Y-63691853D01*
X159884147Y-63566354D01*
X159785544Y-63418784D01*
X159717624Y-63254812D01*
X159683000Y-63080741D01*
X159683000Y-62903259D01*
X159717624Y-62729188D01*
X159785544Y-62565216D01*
X159884147Y-62417646D01*
X160009646Y-62292147D01*
X160157216Y-62193544D01*
X160321188Y-62125624D01*
X160470488Y-62095927D01*
X160495258Y-62091000D01*
X160672742Y-62091000D01*
X160697512Y-62095927D01*
G37*
G36*
X175937512Y-62095927D02*
G01*
X176086812Y-62125624D01*
X176250784Y-62193544D01*
X176398354Y-62292147D01*
X176523853Y-62417646D01*
X176622456Y-62565216D01*
X176690376Y-62729188D01*
X176725000Y-62903259D01*
X176725000Y-63080741D01*
X176690376Y-63254812D01*
X176622456Y-63418784D01*
X176523853Y-63566354D01*
X176398354Y-63691853D01*
X176250784Y-63790456D01*
X176086812Y-63858376D01*
X175937512Y-63888073D01*
X175912742Y-63893000D01*
X175735258Y-63893000D01*
X175710488Y-63888073D01*
X175561188Y-63858376D01*
X175397216Y-63790456D01*
X175249646Y-63691853D01*
X175124147Y-63566354D01*
X175025544Y-63418784D01*
X174957624Y-63254812D01*
X174923000Y-63080741D01*
X174923000Y-62903259D01*
X174957624Y-62729188D01*
X175025544Y-62565216D01*
X175124147Y-62417646D01*
X175249646Y-62292147D01*
X175397216Y-62193544D01*
X175561188Y-62125624D01*
X175710488Y-62095927D01*
X175735258Y-62091000D01*
X175912742Y-62091000D01*
X175937512Y-62095927D01*
G37*
G36*
X142777395Y-60585546D02*
G01*
X142950466Y-60657234D01*
X142950467Y-60657235D01*
X143106227Y-60761310D01*
X143238690Y-60893773D01*
X143238691Y-60893775D01*
X143342766Y-61049534D01*
X143414454Y-61222605D01*
X143451000Y-61406333D01*
X143451000Y-61593667D01*
X143414454Y-61777395D01*
X143342766Y-61950466D01*
X143342765Y-61950467D01*
X143238690Y-62106227D01*
X143106227Y-62238690D01*
X143027818Y-62291081D01*
X142950466Y-62342766D01*
X142777395Y-62414454D01*
X142593667Y-62451000D01*
X142406333Y-62451000D01*
X142222605Y-62414454D01*
X142049534Y-62342766D01*
X141972182Y-62291081D01*
X141893773Y-62238690D01*
X141761310Y-62106227D01*
X141657235Y-61950467D01*
X141657234Y-61950466D01*
X141585546Y-61777395D01*
X141549000Y-61593667D01*
X141549000Y-61406333D01*
X141585546Y-61222605D01*
X141657234Y-61049534D01*
X141761309Y-60893775D01*
X141761310Y-60893773D01*
X141893773Y-60761310D01*
X142049533Y-60657235D01*
X142049534Y-60657234D01*
X142222605Y-60585546D01*
X142406333Y-60549000D01*
X142593667Y-60549000D01*
X142777395Y-60585546D01*
G37*
G36*
X175937512Y-59555927D02*
G01*
X176086812Y-59585624D01*
X176250784Y-59653544D01*
X176398354Y-59752147D01*
X176523853Y-59877646D01*
X176622456Y-60025216D01*
X176690376Y-60189188D01*
X176725000Y-60363259D01*
X176725000Y-60540741D01*
X176690376Y-60714812D01*
X176622456Y-60878784D01*
X176523853Y-61026354D01*
X176398354Y-61151853D01*
X176250784Y-61250456D01*
X176086812Y-61318376D01*
X175937512Y-61348073D01*
X175912742Y-61353000D01*
X175735258Y-61353000D01*
X175710488Y-61348073D01*
X175561188Y-61318376D01*
X175397216Y-61250456D01*
X175249646Y-61151853D01*
X175124147Y-61026354D01*
X175025544Y-60878784D01*
X174957624Y-60714812D01*
X174923000Y-60540741D01*
X174923000Y-60363259D01*
X174957624Y-60189188D01*
X175025544Y-60025216D01*
X175124147Y-59877646D01*
X175249646Y-59752147D01*
X175397216Y-59653544D01*
X175561188Y-59585624D01*
X175710488Y-59555927D01*
X175735258Y-59551000D01*
X175912742Y-59551000D01*
X175937512Y-59555927D01*
G37*
G36*
X160697512Y-59555927D02*
G01*
X160846812Y-59585624D01*
X161010784Y-59653544D01*
X161158354Y-59752147D01*
X161283853Y-59877646D01*
X161382456Y-60025216D01*
X161450376Y-60189188D01*
X161485000Y-60363259D01*
X161485000Y-60540741D01*
X161450376Y-60714812D01*
X161382456Y-60878784D01*
X161283853Y-61026354D01*
X161158354Y-61151853D01*
X161010784Y-61250456D01*
X160846812Y-61318376D01*
X160697512Y-61348073D01*
X160672742Y-61353000D01*
X160495258Y-61353000D01*
X160470488Y-61348073D01*
X160321188Y-61318376D01*
X160157216Y-61250456D01*
X160009646Y-61151853D01*
X159884147Y-61026354D01*
X159785544Y-60878784D01*
X159717624Y-60714812D01*
X159683000Y-60540741D01*
X159683000Y-60363259D01*
X159717624Y-60189188D01*
X159785544Y-60025216D01*
X159884147Y-59877646D01*
X160009646Y-59752147D01*
X160157216Y-59653544D01*
X160321188Y-59585624D01*
X160470488Y-59555927D01*
X160495258Y-59551000D01*
X160672742Y-59551000D01*
X160697512Y-59555927D01*
G37*
G36*
X191325579Y-56594112D02*
G01*
X191451544Y-56619168D01*
X191598991Y-56680243D01*
X191807512Y-56766615D01*
X191807513Y-56766616D01*
X192127877Y-56980676D01*
X192400324Y-57253123D01*
X192456800Y-57337646D01*
X192614385Y-57573488D01*
X192645741Y-57649188D01*
X192717844Y-57823259D01*
X192761832Y-57929457D01*
X192837000Y-58307349D01*
X192837000Y-58692651D01*
X192761832Y-59070543D01*
X192614385Y-59426512D01*
X192543355Y-59532816D01*
X192400324Y-59746877D01*
X192127877Y-60019324D01*
X191913816Y-60162355D01*
X191807512Y-60233385D01*
X191598991Y-60319757D01*
X191451544Y-60380832D01*
X191325579Y-60405888D01*
X191073651Y-60456000D01*
X190688349Y-60456000D01*
X190436421Y-60405888D01*
X190310456Y-60380832D01*
X190163009Y-60319757D01*
X189954488Y-60233385D01*
X189848184Y-60162355D01*
X189634123Y-60019324D01*
X189361676Y-59746877D01*
X189218645Y-59532816D01*
X189147615Y-59426512D01*
X189000168Y-59070543D01*
X188925000Y-58692651D01*
X188925000Y-58307349D01*
X189000168Y-57929457D01*
X189044157Y-57823259D01*
X189116259Y-57649188D01*
X189147615Y-57573488D01*
X189305200Y-57337646D01*
X189361676Y-57253123D01*
X189634123Y-56980676D01*
X189954487Y-56766616D01*
X189954488Y-56766615D01*
X190163009Y-56680243D01*
X190310456Y-56619168D01*
X190436421Y-56594112D01*
X190688349Y-56544000D01*
X191073651Y-56544000D01*
X191325579Y-56594112D01*
G37*
G36*
X184975579Y-56594112D02*
G01*
X185101544Y-56619168D01*
X185248991Y-56680243D01*
X185457512Y-56766615D01*
X185457513Y-56766616D01*
X185777877Y-56980676D01*
X186050324Y-57253123D01*
X186106800Y-57337646D01*
X186264385Y-57573488D01*
X186295741Y-57649188D01*
X186367844Y-57823259D01*
X186411832Y-57929457D01*
X186487000Y-58307349D01*
X186487000Y-58692651D01*
X186411832Y-59070543D01*
X186264385Y-59426512D01*
X186193355Y-59532816D01*
X186050324Y-59746877D01*
X185777877Y-60019324D01*
X185563816Y-60162355D01*
X185457512Y-60233385D01*
X185248991Y-60319757D01*
X185101544Y-60380832D01*
X184975579Y-60405888D01*
X184723651Y-60456000D01*
X184338349Y-60456000D01*
X184086421Y-60405888D01*
X183960456Y-60380832D01*
X183813009Y-60319757D01*
X183604488Y-60233385D01*
X183498184Y-60162355D01*
X183284123Y-60019324D01*
X183011676Y-59746877D01*
X182868645Y-59532816D01*
X182797615Y-59426512D01*
X182650168Y-59070543D01*
X182575000Y-58692651D01*
X182575000Y-58307349D01*
X182650168Y-57929457D01*
X182694157Y-57823259D01*
X182766259Y-57649188D01*
X182797615Y-57573488D01*
X182955200Y-57337646D01*
X183011676Y-57253123D01*
X183284123Y-56980676D01*
X183604487Y-56766616D01*
X183604488Y-56766615D01*
X183813009Y-56680243D01*
X183960456Y-56619168D01*
X184086421Y-56594112D01*
X184338349Y-56544000D01*
X184723651Y-56544000D01*
X184975579Y-56594112D01*
G37*
G36*
X142777395Y-58085546D02*
G01*
X142950466Y-58157234D01*
X142976773Y-58174812D01*
X143106227Y-58261310D01*
X143238690Y-58393773D01*
X143238691Y-58393775D01*
X143342766Y-58549534D01*
X143414454Y-58722605D01*
X143451000Y-58906333D01*
X143451000Y-59093667D01*
X143414454Y-59277395D01*
X143342766Y-59450466D01*
X143342765Y-59450467D01*
X143238690Y-59606227D01*
X143106227Y-59738690D01*
X143027818Y-59791081D01*
X142950466Y-59842766D01*
X142777395Y-59914454D01*
X142593667Y-59951000D01*
X142406333Y-59951000D01*
X142222605Y-59914454D01*
X142049534Y-59842766D01*
X141972182Y-59791081D01*
X141893773Y-59738690D01*
X141761310Y-59606227D01*
X141657235Y-59450467D01*
X141657234Y-59450466D01*
X141585546Y-59277395D01*
X141549000Y-59093667D01*
X141549000Y-58906333D01*
X141585546Y-58722605D01*
X141657234Y-58549534D01*
X141761309Y-58393775D01*
X141761310Y-58393773D01*
X141893773Y-58261310D01*
X142023227Y-58174812D01*
X142049534Y-58157234D01*
X142222605Y-58085546D01*
X142406333Y-58049000D01*
X142593667Y-58049000D01*
X142777395Y-58085546D01*
G37*
G36*
X175937512Y-57015927D02*
G01*
X176086812Y-57045624D01*
X176250784Y-57113544D01*
X176398354Y-57212147D01*
X176523853Y-57337646D01*
X176622456Y-57485216D01*
X176690376Y-57649188D01*
X176725000Y-57823259D01*
X176725000Y-58000741D01*
X176690376Y-58174812D01*
X176622456Y-58338784D01*
X176523853Y-58486354D01*
X176398354Y-58611853D01*
X176250784Y-58710456D01*
X176086812Y-58778376D01*
X175937512Y-58808073D01*
X175912742Y-58813000D01*
X175735258Y-58813000D01*
X175710488Y-58808073D01*
X175561188Y-58778376D01*
X175397216Y-58710456D01*
X175249646Y-58611853D01*
X175124147Y-58486354D01*
X175025544Y-58338784D01*
X174957624Y-58174812D01*
X174923000Y-58000741D01*
X174923000Y-57823259D01*
X174957624Y-57649188D01*
X175025544Y-57485216D01*
X175124147Y-57337646D01*
X175249646Y-57212147D01*
X175397216Y-57113544D01*
X175561188Y-57045624D01*
X175710488Y-57015927D01*
X175735258Y-57011000D01*
X175912742Y-57011000D01*
X175937512Y-57015927D01*
G37*
G36*
X160697512Y-57015927D02*
G01*
X160846812Y-57045624D01*
X161010784Y-57113544D01*
X161158354Y-57212147D01*
X161283853Y-57337646D01*
X161382456Y-57485216D01*
X161450376Y-57649188D01*
X161485000Y-57823259D01*
X161485000Y-58000741D01*
X161450376Y-58174812D01*
X161382456Y-58338784D01*
X161283853Y-58486354D01*
X161158354Y-58611853D01*
X161010784Y-58710456D01*
X160846812Y-58778376D01*
X160697512Y-58808073D01*
X160672742Y-58813000D01*
X160495258Y-58813000D01*
X160470488Y-58808073D01*
X160321188Y-58778376D01*
X160157216Y-58710456D01*
X160009646Y-58611853D01*
X159884147Y-58486354D01*
X159785544Y-58338784D01*
X159717624Y-58174812D01*
X159683000Y-58000741D01*
X159683000Y-57823259D01*
X159717624Y-57649188D01*
X159785544Y-57485216D01*
X159884147Y-57337646D01*
X160009646Y-57212147D01*
X160157216Y-57113544D01*
X160321188Y-57045624D01*
X160470488Y-57015927D01*
X160495258Y-57011000D01*
X160672742Y-57011000D01*
X160697512Y-57015927D01*
G37*
G36*
X150598254Y-54777818D02*
G01*
X150971511Y-54932426D01*
X150971513Y-54932427D01*
X151307436Y-55156884D01*
X151593116Y-55442564D01*
X151721572Y-55634811D01*
X151817574Y-55778489D01*
X151972182Y-56151746D01*
X152051000Y-56547993D01*
X152051000Y-56952007D01*
X151972182Y-57348254D01*
X151817574Y-57721511D01*
X151817573Y-57721513D01*
X151593116Y-58057436D01*
X151307436Y-58343116D01*
X150971513Y-58567573D01*
X150971512Y-58567574D01*
X150971511Y-58567574D01*
X150598254Y-58722182D01*
X150202007Y-58801000D01*
X149797993Y-58801000D01*
X149401746Y-58722182D01*
X149028489Y-58567574D01*
X149028488Y-58567574D01*
X149028487Y-58567573D01*
X148692564Y-58343116D01*
X148406884Y-58057436D01*
X148182427Y-57721513D01*
X148182426Y-57721511D01*
X148027818Y-57348254D01*
X147949000Y-56952007D01*
X147949000Y-56547993D01*
X148027818Y-56151746D01*
X148182426Y-55778489D01*
X148278429Y-55634811D01*
X148406884Y-55442564D01*
X148692564Y-55156884D01*
X149028487Y-54932427D01*
X149028489Y-54932426D01*
X149401746Y-54777818D01*
X149797993Y-54699000D01*
X150202007Y-54699000D01*
X150598254Y-54777818D01*
G37*
G36*
X188062821Y-53531144D02*
G01*
X188239500Y-53566287D01*
X188377373Y-53623396D01*
X188572355Y-53704160D01*
X188572356Y-53704161D01*
X188871920Y-53904323D01*
X189126677Y-54159080D01*
X189126678Y-54159082D01*
X189326840Y-54458645D01*
X189407604Y-54653627D01*
X189464713Y-54791500D01*
X189535000Y-55144859D01*
X189535000Y-55505141D01*
X189464713Y-55858500D01*
X189407604Y-55996373D01*
X189326840Y-56191355D01*
X189272286Y-56273000D01*
X189126677Y-56490920D01*
X188871920Y-56745677D01*
X188721120Y-56846438D01*
X188572355Y-56945840D01*
X188415044Y-57011000D01*
X188239500Y-57083713D01*
X188089528Y-57113544D01*
X187886142Y-57154000D01*
X187525858Y-57154000D01*
X187322472Y-57113544D01*
X187172500Y-57083713D01*
X186996956Y-57011000D01*
X186839645Y-56945840D01*
X186690880Y-56846438D01*
X186540080Y-56745677D01*
X186285323Y-56490920D01*
X186139714Y-56273000D01*
X186085160Y-56191355D01*
X186004396Y-55996373D01*
X185947287Y-55858500D01*
X185877000Y-55505141D01*
X185877000Y-55144859D01*
X185947287Y-54791500D01*
X186004396Y-54653627D01*
X186085160Y-54458645D01*
X186285322Y-54159082D01*
X186285323Y-54159080D01*
X186540080Y-53904323D01*
X186839644Y-53704161D01*
X186839645Y-53704160D01*
X187034627Y-53623396D01*
X187172500Y-53566287D01*
X187349179Y-53531144D01*
X187525858Y-53496000D01*
X187886142Y-53496000D01*
X188062821Y-53531144D01*
G37*
G36*
X160697512Y-54475927D02*
G01*
X160846812Y-54505624D01*
X161010784Y-54573544D01*
X161158354Y-54672147D01*
X161283853Y-54797646D01*
X161382456Y-54945216D01*
X161450376Y-55109188D01*
X161485000Y-55283259D01*
X161485000Y-55460741D01*
X161450376Y-55634812D01*
X161382456Y-55798784D01*
X161283853Y-55946354D01*
X161158354Y-56071853D01*
X161010784Y-56170456D01*
X160846812Y-56238376D01*
X160697512Y-56268073D01*
X160672742Y-56273000D01*
X160495258Y-56273000D01*
X160470488Y-56268073D01*
X160321188Y-56238376D01*
X160157216Y-56170456D01*
X160009646Y-56071853D01*
X159884147Y-55946354D01*
X159785544Y-55798784D01*
X159717624Y-55634812D01*
X159683000Y-55460741D01*
X159683000Y-55283259D01*
X159717624Y-55109188D01*
X159785544Y-54945216D01*
X159884147Y-54797646D01*
X160009646Y-54672147D01*
X160157216Y-54573544D01*
X160321188Y-54505624D01*
X160470488Y-54475927D01*
X160495258Y-54471000D01*
X160672742Y-54471000D01*
X160697512Y-54475927D01*
G37*
G36*
X175937512Y-54475927D02*
G01*
X176086812Y-54505624D01*
X176250784Y-54573544D01*
X176398354Y-54672147D01*
X176523853Y-54797646D01*
X176622456Y-54945216D01*
X176690376Y-55109188D01*
X176725000Y-55283259D01*
X176725000Y-55460741D01*
X176690376Y-55634812D01*
X176622456Y-55798784D01*
X176523853Y-55946354D01*
X176398354Y-56071853D01*
X176250784Y-56170456D01*
X176086812Y-56238376D01*
X175937512Y-56268073D01*
X175912742Y-56273000D01*
X175735258Y-56273000D01*
X175710488Y-56268073D01*
X175561188Y-56238376D01*
X175397216Y-56170456D01*
X175249646Y-56071853D01*
X175124147Y-55946354D01*
X175025544Y-55798784D01*
X174957624Y-55634812D01*
X174923000Y-55460741D01*
X174923000Y-55283259D01*
X174957624Y-55109188D01*
X175025544Y-54945216D01*
X175124147Y-54797646D01*
X175249646Y-54672147D01*
X175397216Y-54573544D01*
X175561188Y-54505624D01*
X175710488Y-54475927D01*
X175735258Y-54471000D01*
X175912742Y-54471000D01*
X175937512Y-54475927D01*
G37*
G36*
X191325579Y-50244112D02*
G01*
X191451544Y-50269168D01*
X191598991Y-50330243D01*
X191807512Y-50416615D01*
X191807513Y-50416616D01*
X192127877Y-50630676D01*
X192400324Y-50903123D01*
X192543355Y-51117184D01*
X192614385Y-51223488D01*
X192761832Y-51579457D01*
X192837000Y-51957349D01*
X192837000Y-52342651D01*
X192791939Y-52569188D01*
X192761832Y-52720544D01*
X192752423Y-52743259D01*
X192614385Y-53076512D01*
X192614384Y-53076513D01*
X192400324Y-53396877D01*
X192127877Y-53669324D01*
X191913816Y-53812355D01*
X191807512Y-53883385D01*
X191598991Y-53969757D01*
X191451544Y-54030832D01*
X191325579Y-54055888D01*
X191073651Y-54106000D01*
X190688349Y-54106000D01*
X190436421Y-54055888D01*
X190310456Y-54030832D01*
X190163009Y-53969757D01*
X189954488Y-53883385D01*
X189848184Y-53812355D01*
X189634123Y-53669324D01*
X189361676Y-53396877D01*
X189147616Y-53076513D01*
X189147615Y-53076512D01*
X189009577Y-52743259D01*
X189000168Y-52720544D01*
X188970061Y-52569188D01*
X188925000Y-52342651D01*
X188925000Y-51957349D01*
X189000168Y-51579457D01*
X189147615Y-51223488D01*
X189218645Y-51117184D01*
X189361676Y-50903123D01*
X189634123Y-50630676D01*
X189954487Y-50416616D01*
X189954488Y-50416615D01*
X190163009Y-50330243D01*
X190310456Y-50269168D01*
X190436421Y-50244112D01*
X190688349Y-50194000D01*
X191073651Y-50194000D01*
X191325579Y-50244112D01*
G37*
G36*
X184975579Y-50244112D02*
G01*
X185101544Y-50269168D01*
X185248991Y-50330243D01*
X185457512Y-50416615D01*
X185457513Y-50416616D01*
X185777877Y-50630676D01*
X186050324Y-50903123D01*
X186193355Y-51117184D01*
X186264385Y-51223488D01*
X186411832Y-51579457D01*
X186487000Y-51957349D01*
X186487000Y-52342651D01*
X186441939Y-52569188D01*
X186411832Y-52720544D01*
X186402423Y-52743259D01*
X186264385Y-53076512D01*
X186264384Y-53076513D01*
X186050324Y-53396877D01*
X185777877Y-53669324D01*
X185563816Y-53812355D01*
X185457512Y-53883385D01*
X185248991Y-53969757D01*
X185101544Y-54030832D01*
X184975579Y-54055888D01*
X184723651Y-54106000D01*
X184338349Y-54106000D01*
X184086421Y-54055888D01*
X183960456Y-54030832D01*
X183813009Y-53969757D01*
X183604488Y-53883385D01*
X183498184Y-53812355D01*
X183284123Y-53669324D01*
X183011676Y-53396877D01*
X182797616Y-53076513D01*
X182797615Y-53076512D01*
X182659577Y-52743259D01*
X182650168Y-52720544D01*
X182620061Y-52569188D01*
X182575000Y-52342651D01*
X182575000Y-51957349D01*
X182650168Y-51579457D01*
X182797615Y-51223488D01*
X182868645Y-51117184D01*
X183011676Y-50903123D01*
X183284123Y-50630676D01*
X183604487Y-50416616D01*
X183604488Y-50416615D01*
X183813009Y-50330243D01*
X183960456Y-50269168D01*
X184086421Y-50244112D01*
X184338349Y-50194000D01*
X184723651Y-50194000D01*
X184975579Y-50244112D01*
G37*
G36*
X161485000Y-53733000D02*
G01*
X159683000Y-53733000D01*
X159683000Y-51931000D01*
X161485000Y-51931000D01*
X161485000Y-53733000D01*
G37*
G36*
X175937512Y-51935927D02*
G01*
X176086812Y-51965624D01*
X176250784Y-52033544D01*
X176398354Y-52132147D01*
X176523853Y-52257646D01*
X176622456Y-52405216D01*
X176690376Y-52569188D01*
X176725000Y-52743259D01*
X176725000Y-52920741D01*
X176690376Y-53094812D01*
X176622456Y-53258784D01*
X176523853Y-53406354D01*
X176398354Y-53531853D01*
X176250784Y-53630456D01*
X176086812Y-53698376D01*
X175937512Y-53728073D01*
X175912742Y-53733000D01*
X175735258Y-53733000D01*
X175710488Y-53728073D01*
X175561188Y-53698376D01*
X175397216Y-53630456D01*
X175249646Y-53531853D01*
X175124147Y-53406354D01*
X175025544Y-53258784D01*
X174957624Y-53094812D01*
X174923000Y-52920741D01*
X174923000Y-52743259D01*
X174957624Y-52569188D01*
X175025544Y-52405216D01*
X175124147Y-52257646D01*
X175249646Y-52132147D01*
X175397216Y-52033544D01*
X175561188Y-51965624D01*
X175710488Y-51935927D01*
X175735258Y-51931000D01*
X175912742Y-51931000D01*
X175937512Y-51935927D01*
G37*
M02*
