G04 #@! TF.GenerationSoftware,KiCad,Pcbnew,5.1.6-c6e7f7d~86~ubuntu20.04.1*
G04 #@! TF.CreationDate,2020-06-08T22:40:47+01:00*
G04 #@! TF.ProjectId,spikeling,7370696b-656c-4696-9e67-2e6b69636164,rev?*
G04 #@! TF.SameCoordinates,Original*
G04 #@! TF.FileFunction,Paste,Top*
G04 #@! TF.FilePolarity,Positive*
%FSLAX46Y46*%
G04 Gerber Fmt 4.6, Leading zero omitted, Abs format (unit mm)*
G04 Created by KiCad (PCBNEW 5.1.6-c6e7f7d~86~ubuntu20.04.1) date 2020-06-08 22:40:47*
%MOMM*%
%LPD*%
G01*
G04 APERTURE LIST*
%ADD10R,1.300000X3.400000*%
%ADD11R,1.550000X1.300000*%
G04 APERTURE END LIST*
G36*
G01*
X176275000Y-105125000D02*
X176275000Y-103875000D01*
G75*
G02*
X176525000Y-103625000I250000J0D01*
G01*
X177450000Y-103625000D01*
G75*
G02*
X177700000Y-103875000I0J-250000D01*
G01*
X177700000Y-105125000D01*
G75*
G02*
X177450000Y-105375000I-250000J0D01*
G01*
X176525000Y-105375000D01*
G75*
G02*
X176275000Y-105125000I0J250000D01*
G01*
G37*
G36*
G01*
X173300000Y-105125000D02*
X173300000Y-103875000D01*
G75*
G02*
X173550000Y-103625000I250000J0D01*
G01*
X174475000Y-103625000D01*
G75*
G02*
X174725000Y-103875000I0J-250000D01*
G01*
X174725000Y-105125000D01*
G75*
G02*
X174475000Y-105375000I-250000J0D01*
G01*
X173550000Y-105375000D01*
G75*
G02*
X173300000Y-105125000I0J250000D01*
G01*
G37*
G36*
G01*
X167225000Y-62875000D02*
X167225000Y-64125000D01*
G75*
G02*
X166975000Y-64375000I-250000J0D01*
G01*
X166050000Y-64375000D01*
G75*
G02*
X165800000Y-64125000I0J250000D01*
G01*
X165800000Y-62875000D01*
G75*
G02*
X166050000Y-62625000I250000J0D01*
G01*
X166975000Y-62625000D01*
G75*
G02*
X167225000Y-62875000I0J-250000D01*
G01*
G37*
G36*
G01*
X170200000Y-62875000D02*
X170200000Y-64125000D01*
G75*
G02*
X169950000Y-64375000I-250000J0D01*
G01*
X169025000Y-64375000D01*
G75*
G02*
X168775000Y-64125000I0J250000D01*
G01*
X168775000Y-62875000D01*
G75*
G02*
X169025000Y-62625000I250000J0D01*
G01*
X169950000Y-62625000D01*
G75*
G02*
X170200000Y-62875000I0J-250000D01*
G01*
G37*
G36*
G01*
X165375000Y-89275000D02*
X166625000Y-89275000D01*
G75*
G02*
X166875000Y-89525000I0J-250000D01*
G01*
X166875000Y-90450000D01*
G75*
G02*
X166625000Y-90700000I-250000J0D01*
G01*
X165375000Y-90700000D01*
G75*
G02*
X165125000Y-90450000I0J250000D01*
G01*
X165125000Y-89525000D01*
G75*
G02*
X165375000Y-89275000I250000J0D01*
G01*
G37*
G36*
G01*
X165375000Y-86300000D02*
X166625000Y-86300000D01*
G75*
G02*
X166875000Y-86550000I0J-250000D01*
G01*
X166875000Y-87475000D01*
G75*
G02*
X166625000Y-87725000I-250000J0D01*
G01*
X165375000Y-87725000D01*
G75*
G02*
X165125000Y-87475000I0J250000D01*
G01*
X165125000Y-86550000D01*
G75*
G02*
X165375000Y-86300000I250000J0D01*
G01*
G37*
G36*
G01*
X168775000Y-60125000D02*
X168775000Y-58875000D01*
G75*
G02*
X169025000Y-58625000I250000J0D01*
G01*
X169950000Y-58625000D01*
G75*
G02*
X170200000Y-58875000I0J-250000D01*
G01*
X170200000Y-60125000D01*
G75*
G02*
X169950000Y-60375000I-250000J0D01*
G01*
X169025000Y-60375000D01*
G75*
G02*
X168775000Y-60125000I0J250000D01*
G01*
G37*
G36*
G01*
X165800000Y-60125000D02*
X165800000Y-58875000D01*
G75*
G02*
X166050000Y-58625000I250000J0D01*
G01*
X166975000Y-58625000D01*
G75*
G02*
X167225000Y-58875000I0J-250000D01*
G01*
X167225000Y-60125000D01*
G75*
G02*
X166975000Y-60375000I-250000J0D01*
G01*
X166050000Y-60375000D01*
G75*
G02*
X165800000Y-60125000I0J250000D01*
G01*
G37*
G36*
G01*
X168775000Y-56125000D02*
X168775000Y-54875000D01*
G75*
G02*
X169025000Y-54625000I250000J0D01*
G01*
X169950000Y-54625000D01*
G75*
G02*
X170200000Y-54875000I0J-250000D01*
G01*
X170200000Y-56125000D01*
G75*
G02*
X169950000Y-56375000I-250000J0D01*
G01*
X169025000Y-56375000D01*
G75*
G02*
X168775000Y-56125000I0J250000D01*
G01*
G37*
G36*
G01*
X165800000Y-56125000D02*
X165800000Y-54875000D01*
G75*
G02*
X166050000Y-54625000I250000J0D01*
G01*
X166975000Y-54625000D01*
G75*
G02*
X167225000Y-54875000I0J-250000D01*
G01*
X167225000Y-56125000D01*
G75*
G02*
X166975000Y-56375000I-250000J0D01*
G01*
X166050000Y-56375000D01*
G75*
G02*
X165800000Y-56125000I0J250000D01*
G01*
G37*
D10*
X179350000Y-96000000D03*
X170650000Y-96000000D03*
G36*
G01*
X170200000Y-50425000D02*
X170200000Y-52575000D01*
G75*
G02*
X169950000Y-52825000I-250000J0D01*
G01*
X169025000Y-52825000D01*
G75*
G02*
X168775000Y-52575000I0J250000D01*
G01*
X168775000Y-50425000D01*
G75*
G02*
X169025000Y-50175000I250000J0D01*
G01*
X169950000Y-50175000D01*
G75*
G02*
X170200000Y-50425000I0J-250000D01*
G01*
G37*
G36*
G01*
X167225000Y-50425000D02*
X167225000Y-52575000D01*
G75*
G02*
X166975000Y-52825000I-250000J0D01*
G01*
X166050000Y-52825000D01*
G75*
G02*
X165800000Y-52575000I0J250000D01*
G01*
X165800000Y-50425000D01*
G75*
G02*
X166050000Y-50175000I250000J0D01*
G01*
X166975000Y-50175000D01*
G75*
G02*
X167225000Y-50425000I0J-250000D01*
G01*
G37*
G36*
G01*
X172800000Y-111150001D02*
X172800000Y-109849999D01*
G75*
G02*
X173049999Y-109600000I249999J0D01*
G01*
X173950001Y-109600000D01*
G75*
G02*
X174200000Y-109849999I0J-249999D01*
G01*
X174200000Y-111150001D01*
G75*
G02*
X173950001Y-111400000I-249999J0D01*
G01*
X173049999Y-111400000D01*
G75*
G02*
X172800000Y-111150001I0J249999D01*
G01*
G37*
G36*
G01*
X176800000Y-111150001D02*
X176800000Y-109849999D01*
G75*
G02*
X177049999Y-109600000I249999J0D01*
G01*
X177950001Y-109600000D01*
G75*
G02*
X178200000Y-109849999I0J-249999D01*
G01*
X178200000Y-111150001D01*
G75*
G02*
X177950001Y-111400000I-249999J0D01*
G01*
X177049999Y-111400000D01*
G75*
G02*
X176800000Y-111150001I0J249999D01*
G01*
G37*
D11*
X165975000Y-94750000D03*
X165975000Y-99250000D03*
X158025000Y-99250000D03*
X158025000Y-94750000D03*
M02*
