M48
; DRILL file {KiCad 5.1.6-c6e7f7d~87~ubuntu20.04.1} date Thu Jul 16 12:52:27 2020
; FORMAT={-:-/ absolute / metric / decimal}
; #@! TF.CreationDate,2020-07-16T12:52:27+01:00
; #@! TF.GenerationSoftware,Kicad,Pcbnew,5.1.6-c6e7f7d~87~ubuntu20.04.1
; #@! TF.FileFunction,Plated,1,2,PTH
FMAT,2
METRIC
T1C0.400
T2C1.000
T3C1.270
T4C1.524
%
G90
G05
T1
X149.5Y-71.0
X150.0Y-114.0
X150.5Y-52.5
X150.5Y-88.5
X151.5Y-79.0
X153.5Y-71.0
X154.158Y-84.658
X155.0Y-109.0
X162.5Y-84.0
X163.0Y-88.0
X163.5Y-70.0
X167.528Y-86.528
X170.5Y-118.0
X170.65Y-101.137
X171.0Y-59.5
X171.0Y-63.5
X171.528Y-78.0
X171.528Y-82.528
X177.5Y-91.5
X180.0Y-89.0
X181.075Y-93.075
X181.18Y-71.32
X181.5Y-83.0
T2
X142.5Y-111.5
X142.5Y-114.0
X142.5Y-116.5
X142.422Y-94.0
X142.422Y-96.5
X142.422Y-99.0
X142.5Y-76.5
X142.5Y-79.0
X142.5Y-81.5
X142.5Y-59.0
X142.5Y-61.5
X142.5Y-64.0
X175.824Y-52.832
X175.824Y-55.372
X175.824Y-57.912
X175.824Y-60.452
X175.824Y-62.992
X175.824Y-65.532
X175.824Y-68.072
X175.824Y-70.612
X175.824Y-73.152
X175.824Y-75.692
X175.824Y-78.232
X175.824Y-80.772
X175.824Y-83.312
X175.824Y-85.852
X175.824Y-88.392
X160.584Y-52.832
X160.584Y-55.372
X160.584Y-57.912
X160.584Y-60.452
X160.584Y-62.992
X160.584Y-65.532
X160.584Y-68.072
X160.584Y-70.612
X160.584Y-73.152
X160.584Y-75.692
X160.584Y-78.232
X160.584Y-80.772
X160.584Y-83.312
X160.584Y-85.852
X160.584Y-88.392
T3
X187.825Y-100.5
X187.706Y-55.325
X187.5Y-70.5
X187.675Y-85.675
X187.675Y-115.175
T4
X184.65Y-97.325
X184.65Y-103.675
X191.0Y-97.325
X191.0Y-103.675
X184.531Y-52.15
X184.531Y-58.5
X190.881Y-52.15
X190.881Y-58.5
X184.325Y-67.325
X184.325Y-73.675
X190.675Y-67.325
X190.675Y-73.675
X184.5Y-82.5
X184.5Y-88.85
X190.85Y-82.5
X190.85Y-88.85
X184.5Y-112.0
X184.5Y-118.35
X190.85Y-112.0
X190.85Y-118.35
T2
G00X161.0Y-111.5
M15
G01X163.0Y-111.5
M16
G05
G00X161.0Y-117.5
M15
G01X163.0Y-117.5
M16
G05
G00X166.7Y-115.5
M15
G01X166.7Y-113.5
M16
G05
T0
M30
