G04 #@! TF.GenerationSoftware,KiCad,Pcbnew,5.1.5-52549c5~84~ubuntu18.04.1*
G04 #@! TF.CreationDate,2020-05-14T17:44:15+01:00*
G04 #@! TF.ProjectId,spikeling,7370696b-656c-4696-9e67-2e6b69636164,rev?*
G04 #@! TF.SameCoordinates,Original*
G04 #@! TF.FileFunction,Copper,L1,Top*
G04 #@! TF.FilePolarity,Positive*
%FSLAX46Y46*%
G04 Gerber Fmt 4.6, Leading zero omitted, Abs format (unit mm)*
G04 Created by KiCad (PCBNEW 5.1.5-52549c5~84~ubuntu18.04.1) date 2020-05-14 17:44:15*
%MOMM*%
%LPD*%
G04 APERTURE LIST*
%ADD10C,3.810000*%
%ADD11C,3.556000*%
%ADD12R,1.800000X1.800000*%
%ADD13C,1.800000*%
%ADD14C,0.100000*%
%ADD15C,2.000000*%
%ADD16O,1.700000X1.700000*%
%ADD17R,1.700000X1.700000*%
%ADD18C,4.000000*%
%ADD19R,1.300000X3.400000*%
%ADD20R,3.500000X3.500000*%
%ADD21C,0.800000*%
%ADD22C,0.500000*%
%ADD23C,0.254000*%
G04 APERTURE END LIST*
D10*
X184531000Y-77089000D03*
D11*
X187706000Y-80264000D03*
D10*
X190881000Y-77089000D03*
X184531000Y-83439000D03*
X190881000Y-83439000D03*
D12*
X176410000Y-104948000D03*
D13*
X176410000Y-107488000D03*
G04 #@! TA.AperFunction,SMDPad,CuDef*
D14*
G36*
X171649504Y-107013704D02*
G01*
X171673773Y-107017304D01*
X171697571Y-107023265D01*
X171720671Y-107031530D01*
X171742849Y-107042020D01*
X171763893Y-107054633D01*
X171783598Y-107069247D01*
X171801777Y-107085723D01*
X171818253Y-107103902D01*
X171832867Y-107123607D01*
X171845480Y-107144651D01*
X171855970Y-107166829D01*
X171864235Y-107189929D01*
X171870196Y-107213727D01*
X171873796Y-107237996D01*
X171875000Y-107262500D01*
X171875000Y-108187500D01*
X171873796Y-108212004D01*
X171870196Y-108236273D01*
X171864235Y-108260071D01*
X171855970Y-108283171D01*
X171845480Y-108305349D01*
X171832867Y-108326393D01*
X171818253Y-108346098D01*
X171801777Y-108364277D01*
X171783598Y-108380753D01*
X171763893Y-108395367D01*
X171742849Y-108407980D01*
X171720671Y-108418470D01*
X171697571Y-108426735D01*
X171673773Y-108432696D01*
X171649504Y-108436296D01*
X171625000Y-108437500D01*
X170375000Y-108437500D01*
X170350496Y-108436296D01*
X170326227Y-108432696D01*
X170302429Y-108426735D01*
X170279329Y-108418470D01*
X170257151Y-108407980D01*
X170236107Y-108395367D01*
X170216402Y-108380753D01*
X170198223Y-108364277D01*
X170181747Y-108346098D01*
X170167133Y-108326393D01*
X170154520Y-108305349D01*
X170144030Y-108283171D01*
X170135765Y-108260071D01*
X170129804Y-108236273D01*
X170126204Y-108212004D01*
X170125000Y-108187500D01*
X170125000Y-107262500D01*
X170126204Y-107237996D01*
X170129804Y-107213727D01*
X170135765Y-107189929D01*
X170144030Y-107166829D01*
X170154520Y-107144651D01*
X170167133Y-107123607D01*
X170181747Y-107103902D01*
X170198223Y-107085723D01*
X170216402Y-107069247D01*
X170236107Y-107054633D01*
X170257151Y-107042020D01*
X170279329Y-107031530D01*
X170302429Y-107023265D01*
X170326227Y-107017304D01*
X170350496Y-107013704D01*
X170375000Y-107012500D01*
X171625000Y-107012500D01*
X171649504Y-107013704D01*
G37*
G04 #@! TD.AperFunction*
G04 #@! TA.AperFunction,SMDPad,CuDef*
G36*
X171649504Y-104038704D02*
G01*
X171673773Y-104042304D01*
X171697571Y-104048265D01*
X171720671Y-104056530D01*
X171742849Y-104067020D01*
X171763893Y-104079633D01*
X171783598Y-104094247D01*
X171801777Y-104110723D01*
X171818253Y-104128902D01*
X171832867Y-104148607D01*
X171845480Y-104169651D01*
X171855970Y-104191829D01*
X171864235Y-104214929D01*
X171870196Y-104238727D01*
X171873796Y-104262996D01*
X171875000Y-104287500D01*
X171875000Y-105212500D01*
X171873796Y-105237004D01*
X171870196Y-105261273D01*
X171864235Y-105285071D01*
X171855970Y-105308171D01*
X171845480Y-105330349D01*
X171832867Y-105351393D01*
X171818253Y-105371098D01*
X171801777Y-105389277D01*
X171783598Y-105405753D01*
X171763893Y-105420367D01*
X171742849Y-105432980D01*
X171720671Y-105443470D01*
X171697571Y-105451735D01*
X171673773Y-105457696D01*
X171649504Y-105461296D01*
X171625000Y-105462500D01*
X170375000Y-105462500D01*
X170350496Y-105461296D01*
X170326227Y-105457696D01*
X170302429Y-105451735D01*
X170279329Y-105443470D01*
X170257151Y-105432980D01*
X170236107Y-105420367D01*
X170216402Y-105405753D01*
X170198223Y-105389277D01*
X170181747Y-105371098D01*
X170167133Y-105351393D01*
X170154520Y-105330349D01*
X170144030Y-105308171D01*
X170135765Y-105285071D01*
X170129804Y-105261273D01*
X170126204Y-105237004D01*
X170125000Y-105212500D01*
X170125000Y-104287500D01*
X170126204Y-104262996D01*
X170129804Y-104238727D01*
X170135765Y-104214929D01*
X170144030Y-104191829D01*
X170154520Y-104169651D01*
X170167133Y-104148607D01*
X170181747Y-104128902D01*
X170198223Y-104110723D01*
X170216402Y-104094247D01*
X170236107Y-104079633D01*
X170257151Y-104067020D01*
X170279329Y-104056530D01*
X170302429Y-104048265D01*
X170326227Y-104042304D01*
X170350496Y-104038704D01*
X170375000Y-104037500D01*
X171625000Y-104037500D01*
X171649504Y-104038704D01*
G37*
G04 #@! TD.AperFunction*
G04 #@! TA.AperFunction,SMDPad,CuDef*
G36*
X170237004Y-65626204D02*
G01*
X170261273Y-65629804D01*
X170285071Y-65635765D01*
X170308171Y-65644030D01*
X170330349Y-65654520D01*
X170351393Y-65667133D01*
X170371098Y-65681747D01*
X170389277Y-65698223D01*
X170405753Y-65716402D01*
X170420367Y-65736107D01*
X170432980Y-65757151D01*
X170443470Y-65779329D01*
X170451735Y-65802429D01*
X170457696Y-65826227D01*
X170461296Y-65850496D01*
X170462500Y-65875000D01*
X170462500Y-67125000D01*
X170461296Y-67149504D01*
X170457696Y-67173773D01*
X170451735Y-67197571D01*
X170443470Y-67220671D01*
X170432980Y-67242849D01*
X170420367Y-67263893D01*
X170405753Y-67283598D01*
X170389277Y-67301777D01*
X170371098Y-67318253D01*
X170351393Y-67332867D01*
X170330349Y-67345480D01*
X170308171Y-67355970D01*
X170285071Y-67364235D01*
X170261273Y-67370196D01*
X170237004Y-67373796D01*
X170212500Y-67375000D01*
X169287500Y-67375000D01*
X169262996Y-67373796D01*
X169238727Y-67370196D01*
X169214929Y-67364235D01*
X169191829Y-67355970D01*
X169169651Y-67345480D01*
X169148607Y-67332867D01*
X169128902Y-67318253D01*
X169110723Y-67301777D01*
X169094247Y-67283598D01*
X169079633Y-67263893D01*
X169067020Y-67242849D01*
X169056530Y-67220671D01*
X169048265Y-67197571D01*
X169042304Y-67173773D01*
X169038704Y-67149504D01*
X169037500Y-67125000D01*
X169037500Y-65875000D01*
X169038704Y-65850496D01*
X169042304Y-65826227D01*
X169048265Y-65802429D01*
X169056530Y-65779329D01*
X169067020Y-65757151D01*
X169079633Y-65736107D01*
X169094247Y-65716402D01*
X169110723Y-65698223D01*
X169128902Y-65681747D01*
X169148607Y-65667133D01*
X169169651Y-65654520D01*
X169191829Y-65644030D01*
X169214929Y-65635765D01*
X169238727Y-65629804D01*
X169262996Y-65626204D01*
X169287500Y-65625000D01*
X170212500Y-65625000D01*
X170237004Y-65626204D01*
G37*
G04 #@! TD.AperFunction*
G04 #@! TA.AperFunction,SMDPad,CuDef*
G36*
X173212004Y-65626204D02*
G01*
X173236273Y-65629804D01*
X173260071Y-65635765D01*
X173283171Y-65644030D01*
X173305349Y-65654520D01*
X173326393Y-65667133D01*
X173346098Y-65681747D01*
X173364277Y-65698223D01*
X173380753Y-65716402D01*
X173395367Y-65736107D01*
X173407980Y-65757151D01*
X173418470Y-65779329D01*
X173426735Y-65802429D01*
X173432696Y-65826227D01*
X173436296Y-65850496D01*
X173437500Y-65875000D01*
X173437500Y-67125000D01*
X173436296Y-67149504D01*
X173432696Y-67173773D01*
X173426735Y-67197571D01*
X173418470Y-67220671D01*
X173407980Y-67242849D01*
X173395367Y-67263893D01*
X173380753Y-67283598D01*
X173364277Y-67301777D01*
X173346098Y-67318253D01*
X173326393Y-67332867D01*
X173305349Y-67345480D01*
X173283171Y-67355970D01*
X173260071Y-67364235D01*
X173236273Y-67370196D01*
X173212004Y-67373796D01*
X173187500Y-67375000D01*
X172262500Y-67375000D01*
X172237996Y-67373796D01*
X172213727Y-67370196D01*
X172189929Y-67364235D01*
X172166829Y-67355970D01*
X172144651Y-67345480D01*
X172123607Y-67332867D01*
X172103902Y-67318253D01*
X172085723Y-67301777D01*
X172069247Y-67283598D01*
X172054633Y-67263893D01*
X172042020Y-67242849D01*
X172031530Y-67220671D01*
X172023265Y-67197571D01*
X172017304Y-67173773D01*
X172013704Y-67149504D01*
X172012500Y-67125000D01*
X172012500Y-65875000D01*
X172013704Y-65850496D01*
X172017304Y-65826227D01*
X172023265Y-65802429D01*
X172031530Y-65779329D01*
X172042020Y-65757151D01*
X172054633Y-65736107D01*
X172069247Y-65716402D01*
X172085723Y-65698223D01*
X172103902Y-65681747D01*
X172123607Y-65667133D01*
X172144651Y-65654520D01*
X172166829Y-65644030D01*
X172189929Y-65635765D01*
X172213727Y-65629804D01*
X172237996Y-65626204D01*
X172262500Y-65625000D01*
X173187500Y-65625000D01*
X173212004Y-65626204D01*
G37*
G04 #@! TD.AperFunction*
G04 #@! TA.AperFunction,SMDPad,CuDef*
G36*
X173737004Y-77376204D02*
G01*
X173761273Y-77379804D01*
X173785071Y-77385765D01*
X173808171Y-77394030D01*
X173830349Y-77404520D01*
X173851393Y-77417133D01*
X173871098Y-77431747D01*
X173889277Y-77448223D01*
X173905753Y-77466402D01*
X173920367Y-77486107D01*
X173932980Y-77507151D01*
X173943470Y-77529329D01*
X173951735Y-77552429D01*
X173957696Y-77576227D01*
X173961296Y-77600496D01*
X173962500Y-77625000D01*
X173962500Y-78875000D01*
X173961296Y-78899504D01*
X173957696Y-78923773D01*
X173951735Y-78947571D01*
X173943470Y-78970671D01*
X173932980Y-78992849D01*
X173920367Y-79013893D01*
X173905753Y-79033598D01*
X173889277Y-79051777D01*
X173871098Y-79068253D01*
X173851393Y-79082867D01*
X173830349Y-79095480D01*
X173808171Y-79105970D01*
X173785071Y-79114235D01*
X173761273Y-79120196D01*
X173737004Y-79123796D01*
X173712500Y-79125000D01*
X172787500Y-79125000D01*
X172762996Y-79123796D01*
X172738727Y-79120196D01*
X172714929Y-79114235D01*
X172691829Y-79105970D01*
X172669651Y-79095480D01*
X172648607Y-79082867D01*
X172628902Y-79068253D01*
X172610723Y-79051777D01*
X172594247Y-79033598D01*
X172579633Y-79013893D01*
X172567020Y-78992849D01*
X172556530Y-78970671D01*
X172548265Y-78947571D01*
X172542304Y-78923773D01*
X172538704Y-78899504D01*
X172537500Y-78875000D01*
X172537500Y-77625000D01*
X172538704Y-77600496D01*
X172542304Y-77576227D01*
X172548265Y-77552429D01*
X172556530Y-77529329D01*
X172567020Y-77507151D01*
X172579633Y-77486107D01*
X172594247Y-77466402D01*
X172610723Y-77448223D01*
X172628902Y-77431747D01*
X172648607Y-77417133D01*
X172669651Y-77404520D01*
X172691829Y-77394030D01*
X172714929Y-77385765D01*
X172738727Y-77379804D01*
X172762996Y-77376204D01*
X172787500Y-77375000D01*
X173712500Y-77375000D01*
X173737004Y-77376204D01*
G37*
G04 #@! TD.AperFunction*
G04 #@! TA.AperFunction,SMDPad,CuDef*
G36*
X170762004Y-77376204D02*
G01*
X170786273Y-77379804D01*
X170810071Y-77385765D01*
X170833171Y-77394030D01*
X170855349Y-77404520D01*
X170876393Y-77417133D01*
X170896098Y-77431747D01*
X170914277Y-77448223D01*
X170930753Y-77466402D01*
X170945367Y-77486107D01*
X170957980Y-77507151D01*
X170968470Y-77529329D01*
X170976735Y-77552429D01*
X170982696Y-77576227D01*
X170986296Y-77600496D01*
X170987500Y-77625000D01*
X170987500Y-78875000D01*
X170986296Y-78899504D01*
X170982696Y-78923773D01*
X170976735Y-78947571D01*
X170968470Y-78970671D01*
X170957980Y-78992849D01*
X170945367Y-79013893D01*
X170930753Y-79033598D01*
X170914277Y-79051777D01*
X170896098Y-79068253D01*
X170876393Y-79082867D01*
X170855349Y-79095480D01*
X170833171Y-79105970D01*
X170810071Y-79114235D01*
X170786273Y-79120196D01*
X170762004Y-79123796D01*
X170737500Y-79125000D01*
X169812500Y-79125000D01*
X169787996Y-79123796D01*
X169763727Y-79120196D01*
X169739929Y-79114235D01*
X169716829Y-79105970D01*
X169694651Y-79095480D01*
X169673607Y-79082867D01*
X169653902Y-79068253D01*
X169635723Y-79051777D01*
X169619247Y-79033598D01*
X169604633Y-79013893D01*
X169592020Y-78992849D01*
X169581530Y-78970671D01*
X169573265Y-78947571D01*
X169567304Y-78923773D01*
X169563704Y-78899504D01*
X169562500Y-78875000D01*
X169562500Y-77625000D01*
X169563704Y-77600496D01*
X169567304Y-77576227D01*
X169573265Y-77552429D01*
X169581530Y-77529329D01*
X169592020Y-77507151D01*
X169604633Y-77486107D01*
X169619247Y-77466402D01*
X169635723Y-77448223D01*
X169653902Y-77431747D01*
X169673607Y-77417133D01*
X169694651Y-77404520D01*
X169716829Y-77394030D01*
X169739929Y-77385765D01*
X169763727Y-77379804D01*
X169787996Y-77376204D01*
X169812500Y-77375000D01*
X170737500Y-77375000D01*
X170762004Y-77376204D01*
G37*
G04 #@! TD.AperFunction*
G04 #@! TA.AperFunction,SMDPad,CuDef*
G36*
X173212004Y-61626204D02*
G01*
X173236273Y-61629804D01*
X173260071Y-61635765D01*
X173283171Y-61644030D01*
X173305349Y-61654520D01*
X173326393Y-61667133D01*
X173346098Y-61681747D01*
X173364277Y-61698223D01*
X173380753Y-61716402D01*
X173395367Y-61736107D01*
X173407980Y-61757151D01*
X173418470Y-61779329D01*
X173426735Y-61802429D01*
X173432696Y-61826227D01*
X173436296Y-61850496D01*
X173437500Y-61875000D01*
X173437500Y-63125000D01*
X173436296Y-63149504D01*
X173432696Y-63173773D01*
X173426735Y-63197571D01*
X173418470Y-63220671D01*
X173407980Y-63242849D01*
X173395367Y-63263893D01*
X173380753Y-63283598D01*
X173364277Y-63301777D01*
X173346098Y-63318253D01*
X173326393Y-63332867D01*
X173305349Y-63345480D01*
X173283171Y-63355970D01*
X173260071Y-63364235D01*
X173236273Y-63370196D01*
X173212004Y-63373796D01*
X173187500Y-63375000D01*
X172262500Y-63375000D01*
X172237996Y-63373796D01*
X172213727Y-63370196D01*
X172189929Y-63364235D01*
X172166829Y-63355970D01*
X172144651Y-63345480D01*
X172123607Y-63332867D01*
X172103902Y-63318253D01*
X172085723Y-63301777D01*
X172069247Y-63283598D01*
X172054633Y-63263893D01*
X172042020Y-63242849D01*
X172031530Y-63220671D01*
X172023265Y-63197571D01*
X172017304Y-63173773D01*
X172013704Y-63149504D01*
X172012500Y-63125000D01*
X172012500Y-61875000D01*
X172013704Y-61850496D01*
X172017304Y-61826227D01*
X172023265Y-61802429D01*
X172031530Y-61779329D01*
X172042020Y-61757151D01*
X172054633Y-61736107D01*
X172069247Y-61716402D01*
X172085723Y-61698223D01*
X172103902Y-61681747D01*
X172123607Y-61667133D01*
X172144651Y-61654520D01*
X172166829Y-61644030D01*
X172189929Y-61635765D01*
X172213727Y-61629804D01*
X172237996Y-61626204D01*
X172262500Y-61625000D01*
X173187500Y-61625000D01*
X173212004Y-61626204D01*
G37*
G04 #@! TD.AperFunction*
G04 #@! TA.AperFunction,SMDPad,CuDef*
G36*
X170237004Y-61626204D02*
G01*
X170261273Y-61629804D01*
X170285071Y-61635765D01*
X170308171Y-61644030D01*
X170330349Y-61654520D01*
X170351393Y-61667133D01*
X170371098Y-61681747D01*
X170389277Y-61698223D01*
X170405753Y-61716402D01*
X170420367Y-61736107D01*
X170432980Y-61757151D01*
X170443470Y-61779329D01*
X170451735Y-61802429D01*
X170457696Y-61826227D01*
X170461296Y-61850496D01*
X170462500Y-61875000D01*
X170462500Y-63125000D01*
X170461296Y-63149504D01*
X170457696Y-63173773D01*
X170451735Y-63197571D01*
X170443470Y-63220671D01*
X170432980Y-63242849D01*
X170420367Y-63263893D01*
X170405753Y-63283598D01*
X170389277Y-63301777D01*
X170371098Y-63318253D01*
X170351393Y-63332867D01*
X170330349Y-63345480D01*
X170308171Y-63355970D01*
X170285071Y-63364235D01*
X170261273Y-63370196D01*
X170237004Y-63373796D01*
X170212500Y-63375000D01*
X169287500Y-63375000D01*
X169262996Y-63373796D01*
X169238727Y-63370196D01*
X169214929Y-63364235D01*
X169191829Y-63355970D01*
X169169651Y-63345480D01*
X169148607Y-63332867D01*
X169128902Y-63318253D01*
X169110723Y-63301777D01*
X169094247Y-63283598D01*
X169079633Y-63263893D01*
X169067020Y-63242849D01*
X169056530Y-63220671D01*
X169048265Y-63197571D01*
X169042304Y-63173773D01*
X169038704Y-63149504D01*
X169037500Y-63125000D01*
X169037500Y-61875000D01*
X169038704Y-61850496D01*
X169042304Y-61826227D01*
X169048265Y-61802429D01*
X169056530Y-61779329D01*
X169067020Y-61757151D01*
X169079633Y-61736107D01*
X169094247Y-61716402D01*
X169110723Y-61698223D01*
X169128902Y-61681747D01*
X169148607Y-61667133D01*
X169169651Y-61654520D01*
X169191829Y-61644030D01*
X169214929Y-61635765D01*
X169238727Y-61629804D01*
X169262996Y-61626204D01*
X169287500Y-61625000D01*
X170212500Y-61625000D01*
X170237004Y-61626204D01*
G37*
G04 #@! TD.AperFunction*
G04 #@! TA.AperFunction,SMDPad,CuDef*
G36*
X173462004Y-56126204D02*
G01*
X173486273Y-56129804D01*
X173510071Y-56135765D01*
X173533171Y-56144030D01*
X173555349Y-56154520D01*
X173576393Y-56167133D01*
X173596098Y-56181747D01*
X173614277Y-56198223D01*
X173630753Y-56216402D01*
X173645367Y-56236107D01*
X173657980Y-56257151D01*
X173668470Y-56279329D01*
X173676735Y-56302429D01*
X173682696Y-56326227D01*
X173686296Y-56350496D01*
X173687500Y-56375000D01*
X173687500Y-57625000D01*
X173686296Y-57649504D01*
X173682696Y-57673773D01*
X173676735Y-57697571D01*
X173668470Y-57720671D01*
X173657980Y-57742849D01*
X173645367Y-57763893D01*
X173630753Y-57783598D01*
X173614277Y-57801777D01*
X173596098Y-57818253D01*
X173576393Y-57832867D01*
X173555349Y-57845480D01*
X173533171Y-57855970D01*
X173510071Y-57864235D01*
X173486273Y-57870196D01*
X173462004Y-57873796D01*
X173437500Y-57875000D01*
X172512500Y-57875000D01*
X172487996Y-57873796D01*
X172463727Y-57870196D01*
X172439929Y-57864235D01*
X172416829Y-57855970D01*
X172394651Y-57845480D01*
X172373607Y-57832867D01*
X172353902Y-57818253D01*
X172335723Y-57801777D01*
X172319247Y-57783598D01*
X172304633Y-57763893D01*
X172292020Y-57742849D01*
X172281530Y-57720671D01*
X172273265Y-57697571D01*
X172267304Y-57673773D01*
X172263704Y-57649504D01*
X172262500Y-57625000D01*
X172262500Y-56375000D01*
X172263704Y-56350496D01*
X172267304Y-56326227D01*
X172273265Y-56302429D01*
X172281530Y-56279329D01*
X172292020Y-56257151D01*
X172304633Y-56236107D01*
X172319247Y-56216402D01*
X172335723Y-56198223D01*
X172353902Y-56181747D01*
X172373607Y-56167133D01*
X172394651Y-56154520D01*
X172416829Y-56144030D01*
X172439929Y-56135765D01*
X172463727Y-56129804D01*
X172487996Y-56126204D01*
X172512500Y-56125000D01*
X173437500Y-56125000D01*
X173462004Y-56126204D01*
G37*
G04 #@! TD.AperFunction*
G04 #@! TA.AperFunction,SMDPad,CuDef*
G36*
X170487004Y-56126204D02*
G01*
X170511273Y-56129804D01*
X170535071Y-56135765D01*
X170558171Y-56144030D01*
X170580349Y-56154520D01*
X170601393Y-56167133D01*
X170621098Y-56181747D01*
X170639277Y-56198223D01*
X170655753Y-56216402D01*
X170670367Y-56236107D01*
X170682980Y-56257151D01*
X170693470Y-56279329D01*
X170701735Y-56302429D01*
X170707696Y-56326227D01*
X170711296Y-56350496D01*
X170712500Y-56375000D01*
X170712500Y-57625000D01*
X170711296Y-57649504D01*
X170707696Y-57673773D01*
X170701735Y-57697571D01*
X170693470Y-57720671D01*
X170682980Y-57742849D01*
X170670367Y-57763893D01*
X170655753Y-57783598D01*
X170639277Y-57801777D01*
X170621098Y-57818253D01*
X170601393Y-57832867D01*
X170580349Y-57845480D01*
X170558171Y-57855970D01*
X170535071Y-57864235D01*
X170511273Y-57870196D01*
X170487004Y-57873796D01*
X170462500Y-57875000D01*
X169537500Y-57875000D01*
X169512996Y-57873796D01*
X169488727Y-57870196D01*
X169464929Y-57864235D01*
X169441829Y-57855970D01*
X169419651Y-57845480D01*
X169398607Y-57832867D01*
X169378902Y-57818253D01*
X169360723Y-57801777D01*
X169344247Y-57783598D01*
X169329633Y-57763893D01*
X169317020Y-57742849D01*
X169306530Y-57720671D01*
X169298265Y-57697571D01*
X169292304Y-57673773D01*
X169288704Y-57649504D01*
X169287500Y-57625000D01*
X169287500Y-56375000D01*
X169288704Y-56350496D01*
X169292304Y-56326227D01*
X169298265Y-56302429D01*
X169306530Y-56279329D01*
X169317020Y-56257151D01*
X169329633Y-56236107D01*
X169344247Y-56216402D01*
X169360723Y-56198223D01*
X169378902Y-56181747D01*
X169398607Y-56167133D01*
X169419651Y-56154520D01*
X169441829Y-56144030D01*
X169464929Y-56135765D01*
X169488727Y-56129804D01*
X169512996Y-56126204D01*
X169537500Y-56125000D01*
X170462500Y-56125000D01*
X170487004Y-56126204D01*
G37*
G04 #@! TD.AperFunction*
D15*
X159250000Y-98500000D03*
X159250000Y-94000000D03*
X165750000Y-98500000D03*
X165750000Y-94000000D03*
D16*
X164084000Y-88392000D03*
X164084000Y-85852000D03*
X164084000Y-83312000D03*
X164084000Y-80772000D03*
X164084000Y-78232000D03*
X164084000Y-75692000D03*
X164084000Y-73152000D03*
X164084000Y-70612000D03*
X164084000Y-68072000D03*
X164084000Y-65532000D03*
X164084000Y-62992000D03*
X164084000Y-60452000D03*
X164084000Y-57912000D03*
X164084000Y-55372000D03*
D17*
X164084000Y-52832000D03*
D16*
X179324000Y-52832000D03*
X179324000Y-55372000D03*
X179324000Y-57912000D03*
X179324000Y-60452000D03*
X179324000Y-62992000D03*
X179324000Y-65532000D03*
X179324000Y-68072000D03*
X179324000Y-70612000D03*
X179324000Y-73152000D03*
X179324000Y-75692000D03*
X179324000Y-78232000D03*
X179324000Y-80772000D03*
X179324000Y-83312000D03*
X179324000Y-85852000D03*
D17*
X179324000Y-88392000D03*
D18*
X149922000Y-94960000D03*
X149922000Y-85460000D03*
D13*
X142422000Y-92710000D03*
X142422000Y-90210000D03*
X142422000Y-87710000D03*
X142676000Y-71962000D03*
X142676000Y-74462000D03*
X142676000Y-76962000D03*
D18*
X150176000Y-69712000D03*
X150176000Y-79212000D03*
X150176000Y-62956000D03*
X150176000Y-53456000D03*
D13*
X142676000Y-60706000D03*
X142676000Y-58206000D03*
X142676000Y-55706000D03*
X142676000Y-103712000D03*
X142676000Y-106212000D03*
X142676000Y-108712000D03*
D18*
X150176000Y-101462000D03*
X150176000Y-110962000D03*
D10*
X184531000Y-51689000D03*
D11*
X187706000Y-54864000D03*
D10*
X190881000Y-51689000D03*
X184531000Y-58039000D03*
X190881000Y-58039000D03*
X190881000Y-70739000D03*
X184531000Y-70739000D03*
X190881000Y-64389000D03*
D11*
X187706000Y-67564000D03*
D10*
X184531000Y-64389000D03*
X184531000Y-89789000D03*
D11*
X187706000Y-92964000D03*
D10*
X190881000Y-89789000D03*
X184531000Y-96139000D03*
X190881000Y-96139000D03*
X190881000Y-108839000D03*
X184531000Y-108839000D03*
X190881000Y-102489000D03*
D11*
X187706000Y-105664000D03*
D10*
X184531000Y-102489000D03*
D19*
X179350000Y-96000000D03*
X170650000Y-96000000D03*
G04 #@! TA.AperFunction,SMDPad,CuDef*
D14*
G36*
X173224504Y-50926204D02*
G01*
X173248773Y-50929804D01*
X173272571Y-50935765D01*
X173295671Y-50944030D01*
X173317849Y-50954520D01*
X173338893Y-50967133D01*
X173358598Y-50981747D01*
X173376777Y-50998223D01*
X173393253Y-51016402D01*
X173407867Y-51036107D01*
X173420480Y-51057151D01*
X173430970Y-51079329D01*
X173439235Y-51102429D01*
X173445196Y-51126227D01*
X173448796Y-51150496D01*
X173450000Y-51175000D01*
X173450000Y-53325000D01*
X173448796Y-53349504D01*
X173445196Y-53373773D01*
X173439235Y-53397571D01*
X173430970Y-53420671D01*
X173420480Y-53442849D01*
X173407867Y-53463893D01*
X173393253Y-53483598D01*
X173376777Y-53501777D01*
X173358598Y-53518253D01*
X173338893Y-53532867D01*
X173317849Y-53545480D01*
X173295671Y-53555970D01*
X173272571Y-53564235D01*
X173248773Y-53570196D01*
X173224504Y-53573796D01*
X173200000Y-53575000D01*
X172275000Y-53575000D01*
X172250496Y-53573796D01*
X172226227Y-53570196D01*
X172202429Y-53564235D01*
X172179329Y-53555970D01*
X172157151Y-53545480D01*
X172136107Y-53532867D01*
X172116402Y-53518253D01*
X172098223Y-53501777D01*
X172081747Y-53483598D01*
X172067133Y-53463893D01*
X172054520Y-53442849D01*
X172044030Y-53420671D01*
X172035765Y-53397571D01*
X172029804Y-53373773D01*
X172026204Y-53349504D01*
X172025000Y-53325000D01*
X172025000Y-51175000D01*
X172026204Y-51150496D01*
X172029804Y-51126227D01*
X172035765Y-51102429D01*
X172044030Y-51079329D01*
X172054520Y-51057151D01*
X172067133Y-51036107D01*
X172081747Y-51016402D01*
X172098223Y-50998223D01*
X172116402Y-50981747D01*
X172136107Y-50967133D01*
X172157151Y-50954520D01*
X172179329Y-50944030D01*
X172202429Y-50935765D01*
X172226227Y-50929804D01*
X172250496Y-50926204D01*
X172275000Y-50925000D01*
X173200000Y-50925000D01*
X173224504Y-50926204D01*
G37*
G04 #@! TD.AperFunction*
G04 #@! TA.AperFunction,SMDPad,CuDef*
G36*
X170249504Y-50926204D02*
G01*
X170273773Y-50929804D01*
X170297571Y-50935765D01*
X170320671Y-50944030D01*
X170342849Y-50954520D01*
X170363893Y-50967133D01*
X170383598Y-50981747D01*
X170401777Y-50998223D01*
X170418253Y-51016402D01*
X170432867Y-51036107D01*
X170445480Y-51057151D01*
X170455970Y-51079329D01*
X170464235Y-51102429D01*
X170470196Y-51126227D01*
X170473796Y-51150496D01*
X170475000Y-51175000D01*
X170475000Y-53325000D01*
X170473796Y-53349504D01*
X170470196Y-53373773D01*
X170464235Y-53397571D01*
X170455970Y-53420671D01*
X170445480Y-53442849D01*
X170432867Y-53463893D01*
X170418253Y-53483598D01*
X170401777Y-53501777D01*
X170383598Y-53518253D01*
X170363893Y-53532867D01*
X170342849Y-53545480D01*
X170320671Y-53555970D01*
X170297571Y-53564235D01*
X170273773Y-53570196D01*
X170249504Y-53573796D01*
X170225000Y-53575000D01*
X169300000Y-53575000D01*
X169275496Y-53573796D01*
X169251227Y-53570196D01*
X169227429Y-53564235D01*
X169204329Y-53555970D01*
X169182151Y-53545480D01*
X169161107Y-53532867D01*
X169141402Y-53518253D01*
X169123223Y-53501777D01*
X169106747Y-53483598D01*
X169092133Y-53463893D01*
X169079520Y-53442849D01*
X169069030Y-53420671D01*
X169060765Y-53397571D01*
X169054804Y-53373773D01*
X169051204Y-53349504D01*
X169050000Y-53325000D01*
X169050000Y-51175000D01*
X169051204Y-51150496D01*
X169054804Y-51126227D01*
X169060765Y-51102429D01*
X169069030Y-51079329D01*
X169079520Y-51057151D01*
X169092133Y-51036107D01*
X169106747Y-51016402D01*
X169123223Y-50998223D01*
X169141402Y-50981747D01*
X169161107Y-50967133D01*
X169182151Y-50954520D01*
X169204329Y-50944030D01*
X169227429Y-50935765D01*
X169251227Y-50929804D01*
X169275496Y-50926204D01*
X169300000Y-50925000D01*
X170225000Y-50925000D01*
X170249504Y-50926204D01*
G37*
G04 #@! TD.AperFunction*
D20*
X162000000Y-104000000D03*
G04 #@! TA.AperFunction,ComponentPad*
D14*
G36*
X163073513Y-108503611D02*
G01*
X163146318Y-108514411D01*
X163217714Y-108532295D01*
X163287013Y-108557090D01*
X163353548Y-108588559D01*
X163416678Y-108626398D01*
X163475795Y-108670242D01*
X163530330Y-108719670D01*
X163579758Y-108774205D01*
X163623602Y-108833322D01*
X163661441Y-108896452D01*
X163692910Y-108962987D01*
X163717705Y-109032286D01*
X163735589Y-109103682D01*
X163746389Y-109176487D01*
X163750000Y-109250000D01*
X163750000Y-110750000D01*
X163746389Y-110823513D01*
X163735589Y-110896318D01*
X163717705Y-110967714D01*
X163692910Y-111037013D01*
X163661441Y-111103548D01*
X163623602Y-111166678D01*
X163579758Y-111225795D01*
X163530330Y-111280330D01*
X163475795Y-111329758D01*
X163416678Y-111373602D01*
X163353548Y-111411441D01*
X163287013Y-111442910D01*
X163217714Y-111467705D01*
X163146318Y-111485589D01*
X163073513Y-111496389D01*
X163000000Y-111500000D01*
X161000000Y-111500000D01*
X160926487Y-111496389D01*
X160853682Y-111485589D01*
X160782286Y-111467705D01*
X160712987Y-111442910D01*
X160646452Y-111411441D01*
X160583322Y-111373602D01*
X160524205Y-111329758D01*
X160469670Y-111280330D01*
X160420242Y-111225795D01*
X160376398Y-111166678D01*
X160338559Y-111103548D01*
X160307090Y-111037013D01*
X160282295Y-110967714D01*
X160264411Y-110896318D01*
X160253611Y-110823513D01*
X160250000Y-110750000D01*
X160250000Y-109250000D01*
X160253611Y-109176487D01*
X160264411Y-109103682D01*
X160282295Y-109032286D01*
X160307090Y-108962987D01*
X160338559Y-108896452D01*
X160376398Y-108833322D01*
X160420242Y-108774205D01*
X160469670Y-108719670D01*
X160524205Y-108670242D01*
X160583322Y-108626398D01*
X160646452Y-108588559D01*
X160712987Y-108557090D01*
X160782286Y-108532295D01*
X160853682Y-108514411D01*
X160926487Y-108503611D01*
X161000000Y-108500000D01*
X163000000Y-108500000D01*
X163073513Y-108503611D01*
G37*
G04 #@! TD.AperFunction*
G04 #@! TA.AperFunction,ComponentPad*
G36*
X167660765Y-105254213D02*
G01*
X167745704Y-105266813D01*
X167828999Y-105287677D01*
X167909848Y-105316605D01*
X167987472Y-105353319D01*
X168061124Y-105397464D01*
X168130094Y-105448616D01*
X168193718Y-105506282D01*
X168251384Y-105569906D01*
X168302536Y-105638876D01*
X168346681Y-105712528D01*
X168383395Y-105790152D01*
X168412323Y-105871001D01*
X168433187Y-105954296D01*
X168445787Y-106039235D01*
X168450000Y-106125000D01*
X168450000Y-107875000D01*
X168445787Y-107960765D01*
X168433187Y-108045704D01*
X168412323Y-108128999D01*
X168383395Y-108209848D01*
X168346681Y-108287472D01*
X168302536Y-108361124D01*
X168251384Y-108430094D01*
X168193718Y-108493718D01*
X168130094Y-108551384D01*
X168061124Y-108602536D01*
X167987472Y-108646681D01*
X167909848Y-108683395D01*
X167828999Y-108712323D01*
X167745704Y-108733187D01*
X167660765Y-108745787D01*
X167575000Y-108750000D01*
X165825000Y-108750000D01*
X165739235Y-108745787D01*
X165654296Y-108733187D01*
X165571001Y-108712323D01*
X165490152Y-108683395D01*
X165412528Y-108646681D01*
X165338876Y-108602536D01*
X165269906Y-108551384D01*
X165206282Y-108493718D01*
X165148616Y-108430094D01*
X165097464Y-108361124D01*
X165053319Y-108287472D01*
X165016605Y-108209848D01*
X164987677Y-108128999D01*
X164966813Y-108045704D01*
X164954213Y-107960765D01*
X164950000Y-107875000D01*
X164950000Y-106125000D01*
X164954213Y-106039235D01*
X164966813Y-105954296D01*
X164987677Y-105871001D01*
X165016605Y-105790152D01*
X165053319Y-105712528D01*
X165097464Y-105638876D01*
X165148616Y-105569906D01*
X165206282Y-105506282D01*
X165269906Y-105448616D01*
X165338876Y-105397464D01*
X165412528Y-105353319D01*
X165490152Y-105316605D01*
X165571001Y-105287677D01*
X165654296Y-105266813D01*
X165739235Y-105254213D01*
X165825000Y-105250000D01*
X167575000Y-105250000D01*
X167660765Y-105254213D01*
G37*
G04 #@! TD.AperFunction*
D21*
X170500000Y-102000000D03*
X169500000Y-75000000D03*
X175000000Y-66500000D03*
X171000000Y-55000000D03*
X176000000Y-76000000D03*
X181500000Y-86500000D03*
X181075000Y-93075000D03*
X167000000Y-67000000D03*
X167000000Y-87000000D03*
X177000000Y-77000000D03*
X177000000Y-79500000D03*
X173000000Y-60500000D03*
X160000000Y-73000000D03*
X161000000Y-72000000D03*
X161000000Y-77000000D03*
X156132001Y-99132001D03*
X149382001Y-105882001D03*
D22*
X167674990Y-107274990D02*
X168125000Y-107725000D01*
X170650000Y-101850000D02*
X170500000Y-102000000D01*
X170650000Y-96000000D02*
X170650000Y-101850000D01*
X171000000Y-102500000D02*
X170500000Y-102000000D01*
X171000000Y-104750000D02*
X171000000Y-102500000D01*
X169500000Y-77475000D02*
X170275000Y-78250000D01*
X169500000Y-75000000D02*
X169500000Y-77475000D01*
X172725000Y-66500000D02*
X175000000Y-66500000D01*
X172737500Y-53262500D02*
X171000000Y-55000000D01*
X172737500Y-52250000D02*
X172737500Y-53262500D01*
X169750000Y-62500000D02*
X169750000Y-66500000D01*
X169750000Y-66500000D02*
X169750000Y-69750000D01*
X169750000Y-69750000D02*
X176000000Y-76000000D01*
X170000000Y-52487500D02*
X169762500Y-52250000D01*
X170000000Y-57000000D02*
X170000000Y-52487500D01*
X182626000Y-92964000D02*
X187706000Y-92964000D01*
X182626000Y-92964000D02*
X181186000Y-92964000D01*
X180500000Y-94850000D02*
X179350000Y-96000000D01*
X180500000Y-94000000D02*
X180500000Y-94850000D01*
X180600000Y-93900000D02*
X180500000Y-94000000D01*
X180600000Y-93550000D02*
X180600000Y-93900000D01*
X179324000Y-75692000D02*
X181500000Y-77868000D01*
X181500000Y-77868000D02*
X181500000Y-86500000D01*
X181186000Y-92964000D02*
X181075000Y-93075000D01*
X181075000Y-93075000D02*
X180600000Y-93550000D01*
X176410000Y-107488000D02*
X173175919Y-107488000D01*
X164084000Y-60452000D02*
X167000000Y-63368000D01*
X167000000Y-63368000D02*
X167000000Y-67000000D01*
X167000000Y-87000000D02*
X167674990Y-87674990D01*
X171000000Y-107012500D02*
X171000000Y-107725000D01*
X171000000Y-106827466D02*
X171000000Y-107012500D01*
X167674990Y-103502456D02*
X171000000Y-106827466D01*
X167674990Y-87674990D02*
X167674990Y-103502456D01*
X172938919Y-107725000D02*
X171000000Y-107725000D01*
X173175919Y-107488000D02*
X172938919Y-107725000D01*
X187706000Y-59182000D02*
X187706000Y-54864000D01*
X185420000Y-61468000D02*
X187706000Y-59182000D01*
X182880000Y-61468000D02*
X185420000Y-61468000D01*
X181356000Y-62992000D02*
X182880000Y-61468000D01*
X181356000Y-68072000D02*
X181356000Y-62992000D01*
X180173999Y-69254001D02*
X181356000Y-68072000D01*
X180173999Y-69762001D02*
X180173999Y-69254001D01*
X179324000Y-70612000D02*
X180173999Y-69762001D01*
X181864000Y-68834000D02*
X183134000Y-67564000D01*
X183134000Y-67564000D02*
X187706000Y-67564000D01*
X181864000Y-70104000D02*
X181864000Y-68834000D01*
X180173999Y-71794001D02*
X181864000Y-70104000D01*
X180173999Y-72302001D02*
X180173999Y-71794001D01*
X179324000Y-73152000D02*
X180173999Y-72302001D01*
X164084000Y-65532000D02*
X175000000Y-76448000D01*
X175000000Y-76448000D02*
X175552000Y-77000000D01*
X175552000Y-77000000D02*
X177000000Y-77000000D01*
X177000000Y-79500000D02*
X177000000Y-90000000D01*
X177000000Y-90000000D02*
X178000000Y-91000000D01*
X187706000Y-82778471D02*
X187706000Y-80264000D01*
X184705999Y-85794001D02*
X185661401Y-85794001D01*
X179500000Y-91000000D02*
X184705999Y-85794001D01*
X187706000Y-83749402D02*
X187706000Y-82778471D01*
X185661401Y-85794001D02*
X187706000Y-83749402D01*
X178000000Y-91000000D02*
X179500000Y-91000000D01*
X173000000Y-62225000D02*
X172725000Y-62500000D01*
X173000000Y-60500000D02*
X173000000Y-62225000D01*
X175872000Y-57000000D02*
X172975000Y-57000000D01*
X179324000Y-60452000D02*
X175872000Y-57000000D01*
X179306000Y-78250000D02*
X179324000Y-78232000D01*
X173250000Y-78250000D02*
X179306000Y-78250000D01*
X165750000Y-92585787D02*
X165750000Y-94000000D01*
X165750000Y-85037500D02*
X165750000Y-92585787D01*
X172537500Y-78250000D02*
X165750000Y-85037500D01*
X173250000Y-78250000D02*
X172537500Y-78250000D01*
X164084000Y-75692000D02*
X160692000Y-75692000D01*
X160692000Y-75692000D02*
X158000000Y-73000000D01*
X158000000Y-73000000D02*
X158000000Y-65000000D01*
X151206000Y-58206000D02*
X142676000Y-58206000D01*
X158000000Y-65000000D02*
X151206000Y-58206000D01*
X164084000Y-73152000D02*
X160152000Y-73152000D01*
X160152000Y-73152000D02*
X160000000Y-73000000D01*
X164084000Y-68072000D02*
X161000000Y-71156000D01*
X161000000Y-71156000D02*
X161000000Y-72000000D01*
X161000000Y-77000000D02*
X161000000Y-86000000D01*
X161000000Y-86000000D02*
X157000000Y-90000000D01*
X149052002Y-106212000D02*
X143948792Y-106212000D01*
X157000000Y-98264002D02*
X156132001Y-99132001D01*
X157000000Y-90000000D02*
X157000000Y-98264002D01*
X143948792Y-106212000D02*
X142676000Y-106212000D01*
X149382001Y-105882001D02*
X149052002Y-106212000D01*
D23*
G36*
X194870000Y-113290000D02*
G01*
X183398518Y-113290000D01*
X151771312Y-113065135D01*
X151855715Y-113008738D01*
X152222738Y-112641715D01*
X152511107Y-112210141D01*
X152709739Y-111730601D01*
X152811000Y-111221525D01*
X152811000Y-110702475D01*
X152709739Y-110193399D01*
X152511107Y-109713859D01*
X152222738Y-109282285D01*
X152190453Y-109250000D01*
X159611928Y-109250000D01*
X159611928Y-110750000D01*
X159638599Y-111020799D01*
X159717589Y-111281192D01*
X159845860Y-111521171D01*
X160018485Y-111731515D01*
X160228829Y-111904140D01*
X160468808Y-112032411D01*
X160729201Y-112111401D01*
X161000000Y-112138072D01*
X163000000Y-112138072D01*
X163270799Y-112111401D01*
X163531192Y-112032411D01*
X163771171Y-111904140D01*
X163981515Y-111731515D01*
X164154140Y-111521171D01*
X164282411Y-111281192D01*
X164361401Y-111020799D01*
X164388072Y-110750000D01*
X164388072Y-109250000D01*
X164361401Y-108979201D01*
X164282411Y-108718808D01*
X164154140Y-108478829D01*
X163981515Y-108268485D01*
X163771171Y-108095860D01*
X163531192Y-107967589D01*
X163270799Y-107888599D01*
X163000000Y-107861928D01*
X161000000Y-107861928D01*
X160729201Y-107888599D01*
X160468808Y-107967589D01*
X160228829Y-108095860D01*
X160018485Y-108268485D01*
X159845860Y-108478829D01*
X159717589Y-108718808D01*
X159638599Y-108979201D01*
X159611928Y-109250000D01*
X152190453Y-109250000D01*
X151855715Y-108915262D01*
X151424141Y-108626893D01*
X150944601Y-108428261D01*
X150435525Y-108327000D01*
X149916475Y-108327000D01*
X149407399Y-108428261D01*
X148927859Y-108626893D01*
X148496285Y-108915262D01*
X148129262Y-109282285D01*
X147840893Y-109713859D01*
X147642261Y-110193399D01*
X147541000Y-110702475D01*
X147541000Y-111221525D01*
X147642261Y-111730601D01*
X147840893Y-112210141D01*
X148129262Y-112641715D01*
X148496285Y-113008738D01*
X148546373Y-113042206D01*
X141210000Y-112990045D01*
X141210000Y-109776080D01*
X141791525Y-109776080D01*
X141875208Y-110030261D01*
X142147775Y-110161158D01*
X142440642Y-110236365D01*
X142742553Y-110252991D01*
X143041907Y-110210397D01*
X143327199Y-110110222D01*
X143476792Y-110030261D01*
X143560475Y-109776080D01*
X142676000Y-108891605D01*
X141791525Y-109776080D01*
X141210000Y-109776080D01*
X141210000Y-109170172D01*
X141277778Y-109363199D01*
X141357739Y-109512792D01*
X141611920Y-109596475D01*
X142496395Y-108712000D01*
X142855605Y-108712000D01*
X143740080Y-109596475D01*
X143994261Y-109512792D01*
X144125158Y-109240225D01*
X144200365Y-108947358D01*
X144216991Y-108645447D01*
X144174397Y-108346093D01*
X144074222Y-108060801D01*
X143994261Y-107911208D01*
X143740080Y-107827525D01*
X142855605Y-108712000D01*
X142496395Y-108712000D01*
X141611920Y-107827525D01*
X141357739Y-107911208D01*
X141226842Y-108183775D01*
X141210000Y-108249360D01*
X141210000Y-106683912D01*
X141315701Y-106939095D01*
X141483688Y-107190505D01*
X141697495Y-107404312D01*
X141840310Y-107499738D01*
X141791525Y-107647920D01*
X142676000Y-108532395D01*
X143560475Y-107647920D01*
X143511690Y-107499738D01*
X143654505Y-107404312D01*
X143868312Y-107190505D01*
X143930790Y-107097000D01*
X149008533Y-107097000D01*
X149052002Y-107101281D01*
X149095471Y-107097000D01*
X149095479Y-107097000D01*
X149225492Y-107084195D01*
X149392315Y-107033589D01*
X149546061Y-106951411D01*
X149621276Y-106889683D01*
X149683899Y-106877227D01*
X149872257Y-106799206D01*
X150041775Y-106685938D01*
X150185938Y-106541775D01*
X150299206Y-106372257D01*
X150377227Y-106183899D01*
X150417001Y-105983940D01*
X150417001Y-105780062D01*
X150377227Y-105580103D01*
X150299206Y-105391745D01*
X150185938Y-105222227D01*
X150041775Y-105078064D01*
X149872257Y-104964796D01*
X149683899Y-104886775D01*
X149483940Y-104847001D01*
X149280062Y-104847001D01*
X149080103Y-104886775D01*
X148891745Y-104964796D01*
X148722227Y-105078064D01*
X148578064Y-105222227D01*
X148508057Y-105327000D01*
X143930790Y-105327000D01*
X143868312Y-105233495D01*
X143654505Y-105019688D01*
X143568169Y-104962000D01*
X143654505Y-104904312D01*
X143868312Y-104690505D01*
X144036299Y-104439095D01*
X144152011Y-104159743D01*
X144211000Y-103863184D01*
X144211000Y-103560816D01*
X144152011Y-103264257D01*
X144036299Y-102984905D01*
X143868312Y-102733495D01*
X143654505Y-102519688D01*
X143403095Y-102351701D01*
X143123743Y-102235989D01*
X142827184Y-102177000D01*
X142524816Y-102177000D01*
X142228257Y-102235989D01*
X141948905Y-102351701D01*
X141697495Y-102519688D01*
X141483688Y-102733495D01*
X141315701Y-102984905D01*
X141210000Y-103240088D01*
X141210000Y-101202475D01*
X147541000Y-101202475D01*
X147541000Y-101721525D01*
X147642261Y-102230601D01*
X147840893Y-102710141D01*
X148129262Y-103141715D01*
X148496285Y-103508738D01*
X148927859Y-103797107D01*
X149407399Y-103995739D01*
X149916475Y-104097000D01*
X150435525Y-104097000D01*
X150944601Y-103995739D01*
X151424141Y-103797107D01*
X151855715Y-103508738D01*
X152222738Y-103141715D01*
X152511107Y-102710141D01*
X152709739Y-102230601D01*
X152811000Y-101721525D01*
X152811000Y-101202475D01*
X152709739Y-100693399D01*
X152511107Y-100213859D01*
X152222738Y-99782285D01*
X151855715Y-99415262D01*
X151424141Y-99126893D01*
X150944601Y-98928261D01*
X150435525Y-98827000D01*
X149916475Y-98827000D01*
X149407399Y-98928261D01*
X148927859Y-99126893D01*
X148496285Y-99415262D01*
X148129262Y-99782285D01*
X147840893Y-100213859D01*
X147642261Y-100693399D01*
X147541000Y-101202475D01*
X141210000Y-101202475D01*
X141210000Y-94700475D01*
X147287000Y-94700475D01*
X147287000Y-95219525D01*
X147388261Y-95728601D01*
X147586893Y-96208141D01*
X147875262Y-96639715D01*
X148242285Y-97006738D01*
X148673859Y-97295107D01*
X149153399Y-97493739D01*
X149662475Y-97595000D01*
X150181525Y-97595000D01*
X150690601Y-97493739D01*
X151170141Y-97295107D01*
X151601715Y-97006738D01*
X151968738Y-96639715D01*
X152257107Y-96208141D01*
X152455739Y-95728601D01*
X152557000Y-95219525D01*
X152557000Y-94700475D01*
X152455739Y-94191399D01*
X152257107Y-93711859D01*
X151968738Y-93280285D01*
X151601715Y-92913262D01*
X151170141Y-92624893D01*
X150690601Y-92426261D01*
X150181525Y-92325000D01*
X149662475Y-92325000D01*
X149153399Y-92426261D01*
X148673859Y-92624893D01*
X148242285Y-92913262D01*
X147875262Y-93280285D01*
X147586893Y-93711859D01*
X147388261Y-94191399D01*
X147287000Y-94700475D01*
X141210000Y-94700475D01*
X141210000Y-93774080D01*
X141537525Y-93774080D01*
X141621208Y-94028261D01*
X141893775Y-94159158D01*
X142186642Y-94234365D01*
X142488553Y-94250991D01*
X142787907Y-94208397D01*
X143073199Y-94108222D01*
X143222792Y-94028261D01*
X143306475Y-93774080D01*
X142422000Y-92889605D01*
X141537525Y-93774080D01*
X141210000Y-93774080D01*
X141210000Y-93545776D01*
X141357920Y-93594475D01*
X142242395Y-92710000D01*
X142601605Y-92710000D01*
X143486080Y-93594475D01*
X143740261Y-93510792D01*
X143871158Y-93238225D01*
X143946365Y-92945358D01*
X143962991Y-92643447D01*
X143920397Y-92344093D01*
X143820222Y-92058801D01*
X143740261Y-91909208D01*
X143486080Y-91825525D01*
X142601605Y-92710000D01*
X142242395Y-92710000D01*
X141357920Y-91825525D01*
X141210000Y-91874224D01*
X141210000Y-91159040D01*
X141229688Y-91188505D01*
X141443495Y-91402312D01*
X141586310Y-91497738D01*
X141537525Y-91645920D01*
X142422000Y-92530395D01*
X143306475Y-91645920D01*
X143257690Y-91497738D01*
X143400505Y-91402312D01*
X143614312Y-91188505D01*
X143782299Y-90937095D01*
X143898011Y-90657743D01*
X143957000Y-90361184D01*
X143957000Y-90058816D01*
X143898011Y-89762257D01*
X143782299Y-89482905D01*
X143614312Y-89231495D01*
X143400505Y-89017688D01*
X143314169Y-88960000D01*
X143400505Y-88902312D01*
X143614312Y-88688505D01*
X143782299Y-88437095D01*
X143898011Y-88157743D01*
X143957000Y-87861184D01*
X143957000Y-87558816D01*
X143898011Y-87262257D01*
X143782299Y-86982905D01*
X143614312Y-86731495D01*
X143400505Y-86517688D01*
X143149095Y-86349701D01*
X142869743Y-86233989D01*
X142573184Y-86175000D01*
X142270816Y-86175000D01*
X141974257Y-86233989D01*
X141694905Y-86349701D01*
X141443495Y-86517688D01*
X141229688Y-86731495D01*
X141210000Y-86760960D01*
X141210000Y-85200475D01*
X147287000Y-85200475D01*
X147287000Y-85719525D01*
X147388261Y-86228601D01*
X147586893Y-86708141D01*
X147875262Y-87139715D01*
X148242285Y-87506738D01*
X148673859Y-87795107D01*
X149153399Y-87993739D01*
X149662475Y-88095000D01*
X150181525Y-88095000D01*
X150690601Y-87993739D01*
X151170141Y-87795107D01*
X151601715Y-87506738D01*
X151968738Y-87139715D01*
X152257107Y-86708141D01*
X152455739Y-86228601D01*
X152557000Y-85719525D01*
X152557000Y-85200475D01*
X152455739Y-84691399D01*
X152257107Y-84211859D01*
X151968738Y-83780285D01*
X151601715Y-83413262D01*
X151170141Y-83124893D01*
X150690601Y-82926261D01*
X150181525Y-82825000D01*
X149662475Y-82825000D01*
X149153399Y-82926261D01*
X148673859Y-83124893D01*
X148242285Y-83413262D01*
X147875262Y-83780285D01*
X147586893Y-84211859D01*
X147388261Y-84691399D01*
X147287000Y-85200475D01*
X141210000Y-85200475D01*
X141210000Y-78952475D01*
X147541000Y-78952475D01*
X147541000Y-79471525D01*
X147642261Y-79980601D01*
X147840893Y-80460141D01*
X148129262Y-80891715D01*
X148496285Y-81258738D01*
X148927859Y-81547107D01*
X149407399Y-81745739D01*
X149916475Y-81847000D01*
X150435525Y-81847000D01*
X150944601Y-81745739D01*
X151424141Y-81547107D01*
X151855715Y-81258738D01*
X152222738Y-80891715D01*
X152511107Y-80460141D01*
X152709739Y-79980601D01*
X152811000Y-79471525D01*
X152811000Y-78952475D01*
X152709739Y-78443399D01*
X152511107Y-77963859D01*
X152222738Y-77532285D01*
X151855715Y-77165262D01*
X151424141Y-76876893D01*
X150944601Y-76678261D01*
X150435525Y-76577000D01*
X149916475Y-76577000D01*
X149407399Y-76678261D01*
X148927859Y-76876893D01*
X148496285Y-77165262D01*
X148129262Y-77532285D01*
X147840893Y-77963859D01*
X147642261Y-78443399D01*
X147541000Y-78952475D01*
X141210000Y-78952475D01*
X141210000Y-78026080D01*
X141791525Y-78026080D01*
X141875208Y-78280261D01*
X142147775Y-78411158D01*
X142440642Y-78486365D01*
X142742553Y-78502991D01*
X143041907Y-78460397D01*
X143327199Y-78360222D01*
X143476792Y-78280261D01*
X143560475Y-78026080D01*
X142676000Y-77141605D01*
X141791525Y-78026080D01*
X141210000Y-78026080D01*
X141210000Y-77420172D01*
X141277778Y-77613199D01*
X141357739Y-77762792D01*
X141611920Y-77846475D01*
X142496395Y-76962000D01*
X142855605Y-76962000D01*
X143740080Y-77846475D01*
X143994261Y-77762792D01*
X144125158Y-77490225D01*
X144200365Y-77197358D01*
X144216991Y-76895447D01*
X144174397Y-76596093D01*
X144074222Y-76310801D01*
X143994261Y-76161208D01*
X143740080Y-76077525D01*
X142855605Y-76962000D01*
X142496395Y-76962000D01*
X141611920Y-76077525D01*
X141357739Y-76161208D01*
X141226842Y-76433775D01*
X141210000Y-76499360D01*
X141210000Y-74933912D01*
X141315701Y-75189095D01*
X141483688Y-75440505D01*
X141697495Y-75654312D01*
X141840310Y-75749738D01*
X141791525Y-75897920D01*
X142676000Y-76782395D01*
X143560475Y-75897920D01*
X143511690Y-75749738D01*
X143654505Y-75654312D01*
X143868312Y-75440505D01*
X144036299Y-75189095D01*
X144152011Y-74909743D01*
X144211000Y-74613184D01*
X144211000Y-74310816D01*
X144152011Y-74014257D01*
X144036299Y-73734905D01*
X143868312Y-73483495D01*
X143654505Y-73269688D01*
X143568169Y-73212000D01*
X143654505Y-73154312D01*
X143868312Y-72940505D01*
X144036299Y-72689095D01*
X144152011Y-72409743D01*
X144211000Y-72113184D01*
X144211000Y-71810816D01*
X144152011Y-71514257D01*
X144036299Y-71234905D01*
X143868312Y-70983495D01*
X143654505Y-70769688D01*
X143403095Y-70601701D01*
X143123743Y-70485989D01*
X142827184Y-70427000D01*
X142524816Y-70427000D01*
X142228257Y-70485989D01*
X141948905Y-70601701D01*
X141697495Y-70769688D01*
X141483688Y-70983495D01*
X141315701Y-71234905D01*
X141210000Y-71490088D01*
X141210000Y-69452475D01*
X147541000Y-69452475D01*
X147541000Y-69971525D01*
X147642261Y-70480601D01*
X147840893Y-70960141D01*
X148129262Y-71391715D01*
X148496285Y-71758738D01*
X148927859Y-72047107D01*
X149407399Y-72245739D01*
X149916475Y-72347000D01*
X150435525Y-72347000D01*
X150944601Y-72245739D01*
X151424141Y-72047107D01*
X151855715Y-71758738D01*
X152222738Y-71391715D01*
X152511107Y-70960141D01*
X152709739Y-70480601D01*
X152811000Y-69971525D01*
X152811000Y-69452475D01*
X152709739Y-68943399D01*
X152511107Y-68463859D01*
X152222738Y-68032285D01*
X151855715Y-67665262D01*
X151424141Y-67376893D01*
X150944601Y-67178261D01*
X150435525Y-67077000D01*
X149916475Y-67077000D01*
X149407399Y-67178261D01*
X148927859Y-67376893D01*
X148496285Y-67665262D01*
X148129262Y-68032285D01*
X147840893Y-68463859D01*
X147642261Y-68943399D01*
X147541000Y-69452475D01*
X141210000Y-69452475D01*
X141210000Y-62696475D01*
X147541000Y-62696475D01*
X147541000Y-63215525D01*
X147642261Y-63724601D01*
X147840893Y-64204141D01*
X148129262Y-64635715D01*
X148496285Y-65002738D01*
X148927859Y-65291107D01*
X149407399Y-65489739D01*
X149916475Y-65591000D01*
X150435525Y-65591000D01*
X150944601Y-65489739D01*
X151424141Y-65291107D01*
X151855715Y-65002738D01*
X152222738Y-64635715D01*
X152511107Y-64204141D01*
X152709739Y-63724601D01*
X152811000Y-63215525D01*
X152811000Y-62696475D01*
X152709739Y-62187399D01*
X152511107Y-61707859D01*
X152222738Y-61276285D01*
X151855715Y-60909262D01*
X151424141Y-60620893D01*
X150944601Y-60422261D01*
X150435525Y-60321000D01*
X149916475Y-60321000D01*
X149407399Y-60422261D01*
X148927859Y-60620893D01*
X148496285Y-60909262D01*
X148129262Y-61276285D01*
X147840893Y-61707859D01*
X147642261Y-62187399D01*
X147541000Y-62696475D01*
X141210000Y-62696475D01*
X141210000Y-61770080D01*
X141791525Y-61770080D01*
X141875208Y-62024261D01*
X142147775Y-62155158D01*
X142440642Y-62230365D01*
X142742553Y-62246991D01*
X143041907Y-62204397D01*
X143327199Y-62104222D01*
X143476792Y-62024261D01*
X143560475Y-61770080D01*
X142676000Y-60885605D01*
X141791525Y-61770080D01*
X141210000Y-61770080D01*
X141210000Y-61164172D01*
X141277778Y-61357199D01*
X141357739Y-61506792D01*
X141611920Y-61590475D01*
X142496395Y-60706000D01*
X142855605Y-60706000D01*
X143740080Y-61590475D01*
X143994261Y-61506792D01*
X144125158Y-61234225D01*
X144200365Y-60941358D01*
X144216991Y-60639447D01*
X144174397Y-60340093D01*
X144074222Y-60054801D01*
X143994261Y-59905208D01*
X143740080Y-59821525D01*
X142855605Y-60706000D01*
X142496395Y-60706000D01*
X141611920Y-59821525D01*
X141357739Y-59905208D01*
X141226842Y-60177775D01*
X141210000Y-60243360D01*
X141210000Y-58677912D01*
X141315701Y-58933095D01*
X141483688Y-59184505D01*
X141697495Y-59398312D01*
X141840310Y-59493738D01*
X141791525Y-59641920D01*
X142676000Y-60526395D01*
X143560475Y-59641920D01*
X143511690Y-59493738D01*
X143654505Y-59398312D01*
X143868312Y-59184505D01*
X143930790Y-59091000D01*
X150839422Y-59091000D01*
X157115001Y-65366580D01*
X157115000Y-72956531D01*
X157110719Y-73000000D01*
X157115000Y-73043469D01*
X157115000Y-73043476D01*
X157127805Y-73173489D01*
X157178411Y-73340312D01*
X157260589Y-73494058D01*
X157371183Y-73628817D01*
X157404956Y-73656534D01*
X160035470Y-76287049D01*
X160063183Y-76320817D01*
X160096951Y-76348530D01*
X160096953Y-76348532D01*
X160154075Y-76395411D01*
X160157378Y-76398122D01*
X160082795Y-76509744D01*
X160004774Y-76698102D01*
X159965000Y-76898061D01*
X159965000Y-77101939D01*
X160004774Y-77301898D01*
X160082795Y-77490256D01*
X160115000Y-77538454D01*
X160115001Y-85633420D01*
X156404956Y-89343466D01*
X156371183Y-89371183D01*
X156260589Y-89505942D01*
X156178411Y-89659688D01*
X156168250Y-89693185D01*
X156129801Y-89819932D01*
X156127805Y-89826511D01*
X156115000Y-89956524D01*
X156115000Y-89956531D01*
X156110719Y-90000000D01*
X156115000Y-90043469D01*
X156115001Y-97897422D01*
X155886958Y-98125466D01*
X155830103Y-98136775D01*
X155641745Y-98214796D01*
X155472227Y-98328064D01*
X155328064Y-98472227D01*
X155214796Y-98641745D01*
X155136775Y-98830103D01*
X155097001Y-99030062D01*
X155097001Y-99233940D01*
X155136775Y-99433899D01*
X155214796Y-99622257D01*
X155328064Y-99791775D01*
X155472227Y-99935938D01*
X155641745Y-100049206D01*
X155830103Y-100127227D01*
X156030062Y-100167001D01*
X156233940Y-100167001D01*
X156433899Y-100127227D01*
X156622257Y-100049206D01*
X156791775Y-99935938D01*
X156935938Y-99791775D01*
X157040415Y-99635413D01*
X158294192Y-99635413D01*
X158389956Y-99899814D01*
X158679571Y-100040704D01*
X158991108Y-100122384D01*
X159312595Y-100141718D01*
X159631675Y-100097961D01*
X159936088Y-99992795D01*
X160110044Y-99899814D01*
X160205808Y-99635413D01*
X159250000Y-98679605D01*
X158294192Y-99635413D01*
X157040415Y-99635413D01*
X157049206Y-99622257D01*
X157127227Y-99433899D01*
X157138536Y-99377044D01*
X157595049Y-98920532D01*
X157628817Y-98892819D01*
X157650024Y-98866979D01*
X157652039Y-98881675D01*
X157757205Y-99186088D01*
X157850186Y-99360044D01*
X158114587Y-99455808D01*
X159070395Y-98500000D01*
X159429605Y-98500000D01*
X160385413Y-99455808D01*
X160649814Y-99360044D01*
X160790704Y-99070429D01*
X160872384Y-98758892D01*
X160884189Y-98562595D01*
X164108282Y-98562595D01*
X164152039Y-98881675D01*
X164257205Y-99186088D01*
X164350186Y-99360044D01*
X164614587Y-99455808D01*
X165570395Y-98500000D01*
X164614587Y-97544192D01*
X164350186Y-97639956D01*
X164209296Y-97929571D01*
X164127616Y-98241108D01*
X164108282Y-98562595D01*
X160884189Y-98562595D01*
X160891718Y-98437405D01*
X160847961Y-98118325D01*
X160742795Y-97813912D01*
X160649814Y-97639956D01*
X160385413Y-97544192D01*
X159429605Y-98500000D01*
X159070395Y-98500000D01*
X158114587Y-97544192D01*
X157885000Y-97627347D01*
X157885000Y-97364587D01*
X158294192Y-97364587D01*
X159250000Y-98320395D01*
X160205808Y-97364587D01*
X160110044Y-97100186D01*
X159820429Y-96959296D01*
X159508892Y-96877616D01*
X159187405Y-96858282D01*
X158868325Y-96902039D01*
X158563912Y-97007205D01*
X158389956Y-97100186D01*
X158294192Y-97364587D01*
X157885000Y-97364587D01*
X157885000Y-94900055D01*
X157980013Y-95042252D01*
X158207748Y-95269987D01*
X158475537Y-95448918D01*
X158773088Y-95572168D01*
X159088967Y-95635000D01*
X159411033Y-95635000D01*
X159726912Y-95572168D01*
X160024463Y-95448918D01*
X160292252Y-95269987D01*
X160519987Y-95042252D01*
X160698918Y-94774463D01*
X160822168Y-94476912D01*
X160885000Y-94161033D01*
X160885000Y-93838967D01*
X160822168Y-93523088D01*
X160698918Y-93225537D01*
X160519987Y-92957748D01*
X160292252Y-92730013D01*
X160024463Y-92551082D01*
X159726912Y-92427832D01*
X159411033Y-92365000D01*
X159088967Y-92365000D01*
X158773088Y-92427832D01*
X158475537Y-92551082D01*
X158207748Y-92730013D01*
X157980013Y-92957748D01*
X157885000Y-93099945D01*
X157885000Y-90366578D01*
X161595049Y-86656530D01*
X161628817Y-86628817D01*
X161739411Y-86494059D01*
X161821589Y-86340313D01*
X161872195Y-86173490D01*
X161885000Y-86043477D01*
X161885000Y-86043467D01*
X161889281Y-86000001D01*
X161885000Y-85956535D01*
X161885000Y-77538454D01*
X161917205Y-77490256D01*
X161995226Y-77301898D01*
X162035000Y-77101939D01*
X162035000Y-76898061D01*
X161995226Y-76698102D01*
X161945064Y-76577000D01*
X162889344Y-76577000D01*
X162930525Y-76638632D01*
X163137368Y-76845475D01*
X163311760Y-76962000D01*
X163137368Y-77078525D01*
X162930525Y-77285368D01*
X162768010Y-77528589D01*
X162656068Y-77798842D01*
X162599000Y-78085740D01*
X162599000Y-78378260D01*
X162656068Y-78665158D01*
X162768010Y-78935411D01*
X162930525Y-79178632D01*
X163137368Y-79385475D01*
X163319534Y-79507195D01*
X163202645Y-79576822D01*
X162986412Y-79771731D01*
X162812359Y-80005080D01*
X162687175Y-80267901D01*
X162642524Y-80415110D01*
X162763845Y-80645000D01*
X163957000Y-80645000D01*
X163957000Y-80625000D01*
X164211000Y-80625000D01*
X164211000Y-80645000D01*
X165404155Y-80645000D01*
X165525476Y-80415110D01*
X165480825Y-80267901D01*
X165355641Y-80005080D01*
X165181588Y-79771731D01*
X164965355Y-79576822D01*
X164848466Y-79507195D01*
X165030632Y-79385475D01*
X165237475Y-79178632D01*
X165399990Y-78935411D01*
X165511932Y-78665158D01*
X165569000Y-78378260D01*
X165569000Y-78085740D01*
X165511932Y-77798842D01*
X165399990Y-77528589D01*
X165237475Y-77285368D01*
X165030632Y-77078525D01*
X164856240Y-76962000D01*
X165030632Y-76845475D01*
X165237475Y-76638632D01*
X165399990Y-76395411D01*
X165511932Y-76125158D01*
X165569000Y-75838260D01*
X165569000Y-75545740D01*
X165511932Y-75258842D01*
X165399990Y-74988589D01*
X165237475Y-74745368D01*
X165030632Y-74538525D01*
X164856240Y-74422000D01*
X165030632Y-74305475D01*
X165237475Y-74098632D01*
X165399990Y-73855411D01*
X165511932Y-73585158D01*
X165569000Y-73298260D01*
X165569000Y-73005740D01*
X165511932Y-72718842D01*
X165399990Y-72448589D01*
X165237475Y-72205368D01*
X165030632Y-71998525D01*
X164856240Y-71882000D01*
X165030632Y-71765475D01*
X165237475Y-71558632D01*
X165399990Y-71315411D01*
X165511932Y-71045158D01*
X165569000Y-70758260D01*
X165569000Y-70465740D01*
X165511932Y-70178842D01*
X165399990Y-69908589D01*
X165237475Y-69665368D01*
X165030632Y-69458525D01*
X164856240Y-69342000D01*
X165030632Y-69225475D01*
X165237475Y-69018632D01*
X165399990Y-68775411D01*
X165511932Y-68505158D01*
X165560652Y-68260230D01*
X174165348Y-76864927D01*
X174052350Y-76804528D01*
X173885754Y-76753992D01*
X173712500Y-76736928D01*
X172787500Y-76736928D01*
X172614246Y-76753992D01*
X172447650Y-76804528D01*
X172294114Y-76886595D01*
X172159538Y-76997038D01*
X172049095Y-77131614D01*
X171967028Y-77285150D01*
X171916492Y-77451746D01*
X171899428Y-77625000D01*
X171899428Y-77632460D01*
X171880970Y-77654951D01*
X171625572Y-77910349D01*
X171625572Y-77625000D01*
X171608508Y-77451746D01*
X171557972Y-77285150D01*
X171475905Y-77131614D01*
X171365462Y-76997038D01*
X171230886Y-76886595D01*
X171077350Y-76804528D01*
X170910754Y-76753992D01*
X170737500Y-76736928D01*
X170385000Y-76736928D01*
X170385000Y-75538454D01*
X170417205Y-75490256D01*
X170495226Y-75301898D01*
X170535000Y-75101939D01*
X170535000Y-74898061D01*
X170495226Y-74698102D01*
X170417205Y-74509744D01*
X170303937Y-74340226D01*
X170159774Y-74196063D01*
X169990256Y-74082795D01*
X169801898Y-74004774D01*
X169601939Y-73965000D01*
X169398061Y-73965000D01*
X169198102Y-74004774D01*
X169009744Y-74082795D01*
X168840226Y-74196063D01*
X168696063Y-74340226D01*
X168582795Y-74509744D01*
X168504774Y-74698102D01*
X168465000Y-74898061D01*
X168465000Y-75101939D01*
X168504774Y-75301898D01*
X168582795Y-75490256D01*
X168615000Y-75538455D01*
X168615001Y-77431521D01*
X168610719Y-77475000D01*
X168627805Y-77648490D01*
X168678412Y-77815313D01*
X168760590Y-77969059D01*
X168843468Y-78070046D01*
X168843471Y-78070049D01*
X168871184Y-78103817D01*
X168904951Y-78131529D01*
X168924428Y-78151006D01*
X168924428Y-78875000D01*
X168941492Y-79048254D01*
X168992028Y-79214850D01*
X169074095Y-79368386D01*
X169184538Y-79502962D01*
X169319114Y-79613405D01*
X169472650Y-79695472D01*
X169639246Y-79746008D01*
X169776404Y-79759517D01*
X165154956Y-84380966D01*
X165121183Y-84408683D01*
X165010589Y-84543442D01*
X164954785Y-84647846D01*
X164856240Y-84582000D01*
X165030632Y-84465475D01*
X165237475Y-84258632D01*
X165399990Y-84015411D01*
X165511932Y-83745158D01*
X165569000Y-83458260D01*
X165569000Y-83165740D01*
X165511932Y-82878842D01*
X165399990Y-82608589D01*
X165237475Y-82365368D01*
X165030632Y-82158525D01*
X164848466Y-82036805D01*
X164965355Y-81967178D01*
X165181588Y-81772269D01*
X165355641Y-81538920D01*
X165480825Y-81276099D01*
X165525476Y-81128890D01*
X165404155Y-80899000D01*
X164211000Y-80899000D01*
X164211000Y-80919000D01*
X163957000Y-80919000D01*
X163957000Y-80899000D01*
X162763845Y-80899000D01*
X162642524Y-81128890D01*
X162687175Y-81276099D01*
X162812359Y-81538920D01*
X162986412Y-81772269D01*
X163202645Y-81967178D01*
X163319534Y-82036805D01*
X163137368Y-82158525D01*
X162930525Y-82365368D01*
X162768010Y-82608589D01*
X162656068Y-82878842D01*
X162599000Y-83165740D01*
X162599000Y-83458260D01*
X162656068Y-83745158D01*
X162768010Y-84015411D01*
X162930525Y-84258632D01*
X163137368Y-84465475D01*
X163311760Y-84582000D01*
X163137368Y-84698525D01*
X162930525Y-84905368D01*
X162768010Y-85148589D01*
X162656068Y-85418842D01*
X162599000Y-85705740D01*
X162599000Y-85998260D01*
X162656068Y-86285158D01*
X162768010Y-86555411D01*
X162930525Y-86798632D01*
X163137368Y-87005475D01*
X163311760Y-87122000D01*
X163137368Y-87238525D01*
X162930525Y-87445368D01*
X162768010Y-87688589D01*
X162656068Y-87958842D01*
X162599000Y-88245740D01*
X162599000Y-88538260D01*
X162656068Y-88825158D01*
X162768010Y-89095411D01*
X162930525Y-89338632D01*
X163137368Y-89545475D01*
X163380589Y-89707990D01*
X163650842Y-89819932D01*
X163937740Y-89877000D01*
X164230260Y-89877000D01*
X164517158Y-89819932D01*
X164787411Y-89707990D01*
X164865001Y-89656146D01*
X164865001Y-92542301D01*
X164865000Y-92542311D01*
X164865000Y-92624940D01*
X164707748Y-92730013D01*
X164480013Y-92957748D01*
X164301082Y-93225537D01*
X164177832Y-93523088D01*
X164115000Y-93838967D01*
X164115000Y-94161033D01*
X164177832Y-94476912D01*
X164301082Y-94774463D01*
X164480013Y-95042252D01*
X164707748Y-95269987D01*
X164975537Y-95448918D01*
X165273088Y-95572168D01*
X165588967Y-95635000D01*
X165911033Y-95635000D01*
X166226912Y-95572168D01*
X166524463Y-95448918D01*
X166789990Y-95271498D01*
X166789991Y-97280401D01*
X166705807Y-97364585D01*
X166610044Y-97100186D01*
X166320429Y-96959296D01*
X166008892Y-96877616D01*
X165687405Y-96858282D01*
X165368325Y-96902039D01*
X165063912Y-97007205D01*
X164889956Y-97100186D01*
X164794192Y-97364587D01*
X165750000Y-98320395D01*
X165764143Y-98306253D01*
X165943748Y-98485858D01*
X165929605Y-98500000D01*
X165943748Y-98514143D01*
X165764143Y-98693748D01*
X165750000Y-98679605D01*
X164794192Y-99635413D01*
X164889956Y-99899814D01*
X165179571Y-100040704D01*
X165491108Y-100122384D01*
X165812595Y-100141718D01*
X166131675Y-100097961D01*
X166436088Y-99992795D01*
X166610044Y-99899814D01*
X166705807Y-99635415D01*
X166789991Y-99719599D01*
X166789991Y-103458977D01*
X166785709Y-103502456D01*
X166802795Y-103675946D01*
X166853402Y-103842769D01*
X166935580Y-103996515D01*
X167018458Y-104097502D01*
X167018461Y-104097505D01*
X167046174Y-104131273D01*
X167079941Y-104158985D01*
X167532884Y-104611928D01*
X165825000Y-104611928D01*
X165529814Y-104641001D01*
X165245972Y-104727104D01*
X164984382Y-104866927D01*
X164755097Y-105055097D01*
X164566927Y-105284382D01*
X164427104Y-105545972D01*
X164388072Y-105674643D01*
X164388072Y-102250000D01*
X164375812Y-102125518D01*
X164339502Y-102005820D01*
X164280537Y-101895506D01*
X164201185Y-101798815D01*
X164104494Y-101719463D01*
X163994180Y-101660498D01*
X163874482Y-101624188D01*
X163750000Y-101611928D01*
X160250000Y-101611928D01*
X160125518Y-101624188D01*
X160005820Y-101660498D01*
X159895506Y-101719463D01*
X159798815Y-101798815D01*
X159719463Y-101895506D01*
X159660498Y-102005820D01*
X159624188Y-102125518D01*
X159611928Y-102250000D01*
X159611928Y-105750000D01*
X159624188Y-105874482D01*
X159660498Y-105994180D01*
X159719463Y-106104494D01*
X159798815Y-106201185D01*
X159895506Y-106280537D01*
X160005820Y-106339502D01*
X160125518Y-106375812D01*
X160250000Y-106388072D01*
X163750000Y-106388072D01*
X163874482Y-106375812D01*
X163994180Y-106339502D01*
X164104494Y-106280537D01*
X164201185Y-106201185D01*
X164280537Y-106104494D01*
X164321494Y-106027869D01*
X164311928Y-106125000D01*
X164311928Y-107875000D01*
X164341001Y-108170186D01*
X164427104Y-108454028D01*
X164566927Y-108715618D01*
X164755097Y-108944903D01*
X164984382Y-109133073D01*
X165245972Y-109272896D01*
X165529814Y-109358999D01*
X165825000Y-109388072D01*
X167575000Y-109388072D01*
X167870186Y-109358999D01*
X168154028Y-109272896D01*
X168415618Y-109133073D01*
X168644903Y-108944903D01*
X168833073Y-108715618D01*
X168972896Y-108454028D01*
X169058999Y-108170186D01*
X169088072Y-107875000D01*
X169088072Y-106167117D01*
X169660699Y-106739743D01*
X169636595Y-106769114D01*
X169554528Y-106922650D01*
X169503992Y-107089246D01*
X169486928Y-107262500D01*
X169486928Y-108187500D01*
X169503992Y-108360754D01*
X169554528Y-108527350D01*
X169636595Y-108680886D01*
X169747038Y-108815462D01*
X169881614Y-108925905D01*
X170035150Y-109007972D01*
X170201746Y-109058508D01*
X170375000Y-109075572D01*
X171625000Y-109075572D01*
X171798254Y-109058508D01*
X171964850Y-109007972D01*
X172118386Y-108925905D01*
X172252962Y-108815462D01*
X172363405Y-108680886D01*
X172401294Y-108610000D01*
X172895450Y-108610000D01*
X172938919Y-108614281D01*
X172982388Y-108610000D01*
X172982396Y-108610000D01*
X173112409Y-108597195D01*
X173279232Y-108546589D01*
X173432978Y-108464411D01*
X173544362Y-108373000D01*
X175155210Y-108373000D01*
X175217688Y-108466505D01*
X175431495Y-108680312D01*
X175682905Y-108848299D01*
X175962257Y-108964011D01*
X176258816Y-109023000D01*
X176561184Y-109023000D01*
X176857743Y-108964011D01*
X177137095Y-108848299D01*
X177388505Y-108680312D01*
X177602312Y-108466505D01*
X177770299Y-108215095D01*
X177886011Y-107935743D01*
X177945000Y-107639184D01*
X177945000Y-107336816D01*
X177886011Y-107040257D01*
X177770299Y-106760905D01*
X177602312Y-106509495D01*
X177535873Y-106443056D01*
X177554180Y-106437502D01*
X177664494Y-106378537D01*
X177761185Y-106299185D01*
X177840537Y-106202494D01*
X177899502Y-106092180D01*
X177935812Y-105972482D01*
X177948072Y-105848000D01*
X177948072Y-104048000D01*
X177935812Y-103923518D01*
X177899502Y-103803820D01*
X177840537Y-103693506D01*
X177761185Y-103596815D01*
X177664494Y-103517463D01*
X177554180Y-103458498D01*
X177434482Y-103422188D01*
X177310000Y-103409928D01*
X175510000Y-103409928D01*
X175385518Y-103422188D01*
X175265820Y-103458498D01*
X175155506Y-103517463D01*
X175058815Y-103596815D01*
X174979463Y-103693506D01*
X174920498Y-103803820D01*
X174884188Y-103923518D01*
X174871928Y-104048000D01*
X174871928Y-105848000D01*
X174884188Y-105972482D01*
X174920498Y-106092180D01*
X174979463Y-106202494D01*
X175058815Y-106299185D01*
X175155506Y-106378537D01*
X175265820Y-106437502D01*
X175284127Y-106443056D01*
X175217688Y-106509495D01*
X175155210Y-106603000D01*
X173219388Y-106603000D01*
X173175919Y-106598719D01*
X173132450Y-106603000D01*
X173132442Y-106603000D01*
X173002429Y-106615805D01*
X172835606Y-106666411D01*
X172681860Y-106748589D01*
X172570476Y-106840000D01*
X172401294Y-106840000D01*
X172363405Y-106769114D01*
X172252962Y-106634538D01*
X172118386Y-106524095D01*
X171964850Y-106442028D01*
X171798254Y-106391492D01*
X171768913Y-106388602D01*
X171739411Y-106333407D01*
X171715210Y-106303918D01*
X171656532Y-106232419D01*
X171656530Y-106232417D01*
X171628817Y-106198649D01*
X171595050Y-106170937D01*
X171524685Y-106100572D01*
X171625000Y-106100572D01*
X171798254Y-106083508D01*
X171964850Y-106032972D01*
X172118386Y-105950905D01*
X172252962Y-105840462D01*
X172363405Y-105705886D01*
X172445472Y-105552350D01*
X172496008Y-105385754D01*
X172513072Y-105212500D01*
X172513072Y-104287500D01*
X172496008Y-104114246D01*
X172445472Y-103947650D01*
X172363405Y-103794114D01*
X172252962Y-103659538D01*
X172118386Y-103549095D01*
X171964850Y-103467028D01*
X171885000Y-103442806D01*
X171885000Y-102543469D01*
X171889281Y-102500000D01*
X171885000Y-102456531D01*
X171885000Y-102456523D01*
X171872195Y-102326510D01*
X171845598Y-102238832D01*
X181991000Y-102238832D01*
X181991000Y-102739168D01*
X182088611Y-103229891D01*
X182280081Y-103692141D01*
X182558053Y-104108156D01*
X182911844Y-104461947D01*
X183327859Y-104739919D01*
X183790109Y-104931389D01*
X184280832Y-105029000D01*
X184781168Y-105029000D01*
X185271891Y-104931389D01*
X185423691Y-104868512D01*
X185385731Y-104960154D01*
X185293000Y-105426340D01*
X185293000Y-105901660D01*
X185385731Y-106367846D01*
X185423691Y-106459488D01*
X185271891Y-106396611D01*
X184781168Y-106299000D01*
X184280832Y-106299000D01*
X183790109Y-106396611D01*
X183327859Y-106588081D01*
X182911844Y-106866053D01*
X182558053Y-107219844D01*
X182280081Y-107635859D01*
X182088611Y-108098109D01*
X181991000Y-108588832D01*
X181991000Y-109089168D01*
X182088611Y-109579891D01*
X182280081Y-110042141D01*
X182558053Y-110458156D01*
X182911844Y-110811947D01*
X183327859Y-111089919D01*
X183790109Y-111281389D01*
X184280832Y-111379000D01*
X184781168Y-111379000D01*
X185271891Y-111281389D01*
X185734141Y-111089919D01*
X186150156Y-110811947D01*
X186503947Y-110458156D01*
X186781919Y-110042141D01*
X186973389Y-109579891D01*
X187071000Y-109089168D01*
X187071000Y-108588832D01*
X186973389Y-108098109D01*
X186910512Y-107946309D01*
X187002154Y-107984269D01*
X187468340Y-108077000D01*
X187943660Y-108077000D01*
X188409846Y-107984269D01*
X188501488Y-107946309D01*
X188438611Y-108098109D01*
X188341000Y-108588832D01*
X188341000Y-109089168D01*
X188438611Y-109579891D01*
X188630081Y-110042141D01*
X188908053Y-110458156D01*
X189261844Y-110811947D01*
X189677859Y-111089919D01*
X190140109Y-111281389D01*
X190630832Y-111379000D01*
X191131168Y-111379000D01*
X191621891Y-111281389D01*
X192084141Y-111089919D01*
X192500156Y-110811947D01*
X192853947Y-110458156D01*
X193131919Y-110042141D01*
X193323389Y-109579891D01*
X193421000Y-109089168D01*
X193421000Y-108588832D01*
X193323389Y-108098109D01*
X193131919Y-107635859D01*
X192853947Y-107219844D01*
X192500156Y-106866053D01*
X192084141Y-106588081D01*
X191621891Y-106396611D01*
X191131168Y-106299000D01*
X190630832Y-106299000D01*
X190140109Y-106396611D01*
X189988309Y-106459488D01*
X190026269Y-106367846D01*
X190119000Y-105901660D01*
X190119000Y-105426340D01*
X190026269Y-104960154D01*
X189988309Y-104868512D01*
X190140109Y-104931389D01*
X190630832Y-105029000D01*
X191131168Y-105029000D01*
X191621891Y-104931389D01*
X192084141Y-104739919D01*
X192500156Y-104461947D01*
X192853947Y-104108156D01*
X193131919Y-103692141D01*
X193323389Y-103229891D01*
X193421000Y-102739168D01*
X193421000Y-102238832D01*
X193323389Y-101748109D01*
X193131919Y-101285859D01*
X192853947Y-100869844D01*
X192500156Y-100516053D01*
X192084141Y-100238081D01*
X191621891Y-100046611D01*
X191131168Y-99949000D01*
X190630832Y-99949000D01*
X190140109Y-100046611D01*
X189677859Y-100238081D01*
X189261844Y-100516053D01*
X188908053Y-100869844D01*
X188630081Y-101285859D01*
X188438611Y-101748109D01*
X188341000Y-102238832D01*
X188341000Y-102739168D01*
X188438611Y-103229891D01*
X188501488Y-103381691D01*
X188409846Y-103343731D01*
X187943660Y-103251000D01*
X187468340Y-103251000D01*
X187002154Y-103343731D01*
X186910512Y-103381691D01*
X186973389Y-103229891D01*
X187071000Y-102739168D01*
X187071000Y-102238832D01*
X186973389Y-101748109D01*
X186781919Y-101285859D01*
X186503947Y-100869844D01*
X186150156Y-100516053D01*
X185734141Y-100238081D01*
X185271891Y-100046611D01*
X184781168Y-99949000D01*
X184280832Y-99949000D01*
X183790109Y-100046611D01*
X183327859Y-100238081D01*
X182911844Y-100516053D01*
X182558053Y-100869844D01*
X182280081Y-101285859D01*
X182088611Y-101748109D01*
X181991000Y-102238832D01*
X171845598Y-102238832D01*
X171821589Y-102159687D01*
X171739411Y-102005941D01*
X171628817Y-101871183D01*
X171595044Y-101843466D01*
X171535000Y-101783422D01*
X171535000Y-98292287D01*
X171544180Y-98289502D01*
X171654494Y-98230537D01*
X171751185Y-98151185D01*
X171830537Y-98054494D01*
X171889502Y-97944180D01*
X171925812Y-97824482D01*
X171938072Y-97700000D01*
X171938072Y-94300000D01*
X171925812Y-94175518D01*
X171889502Y-94055820D01*
X171830537Y-93945506D01*
X171751185Y-93848815D01*
X171654494Y-93769463D01*
X171544180Y-93710498D01*
X171424482Y-93674188D01*
X171300000Y-93661928D01*
X170000000Y-93661928D01*
X169875518Y-93674188D01*
X169755820Y-93710498D01*
X169645506Y-93769463D01*
X169548815Y-93848815D01*
X169469463Y-93945506D01*
X169410498Y-94055820D01*
X169374188Y-94175518D01*
X169361928Y-94300000D01*
X169361928Y-97700000D01*
X169374188Y-97824482D01*
X169410498Y-97944180D01*
X169469463Y-98054494D01*
X169548815Y-98151185D01*
X169645506Y-98230537D01*
X169755820Y-98289502D01*
X169765000Y-98292287D01*
X169765001Y-101271288D01*
X169696063Y-101340226D01*
X169582795Y-101509744D01*
X169504774Y-101698102D01*
X169465000Y-101898061D01*
X169465000Y-102101939D01*
X169504774Y-102301898D01*
X169582795Y-102490256D01*
X169696063Y-102659774D01*
X169840226Y-102803937D01*
X170009744Y-102917205D01*
X170115001Y-102960804D01*
X170115001Y-103442806D01*
X170035150Y-103467028D01*
X169881614Y-103549095D01*
X169747038Y-103659538D01*
X169636595Y-103794114D01*
X169554528Y-103947650D01*
X169511991Y-104087878D01*
X168559990Y-103135878D01*
X168559990Y-87718456D01*
X168564271Y-87674989D01*
X168559990Y-87631523D01*
X168559990Y-87631513D01*
X168547185Y-87501500D01*
X168496579Y-87334677D01*
X168414401Y-87180931D01*
X168371632Y-87128817D01*
X168331522Y-87079943D01*
X168331520Y-87079941D01*
X168303807Y-87046173D01*
X168270040Y-87018461D01*
X168006535Y-86754956D01*
X167995226Y-86698102D01*
X167917205Y-86509744D01*
X167803937Y-86340226D01*
X167659774Y-86196063D01*
X167490256Y-86082795D01*
X167301898Y-86004774D01*
X167101939Y-85965000D01*
X166898061Y-85965000D01*
X166698102Y-86004774D01*
X166635000Y-86030912D01*
X166635000Y-85404078D01*
X172379848Y-79659231D01*
X172447650Y-79695472D01*
X172614246Y-79746008D01*
X172787500Y-79763072D01*
X173712500Y-79763072D01*
X173885754Y-79746008D01*
X174052350Y-79695472D01*
X174205886Y-79613405D01*
X174340462Y-79502962D01*
X174450905Y-79368386D01*
X174532972Y-79214850D01*
X174557194Y-79135000D01*
X176030912Y-79135000D01*
X176004774Y-79198102D01*
X175965000Y-79398061D01*
X175965000Y-79601939D01*
X176004774Y-79801898D01*
X176082795Y-79990256D01*
X176115000Y-80038454D01*
X176115001Y-89956521D01*
X176110719Y-90000000D01*
X176127805Y-90173490D01*
X176178412Y-90340313D01*
X176260590Y-90494059D01*
X176343468Y-90595046D01*
X176343471Y-90595049D01*
X176371184Y-90628817D01*
X176404951Y-90656529D01*
X177343470Y-91595049D01*
X177371183Y-91628817D01*
X177404951Y-91656530D01*
X177404953Y-91656532D01*
X177505941Y-91739411D01*
X177659686Y-91821589D01*
X177826510Y-91872195D01*
X177956523Y-91885000D01*
X177956531Y-91885000D01*
X178000000Y-91889281D01*
X178043469Y-91885000D01*
X179456531Y-91885000D01*
X179500000Y-91889281D01*
X179543469Y-91885000D01*
X179543477Y-91885000D01*
X179673490Y-91872195D01*
X179840313Y-91821589D01*
X179994059Y-91739411D01*
X180128817Y-91628817D01*
X180156534Y-91595044D01*
X181991000Y-89760578D01*
X181991000Y-90039168D01*
X182088611Y-90529891D01*
X182280081Y-90992141D01*
X182558053Y-91408156D01*
X182911844Y-91761947D01*
X183327859Y-92039919D01*
X183422209Y-92079000D01*
X181373007Y-92079000D01*
X181176939Y-92040000D01*
X180973061Y-92040000D01*
X180773102Y-92079774D01*
X180584744Y-92157795D01*
X180415226Y-92271063D01*
X180271063Y-92415226D01*
X180157795Y-92584744D01*
X180079774Y-92773102D01*
X180068465Y-92829957D01*
X180004956Y-92893466D01*
X179971183Y-92921183D01*
X179860589Y-93055942D01*
X179778411Y-93209688D01*
X179727805Y-93376511D01*
X179715000Y-93506524D01*
X179715000Y-93506531D01*
X179710719Y-93550000D01*
X179714814Y-93591582D01*
X179678411Y-93659688D01*
X179677731Y-93661928D01*
X178700000Y-93661928D01*
X178575518Y-93674188D01*
X178455820Y-93710498D01*
X178345506Y-93769463D01*
X178248815Y-93848815D01*
X178169463Y-93945506D01*
X178110498Y-94055820D01*
X178074188Y-94175518D01*
X178061928Y-94300000D01*
X178061928Y-97700000D01*
X178074188Y-97824482D01*
X178110498Y-97944180D01*
X178169463Y-98054494D01*
X178248815Y-98151185D01*
X178345506Y-98230537D01*
X178455820Y-98289502D01*
X178575518Y-98325812D01*
X178700000Y-98338072D01*
X180000000Y-98338072D01*
X180124482Y-98325812D01*
X180244180Y-98289502D01*
X180354494Y-98230537D01*
X180451185Y-98151185D01*
X180530537Y-98054494D01*
X180589502Y-97944180D01*
X180625812Y-97824482D01*
X180638072Y-97700000D01*
X180638072Y-95963507D01*
X181095049Y-95506530D01*
X181128817Y-95478817D01*
X181189436Y-95404954D01*
X181239411Y-95344059D01*
X181321589Y-95190314D01*
X181372195Y-95023490D01*
X181385000Y-94893477D01*
X181385000Y-94893469D01*
X181389281Y-94850000D01*
X181385000Y-94806531D01*
X181385000Y-94308767D01*
X181421589Y-94240313D01*
X181472195Y-94073489D01*
X181476583Y-94028935D01*
X181565256Y-93992205D01*
X181734774Y-93878937D01*
X181764711Y-93849000D01*
X183422209Y-93849000D01*
X183327859Y-93888081D01*
X182911844Y-94166053D01*
X182558053Y-94519844D01*
X182280081Y-94935859D01*
X182088611Y-95398109D01*
X181991000Y-95888832D01*
X181991000Y-96389168D01*
X182088611Y-96879891D01*
X182280081Y-97342141D01*
X182558053Y-97758156D01*
X182911844Y-98111947D01*
X183327859Y-98389919D01*
X183790109Y-98581389D01*
X184280832Y-98679000D01*
X184781168Y-98679000D01*
X185271891Y-98581389D01*
X185734141Y-98389919D01*
X186150156Y-98111947D01*
X186503947Y-97758156D01*
X186781919Y-97342141D01*
X186973389Y-96879891D01*
X187071000Y-96389168D01*
X187071000Y-95888832D01*
X186973389Y-95398109D01*
X186910512Y-95246309D01*
X187002154Y-95284269D01*
X187468340Y-95377000D01*
X187943660Y-95377000D01*
X188409846Y-95284269D01*
X188501488Y-95246309D01*
X188438611Y-95398109D01*
X188341000Y-95888832D01*
X188341000Y-96389168D01*
X188438611Y-96879891D01*
X188630081Y-97342141D01*
X188908053Y-97758156D01*
X189261844Y-98111947D01*
X189677859Y-98389919D01*
X190140109Y-98581389D01*
X190630832Y-98679000D01*
X191131168Y-98679000D01*
X191621891Y-98581389D01*
X192084141Y-98389919D01*
X192500156Y-98111947D01*
X192853947Y-97758156D01*
X193131919Y-97342141D01*
X193323389Y-96879891D01*
X193421000Y-96389168D01*
X193421000Y-95888832D01*
X193323389Y-95398109D01*
X193131919Y-94935859D01*
X192853947Y-94519844D01*
X192500156Y-94166053D01*
X192084141Y-93888081D01*
X191621891Y-93696611D01*
X191131168Y-93599000D01*
X190630832Y-93599000D01*
X190140109Y-93696611D01*
X189988309Y-93759488D01*
X190026269Y-93667846D01*
X190119000Y-93201660D01*
X190119000Y-92726340D01*
X190026269Y-92260154D01*
X189988309Y-92168512D01*
X190140109Y-92231389D01*
X190630832Y-92329000D01*
X191131168Y-92329000D01*
X191621891Y-92231389D01*
X192084141Y-92039919D01*
X192500156Y-91761947D01*
X192853947Y-91408156D01*
X193131919Y-90992141D01*
X193323389Y-90529891D01*
X193421000Y-90039168D01*
X193421000Y-89538832D01*
X193323389Y-89048109D01*
X193131919Y-88585859D01*
X192853947Y-88169844D01*
X192500156Y-87816053D01*
X192084141Y-87538081D01*
X191621891Y-87346611D01*
X191131168Y-87249000D01*
X190630832Y-87249000D01*
X190140109Y-87346611D01*
X189677859Y-87538081D01*
X189261844Y-87816053D01*
X188908053Y-88169844D01*
X188630081Y-88585859D01*
X188438611Y-89048109D01*
X188341000Y-89538832D01*
X188341000Y-90039168D01*
X188438611Y-90529891D01*
X188501488Y-90681691D01*
X188409846Y-90643731D01*
X187943660Y-90551000D01*
X187468340Y-90551000D01*
X187002154Y-90643731D01*
X186910512Y-90681691D01*
X186973389Y-90529891D01*
X187071000Y-90039168D01*
X187071000Y-89538832D01*
X186973389Y-89048109D01*
X186781919Y-88585859D01*
X186503947Y-88169844D01*
X186150156Y-87816053D01*
X185734141Y-87538081D01*
X185271891Y-87346611D01*
X184781168Y-87249000D01*
X184502579Y-87249000D01*
X185072578Y-86679001D01*
X185617932Y-86679001D01*
X185661401Y-86683282D01*
X185704870Y-86679001D01*
X185704878Y-86679001D01*
X185834891Y-86666196D01*
X186001714Y-86615590D01*
X186155460Y-86533412D01*
X186290218Y-86422818D01*
X186317935Y-86389045D01*
X188301050Y-84405931D01*
X188334817Y-84378219D01*
X188445411Y-84243461D01*
X188456415Y-84222874D01*
X188630081Y-84642141D01*
X188908053Y-85058156D01*
X189261844Y-85411947D01*
X189677859Y-85689919D01*
X190140109Y-85881389D01*
X190630832Y-85979000D01*
X191131168Y-85979000D01*
X191621891Y-85881389D01*
X192084141Y-85689919D01*
X192500156Y-85411947D01*
X192853947Y-85058156D01*
X193131919Y-84642141D01*
X193323389Y-84179891D01*
X193421000Y-83689168D01*
X193421000Y-83188832D01*
X193323389Y-82698109D01*
X193131919Y-82235859D01*
X192853947Y-81819844D01*
X192500156Y-81466053D01*
X192084141Y-81188081D01*
X191621891Y-80996611D01*
X191131168Y-80899000D01*
X190630832Y-80899000D01*
X190140109Y-80996611D01*
X189988309Y-81059488D01*
X190026269Y-80967846D01*
X190119000Y-80501660D01*
X190119000Y-80026340D01*
X190026269Y-79560154D01*
X189988309Y-79468512D01*
X190140109Y-79531389D01*
X190630832Y-79629000D01*
X191131168Y-79629000D01*
X191621891Y-79531389D01*
X192084141Y-79339919D01*
X192500156Y-79061947D01*
X192853947Y-78708156D01*
X193131919Y-78292141D01*
X193323389Y-77829891D01*
X193421000Y-77339168D01*
X193421000Y-76838832D01*
X193323389Y-76348109D01*
X193131919Y-75885859D01*
X192853947Y-75469844D01*
X192500156Y-75116053D01*
X192084141Y-74838081D01*
X191621891Y-74646611D01*
X191131168Y-74549000D01*
X190630832Y-74549000D01*
X190140109Y-74646611D01*
X189677859Y-74838081D01*
X189261844Y-75116053D01*
X188908053Y-75469844D01*
X188630081Y-75885859D01*
X188438611Y-76348109D01*
X188341000Y-76838832D01*
X188341000Y-77339168D01*
X188438611Y-77829891D01*
X188501488Y-77981691D01*
X188409846Y-77943731D01*
X187943660Y-77851000D01*
X187468340Y-77851000D01*
X187002154Y-77943731D01*
X186910512Y-77981691D01*
X186973389Y-77829891D01*
X187071000Y-77339168D01*
X187071000Y-76838832D01*
X186973389Y-76348109D01*
X186781919Y-75885859D01*
X186503947Y-75469844D01*
X186150156Y-75116053D01*
X185734141Y-74838081D01*
X185271891Y-74646611D01*
X184781168Y-74549000D01*
X184280832Y-74549000D01*
X183790109Y-74646611D01*
X183327859Y-74838081D01*
X182911844Y-75116053D01*
X182558053Y-75469844D01*
X182280081Y-75885859D01*
X182088611Y-76348109D01*
X181991000Y-76838832D01*
X181991000Y-77107421D01*
X180794539Y-75910960D01*
X180809000Y-75838260D01*
X180809000Y-75545740D01*
X180751932Y-75258842D01*
X180639990Y-74988589D01*
X180477475Y-74745368D01*
X180270632Y-74538525D01*
X180096240Y-74422000D01*
X180270632Y-74305475D01*
X180477475Y-74098632D01*
X180639990Y-73855411D01*
X180751932Y-73585158D01*
X180809000Y-73298260D01*
X180809000Y-73005740D01*
X180795321Y-72936969D01*
X180802816Y-72930818D01*
X180913410Y-72796060D01*
X180995588Y-72642314D01*
X181046194Y-72475491D01*
X181058999Y-72345478D01*
X181058999Y-72345468D01*
X181063280Y-72302002D01*
X181058999Y-72258536D01*
X181058999Y-72160579D01*
X182030721Y-71188858D01*
X182088611Y-71479891D01*
X182280081Y-71942141D01*
X182558053Y-72358156D01*
X182911844Y-72711947D01*
X183327859Y-72989919D01*
X183790109Y-73181389D01*
X184280832Y-73279000D01*
X184781168Y-73279000D01*
X185271891Y-73181389D01*
X185734141Y-72989919D01*
X186150156Y-72711947D01*
X186503947Y-72358156D01*
X186781919Y-71942141D01*
X186973389Y-71479891D01*
X187071000Y-70989168D01*
X187071000Y-70488832D01*
X186973389Y-69998109D01*
X186910512Y-69846309D01*
X187002154Y-69884269D01*
X187468340Y-69977000D01*
X187943660Y-69977000D01*
X188409846Y-69884269D01*
X188501488Y-69846309D01*
X188438611Y-69998109D01*
X188341000Y-70488832D01*
X188341000Y-70989168D01*
X188438611Y-71479891D01*
X188630081Y-71942141D01*
X188908053Y-72358156D01*
X189261844Y-72711947D01*
X189677859Y-72989919D01*
X190140109Y-73181389D01*
X190630832Y-73279000D01*
X191131168Y-73279000D01*
X191621891Y-73181389D01*
X192084141Y-72989919D01*
X192500156Y-72711947D01*
X192853947Y-72358156D01*
X193131919Y-71942141D01*
X193323389Y-71479891D01*
X193421000Y-70989168D01*
X193421000Y-70488832D01*
X193323389Y-69998109D01*
X193131919Y-69535859D01*
X192853947Y-69119844D01*
X192500156Y-68766053D01*
X192084141Y-68488081D01*
X191621891Y-68296611D01*
X191131168Y-68199000D01*
X190630832Y-68199000D01*
X190140109Y-68296611D01*
X189988309Y-68359488D01*
X190026269Y-68267846D01*
X190119000Y-67801660D01*
X190119000Y-67326340D01*
X190026269Y-66860154D01*
X189988309Y-66768512D01*
X190140109Y-66831389D01*
X190630832Y-66929000D01*
X191131168Y-66929000D01*
X191621891Y-66831389D01*
X192084141Y-66639919D01*
X192500156Y-66361947D01*
X192853947Y-66008156D01*
X193131919Y-65592141D01*
X193323389Y-65129891D01*
X193421000Y-64639168D01*
X193421000Y-64138832D01*
X193323389Y-63648109D01*
X193131919Y-63185859D01*
X192853947Y-62769844D01*
X192500156Y-62416053D01*
X192084141Y-62138081D01*
X191621891Y-61946611D01*
X191131168Y-61849000D01*
X190630832Y-61849000D01*
X190140109Y-61946611D01*
X189677859Y-62138081D01*
X189261844Y-62416053D01*
X188908053Y-62769844D01*
X188630081Y-63185859D01*
X188438611Y-63648109D01*
X188341000Y-64138832D01*
X188341000Y-64639168D01*
X188438611Y-65129891D01*
X188501488Y-65281691D01*
X188409846Y-65243731D01*
X187943660Y-65151000D01*
X187468340Y-65151000D01*
X187002154Y-65243731D01*
X186910512Y-65281691D01*
X186973389Y-65129891D01*
X187071000Y-64639168D01*
X187071000Y-64138832D01*
X186973389Y-63648109D01*
X186781919Y-63185859D01*
X186503947Y-62769844D01*
X186150156Y-62416053D01*
X185871748Y-62230027D01*
X185914059Y-62207411D01*
X186048817Y-62096817D01*
X186076534Y-62063044D01*
X188301050Y-59838529D01*
X188334817Y-59810817D01*
X188376039Y-59760589D01*
X188445410Y-59676060D01*
X188445411Y-59676059D01*
X188527589Y-59522313D01*
X188578195Y-59355490D01*
X188591000Y-59225477D01*
X188591000Y-59225467D01*
X188595281Y-59182001D01*
X188592196Y-59150679D01*
X188630081Y-59242141D01*
X188908053Y-59658156D01*
X189261844Y-60011947D01*
X189677859Y-60289919D01*
X190140109Y-60481389D01*
X190630832Y-60579000D01*
X191131168Y-60579000D01*
X191621891Y-60481389D01*
X192084141Y-60289919D01*
X192500156Y-60011947D01*
X192853947Y-59658156D01*
X193131919Y-59242141D01*
X193323389Y-58779891D01*
X193421000Y-58289168D01*
X193421000Y-57788832D01*
X193323389Y-57298109D01*
X193131919Y-56835859D01*
X192853947Y-56419844D01*
X192500156Y-56066053D01*
X192084141Y-55788081D01*
X191621891Y-55596611D01*
X191131168Y-55499000D01*
X190630832Y-55499000D01*
X190140109Y-55596611D01*
X189988309Y-55659488D01*
X190026269Y-55567846D01*
X190119000Y-55101660D01*
X190119000Y-54626340D01*
X190026269Y-54160154D01*
X189988309Y-54068512D01*
X190140109Y-54131389D01*
X190630832Y-54229000D01*
X191131168Y-54229000D01*
X191621891Y-54131389D01*
X192084141Y-53939919D01*
X192500156Y-53661947D01*
X192853947Y-53308156D01*
X193131919Y-52892141D01*
X193323389Y-52429891D01*
X193421000Y-51939168D01*
X193421000Y-51438832D01*
X193323389Y-50948109D01*
X193131919Y-50485859D01*
X192853947Y-50069844D01*
X192500156Y-49716053D01*
X192143884Y-49478000D01*
X194870001Y-49478000D01*
X194870000Y-113290000D01*
G37*
X194870000Y-113290000D02*
X183398518Y-113290000D01*
X151771312Y-113065135D01*
X151855715Y-113008738D01*
X152222738Y-112641715D01*
X152511107Y-112210141D01*
X152709739Y-111730601D01*
X152811000Y-111221525D01*
X152811000Y-110702475D01*
X152709739Y-110193399D01*
X152511107Y-109713859D01*
X152222738Y-109282285D01*
X152190453Y-109250000D01*
X159611928Y-109250000D01*
X159611928Y-110750000D01*
X159638599Y-111020799D01*
X159717589Y-111281192D01*
X159845860Y-111521171D01*
X160018485Y-111731515D01*
X160228829Y-111904140D01*
X160468808Y-112032411D01*
X160729201Y-112111401D01*
X161000000Y-112138072D01*
X163000000Y-112138072D01*
X163270799Y-112111401D01*
X163531192Y-112032411D01*
X163771171Y-111904140D01*
X163981515Y-111731515D01*
X164154140Y-111521171D01*
X164282411Y-111281192D01*
X164361401Y-111020799D01*
X164388072Y-110750000D01*
X164388072Y-109250000D01*
X164361401Y-108979201D01*
X164282411Y-108718808D01*
X164154140Y-108478829D01*
X163981515Y-108268485D01*
X163771171Y-108095860D01*
X163531192Y-107967589D01*
X163270799Y-107888599D01*
X163000000Y-107861928D01*
X161000000Y-107861928D01*
X160729201Y-107888599D01*
X160468808Y-107967589D01*
X160228829Y-108095860D01*
X160018485Y-108268485D01*
X159845860Y-108478829D01*
X159717589Y-108718808D01*
X159638599Y-108979201D01*
X159611928Y-109250000D01*
X152190453Y-109250000D01*
X151855715Y-108915262D01*
X151424141Y-108626893D01*
X150944601Y-108428261D01*
X150435525Y-108327000D01*
X149916475Y-108327000D01*
X149407399Y-108428261D01*
X148927859Y-108626893D01*
X148496285Y-108915262D01*
X148129262Y-109282285D01*
X147840893Y-109713859D01*
X147642261Y-110193399D01*
X147541000Y-110702475D01*
X147541000Y-111221525D01*
X147642261Y-111730601D01*
X147840893Y-112210141D01*
X148129262Y-112641715D01*
X148496285Y-113008738D01*
X148546373Y-113042206D01*
X141210000Y-112990045D01*
X141210000Y-109776080D01*
X141791525Y-109776080D01*
X141875208Y-110030261D01*
X142147775Y-110161158D01*
X142440642Y-110236365D01*
X142742553Y-110252991D01*
X143041907Y-110210397D01*
X143327199Y-110110222D01*
X143476792Y-110030261D01*
X143560475Y-109776080D01*
X142676000Y-108891605D01*
X141791525Y-109776080D01*
X141210000Y-109776080D01*
X141210000Y-109170172D01*
X141277778Y-109363199D01*
X141357739Y-109512792D01*
X141611920Y-109596475D01*
X142496395Y-108712000D01*
X142855605Y-108712000D01*
X143740080Y-109596475D01*
X143994261Y-109512792D01*
X144125158Y-109240225D01*
X144200365Y-108947358D01*
X144216991Y-108645447D01*
X144174397Y-108346093D01*
X144074222Y-108060801D01*
X143994261Y-107911208D01*
X143740080Y-107827525D01*
X142855605Y-108712000D01*
X142496395Y-108712000D01*
X141611920Y-107827525D01*
X141357739Y-107911208D01*
X141226842Y-108183775D01*
X141210000Y-108249360D01*
X141210000Y-106683912D01*
X141315701Y-106939095D01*
X141483688Y-107190505D01*
X141697495Y-107404312D01*
X141840310Y-107499738D01*
X141791525Y-107647920D01*
X142676000Y-108532395D01*
X143560475Y-107647920D01*
X143511690Y-107499738D01*
X143654505Y-107404312D01*
X143868312Y-107190505D01*
X143930790Y-107097000D01*
X149008533Y-107097000D01*
X149052002Y-107101281D01*
X149095471Y-107097000D01*
X149095479Y-107097000D01*
X149225492Y-107084195D01*
X149392315Y-107033589D01*
X149546061Y-106951411D01*
X149621276Y-106889683D01*
X149683899Y-106877227D01*
X149872257Y-106799206D01*
X150041775Y-106685938D01*
X150185938Y-106541775D01*
X150299206Y-106372257D01*
X150377227Y-106183899D01*
X150417001Y-105983940D01*
X150417001Y-105780062D01*
X150377227Y-105580103D01*
X150299206Y-105391745D01*
X150185938Y-105222227D01*
X150041775Y-105078064D01*
X149872257Y-104964796D01*
X149683899Y-104886775D01*
X149483940Y-104847001D01*
X149280062Y-104847001D01*
X149080103Y-104886775D01*
X148891745Y-104964796D01*
X148722227Y-105078064D01*
X148578064Y-105222227D01*
X148508057Y-105327000D01*
X143930790Y-105327000D01*
X143868312Y-105233495D01*
X143654505Y-105019688D01*
X143568169Y-104962000D01*
X143654505Y-104904312D01*
X143868312Y-104690505D01*
X144036299Y-104439095D01*
X144152011Y-104159743D01*
X144211000Y-103863184D01*
X144211000Y-103560816D01*
X144152011Y-103264257D01*
X144036299Y-102984905D01*
X143868312Y-102733495D01*
X143654505Y-102519688D01*
X143403095Y-102351701D01*
X143123743Y-102235989D01*
X142827184Y-102177000D01*
X142524816Y-102177000D01*
X142228257Y-102235989D01*
X141948905Y-102351701D01*
X141697495Y-102519688D01*
X141483688Y-102733495D01*
X141315701Y-102984905D01*
X141210000Y-103240088D01*
X141210000Y-101202475D01*
X147541000Y-101202475D01*
X147541000Y-101721525D01*
X147642261Y-102230601D01*
X147840893Y-102710141D01*
X148129262Y-103141715D01*
X148496285Y-103508738D01*
X148927859Y-103797107D01*
X149407399Y-103995739D01*
X149916475Y-104097000D01*
X150435525Y-104097000D01*
X150944601Y-103995739D01*
X151424141Y-103797107D01*
X151855715Y-103508738D01*
X152222738Y-103141715D01*
X152511107Y-102710141D01*
X152709739Y-102230601D01*
X152811000Y-101721525D01*
X152811000Y-101202475D01*
X152709739Y-100693399D01*
X152511107Y-100213859D01*
X152222738Y-99782285D01*
X151855715Y-99415262D01*
X151424141Y-99126893D01*
X150944601Y-98928261D01*
X150435525Y-98827000D01*
X149916475Y-98827000D01*
X149407399Y-98928261D01*
X148927859Y-99126893D01*
X148496285Y-99415262D01*
X148129262Y-99782285D01*
X147840893Y-100213859D01*
X147642261Y-100693399D01*
X147541000Y-101202475D01*
X141210000Y-101202475D01*
X141210000Y-94700475D01*
X147287000Y-94700475D01*
X147287000Y-95219525D01*
X147388261Y-95728601D01*
X147586893Y-96208141D01*
X147875262Y-96639715D01*
X148242285Y-97006738D01*
X148673859Y-97295107D01*
X149153399Y-97493739D01*
X149662475Y-97595000D01*
X150181525Y-97595000D01*
X150690601Y-97493739D01*
X151170141Y-97295107D01*
X151601715Y-97006738D01*
X151968738Y-96639715D01*
X152257107Y-96208141D01*
X152455739Y-95728601D01*
X152557000Y-95219525D01*
X152557000Y-94700475D01*
X152455739Y-94191399D01*
X152257107Y-93711859D01*
X151968738Y-93280285D01*
X151601715Y-92913262D01*
X151170141Y-92624893D01*
X150690601Y-92426261D01*
X150181525Y-92325000D01*
X149662475Y-92325000D01*
X149153399Y-92426261D01*
X148673859Y-92624893D01*
X148242285Y-92913262D01*
X147875262Y-93280285D01*
X147586893Y-93711859D01*
X147388261Y-94191399D01*
X147287000Y-94700475D01*
X141210000Y-94700475D01*
X141210000Y-93774080D01*
X141537525Y-93774080D01*
X141621208Y-94028261D01*
X141893775Y-94159158D01*
X142186642Y-94234365D01*
X142488553Y-94250991D01*
X142787907Y-94208397D01*
X143073199Y-94108222D01*
X143222792Y-94028261D01*
X143306475Y-93774080D01*
X142422000Y-92889605D01*
X141537525Y-93774080D01*
X141210000Y-93774080D01*
X141210000Y-93545776D01*
X141357920Y-93594475D01*
X142242395Y-92710000D01*
X142601605Y-92710000D01*
X143486080Y-93594475D01*
X143740261Y-93510792D01*
X143871158Y-93238225D01*
X143946365Y-92945358D01*
X143962991Y-92643447D01*
X143920397Y-92344093D01*
X143820222Y-92058801D01*
X143740261Y-91909208D01*
X143486080Y-91825525D01*
X142601605Y-92710000D01*
X142242395Y-92710000D01*
X141357920Y-91825525D01*
X141210000Y-91874224D01*
X141210000Y-91159040D01*
X141229688Y-91188505D01*
X141443495Y-91402312D01*
X141586310Y-91497738D01*
X141537525Y-91645920D01*
X142422000Y-92530395D01*
X143306475Y-91645920D01*
X143257690Y-91497738D01*
X143400505Y-91402312D01*
X143614312Y-91188505D01*
X143782299Y-90937095D01*
X143898011Y-90657743D01*
X143957000Y-90361184D01*
X143957000Y-90058816D01*
X143898011Y-89762257D01*
X143782299Y-89482905D01*
X143614312Y-89231495D01*
X143400505Y-89017688D01*
X143314169Y-88960000D01*
X143400505Y-88902312D01*
X143614312Y-88688505D01*
X143782299Y-88437095D01*
X143898011Y-88157743D01*
X143957000Y-87861184D01*
X143957000Y-87558816D01*
X143898011Y-87262257D01*
X143782299Y-86982905D01*
X143614312Y-86731495D01*
X143400505Y-86517688D01*
X143149095Y-86349701D01*
X142869743Y-86233989D01*
X142573184Y-86175000D01*
X142270816Y-86175000D01*
X141974257Y-86233989D01*
X141694905Y-86349701D01*
X141443495Y-86517688D01*
X141229688Y-86731495D01*
X141210000Y-86760960D01*
X141210000Y-85200475D01*
X147287000Y-85200475D01*
X147287000Y-85719525D01*
X147388261Y-86228601D01*
X147586893Y-86708141D01*
X147875262Y-87139715D01*
X148242285Y-87506738D01*
X148673859Y-87795107D01*
X149153399Y-87993739D01*
X149662475Y-88095000D01*
X150181525Y-88095000D01*
X150690601Y-87993739D01*
X151170141Y-87795107D01*
X151601715Y-87506738D01*
X151968738Y-87139715D01*
X152257107Y-86708141D01*
X152455739Y-86228601D01*
X152557000Y-85719525D01*
X152557000Y-85200475D01*
X152455739Y-84691399D01*
X152257107Y-84211859D01*
X151968738Y-83780285D01*
X151601715Y-83413262D01*
X151170141Y-83124893D01*
X150690601Y-82926261D01*
X150181525Y-82825000D01*
X149662475Y-82825000D01*
X149153399Y-82926261D01*
X148673859Y-83124893D01*
X148242285Y-83413262D01*
X147875262Y-83780285D01*
X147586893Y-84211859D01*
X147388261Y-84691399D01*
X147287000Y-85200475D01*
X141210000Y-85200475D01*
X141210000Y-78952475D01*
X147541000Y-78952475D01*
X147541000Y-79471525D01*
X147642261Y-79980601D01*
X147840893Y-80460141D01*
X148129262Y-80891715D01*
X148496285Y-81258738D01*
X148927859Y-81547107D01*
X149407399Y-81745739D01*
X149916475Y-81847000D01*
X150435525Y-81847000D01*
X150944601Y-81745739D01*
X151424141Y-81547107D01*
X151855715Y-81258738D01*
X152222738Y-80891715D01*
X152511107Y-80460141D01*
X152709739Y-79980601D01*
X152811000Y-79471525D01*
X152811000Y-78952475D01*
X152709739Y-78443399D01*
X152511107Y-77963859D01*
X152222738Y-77532285D01*
X151855715Y-77165262D01*
X151424141Y-76876893D01*
X150944601Y-76678261D01*
X150435525Y-76577000D01*
X149916475Y-76577000D01*
X149407399Y-76678261D01*
X148927859Y-76876893D01*
X148496285Y-77165262D01*
X148129262Y-77532285D01*
X147840893Y-77963859D01*
X147642261Y-78443399D01*
X147541000Y-78952475D01*
X141210000Y-78952475D01*
X141210000Y-78026080D01*
X141791525Y-78026080D01*
X141875208Y-78280261D01*
X142147775Y-78411158D01*
X142440642Y-78486365D01*
X142742553Y-78502991D01*
X143041907Y-78460397D01*
X143327199Y-78360222D01*
X143476792Y-78280261D01*
X143560475Y-78026080D01*
X142676000Y-77141605D01*
X141791525Y-78026080D01*
X141210000Y-78026080D01*
X141210000Y-77420172D01*
X141277778Y-77613199D01*
X141357739Y-77762792D01*
X141611920Y-77846475D01*
X142496395Y-76962000D01*
X142855605Y-76962000D01*
X143740080Y-77846475D01*
X143994261Y-77762792D01*
X144125158Y-77490225D01*
X144200365Y-77197358D01*
X144216991Y-76895447D01*
X144174397Y-76596093D01*
X144074222Y-76310801D01*
X143994261Y-76161208D01*
X143740080Y-76077525D01*
X142855605Y-76962000D01*
X142496395Y-76962000D01*
X141611920Y-76077525D01*
X141357739Y-76161208D01*
X141226842Y-76433775D01*
X141210000Y-76499360D01*
X141210000Y-74933912D01*
X141315701Y-75189095D01*
X141483688Y-75440505D01*
X141697495Y-75654312D01*
X141840310Y-75749738D01*
X141791525Y-75897920D01*
X142676000Y-76782395D01*
X143560475Y-75897920D01*
X143511690Y-75749738D01*
X143654505Y-75654312D01*
X143868312Y-75440505D01*
X144036299Y-75189095D01*
X144152011Y-74909743D01*
X144211000Y-74613184D01*
X144211000Y-74310816D01*
X144152011Y-74014257D01*
X144036299Y-73734905D01*
X143868312Y-73483495D01*
X143654505Y-73269688D01*
X143568169Y-73212000D01*
X143654505Y-73154312D01*
X143868312Y-72940505D01*
X144036299Y-72689095D01*
X144152011Y-72409743D01*
X144211000Y-72113184D01*
X144211000Y-71810816D01*
X144152011Y-71514257D01*
X144036299Y-71234905D01*
X143868312Y-70983495D01*
X143654505Y-70769688D01*
X143403095Y-70601701D01*
X143123743Y-70485989D01*
X142827184Y-70427000D01*
X142524816Y-70427000D01*
X142228257Y-70485989D01*
X141948905Y-70601701D01*
X141697495Y-70769688D01*
X141483688Y-70983495D01*
X141315701Y-71234905D01*
X141210000Y-71490088D01*
X141210000Y-69452475D01*
X147541000Y-69452475D01*
X147541000Y-69971525D01*
X147642261Y-70480601D01*
X147840893Y-70960141D01*
X148129262Y-71391715D01*
X148496285Y-71758738D01*
X148927859Y-72047107D01*
X149407399Y-72245739D01*
X149916475Y-72347000D01*
X150435525Y-72347000D01*
X150944601Y-72245739D01*
X151424141Y-72047107D01*
X151855715Y-71758738D01*
X152222738Y-71391715D01*
X152511107Y-70960141D01*
X152709739Y-70480601D01*
X152811000Y-69971525D01*
X152811000Y-69452475D01*
X152709739Y-68943399D01*
X152511107Y-68463859D01*
X152222738Y-68032285D01*
X151855715Y-67665262D01*
X151424141Y-67376893D01*
X150944601Y-67178261D01*
X150435525Y-67077000D01*
X149916475Y-67077000D01*
X149407399Y-67178261D01*
X148927859Y-67376893D01*
X148496285Y-67665262D01*
X148129262Y-68032285D01*
X147840893Y-68463859D01*
X147642261Y-68943399D01*
X147541000Y-69452475D01*
X141210000Y-69452475D01*
X141210000Y-62696475D01*
X147541000Y-62696475D01*
X147541000Y-63215525D01*
X147642261Y-63724601D01*
X147840893Y-64204141D01*
X148129262Y-64635715D01*
X148496285Y-65002738D01*
X148927859Y-65291107D01*
X149407399Y-65489739D01*
X149916475Y-65591000D01*
X150435525Y-65591000D01*
X150944601Y-65489739D01*
X151424141Y-65291107D01*
X151855715Y-65002738D01*
X152222738Y-64635715D01*
X152511107Y-64204141D01*
X152709739Y-63724601D01*
X152811000Y-63215525D01*
X152811000Y-62696475D01*
X152709739Y-62187399D01*
X152511107Y-61707859D01*
X152222738Y-61276285D01*
X151855715Y-60909262D01*
X151424141Y-60620893D01*
X150944601Y-60422261D01*
X150435525Y-60321000D01*
X149916475Y-60321000D01*
X149407399Y-60422261D01*
X148927859Y-60620893D01*
X148496285Y-60909262D01*
X148129262Y-61276285D01*
X147840893Y-61707859D01*
X147642261Y-62187399D01*
X147541000Y-62696475D01*
X141210000Y-62696475D01*
X141210000Y-61770080D01*
X141791525Y-61770080D01*
X141875208Y-62024261D01*
X142147775Y-62155158D01*
X142440642Y-62230365D01*
X142742553Y-62246991D01*
X143041907Y-62204397D01*
X143327199Y-62104222D01*
X143476792Y-62024261D01*
X143560475Y-61770080D01*
X142676000Y-60885605D01*
X141791525Y-61770080D01*
X141210000Y-61770080D01*
X141210000Y-61164172D01*
X141277778Y-61357199D01*
X141357739Y-61506792D01*
X141611920Y-61590475D01*
X142496395Y-60706000D01*
X142855605Y-60706000D01*
X143740080Y-61590475D01*
X143994261Y-61506792D01*
X144125158Y-61234225D01*
X144200365Y-60941358D01*
X144216991Y-60639447D01*
X144174397Y-60340093D01*
X144074222Y-60054801D01*
X143994261Y-59905208D01*
X143740080Y-59821525D01*
X142855605Y-60706000D01*
X142496395Y-60706000D01*
X141611920Y-59821525D01*
X141357739Y-59905208D01*
X141226842Y-60177775D01*
X141210000Y-60243360D01*
X141210000Y-58677912D01*
X141315701Y-58933095D01*
X141483688Y-59184505D01*
X141697495Y-59398312D01*
X141840310Y-59493738D01*
X141791525Y-59641920D01*
X142676000Y-60526395D01*
X143560475Y-59641920D01*
X143511690Y-59493738D01*
X143654505Y-59398312D01*
X143868312Y-59184505D01*
X143930790Y-59091000D01*
X150839422Y-59091000D01*
X157115001Y-65366580D01*
X157115000Y-72956531D01*
X157110719Y-73000000D01*
X157115000Y-73043469D01*
X157115000Y-73043476D01*
X157127805Y-73173489D01*
X157178411Y-73340312D01*
X157260589Y-73494058D01*
X157371183Y-73628817D01*
X157404956Y-73656534D01*
X160035470Y-76287049D01*
X160063183Y-76320817D01*
X160096951Y-76348530D01*
X160096953Y-76348532D01*
X160154075Y-76395411D01*
X160157378Y-76398122D01*
X160082795Y-76509744D01*
X160004774Y-76698102D01*
X159965000Y-76898061D01*
X159965000Y-77101939D01*
X160004774Y-77301898D01*
X160082795Y-77490256D01*
X160115000Y-77538454D01*
X160115001Y-85633420D01*
X156404956Y-89343466D01*
X156371183Y-89371183D01*
X156260589Y-89505942D01*
X156178411Y-89659688D01*
X156168250Y-89693185D01*
X156129801Y-89819932D01*
X156127805Y-89826511D01*
X156115000Y-89956524D01*
X156115000Y-89956531D01*
X156110719Y-90000000D01*
X156115000Y-90043469D01*
X156115001Y-97897422D01*
X155886958Y-98125466D01*
X155830103Y-98136775D01*
X155641745Y-98214796D01*
X155472227Y-98328064D01*
X155328064Y-98472227D01*
X155214796Y-98641745D01*
X155136775Y-98830103D01*
X155097001Y-99030062D01*
X155097001Y-99233940D01*
X155136775Y-99433899D01*
X155214796Y-99622257D01*
X155328064Y-99791775D01*
X155472227Y-99935938D01*
X155641745Y-100049206D01*
X155830103Y-100127227D01*
X156030062Y-100167001D01*
X156233940Y-100167001D01*
X156433899Y-100127227D01*
X156622257Y-100049206D01*
X156791775Y-99935938D01*
X156935938Y-99791775D01*
X157040415Y-99635413D01*
X158294192Y-99635413D01*
X158389956Y-99899814D01*
X158679571Y-100040704D01*
X158991108Y-100122384D01*
X159312595Y-100141718D01*
X159631675Y-100097961D01*
X159936088Y-99992795D01*
X160110044Y-99899814D01*
X160205808Y-99635413D01*
X159250000Y-98679605D01*
X158294192Y-99635413D01*
X157040415Y-99635413D01*
X157049206Y-99622257D01*
X157127227Y-99433899D01*
X157138536Y-99377044D01*
X157595049Y-98920532D01*
X157628817Y-98892819D01*
X157650024Y-98866979D01*
X157652039Y-98881675D01*
X157757205Y-99186088D01*
X157850186Y-99360044D01*
X158114587Y-99455808D01*
X159070395Y-98500000D01*
X159429605Y-98500000D01*
X160385413Y-99455808D01*
X160649814Y-99360044D01*
X160790704Y-99070429D01*
X160872384Y-98758892D01*
X160884189Y-98562595D01*
X164108282Y-98562595D01*
X164152039Y-98881675D01*
X164257205Y-99186088D01*
X164350186Y-99360044D01*
X164614587Y-99455808D01*
X165570395Y-98500000D01*
X164614587Y-97544192D01*
X164350186Y-97639956D01*
X164209296Y-97929571D01*
X164127616Y-98241108D01*
X164108282Y-98562595D01*
X160884189Y-98562595D01*
X160891718Y-98437405D01*
X160847961Y-98118325D01*
X160742795Y-97813912D01*
X160649814Y-97639956D01*
X160385413Y-97544192D01*
X159429605Y-98500000D01*
X159070395Y-98500000D01*
X158114587Y-97544192D01*
X157885000Y-97627347D01*
X157885000Y-97364587D01*
X158294192Y-97364587D01*
X159250000Y-98320395D01*
X160205808Y-97364587D01*
X160110044Y-97100186D01*
X159820429Y-96959296D01*
X159508892Y-96877616D01*
X159187405Y-96858282D01*
X158868325Y-96902039D01*
X158563912Y-97007205D01*
X158389956Y-97100186D01*
X158294192Y-97364587D01*
X157885000Y-97364587D01*
X157885000Y-94900055D01*
X157980013Y-95042252D01*
X158207748Y-95269987D01*
X158475537Y-95448918D01*
X158773088Y-95572168D01*
X159088967Y-95635000D01*
X159411033Y-95635000D01*
X159726912Y-95572168D01*
X160024463Y-95448918D01*
X160292252Y-95269987D01*
X160519987Y-95042252D01*
X160698918Y-94774463D01*
X160822168Y-94476912D01*
X160885000Y-94161033D01*
X160885000Y-93838967D01*
X160822168Y-93523088D01*
X160698918Y-93225537D01*
X160519987Y-92957748D01*
X160292252Y-92730013D01*
X160024463Y-92551082D01*
X159726912Y-92427832D01*
X159411033Y-92365000D01*
X159088967Y-92365000D01*
X158773088Y-92427832D01*
X158475537Y-92551082D01*
X158207748Y-92730013D01*
X157980013Y-92957748D01*
X157885000Y-93099945D01*
X157885000Y-90366578D01*
X161595049Y-86656530D01*
X161628817Y-86628817D01*
X161739411Y-86494059D01*
X161821589Y-86340313D01*
X161872195Y-86173490D01*
X161885000Y-86043477D01*
X161885000Y-86043467D01*
X161889281Y-86000001D01*
X161885000Y-85956535D01*
X161885000Y-77538454D01*
X161917205Y-77490256D01*
X161995226Y-77301898D01*
X162035000Y-77101939D01*
X162035000Y-76898061D01*
X161995226Y-76698102D01*
X161945064Y-76577000D01*
X162889344Y-76577000D01*
X162930525Y-76638632D01*
X163137368Y-76845475D01*
X163311760Y-76962000D01*
X163137368Y-77078525D01*
X162930525Y-77285368D01*
X162768010Y-77528589D01*
X162656068Y-77798842D01*
X162599000Y-78085740D01*
X162599000Y-78378260D01*
X162656068Y-78665158D01*
X162768010Y-78935411D01*
X162930525Y-79178632D01*
X163137368Y-79385475D01*
X163319534Y-79507195D01*
X163202645Y-79576822D01*
X162986412Y-79771731D01*
X162812359Y-80005080D01*
X162687175Y-80267901D01*
X162642524Y-80415110D01*
X162763845Y-80645000D01*
X163957000Y-80645000D01*
X163957000Y-80625000D01*
X164211000Y-80625000D01*
X164211000Y-80645000D01*
X165404155Y-80645000D01*
X165525476Y-80415110D01*
X165480825Y-80267901D01*
X165355641Y-80005080D01*
X165181588Y-79771731D01*
X164965355Y-79576822D01*
X164848466Y-79507195D01*
X165030632Y-79385475D01*
X165237475Y-79178632D01*
X165399990Y-78935411D01*
X165511932Y-78665158D01*
X165569000Y-78378260D01*
X165569000Y-78085740D01*
X165511932Y-77798842D01*
X165399990Y-77528589D01*
X165237475Y-77285368D01*
X165030632Y-77078525D01*
X164856240Y-76962000D01*
X165030632Y-76845475D01*
X165237475Y-76638632D01*
X165399990Y-76395411D01*
X165511932Y-76125158D01*
X165569000Y-75838260D01*
X165569000Y-75545740D01*
X165511932Y-75258842D01*
X165399990Y-74988589D01*
X165237475Y-74745368D01*
X165030632Y-74538525D01*
X164856240Y-74422000D01*
X165030632Y-74305475D01*
X165237475Y-74098632D01*
X165399990Y-73855411D01*
X165511932Y-73585158D01*
X165569000Y-73298260D01*
X165569000Y-73005740D01*
X165511932Y-72718842D01*
X165399990Y-72448589D01*
X165237475Y-72205368D01*
X165030632Y-71998525D01*
X164856240Y-71882000D01*
X165030632Y-71765475D01*
X165237475Y-71558632D01*
X165399990Y-71315411D01*
X165511932Y-71045158D01*
X165569000Y-70758260D01*
X165569000Y-70465740D01*
X165511932Y-70178842D01*
X165399990Y-69908589D01*
X165237475Y-69665368D01*
X165030632Y-69458525D01*
X164856240Y-69342000D01*
X165030632Y-69225475D01*
X165237475Y-69018632D01*
X165399990Y-68775411D01*
X165511932Y-68505158D01*
X165560652Y-68260230D01*
X174165348Y-76864927D01*
X174052350Y-76804528D01*
X173885754Y-76753992D01*
X173712500Y-76736928D01*
X172787500Y-76736928D01*
X172614246Y-76753992D01*
X172447650Y-76804528D01*
X172294114Y-76886595D01*
X172159538Y-76997038D01*
X172049095Y-77131614D01*
X171967028Y-77285150D01*
X171916492Y-77451746D01*
X171899428Y-77625000D01*
X171899428Y-77632460D01*
X171880970Y-77654951D01*
X171625572Y-77910349D01*
X171625572Y-77625000D01*
X171608508Y-77451746D01*
X171557972Y-77285150D01*
X171475905Y-77131614D01*
X171365462Y-76997038D01*
X171230886Y-76886595D01*
X171077350Y-76804528D01*
X170910754Y-76753992D01*
X170737500Y-76736928D01*
X170385000Y-76736928D01*
X170385000Y-75538454D01*
X170417205Y-75490256D01*
X170495226Y-75301898D01*
X170535000Y-75101939D01*
X170535000Y-74898061D01*
X170495226Y-74698102D01*
X170417205Y-74509744D01*
X170303937Y-74340226D01*
X170159774Y-74196063D01*
X169990256Y-74082795D01*
X169801898Y-74004774D01*
X169601939Y-73965000D01*
X169398061Y-73965000D01*
X169198102Y-74004774D01*
X169009744Y-74082795D01*
X168840226Y-74196063D01*
X168696063Y-74340226D01*
X168582795Y-74509744D01*
X168504774Y-74698102D01*
X168465000Y-74898061D01*
X168465000Y-75101939D01*
X168504774Y-75301898D01*
X168582795Y-75490256D01*
X168615000Y-75538455D01*
X168615001Y-77431521D01*
X168610719Y-77475000D01*
X168627805Y-77648490D01*
X168678412Y-77815313D01*
X168760590Y-77969059D01*
X168843468Y-78070046D01*
X168843471Y-78070049D01*
X168871184Y-78103817D01*
X168904951Y-78131529D01*
X168924428Y-78151006D01*
X168924428Y-78875000D01*
X168941492Y-79048254D01*
X168992028Y-79214850D01*
X169074095Y-79368386D01*
X169184538Y-79502962D01*
X169319114Y-79613405D01*
X169472650Y-79695472D01*
X169639246Y-79746008D01*
X169776404Y-79759517D01*
X165154956Y-84380966D01*
X165121183Y-84408683D01*
X165010589Y-84543442D01*
X164954785Y-84647846D01*
X164856240Y-84582000D01*
X165030632Y-84465475D01*
X165237475Y-84258632D01*
X165399990Y-84015411D01*
X165511932Y-83745158D01*
X165569000Y-83458260D01*
X165569000Y-83165740D01*
X165511932Y-82878842D01*
X165399990Y-82608589D01*
X165237475Y-82365368D01*
X165030632Y-82158525D01*
X164848466Y-82036805D01*
X164965355Y-81967178D01*
X165181588Y-81772269D01*
X165355641Y-81538920D01*
X165480825Y-81276099D01*
X165525476Y-81128890D01*
X165404155Y-80899000D01*
X164211000Y-80899000D01*
X164211000Y-80919000D01*
X163957000Y-80919000D01*
X163957000Y-80899000D01*
X162763845Y-80899000D01*
X162642524Y-81128890D01*
X162687175Y-81276099D01*
X162812359Y-81538920D01*
X162986412Y-81772269D01*
X163202645Y-81967178D01*
X163319534Y-82036805D01*
X163137368Y-82158525D01*
X162930525Y-82365368D01*
X162768010Y-82608589D01*
X162656068Y-82878842D01*
X162599000Y-83165740D01*
X162599000Y-83458260D01*
X162656068Y-83745158D01*
X162768010Y-84015411D01*
X162930525Y-84258632D01*
X163137368Y-84465475D01*
X163311760Y-84582000D01*
X163137368Y-84698525D01*
X162930525Y-84905368D01*
X162768010Y-85148589D01*
X162656068Y-85418842D01*
X162599000Y-85705740D01*
X162599000Y-85998260D01*
X162656068Y-86285158D01*
X162768010Y-86555411D01*
X162930525Y-86798632D01*
X163137368Y-87005475D01*
X163311760Y-87122000D01*
X163137368Y-87238525D01*
X162930525Y-87445368D01*
X162768010Y-87688589D01*
X162656068Y-87958842D01*
X162599000Y-88245740D01*
X162599000Y-88538260D01*
X162656068Y-88825158D01*
X162768010Y-89095411D01*
X162930525Y-89338632D01*
X163137368Y-89545475D01*
X163380589Y-89707990D01*
X163650842Y-89819932D01*
X163937740Y-89877000D01*
X164230260Y-89877000D01*
X164517158Y-89819932D01*
X164787411Y-89707990D01*
X164865001Y-89656146D01*
X164865001Y-92542301D01*
X164865000Y-92542311D01*
X164865000Y-92624940D01*
X164707748Y-92730013D01*
X164480013Y-92957748D01*
X164301082Y-93225537D01*
X164177832Y-93523088D01*
X164115000Y-93838967D01*
X164115000Y-94161033D01*
X164177832Y-94476912D01*
X164301082Y-94774463D01*
X164480013Y-95042252D01*
X164707748Y-95269987D01*
X164975537Y-95448918D01*
X165273088Y-95572168D01*
X165588967Y-95635000D01*
X165911033Y-95635000D01*
X166226912Y-95572168D01*
X166524463Y-95448918D01*
X166789990Y-95271498D01*
X166789991Y-97280401D01*
X166705807Y-97364585D01*
X166610044Y-97100186D01*
X166320429Y-96959296D01*
X166008892Y-96877616D01*
X165687405Y-96858282D01*
X165368325Y-96902039D01*
X165063912Y-97007205D01*
X164889956Y-97100186D01*
X164794192Y-97364587D01*
X165750000Y-98320395D01*
X165764143Y-98306253D01*
X165943748Y-98485858D01*
X165929605Y-98500000D01*
X165943748Y-98514143D01*
X165764143Y-98693748D01*
X165750000Y-98679605D01*
X164794192Y-99635413D01*
X164889956Y-99899814D01*
X165179571Y-100040704D01*
X165491108Y-100122384D01*
X165812595Y-100141718D01*
X166131675Y-100097961D01*
X166436088Y-99992795D01*
X166610044Y-99899814D01*
X166705807Y-99635415D01*
X166789991Y-99719599D01*
X166789991Y-103458977D01*
X166785709Y-103502456D01*
X166802795Y-103675946D01*
X166853402Y-103842769D01*
X166935580Y-103996515D01*
X167018458Y-104097502D01*
X167018461Y-104097505D01*
X167046174Y-104131273D01*
X167079941Y-104158985D01*
X167532884Y-104611928D01*
X165825000Y-104611928D01*
X165529814Y-104641001D01*
X165245972Y-104727104D01*
X164984382Y-104866927D01*
X164755097Y-105055097D01*
X164566927Y-105284382D01*
X164427104Y-105545972D01*
X164388072Y-105674643D01*
X164388072Y-102250000D01*
X164375812Y-102125518D01*
X164339502Y-102005820D01*
X164280537Y-101895506D01*
X164201185Y-101798815D01*
X164104494Y-101719463D01*
X163994180Y-101660498D01*
X163874482Y-101624188D01*
X163750000Y-101611928D01*
X160250000Y-101611928D01*
X160125518Y-101624188D01*
X160005820Y-101660498D01*
X159895506Y-101719463D01*
X159798815Y-101798815D01*
X159719463Y-101895506D01*
X159660498Y-102005820D01*
X159624188Y-102125518D01*
X159611928Y-102250000D01*
X159611928Y-105750000D01*
X159624188Y-105874482D01*
X159660498Y-105994180D01*
X159719463Y-106104494D01*
X159798815Y-106201185D01*
X159895506Y-106280537D01*
X160005820Y-106339502D01*
X160125518Y-106375812D01*
X160250000Y-106388072D01*
X163750000Y-106388072D01*
X163874482Y-106375812D01*
X163994180Y-106339502D01*
X164104494Y-106280537D01*
X164201185Y-106201185D01*
X164280537Y-106104494D01*
X164321494Y-106027869D01*
X164311928Y-106125000D01*
X164311928Y-107875000D01*
X164341001Y-108170186D01*
X164427104Y-108454028D01*
X164566927Y-108715618D01*
X164755097Y-108944903D01*
X164984382Y-109133073D01*
X165245972Y-109272896D01*
X165529814Y-109358999D01*
X165825000Y-109388072D01*
X167575000Y-109388072D01*
X167870186Y-109358999D01*
X168154028Y-109272896D01*
X168415618Y-109133073D01*
X168644903Y-108944903D01*
X168833073Y-108715618D01*
X168972896Y-108454028D01*
X169058999Y-108170186D01*
X169088072Y-107875000D01*
X169088072Y-106167117D01*
X169660699Y-106739743D01*
X169636595Y-106769114D01*
X169554528Y-106922650D01*
X169503992Y-107089246D01*
X169486928Y-107262500D01*
X169486928Y-108187500D01*
X169503992Y-108360754D01*
X169554528Y-108527350D01*
X169636595Y-108680886D01*
X169747038Y-108815462D01*
X169881614Y-108925905D01*
X170035150Y-109007972D01*
X170201746Y-109058508D01*
X170375000Y-109075572D01*
X171625000Y-109075572D01*
X171798254Y-109058508D01*
X171964850Y-109007972D01*
X172118386Y-108925905D01*
X172252962Y-108815462D01*
X172363405Y-108680886D01*
X172401294Y-108610000D01*
X172895450Y-108610000D01*
X172938919Y-108614281D01*
X172982388Y-108610000D01*
X172982396Y-108610000D01*
X173112409Y-108597195D01*
X173279232Y-108546589D01*
X173432978Y-108464411D01*
X173544362Y-108373000D01*
X175155210Y-108373000D01*
X175217688Y-108466505D01*
X175431495Y-108680312D01*
X175682905Y-108848299D01*
X175962257Y-108964011D01*
X176258816Y-109023000D01*
X176561184Y-109023000D01*
X176857743Y-108964011D01*
X177137095Y-108848299D01*
X177388505Y-108680312D01*
X177602312Y-108466505D01*
X177770299Y-108215095D01*
X177886011Y-107935743D01*
X177945000Y-107639184D01*
X177945000Y-107336816D01*
X177886011Y-107040257D01*
X177770299Y-106760905D01*
X177602312Y-106509495D01*
X177535873Y-106443056D01*
X177554180Y-106437502D01*
X177664494Y-106378537D01*
X177761185Y-106299185D01*
X177840537Y-106202494D01*
X177899502Y-106092180D01*
X177935812Y-105972482D01*
X177948072Y-105848000D01*
X177948072Y-104048000D01*
X177935812Y-103923518D01*
X177899502Y-103803820D01*
X177840537Y-103693506D01*
X177761185Y-103596815D01*
X177664494Y-103517463D01*
X177554180Y-103458498D01*
X177434482Y-103422188D01*
X177310000Y-103409928D01*
X175510000Y-103409928D01*
X175385518Y-103422188D01*
X175265820Y-103458498D01*
X175155506Y-103517463D01*
X175058815Y-103596815D01*
X174979463Y-103693506D01*
X174920498Y-103803820D01*
X174884188Y-103923518D01*
X174871928Y-104048000D01*
X174871928Y-105848000D01*
X174884188Y-105972482D01*
X174920498Y-106092180D01*
X174979463Y-106202494D01*
X175058815Y-106299185D01*
X175155506Y-106378537D01*
X175265820Y-106437502D01*
X175284127Y-106443056D01*
X175217688Y-106509495D01*
X175155210Y-106603000D01*
X173219388Y-106603000D01*
X173175919Y-106598719D01*
X173132450Y-106603000D01*
X173132442Y-106603000D01*
X173002429Y-106615805D01*
X172835606Y-106666411D01*
X172681860Y-106748589D01*
X172570476Y-106840000D01*
X172401294Y-106840000D01*
X172363405Y-106769114D01*
X172252962Y-106634538D01*
X172118386Y-106524095D01*
X171964850Y-106442028D01*
X171798254Y-106391492D01*
X171768913Y-106388602D01*
X171739411Y-106333407D01*
X171715210Y-106303918D01*
X171656532Y-106232419D01*
X171656530Y-106232417D01*
X171628817Y-106198649D01*
X171595050Y-106170937D01*
X171524685Y-106100572D01*
X171625000Y-106100572D01*
X171798254Y-106083508D01*
X171964850Y-106032972D01*
X172118386Y-105950905D01*
X172252962Y-105840462D01*
X172363405Y-105705886D01*
X172445472Y-105552350D01*
X172496008Y-105385754D01*
X172513072Y-105212500D01*
X172513072Y-104287500D01*
X172496008Y-104114246D01*
X172445472Y-103947650D01*
X172363405Y-103794114D01*
X172252962Y-103659538D01*
X172118386Y-103549095D01*
X171964850Y-103467028D01*
X171885000Y-103442806D01*
X171885000Y-102543469D01*
X171889281Y-102500000D01*
X171885000Y-102456531D01*
X171885000Y-102456523D01*
X171872195Y-102326510D01*
X171845598Y-102238832D01*
X181991000Y-102238832D01*
X181991000Y-102739168D01*
X182088611Y-103229891D01*
X182280081Y-103692141D01*
X182558053Y-104108156D01*
X182911844Y-104461947D01*
X183327859Y-104739919D01*
X183790109Y-104931389D01*
X184280832Y-105029000D01*
X184781168Y-105029000D01*
X185271891Y-104931389D01*
X185423691Y-104868512D01*
X185385731Y-104960154D01*
X185293000Y-105426340D01*
X185293000Y-105901660D01*
X185385731Y-106367846D01*
X185423691Y-106459488D01*
X185271891Y-106396611D01*
X184781168Y-106299000D01*
X184280832Y-106299000D01*
X183790109Y-106396611D01*
X183327859Y-106588081D01*
X182911844Y-106866053D01*
X182558053Y-107219844D01*
X182280081Y-107635859D01*
X182088611Y-108098109D01*
X181991000Y-108588832D01*
X181991000Y-109089168D01*
X182088611Y-109579891D01*
X182280081Y-110042141D01*
X182558053Y-110458156D01*
X182911844Y-110811947D01*
X183327859Y-111089919D01*
X183790109Y-111281389D01*
X184280832Y-111379000D01*
X184781168Y-111379000D01*
X185271891Y-111281389D01*
X185734141Y-111089919D01*
X186150156Y-110811947D01*
X186503947Y-110458156D01*
X186781919Y-110042141D01*
X186973389Y-109579891D01*
X187071000Y-109089168D01*
X187071000Y-108588832D01*
X186973389Y-108098109D01*
X186910512Y-107946309D01*
X187002154Y-107984269D01*
X187468340Y-108077000D01*
X187943660Y-108077000D01*
X188409846Y-107984269D01*
X188501488Y-107946309D01*
X188438611Y-108098109D01*
X188341000Y-108588832D01*
X188341000Y-109089168D01*
X188438611Y-109579891D01*
X188630081Y-110042141D01*
X188908053Y-110458156D01*
X189261844Y-110811947D01*
X189677859Y-111089919D01*
X190140109Y-111281389D01*
X190630832Y-111379000D01*
X191131168Y-111379000D01*
X191621891Y-111281389D01*
X192084141Y-111089919D01*
X192500156Y-110811947D01*
X192853947Y-110458156D01*
X193131919Y-110042141D01*
X193323389Y-109579891D01*
X193421000Y-109089168D01*
X193421000Y-108588832D01*
X193323389Y-108098109D01*
X193131919Y-107635859D01*
X192853947Y-107219844D01*
X192500156Y-106866053D01*
X192084141Y-106588081D01*
X191621891Y-106396611D01*
X191131168Y-106299000D01*
X190630832Y-106299000D01*
X190140109Y-106396611D01*
X189988309Y-106459488D01*
X190026269Y-106367846D01*
X190119000Y-105901660D01*
X190119000Y-105426340D01*
X190026269Y-104960154D01*
X189988309Y-104868512D01*
X190140109Y-104931389D01*
X190630832Y-105029000D01*
X191131168Y-105029000D01*
X191621891Y-104931389D01*
X192084141Y-104739919D01*
X192500156Y-104461947D01*
X192853947Y-104108156D01*
X193131919Y-103692141D01*
X193323389Y-103229891D01*
X193421000Y-102739168D01*
X193421000Y-102238832D01*
X193323389Y-101748109D01*
X193131919Y-101285859D01*
X192853947Y-100869844D01*
X192500156Y-100516053D01*
X192084141Y-100238081D01*
X191621891Y-100046611D01*
X191131168Y-99949000D01*
X190630832Y-99949000D01*
X190140109Y-100046611D01*
X189677859Y-100238081D01*
X189261844Y-100516053D01*
X188908053Y-100869844D01*
X188630081Y-101285859D01*
X188438611Y-101748109D01*
X188341000Y-102238832D01*
X188341000Y-102739168D01*
X188438611Y-103229891D01*
X188501488Y-103381691D01*
X188409846Y-103343731D01*
X187943660Y-103251000D01*
X187468340Y-103251000D01*
X187002154Y-103343731D01*
X186910512Y-103381691D01*
X186973389Y-103229891D01*
X187071000Y-102739168D01*
X187071000Y-102238832D01*
X186973389Y-101748109D01*
X186781919Y-101285859D01*
X186503947Y-100869844D01*
X186150156Y-100516053D01*
X185734141Y-100238081D01*
X185271891Y-100046611D01*
X184781168Y-99949000D01*
X184280832Y-99949000D01*
X183790109Y-100046611D01*
X183327859Y-100238081D01*
X182911844Y-100516053D01*
X182558053Y-100869844D01*
X182280081Y-101285859D01*
X182088611Y-101748109D01*
X181991000Y-102238832D01*
X171845598Y-102238832D01*
X171821589Y-102159687D01*
X171739411Y-102005941D01*
X171628817Y-101871183D01*
X171595044Y-101843466D01*
X171535000Y-101783422D01*
X171535000Y-98292287D01*
X171544180Y-98289502D01*
X171654494Y-98230537D01*
X171751185Y-98151185D01*
X171830537Y-98054494D01*
X171889502Y-97944180D01*
X171925812Y-97824482D01*
X171938072Y-97700000D01*
X171938072Y-94300000D01*
X171925812Y-94175518D01*
X171889502Y-94055820D01*
X171830537Y-93945506D01*
X171751185Y-93848815D01*
X171654494Y-93769463D01*
X171544180Y-93710498D01*
X171424482Y-93674188D01*
X171300000Y-93661928D01*
X170000000Y-93661928D01*
X169875518Y-93674188D01*
X169755820Y-93710498D01*
X169645506Y-93769463D01*
X169548815Y-93848815D01*
X169469463Y-93945506D01*
X169410498Y-94055820D01*
X169374188Y-94175518D01*
X169361928Y-94300000D01*
X169361928Y-97700000D01*
X169374188Y-97824482D01*
X169410498Y-97944180D01*
X169469463Y-98054494D01*
X169548815Y-98151185D01*
X169645506Y-98230537D01*
X169755820Y-98289502D01*
X169765000Y-98292287D01*
X169765001Y-101271288D01*
X169696063Y-101340226D01*
X169582795Y-101509744D01*
X169504774Y-101698102D01*
X169465000Y-101898061D01*
X169465000Y-102101939D01*
X169504774Y-102301898D01*
X169582795Y-102490256D01*
X169696063Y-102659774D01*
X169840226Y-102803937D01*
X170009744Y-102917205D01*
X170115001Y-102960804D01*
X170115001Y-103442806D01*
X170035150Y-103467028D01*
X169881614Y-103549095D01*
X169747038Y-103659538D01*
X169636595Y-103794114D01*
X169554528Y-103947650D01*
X169511991Y-104087878D01*
X168559990Y-103135878D01*
X168559990Y-87718456D01*
X168564271Y-87674989D01*
X168559990Y-87631523D01*
X168559990Y-87631513D01*
X168547185Y-87501500D01*
X168496579Y-87334677D01*
X168414401Y-87180931D01*
X168371632Y-87128817D01*
X168331522Y-87079943D01*
X168331520Y-87079941D01*
X168303807Y-87046173D01*
X168270040Y-87018461D01*
X168006535Y-86754956D01*
X167995226Y-86698102D01*
X167917205Y-86509744D01*
X167803937Y-86340226D01*
X167659774Y-86196063D01*
X167490256Y-86082795D01*
X167301898Y-86004774D01*
X167101939Y-85965000D01*
X166898061Y-85965000D01*
X166698102Y-86004774D01*
X166635000Y-86030912D01*
X166635000Y-85404078D01*
X172379848Y-79659231D01*
X172447650Y-79695472D01*
X172614246Y-79746008D01*
X172787500Y-79763072D01*
X173712500Y-79763072D01*
X173885754Y-79746008D01*
X174052350Y-79695472D01*
X174205886Y-79613405D01*
X174340462Y-79502962D01*
X174450905Y-79368386D01*
X174532972Y-79214850D01*
X174557194Y-79135000D01*
X176030912Y-79135000D01*
X176004774Y-79198102D01*
X175965000Y-79398061D01*
X175965000Y-79601939D01*
X176004774Y-79801898D01*
X176082795Y-79990256D01*
X176115000Y-80038454D01*
X176115001Y-89956521D01*
X176110719Y-90000000D01*
X176127805Y-90173490D01*
X176178412Y-90340313D01*
X176260590Y-90494059D01*
X176343468Y-90595046D01*
X176343471Y-90595049D01*
X176371184Y-90628817D01*
X176404951Y-90656529D01*
X177343470Y-91595049D01*
X177371183Y-91628817D01*
X177404951Y-91656530D01*
X177404953Y-91656532D01*
X177505941Y-91739411D01*
X177659686Y-91821589D01*
X177826510Y-91872195D01*
X177956523Y-91885000D01*
X177956531Y-91885000D01*
X178000000Y-91889281D01*
X178043469Y-91885000D01*
X179456531Y-91885000D01*
X179500000Y-91889281D01*
X179543469Y-91885000D01*
X179543477Y-91885000D01*
X179673490Y-91872195D01*
X179840313Y-91821589D01*
X179994059Y-91739411D01*
X180128817Y-91628817D01*
X180156534Y-91595044D01*
X181991000Y-89760578D01*
X181991000Y-90039168D01*
X182088611Y-90529891D01*
X182280081Y-90992141D01*
X182558053Y-91408156D01*
X182911844Y-91761947D01*
X183327859Y-92039919D01*
X183422209Y-92079000D01*
X181373007Y-92079000D01*
X181176939Y-92040000D01*
X180973061Y-92040000D01*
X180773102Y-92079774D01*
X180584744Y-92157795D01*
X180415226Y-92271063D01*
X180271063Y-92415226D01*
X180157795Y-92584744D01*
X180079774Y-92773102D01*
X180068465Y-92829957D01*
X180004956Y-92893466D01*
X179971183Y-92921183D01*
X179860589Y-93055942D01*
X179778411Y-93209688D01*
X179727805Y-93376511D01*
X179715000Y-93506524D01*
X179715000Y-93506531D01*
X179710719Y-93550000D01*
X179714814Y-93591582D01*
X179678411Y-93659688D01*
X179677731Y-93661928D01*
X178700000Y-93661928D01*
X178575518Y-93674188D01*
X178455820Y-93710498D01*
X178345506Y-93769463D01*
X178248815Y-93848815D01*
X178169463Y-93945506D01*
X178110498Y-94055820D01*
X178074188Y-94175518D01*
X178061928Y-94300000D01*
X178061928Y-97700000D01*
X178074188Y-97824482D01*
X178110498Y-97944180D01*
X178169463Y-98054494D01*
X178248815Y-98151185D01*
X178345506Y-98230537D01*
X178455820Y-98289502D01*
X178575518Y-98325812D01*
X178700000Y-98338072D01*
X180000000Y-98338072D01*
X180124482Y-98325812D01*
X180244180Y-98289502D01*
X180354494Y-98230537D01*
X180451185Y-98151185D01*
X180530537Y-98054494D01*
X180589502Y-97944180D01*
X180625812Y-97824482D01*
X180638072Y-97700000D01*
X180638072Y-95963507D01*
X181095049Y-95506530D01*
X181128817Y-95478817D01*
X181189436Y-95404954D01*
X181239411Y-95344059D01*
X181321589Y-95190314D01*
X181372195Y-95023490D01*
X181385000Y-94893477D01*
X181385000Y-94893469D01*
X181389281Y-94850000D01*
X181385000Y-94806531D01*
X181385000Y-94308767D01*
X181421589Y-94240313D01*
X181472195Y-94073489D01*
X181476583Y-94028935D01*
X181565256Y-93992205D01*
X181734774Y-93878937D01*
X181764711Y-93849000D01*
X183422209Y-93849000D01*
X183327859Y-93888081D01*
X182911844Y-94166053D01*
X182558053Y-94519844D01*
X182280081Y-94935859D01*
X182088611Y-95398109D01*
X181991000Y-95888832D01*
X181991000Y-96389168D01*
X182088611Y-96879891D01*
X182280081Y-97342141D01*
X182558053Y-97758156D01*
X182911844Y-98111947D01*
X183327859Y-98389919D01*
X183790109Y-98581389D01*
X184280832Y-98679000D01*
X184781168Y-98679000D01*
X185271891Y-98581389D01*
X185734141Y-98389919D01*
X186150156Y-98111947D01*
X186503947Y-97758156D01*
X186781919Y-97342141D01*
X186973389Y-96879891D01*
X187071000Y-96389168D01*
X187071000Y-95888832D01*
X186973389Y-95398109D01*
X186910512Y-95246309D01*
X187002154Y-95284269D01*
X187468340Y-95377000D01*
X187943660Y-95377000D01*
X188409846Y-95284269D01*
X188501488Y-95246309D01*
X188438611Y-95398109D01*
X188341000Y-95888832D01*
X188341000Y-96389168D01*
X188438611Y-96879891D01*
X188630081Y-97342141D01*
X188908053Y-97758156D01*
X189261844Y-98111947D01*
X189677859Y-98389919D01*
X190140109Y-98581389D01*
X190630832Y-98679000D01*
X191131168Y-98679000D01*
X191621891Y-98581389D01*
X192084141Y-98389919D01*
X192500156Y-98111947D01*
X192853947Y-97758156D01*
X193131919Y-97342141D01*
X193323389Y-96879891D01*
X193421000Y-96389168D01*
X193421000Y-95888832D01*
X193323389Y-95398109D01*
X193131919Y-94935859D01*
X192853947Y-94519844D01*
X192500156Y-94166053D01*
X192084141Y-93888081D01*
X191621891Y-93696611D01*
X191131168Y-93599000D01*
X190630832Y-93599000D01*
X190140109Y-93696611D01*
X189988309Y-93759488D01*
X190026269Y-93667846D01*
X190119000Y-93201660D01*
X190119000Y-92726340D01*
X190026269Y-92260154D01*
X189988309Y-92168512D01*
X190140109Y-92231389D01*
X190630832Y-92329000D01*
X191131168Y-92329000D01*
X191621891Y-92231389D01*
X192084141Y-92039919D01*
X192500156Y-91761947D01*
X192853947Y-91408156D01*
X193131919Y-90992141D01*
X193323389Y-90529891D01*
X193421000Y-90039168D01*
X193421000Y-89538832D01*
X193323389Y-89048109D01*
X193131919Y-88585859D01*
X192853947Y-88169844D01*
X192500156Y-87816053D01*
X192084141Y-87538081D01*
X191621891Y-87346611D01*
X191131168Y-87249000D01*
X190630832Y-87249000D01*
X190140109Y-87346611D01*
X189677859Y-87538081D01*
X189261844Y-87816053D01*
X188908053Y-88169844D01*
X188630081Y-88585859D01*
X188438611Y-89048109D01*
X188341000Y-89538832D01*
X188341000Y-90039168D01*
X188438611Y-90529891D01*
X188501488Y-90681691D01*
X188409846Y-90643731D01*
X187943660Y-90551000D01*
X187468340Y-90551000D01*
X187002154Y-90643731D01*
X186910512Y-90681691D01*
X186973389Y-90529891D01*
X187071000Y-90039168D01*
X187071000Y-89538832D01*
X186973389Y-89048109D01*
X186781919Y-88585859D01*
X186503947Y-88169844D01*
X186150156Y-87816053D01*
X185734141Y-87538081D01*
X185271891Y-87346611D01*
X184781168Y-87249000D01*
X184502579Y-87249000D01*
X185072578Y-86679001D01*
X185617932Y-86679001D01*
X185661401Y-86683282D01*
X185704870Y-86679001D01*
X185704878Y-86679001D01*
X185834891Y-86666196D01*
X186001714Y-86615590D01*
X186155460Y-86533412D01*
X186290218Y-86422818D01*
X186317935Y-86389045D01*
X188301050Y-84405931D01*
X188334817Y-84378219D01*
X188445411Y-84243461D01*
X188456415Y-84222874D01*
X188630081Y-84642141D01*
X188908053Y-85058156D01*
X189261844Y-85411947D01*
X189677859Y-85689919D01*
X190140109Y-85881389D01*
X190630832Y-85979000D01*
X191131168Y-85979000D01*
X191621891Y-85881389D01*
X192084141Y-85689919D01*
X192500156Y-85411947D01*
X192853947Y-85058156D01*
X193131919Y-84642141D01*
X193323389Y-84179891D01*
X193421000Y-83689168D01*
X193421000Y-83188832D01*
X193323389Y-82698109D01*
X193131919Y-82235859D01*
X192853947Y-81819844D01*
X192500156Y-81466053D01*
X192084141Y-81188081D01*
X191621891Y-80996611D01*
X191131168Y-80899000D01*
X190630832Y-80899000D01*
X190140109Y-80996611D01*
X189988309Y-81059488D01*
X190026269Y-80967846D01*
X190119000Y-80501660D01*
X190119000Y-80026340D01*
X190026269Y-79560154D01*
X189988309Y-79468512D01*
X190140109Y-79531389D01*
X190630832Y-79629000D01*
X191131168Y-79629000D01*
X191621891Y-79531389D01*
X192084141Y-79339919D01*
X192500156Y-79061947D01*
X192853947Y-78708156D01*
X193131919Y-78292141D01*
X193323389Y-77829891D01*
X193421000Y-77339168D01*
X193421000Y-76838832D01*
X193323389Y-76348109D01*
X193131919Y-75885859D01*
X192853947Y-75469844D01*
X192500156Y-75116053D01*
X192084141Y-74838081D01*
X191621891Y-74646611D01*
X191131168Y-74549000D01*
X190630832Y-74549000D01*
X190140109Y-74646611D01*
X189677859Y-74838081D01*
X189261844Y-75116053D01*
X188908053Y-75469844D01*
X188630081Y-75885859D01*
X188438611Y-76348109D01*
X188341000Y-76838832D01*
X188341000Y-77339168D01*
X188438611Y-77829891D01*
X188501488Y-77981691D01*
X188409846Y-77943731D01*
X187943660Y-77851000D01*
X187468340Y-77851000D01*
X187002154Y-77943731D01*
X186910512Y-77981691D01*
X186973389Y-77829891D01*
X187071000Y-77339168D01*
X187071000Y-76838832D01*
X186973389Y-76348109D01*
X186781919Y-75885859D01*
X186503947Y-75469844D01*
X186150156Y-75116053D01*
X185734141Y-74838081D01*
X185271891Y-74646611D01*
X184781168Y-74549000D01*
X184280832Y-74549000D01*
X183790109Y-74646611D01*
X183327859Y-74838081D01*
X182911844Y-75116053D01*
X182558053Y-75469844D01*
X182280081Y-75885859D01*
X182088611Y-76348109D01*
X181991000Y-76838832D01*
X181991000Y-77107421D01*
X180794539Y-75910960D01*
X180809000Y-75838260D01*
X180809000Y-75545740D01*
X180751932Y-75258842D01*
X180639990Y-74988589D01*
X180477475Y-74745368D01*
X180270632Y-74538525D01*
X180096240Y-74422000D01*
X180270632Y-74305475D01*
X180477475Y-74098632D01*
X180639990Y-73855411D01*
X180751932Y-73585158D01*
X180809000Y-73298260D01*
X180809000Y-73005740D01*
X180795321Y-72936969D01*
X180802816Y-72930818D01*
X180913410Y-72796060D01*
X180995588Y-72642314D01*
X181046194Y-72475491D01*
X181058999Y-72345478D01*
X181058999Y-72345468D01*
X181063280Y-72302002D01*
X181058999Y-72258536D01*
X181058999Y-72160579D01*
X182030721Y-71188858D01*
X182088611Y-71479891D01*
X182280081Y-71942141D01*
X182558053Y-72358156D01*
X182911844Y-72711947D01*
X183327859Y-72989919D01*
X183790109Y-73181389D01*
X184280832Y-73279000D01*
X184781168Y-73279000D01*
X185271891Y-73181389D01*
X185734141Y-72989919D01*
X186150156Y-72711947D01*
X186503947Y-72358156D01*
X186781919Y-71942141D01*
X186973389Y-71479891D01*
X187071000Y-70989168D01*
X187071000Y-70488832D01*
X186973389Y-69998109D01*
X186910512Y-69846309D01*
X187002154Y-69884269D01*
X187468340Y-69977000D01*
X187943660Y-69977000D01*
X188409846Y-69884269D01*
X188501488Y-69846309D01*
X188438611Y-69998109D01*
X188341000Y-70488832D01*
X188341000Y-70989168D01*
X188438611Y-71479891D01*
X188630081Y-71942141D01*
X188908053Y-72358156D01*
X189261844Y-72711947D01*
X189677859Y-72989919D01*
X190140109Y-73181389D01*
X190630832Y-73279000D01*
X191131168Y-73279000D01*
X191621891Y-73181389D01*
X192084141Y-72989919D01*
X192500156Y-72711947D01*
X192853947Y-72358156D01*
X193131919Y-71942141D01*
X193323389Y-71479891D01*
X193421000Y-70989168D01*
X193421000Y-70488832D01*
X193323389Y-69998109D01*
X193131919Y-69535859D01*
X192853947Y-69119844D01*
X192500156Y-68766053D01*
X192084141Y-68488081D01*
X191621891Y-68296611D01*
X191131168Y-68199000D01*
X190630832Y-68199000D01*
X190140109Y-68296611D01*
X189988309Y-68359488D01*
X190026269Y-68267846D01*
X190119000Y-67801660D01*
X190119000Y-67326340D01*
X190026269Y-66860154D01*
X189988309Y-66768512D01*
X190140109Y-66831389D01*
X190630832Y-66929000D01*
X191131168Y-66929000D01*
X191621891Y-66831389D01*
X192084141Y-66639919D01*
X192500156Y-66361947D01*
X192853947Y-66008156D01*
X193131919Y-65592141D01*
X193323389Y-65129891D01*
X193421000Y-64639168D01*
X193421000Y-64138832D01*
X193323389Y-63648109D01*
X193131919Y-63185859D01*
X192853947Y-62769844D01*
X192500156Y-62416053D01*
X192084141Y-62138081D01*
X191621891Y-61946611D01*
X191131168Y-61849000D01*
X190630832Y-61849000D01*
X190140109Y-61946611D01*
X189677859Y-62138081D01*
X189261844Y-62416053D01*
X188908053Y-62769844D01*
X188630081Y-63185859D01*
X188438611Y-63648109D01*
X188341000Y-64138832D01*
X188341000Y-64639168D01*
X188438611Y-65129891D01*
X188501488Y-65281691D01*
X188409846Y-65243731D01*
X187943660Y-65151000D01*
X187468340Y-65151000D01*
X187002154Y-65243731D01*
X186910512Y-65281691D01*
X186973389Y-65129891D01*
X187071000Y-64639168D01*
X187071000Y-64138832D01*
X186973389Y-63648109D01*
X186781919Y-63185859D01*
X186503947Y-62769844D01*
X186150156Y-62416053D01*
X185871748Y-62230027D01*
X185914059Y-62207411D01*
X186048817Y-62096817D01*
X186076534Y-62063044D01*
X188301050Y-59838529D01*
X188334817Y-59810817D01*
X188376039Y-59760589D01*
X188445410Y-59676060D01*
X188445411Y-59676059D01*
X188527589Y-59522313D01*
X188578195Y-59355490D01*
X188591000Y-59225477D01*
X188591000Y-59225467D01*
X188595281Y-59182001D01*
X188592196Y-59150679D01*
X188630081Y-59242141D01*
X188908053Y-59658156D01*
X189261844Y-60011947D01*
X189677859Y-60289919D01*
X190140109Y-60481389D01*
X190630832Y-60579000D01*
X191131168Y-60579000D01*
X191621891Y-60481389D01*
X192084141Y-60289919D01*
X192500156Y-60011947D01*
X192853947Y-59658156D01*
X193131919Y-59242141D01*
X193323389Y-58779891D01*
X193421000Y-58289168D01*
X193421000Y-57788832D01*
X193323389Y-57298109D01*
X193131919Y-56835859D01*
X192853947Y-56419844D01*
X192500156Y-56066053D01*
X192084141Y-55788081D01*
X191621891Y-55596611D01*
X191131168Y-55499000D01*
X190630832Y-55499000D01*
X190140109Y-55596611D01*
X189988309Y-55659488D01*
X190026269Y-55567846D01*
X190119000Y-55101660D01*
X190119000Y-54626340D01*
X190026269Y-54160154D01*
X189988309Y-54068512D01*
X190140109Y-54131389D01*
X190630832Y-54229000D01*
X191131168Y-54229000D01*
X191621891Y-54131389D01*
X192084141Y-53939919D01*
X192500156Y-53661947D01*
X192853947Y-53308156D01*
X193131919Y-52892141D01*
X193323389Y-52429891D01*
X193421000Y-51939168D01*
X193421000Y-51438832D01*
X193323389Y-50948109D01*
X193131919Y-50485859D01*
X192853947Y-50069844D01*
X192500156Y-49716053D01*
X192143884Y-49478000D01*
X194870001Y-49478000D01*
X194870000Y-113290000D01*
M02*
