G04 #@! TF.GenerationSoftware,KiCad,Pcbnew,5.1.6-c6e7f7d~86~ubuntu20.04.1*
G04 #@! TF.CreationDate,2020-06-08T22:40:47+01:00*
G04 #@! TF.ProjectId,spikeling,7370696b-656c-4696-9e67-2e6b69636164,rev?*
G04 #@! TF.SameCoordinates,Original*
G04 #@! TF.FileFunction,Copper,L2,Bot*
G04 #@! TF.FilePolarity,Positive*
%FSLAX46Y46*%
G04 Gerber Fmt 4.6, Leading zero omitted, Abs format (unit mm)*
G04 Created by KiCad (PCBNEW 5.1.6-c6e7f7d~86~ubuntu20.04.1) date 2020-06-08 22:40:47*
%MOMM*%
%LPD*%
G01*
G04 APERTURE LIST*
G04 #@! TA.AperFunction,ComponentPad*
%ADD10C,3.810000*%
G04 #@! TD*
G04 #@! TA.AperFunction,ComponentPad*
%ADD11C,3.556000*%
G04 #@! TD*
G04 #@! TA.AperFunction,ComponentPad*
%ADD12O,1.700000X1.700000*%
G04 #@! TD*
G04 #@! TA.AperFunction,ComponentPad*
%ADD13R,1.700000X1.700000*%
G04 #@! TD*
G04 #@! TA.AperFunction,WasherPad*
%ADD14C,4.000000*%
G04 #@! TD*
G04 #@! TA.AperFunction,ComponentPad*
%ADD15C,1.800000*%
G04 #@! TD*
G04 #@! TA.AperFunction,ComponentPad*
%ADD16R,3.500000X3.500000*%
G04 #@! TD*
G04 #@! TA.AperFunction,ViaPad*
%ADD17C,0.800000*%
G04 #@! TD*
G04 #@! TA.AperFunction,Conductor*
%ADD18C,0.500000*%
G04 #@! TD*
G04 #@! TA.AperFunction,Conductor*
%ADD19C,0.254000*%
G04 #@! TD*
G04 APERTURE END LIST*
D10*
X184531000Y-79325000D03*
D11*
X187706000Y-82500000D03*
D10*
X190881000Y-79325000D03*
X184531000Y-85675000D03*
X190881000Y-85675000D03*
D12*
X160584000Y-88392000D03*
X160584000Y-85852000D03*
X160584000Y-83312000D03*
X160584000Y-80772000D03*
X160584000Y-78232000D03*
X160584000Y-75692000D03*
X160584000Y-73152000D03*
X160584000Y-70612000D03*
X160584000Y-68072000D03*
X160584000Y-65532000D03*
X160584000Y-62992000D03*
X160584000Y-60452000D03*
X160584000Y-57912000D03*
X160584000Y-55372000D03*
D13*
X160584000Y-52832000D03*
D12*
X175824000Y-52832000D03*
X175824000Y-55372000D03*
X175824000Y-57912000D03*
X175824000Y-60452000D03*
X175824000Y-62992000D03*
X175824000Y-65532000D03*
X175824000Y-68072000D03*
X175824000Y-70612000D03*
X175824000Y-73152000D03*
X175824000Y-75692000D03*
X175824000Y-78232000D03*
X175824000Y-80772000D03*
X175824000Y-83312000D03*
X175824000Y-85852000D03*
D13*
X175824000Y-88392000D03*
D14*
X149922000Y-94960000D03*
X149922000Y-85460000D03*
D15*
X142422000Y-92710000D03*
X142422000Y-90210000D03*
X142422000Y-87710000D03*
X142676000Y-71962000D03*
X142676000Y-74462000D03*
X142676000Y-76962000D03*
D14*
X150176000Y-69712000D03*
X150176000Y-79212000D03*
X150176000Y-62956000D03*
X150176000Y-53456000D03*
D15*
X142676000Y-60706000D03*
X142676000Y-58206000D03*
X142676000Y-55706000D03*
X142676000Y-103712000D03*
X142676000Y-106212000D03*
X142676000Y-108712000D03*
D14*
X150176000Y-101462000D03*
X150176000Y-110962000D03*
D10*
X184531000Y-51689000D03*
D11*
X187706000Y-54864000D03*
D10*
X190881000Y-51689000D03*
X184531000Y-58039000D03*
X190881000Y-58039000D03*
X190881000Y-71675000D03*
X184531000Y-71675000D03*
X190881000Y-65325000D03*
D11*
X187706000Y-68500000D03*
D10*
X184531000Y-65325000D03*
X184531000Y-92825000D03*
D11*
X187706000Y-96000000D03*
D10*
X190881000Y-92825000D03*
X184531000Y-99175000D03*
X190881000Y-99175000D03*
X190881000Y-112675000D03*
X184531000Y-112675000D03*
X190881000Y-106325000D03*
D11*
X187706000Y-109500000D03*
D10*
X184531000Y-106325000D03*
D16*
X162000000Y-106500000D03*
G04 #@! TA.AperFunction,ComponentPad*
G36*
G01*
X163000000Y-114000000D02*
X161000000Y-114000000D01*
G75*
G02*
X160250000Y-113250000I0J750000D01*
G01*
X160250000Y-111750000D01*
G75*
G02*
X161000000Y-111000000I750000J0D01*
G01*
X163000000Y-111000000D01*
G75*
G02*
X163750000Y-111750000I0J-750000D01*
G01*
X163750000Y-113250000D01*
G75*
G02*
X163000000Y-114000000I-750000J0D01*
G01*
G37*
G04 #@! TD.AperFunction*
G04 #@! TA.AperFunction,ComponentPad*
G36*
G01*
X167575000Y-111250000D02*
X165825000Y-111250000D01*
G75*
G02*
X164950000Y-110375000I0J875000D01*
G01*
X164950000Y-108625000D01*
G75*
G02*
X165825000Y-107750000I875000J0D01*
G01*
X167575000Y-107750000D01*
G75*
G02*
X168450000Y-108625000I0J-875000D01*
G01*
X168450000Y-110375000D01*
G75*
G02*
X167575000Y-111250000I-875000J0D01*
G01*
G37*
G04 #@! TD.AperFunction*
D17*
X171500000Y-50500000D03*
X171000000Y-63500000D03*
X170650000Y-101137500D03*
X172500000Y-80000000D03*
X181500000Y-86500000D03*
X181075000Y-93075000D03*
X163500000Y-70000000D03*
X171000000Y-59500000D03*
X171528000Y-82528000D03*
X167528000Y-86528000D03*
X152372001Y-81869997D03*
X152372001Y-88627999D03*
X151750000Y-58750000D03*
X157250000Y-64250000D03*
X156656000Y-72000000D03*
X156500000Y-79000000D03*
X156500000Y-91000000D03*
X152626001Y-94873999D03*
D18*
X187706000Y-106014598D02*
X187706000Y-109500000D01*
X172500000Y-90808598D02*
X187706000Y-106014598D01*
X172500000Y-80000000D02*
X172500000Y-90808598D01*
X181500000Y-86500000D02*
X181500000Y-92500000D01*
X181075000Y-92925000D02*
X181075000Y-93075000D01*
X181500000Y-92500000D02*
X181075000Y-92925000D01*
X163500000Y-70000000D02*
X163000000Y-69500000D01*
X163000000Y-62868000D02*
X160584000Y-60452000D01*
X163000000Y-69500000D02*
X163000000Y-62868000D01*
X162000000Y-89808000D02*
X160584000Y-88392000D01*
X162000000Y-106500000D02*
X162000000Y-89808000D01*
X171696000Y-59500000D02*
X171000000Y-59500000D01*
X175824000Y-55372000D02*
X171696000Y-59500000D01*
X171528000Y-82528000D02*
X167528000Y-86528000D01*
X160584000Y-78232000D02*
X157732000Y-78232000D01*
X152372001Y-81869997D02*
X152372001Y-81869997D01*
X156091999Y-78149999D02*
X152372001Y-81869997D01*
X157649999Y-78149999D02*
X156091999Y-78149999D01*
X157732000Y-78232000D02*
X157649999Y-78149999D01*
X150790000Y-90210000D02*
X142422000Y-90210000D01*
X152372001Y-88627999D02*
X150790000Y-90210000D01*
X152372001Y-88627999D02*
X152372001Y-88627999D01*
X152149999Y-59149999D02*
X157250000Y-64250000D01*
X151750000Y-58750000D02*
X152149999Y-59149999D01*
X143986000Y-73152000D02*
X142676000Y-74462000D01*
X160584000Y-73152000D02*
X143986000Y-73152000D01*
X160584000Y-68072000D02*
X156656000Y-72000000D01*
X156500000Y-91000000D02*
X152626001Y-94873999D01*
D19*
G36*
X189485405Y-49552063D02*
G01*
X189280699Y-49909093D01*
X190881000Y-51509395D01*
X192481301Y-49909093D01*
X192276595Y-49552063D01*
X192134459Y-49478000D01*
X194869161Y-49478000D01*
X194790839Y-115790000D01*
X141127000Y-115790000D01*
X141127000Y-114333127D01*
X141159128Y-114273020D01*
X141199727Y-114139184D01*
X141210000Y-114034877D01*
X141210000Y-114000000D01*
X159611928Y-114000000D01*
X159624188Y-114124482D01*
X159660498Y-114244180D01*
X159719463Y-114354494D01*
X159798815Y-114451185D01*
X159895506Y-114530537D01*
X160005820Y-114589502D01*
X160125518Y-114625812D01*
X160250000Y-114638072D01*
X161714250Y-114635000D01*
X161873000Y-114476250D01*
X161873000Y-112627000D01*
X162127000Y-112627000D01*
X162127000Y-114476250D01*
X162285750Y-114635000D01*
X163750000Y-114638072D01*
X163874482Y-114625812D01*
X163994180Y-114589502D01*
X164104494Y-114530537D01*
X164196649Y-114454907D01*
X182930699Y-114454907D01*
X183135405Y-114811937D01*
X183579117Y-115043143D01*
X184059409Y-115183343D01*
X184557823Y-115227149D01*
X185055208Y-115172877D01*
X185532447Y-115022613D01*
X185926595Y-114811937D01*
X186131301Y-114454907D01*
X189280699Y-114454907D01*
X189485405Y-114811937D01*
X189929117Y-115043143D01*
X190409409Y-115183343D01*
X190907823Y-115227149D01*
X191405208Y-115172877D01*
X191882447Y-115022613D01*
X192276595Y-114811937D01*
X192481301Y-114454907D01*
X190881000Y-112854605D01*
X189280699Y-114454907D01*
X186131301Y-114454907D01*
X184531000Y-112854605D01*
X182930699Y-114454907D01*
X164196649Y-114454907D01*
X164201185Y-114451185D01*
X164280537Y-114354494D01*
X164339502Y-114244180D01*
X164375812Y-114124482D01*
X164388072Y-114000000D01*
X164385000Y-112785750D01*
X164301073Y-112701823D01*
X181978851Y-112701823D01*
X182033123Y-113199208D01*
X182183387Y-113676447D01*
X182394063Y-114070595D01*
X182751093Y-114275301D01*
X184351395Y-112675000D01*
X182751093Y-111074699D01*
X182394063Y-111279405D01*
X182162857Y-111723117D01*
X182022657Y-112203409D01*
X181978851Y-112701823D01*
X164301073Y-112701823D01*
X164226250Y-112627000D01*
X162127000Y-112627000D01*
X161873000Y-112627000D01*
X159773750Y-112627000D01*
X159615000Y-112785750D01*
X159611928Y-114000000D01*
X141210000Y-114000000D01*
X141210000Y-110702475D01*
X147541000Y-110702475D01*
X147541000Y-111221525D01*
X147642261Y-111730601D01*
X147840893Y-112210141D01*
X148129262Y-112641715D01*
X148496285Y-113008738D01*
X148927859Y-113297107D01*
X149407399Y-113495739D01*
X149916475Y-113597000D01*
X150435525Y-113597000D01*
X150944601Y-113495739D01*
X151424141Y-113297107D01*
X151855715Y-113008738D01*
X152222738Y-112641715D01*
X152511107Y-112210141D01*
X152709739Y-111730601D01*
X152811000Y-111221525D01*
X152811000Y-111000000D01*
X159611928Y-111000000D01*
X159615000Y-112214250D01*
X159773750Y-112373000D01*
X161873000Y-112373000D01*
X161873000Y-110523750D01*
X162127000Y-110523750D01*
X162127000Y-112373000D01*
X164226250Y-112373000D01*
X164385000Y-112214250D01*
X164388072Y-111000000D01*
X164375812Y-110875518D01*
X164339502Y-110755820D01*
X164280537Y-110645506D01*
X164201185Y-110548815D01*
X164104494Y-110469463D01*
X163994180Y-110410498D01*
X163874482Y-110374188D01*
X163750000Y-110361928D01*
X162285750Y-110365000D01*
X162127000Y-110523750D01*
X161873000Y-110523750D01*
X161714250Y-110365000D01*
X160250000Y-110361928D01*
X160125518Y-110374188D01*
X160005820Y-110410498D01*
X159895506Y-110469463D01*
X159798815Y-110548815D01*
X159719463Y-110645506D01*
X159660498Y-110755820D01*
X159624188Y-110875518D01*
X159611928Y-111000000D01*
X152811000Y-111000000D01*
X152811000Y-110702475D01*
X152709739Y-110193399D01*
X152511107Y-109713859D01*
X152222738Y-109282285D01*
X151855715Y-108915262D01*
X151424141Y-108626893D01*
X150944601Y-108428261D01*
X150435525Y-108327000D01*
X149916475Y-108327000D01*
X149407399Y-108428261D01*
X148927859Y-108626893D01*
X148496285Y-108915262D01*
X148129262Y-109282285D01*
X147840893Y-109713859D01*
X147642261Y-110193399D01*
X147541000Y-110702475D01*
X141210000Y-110702475D01*
X141210000Y-109183912D01*
X141315701Y-109439095D01*
X141483688Y-109690505D01*
X141697495Y-109904312D01*
X141948905Y-110072299D01*
X142228257Y-110188011D01*
X142524816Y-110247000D01*
X142827184Y-110247000D01*
X143123743Y-110188011D01*
X143403095Y-110072299D01*
X143654505Y-109904312D01*
X143868312Y-109690505D01*
X144036299Y-109439095D01*
X144152011Y-109159743D01*
X144211000Y-108863184D01*
X144211000Y-108560816D01*
X144152011Y-108264257D01*
X144036299Y-107984905D01*
X143868312Y-107733495D01*
X143654505Y-107519688D01*
X143568169Y-107462000D01*
X143654505Y-107404312D01*
X143868312Y-107190505D01*
X144036299Y-106939095D01*
X144152011Y-106659743D01*
X144211000Y-106363184D01*
X144211000Y-106060816D01*
X144152011Y-105764257D01*
X144036299Y-105484905D01*
X143868312Y-105233495D01*
X143654505Y-105019688D01*
X143511690Y-104924262D01*
X143560475Y-104776080D01*
X142676000Y-103891605D01*
X141791525Y-104776080D01*
X141840310Y-104924262D01*
X141697495Y-105019688D01*
X141483688Y-105233495D01*
X141315701Y-105484905D01*
X141210000Y-105740088D01*
X141210000Y-104170172D01*
X141277778Y-104363199D01*
X141357739Y-104512792D01*
X141611920Y-104596475D01*
X142496395Y-103712000D01*
X142855605Y-103712000D01*
X143740080Y-104596475D01*
X143994261Y-104512792D01*
X144125158Y-104240225D01*
X144200365Y-103947358D01*
X144216991Y-103645447D01*
X144174397Y-103346093D01*
X144074222Y-103060801D01*
X143994261Y-102911208D01*
X143740080Y-102827525D01*
X142855605Y-103712000D01*
X142496395Y-103712000D01*
X141611920Y-102827525D01*
X141357739Y-102911208D01*
X141226842Y-103183775D01*
X141210000Y-103249360D01*
X141210000Y-102647920D01*
X141791525Y-102647920D01*
X142676000Y-103532395D01*
X143560475Y-102647920D01*
X143476792Y-102393739D01*
X143204225Y-102262842D01*
X142911358Y-102187635D01*
X142609447Y-102171009D01*
X142310093Y-102213603D01*
X142024801Y-102313778D01*
X141875208Y-102393739D01*
X141791525Y-102647920D01*
X141210000Y-102647920D01*
X141210000Y-101202475D01*
X147541000Y-101202475D01*
X147541000Y-101721525D01*
X147642261Y-102230601D01*
X147840893Y-102710141D01*
X148129262Y-103141715D01*
X148496285Y-103508738D01*
X148927859Y-103797107D01*
X149407399Y-103995739D01*
X149916475Y-104097000D01*
X150435525Y-104097000D01*
X150944601Y-103995739D01*
X151424141Y-103797107D01*
X151855715Y-103508738D01*
X152222738Y-103141715D01*
X152511107Y-102710141D01*
X152709739Y-102230601D01*
X152811000Y-101721525D01*
X152811000Y-101202475D01*
X152709739Y-100693399D01*
X152511107Y-100213859D01*
X152222738Y-99782285D01*
X151855715Y-99415262D01*
X151424141Y-99126893D01*
X150944601Y-98928261D01*
X150435525Y-98827000D01*
X149916475Y-98827000D01*
X149407399Y-98928261D01*
X148927859Y-99126893D01*
X148496285Y-99415262D01*
X148129262Y-99782285D01*
X147840893Y-100213859D01*
X147642261Y-100693399D01*
X147541000Y-101202475D01*
X141210000Y-101202475D01*
X141210000Y-94700475D01*
X147287000Y-94700475D01*
X147287000Y-95219525D01*
X147388261Y-95728601D01*
X147586893Y-96208141D01*
X147875262Y-96639715D01*
X148242285Y-97006738D01*
X148673859Y-97295107D01*
X149153399Y-97493739D01*
X149662475Y-97595000D01*
X150181525Y-97595000D01*
X150690601Y-97493739D01*
X151170141Y-97295107D01*
X151601715Y-97006738D01*
X151968738Y-96639715D01*
X152257107Y-96208141D01*
X152391904Y-95882711D01*
X152524062Y-95908999D01*
X152727940Y-95908999D01*
X152927899Y-95869225D01*
X153116257Y-95791204D01*
X153285775Y-95677936D01*
X153429938Y-95533773D01*
X153543206Y-95364255D01*
X153621227Y-95175897D01*
X153632536Y-95119042D01*
X156745044Y-92006535D01*
X156801898Y-91995226D01*
X156990256Y-91917205D01*
X157159774Y-91803937D01*
X157303937Y-91659774D01*
X157417205Y-91490256D01*
X157495226Y-91301898D01*
X157535000Y-91101939D01*
X157535000Y-90898061D01*
X157495226Y-90698102D01*
X157417205Y-90509744D01*
X157303937Y-90340226D01*
X157159774Y-90196063D01*
X156990256Y-90082795D01*
X156801898Y-90004774D01*
X156601939Y-89965000D01*
X156398061Y-89965000D01*
X156198102Y-90004774D01*
X156009744Y-90082795D01*
X155840226Y-90196063D01*
X155696063Y-90340226D01*
X155582795Y-90509744D01*
X155504774Y-90698102D01*
X155493465Y-90754956D01*
X152380958Y-93867464D01*
X152326082Y-93878379D01*
X152257107Y-93711859D01*
X151968738Y-93280285D01*
X151601715Y-92913262D01*
X151170141Y-92624893D01*
X150690601Y-92426261D01*
X150181525Y-92325000D01*
X149662475Y-92325000D01*
X149153399Y-92426261D01*
X148673859Y-92624893D01*
X148242285Y-92913262D01*
X147875262Y-93280285D01*
X147586893Y-93711859D01*
X147388261Y-94191399D01*
X147287000Y-94700475D01*
X141210000Y-94700475D01*
X141210000Y-93659040D01*
X141229688Y-93688505D01*
X141443495Y-93902312D01*
X141694905Y-94070299D01*
X141974257Y-94186011D01*
X142270816Y-94245000D01*
X142573184Y-94245000D01*
X142869743Y-94186011D01*
X143149095Y-94070299D01*
X143400505Y-93902312D01*
X143614312Y-93688505D01*
X143782299Y-93437095D01*
X143898011Y-93157743D01*
X143957000Y-92861184D01*
X143957000Y-92558816D01*
X143898011Y-92262257D01*
X143782299Y-91982905D01*
X143614312Y-91731495D01*
X143400505Y-91517688D01*
X143314169Y-91460000D01*
X143400505Y-91402312D01*
X143614312Y-91188505D01*
X143676790Y-91095000D01*
X150746531Y-91095000D01*
X150790000Y-91099281D01*
X150833469Y-91095000D01*
X150833477Y-91095000D01*
X150963490Y-91082195D01*
X151130313Y-91031589D01*
X151284059Y-90949411D01*
X151418817Y-90838817D01*
X151446534Y-90805044D01*
X152617045Y-89634534D01*
X152673899Y-89623225D01*
X152862257Y-89545204D01*
X153031775Y-89431936D01*
X153175938Y-89287773D01*
X153289206Y-89118255D01*
X153367227Y-88929897D01*
X153407001Y-88729938D01*
X153407001Y-88526060D01*
X153367227Y-88326101D01*
X153333941Y-88245740D01*
X159099000Y-88245740D01*
X159099000Y-88538260D01*
X159156068Y-88825158D01*
X159268010Y-89095411D01*
X159430525Y-89338632D01*
X159637368Y-89545475D01*
X159880589Y-89707990D01*
X160150842Y-89819932D01*
X160437740Y-89877000D01*
X160730260Y-89877000D01*
X160802960Y-89862539D01*
X161115001Y-90174580D01*
X161115000Y-104111928D01*
X160250000Y-104111928D01*
X160125518Y-104124188D01*
X160005820Y-104160498D01*
X159895506Y-104219463D01*
X159798815Y-104298815D01*
X159719463Y-104395506D01*
X159660498Y-104505820D01*
X159624188Y-104625518D01*
X159611928Y-104750000D01*
X159611928Y-108250000D01*
X159624188Y-108374482D01*
X159660498Y-108494180D01*
X159719463Y-108604494D01*
X159798815Y-108701185D01*
X159895506Y-108780537D01*
X160005820Y-108839502D01*
X160125518Y-108875812D01*
X160250000Y-108888072D01*
X163750000Y-108888072D01*
X163874482Y-108875812D01*
X163994180Y-108839502D01*
X164104494Y-108780537D01*
X164201185Y-108701185D01*
X164280537Y-108604494D01*
X164321494Y-108527869D01*
X164311928Y-108625000D01*
X164311928Y-110375000D01*
X164341001Y-110670186D01*
X164427104Y-110954028D01*
X164566927Y-111215618D01*
X164755097Y-111444903D01*
X164984382Y-111633073D01*
X165245972Y-111772896D01*
X165529814Y-111858999D01*
X165825000Y-111888072D01*
X167575000Y-111888072D01*
X167870186Y-111858999D01*
X168154028Y-111772896D01*
X168415618Y-111633073D01*
X168644903Y-111444903D01*
X168833073Y-111215618D01*
X168972896Y-110954028D01*
X169058999Y-110670186D01*
X169088072Y-110375000D01*
X169088072Y-108625000D01*
X169058999Y-108329814D01*
X168972896Y-108045972D01*
X168833073Y-107784382D01*
X168644903Y-107555097D01*
X168415618Y-107366927D01*
X168154028Y-107227104D01*
X167870186Y-107141001D01*
X167575000Y-107111928D01*
X165825000Y-107111928D01*
X165529814Y-107141001D01*
X165245972Y-107227104D01*
X164984382Y-107366927D01*
X164755097Y-107555097D01*
X164566927Y-107784382D01*
X164427104Y-108045972D01*
X164388072Y-108174643D01*
X164388072Y-106351823D01*
X181978851Y-106351823D01*
X182033123Y-106849208D01*
X182183387Y-107326447D01*
X182394063Y-107720595D01*
X182751093Y-107925301D01*
X184351395Y-106325000D01*
X182751093Y-104724699D01*
X182394063Y-104929405D01*
X182162857Y-105373117D01*
X182022657Y-105853409D01*
X181978851Y-106351823D01*
X164388072Y-106351823D01*
X164388072Y-104750000D01*
X164375812Y-104625518D01*
X164339502Y-104505820D01*
X164280537Y-104395506D01*
X164201185Y-104298815D01*
X164104494Y-104219463D01*
X163994180Y-104160498D01*
X163874482Y-104124188D01*
X163750000Y-104111928D01*
X162885000Y-104111928D01*
X162885000Y-89851465D01*
X162889281Y-89807999D01*
X162885000Y-89764533D01*
X162885000Y-89764523D01*
X162872195Y-89634510D01*
X162821589Y-89467687D01*
X162739411Y-89313941D01*
X162628817Y-89179183D01*
X162595049Y-89151470D01*
X162054539Y-88610960D01*
X162069000Y-88538260D01*
X162069000Y-88245740D01*
X162011932Y-87958842D01*
X161899990Y-87688589D01*
X161737475Y-87445368D01*
X161530632Y-87238525D01*
X161348466Y-87116805D01*
X161465355Y-87047178D01*
X161681588Y-86852269D01*
X161855641Y-86618920D01*
X161947501Y-86426061D01*
X166493000Y-86426061D01*
X166493000Y-86629939D01*
X166532774Y-86829898D01*
X166610795Y-87018256D01*
X166724063Y-87187774D01*
X166868226Y-87331937D01*
X167037744Y-87445205D01*
X167226102Y-87523226D01*
X167426061Y-87563000D01*
X167629939Y-87563000D01*
X167829898Y-87523226D01*
X168018256Y-87445205D01*
X168187774Y-87331937D01*
X168331937Y-87187774D01*
X168445205Y-87018256D01*
X168523226Y-86829898D01*
X168534535Y-86773043D01*
X171615000Y-83692579D01*
X171615001Y-90765119D01*
X171610719Y-90808598D01*
X171627805Y-90982088D01*
X171678412Y-91148911D01*
X171760590Y-91302657D01*
X171843468Y-91403644D01*
X171843471Y-91403647D01*
X171871184Y-91437415D01*
X171904952Y-91465128D01*
X184241352Y-103801529D01*
X184006792Y-103827123D01*
X183529553Y-103977387D01*
X183135405Y-104188063D01*
X182930699Y-104545093D01*
X184531000Y-106145395D01*
X184545143Y-106131253D01*
X184724748Y-106310858D01*
X184710605Y-106325000D01*
X184724748Y-106339143D01*
X184545143Y-106518748D01*
X184531000Y-106504605D01*
X182930699Y-108104907D01*
X183135405Y-108461937D01*
X183579117Y-108693143D01*
X184059409Y-108833343D01*
X184557823Y-108877149D01*
X185055208Y-108822877D01*
X185422574Y-108707208D01*
X185385731Y-108796154D01*
X185293000Y-109262340D01*
X185293000Y-109737660D01*
X185385731Y-110203846D01*
X185420906Y-110288766D01*
X185002591Y-110166657D01*
X184504177Y-110122851D01*
X184006792Y-110177123D01*
X183529553Y-110327387D01*
X183135405Y-110538063D01*
X182930699Y-110895093D01*
X184531000Y-112495395D01*
X184545143Y-112481253D01*
X184724748Y-112660858D01*
X184710605Y-112675000D01*
X186310907Y-114275301D01*
X186667937Y-114070595D01*
X186899143Y-113626883D01*
X187039343Y-113146591D01*
X187083149Y-112648177D01*
X187028877Y-112150792D01*
X186913208Y-111783426D01*
X187002154Y-111820269D01*
X187468340Y-111913000D01*
X187943660Y-111913000D01*
X188409846Y-111820269D01*
X188494766Y-111785094D01*
X188372657Y-112203409D01*
X188328851Y-112701823D01*
X188383123Y-113199208D01*
X188533387Y-113676447D01*
X188744063Y-114070595D01*
X189101093Y-114275301D01*
X190701395Y-112675000D01*
X191060605Y-112675000D01*
X192660907Y-114275301D01*
X193017937Y-114070595D01*
X193249143Y-113626883D01*
X193389343Y-113146591D01*
X193433149Y-112648177D01*
X193378877Y-112150792D01*
X193228613Y-111673553D01*
X193017937Y-111279405D01*
X192660907Y-111074699D01*
X191060605Y-112675000D01*
X190701395Y-112675000D01*
X190687253Y-112660858D01*
X190866858Y-112481253D01*
X190881000Y-112495395D01*
X192481301Y-110895093D01*
X192276595Y-110538063D01*
X191832883Y-110306857D01*
X191352591Y-110166657D01*
X190854177Y-110122851D01*
X190356792Y-110177123D01*
X189989426Y-110292792D01*
X190026269Y-110203846D01*
X190119000Y-109737660D01*
X190119000Y-109262340D01*
X190026269Y-108796154D01*
X189991094Y-108711234D01*
X190409409Y-108833343D01*
X190907823Y-108877149D01*
X191405208Y-108822877D01*
X191882447Y-108672613D01*
X192276595Y-108461937D01*
X192481301Y-108104907D01*
X190881000Y-106504605D01*
X190866858Y-106518748D01*
X190687253Y-106339143D01*
X190701395Y-106325000D01*
X191060605Y-106325000D01*
X192660907Y-107925301D01*
X193017937Y-107720595D01*
X193249143Y-107276883D01*
X193389343Y-106796591D01*
X193433149Y-106298177D01*
X193378877Y-105800792D01*
X193228613Y-105323553D01*
X193017937Y-104929405D01*
X192660907Y-104724699D01*
X191060605Y-106325000D01*
X190701395Y-106325000D01*
X189101093Y-104724699D01*
X188744063Y-104929405D01*
X188512857Y-105373117D01*
X188461201Y-105550080D01*
X188445411Y-105520539D01*
X188334817Y-105385781D01*
X188301051Y-105358070D01*
X187488074Y-104545093D01*
X189280699Y-104545093D01*
X190881000Y-106145395D01*
X192481301Y-104545093D01*
X192276595Y-104188063D01*
X191832883Y-103956857D01*
X191352591Y-103816657D01*
X190854177Y-103772851D01*
X190356792Y-103827123D01*
X189879553Y-103977387D01*
X189485405Y-104188063D01*
X189280699Y-104545093D01*
X187488074Y-104545093D01*
X184659081Y-101716100D01*
X185055208Y-101672877D01*
X185532447Y-101522613D01*
X185926595Y-101311937D01*
X186131301Y-100954907D01*
X189280699Y-100954907D01*
X189485405Y-101311937D01*
X189929117Y-101543143D01*
X190409409Y-101683343D01*
X190907823Y-101727149D01*
X191405208Y-101672877D01*
X191882447Y-101522613D01*
X192276595Y-101311937D01*
X192481301Y-100954907D01*
X190881000Y-99354605D01*
X189280699Y-100954907D01*
X186131301Y-100954907D01*
X184531000Y-99354605D01*
X184516858Y-99368748D01*
X184337252Y-99189142D01*
X184351395Y-99175000D01*
X182751093Y-97574699D01*
X182394063Y-97779405D01*
X182162857Y-98223117D01*
X182022657Y-98703409D01*
X181992258Y-99049278D01*
X177547887Y-94604907D01*
X182930699Y-94604907D01*
X183135405Y-94961937D01*
X183579117Y-95193143D01*
X184059409Y-95333343D01*
X184557823Y-95377149D01*
X185055208Y-95322877D01*
X185422574Y-95207208D01*
X185385731Y-95296154D01*
X185293000Y-95762340D01*
X185293000Y-96237660D01*
X185385731Y-96703846D01*
X185420906Y-96788766D01*
X185002591Y-96666657D01*
X184504177Y-96622851D01*
X184006792Y-96677123D01*
X183529553Y-96827387D01*
X183135405Y-97038063D01*
X182930699Y-97395093D01*
X184531000Y-98995395D01*
X184545143Y-98981253D01*
X184724748Y-99160858D01*
X184710605Y-99175000D01*
X186310907Y-100775301D01*
X186667937Y-100570595D01*
X186899143Y-100126883D01*
X187039343Y-99646591D01*
X187083149Y-99148177D01*
X187028877Y-98650792D01*
X186913208Y-98283426D01*
X187002154Y-98320269D01*
X187468340Y-98413000D01*
X187943660Y-98413000D01*
X188409846Y-98320269D01*
X188494766Y-98285094D01*
X188372657Y-98703409D01*
X188328851Y-99201823D01*
X188383123Y-99699208D01*
X188533387Y-100176447D01*
X188744063Y-100570595D01*
X189101093Y-100775301D01*
X190701395Y-99175000D01*
X191060605Y-99175000D01*
X192660907Y-100775301D01*
X193017937Y-100570595D01*
X193249143Y-100126883D01*
X193389343Y-99646591D01*
X193433149Y-99148177D01*
X193378877Y-98650792D01*
X193228613Y-98173553D01*
X193017937Y-97779405D01*
X192660907Y-97574699D01*
X191060605Y-99175000D01*
X190701395Y-99175000D01*
X190687253Y-99160858D01*
X190866858Y-98981253D01*
X190881000Y-98995395D01*
X192481301Y-97395093D01*
X192276595Y-97038063D01*
X191832883Y-96806857D01*
X191352591Y-96666657D01*
X190854177Y-96622851D01*
X190356792Y-96677123D01*
X189989426Y-96792792D01*
X190026269Y-96703846D01*
X190119000Y-96237660D01*
X190119000Y-95762340D01*
X190026269Y-95296154D01*
X189991094Y-95211234D01*
X190409409Y-95333343D01*
X190907823Y-95377149D01*
X191405208Y-95322877D01*
X191882447Y-95172613D01*
X192276595Y-94961937D01*
X192481301Y-94604907D01*
X190881000Y-93004605D01*
X190866858Y-93018748D01*
X190687253Y-92839143D01*
X190701395Y-92825000D01*
X191060605Y-92825000D01*
X192660907Y-94425301D01*
X193017937Y-94220595D01*
X193249143Y-93776883D01*
X193389343Y-93296591D01*
X193433149Y-92798177D01*
X193378877Y-92300792D01*
X193228613Y-91823553D01*
X193017937Y-91429405D01*
X192660907Y-91224699D01*
X191060605Y-92825000D01*
X190701395Y-92825000D01*
X189101093Y-91224699D01*
X188744063Y-91429405D01*
X188512857Y-91873117D01*
X188372657Y-92353409D01*
X188328851Y-92851823D01*
X188383123Y-93349208D01*
X188498792Y-93716574D01*
X188409846Y-93679731D01*
X187943660Y-93587000D01*
X187468340Y-93587000D01*
X187002154Y-93679731D01*
X186917234Y-93714906D01*
X187039343Y-93296591D01*
X187083149Y-92798177D01*
X187028877Y-92300792D01*
X186878613Y-91823553D01*
X186667937Y-91429405D01*
X186310907Y-91224699D01*
X184710605Y-92825000D01*
X184724748Y-92839143D01*
X184545143Y-93018748D01*
X184531000Y-93004605D01*
X182930699Y-94604907D01*
X177547887Y-94604907D01*
X175916041Y-92973061D01*
X180040000Y-92973061D01*
X180040000Y-93176939D01*
X180079774Y-93376898D01*
X180157795Y-93565256D01*
X180271063Y-93734774D01*
X180415226Y-93878937D01*
X180584744Y-93992205D01*
X180773102Y-94070226D01*
X180973061Y-94110000D01*
X181176939Y-94110000D01*
X181376898Y-94070226D01*
X181565256Y-93992205D01*
X181734774Y-93878937D01*
X181878937Y-93734774D01*
X181992205Y-93565256D01*
X182054100Y-93415830D01*
X182183387Y-93826447D01*
X182394063Y-94220595D01*
X182751093Y-94425301D01*
X184351395Y-92825000D01*
X182751093Y-91224699D01*
X182394063Y-91429405D01*
X182385000Y-91446798D01*
X182385000Y-91045093D01*
X182930699Y-91045093D01*
X184531000Y-92645395D01*
X186131301Y-91045093D01*
X189280699Y-91045093D01*
X190881000Y-92645395D01*
X192481301Y-91045093D01*
X192276595Y-90688063D01*
X191832883Y-90456857D01*
X191352591Y-90316657D01*
X190854177Y-90272851D01*
X190356792Y-90327123D01*
X189879553Y-90477387D01*
X189485405Y-90688063D01*
X189280699Y-91045093D01*
X186131301Y-91045093D01*
X185926595Y-90688063D01*
X185482883Y-90456857D01*
X185002591Y-90316657D01*
X184504177Y-90272851D01*
X184006792Y-90327123D01*
X183529553Y-90477387D01*
X183135405Y-90688063D01*
X182930699Y-91045093D01*
X182385000Y-91045093D01*
X182385000Y-87454907D01*
X182930699Y-87454907D01*
X183135405Y-87811937D01*
X183579117Y-88043143D01*
X184059409Y-88183343D01*
X184557823Y-88227149D01*
X185055208Y-88172877D01*
X185532447Y-88022613D01*
X185926595Y-87811937D01*
X186131301Y-87454907D01*
X189280699Y-87454907D01*
X189485405Y-87811937D01*
X189929117Y-88043143D01*
X190409409Y-88183343D01*
X190907823Y-88227149D01*
X191405208Y-88172877D01*
X191882447Y-88022613D01*
X192276595Y-87811937D01*
X192481301Y-87454907D01*
X190881000Y-85854605D01*
X189280699Y-87454907D01*
X186131301Y-87454907D01*
X184531000Y-85854605D01*
X182930699Y-87454907D01*
X182385000Y-87454907D01*
X182385000Y-87053639D01*
X182394063Y-87070595D01*
X182751093Y-87275301D01*
X184351395Y-85675000D01*
X182751093Y-84074699D01*
X182394063Y-84279405D01*
X182162857Y-84723117D01*
X182022657Y-85203409D01*
X181989346Y-85582418D01*
X181801898Y-85504774D01*
X181601939Y-85465000D01*
X181398061Y-85465000D01*
X181198102Y-85504774D01*
X181009744Y-85582795D01*
X180840226Y-85696063D01*
X180696063Y-85840226D01*
X180582795Y-86009744D01*
X180504774Y-86198102D01*
X180465000Y-86398061D01*
X180465000Y-86601939D01*
X180504774Y-86801898D01*
X180582795Y-86990256D01*
X180615000Y-87038454D01*
X180615001Y-92133421D01*
X180594787Y-92153635D01*
X180584744Y-92157795D01*
X180415226Y-92271063D01*
X180271063Y-92415226D01*
X180157795Y-92584744D01*
X180079774Y-92773102D01*
X180040000Y-92973061D01*
X175916041Y-92973061D01*
X173385000Y-90442020D01*
X173385000Y-89242000D01*
X174335928Y-89242000D01*
X174348188Y-89366482D01*
X174384498Y-89486180D01*
X174443463Y-89596494D01*
X174522815Y-89693185D01*
X174619506Y-89772537D01*
X174729820Y-89831502D01*
X174849518Y-89867812D01*
X174974000Y-89880072D01*
X175538250Y-89877000D01*
X175697000Y-89718250D01*
X175697000Y-88519000D01*
X175951000Y-88519000D01*
X175951000Y-89718250D01*
X176109750Y-89877000D01*
X176674000Y-89880072D01*
X176798482Y-89867812D01*
X176918180Y-89831502D01*
X177028494Y-89772537D01*
X177125185Y-89693185D01*
X177204537Y-89596494D01*
X177263502Y-89486180D01*
X177299812Y-89366482D01*
X177312072Y-89242000D01*
X177309000Y-88677750D01*
X177150250Y-88519000D01*
X175951000Y-88519000D01*
X175697000Y-88519000D01*
X174497750Y-88519000D01*
X174339000Y-88677750D01*
X174335928Y-89242000D01*
X173385000Y-89242000D01*
X173385000Y-87542000D01*
X174335928Y-87542000D01*
X174339000Y-88106250D01*
X174497750Y-88265000D01*
X175697000Y-88265000D01*
X175697000Y-88245000D01*
X175951000Y-88245000D01*
X175951000Y-88265000D01*
X177150250Y-88265000D01*
X177309000Y-88106250D01*
X177312072Y-87542000D01*
X177299812Y-87417518D01*
X177263502Y-87297820D01*
X177204537Y-87187506D01*
X177125185Y-87090815D01*
X177028494Y-87011463D01*
X176918180Y-86952498D01*
X176845620Y-86930487D01*
X176977475Y-86798632D01*
X177139990Y-86555411D01*
X177251932Y-86285158D01*
X177309000Y-85998260D01*
X177309000Y-85705740D01*
X177251932Y-85418842D01*
X177139990Y-85148589D01*
X176977475Y-84905368D01*
X176770632Y-84698525D01*
X176596240Y-84582000D01*
X176770632Y-84465475D01*
X176977475Y-84258632D01*
X177139990Y-84015411D01*
X177251932Y-83745158D01*
X177309000Y-83458260D01*
X177309000Y-83165740D01*
X177251932Y-82878842D01*
X177139990Y-82608589D01*
X176977475Y-82365368D01*
X176770632Y-82158525D01*
X176588466Y-82036805D01*
X176705355Y-81967178D01*
X176921588Y-81772269D01*
X177095641Y-81538920D01*
X177220825Y-81276099D01*
X177265476Y-81128890D01*
X177252820Y-81104907D01*
X182930699Y-81104907D01*
X183135405Y-81461937D01*
X183579117Y-81693143D01*
X184059409Y-81833343D01*
X184557823Y-81877149D01*
X185055208Y-81822877D01*
X185422574Y-81707208D01*
X185385731Y-81796154D01*
X185293000Y-82262340D01*
X185293000Y-82737660D01*
X185385731Y-83203846D01*
X185420906Y-83288766D01*
X185002591Y-83166657D01*
X184504177Y-83122851D01*
X184006792Y-83177123D01*
X183529553Y-83327387D01*
X183135405Y-83538063D01*
X182930699Y-83895093D01*
X184531000Y-85495395D01*
X184545143Y-85481253D01*
X184724748Y-85660858D01*
X184710605Y-85675000D01*
X186310907Y-87275301D01*
X186667937Y-87070595D01*
X186899143Y-86626883D01*
X187039343Y-86146591D01*
X187083149Y-85648177D01*
X187028877Y-85150792D01*
X186913208Y-84783426D01*
X187002154Y-84820269D01*
X187468340Y-84913000D01*
X187943660Y-84913000D01*
X188409846Y-84820269D01*
X188494766Y-84785094D01*
X188372657Y-85203409D01*
X188328851Y-85701823D01*
X188383123Y-86199208D01*
X188533387Y-86676447D01*
X188744063Y-87070595D01*
X189101093Y-87275301D01*
X190701395Y-85675000D01*
X191060605Y-85675000D01*
X192660907Y-87275301D01*
X193017937Y-87070595D01*
X193249143Y-86626883D01*
X193389343Y-86146591D01*
X193433149Y-85648177D01*
X193378877Y-85150792D01*
X193228613Y-84673553D01*
X193017937Y-84279405D01*
X192660907Y-84074699D01*
X191060605Y-85675000D01*
X190701395Y-85675000D01*
X190687253Y-85660858D01*
X190866858Y-85481253D01*
X190881000Y-85495395D01*
X192481301Y-83895093D01*
X192276595Y-83538063D01*
X191832883Y-83306857D01*
X191352591Y-83166657D01*
X190854177Y-83122851D01*
X190356792Y-83177123D01*
X189989426Y-83292792D01*
X190026269Y-83203846D01*
X190119000Y-82737660D01*
X190119000Y-82262340D01*
X190026269Y-81796154D01*
X189991094Y-81711234D01*
X190409409Y-81833343D01*
X190907823Y-81877149D01*
X191405208Y-81822877D01*
X191882447Y-81672613D01*
X192276595Y-81461937D01*
X192481301Y-81104907D01*
X190881000Y-79504605D01*
X190866858Y-79518748D01*
X190687253Y-79339143D01*
X190701395Y-79325000D01*
X191060605Y-79325000D01*
X192660907Y-80925301D01*
X193017937Y-80720595D01*
X193249143Y-80276883D01*
X193389343Y-79796591D01*
X193433149Y-79298177D01*
X193378877Y-78800792D01*
X193228613Y-78323553D01*
X193017937Y-77929405D01*
X192660907Y-77724699D01*
X191060605Y-79325000D01*
X190701395Y-79325000D01*
X189101093Y-77724699D01*
X188744063Y-77929405D01*
X188512857Y-78373117D01*
X188372657Y-78853409D01*
X188328851Y-79351823D01*
X188383123Y-79849208D01*
X188498792Y-80216574D01*
X188409846Y-80179731D01*
X187943660Y-80087000D01*
X187468340Y-80087000D01*
X187002154Y-80179731D01*
X186917234Y-80214906D01*
X187039343Y-79796591D01*
X187083149Y-79298177D01*
X187028877Y-78800792D01*
X186878613Y-78323553D01*
X186667937Y-77929405D01*
X186310907Y-77724699D01*
X184710605Y-79325000D01*
X184724748Y-79339143D01*
X184545143Y-79518748D01*
X184531000Y-79504605D01*
X182930699Y-81104907D01*
X177252820Y-81104907D01*
X177144155Y-80899000D01*
X175951000Y-80899000D01*
X175951000Y-80919000D01*
X175697000Y-80919000D01*
X175697000Y-80899000D01*
X174503845Y-80899000D01*
X174382524Y-81128890D01*
X174427175Y-81276099D01*
X174552359Y-81538920D01*
X174726412Y-81772269D01*
X174942645Y-81967178D01*
X175059534Y-82036805D01*
X174877368Y-82158525D01*
X174670525Y-82365368D01*
X174508010Y-82608589D01*
X174396068Y-82878842D01*
X174339000Y-83165740D01*
X174339000Y-83458260D01*
X174396068Y-83745158D01*
X174508010Y-84015411D01*
X174670525Y-84258632D01*
X174877368Y-84465475D01*
X175051760Y-84582000D01*
X174877368Y-84698525D01*
X174670525Y-84905368D01*
X174508010Y-85148589D01*
X174396068Y-85418842D01*
X174339000Y-85705740D01*
X174339000Y-85998260D01*
X174396068Y-86285158D01*
X174508010Y-86555411D01*
X174670525Y-86798632D01*
X174802380Y-86930487D01*
X174729820Y-86952498D01*
X174619506Y-87011463D01*
X174522815Y-87090815D01*
X174443463Y-87187506D01*
X174384498Y-87297820D01*
X174348188Y-87417518D01*
X174335928Y-87542000D01*
X173385000Y-87542000D01*
X173385000Y-80538454D01*
X173417205Y-80490256D01*
X173495226Y-80301898D01*
X173535000Y-80101939D01*
X173535000Y-79898061D01*
X173495226Y-79698102D01*
X173417205Y-79509744D01*
X173303937Y-79340226D01*
X173159774Y-79196063D01*
X172990256Y-79082795D01*
X172801898Y-79004774D01*
X172601939Y-78965000D01*
X172398061Y-78965000D01*
X172198102Y-79004774D01*
X172009744Y-79082795D01*
X171840226Y-79196063D01*
X171696063Y-79340226D01*
X171582795Y-79509744D01*
X171504774Y-79698102D01*
X171465000Y-79898061D01*
X171465000Y-80101939D01*
X171504774Y-80301898D01*
X171582795Y-80490256D01*
X171615000Y-80538454D01*
X171615000Y-81493000D01*
X171426061Y-81493000D01*
X171226102Y-81532774D01*
X171037744Y-81610795D01*
X170868226Y-81724063D01*
X170724063Y-81868226D01*
X170610795Y-82037744D01*
X170532774Y-82226102D01*
X170521465Y-82282956D01*
X167282957Y-85521465D01*
X167226102Y-85532774D01*
X167037744Y-85610795D01*
X166868226Y-85724063D01*
X166724063Y-85868226D01*
X166610795Y-86037744D01*
X166532774Y-86226102D01*
X166493000Y-86426061D01*
X161947501Y-86426061D01*
X161980825Y-86356099D01*
X162025476Y-86208890D01*
X161904155Y-85979000D01*
X160711000Y-85979000D01*
X160711000Y-85999000D01*
X160457000Y-85999000D01*
X160457000Y-85979000D01*
X159263845Y-85979000D01*
X159142524Y-86208890D01*
X159187175Y-86356099D01*
X159312359Y-86618920D01*
X159486412Y-86852269D01*
X159702645Y-87047178D01*
X159819534Y-87116805D01*
X159637368Y-87238525D01*
X159430525Y-87445368D01*
X159268010Y-87688589D01*
X159156068Y-87958842D01*
X159099000Y-88245740D01*
X153333941Y-88245740D01*
X153289206Y-88137743D01*
X153175938Y-87968225D01*
X153031775Y-87824062D01*
X152862257Y-87710794D01*
X152673899Y-87632773D01*
X152473940Y-87592999D01*
X152270062Y-87592999D01*
X152070103Y-87632773D01*
X151881745Y-87710794D01*
X151712227Y-87824062D01*
X151568064Y-87968225D01*
X151454796Y-88137743D01*
X151376775Y-88326101D01*
X151365466Y-88382955D01*
X150423422Y-89325000D01*
X143676790Y-89325000D01*
X143614312Y-89231495D01*
X143400505Y-89017688D01*
X143257690Y-88922262D01*
X143306475Y-88774080D01*
X142422000Y-87889605D01*
X141537525Y-88774080D01*
X141586310Y-88922262D01*
X141443495Y-89017688D01*
X141229688Y-89231495D01*
X141210000Y-89260960D01*
X141210000Y-88545776D01*
X141357920Y-88594475D01*
X142242395Y-87710000D01*
X142601605Y-87710000D01*
X143486080Y-88594475D01*
X143740261Y-88510792D01*
X143871158Y-88238225D01*
X143946365Y-87945358D01*
X143962991Y-87643447D01*
X143920397Y-87344093D01*
X143820222Y-87058801D01*
X143740261Y-86909208D01*
X143486080Y-86825525D01*
X142601605Y-87710000D01*
X142242395Y-87710000D01*
X141357920Y-86825525D01*
X141210000Y-86874224D01*
X141210000Y-86645920D01*
X141537525Y-86645920D01*
X142422000Y-87530395D01*
X143306475Y-86645920D01*
X143222792Y-86391739D01*
X142950225Y-86260842D01*
X142657358Y-86185635D01*
X142355447Y-86169009D01*
X142056093Y-86211603D01*
X141770801Y-86311778D01*
X141621208Y-86391739D01*
X141537525Y-86645920D01*
X141210000Y-86645920D01*
X141210000Y-85200475D01*
X147287000Y-85200475D01*
X147287000Y-85719525D01*
X147388261Y-86228601D01*
X147586893Y-86708141D01*
X147875262Y-87139715D01*
X148242285Y-87506738D01*
X148673859Y-87795107D01*
X149153399Y-87993739D01*
X149662475Y-88095000D01*
X150181525Y-88095000D01*
X150690601Y-87993739D01*
X151170141Y-87795107D01*
X151601715Y-87506738D01*
X151968738Y-87139715D01*
X152257107Y-86708141D01*
X152455739Y-86228601D01*
X152557000Y-85719525D01*
X152557000Y-85200475D01*
X152455739Y-84691399D01*
X152257107Y-84211859D01*
X151968738Y-83780285D01*
X151601715Y-83413262D01*
X151170141Y-83124893D01*
X150690601Y-82926261D01*
X150181525Y-82825000D01*
X149662475Y-82825000D01*
X149153399Y-82926261D01*
X148673859Y-83124893D01*
X148242285Y-83413262D01*
X147875262Y-83780285D01*
X147586893Y-84211859D01*
X147388261Y-84691399D01*
X147287000Y-85200475D01*
X141210000Y-85200475D01*
X141210000Y-77433912D01*
X141315701Y-77689095D01*
X141483688Y-77940505D01*
X141697495Y-78154312D01*
X141948905Y-78322299D01*
X142228257Y-78438011D01*
X142524816Y-78497000D01*
X142827184Y-78497000D01*
X143123743Y-78438011D01*
X143403095Y-78322299D01*
X143654505Y-78154312D01*
X143868312Y-77940505D01*
X144036299Y-77689095D01*
X144152011Y-77409743D01*
X144211000Y-77113184D01*
X144211000Y-76810816D01*
X144152011Y-76514257D01*
X144036299Y-76234905D01*
X143868312Y-75983495D01*
X143654505Y-75769688D01*
X143568169Y-75712000D01*
X143654505Y-75654312D01*
X143868312Y-75440505D01*
X144036299Y-75189095D01*
X144152011Y-74909743D01*
X144211000Y-74613184D01*
X144211000Y-74310816D01*
X144189060Y-74200518D01*
X144352579Y-74037000D01*
X159389344Y-74037000D01*
X159430525Y-74098632D01*
X159637368Y-74305475D01*
X159811760Y-74422000D01*
X159637368Y-74538525D01*
X159430525Y-74745368D01*
X159268010Y-74988589D01*
X159156068Y-75258842D01*
X159099000Y-75545740D01*
X159099000Y-75838260D01*
X159156068Y-76125158D01*
X159268010Y-76395411D01*
X159430525Y-76638632D01*
X159637368Y-76845475D01*
X159811760Y-76962000D01*
X159637368Y-77078525D01*
X159430525Y-77285368D01*
X159389344Y-77347000D01*
X158025092Y-77347000D01*
X157990312Y-77328410D01*
X157823489Y-77277804D01*
X157693476Y-77264999D01*
X157693468Y-77264999D01*
X157649999Y-77260718D01*
X157606530Y-77264999D01*
X156135468Y-77264999D01*
X156091999Y-77260718D01*
X156048530Y-77264999D01*
X156048522Y-77264999D01*
X155918509Y-77277804D01*
X155751685Y-77328410D01*
X155597940Y-77410588D01*
X155496952Y-77493467D01*
X155496950Y-77493469D01*
X155463182Y-77521182D01*
X155435469Y-77554950D01*
X152472501Y-80517919D01*
X152511107Y-80460141D01*
X152709739Y-79980601D01*
X152811000Y-79471525D01*
X152811000Y-78952475D01*
X152709739Y-78443399D01*
X152511107Y-77963859D01*
X152222738Y-77532285D01*
X151855715Y-77165262D01*
X151424141Y-76876893D01*
X150944601Y-76678261D01*
X150435525Y-76577000D01*
X149916475Y-76577000D01*
X149407399Y-76678261D01*
X148927859Y-76876893D01*
X148496285Y-77165262D01*
X148129262Y-77532285D01*
X147840893Y-77963859D01*
X147642261Y-78443399D01*
X147541000Y-78952475D01*
X147541000Y-79471525D01*
X147642261Y-79980601D01*
X147840893Y-80460141D01*
X148129262Y-80891715D01*
X148496285Y-81258738D01*
X148927859Y-81547107D01*
X149407399Y-81745739D01*
X149916475Y-81847000D01*
X150435525Y-81847000D01*
X150944601Y-81745739D01*
X151377461Y-81566442D01*
X151376775Y-81568099D01*
X151337001Y-81768058D01*
X151337001Y-81971936D01*
X151376775Y-82171895D01*
X151454796Y-82360253D01*
X151568064Y-82529771D01*
X151712227Y-82673934D01*
X151881745Y-82787202D01*
X152070103Y-82865223D01*
X152270062Y-82904997D01*
X152473940Y-82904997D01*
X152673899Y-82865223D01*
X152862257Y-82787202D01*
X153031775Y-82673934D01*
X153175938Y-82529771D01*
X153289206Y-82360253D01*
X153367227Y-82171895D01*
X153378536Y-82115040D01*
X155764933Y-79728644D01*
X155840226Y-79803937D01*
X156009744Y-79917205D01*
X156198102Y-79995226D01*
X156398061Y-80035000D01*
X156601939Y-80035000D01*
X156801898Y-79995226D01*
X156990256Y-79917205D01*
X157159774Y-79803937D01*
X157303937Y-79659774D01*
X157417205Y-79490256D01*
X157495226Y-79301898D01*
X157535000Y-79101939D01*
X157535000Y-79097063D01*
X157558510Y-79104195D01*
X157688523Y-79117000D01*
X157688531Y-79117000D01*
X157732000Y-79121281D01*
X157775469Y-79117000D01*
X159389344Y-79117000D01*
X159430525Y-79178632D01*
X159637368Y-79385475D01*
X159811760Y-79502000D01*
X159637368Y-79618525D01*
X159430525Y-79825368D01*
X159268010Y-80068589D01*
X159156068Y-80338842D01*
X159099000Y-80625740D01*
X159099000Y-80918260D01*
X159156068Y-81205158D01*
X159268010Y-81475411D01*
X159430525Y-81718632D01*
X159637368Y-81925475D01*
X159811760Y-82042000D01*
X159637368Y-82158525D01*
X159430525Y-82365368D01*
X159268010Y-82608589D01*
X159156068Y-82878842D01*
X159099000Y-83165740D01*
X159099000Y-83458260D01*
X159156068Y-83745158D01*
X159268010Y-84015411D01*
X159430525Y-84258632D01*
X159637368Y-84465475D01*
X159819534Y-84587195D01*
X159702645Y-84656822D01*
X159486412Y-84851731D01*
X159312359Y-85085080D01*
X159187175Y-85347901D01*
X159142524Y-85495110D01*
X159263845Y-85725000D01*
X160457000Y-85725000D01*
X160457000Y-85705000D01*
X160711000Y-85705000D01*
X160711000Y-85725000D01*
X161904155Y-85725000D01*
X162025476Y-85495110D01*
X161980825Y-85347901D01*
X161855641Y-85085080D01*
X161681588Y-84851731D01*
X161465355Y-84656822D01*
X161348466Y-84587195D01*
X161530632Y-84465475D01*
X161737475Y-84258632D01*
X161899990Y-84015411D01*
X162011932Y-83745158D01*
X162069000Y-83458260D01*
X162069000Y-83165740D01*
X162011932Y-82878842D01*
X161899990Y-82608589D01*
X161737475Y-82365368D01*
X161530632Y-82158525D01*
X161356240Y-82042000D01*
X161530632Y-81925475D01*
X161737475Y-81718632D01*
X161899990Y-81475411D01*
X162011932Y-81205158D01*
X162069000Y-80918260D01*
X162069000Y-80625740D01*
X162011932Y-80338842D01*
X161899990Y-80068589D01*
X161737475Y-79825368D01*
X161530632Y-79618525D01*
X161356240Y-79502000D01*
X161530632Y-79385475D01*
X161737475Y-79178632D01*
X161899990Y-78935411D01*
X162011932Y-78665158D01*
X162069000Y-78378260D01*
X162069000Y-78085740D01*
X162011932Y-77798842D01*
X161899990Y-77528589D01*
X161737475Y-77285368D01*
X161530632Y-77078525D01*
X161356240Y-76962000D01*
X161530632Y-76845475D01*
X161737475Y-76638632D01*
X161899990Y-76395411D01*
X162011932Y-76125158D01*
X162069000Y-75838260D01*
X162069000Y-75545740D01*
X162011932Y-75258842D01*
X161899990Y-74988589D01*
X161737475Y-74745368D01*
X161530632Y-74538525D01*
X161356240Y-74422000D01*
X161530632Y-74305475D01*
X161737475Y-74098632D01*
X161899990Y-73855411D01*
X162011932Y-73585158D01*
X162069000Y-73298260D01*
X162069000Y-73005740D01*
X162011932Y-72718842D01*
X161899990Y-72448589D01*
X161737475Y-72205368D01*
X161530632Y-71998525D01*
X161356240Y-71882000D01*
X161530632Y-71765475D01*
X161737475Y-71558632D01*
X161899990Y-71315411D01*
X162011932Y-71045158D01*
X162069000Y-70758260D01*
X162069000Y-70465740D01*
X162011932Y-70178842D01*
X161899990Y-69908589D01*
X161737475Y-69665368D01*
X161530632Y-69458525D01*
X161356240Y-69342000D01*
X161530632Y-69225475D01*
X161737475Y-69018632D01*
X161899990Y-68775411D01*
X162011932Y-68505158D01*
X162069000Y-68218260D01*
X162069000Y-67925740D01*
X162011932Y-67638842D01*
X161899990Y-67368589D01*
X161737475Y-67125368D01*
X161530632Y-66918525D01*
X161356240Y-66802000D01*
X161530632Y-66685475D01*
X161737475Y-66478632D01*
X161899990Y-66235411D01*
X162011932Y-65965158D01*
X162069000Y-65678260D01*
X162069000Y-65385740D01*
X162011932Y-65098842D01*
X161899990Y-64828589D01*
X161737475Y-64585368D01*
X161530632Y-64378525D01*
X161356240Y-64262000D01*
X161530632Y-64145475D01*
X161737475Y-63938632D01*
X161899990Y-63695411D01*
X162011932Y-63425158D01*
X162060652Y-63180230D01*
X162115001Y-63234580D01*
X162115000Y-69456531D01*
X162110719Y-69500000D01*
X162115000Y-69543469D01*
X162115000Y-69543476D01*
X162127805Y-69673489D01*
X162178411Y-69840312D01*
X162260589Y-69994058D01*
X162371183Y-70128817D01*
X162404956Y-70156534D01*
X162493465Y-70245043D01*
X162504774Y-70301898D01*
X162582795Y-70490256D01*
X162696063Y-70659774D01*
X162840226Y-70803937D01*
X163009744Y-70917205D01*
X163198102Y-70995226D01*
X163398061Y-71035000D01*
X163601939Y-71035000D01*
X163801898Y-70995226D01*
X163990256Y-70917205D01*
X164159774Y-70803937D01*
X164303937Y-70659774D01*
X164417205Y-70490256D01*
X164495226Y-70301898D01*
X164535000Y-70101939D01*
X164535000Y-69898061D01*
X164495226Y-69698102D01*
X164417205Y-69509744D01*
X164303937Y-69340226D01*
X164159774Y-69196063D01*
X163990256Y-69082795D01*
X163885000Y-69039196D01*
X163885000Y-62911469D01*
X163889281Y-62868000D01*
X163885000Y-62824531D01*
X163885000Y-62824523D01*
X163872195Y-62694510D01*
X163821589Y-62527687D01*
X163739411Y-62373941D01*
X163628817Y-62239183D01*
X163595049Y-62211470D01*
X162054539Y-60670961D01*
X162069000Y-60598260D01*
X162069000Y-60305740D01*
X162011932Y-60018842D01*
X161899990Y-59748589D01*
X161737475Y-59505368D01*
X161630168Y-59398061D01*
X169965000Y-59398061D01*
X169965000Y-59601939D01*
X170004774Y-59801898D01*
X170082795Y-59990256D01*
X170196063Y-60159774D01*
X170340226Y-60303937D01*
X170509744Y-60417205D01*
X170698102Y-60495226D01*
X170898061Y-60535000D01*
X171101939Y-60535000D01*
X171301898Y-60495226D01*
X171490256Y-60417205D01*
X171538454Y-60385000D01*
X171652531Y-60385000D01*
X171696000Y-60389281D01*
X171739469Y-60385000D01*
X171739477Y-60385000D01*
X171869490Y-60372195D01*
X172036313Y-60321589D01*
X172190059Y-60239411D01*
X172324817Y-60128817D01*
X172352534Y-60095044D01*
X174347348Y-58100230D01*
X174396068Y-58345158D01*
X174508010Y-58615411D01*
X174670525Y-58858632D01*
X174877368Y-59065475D01*
X175051760Y-59182000D01*
X174877368Y-59298525D01*
X174670525Y-59505368D01*
X174508010Y-59748589D01*
X174396068Y-60018842D01*
X174339000Y-60305740D01*
X174339000Y-60598260D01*
X174396068Y-60885158D01*
X174508010Y-61155411D01*
X174670525Y-61398632D01*
X174877368Y-61605475D01*
X175051760Y-61722000D01*
X174877368Y-61838525D01*
X174670525Y-62045368D01*
X174508010Y-62288589D01*
X174396068Y-62558842D01*
X174339000Y-62845740D01*
X174339000Y-63138260D01*
X174396068Y-63425158D01*
X174508010Y-63695411D01*
X174670525Y-63938632D01*
X174877368Y-64145475D01*
X175051760Y-64262000D01*
X174877368Y-64378525D01*
X174670525Y-64585368D01*
X174508010Y-64828589D01*
X174396068Y-65098842D01*
X174339000Y-65385740D01*
X174339000Y-65678260D01*
X174396068Y-65965158D01*
X174508010Y-66235411D01*
X174670525Y-66478632D01*
X174877368Y-66685475D01*
X175051760Y-66802000D01*
X174877368Y-66918525D01*
X174670525Y-67125368D01*
X174508010Y-67368589D01*
X174396068Y-67638842D01*
X174339000Y-67925740D01*
X174339000Y-68218260D01*
X174396068Y-68505158D01*
X174508010Y-68775411D01*
X174670525Y-69018632D01*
X174877368Y-69225475D01*
X175051760Y-69342000D01*
X174877368Y-69458525D01*
X174670525Y-69665368D01*
X174508010Y-69908589D01*
X174396068Y-70178842D01*
X174339000Y-70465740D01*
X174339000Y-70758260D01*
X174396068Y-71045158D01*
X174508010Y-71315411D01*
X174670525Y-71558632D01*
X174877368Y-71765475D01*
X175051760Y-71882000D01*
X174877368Y-71998525D01*
X174670525Y-72205368D01*
X174508010Y-72448589D01*
X174396068Y-72718842D01*
X174339000Y-73005740D01*
X174339000Y-73298260D01*
X174396068Y-73585158D01*
X174508010Y-73855411D01*
X174670525Y-74098632D01*
X174877368Y-74305475D01*
X175051760Y-74422000D01*
X174877368Y-74538525D01*
X174670525Y-74745368D01*
X174508010Y-74988589D01*
X174396068Y-75258842D01*
X174339000Y-75545740D01*
X174339000Y-75838260D01*
X174396068Y-76125158D01*
X174508010Y-76395411D01*
X174670525Y-76638632D01*
X174877368Y-76845475D01*
X175051760Y-76962000D01*
X174877368Y-77078525D01*
X174670525Y-77285368D01*
X174508010Y-77528589D01*
X174396068Y-77798842D01*
X174339000Y-78085740D01*
X174339000Y-78378260D01*
X174396068Y-78665158D01*
X174508010Y-78935411D01*
X174670525Y-79178632D01*
X174877368Y-79385475D01*
X175059534Y-79507195D01*
X174942645Y-79576822D01*
X174726412Y-79771731D01*
X174552359Y-80005080D01*
X174427175Y-80267901D01*
X174382524Y-80415110D01*
X174503845Y-80645000D01*
X175697000Y-80645000D01*
X175697000Y-80625000D01*
X175951000Y-80625000D01*
X175951000Y-80645000D01*
X177144155Y-80645000D01*
X177265476Y-80415110D01*
X177220825Y-80267901D01*
X177095641Y-80005080D01*
X176921588Y-79771731D01*
X176705355Y-79576822D01*
X176588466Y-79507195D01*
X176770632Y-79385475D01*
X176804284Y-79351823D01*
X181978851Y-79351823D01*
X182033123Y-79849208D01*
X182183387Y-80326447D01*
X182394063Y-80720595D01*
X182751093Y-80925301D01*
X184351395Y-79325000D01*
X182751093Y-77724699D01*
X182394063Y-77929405D01*
X182162857Y-78373117D01*
X182022657Y-78853409D01*
X181978851Y-79351823D01*
X176804284Y-79351823D01*
X176977475Y-79178632D01*
X177139990Y-78935411D01*
X177251932Y-78665158D01*
X177309000Y-78378260D01*
X177309000Y-78085740D01*
X177251932Y-77798842D01*
X177146827Y-77545093D01*
X182930699Y-77545093D01*
X184531000Y-79145395D01*
X186131301Y-77545093D01*
X189280699Y-77545093D01*
X190881000Y-79145395D01*
X192481301Y-77545093D01*
X192276595Y-77188063D01*
X191832883Y-76956857D01*
X191352591Y-76816657D01*
X190854177Y-76772851D01*
X190356792Y-76827123D01*
X189879553Y-76977387D01*
X189485405Y-77188063D01*
X189280699Y-77545093D01*
X186131301Y-77545093D01*
X185926595Y-77188063D01*
X185482883Y-76956857D01*
X185002591Y-76816657D01*
X184504177Y-76772851D01*
X184006792Y-76827123D01*
X183529553Y-76977387D01*
X183135405Y-77188063D01*
X182930699Y-77545093D01*
X177146827Y-77545093D01*
X177139990Y-77528589D01*
X176977475Y-77285368D01*
X176770632Y-77078525D01*
X176596240Y-76962000D01*
X176770632Y-76845475D01*
X176977475Y-76638632D01*
X177139990Y-76395411D01*
X177251932Y-76125158D01*
X177309000Y-75838260D01*
X177309000Y-75545740D01*
X177251932Y-75258842D01*
X177139990Y-74988589D01*
X176977475Y-74745368D01*
X176770632Y-74538525D01*
X176596240Y-74422000D01*
X176770632Y-74305475D01*
X176977475Y-74098632D01*
X177139990Y-73855411D01*
X177251932Y-73585158D01*
X177277840Y-73454907D01*
X182930699Y-73454907D01*
X183135405Y-73811937D01*
X183579117Y-74043143D01*
X184059409Y-74183343D01*
X184557823Y-74227149D01*
X185055208Y-74172877D01*
X185532447Y-74022613D01*
X185926595Y-73811937D01*
X186131301Y-73454907D01*
X189280699Y-73454907D01*
X189485405Y-73811937D01*
X189929117Y-74043143D01*
X190409409Y-74183343D01*
X190907823Y-74227149D01*
X191405208Y-74172877D01*
X191882447Y-74022613D01*
X192276595Y-73811937D01*
X192481301Y-73454907D01*
X190881000Y-71854605D01*
X189280699Y-73454907D01*
X186131301Y-73454907D01*
X184531000Y-71854605D01*
X182930699Y-73454907D01*
X177277840Y-73454907D01*
X177309000Y-73298260D01*
X177309000Y-73005740D01*
X177251932Y-72718842D01*
X177139990Y-72448589D01*
X176977475Y-72205368D01*
X176770632Y-71998525D01*
X176596240Y-71882000D01*
X176770632Y-71765475D01*
X176834284Y-71701823D01*
X181978851Y-71701823D01*
X182033123Y-72199208D01*
X182183387Y-72676447D01*
X182394063Y-73070595D01*
X182751093Y-73275301D01*
X184351395Y-71675000D01*
X182751093Y-70074699D01*
X182394063Y-70279405D01*
X182162857Y-70723117D01*
X182022657Y-71203409D01*
X181978851Y-71701823D01*
X176834284Y-71701823D01*
X176977475Y-71558632D01*
X177139990Y-71315411D01*
X177251932Y-71045158D01*
X177309000Y-70758260D01*
X177309000Y-70465740D01*
X177251932Y-70178842D01*
X177139990Y-69908589D01*
X176977475Y-69665368D01*
X176770632Y-69458525D01*
X176596240Y-69342000D01*
X176770632Y-69225475D01*
X176977475Y-69018632D01*
X177139990Y-68775411D01*
X177251932Y-68505158D01*
X177309000Y-68218260D01*
X177309000Y-67925740D01*
X177251932Y-67638842D01*
X177139990Y-67368589D01*
X176977475Y-67125368D01*
X176957014Y-67104907D01*
X182930699Y-67104907D01*
X183135405Y-67461937D01*
X183579117Y-67693143D01*
X184059409Y-67833343D01*
X184557823Y-67877149D01*
X185055208Y-67822877D01*
X185422574Y-67707208D01*
X185385731Y-67796154D01*
X185293000Y-68262340D01*
X185293000Y-68737660D01*
X185385731Y-69203846D01*
X185420906Y-69288766D01*
X185002591Y-69166657D01*
X184504177Y-69122851D01*
X184006792Y-69177123D01*
X183529553Y-69327387D01*
X183135405Y-69538063D01*
X182930699Y-69895093D01*
X184531000Y-71495395D01*
X184545143Y-71481253D01*
X184724748Y-71660858D01*
X184710605Y-71675000D01*
X186310907Y-73275301D01*
X186667937Y-73070595D01*
X186899143Y-72626883D01*
X187039343Y-72146591D01*
X187083149Y-71648177D01*
X187028877Y-71150792D01*
X186913208Y-70783426D01*
X187002154Y-70820269D01*
X187468340Y-70913000D01*
X187943660Y-70913000D01*
X188409846Y-70820269D01*
X188494766Y-70785094D01*
X188372657Y-71203409D01*
X188328851Y-71701823D01*
X188383123Y-72199208D01*
X188533387Y-72676447D01*
X188744063Y-73070595D01*
X189101093Y-73275301D01*
X190701395Y-71675000D01*
X191060605Y-71675000D01*
X192660907Y-73275301D01*
X193017937Y-73070595D01*
X193249143Y-72626883D01*
X193389343Y-72146591D01*
X193433149Y-71648177D01*
X193378877Y-71150792D01*
X193228613Y-70673553D01*
X193017937Y-70279405D01*
X192660907Y-70074699D01*
X191060605Y-71675000D01*
X190701395Y-71675000D01*
X190687253Y-71660858D01*
X190866858Y-71481253D01*
X190881000Y-71495395D01*
X192481301Y-69895093D01*
X192276595Y-69538063D01*
X191832883Y-69306857D01*
X191352591Y-69166657D01*
X190854177Y-69122851D01*
X190356792Y-69177123D01*
X189989426Y-69292792D01*
X190026269Y-69203846D01*
X190119000Y-68737660D01*
X190119000Y-68262340D01*
X190026269Y-67796154D01*
X189991094Y-67711234D01*
X190409409Y-67833343D01*
X190907823Y-67877149D01*
X191405208Y-67822877D01*
X191882447Y-67672613D01*
X192276595Y-67461937D01*
X192481301Y-67104907D01*
X190881000Y-65504605D01*
X190866858Y-65518748D01*
X190687253Y-65339143D01*
X190701395Y-65325000D01*
X191060605Y-65325000D01*
X192660907Y-66925301D01*
X193017937Y-66720595D01*
X193249143Y-66276883D01*
X193389343Y-65796591D01*
X193433149Y-65298177D01*
X193378877Y-64800792D01*
X193228613Y-64323553D01*
X193017937Y-63929405D01*
X192660907Y-63724699D01*
X191060605Y-65325000D01*
X190701395Y-65325000D01*
X189101093Y-63724699D01*
X188744063Y-63929405D01*
X188512857Y-64373117D01*
X188372657Y-64853409D01*
X188328851Y-65351823D01*
X188383123Y-65849208D01*
X188498792Y-66216574D01*
X188409846Y-66179731D01*
X187943660Y-66087000D01*
X187468340Y-66087000D01*
X187002154Y-66179731D01*
X186917234Y-66214906D01*
X187039343Y-65796591D01*
X187083149Y-65298177D01*
X187028877Y-64800792D01*
X186878613Y-64323553D01*
X186667937Y-63929405D01*
X186310907Y-63724699D01*
X184710605Y-65325000D01*
X184724748Y-65339143D01*
X184545143Y-65518748D01*
X184531000Y-65504605D01*
X182930699Y-67104907D01*
X176957014Y-67104907D01*
X176770632Y-66918525D01*
X176596240Y-66802000D01*
X176770632Y-66685475D01*
X176977475Y-66478632D01*
X177139990Y-66235411D01*
X177251932Y-65965158D01*
X177309000Y-65678260D01*
X177309000Y-65385740D01*
X177302254Y-65351823D01*
X181978851Y-65351823D01*
X182033123Y-65849208D01*
X182183387Y-66326447D01*
X182394063Y-66720595D01*
X182751093Y-66925301D01*
X184351395Y-65325000D01*
X182751093Y-63724699D01*
X182394063Y-63929405D01*
X182162857Y-64373117D01*
X182022657Y-64853409D01*
X181978851Y-65351823D01*
X177302254Y-65351823D01*
X177251932Y-65098842D01*
X177139990Y-64828589D01*
X176977475Y-64585368D01*
X176770632Y-64378525D01*
X176596240Y-64262000D01*
X176770632Y-64145475D01*
X176977475Y-63938632D01*
X177139990Y-63695411D01*
X177202253Y-63545093D01*
X182930699Y-63545093D01*
X184531000Y-65145395D01*
X186131301Y-63545093D01*
X189280699Y-63545093D01*
X190881000Y-65145395D01*
X192481301Y-63545093D01*
X192276595Y-63188063D01*
X191832883Y-62956857D01*
X191352591Y-62816657D01*
X190854177Y-62772851D01*
X190356792Y-62827123D01*
X189879553Y-62977387D01*
X189485405Y-63188063D01*
X189280699Y-63545093D01*
X186131301Y-63545093D01*
X185926595Y-63188063D01*
X185482883Y-62956857D01*
X185002591Y-62816657D01*
X184504177Y-62772851D01*
X184006792Y-62827123D01*
X183529553Y-62977387D01*
X183135405Y-63188063D01*
X182930699Y-63545093D01*
X177202253Y-63545093D01*
X177251932Y-63425158D01*
X177309000Y-63138260D01*
X177309000Y-62845740D01*
X177251932Y-62558842D01*
X177139990Y-62288589D01*
X176977475Y-62045368D01*
X176770632Y-61838525D01*
X176596240Y-61722000D01*
X176770632Y-61605475D01*
X176977475Y-61398632D01*
X177139990Y-61155411D01*
X177251932Y-60885158D01*
X177309000Y-60598260D01*
X177309000Y-60305740D01*
X177251932Y-60018842D01*
X177169117Y-59818907D01*
X182930699Y-59818907D01*
X183135405Y-60175937D01*
X183579117Y-60407143D01*
X184059409Y-60547343D01*
X184557823Y-60591149D01*
X185055208Y-60536877D01*
X185532447Y-60386613D01*
X185926595Y-60175937D01*
X186131301Y-59818907D01*
X189280699Y-59818907D01*
X189485405Y-60175937D01*
X189929117Y-60407143D01*
X190409409Y-60547343D01*
X190907823Y-60591149D01*
X191405208Y-60536877D01*
X191882447Y-60386613D01*
X192276595Y-60175937D01*
X192481301Y-59818907D01*
X190881000Y-58218605D01*
X189280699Y-59818907D01*
X186131301Y-59818907D01*
X184531000Y-58218605D01*
X182930699Y-59818907D01*
X177169117Y-59818907D01*
X177139990Y-59748589D01*
X176977475Y-59505368D01*
X176770632Y-59298525D01*
X176596240Y-59182000D01*
X176770632Y-59065475D01*
X176977475Y-58858632D01*
X177139990Y-58615411D01*
X177251932Y-58345158D01*
X177307495Y-58065823D01*
X181978851Y-58065823D01*
X182033123Y-58563208D01*
X182183387Y-59040447D01*
X182394063Y-59434595D01*
X182751093Y-59639301D01*
X184351395Y-58039000D01*
X182751093Y-56438699D01*
X182394063Y-56643405D01*
X182162857Y-57087117D01*
X182022657Y-57567409D01*
X181978851Y-58065823D01*
X177307495Y-58065823D01*
X177309000Y-58058260D01*
X177309000Y-57765740D01*
X177251932Y-57478842D01*
X177139990Y-57208589D01*
X176977475Y-56965368D01*
X176770632Y-56758525D01*
X176596240Y-56642000D01*
X176770632Y-56525475D01*
X176977475Y-56318632D01*
X177139990Y-56075411D01*
X177251932Y-55805158D01*
X177309000Y-55518260D01*
X177309000Y-55225740D01*
X177251932Y-54938842D01*
X177139990Y-54668589D01*
X176977475Y-54425368D01*
X176770632Y-54218525D01*
X176596240Y-54102000D01*
X176770632Y-53985475D01*
X176977475Y-53778632D01*
X177139990Y-53535411D01*
X177167536Y-53468907D01*
X182930699Y-53468907D01*
X183135405Y-53825937D01*
X183579117Y-54057143D01*
X184059409Y-54197343D01*
X184557823Y-54241149D01*
X185055208Y-54186877D01*
X185422574Y-54071208D01*
X185385731Y-54160154D01*
X185293000Y-54626340D01*
X185293000Y-55101660D01*
X185385731Y-55567846D01*
X185420906Y-55652766D01*
X185002591Y-55530657D01*
X184504177Y-55486851D01*
X184006792Y-55541123D01*
X183529553Y-55691387D01*
X183135405Y-55902063D01*
X182930699Y-56259093D01*
X184531000Y-57859395D01*
X184545143Y-57845253D01*
X184724748Y-58024858D01*
X184710605Y-58039000D01*
X186310907Y-59639301D01*
X186667937Y-59434595D01*
X186899143Y-58990883D01*
X187039343Y-58510591D01*
X187083149Y-58012177D01*
X187028877Y-57514792D01*
X186913208Y-57147426D01*
X187002154Y-57184269D01*
X187468340Y-57277000D01*
X187943660Y-57277000D01*
X188409846Y-57184269D01*
X188494766Y-57149094D01*
X188372657Y-57567409D01*
X188328851Y-58065823D01*
X188383123Y-58563208D01*
X188533387Y-59040447D01*
X188744063Y-59434595D01*
X189101093Y-59639301D01*
X190701395Y-58039000D01*
X191060605Y-58039000D01*
X192660907Y-59639301D01*
X193017937Y-59434595D01*
X193249143Y-58990883D01*
X193389343Y-58510591D01*
X193433149Y-58012177D01*
X193378877Y-57514792D01*
X193228613Y-57037553D01*
X193017937Y-56643405D01*
X192660907Y-56438699D01*
X191060605Y-58039000D01*
X190701395Y-58039000D01*
X190687253Y-58024858D01*
X190866858Y-57845253D01*
X190881000Y-57859395D01*
X192481301Y-56259093D01*
X192276595Y-55902063D01*
X191832883Y-55670857D01*
X191352591Y-55530657D01*
X190854177Y-55486851D01*
X190356792Y-55541123D01*
X189989426Y-55656792D01*
X190026269Y-55567846D01*
X190119000Y-55101660D01*
X190119000Y-54626340D01*
X190026269Y-54160154D01*
X189991094Y-54075234D01*
X190409409Y-54197343D01*
X190907823Y-54241149D01*
X191405208Y-54186877D01*
X191882447Y-54036613D01*
X192276595Y-53825937D01*
X192481301Y-53468907D01*
X190881000Y-51868605D01*
X190866858Y-51882748D01*
X190687253Y-51703143D01*
X190701395Y-51689000D01*
X191060605Y-51689000D01*
X192660907Y-53289301D01*
X193017937Y-53084595D01*
X193249143Y-52640883D01*
X193389343Y-52160591D01*
X193433149Y-51662177D01*
X193378877Y-51164792D01*
X193228613Y-50687553D01*
X193017937Y-50293405D01*
X192660907Y-50088699D01*
X191060605Y-51689000D01*
X190701395Y-51689000D01*
X189101093Y-50088699D01*
X188744063Y-50293405D01*
X188512857Y-50737117D01*
X188372657Y-51217409D01*
X188328851Y-51715823D01*
X188383123Y-52213208D01*
X188498792Y-52580574D01*
X188409846Y-52543731D01*
X187943660Y-52451000D01*
X187468340Y-52451000D01*
X187002154Y-52543731D01*
X186917234Y-52578906D01*
X187039343Y-52160591D01*
X187083149Y-51662177D01*
X187028877Y-51164792D01*
X186878613Y-50687553D01*
X186667937Y-50293405D01*
X186310907Y-50088699D01*
X184710605Y-51689000D01*
X184724748Y-51703143D01*
X184545143Y-51882748D01*
X184531000Y-51868605D01*
X182930699Y-53468907D01*
X177167536Y-53468907D01*
X177251932Y-53265158D01*
X177309000Y-52978260D01*
X177309000Y-52685740D01*
X177251932Y-52398842D01*
X177139990Y-52128589D01*
X176977475Y-51885368D01*
X176807930Y-51715823D01*
X181978851Y-51715823D01*
X182033123Y-52213208D01*
X182183387Y-52690447D01*
X182394063Y-53084595D01*
X182751093Y-53289301D01*
X184351395Y-51689000D01*
X182751093Y-50088699D01*
X182394063Y-50293405D01*
X182162857Y-50737117D01*
X182022657Y-51217409D01*
X181978851Y-51715823D01*
X176807930Y-51715823D01*
X176770632Y-51678525D01*
X176527411Y-51516010D01*
X176257158Y-51404068D01*
X175970260Y-51347000D01*
X175677740Y-51347000D01*
X175390842Y-51404068D01*
X175120589Y-51516010D01*
X174877368Y-51678525D01*
X174670525Y-51885368D01*
X174508010Y-52128589D01*
X174396068Y-52398842D01*
X174339000Y-52685740D01*
X174339000Y-52978260D01*
X174396068Y-53265158D01*
X174508010Y-53535411D01*
X174670525Y-53778632D01*
X174877368Y-53985475D01*
X175051760Y-54102000D01*
X174877368Y-54218525D01*
X174670525Y-54425368D01*
X174508010Y-54668589D01*
X174396068Y-54938842D01*
X174339000Y-55225740D01*
X174339000Y-55518260D01*
X174353461Y-55590960D01*
X171399302Y-58545120D01*
X171301898Y-58504774D01*
X171101939Y-58465000D01*
X170898061Y-58465000D01*
X170698102Y-58504774D01*
X170509744Y-58582795D01*
X170340226Y-58696063D01*
X170196063Y-58840226D01*
X170082795Y-59009744D01*
X170004774Y-59198102D01*
X169965000Y-59398061D01*
X161630168Y-59398061D01*
X161530632Y-59298525D01*
X161356240Y-59182000D01*
X161530632Y-59065475D01*
X161737475Y-58858632D01*
X161899990Y-58615411D01*
X162011932Y-58345158D01*
X162069000Y-58058260D01*
X162069000Y-57765740D01*
X162011932Y-57478842D01*
X161899990Y-57208589D01*
X161737475Y-56965368D01*
X161530632Y-56758525D01*
X161356240Y-56642000D01*
X161530632Y-56525475D01*
X161737475Y-56318632D01*
X161899990Y-56075411D01*
X162011932Y-55805158D01*
X162069000Y-55518260D01*
X162069000Y-55225740D01*
X162011932Y-54938842D01*
X161899990Y-54668589D01*
X161737475Y-54425368D01*
X161605620Y-54293513D01*
X161678180Y-54271502D01*
X161788494Y-54212537D01*
X161885185Y-54133185D01*
X161964537Y-54036494D01*
X162023502Y-53926180D01*
X162059812Y-53806482D01*
X162072072Y-53682000D01*
X162072072Y-51982000D01*
X162059812Y-51857518D01*
X162023502Y-51737820D01*
X161964537Y-51627506D01*
X161885185Y-51530815D01*
X161788494Y-51451463D01*
X161678180Y-51392498D01*
X161558482Y-51356188D01*
X161434000Y-51343928D01*
X159734000Y-51343928D01*
X159609518Y-51356188D01*
X159489820Y-51392498D01*
X159379506Y-51451463D01*
X159282815Y-51530815D01*
X159203463Y-51627506D01*
X159144498Y-51737820D01*
X159108188Y-51857518D01*
X159095928Y-51982000D01*
X159095928Y-53682000D01*
X159108188Y-53806482D01*
X159144498Y-53926180D01*
X159203463Y-54036494D01*
X159282815Y-54133185D01*
X159379506Y-54212537D01*
X159489820Y-54271502D01*
X159562380Y-54293513D01*
X159430525Y-54425368D01*
X159268010Y-54668589D01*
X159156068Y-54938842D01*
X159099000Y-55225740D01*
X159099000Y-55518260D01*
X159156068Y-55805158D01*
X159268010Y-56075411D01*
X159430525Y-56318632D01*
X159637368Y-56525475D01*
X159811760Y-56642000D01*
X159637368Y-56758525D01*
X159430525Y-56965368D01*
X159268010Y-57208589D01*
X159156068Y-57478842D01*
X159099000Y-57765740D01*
X159099000Y-58058260D01*
X159156068Y-58345158D01*
X159268010Y-58615411D01*
X159430525Y-58858632D01*
X159637368Y-59065475D01*
X159811760Y-59182000D01*
X159637368Y-59298525D01*
X159430525Y-59505368D01*
X159268010Y-59748589D01*
X159156068Y-60018842D01*
X159099000Y-60305740D01*
X159099000Y-60598260D01*
X159156068Y-60885158D01*
X159268010Y-61155411D01*
X159430525Y-61398632D01*
X159637368Y-61605475D01*
X159811760Y-61722000D01*
X159637368Y-61838525D01*
X159430525Y-62045368D01*
X159268010Y-62288589D01*
X159156068Y-62558842D01*
X159099000Y-62845740D01*
X159099000Y-63138260D01*
X159156068Y-63425158D01*
X159268010Y-63695411D01*
X159430525Y-63938632D01*
X159637368Y-64145475D01*
X159811760Y-64262000D01*
X159637368Y-64378525D01*
X159430525Y-64585368D01*
X159268010Y-64828589D01*
X159156068Y-65098842D01*
X159099000Y-65385740D01*
X159099000Y-65678260D01*
X159156068Y-65965158D01*
X159268010Y-66235411D01*
X159430525Y-66478632D01*
X159637368Y-66685475D01*
X159811760Y-66802000D01*
X159637368Y-66918525D01*
X159430525Y-67125368D01*
X159268010Y-67368589D01*
X159156068Y-67638842D01*
X159099000Y-67925740D01*
X159099000Y-68218260D01*
X159113461Y-68290960D01*
X156410957Y-70993465D01*
X156354102Y-71004774D01*
X156165744Y-71082795D01*
X155996226Y-71196063D01*
X155852063Y-71340226D01*
X155738795Y-71509744D01*
X155660774Y-71698102D01*
X155621000Y-71898061D01*
X155621000Y-72101939D01*
X155653832Y-72267000D01*
X150837714Y-72267000D01*
X150944601Y-72245739D01*
X151424141Y-72047107D01*
X151855715Y-71758738D01*
X152222738Y-71391715D01*
X152511107Y-70960141D01*
X152709739Y-70480601D01*
X152811000Y-69971525D01*
X152811000Y-69452475D01*
X152709739Y-68943399D01*
X152511107Y-68463859D01*
X152222738Y-68032285D01*
X151855715Y-67665262D01*
X151424141Y-67376893D01*
X150944601Y-67178261D01*
X150435525Y-67077000D01*
X149916475Y-67077000D01*
X149407399Y-67178261D01*
X148927859Y-67376893D01*
X148496285Y-67665262D01*
X148129262Y-68032285D01*
X147840893Y-68463859D01*
X147642261Y-68943399D01*
X147541000Y-69452475D01*
X147541000Y-69971525D01*
X147642261Y-70480601D01*
X147840893Y-70960141D01*
X148129262Y-71391715D01*
X148496285Y-71758738D01*
X148927859Y-72047107D01*
X149407399Y-72245739D01*
X149514286Y-72267000D01*
X144182481Y-72267000D01*
X144200365Y-72197358D01*
X144216991Y-71895447D01*
X144174397Y-71596093D01*
X144074222Y-71310801D01*
X143994261Y-71161208D01*
X143740080Y-71077525D01*
X142855605Y-71962000D01*
X142869748Y-71976143D01*
X142690143Y-72155748D01*
X142676000Y-72141605D01*
X141791525Y-73026080D01*
X141840310Y-73174262D01*
X141697495Y-73269688D01*
X141483688Y-73483495D01*
X141315701Y-73734905D01*
X141210000Y-73990088D01*
X141210000Y-72420172D01*
X141277778Y-72613199D01*
X141357739Y-72762792D01*
X141611920Y-72846475D01*
X142496395Y-71962000D01*
X141611920Y-71077525D01*
X141357739Y-71161208D01*
X141226842Y-71433775D01*
X141210000Y-71499360D01*
X141210000Y-70897920D01*
X141791525Y-70897920D01*
X142676000Y-71782395D01*
X143560475Y-70897920D01*
X143476792Y-70643739D01*
X143204225Y-70512842D01*
X142911358Y-70437635D01*
X142609447Y-70421009D01*
X142310093Y-70463603D01*
X142024801Y-70563778D01*
X141875208Y-70643739D01*
X141791525Y-70897920D01*
X141210000Y-70897920D01*
X141210000Y-62696475D01*
X147541000Y-62696475D01*
X147541000Y-63215525D01*
X147642261Y-63724601D01*
X147840893Y-64204141D01*
X148129262Y-64635715D01*
X148496285Y-65002738D01*
X148927859Y-65291107D01*
X149407399Y-65489739D01*
X149916475Y-65591000D01*
X150435525Y-65591000D01*
X150944601Y-65489739D01*
X151424141Y-65291107D01*
X151855715Y-65002738D01*
X152222738Y-64635715D01*
X152511107Y-64204141D01*
X152709739Y-63724601D01*
X152811000Y-63215525D01*
X152811000Y-62696475D01*
X152709739Y-62187399D01*
X152511107Y-61707859D01*
X152222738Y-61276285D01*
X151855715Y-60909262D01*
X151424141Y-60620893D01*
X150944601Y-60422261D01*
X150435525Y-60321000D01*
X149916475Y-60321000D01*
X149407399Y-60422261D01*
X148927859Y-60620893D01*
X148496285Y-60909262D01*
X148129262Y-61276285D01*
X147840893Y-61707859D01*
X147642261Y-62187399D01*
X147541000Y-62696475D01*
X141210000Y-62696475D01*
X141210000Y-61177912D01*
X141315701Y-61433095D01*
X141483688Y-61684505D01*
X141697495Y-61898312D01*
X141948905Y-62066299D01*
X142228257Y-62182011D01*
X142524816Y-62241000D01*
X142827184Y-62241000D01*
X143123743Y-62182011D01*
X143403095Y-62066299D01*
X143654505Y-61898312D01*
X143868312Y-61684505D01*
X144036299Y-61433095D01*
X144152011Y-61153743D01*
X144211000Y-60857184D01*
X144211000Y-60554816D01*
X144152011Y-60258257D01*
X144036299Y-59978905D01*
X143868312Y-59727495D01*
X143654505Y-59513688D01*
X143568169Y-59456000D01*
X143654505Y-59398312D01*
X143868312Y-59184505D01*
X144036299Y-58933095D01*
X144152011Y-58653743D01*
X144153141Y-58648061D01*
X150715000Y-58648061D01*
X150715000Y-58851939D01*
X150754774Y-59051898D01*
X150832795Y-59240256D01*
X150946063Y-59409774D01*
X151090226Y-59553937D01*
X151259744Y-59667205D01*
X151448102Y-59745226D01*
X151504957Y-59756535D01*
X156243465Y-64495044D01*
X156254774Y-64551898D01*
X156332795Y-64740256D01*
X156446063Y-64909774D01*
X156590226Y-65053937D01*
X156759744Y-65167205D01*
X156948102Y-65245226D01*
X157148061Y-65285000D01*
X157351939Y-65285000D01*
X157551898Y-65245226D01*
X157740256Y-65167205D01*
X157909774Y-65053937D01*
X158053937Y-64909774D01*
X158167205Y-64740256D01*
X158245226Y-64551898D01*
X158285000Y-64351939D01*
X158285000Y-64148061D01*
X158245226Y-63948102D01*
X158167205Y-63759744D01*
X158053937Y-63590226D01*
X157909774Y-63446063D01*
X157740256Y-63332795D01*
X157551898Y-63254774D01*
X157495044Y-63243465D01*
X152756535Y-58504957D01*
X152745226Y-58448102D01*
X152667205Y-58259744D01*
X152553937Y-58090226D01*
X152409774Y-57946063D01*
X152240256Y-57832795D01*
X152051898Y-57754774D01*
X151851939Y-57715000D01*
X151648061Y-57715000D01*
X151448102Y-57754774D01*
X151259744Y-57832795D01*
X151090226Y-57946063D01*
X150946063Y-58090226D01*
X150832795Y-58259744D01*
X150754774Y-58448102D01*
X150715000Y-58648061D01*
X144153141Y-58648061D01*
X144211000Y-58357184D01*
X144211000Y-58054816D01*
X144152011Y-57758257D01*
X144036299Y-57478905D01*
X143868312Y-57227495D01*
X143654505Y-57013688D01*
X143511690Y-56918262D01*
X143560475Y-56770080D01*
X142676000Y-55885605D01*
X141791525Y-56770080D01*
X141840310Y-56918262D01*
X141697495Y-57013688D01*
X141483688Y-57227495D01*
X141315701Y-57478905D01*
X141210000Y-57734088D01*
X141210000Y-56164172D01*
X141277778Y-56357199D01*
X141357739Y-56506792D01*
X141611920Y-56590475D01*
X142496395Y-55706000D01*
X142855605Y-55706000D01*
X143740080Y-56590475D01*
X143994261Y-56506792D01*
X144125158Y-56234225D01*
X144200365Y-55941358D01*
X144216991Y-55639447D01*
X144174397Y-55340093D01*
X144074222Y-55054801D01*
X143994261Y-54905208D01*
X143740080Y-54821525D01*
X142855605Y-55706000D01*
X142496395Y-55706000D01*
X141611920Y-54821525D01*
X141357739Y-54905208D01*
X141226842Y-55177775D01*
X141210000Y-55243360D01*
X141210000Y-54641920D01*
X141791525Y-54641920D01*
X142676000Y-55526395D01*
X143560475Y-54641920D01*
X143476792Y-54387739D01*
X143204225Y-54256842D01*
X142911358Y-54181635D01*
X142609447Y-54165009D01*
X142310093Y-54207603D01*
X142024801Y-54307778D01*
X141875208Y-54387739D01*
X141791525Y-54641920D01*
X141210000Y-54641920D01*
X141210000Y-53196475D01*
X147541000Y-53196475D01*
X147541000Y-53715525D01*
X147642261Y-54224601D01*
X147840893Y-54704141D01*
X148129262Y-55135715D01*
X148496285Y-55502738D01*
X148927859Y-55791107D01*
X149407399Y-55989739D01*
X149916475Y-56091000D01*
X150435525Y-56091000D01*
X150944601Y-55989739D01*
X151424141Y-55791107D01*
X151855715Y-55502738D01*
X152222738Y-55135715D01*
X152511107Y-54704141D01*
X152709739Y-54224601D01*
X152811000Y-53715525D01*
X152811000Y-53196475D01*
X152709739Y-52687399D01*
X152511107Y-52207859D01*
X152222738Y-51776285D01*
X151855715Y-51409262D01*
X151424141Y-51120893D01*
X150944601Y-50922261D01*
X150435525Y-50821000D01*
X149916475Y-50821000D01*
X149407399Y-50922261D01*
X148927859Y-51120893D01*
X148496285Y-51409262D01*
X148129262Y-51776285D01*
X147840893Y-52207859D01*
X147642261Y-52687399D01*
X147541000Y-53196475D01*
X141210000Y-53196475D01*
X141210000Y-50012632D01*
X183162075Y-49537808D01*
X183135405Y-49552063D01*
X182930699Y-49909093D01*
X184531000Y-51509395D01*
X186131301Y-49909093D01*
X185926595Y-49552063D01*
X185841047Y-49507486D01*
X188446241Y-49478000D01*
X189623967Y-49478000D01*
X189485405Y-49552063D01*
G37*
X189485405Y-49552063D02*
X189280699Y-49909093D01*
X190881000Y-51509395D01*
X192481301Y-49909093D01*
X192276595Y-49552063D01*
X192134459Y-49478000D01*
X194869161Y-49478000D01*
X194790839Y-115790000D01*
X141127000Y-115790000D01*
X141127000Y-114333127D01*
X141159128Y-114273020D01*
X141199727Y-114139184D01*
X141210000Y-114034877D01*
X141210000Y-114000000D01*
X159611928Y-114000000D01*
X159624188Y-114124482D01*
X159660498Y-114244180D01*
X159719463Y-114354494D01*
X159798815Y-114451185D01*
X159895506Y-114530537D01*
X160005820Y-114589502D01*
X160125518Y-114625812D01*
X160250000Y-114638072D01*
X161714250Y-114635000D01*
X161873000Y-114476250D01*
X161873000Y-112627000D01*
X162127000Y-112627000D01*
X162127000Y-114476250D01*
X162285750Y-114635000D01*
X163750000Y-114638072D01*
X163874482Y-114625812D01*
X163994180Y-114589502D01*
X164104494Y-114530537D01*
X164196649Y-114454907D01*
X182930699Y-114454907D01*
X183135405Y-114811937D01*
X183579117Y-115043143D01*
X184059409Y-115183343D01*
X184557823Y-115227149D01*
X185055208Y-115172877D01*
X185532447Y-115022613D01*
X185926595Y-114811937D01*
X186131301Y-114454907D01*
X189280699Y-114454907D01*
X189485405Y-114811937D01*
X189929117Y-115043143D01*
X190409409Y-115183343D01*
X190907823Y-115227149D01*
X191405208Y-115172877D01*
X191882447Y-115022613D01*
X192276595Y-114811937D01*
X192481301Y-114454907D01*
X190881000Y-112854605D01*
X189280699Y-114454907D01*
X186131301Y-114454907D01*
X184531000Y-112854605D01*
X182930699Y-114454907D01*
X164196649Y-114454907D01*
X164201185Y-114451185D01*
X164280537Y-114354494D01*
X164339502Y-114244180D01*
X164375812Y-114124482D01*
X164388072Y-114000000D01*
X164385000Y-112785750D01*
X164301073Y-112701823D01*
X181978851Y-112701823D01*
X182033123Y-113199208D01*
X182183387Y-113676447D01*
X182394063Y-114070595D01*
X182751093Y-114275301D01*
X184351395Y-112675000D01*
X182751093Y-111074699D01*
X182394063Y-111279405D01*
X182162857Y-111723117D01*
X182022657Y-112203409D01*
X181978851Y-112701823D01*
X164301073Y-112701823D01*
X164226250Y-112627000D01*
X162127000Y-112627000D01*
X161873000Y-112627000D01*
X159773750Y-112627000D01*
X159615000Y-112785750D01*
X159611928Y-114000000D01*
X141210000Y-114000000D01*
X141210000Y-110702475D01*
X147541000Y-110702475D01*
X147541000Y-111221525D01*
X147642261Y-111730601D01*
X147840893Y-112210141D01*
X148129262Y-112641715D01*
X148496285Y-113008738D01*
X148927859Y-113297107D01*
X149407399Y-113495739D01*
X149916475Y-113597000D01*
X150435525Y-113597000D01*
X150944601Y-113495739D01*
X151424141Y-113297107D01*
X151855715Y-113008738D01*
X152222738Y-112641715D01*
X152511107Y-112210141D01*
X152709739Y-111730601D01*
X152811000Y-111221525D01*
X152811000Y-111000000D01*
X159611928Y-111000000D01*
X159615000Y-112214250D01*
X159773750Y-112373000D01*
X161873000Y-112373000D01*
X161873000Y-110523750D01*
X162127000Y-110523750D01*
X162127000Y-112373000D01*
X164226250Y-112373000D01*
X164385000Y-112214250D01*
X164388072Y-111000000D01*
X164375812Y-110875518D01*
X164339502Y-110755820D01*
X164280537Y-110645506D01*
X164201185Y-110548815D01*
X164104494Y-110469463D01*
X163994180Y-110410498D01*
X163874482Y-110374188D01*
X163750000Y-110361928D01*
X162285750Y-110365000D01*
X162127000Y-110523750D01*
X161873000Y-110523750D01*
X161714250Y-110365000D01*
X160250000Y-110361928D01*
X160125518Y-110374188D01*
X160005820Y-110410498D01*
X159895506Y-110469463D01*
X159798815Y-110548815D01*
X159719463Y-110645506D01*
X159660498Y-110755820D01*
X159624188Y-110875518D01*
X159611928Y-111000000D01*
X152811000Y-111000000D01*
X152811000Y-110702475D01*
X152709739Y-110193399D01*
X152511107Y-109713859D01*
X152222738Y-109282285D01*
X151855715Y-108915262D01*
X151424141Y-108626893D01*
X150944601Y-108428261D01*
X150435525Y-108327000D01*
X149916475Y-108327000D01*
X149407399Y-108428261D01*
X148927859Y-108626893D01*
X148496285Y-108915262D01*
X148129262Y-109282285D01*
X147840893Y-109713859D01*
X147642261Y-110193399D01*
X147541000Y-110702475D01*
X141210000Y-110702475D01*
X141210000Y-109183912D01*
X141315701Y-109439095D01*
X141483688Y-109690505D01*
X141697495Y-109904312D01*
X141948905Y-110072299D01*
X142228257Y-110188011D01*
X142524816Y-110247000D01*
X142827184Y-110247000D01*
X143123743Y-110188011D01*
X143403095Y-110072299D01*
X143654505Y-109904312D01*
X143868312Y-109690505D01*
X144036299Y-109439095D01*
X144152011Y-109159743D01*
X144211000Y-108863184D01*
X144211000Y-108560816D01*
X144152011Y-108264257D01*
X144036299Y-107984905D01*
X143868312Y-107733495D01*
X143654505Y-107519688D01*
X143568169Y-107462000D01*
X143654505Y-107404312D01*
X143868312Y-107190505D01*
X144036299Y-106939095D01*
X144152011Y-106659743D01*
X144211000Y-106363184D01*
X144211000Y-106060816D01*
X144152011Y-105764257D01*
X144036299Y-105484905D01*
X143868312Y-105233495D01*
X143654505Y-105019688D01*
X143511690Y-104924262D01*
X143560475Y-104776080D01*
X142676000Y-103891605D01*
X141791525Y-104776080D01*
X141840310Y-104924262D01*
X141697495Y-105019688D01*
X141483688Y-105233495D01*
X141315701Y-105484905D01*
X141210000Y-105740088D01*
X141210000Y-104170172D01*
X141277778Y-104363199D01*
X141357739Y-104512792D01*
X141611920Y-104596475D01*
X142496395Y-103712000D01*
X142855605Y-103712000D01*
X143740080Y-104596475D01*
X143994261Y-104512792D01*
X144125158Y-104240225D01*
X144200365Y-103947358D01*
X144216991Y-103645447D01*
X144174397Y-103346093D01*
X144074222Y-103060801D01*
X143994261Y-102911208D01*
X143740080Y-102827525D01*
X142855605Y-103712000D01*
X142496395Y-103712000D01*
X141611920Y-102827525D01*
X141357739Y-102911208D01*
X141226842Y-103183775D01*
X141210000Y-103249360D01*
X141210000Y-102647920D01*
X141791525Y-102647920D01*
X142676000Y-103532395D01*
X143560475Y-102647920D01*
X143476792Y-102393739D01*
X143204225Y-102262842D01*
X142911358Y-102187635D01*
X142609447Y-102171009D01*
X142310093Y-102213603D01*
X142024801Y-102313778D01*
X141875208Y-102393739D01*
X141791525Y-102647920D01*
X141210000Y-102647920D01*
X141210000Y-101202475D01*
X147541000Y-101202475D01*
X147541000Y-101721525D01*
X147642261Y-102230601D01*
X147840893Y-102710141D01*
X148129262Y-103141715D01*
X148496285Y-103508738D01*
X148927859Y-103797107D01*
X149407399Y-103995739D01*
X149916475Y-104097000D01*
X150435525Y-104097000D01*
X150944601Y-103995739D01*
X151424141Y-103797107D01*
X151855715Y-103508738D01*
X152222738Y-103141715D01*
X152511107Y-102710141D01*
X152709739Y-102230601D01*
X152811000Y-101721525D01*
X152811000Y-101202475D01*
X152709739Y-100693399D01*
X152511107Y-100213859D01*
X152222738Y-99782285D01*
X151855715Y-99415262D01*
X151424141Y-99126893D01*
X150944601Y-98928261D01*
X150435525Y-98827000D01*
X149916475Y-98827000D01*
X149407399Y-98928261D01*
X148927859Y-99126893D01*
X148496285Y-99415262D01*
X148129262Y-99782285D01*
X147840893Y-100213859D01*
X147642261Y-100693399D01*
X147541000Y-101202475D01*
X141210000Y-101202475D01*
X141210000Y-94700475D01*
X147287000Y-94700475D01*
X147287000Y-95219525D01*
X147388261Y-95728601D01*
X147586893Y-96208141D01*
X147875262Y-96639715D01*
X148242285Y-97006738D01*
X148673859Y-97295107D01*
X149153399Y-97493739D01*
X149662475Y-97595000D01*
X150181525Y-97595000D01*
X150690601Y-97493739D01*
X151170141Y-97295107D01*
X151601715Y-97006738D01*
X151968738Y-96639715D01*
X152257107Y-96208141D01*
X152391904Y-95882711D01*
X152524062Y-95908999D01*
X152727940Y-95908999D01*
X152927899Y-95869225D01*
X153116257Y-95791204D01*
X153285775Y-95677936D01*
X153429938Y-95533773D01*
X153543206Y-95364255D01*
X153621227Y-95175897D01*
X153632536Y-95119042D01*
X156745044Y-92006535D01*
X156801898Y-91995226D01*
X156990256Y-91917205D01*
X157159774Y-91803937D01*
X157303937Y-91659774D01*
X157417205Y-91490256D01*
X157495226Y-91301898D01*
X157535000Y-91101939D01*
X157535000Y-90898061D01*
X157495226Y-90698102D01*
X157417205Y-90509744D01*
X157303937Y-90340226D01*
X157159774Y-90196063D01*
X156990256Y-90082795D01*
X156801898Y-90004774D01*
X156601939Y-89965000D01*
X156398061Y-89965000D01*
X156198102Y-90004774D01*
X156009744Y-90082795D01*
X155840226Y-90196063D01*
X155696063Y-90340226D01*
X155582795Y-90509744D01*
X155504774Y-90698102D01*
X155493465Y-90754956D01*
X152380958Y-93867464D01*
X152326082Y-93878379D01*
X152257107Y-93711859D01*
X151968738Y-93280285D01*
X151601715Y-92913262D01*
X151170141Y-92624893D01*
X150690601Y-92426261D01*
X150181525Y-92325000D01*
X149662475Y-92325000D01*
X149153399Y-92426261D01*
X148673859Y-92624893D01*
X148242285Y-92913262D01*
X147875262Y-93280285D01*
X147586893Y-93711859D01*
X147388261Y-94191399D01*
X147287000Y-94700475D01*
X141210000Y-94700475D01*
X141210000Y-93659040D01*
X141229688Y-93688505D01*
X141443495Y-93902312D01*
X141694905Y-94070299D01*
X141974257Y-94186011D01*
X142270816Y-94245000D01*
X142573184Y-94245000D01*
X142869743Y-94186011D01*
X143149095Y-94070299D01*
X143400505Y-93902312D01*
X143614312Y-93688505D01*
X143782299Y-93437095D01*
X143898011Y-93157743D01*
X143957000Y-92861184D01*
X143957000Y-92558816D01*
X143898011Y-92262257D01*
X143782299Y-91982905D01*
X143614312Y-91731495D01*
X143400505Y-91517688D01*
X143314169Y-91460000D01*
X143400505Y-91402312D01*
X143614312Y-91188505D01*
X143676790Y-91095000D01*
X150746531Y-91095000D01*
X150790000Y-91099281D01*
X150833469Y-91095000D01*
X150833477Y-91095000D01*
X150963490Y-91082195D01*
X151130313Y-91031589D01*
X151284059Y-90949411D01*
X151418817Y-90838817D01*
X151446534Y-90805044D01*
X152617045Y-89634534D01*
X152673899Y-89623225D01*
X152862257Y-89545204D01*
X153031775Y-89431936D01*
X153175938Y-89287773D01*
X153289206Y-89118255D01*
X153367227Y-88929897D01*
X153407001Y-88729938D01*
X153407001Y-88526060D01*
X153367227Y-88326101D01*
X153333941Y-88245740D01*
X159099000Y-88245740D01*
X159099000Y-88538260D01*
X159156068Y-88825158D01*
X159268010Y-89095411D01*
X159430525Y-89338632D01*
X159637368Y-89545475D01*
X159880589Y-89707990D01*
X160150842Y-89819932D01*
X160437740Y-89877000D01*
X160730260Y-89877000D01*
X160802960Y-89862539D01*
X161115001Y-90174580D01*
X161115000Y-104111928D01*
X160250000Y-104111928D01*
X160125518Y-104124188D01*
X160005820Y-104160498D01*
X159895506Y-104219463D01*
X159798815Y-104298815D01*
X159719463Y-104395506D01*
X159660498Y-104505820D01*
X159624188Y-104625518D01*
X159611928Y-104750000D01*
X159611928Y-108250000D01*
X159624188Y-108374482D01*
X159660498Y-108494180D01*
X159719463Y-108604494D01*
X159798815Y-108701185D01*
X159895506Y-108780537D01*
X160005820Y-108839502D01*
X160125518Y-108875812D01*
X160250000Y-108888072D01*
X163750000Y-108888072D01*
X163874482Y-108875812D01*
X163994180Y-108839502D01*
X164104494Y-108780537D01*
X164201185Y-108701185D01*
X164280537Y-108604494D01*
X164321494Y-108527869D01*
X164311928Y-108625000D01*
X164311928Y-110375000D01*
X164341001Y-110670186D01*
X164427104Y-110954028D01*
X164566927Y-111215618D01*
X164755097Y-111444903D01*
X164984382Y-111633073D01*
X165245972Y-111772896D01*
X165529814Y-111858999D01*
X165825000Y-111888072D01*
X167575000Y-111888072D01*
X167870186Y-111858999D01*
X168154028Y-111772896D01*
X168415618Y-111633073D01*
X168644903Y-111444903D01*
X168833073Y-111215618D01*
X168972896Y-110954028D01*
X169058999Y-110670186D01*
X169088072Y-110375000D01*
X169088072Y-108625000D01*
X169058999Y-108329814D01*
X168972896Y-108045972D01*
X168833073Y-107784382D01*
X168644903Y-107555097D01*
X168415618Y-107366927D01*
X168154028Y-107227104D01*
X167870186Y-107141001D01*
X167575000Y-107111928D01*
X165825000Y-107111928D01*
X165529814Y-107141001D01*
X165245972Y-107227104D01*
X164984382Y-107366927D01*
X164755097Y-107555097D01*
X164566927Y-107784382D01*
X164427104Y-108045972D01*
X164388072Y-108174643D01*
X164388072Y-106351823D01*
X181978851Y-106351823D01*
X182033123Y-106849208D01*
X182183387Y-107326447D01*
X182394063Y-107720595D01*
X182751093Y-107925301D01*
X184351395Y-106325000D01*
X182751093Y-104724699D01*
X182394063Y-104929405D01*
X182162857Y-105373117D01*
X182022657Y-105853409D01*
X181978851Y-106351823D01*
X164388072Y-106351823D01*
X164388072Y-104750000D01*
X164375812Y-104625518D01*
X164339502Y-104505820D01*
X164280537Y-104395506D01*
X164201185Y-104298815D01*
X164104494Y-104219463D01*
X163994180Y-104160498D01*
X163874482Y-104124188D01*
X163750000Y-104111928D01*
X162885000Y-104111928D01*
X162885000Y-89851465D01*
X162889281Y-89807999D01*
X162885000Y-89764533D01*
X162885000Y-89764523D01*
X162872195Y-89634510D01*
X162821589Y-89467687D01*
X162739411Y-89313941D01*
X162628817Y-89179183D01*
X162595049Y-89151470D01*
X162054539Y-88610960D01*
X162069000Y-88538260D01*
X162069000Y-88245740D01*
X162011932Y-87958842D01*
X161899990Y-87688589D01*
X161737475Y-87445368D01*
X161530632Y-87238525D01*
X161348466Y-87116805D01*
X161465355Y-87047178D01*
X161681588Y-86852269D01*
X161855641Y-86618920D01*
X161947501Y-86426061D01*
X166493000Y-86426061D01*
X166493000Y-86629939D01*
X166532774Y-86829898D01*
X166610795Y-87018256D01*
X166724063Y-87187774D01*
X166868226Y-87331937D01*
X167037744Y-87445205D01*
X167226102Y-87523226D01*
X167426061Y-87563000D01*
X167629939Y-87563000D01*
X167829898Y-87523226D01*
X168018256Y-87445205D01*
X168187774Y-87331937D01*
X168331937Y-87187774D01*
X168445205Y-87018256D01*
X168523226Y-86829898D01*
X168534535Y-86773043D01*
X171615000Y-83692579D01*
X171615001Y-90765119D01*
X171610719Y-90808598D01*
X171627805Y-90982088D01*
X171678412Y-91148911D01*
X171760590Y-91302657D01*
X171843468Y-91403644D01*
X171843471Y-91403647D01*
X171871184Y-91437415D01*
X171904952Y-91465128D01*
X184241352Y-103801529D01*
X184006792Y-103827123D01*
X183529553Y-103977387D01*
X183135405Y-104188063D01*
X182930699Y-104545093D01*
X184531000Y-106145395D01*
X184545143Y-106131253D01*
X184724748Y-106310858D01*
X184710605Y-106325000D01*
X184724748Y-106339143D01*
X184545143Y-106518748D01*
X184531000Y-106504605D01*
X182930699Y-108104907D01*
X183135405Y-108461937D01*
X183579117Y-108693143D01*
X184059409Y-108833343D01*
X184557823Y-108877149D01*
X185055208Y-108822877D01*
X185422574Y-108707208D01*
X185385731Y-108796154D01*
X185293000Y-109262340D01*
X185293000Y-109737660D01*
X185385731Y-110203846D01*
X185420906Y-110288766D01*
X185002591Y-110166657D01*
X184504177Y-110122851D01*
X184006792Y-110177123D01*
X183529553Y-110327387D01*
X183135405Y-110538063D01*
X182930699Y-110895093D01*
X184531000Y-112495395D01*
X184545143Y-112481253D01*
X184724748Y-112660858D01*
X184710605Y-112675000D01*
X186310907Y-114275301D01*
X186667937Y-114070595D01*
X186899143Y-113626883D01*
X187039343Y-113146591D01*
X187083149Y-112648177D01*
X187028877Y-112150792D01*
X186913208Y-111783426D01*
X187002154Y-111820269D01*
X187468340Y-111913000D01*
X187943660Y-111913000D01*
X188409846Y-111820269D01*
X188494766Y-111785094D01*
X188372657Y-112203409D01*
X188328851Y-112701823D01*
X188383123Y-113199208D01*
X188533387Y-113676447D01*
X188744063Y-114070595D01*
X189101093Y-114275301D01*
X190701395Y-112675000D01*
X191060605Y-112675000D01*
X192660907Y-114275301D01*
X193017937Y-114070595D01*
X193249143Y-113626883D01*
X193389343Y-113146591D01*
X193433149Y-112648177D01*
X193378877Y-112150792D01*
X193228613Y-111673553D01*
X193017937Y-111279405D01*
X192660907Y-111074699D01*
X191060605Y-112675000D01*
X190701395Y-112675000D01*
X190687253Y-112660858D01*
X190866858Y-112481253D01*
X190881000Y-112495395D01*
X192481301Y-110895093D01*
X192276595Y-110538063D01*
X191832883Y-110306857D01*
X191352591Y-110166657D01*
X190854177Y-110122851D01*
X190356792Y-110177123D01*
X189989426Y-110292792D01*
X190026269Y-110203846D01*
X190119000Y-109737660D01*
X190119000Y-109262340D01*
X190026269Y-108796154D01*
X189991094Y-108711234D01*
X190409409Y-108833343D01*
X190907823Y-108877149D01*
X191405208Y-108822877D01*
X191882447Y-108672613D01*
X192276595Y-108461937D01*
X192481301Y-108104907D01*
X190881000Y-106504605D01*
X190866858Y-106518748D01*
X190687253Y-106339143D01*
X190701395Y-106325000D01*
X191060605Y-106325000D01*
X192660907Y-107925301D01*
X193017937Y-107720595D01*
X193249143Y-107276883D01*
X193389343Y-106796591D01*
X193433149Y-106298177D01*
X193378877Y-105800792D01*
X193228613Y-105323553D01*
X193017937Y-104929405D01*
X192660907Y-104724699D01*
X191060605Y-106325000D01*
X190701395Y-106325000D01*
X189101093Y-104724699D01*
X188744063Y-104929405D01*
X188512857Y-105373117D01*
X188461201Y-105550080D01*
X188445411Y-105520539D01*
X188334817Y-105385781D01*
X188301051Y-105358070D01*
X187488074Y-104545093D01*
X189280699Y-104545093D01*
X190881000Y-106145395D01*
X192481301Y-104545093D01*
X192276595Y-104188063D01*
X191832883Y-103956857D01*
X191352591Y-103816657D01*
X190854177Y-103772851D01*
X190356792Y-103827123D01*
X189879553Y-103977387D01*
X189485405Y-104188063D01*
X189280699Y-104545093D01*
X187488074Y-104545093D01*
X184659081Y-101716100D01*
X185055208Y-101672877D01*
X185532447Y-101522613D01*
X185926595Y-101311937D01*
X186131301Y-100954907D01*
X189280699Y-100954907D01*
X189485405Y-101311937D01*
X189929117Y-101543143D01*
X190409409Y-101683343D01*
X190907823Y-101727149D01*
X191405208Y-101672877D01*
X191882447Y-101522613D01*
X192276595Y-101311937D01*
X192481301Y-100954907D01*
X190881000Y-99354605D01*
X189280699Y-100954907D01*
X186131301Y-100954907D01*
X184531000Y-99354605D01*
X184516858Y-99368748D01*
X184337252Y-99189142D01*
X184351395Y-99175000D01*
X182751093Y-97574699D01*
X182394063Y-97779405D01*
X182162857Y-98223117D01*
X182022657Y-98703409D01*
X181992258Y-99049278D01*
X177547887Y-94604907D01*
X182930699Y-94604907D01*
X183135405Y-94961937D01*
X183579117Y-95193143D01*
X184059409Y-95333343D01*
X184557823Y-95377149D01*
X185055208Y-95322877D01*
X185422574Y-95207208D01*
X185385731Y-95296154D01*
X185293000Y-95762340D01*
X185293000Y-96237660D01*
X185385731Y-96703846D01*
X185420906Y-96788766D01*
X185002591Y-96666657D01*
X184504177Y-96622851D01*
X184006792Y-96677123D01*
X183529553Y-96827387D01*
X183135405Y-97038063D01*
X182930699Y-97395093D01*
X184531000Y-98995395D01*
X184545143Y-98981253D01*
X184724748Y-99160858D01*
X184710605Y-99175000D01*
X186310907Y-100775301D01*
X186667937Y-100570595D01*
X186899143Y-100126883D01*
X187039343Y-99646591D01*
X187083149Y-99148177D01*
X187028877Y-98650792D01*
X186913208Y-98283426D01*
X187002154Y-98320269D01*
X187468340Y-98413000D01*
X187943660Y-98413000D01*
X188409846Y-98320269D01*
X188494766Y-98285094D01*
X188372657Y-98703409D01*
X188328851Y-99201823D01*
X188383123Y-99699208D01*
X188533387Y-100176447D01*
X188744063Y-100570595D01*
X189101093Y-100775301D01*
X190701395Y-99175000D01*
X191060605Y-99175000D01*
X192660907Y-100775301D01*
X193017937Y-100570595D01*
X193249143Y-100126883D01*
X193389343Y-99646591D01*
X193433149Y-99148177D01*
X193378877Y-98650792D01*
X193228613Y-98173553D01*
X193017937Y-97779405D01*
X192660907Y-97574699D01*
X191060605Y-99175000D01*
X190701395Y-99175000D01*
X190687253Y-99160858D01*
X190866858Y-98981253D01*
X190881000Y-98995395D01*
X192481301Y-97395093D01*
X192276595Y-97038063D01*
X191832883Y-96806857D01*
X191352591Y-96666657D01*
X190854177Y-96622851D01*
X190356792Y-96677123D01*
X189989426Y-96792792D01*
X190026269Y-96703846D01*
X190119000Y-96237660D01*
X190119000Y-95762340D01*
X190026269Y-95296154D01*
X189991094Y-95211234D01*
X190409409Y-95333343D01*
X190907823Y-95377149D01*
X191405208Y-95322877D01*
X191882447Y-95172613D01*
X192276595Y-94961937D01*
X192481301Y-94604907D01*
X190881000Y-93004605D01*
X190866858Y-93018748D01*
X190687253Y-92839143D01*
X190701395Y-92825000D01*
X191060605Y-92825000D01*
X192660907Y-94425301D01*
X193017937Y-94220595D01*
X193249143Y-93776883D01*
X193389343Y-93296591D01*
X193433149Y-92798177D01*
X193378877Y-92300792D01*
X193228613Y-91823553D01*
X193017937Y-91429405D01*
X192660907Y-91224699D01*
X191060605Y-92825000D01*
X190701395Y-92825000D01*
X189101093Y-91224699D01*
X188744063Y-91429405D01*
X188512857Y-91873117D01*
X188372657Y-92353409D01*
X188328851Y-92851823D01*
X188383123Y-93349208D01*
X188498792Y-93716574D01*
X188409846Y-93679731D01*
X187943660Y-93587000D01*
X187468340Y-93587000D01*
X187002154Y-93679731D01*
X186917234Y-93714906D01*
X187039343Y-93296591D01*
X187083149Y-92798177D01*
X187028877Y-92300792D01*
X186878613Y-91823553D01*
X186667937Y-91429405D01*
X186310907Y-91224699D01*
X184710605Y-92825000D01*
X184724748Y-92839143D01*
X184545143Y-93018748D01*
X184531000Y-93004605D01*
X182930699Y-94604907D01*
X177547887Y-94604907D01*
X175916041Y-92973061D01*
X180040000Y-92973061D01*
X180040000Y-93176939D01*
X180079774Y-93376898D01*
X180157795Y-93565256D01*
X180271063Y-93734774D01*
X180415226Y-93878937D01*
X180584744Y-93992205D01*
X180773102Y-94070226D01*
X180973061Y-94110000D01*
X181176939Y-94110000D01*
X181376898Y-94070226D01*
X181565256Y-93992205D01*
X181734774Y-93878937D01*
X181878937Y-93734774D01*
X181992205Y-93565256D01*
X182054100Y-93415830D01*
X182183387Y-93826447D01*
X182394063Y-94220595D01*
X182751093Y-94425301D01*
X184351395Y-92825000D01*
X182751093Y-91224699D01*
X182394063Y-91429405D01*
X182385000Y-91446798D01*
X182385000Y-91045093D01*
X182930699Y-91045093D01*
X184531000Y-92645395D01*
X186131301Y-91045093D01*
X189280699Y-91045093D01*
X190881000Y-92645395D01*
X192481301Y-91045093D01*
X192276595Y-90688063D01*
X191832883Y-90456857D01*
X191352591Y-90316657D01*
X190854177Y-90272851D01*
X190356792Y-90327123D01*
X189879553Y-90477387D01*
X189485405Y-90688063D01*
X189280699Y-91045093D01*
X186131301Y-91045093D01*
X185926595Y-90688063D01*
X185482883Y-90456857D01*
X185002591Y-90316657D01*
X184504177Y-90272851D01*
X184006792Y-90327123D01*
X183529553Y-90477387D01*
X183135405Y-90688063D01*
X182930699Y-91045093D01*
X182385000Y-91045093D01*
X182385000Y-87454907D01*
X182930699Y-87454907D01*
X183135405Y-87811937D01*
X183579117Y-88043143D01*
X184059409Y-88183343D01*
X184557823Y-88227149D01*
X185055208Y-88172877D01*
X185532447Y-88022613D01*
X185926595Y-87811937D01*
X186131301Y-87454907D01*
X189280699Y-87454907D01*
X189485405Y-87811937D01*
X189929117Y-88043143D01*
X190409409Y-88183343D01*
X190907823Y-88227149D01*
X191405208Y-88172877D01*
X191882447Y-88022613D01*
X192276595Y-87811937D01*
X192481301Y-87454907D01*
X190881000Y-85854605D01*
X189280699Y-87454907D01*
X186131301Y-87454907D01*
X184531000Y-85854605D01*
X182930699Y-87454907D01*
X182385000Y-87454907D01*
X182385000Y-87053639D01*
X182394063Y-87070595D01*
X182751093Y-87275301D01*
X184351395Y-85675000D01*
X182751093Y-84074699D01*
X182394063Y-84279405D01*
X182162857Y-84723117D01*
X182022657Y-85203409D01*
X181989346Y-85582418D01*
X181801898Y-85504774D01*
X181601939Y-85465000D01*
X181398061Y-85465000D01*
X181198102Y-85504774D01*
X181009744Y-85582795D01*
X180840226Y-85696063D01*
X180696063Y-85840226D01*
X180582795Y-86009744D01*
X180504774Y-86198102D01*
X180465000Y-86398061D01*
X180465000Y-86601939D01*
X180504774Y-86801898D01*
X180582795Y-86990256D01*
X180615000Y-87038454D01*
X180615001Y-92133421D01*
X180594787Y-92153635D01*
X180584744Y-92157795D01*
X180415226Y-92271063D01*
X180271063Y-92415226D01*
X180157795Y-92584744D01*
X180079774Y-92773102D01*
X180040000Y-92973061D01*
X175916041Y-92973061D01*
X173385000Y-90442020D01*
X173385000Y-89242000D01*
X174335928Y-89242000D01*
X174348188Y-89366482D01*
X174384498Y-89486180D01*
X174443463Y-89596494D01*
X174522815Y-89693185D01*
X174619506Y-89772537D01*
X174729820Y-89831502D01*
X174849518Y-89867812D01*
X174974000Y-89880072D01*
X175538250Y-89877000D01*
X175697000Y-89718250D01*
X175697000Y-88519000D01*
X175951000Y-88519000D01*
X175951000Y-89718250D01*
X176109750Y-89877000D01*
X176674000Y-89880072D01*
X176798482Y-89867812D01*
X176918180Y-89831502D01*
X177028494Y-89772537D01*
X177125185Y-89693185D01*
X177204537Y-89596494D01*
X177263502Y-89486180D01*
X177299812Y-89366482D01*
X177312072Y-89242000D01*
X177309000Y-88677750D01*
X177150250Y-88519000D01*
X175951000Y-88519000D01*
X175697000Y-88519000D01*
X174497750Y-88519000D01*
X174339000Y-88677750D01*
X174335928Y-89242000D01*
X173385000Y-89242000D01*
X173385000Y-87542000D01*
X174335928Y-87542000D01*
X174339000Y-88106250D01*
X174497750Y-88265000D01*
X175697000Y-88265000D01*
X175697000Y-88245000D01*
X175951000Y-88245000D01*
X175951000Y-88265000D01*
X177150250Y-88265000D01*
X177309000Y-88106250D01*
X177312072Y-87542000D01*
X177299812Y-87417518D01*
X177263502Y-87297820D01*
X177204537Y-87187506D01*
X177125185Y-87090815D01*
X177028494Y-87011463D01*
X176918180Y-86952498D01*
X176845620Y-86930487D01*
X176977475Y-86798632D01*
X177139990Y-86555411D01*
X177251932Y-86285158D01*
X177309000Y-85998260D01*
X177309000Y-85705740D01*
X177251932Y-85418842D01*
X177139990Y-85148589D01*
X176977475Y-84905368D01*
X176770632Y-84698525D01*
X176596240Y-84582000D01*
X176770632Y-84465475D01*
X176977475Y-84258632D01*
X177139990Y-84015411D01*
X177251932Y-83745158D01*
X177309000Y-83458260D01*
X177309000Y-83165740D01*
X177251932Y-82878842D01*
X177139990Y-82608589D01*
X176977475Y-82365368D01*
X176770632Y-82158525D01*
X176588466Y-82036805D01*
X176705355Y-81967178D01*
X176921588Y-81772269D01*
X177095641Y-81538920D01*
X177220825Y-81276099D01*
X177265476Y-81128890D01*
X177252820Y-81104907D01*
X182930699Y-81104907D01*
X183135405Y-81461937D01*
X183579117Y-81693143D01*
X184059409Y-81833343D01*
X184557823Y-81877149D01*
X185055208Y-81822877D01*
X185422574Y-81707208D01*
X185385731Y-81796154D01*
X185293000Y-82262340D01*
X185293000Y-82737660D01*
X185385731Y-83203846D01*
X185420906Y-83288766D01*
X185002591Y-83166657D01*
X184504177Y-83122851D01*
X184006792Y-83177123D01*
X183529553Y-83327387D01*
X183135405Y-83538063D01*
X182930699Y-83895093D01*
X184531000Y-85495395D01*
X184545143Y-85481253D01*
X184724748Y-85660858D01*
X184710605Y-85675000D01*
X186310907Y-87275301D01*
X186667937Y-87070595D01*
X186899143Y-86626883D01*
X187039343Y-86146591D01*
X187083149Y-85648177D01*
X187028877Y-85150792D01*
X186913208Y-84783426D01*
X187002154Y-84820269D01*
X187468340Y-84913000D01*
X187943660Y-84913000D01*
X188409846Y-84820269D01*
X188494766Y-84785094D01*
X188372657Y-85203409D01*
X188328851Y-85701823D01*
X188383123Y-86199208D01*
X188533387Y-86676447D01*
X188744063Y-87070595D01*
X189101093Y-87275301D01*
X190701395Y-85675000D01*
X191060605Y-85675000D01*
X192660907Y-87275301D01*
X193017937Y-87070595D01*
X193249143Y-86626883D01*
X193389343Y-86146591D01*
X193433149Y-85648177D01*
X193378877Y-85150792D01*
X193228613Y-84673553D01*
X193017937Y-84279405D01*
X192660907Y-84074699D01*
X191060605Y-85675000D01*
X190701395Y-85675000D01*
X190687253Y-85660858D01*
X190866858Y-85481253D01*
X190881000Y-85495395D01*
X192481301Y-83895093D01*
X192276595Y-83538063D01*
X191832883Y-83306857D01*
X191352591Y-83166657D01*
X190854177Y-83122851D01*
X190356792Y-83177123D01*
X189989426Y-83292792D01*
X190026269Y-83203846D01*
X190119000Y-82737660D01*
X190119000Y-82262340D01*
X190026269Y-81796154D01*
X189991094Y-81711234D01*
X190409409Y-81833343D01*
X190907823Y-81877149D01*
X191405208Y-81822877D01*
X191882447Y-81672613D01*
X192276595Y-81461937D01*
X192481301Y-81104907D01*
X190881000Y-79504605D01*
X190866858Y-79518748D01*
X190687253Y-79339143D01*
X190701395Y-79325000D01*
X191060605Y-79325000D01*
X192660907Y-80925301D01*
X193017937Y-80720595D01*
X193249143Y-80276883D01*
X193389343Y-79796591D01*
X193433149Y-79298177D01*
X193378877Y-78800792D01*
X193228613Y-78323553D01*
X193017937Y-77929405D01*
X192660907Y-77724699D01*
X191060605Y-79325000D01*
X190701395Y-79325000D01*
X189101093Y-77724699D01*
X188744063Y-77929405D01*
X188512857Y-78373117D01*
X188372657Y-78853409D01*
X188328851Y-79351823D01*
X188383123Y-79849208D01*
X188498792Y-80216574D01*
X188409846Y-80179731D01*
X187943660Y-80087000D01*
X187468340Y-80087000D01*
X187002154Y-80179731D01*
X186917234Y-80214906D01*
X187039343Y-79796591D01*
X187083149Y-79298177D01*
X187028877Y-78800792D01*
X186878613Y-78323553D01*
X186667937Y-77929405D01*
X186310907Y-77724699D01*
X184710605Y-79325000D01*
X184724748Y-79339143D01*
X184545143Y-79518748D01*
X184531000Y-79504605D01*
X182930699Y-81104907D01*
X177252820Y-81104907D01*
X177144155Y-80899000D01*
X175951000Y-80899000D01*
X175951000Y-80919000D01*
X175697000Y-80919000D01*
X175697000Y-80899000D01*
X174503845Y-80899000D01*
X174382524Y-81128890D01*
X174427175Y-81276099D01*
X174552359Y-81538920D01*
X174726412Y-81772269D01*
X174942645Y-81967178D01*
X175059534Y-82036805D01*
X174877368Y-82158525D01*
X174670525Y-82365368D01*
X174508010Y-82608589D01*
X174396068Y-82878842D01*
X174339000Y-83165740D01*
X174339000Y-83458260D01*
X174396068Y-83745158D01*
X174508010Y-84015411D01*
X174670525Y-84258632D01*
X174877368Y-84465475D01*
X175051760Y-84582000D01*
X174877368Y-84698525D01*
X174670525Y-84905368D01*
X174508010Y-85148589D01*
X174396068Y-85418842D01*
X174339000Y-85705740D01*
X174339000Y-85998260D01*
X174396068Y-86285158D01*
X174508010Y-86555411D01*
X174670525Y-86798632D01*
X174802380Y-86930487D01*
X174729820Y-86952498D01*
X174619506Y-87011463D01*
X174522815Y-87090815D01*
X174443463Y-87187506D01*
X174384498Y-87297820D01*
X174348188Y-87417518D01*
X174335928Y-87542000D01*
X173385000Y-87542000D01*
X173385000Y-80538454D01*
X173417205Y-80490256D01*
X173495226Y-80301898D01*
X173535000Y-80101939D01*
X173535000Y-79898061D01*
X173495226Y-79698102D01*
X173417205Y-79509744D01*
X173303937Y-79340226D01*
X173159774Y-79196063D01*
X172990256Y-79082795D01*
X172801898Y-79004774D01*
X172601939Y-78965000D01*
X172398061Y-78965000D01*
X172198102Y-79004774D01*
X172009744Y-79082795D01*
X171840226Y-79196063D01*
X171696063Y-79340226D01*
X171582795Y-79509744D01*
X171504774Y-79698102D01*
X171465000Y-79898061D01*
X171465000Y-80101939D01*
X171504774Y-80301898D01*
X171582795Y-80490256D01*
X171615000Y-80538454D01*
X171615000Y-81493000D01*
X171426061Y-81493000D01*
X171226102Y-81532774D01*
X171037744Y-81610795D01*
X170868226Y-81724063D01*
X170724063Y-81868226D01*
X170610795Y-82037744D01*
X170532774Y-82226102D01*
X170521465Y-82282956D01*
X167282957Y-85521465D01*
X167226102Y-85532774D01*
X167037744Y-85610795D01*
X166868226Y-85724063D01*
X166724063Y-85868226D01*
X166610795Y-86037744D01*
X166532774Y-86226102D01*
X166493000Y-86426061D01*
X161947501Y-86426061D01*
X161980825Y-86356099D01*
X162025476Y-86208890D01*
X161904155Y-85979000D01*
X160711000Y-85979000D01*
X160711000Y-85999000D01*
X160457000Y-85999000D01*
X160457000Y-85979000D01*
X159263845Y-85979000D01*
X159142524Y-86208890D01*
X159187175Y-86356099D01*
X159312359Y-86618920D01*
X159486412Y-86852269D01*
X159702645Y-87047178D01*
X159819534Y-87116805D01*
X159637368Y-87238525D01*
X159430525Y-87445368D01*
X159268010Y-87688589D01*
X159156068Y-87958842D01*
X159099000Y-88245740D01*
X153333941Y-88245740D01*
X153289206Y-88137743D01*
X153175938Y-87968225D01*
X153031775Y-87824062D01*
X152862257Y-87710794D01*
X152673899Y-87632773D01*
X152473940Y-87592999D01*
X152270062Y-87592999D01*
X152070103Y-87632773D01*
X151881745Y-87710794D01*
X151712227Y-87824062D01*
X151568064Y-87968225D01*
X151454796Y-88137743D01*
X151376775Y-88326101D01*
X151365466Y-88382955D01*
X150423422Y-89325000D01*
X143676790Y-89325000D01*
X143614312Y-89231495D01*
X143400505Y-89017688D01*
X143257690Y-88922262D01*
X143306475Y-88774080D01*
X142422000Y-87889605D01*
X141537525Y-88774080D01*
X141586310Y-88922262D01*
X141443495Y-89017688D01*
X141229688Y-89231495D01*
X141210000Y-89260960D01*
X141210000Y-88545776D01*
X141357920Y-88594475D01*
X142242395Y-87710000D01*
X142601605Y-87710000D01*
X143486080Y-88594475D01*
X143740261Y-88510792D01*
X143871158Y-88238225D01*
X143946365Y-87945358D01*
X143962991Y-87643447D01*
X143920397Y-87344093D01*
X143820222Y-87058801D01*
X143740261Y-86909208D01*
X143486080Y-86825525D01*
X142601605Y-87710000D01*
X142242395Y-87710000D01*
X141357920Y-86825525D01*
X141210000Y-86874224D01*
X141210000Y-86645920D01*
X141537525Y-86645920D01*
X142422000Y-87530395D01*
X143306475Y-86645920D01*
X143222792Y-86391739D01*
X142950225Y-86260842D01*
X142657358Y-86185635D01*
X142355447Y-86169009D01*
X142056093Y-86211603D01*
X141770801Y-86311778D01*
X141621208Y-86391739D01*
X141537525Y-86645920D01*
X141210000Y-86645920D01*
X141210000Y-85200475D01*
X147287000Y-85200475D01*
X147287000Y-85719525D01*
X147388261Y-86228601D01*
X147586893Y-86708141D01*
X147875262Y-87139715D01*
X148242285Y-87506738D01*
X148673859Y-87795107D01*
X149153399Y-87993739D01*
X149662475Y-88095000D01*
X150181525Y-88095000D01*
X150690601Y-87993739D01*
X151170141Y-87795107D01*
X151601715Y-87506738D01*
X151968738Y-87139715D01*
X152257107Y-86708141D01*
X152455739Y-86228601D01*
X152557000Y-85719525D01*
X152557000Y-85200475D01*
X152455739Y-84691399D01*
X152257107Y-84211859D01*
X151968738Y-83780285D01*
X151601715Y-83413262D01*
X151170141Y-83124893D01*
X150690601Y-82926261D01*
X150181525Y-82825000D01*
X149662475Y-82825000D01*
X149153399Y-82926261D01*
X148673859Y-83124893D01*
X148242285Y-83413262D01*
X147875262Y-83780285D01*
X147586893Y-84211859D01*
X147388261Y-84691399D01*
X147287000Y-85200475D01*
X141210000Y-85200475D01*
X141210000Y-77433912D01*
X141315701Y-77689095D01*
X141483688Y-77940505D01*
X141697495Y-78154312D01*
X141948905Y-78322299D01*
X142228257Y-78438011D01*
X142524816Y-78497000D01*
X142827184Y-78497000D01*
X143123743Y-78438011D01*
X143403095Y-78322299D01*
X143654505Y-78154312D01*
X143868312Y-77940505D01*
X144036299Y-77689095D01*
X144152011Y-77409743D01*
X144211000Y-77113184D01*
X144211000Y-76810816D01*
X144152011Y-76514257D01*
X144036299Y-76234905D01*
X143868312Y-75983495D01*
X143654505Y-75769688D01*
X143568169Y-75712000D01*
X143654505Y-75654312D01*
X143868312Y-75440505D01*
X144036299Y-75189095D01*
X144152011Y-74909743D01*
X144211000Y-74613184D01*
X144211000Y-74310816D01*
X144189060Y-74200518D01*
X144352579Y-74037000D01*
X159389344Y-74037000D01*
X159430525Y-74098632D01*
X159637368Y-74305475D01*
X159811760Y-74422000D01*
X159637368Y-74538525D01*
X159430525Y-74745368D01*
X159268010Y-74988589D01*
X159156068Y-75258842D01*
X159099000Y-75545740D01*
X159099000Y-75838260D01*
X159156068Y-76125158D01*
X159268010Y-76395411D01*
X159430525Y-76638632D01*
X159637368Y-76845475D01*
X159811760Y-76962000D01*
X159637368Y-77078525D01*
X159430525Y-77285368D01*
X159389344Y-77347000D01*
X158025092Y-77347000D01*
X157990312Y-77328410D01*
X157823489Y-77277804D01*
X157693476Y-77264999D01*
X157693468Y-77264999D01*
X157649999Y-77260718D01*
X157606530Y-77264999D01*
X156135468Y-77264999D01*
X156091999Y-77260718D01*
X156048530Y-77264999D01*
X156048522Y-77264999D01*
X155918509Y-77277804D01*
X155751685Y-77328410D01*
X155597940Y-77410588D01*
X155496952Y-77493467D01*
X155496950Y-77493469D01*
X155463182Y-77521182D01*
X155435469Y-77554950D01*
X152472501Y-80517919D01*
X152511107Y-80460141D01*
X152709739Y-79980601D01*
X152811000Y-79471525D01*
X152811000Y-78952475D01*
X152709739Y-78443399D01*
X152511107Y-77963859D01*
X152222738Y-77532285D01*
X151855715Y-77165262D01*
X151424141Y-76876893D01*
X150944601Y-76678261D01*
X150435525Y-76577000D01*
X149916475Y-76577000D01*
X149407399Y-76678261D01*
X148927859Y-76876893D01*
X148496285Y-77165262D01*
X148129262Y-77532285D01*
X147840893Y-77963859D01*
X147642261Y-78443399D01*
X147541000Y-78952475D01*
X147541000Y-79471525D01*
X147642261Y-79980601D01*
X147840893Y-80460141D01*
X148129262Y-80891715D01*
X148496285Y-81258738D01*
X148927859Y-81547107D01*
X149407399Y-81745739D01*
X149916475Y-81847000D01*
X150435525Y-81847000D01*
X150944601Y-81745739D01*
X151377461Y-81566442D01*
X151376775Y-81568099D01*
X151337001Y-81768058D01*
X151337001Y-81971936D01*
X151376775Y-82171895D01*
X151454796Y-82360253D01*
X151568064Y-82529771D01*
X151712227Y-82673934D01*
X151881745Y-82787202D01*
X152070103Y-82865223D01*
X152270062Y-82904997D01*
X152473940Y-82904997D01*
X152673899Y-82865223D01*
X152862257Y-82787202D01*
X153031775Y-82673934D01*
X153175938Y-82529771D01*
X153289206Y-82360253D01*
X153367227Y-82171895D01*
X153378536Y-82115040D01*
X155764933Y-79728644D01*
X155840226Y-79803937D01*
X156009744Y-79917205D01*
X156198102Y-79995226D01*
X156398061Y-80035000D01*
X156601939Y-80035000D01*
X156801898Y-79995226D01*
X156990256Y-79917205D01*
X157159774Y-79803937D01*
X157303937Y-79659774D01*
X157417205Y-79490256D01*
X157495226Y-79301898D01*
X157535000Y-79101939D01*
X157535000Y-79097063D01*
X157558510Y-79104195D01*
X157688523Y-79117000D01*
X157688531Y-79117000D01*
X157732000Y-79121281D01*
X157775469Y-79117000D01*
X159389344Y-79117000D01*
X159430525Y-79178632D01*
X159637368Y-79385475D01*
X159811760Y-79502000D01*
X159637368Y-79618525D01*
X159430525Y-79825368D01*
X159268010Y-80068589D01*
X159156068Y-80338842D01*
X159099000Y-80625740D01*
X159099000Y-80918260D01*
X159156068Y-81205158D01*
X159268010Y-81475411D01*
X159430525Y-81718632D01*
X159637368Y-81925475D01*
X159811760Y-82042000D01*
X159637368Y-82158525D01*
X159430525Y-82365368D01*
X159268010Y-82608589D01*
X159156068Y-82878842D01*
X159099000Y-83165740D01*
X159099000Y-83458260D01*
X159156068Y-83745158D01*
X159268010Y-84015411D01*
X159430525Y-84258632D01*
X159637368Y-84465475D01*
X159819534Y-84587195D01*
X159702645Y-84656822D01*
X159486412Y-84851731D01*
X159312359Y-85085080D01*
X159187175Y-85347901D01*
X159142524Y-85495110D01*
X159263845Y-85725000D01*
X160457000Y-85725000D01*
X160457000Y-85705000D01*
X160711000Y-85705000D01*
X160711000Y-85725000D01*
X161904155Y-85725000D01*
X162025476Y-85495110D01*
X161980825Y-85347901D01*
X161855641Y-85085080D01*
X161681588Y-84851731D01*
X161465355Y-84656822D01*
X161348466Y-84587195D01*
X161530632Y-84465475D01*
X161737475Y-84258632D01*
X161899990Y-84015411D01*
X162011932Y-83745158D01*
X162069000Y-83458260D01*
X162069000Y-83165740D01*
X162011932Y-82878842D01*
X161899990Y-82608589D01*
X161737475Y-82365368D01*
X161530632Y-82158525D01*
X161356240Y-82042000D01*
X161530632Y-81925475D01*
X161737475Y-81718632D01*
X161899990Y-81475411D01*
X162011932Y-81205158D01*
X162069000Y-80918260D01*
X162069000Y-80625740D01*
X162011932Y-80338842D01*
X161899990Y-80068589D01*
X161737475Y-79825368D01*
X161530632Y-79618525D01*
X161356240Y-79502000D01*
X161530632Y-79385475D01*
X161737475Y-79178632D01*
X161899990Y-78935411D01*
X162011932Y-78665158D01*
X162069000Y-78378260D01*
X162069000Y-78085740D01*
X162011932Y-77798842D01*
X161899990Y-77528589D01*
X161737475Y-77285368D01*
X161530632Y-77078525D01*
X161356240Y-76962000D01*
X161530632Y-76845475D01*
X161737475Y-76638632D01*
X161899990Y-76395411D01*
X162011932Y-76125158D01*
X162069000Y-75838260D01*
X162069000Y-75545740D01*
X162011932Y-75258842D01*
X161899990Y-74988589D01*
X161737475Y-74745368D01*
X161530632Y-74538525D01*
X161356240Y-74422000D01*
X161530632Y-74305475D01*
X161737475Y-74098632D01*
X161899990Y-73855411D01*
X162011932Y-73585158D01*
X162069000Y-73298260D01*
X162069000Y-73005740D01*
X162011932Y-72718842D01*
X161899990Y-72448589D01*
X161737475Y-72205368D01*
X161530632Y-71998525D01*
X161356240Y-71882000D01*
X161530632Y-71765475D01*
X161737475Y-71558632D01*
X161899990Y-71315411D01*
X162011932Y-71045158D01*
X162069000Y-70758260D01*
X162069000Y-70465740D01*
X162011932Y-70178842D01*
X161899990Y-69908589D01*
X161737475Y-69665368D01*
X161530632Y-69458525D01*
X161356240Y-69342000D01*
X161530632Y-69225475D01*
X161737475Y-69018632D01*
X161899990Y-68775411D01*
X162011932Y-68505158D01*
X162069000Y-68218260D01*
X162069000Y-67925740D01*
X162011932Y-67638842D01*
X161899990Y-67368589D01*
X161737475Y-67125368D01*
X161530632Y-66918525D01*
X161356240Y-66802000D01*
X161530632Y-66685475D01*
X161737475Y-66478632D01*
X161899990Y-66235411D01*
X162011932Y-65965158D01*
X162069000Y-65678260D01*
X162069000Y-65385740D01*
X162011932Y-65098842D01*
X161899990Y-64828589D01*
X161737475Y-64585368D01*
X161530632Y-64378525D01*
X161356240Y-64262000D01*
X161530632Y-64145475D01*
X161737475Y-63938632D01*
X161899990Y-63695411D01*
X162011932Y-63425158D01*
X162060652Y-63180230D01*
X162115001Y-63234580D01*
X162115000Y-69456531D01*
X162110719Y-69500000D01*
X162115000Y-69543469D01*
X162115000Y-69543476D01*
X162127805Y-69673489D01*
X162178411Y-69840312D01*
X162260589Y-69994058D01*
X162371183Y-70128817D01*
X162404956Y-70156534D01*
X162493465Y-70245043D01*
X162504774Y-70301898D01*
X162582795Y-70490256D01*
X162696063Y-70659774D01*
X162840226Y-70803937D01*
X163009744Y-70917205D01*
X163198102Y-70995226D01*
X163398061Y-71035000D01*
X163601939Y-71035000D01*
X163801898Y-70995226D01*
X163990256Y-70917205D01*
X164159774Y-70803937D01*
X164303937Y-70659774D01*
X164417205Y-70490256D01*
X164495226Y-70301898D01*
X164535000Y-70101939D01*
X164535000Y-69898061D01*
X164495226Y-69698102D01*
X164417205Y-69509744D01*
X164303937Y-69340226D01*
X164159774Y-69196063D01*
X163990256Y-69082795D01*
X163885000Y-69039196D01*
X163885000Y-62911469D01*
X163889281Y-62868000D01*
X163885000Y-62824531D01*
X163885000Y-62824523D01*
X163872195Y-62694510D01*
X163821589Y-62527687D01*
X163739411Y-62373941D01*
X163628817Y-62239183D01*
X163595049Y-62211470D01*
X162054539Y-60670961D01*
X162069000Y-60598260D01*
X162069000Y-60305740D01*
X162011932Y-60018842D01*
X161899990Y-59748589D01*
X161737475Y-59505368D01*
X161630168Y-59398061D01*
X169965000Y-59398061D01*
X169965000Y-59601939D01*
X170004774Y-59801898D01*
X170082795Y-59990256D01*
X170196063Y-60159774D01*
X170340226Y-60303937D01*
X170509744Y-60417205D01*
X170698102Y-60495226D01*
X170898061Y-60535000D01*
X171101939Y-60535000D01*
X171301898Y-60495226D01*
X171490256Y-60417205D01*
X171538454Y-60385000D01*
X171652531Y-60385000D01*
X171696000Y-60389281D01*
X171739469Y-60385000D01*
X171739477Y-60385000D01*
X171869490Y-60372195D01*
X172036313Y-60321589D01*
X172190059Y-60239411D01*
X172324817Y-60128817D01*
X172352534Y-60095044D01*
X174347348Y-58100230D01*
X174396068Y-58345158D01*
X174508010Y-58615411D01*
X174670525Y-58858632D01*
X174877368Y-59065475D01*
X175051760Y-59182000D01*
X174877368Y-59298525D01*
X174670525Y-59505368D01*
X174508010Y-59748589D01*
X174396068Y-60018842D01*
X174339000Y-60305740D01*
X174339000Y-60598260D01*
X174396068Y-60885158D01*
X174508010Y-61155411D01*
X174670525Y-61398632D01*
X174877368Y-61605475D01*
X175051760Y-61722000D01*
X174877368Y-61838525D01*
X174670525Y-62045368D01*
X174508010Y-62288589D01*
X174396068Y-62558842D01*
X174339000Y-62845740D01*
X174339000Y-63138260D01*
X174396068Y-63425158D01*
X174508010Y-63695411D01*
X174670525Y-63938632D01*
X174877368Y-64145475D01*
X175051760Y-64262000D01*
X174877368Y-64378525D01*
X174670525Y-64585368D01*
X174508010Y-64828589D01*
X174396068Y-65098842D01*
X174339000Y-65385740D01*
X174339000Y-65678260D01*
X174396068Y-65965158D01*
X174508010Y-66235411D01*
X174670525Y-66478632D01*
X174877368Y-66685475D01*
X175051760Y-66802000D01*
X174877368Y-66918525D01*
X174670525Y-67125368D01*
X174508010Y-67368589D01*
X174396068Y-67638842D01*
X174339000Y-67925740D01*
X174339000Y-68218260D01*
X174396068Y-68505158D01*
X174508010Y-68775411D01*
X174670525Y-69018632D01*
X174877368Y-69225475D01*
X175051760Y-69342000D01*
X174877368Y-69458525D01*
X174670525Y-69665368D01*
X174508010Y-69908589D01*
X174396068Y-70178842D01*
X174339000Y-70465740D01*
X174339000Y-70758260D01*
X174396068Y-71045158D01*
X174508010Y-71315411D01*
X174670525Y-71558632D01*
X174877368Y-71765475D01*
X175051760Y-71882000D01*
X174877368Y-71998525D01*
X174670525Y-72205368D01*
X174508010Y-72448589D01*
X174396068Y-72718842D01*
X174339000Y-73005740D01*
X174339000Y-73298260D01*
X174396068Y-73585158D01*
X174508010Y-73855411D01*
X174670525Y-74098632D01*
X174877368Y-74305475D01*
X175051760Y-74422000D01*
X174877368Y-74538525D01*
X174670525Y-74745368D01*
X174508010Y-74988589D01*
X174396068Y-75258842D01*
X174339000Y-75545740D01*
X174339000Y-75838260D01*
X174396068Y-76125158D01*
X174508010Y-76395411D01*
X174670525Y-76638632D01*
X174877368Y-76845475D01*
X175051760Y-76962000D01*
X174877368Y-77078525D01*
X174670525Y-77285368D01*
X174508010Y-77528589D01*
X174396068Y-77798842D01*
X174339000Y-78085740D01*
X174339000Y-78378260D01*
X174396068Y-78665158D01*
X174508010Y-78935411D01*
X174670525Y-79178632D01*
X174877368Y-79385475D01*
X175059534Y-79507195D01*
X174942645Y-79576822D01*
X174726412Y-79771731D01*
X174552359Y-80005080D01*
X174427175Y-80267901D01*
X174382524Y-80415110D01*
X174503845Y-80645000D01*
X175697000Y-80645000D01*
X175697000Y-80625000D01*
X175951000Y-80625000D01*
X175951000Y-80645000D01*
X177144155Y-80645000D01*
X177265476Y-80415110D01*
X177220825Y-80267901D01*
X177095641Y-80005080D01*
X176921588Y-79771731D01*
X176705355Y-79576822D01*
X176588466Y-79507195D01*
X176770632Y-79385475D01*
X176804284Y-79351823D01*
X181978851Y-79351823D01*
X182033123Y-79849208D01*
X182183387Y-80326447D01*
X182394063Y-80720595D01*
X182751093Y-80925301D01*
X184351395Y-79325000D01*
X182751093Y-77724699D01*
X182394063Y-77929405D01*
X182162857Y-78373117D01*
X182022657Y-78853409D01*
X181978851Y-79351823D01*
X176804284Y-79351823D01*
X176977475Y-79178632D01*
X177139990Y-78935411D01*
X177251932Y-78665158D01*
X177309000Y-78378260D01*
X177309000Y-78085740D01*
X177251932Y-77798842D01*
X177146827Y-77545093D01*
X182930699Y-77545093D01*
X184531000Y-79145395D01*
X186131301Y-77545093D01*
X189280699Y-77545093D01*
X190881000Y-79145395D01*
X192481301Y-77545093D01*
X192276595Y-77188063D01*
X191832883Y-76956857D01*
X191352591Y-76816657D01*
X190854177Y-76772851D01*
X190356792Y-76827123D01*
X189879553Y-76977387D01*
X189485405Y-77188063D01*
X189280699Y-77545093D01*
X186131301Y-77545093D01*
X185926595Y-77188063D01*
X185482883Y-76956857D01*
X185002591Y-76816657D01*
X184504177Y-76772851D01*
X184006792Y-76827123D01*
X183529553Y-76977387D01*
X183135405Y-77188063D01*
X182930699Y-77545093D01*
X177146827Y-77545093D01*
X177139990Y-77528589D01*
X176977475Y-77285368D01*
X176770632Y-77078525D01*
X176596240Y-76962000D01*
X176770632Y-76845475D01*
X176977475Y-76638632D01*
X177139990Y-76395411D01*
X177251932Y-76125158D01*
X177309000Y-75838260D01*
X177309000Y-75545740D01*
X177251932Y-75258842D01*
X177139990Y-74988589D01*
X176977475Y-74745368D01*
X176770632Y-74538525D01*
X176596240Y-74422000D01*
X176770632Y-74305475D01*
X176977475Y-74098632D01*
X177139990Y-73855411D01*
X177251932Y-73585158D01*
X177277840Y-73454907D01*
X182930699Y-73454907D01*
X183135405Y-73811937D01*
X183579117Y-74043143D01*
X184059409Y-74183343D01*
X184557823Y-74227149D01*
X185055208Y-74172877D01*
X185532447Y-74022613D01*
X185926595Y-73811937D01*
X186131301Y-73454907D01*
X189280699Y-73454907D01*
X189485405Y-73811937D01*
X189929117Y-74043143D01*
X190409409Y-74183343D01*
X190907823Y-74227149D01*
X191405208Y-74172877D01*
X191882447Y-74022613D01*
X192276595Y-73811937D01*
X192481301Y-73454907D01*
X190881000Y-71854605D01*
X189280699Y-73454907D01*
X186131301Y-73454907D01*
X184531000Y-71854605D01*
X182930699Y-73454907D01*
X177277840Y-73454907D01*
X177309000Y-73298260D01*
X177309000Y-73005740D01*
X177251932Y-72718842D01*
X177139990Y-72448589D01*
X176977475Y-72205368D01*
X176770632Y-71998525D01*
X176596240Y-71882000D01*
X176770632Y-71765475D01*
X176834284Y-71701823D01*
X181978851Y-71701823D01*
X182033123Y-72199208D01*
X182183387Y-72676447D01*
X182394063Y-73070595D01*
X182751093Y-73275301D01*
X184351395Y-71675000D01*
X182751093Y-70074699D01*
X182394063Y-70279405D01*
X182162857Y-70723117D01*
X182022657Y-71203409D01*
X181978851Y-71701823D01*
X176834284Y-71701823D01*
X176977475Y-71558632D01*
X177139990Y-71315411D01*
X177251932Y-71045158D01*
X177309000Y-70758260D01*
X177309000Y-70465740D01*
X177251932Y-70178842D01*
X177139990Y-69908589D01*
X176977475Y-69665368D01*
X176770632Y-69458525D01*
X176596240Y-69342000D01*
X176770632Y-69225475D01*
X176977475Y-69018632D01*
X177139990Y-68775411D01*
X177251932Y-68505158D01*
X177309000Y-68218260D01*
X177309000Y-67925740D01*
X177251932Y-67638842D01*
X177139990Y-67368589D01*
X176977475Y-67125368D01*
X176957014Y-67104907D01*
X182930699Y-67104907D01*
X183135405Y-67461937D01*
X183579117Y-67693143D01*
X184059409Y-67833343D01*
X184557823Y-67877149D01*
X185055208Y-67822877D01*
X185422574Y-67707208D01*
X185385731Y-67796154D01*
X185293000Y-68262340D01*
X185293000Y-68737660D01*
X185385731Y-69203846D01*
X185420906Y-69288766D01*
X185002591Y-69166657D01*
X184504177Y-69122851D01*
X184006792Y-69177123D01*
X183529553Y-69327387D01*
X183135405Y-69538063D01*
X182930699Y-69895093D01*
X184531000Y-71495395D01*
X184545143Y-71481253D01*
X184724748Y-71660858D01*
X184710605Y-71675000D01*
X186310907Y-73275301D01*
X186667937Y-73070595D01*
X186899143Y-72626883D01*
X187039343Y-72146591D01*
X187083149Y-71648177D01*
X187028877Y-71150792D01*
X186913208Y-70783426D01*
X187002154Y-70820269D01*
X187468340Y-70913000D01*
X187943660Y-70913000D01*
X188409846Y-70820269D01*
X188494766Y-70785094D01*
X188372657Y-71203409D01*
X188328851Y-71701823D01*
X188383123Y-72199208D01*
X188533387Y-72676447D01*
X188744063Y-73070595D01*
X189101093Y-73275301D01*
X190701395Y-71675000D01*
X191060605Y-71675000D01*
X192660907Y-73275301D01*
X193017937Y-73070595D01*
X193249143Y-72626883D01*
X193389343Y-72146591D01*
X193433149Y-71648177D01*
X193378877Y-71150792D01*
X193228613Y-70673553D01*
X193017937Y-70279405D01*
X192660907Y-70074699D01*
X191060605Y-71675000D01*
X190701395Y-71675000D01*
X190687253Y-71660858D01*
X190866858Y-71481253D01*
X190881000Y-71495395D01*
X192481301Y-69895093D01*
X192276595Y-69538063D01*
X191832883Y-69306857D01*
X191352591Y-69166657D01*
X190854177Y-69122851D01*
X190356792Y-69177123D01*
X189989426Y-69292792D01*
X190026269Y-69203846D01*
X190119000Y-68737660D01*
X190119000Y-68262340D01*
X190026269Y-67796154D01*
X189991094Y-67711234D01*
X190409409Y-67833343D01*
X190907823Y-67877149D01*
X191405208Y-67822877D01*
X191882447Y-67672613D01*
X192276595Y-67461937D01*
X192481301Y-67104907D01*
X190881000Y-65504605D01*
X190866858Y-65518748D01*
X190687253Y-65339143D01*
X190701395Y-65325000D01*
X191060605Y-65325000D01*
X192660907Y-66925301D01*
X193017937Y-66720595D01*
X193249143Y-66276883D01*
X193389343Y-65796591D01*
X193433149Y-65298177D01*
X193378877Y-64800792D01*
X193228613Y-64323553D01*
X193017937Y-63929405D01*
X192660907Y-63724699D01*
X191060605Y-65325000D01*
X190701395Y-65325000D01*
X189101093Y-63724699D01*
X188744063Y-63929405D01*
X188512857Y-64373117D01*
X188372657Y-64853409D01*
X188328851Y-65351823D01*
X188383123Y-65849208D01*
X188498792Y-66216574D01*
X188409846Y-66179731D01*
X187943660Y-66087000D01*
X187468340Y-66087000D01*
X187002154Y-66179731D01*
X186917234Y-66214906D01*
X187039343Y-65796591D01*
X187083149Y-65298177D01*
X187028877Y-64800792D01*
X186878613Y-64323553D01*
X186667937Y-63929405D01*
X186310907Y-63724699D01*
X184710605Y-65325000D01*
X184724748Y-65339143D01*
X184545143Y-65518748D01*
X184531000Y-65504605D01*
X182930699Y-67104907D01*
X176957014Y-67104907D01*
X176770632Y-66918525D01*
X176596240Y-66802000D01*
X176770632Y-66685475D01*
X176977475Y-66478632D01*
X177139990Y-66235411D01*
X177251932Y-65965158D01*
X177309000Y-65678260D01*
X177309000Y-65385740D01*
X177302254Y-65351823D01*
X181978851Y-65351823D01*
X182033123Y-65849208D01*
X182183387Y-66326447D01*
X182394063Y-66720595D01*
X182751093Y-66925301D01*
X184351395Y-65325000D01*
X182751093Y-63724699D01*
X182394063Y-63929405D01*
X182162857Y-64373117D01*
X182022657Y-64853409D01*
X181978851Y-65351823D01*
X177302254Y-65351823D01*
X177251932Y-65098842D01*
X177139990Y-64828589D01*
X176977475Y-64585368D01*
X176770632Y-64378525D01*
X176596240Y-64262000D01*
X176770632Y-64145475D01*
X176977475Y-63938632D01*
X177139990Y-63695411D01*
X177202253Y-63545093D01*
X182930699Y-63545093D01*
X184531000Y-65145395D01*
X186131301Y-63545093D01*
X189280699Y-63545093D01*
X190881000Y-65145395D01*
X192481301Y-63545093D01*
X192276595Y-63188063D01*
X191832883Y-62956857D01*
X191352591Y-62816657D01*
X190854177Y-62772851D01*
X190356792Y-62827123D01*
X189879553Y-62977387D01*
X189485405Y-63188063D01*
X189280699Y-63545093D01*
X186131301Y-63545093D01*
X185926595Y-63188063D01*
X185482883Y-62956857D01*
X185002591Y-62816657D01*
X184504177Y-62772851D01*
X184006792Y-62827123D01*
X183529553Y-62977387D01*
X183135405Y-63188063D01*
X182930699Y-63545093D01*
X177202253Y-63545093D01*
X177251932Y-63425158D01*
X177309000Y-63138260D01*
X177309000Y-62845740D01*
X177251932Y-62558842D01*
X177139990Y-62288589D01*
X176977475Y-62045368D01*
X176770632Y-61838525D01*
X176596240Y-61722000D01*
X176770632Y-61605475D01*
X176977475Y-61398632D01*
X177139990Y-61155411D01*
X177251932Y-60885158D01*
X177309000Y-60598260D01*
X177309000Y-60305740D01*
X177251932Y-60018842D01*
X177169117Y-59818907D01*
X182930699Y-59818907D01*
X183135405Y-60175937D01*
X183579117Y-60407143D01*
X184059409Y-60547343D01*
X184557823Y-60591149D01*
X185055208Y-60536877D01*
X185532447Y-60386613D01*
X185926595Y-60175937D01*
X186131301Y-59818907D01*
X189280699Y-59818907D01*
X189485405Y-60175937D01*
X189929117Y-60407143D01*
X190409409Y-60547343D01*
X190907823Y-60591149D01*
X191405208Y-60536877D01*
X191882447Y-60386613D01*
X192276595Y-60175937D01*
X192481301Y-59818907D01*
X190881000Y-58218605D01*
X189280699Y-59818907D01*
X186131301Y-59818907D01*
X184531000Y-58218605D01*
X182930699Y-59818907D01*
X177169117Y-59818907D01*
X177139990Y-59748589D01*
X176977475Y-59505368D01*
X176770632Y-59298525D01*
X176596240Y-59182000D01*
X176770632Y-59065475D01*
X176977475Y-58858632D01*
X177139990Y-58615411D01*
X177251932Y-58345158D01*
X177307495Y-58065823D01*
X181978851Y-58065823D01*
X182033123Y-58563208D01*
X182183387Y-59040447D01*
X182394063Y-59434595D01*
X182751093Y-59639301D01*
X184351395Y-58039000D01*
X182751093Y-56438699D01*
X182394063Y-56643405D01*
X182162857Y-57087117D01*
X182022657Y-57567409D01*
X181978851Y-58065823D01*
X177307495Y-58065823D01*
X177309000Y-58058260D01*
X177309000Y-57765740D01*
X177251932Y-57478842D01*
X177139990Y-57208589D01*
X176977475Y-56965368D01*
X176770632Y-56758525D01*
X176596240Y-56642000D01*
X176770632Y-56525475D01*
X176977475Y-56318632D01*
X177139990Y-56075411D01*
X177251932Y-55805158D01*
X177309000Y-55518260D01*
X177309000Y-55225740D01*
X177251932Y-54938842D01*
X177139990Y-54668589D01*
X176977475Y-54425368D01*
X176770632Y-54218525D01*
X176596240Y-54102000D01*
X176770632Y-53985475D01*
X176977475Y-53778632D01*
X177139990Y-53535411D01*
X177167536Y-53468907D01*
X182930699Y-53468907D01*
X183135405Y-53825937D01*
X183579117Y-54057143D01*
X184059409Y-54197343D01*
X184557823Y-54241149D01*
X185055208Y-54186877D01*
X185422574Y-54071208D01*
X185385731Y-54160154D01*
X185293000Y-54626340D01*
X185293000Y-55101660D01*
X185385731Y-55567846D01*
X185420906Y-55652766D01*
X185002591Y-55530657D01*
X184504177Y-55486851D01*
X184006792Y-55541123D01*
X183529553Y-55691387D01*
X183135405Y-55902063D01*
X182930699Y-56259093D01*
X184531000Y-57859395D01*
X184545143Y-57845253D01*
X184724748Y-58024858D01*
X184710605Y-58039000D01*
X186310907Y-59639301D01*
X186667937Y-59434595D01*
X186899143Y-58990883D01*
X187039343Y-58510591D01*
X187083149Y-58012177D01*
X187028877Y-57514792D01*
X186913208Y-57147426D01*
X187002154Y-57184269D01*
X187468340Y-57277000D01*
X187943660Y-57277000D01*
X188409846Y-57184269D01*
X188494766Y-57149094D01*
X188372657Y-57567409D01*
X188328851Y-58065823D01*
X188383123Y-58563208D01*
X188533387Y-59040447D01*
X188744063Y-59434595D01*
X189101093Y-59639301D01*
X190701395Y-58039000D01*
X191060605Y-58039000D01*
X192660907Y-59639301D01*
X193017937Y-59434595D01*
X193249143Y-58990883D01*
X193389343Y-58510591D01*
X193433149Y-58012177D01*
X193378877Y-57514792D01*
X193228613Y-57037553D01*
X193017937Y-56643405D01*
X192660907Y-56438699D01*
X191060605Y-58039000D01*
X190701395Y-58039000D01*
X190687253Y-58024858D01*
X190866858Y-57845253D01*
X190881000Y-57859395D01*
X192481301Y-56259093D01*
X192276595Y-55902063D01*
X191832883Y-55670857D01*
X191352591Y-55530657D01*
X190854177Y-55486851D01*
X190356792Y-55541123D01*
X189989426Y-55656792D01*
X190026269Y-55567846D01*
X190119000Y-55101660D01*
X190119000Y-54626340D01*
X190026269Y-54160154D01*
X189991094Y-54075234D01*
X190409409Y-54197343D01*
X190907823Y-54241149D01*
X191405208Y-54186877D01*
X191882447Y-54036613D01*
X192276595Y-53825937D01*
X192481301Y-53468907D01*
X190881000Y-51868605D01*
X190866858Y-51882748D01*
X190687253Y-51703143D01*
X190701395Y-51689000D01*
X191060605Y-51689000D01*
X192660907Y-53289301D01*
X193017937Y-53084595D01*
X193249143Y-52640883D01*
X193389343Y-52160591D01*
X193433149Y-51662177D01*
X193378877Y-51164792D01*
X193228613Y-50687553D01*
X193017937Y-50293405D01*
X192660907Y-50088699D01*
X191060605Y-51689000D01*
X190701395Y-51689000D01*
X189101093Y-50088699D01*
X188744063Y-50293405D01*
X188512857Y-50737117D01*
X188372657Y-51217409D01*
X188328851Y-51715823D01*
X188383123Y-52213208D01*
X188498792Y-52580574D01*
X188409846Y-52543731D01*
X187943660Y-52451000D01*
X187468340Y-52451000D01*
X187002154Y-52543731D01*
X186917234Y-52578906D01*
X187039343Y-52160591D01*
X187083149Y-51662177D01*
X187028877Y-51164792D01*
X186878613Y-50687553D01*
X186667937Y-50293405D01*
X186310907Y-50088699D01*
X184710605Y-51689000D01*
X184724748Y-51703143D01*
X184545143Y-51882748D01*
X184531000Y-51868605D01*
X182930699Y-53468907D01*
X177167536Y-53468907D01*
X177251932Y-53265158D01*
X177309000Y-52978260D01*
X177309000Y-52685740D01*
X177251932Y-52398842D01*
X177139990Y-52128589D01*
X176977475Y-51885368D01*
X176807930Y-51715823D01*
X181978851Y-51715823D01*
X182033123Y-52213208D01*
X182183387Y-52690447D01*
X182394063Y-53084595D01*
X182751093Y-53289301D01*
X184351395Y-51689000D01*
X182751093Y-50088699D01*
X182394063Y-50293405D01*
X182162857Y-50737117D01*
X182022657Y-51217409D01*
X181978851Y-51715823D01*
X176807930Y-51715823D01*
X176770632Y-51678525D01*
X176527411Y-51516010D01*
X176257158Y-51404068D01*
X175970260Y-51347000D01*
X175677740Y-51347000D01*
X175390842Y-51404068D01*
X175120589Y-51516010D01*
X174877368Y-51678525D01*
X174670525Y-51885368D01*
X174508010Y-52128589D01*
X174396068Y-52398842D01*
X174339000Y-52685740D01*
X174339000Y-52978260D01*
X174396068Y-53265158D01*
X174508010Y-53535411D01*
X174670525Y-53778632D01*
X174877368Y-53985475D01*
X175051760Y-54102000D01*
X174877368Y-54218525D01*
X174670525Y-54425368D01*
X174508010Y-54668589D01*
X174396068Y-54938842D01*
X174339000Y-55225740D01*
X174339000Y-55518260D01*
X174353461Y-55590960D01*
X171399302Y-58545120D01*
X171301898Y-58504774D01*
X171101939Y-58465000D01*
X170898061Y-58465000D01*
X170698102Y-58504774D01*
X170509744Y-58582795D01*
X170340226Y-58696063D01*
X170196063Y-58840226D01*
X170082795Y-59009744D01*
X170004774Y-59198102D01*
X169965000Y-59398061D01*
X161630168Y-59398061D01*
X161530632Y-59298525D01*
X161356240Y-59182000D01*
X161530632Y-59065475D01*
X161737475Y-58858632D01*
X161899990Y-58615411D01*
X162011932Y-58345158D01*
X162069000Y-58058260D01*
X162069000Y-57765740D01*
X162011932Y-57478842D01*
X161899990Y-57208589D01*
X161737475Y-56965368D01*
X161530632Y-56758525D01*
X161356240Y-56642000D01*
X161530632Y-56525475D01*
X161737475Y-56318632D01*
X161899990Y-56075411D01*
X162011932Y-55805158D01*
X162069000Y-55518260D01*
X162069000Y-55225740D01*
X162011932Y-54938842D01*
X161899990Y-54668589D01*
X161737475Y-54425368D01*
X161605620Y-54293513D01*
X161678180Y-54271502D01*
X161788494Y-54212537D01*
X161885185Y-54133185D01*
X161964537Y-54036494D01*
X162023502Y-53926180D01*
X162059812Y-53806482D01*
X162072072Y-53682000D01*
X162072072Y-51982000D01*
X162059812Y-51857518D01*
X162023502Y-51737820D01*
X161964537Y-51627506D01*
X161885185Y-51530815D01*
X161788494Y-51451463D01*
X161678180Y-51392498D01*
X161558482Y-51356188D01*
X161434000Y-51343928D01*
X159734000Y-51343928D01*
X159609518Y-51356188D01*
X159489820Y-51392498D01*
X159379506Y-51451463D01*
X159282815Y-51530815D01*
X159203463Y-51627506D01*
X159144498Y-51737820D01*
X159108188Y-51857518D01*
X159095928Y-51982000D01*
X159095928Y-53682000D01*
X159108188Y-53806482D01*
X159144498Y-53926180D01*
X159203463Y-54036494D01*
X159282815Y-54133185D01*
X159379506Y-54212537D01*
X159489820Y-54271502D01*
X159562380Y-54293513D01*
X159430525Y-54425368D01*
X159268010Y-54668589D01*
X159156068Y-54938842D01*
X159099000Y-55225740D01*
X159099000Y-55518260D01*
X159156068Y-55805158D01*
X159268010Y-56075411D01*
X159430525Y-56318632D01*
X159637368Y-56525475D01*
X159811760Y-56642000D01*
X159637368Y-56758525D01*
X159430525Y-56965368D01*
X159268010Y-57208589D01*
X159156068Y-57478842D01*
X159099000Y-57765740D01*
X159099000Y-58058260D01*
X159156068Y-58345158D01*
X159268010Y-58615411D01*
X159430525Y-58858632D01*
X159637368Y-59065475D01*
X159811760Y-59182000D01*
X159637368Y-59298525D01*
X159430525Y-59505368D01*
X159268010Y-59748589D01*
X159156068Y-60018842D01*
X159099000Y-60305740D01*
X159099000Y-60598260D01*
X159156068Y-60885158D01*
X159268010Y-61155411D01*
X159430525Y-61398632D01*
X159637368Y-61605475D01*
X159811760Y-61722000D01*
X159637368Y-61838525D01*
X159430525Y-62045368D01*
X159268010Y-62288589D01*
X159156068Y-62558842D01*
X159099000Y-62845740D01*
X159099000Y-63138260D01*
X159156068Y-63425158D01*
X159268010Y-63695411D01*
X159430525Y-63938632D01*
X159637368Y-64145475D01*
X159811760Y-64262000D01*
X159637368Y-64378525D01*
X159430525Y-64585368D01*
X159268010Y-64828589D01*
X159156068Y-65098842D01*
X159099000Y-65385740D01*
X159099000Y-65678260D01*
X159156068Y-65965158D01*
X159268010Y-66235411D01*
X159430525Y-66478632D01*
X159637368Y-66685475D01*
X159811760Y-66802000D01*
X159637368Y-66918525D01*
X159430525Y-67125368D01*
X159268010Y-67368589D01*
X159156068Y-67638842D01*
X159099000Y-67925740D01*
X159099000Y-68218260D01*
X159113461Y-68290960D01*
X156410957Y-70993465D01*
X156354102Y-71004774D01*
X156165744Y-71082795D01*
X155996226Y-71196063D01*
X155852063Y-71340226D01*
X155738795Y-71509744D01*
X155660774Y-71698102D01*
X155621000Y-71898061D01*
X155621000Y-72101939D01*
X155653832Y-72267000D01*
X150837714Y-72267000D01*
X150944601Y-72245739D01*
X151424141Y-72047107D01*
X151855715Y-71758738D01*
X152222738Y-71391715D01*
X152511107Y-70960141D01*
X152709739Y-70480601D01*
X152811000Y-69971525D01*
X152811000Y-69452475D01*
X152709739Y-68943399D01*
X152511107Y-68463859D01*
X152222738Y-68032285D01*
X151855715Y-67665262D01*
X151424141Y-67376893D01*
X150944601Y-67178261D01*
X150435525Y-67077000D01*
X149916475Y-67077000D01*
X149407399Y-67178261D01*
X148927859Y-67376893D01*
X148496285Y-67665262D01*
X148129262Y-68032285D01*
X147840893Y-68463859D01*
X147642261Y-68943399D01*
X147541000Y-69452475D01*
X147541000Y-69971525D01*
X147642261Y-70480601D01*
X147840893Y-70960141D01*
X148129262Y-71391715D01*
X148496285Y-71758738D01*
X148927859Y-72047107D01*
X149407399Y-72245739D01*
X149514286Y-72267000D01*
X144182481Y-72267000D01*
X144200365Y-72197358D01*
X144216991Y-71895447D01*
X144174397Y-71596093D01*
X144074222Y-71310801D01*
X143994261Y-71161208D01*
X143740080Y-71077525D01*
X142855605Y-71962000D01*
X142869748Y-71976143D01*
X142690143Y-72155748D01*
X142676000Y-72141605D01*
X141791525Y-73026080D01*
X141840310Y-73174262D01*
X141697495Y-73269688D01*
X141483688Y-73483495D01*
X141315701Y-73734905D01*
X141210000Y-73990088D01*
X141210000Y-72420172D01*
X141277778Y-72613199D01*
X141357739Y-72762792D01*
X141611920Y-72846475D01*
X142496395Y-71962000D01*
X141611920Y-71077525D01*
X141357739Y-71161208D01*
X141226842Y-71433775D01*
X141210000Y-71499360D01*
X141210000Y-70897920D01*
X141791525Y-70897920D01*
X142676000Y-71782395D01*
X143560475Y-70897920D01*
X143476792Y-70643739D01*
X143204225Y-70512842D01*
X142911358Y-70437635D01*
X142609447Y-70421009D01*
X142310093Y-70463603D01*
X142024801Y-70563778D01*
X141875208Y-70643739D01*
X141791525Y-70897920D01*
X141210000Y-70897920D01*
X141210000Y-62696475D01*
X147541000Y-62696475D01*
X147541000Y-63215525D01*
X147642261Y-63724601D01*
X147840893Y-64204141D01*
X148129262Y-64635715D01*
X148496285Y-65002738D01*
X148927859Y-65291107D01*
X149407399Y-65489739D01*
X149916475Y-65591000D01*
X150435525Y-65591000D01*
X150944601Y-65489739D01*
X151424141Y-65291107D01*
X151855715Y-65002738D01*
X152222738Y-64635715D01*
X152511107Y-64204141D01*
X152709739Y-63724601D01*
X152811000Y-63215525D01*
X152811000Y-62696475D01*
X152709739Y-62187399D01*
X152511107Y-61707859D01*
X152222738Y-61276285D01*
X151855715Y-60909262D01*
X151424141Y-60620893D01*
X150944601Y-60422261D01*
X150435525Y-60321000D01*
X149916475Y-60321000D01*
X149407399Y-60422261D01*
X148927859Y-60620893D01*
X148496285Y-60909262D01*
X148129262Y-61276285D01*
X147840893Y-61707859D01*
X147642261Y-62187399D01*
X147541000Y-62696475D01*
X141210000Y-62696475D01*
X141210000Y-61177912D01*
X141315701Y-61433095D01*
X141483688Y-61684505D01*
X141697495Y-61898312D01*
X141948905Y-62066299D01*
X142228257Y-62182011D01*
X142524816Y-62241000D01*
X142827184Y-62241000D01*
X143123743Y-62182011D01*
X143403095Y-62066299D01*
X143654505Y-61898312D01*
X143868312Y-61684505D01*
X144036299Y-61433095D01*
X144152011Y-61153743D01*
X144211000Y-60857184D01*
X144211000Y-60554816D01*
X144152011Y-60258257D01*
X144036299Y-59978905D01*
X143868312Y-59727495D01*
X143654505Y-59513688D01*
X143568169Y-59456000D01*
X143654505Y-59398312D01*
X143868312Y-59184505D01*
X144036299Y-58933095D01*
X144152011Y-58653743D01*
X144153141Y-58648061D01*
X150715000Y-58648061D01*
X150715000Y-58851939D01*
X150754774Y-59051898D01*
X150832795Y-59240256D01*
X150946063Y-59409774D01*
X151090226Y-59553937D01*
X151259744Y-59667205D01*
X151448102Y-59745226D01*
X151504957Y-59756535D01*
X156243465Y-64495044D01*
X156254774Y-64551898D01*
X156332795Y-64740256D01*
X156446063Y-64909774D01*
X156590226Y-65053937D01*
X156759744Y-65167205D01*
X156948102Y-65245226D01*
X157148061Y-65285000D01*
X157351939Y-65285000D01*
X157551898Y-65245226D01*
X157740256Y-65167205D01*
X157909774Y-65053937D01*
X158053937Y-64909774D01*
X158167205Y-64740256D01*
X158245226Y-64551898D01*
X158285000Y-64351939D01*
X158285000Y-64148061D01*
X158245226Y-63948102D01*
X158167205Y-63759744D01*
X158053937Y-63590226D01*
X157909774Y-63446063D01*
X157740256Y-63332795D01*
X157551898Y-63254774D01*
X157495044Y-63243465D01*
X152756535Y-58504957D01*
X152745226Y-58448102D01*
X152667205Y-58259744D01*
X152553937Y-58090226D01*
X152409774Y-57946063D01*
X152240256Y-57832795D01*
X152051898Y-57754774D01*
X151851939Y-57715000D01*
X151648061Y-57715000D01*
X151448102Y-57754774D01*
X151259744Y-57832795D01*
X151090226Y-57946063D01*
X150946063Y-58090226D01*
X150832795Y-58259744D01*
X150754774Y-58448102D01*
X150715000Y-58648061D01*
X144153141Y-58648061D01*
X144211000Y-58357184D01*
X144211000Y-58054816D01*
X144152011Y-57758257D01*
X144036299Y-57478905D01*
X143868312Y-57227495D01*
X143654505Y-57013688D01*
X143511690Y-56918262D01*
X143560475Y-56770080D01*
X142676000Y-55885605D01*
X141791525Y-56770080D01*
X141840310Y-56918262D01*
X141697495Y-57013688D01*
X141483688Y-57227495D01*
X141315701Y-57478905D01*
X141210000Y-57734088D01*
X141210000Y-56164172D01*
X141277778Y-56357199D01*
X141357739Y-56506792D01*
X141611920Y-56590475D01*
X142496395Y-55706000D01*
X142855605Y-55706000D01*
X143740080Y-56590475D01*
X143994261Y-56506792D01*
X144125158Y-56234225D01*
X144200365Y-55941358D01*
X144216991Y-55639447D01*
X144174397Y-55340093D01*
X144074222Y-55054801D01*
X143994261Y-54905208D01*
X143740080Y-54821525D01*
X142855605Y-55706000D01*
X142496395Y-55706000D01*
X141611920Y-54821525D01*
X141357739Y-54905208D01*
X141226842Y-55177775D01*
X141210000Y-55243360D01*
X141210000Y-54641920D01*
X141791525Y-54641920D01*
X142676000Y-55526395D01*
X143560475Y-54641920D01*
X143476792Y-54387739D01*
X143204225Y-54256842D01*
X142911358Y-54181635D01*
X142609447Y-54165009D01*
X142310093Y-54207603D01*
X142024801Y-54307778D01*
X141875208Y-54387739D01*
X141791525Y-54641920D01*
X141210000Y-54641920D01*
X141210000Y-53196475D01*
X147541000Y-53196475D01*
X147541000Y-53715525D01*
X147642261Y-54224601D01*
X147840893Y-54704141D01*
X148129262Y-55135715D01*
X148496285Y-55502738D01*
X148927859Y-55791107D01*
X149407399Y-55989739D01*
X149916475Y-56091000D01*
X150435525Y-56091000D01*
X150944601Y-55989739D01*
X151424141Y-55791107D01*
X151855715Y-55502738D01*
X152222738Y-55135715D01*
X152511107Y-54704141D01*
X152709739Y-54224601D01*
X152811000Y-53715525D01*
X152811000Y-53196475D01*
X152709739Y-52687399D01*
X152511107Y-52207859D01*
X152222738Y-51776285D01*
X151855715Y-51409262D01*
X151424141Y-51120893D01*
X150944601Y-50922261D01*
X150435525Y-50821000D01*
X149916475Y-50821000D01*
X149407399Y-50922261D01*
X148927859Y-51120893D01*
X148496285Y-51409262D01*
X148129262Y-51776285D01*
X147840893Y-52207859D01*
X147642261Y-52687399D01*
X147541000Y-53196475D01*
X141210000Y-53196475D01*
X141210000Y-50012632D01*
X183162075Y-49537808D01*
X183135405Y-49552063D01*
X182930699Y-49909093D01*
X184531000Y-51509395D01*
X186131301Y-49909093D01*
X185926595Y-49552063D01*
X185841047Y-49507486D01*
X188446241Y-49478000D01*
X189623967Y-49478000D01*
X189485405Y-49552063D01*
M02*
