G04 #@! TF.GenerationSoftware,KiCad,Pcbnew,5.1.6-c6e7f7d~87~ubuntu20.04.1*
G04 #@! TF.CreationDate,2020-08-05T12:50:38+01:00*
G04 #@! TF.ProjectId,spikeling,7370696b-656c-4696-9e67-2e6b69636164,rev?*
G04 #@! TF.SameCoordinates,Original*
G04 #@! TF.FileFunction,Other,User*
%FSLAX46Y46*%
G04 Gerber Fmt 4.6, Leading zero omitted, Abs format (unit mm)*
G04 Created by KiCad (PCBNEW 5.1.6-c6e7f7d~87~ubuntu20.04.1) date 2020-08-05 12:50:38*
%MOMM*%
%LPD*%
G01*
G04 APERTURE LIST*
%ADD10C,0.050000*%
G04 APERTURE END LIST*
D10*
X151562500Y-53580000D02*
X151562500Y-50420000D01*
X151562500Y-50420000D02*
X156462500Y-50420000D01*
X156462500Y-50420000D02*
X156462500Y-53580000D01*
X156462500Y-53580000D02*
X151562500Y-53580000D01*
X193175000Y-80175000D02*
X193175000Y-91175000D01*
X193175000Y-91175000D02*
X182175000Y-91175000D01*
X182175000Y-91175000D02*
X182175000Y-80175000D01*
X182175000Y-80175000D02*
X193175000Y-80175000D01*
X177950000Y-111620000D02*
X173050000Y-111620000D01*
X177950000Y-109380000D02*
X177950000Y-111620000D01*
X173050000Y-109380000D02*
X177950000Y-109380000D01*
X173050000Y-111620000D02*
X173050000Y-109380000D01*
X165550000Y-62380000D02*
X170450000Y-62380000D01*
X165550000Y-64620000D02*
X165550000Y-62380000D01*
X170450000Y-64620000D02*
X165550000Y-64620000D01*
X170450000Y-62380000D02*
X170450000Y-64620000D01*
X164880000Y-90950000D02*
X164880000Y-86050000D01*
X167120000Y-90950000D02*
X164880000Y-90950000D01*
X167120000Y-86050000D02*
X167120000Y-90950000D01*
X164880000Y-86050000D02*
X167120000Y-86050000D01*
X170450000Y-60620000D02*
X165550000Y-60620000D01*
X170450000Y-58380000D02*
X170450000Y-60620000D01*
X165550000Y-58380000D02*
X170450000Y-58380000D01*
X165550000Y-60620000D02*
X165550000Y-58380000D01*
X170450000Y-56620000D02*
X165550000Y-56620000D01*
X170450000Y-54380000D02*
X170450000Y-56620000D01*
X165550000Y-54380000D02*
X170450000Y-54380000D01*
X165550000Y-56620000D02*
X165550000Y-54380000D01*
X162384000Y-51032000D02*
X158784000Y-51032000D01*
X162384000Y-90182000D02*
X162384000Y-51032000D01*
X158784000Y-90182000D02*
X162384000Y-90182000D01*
X158784000Y-51032000D02*
X158784000Y-90182000D01*
X174024000Y-90192000D02*
X177624000Y-90192000D01*
X174024000Y-51042000D02*
X174024000Y-90192000D01*
X177624000Y-51042000D02*
X174024000Y-51042000D01*
X177624000Y-90192000D02*
X177624000Y-51042000D01*
X155022000Y-89500000D02*
X141272000Y-89500000D01*
X155022000Y-103500000D02*
X155022000Y-89500000D01*
X141272000Y-103500000D02*
X155022000Y-103500000D01*
X141272000Y-89500000D02*
X141272000Y-103500000D01*
X141350000Y-72000000D02*
X141350000Y-86000000D01*
X141350000Y-86000000D02*
X155100000Y-86000000D01*
X155100000Y-86000000D02*
X155100000Y-72000000D01*
X155100000Y-72000000D02*
X141350000Y-72000000D01*
X155100000Y-54500000D02*
X141350000Y-54500000D01*
X155100000Y-68500000D02*
X155100000Y-54500000D01*
X141350000Y-68500000D02*
X155100000Y-68500000D01*
X141350000Y-54500000D02*
X141350000Y-68500000D01*
X141350000Y-107000000D02*
X141350000Y-121000000D01*
X141350000Y-121000000D02*
X155100000Y-121000000D01*
X155100000Y-121000000D02*
X155100000Y-107000000D01*
X155100000Y-107000000D02*
X141350000Y-107000000D01*
X193206000Y-49825000D02*
X193206000Y-60825000D01*
X193206000Y-60825000D02*
X182206000Y-60825000D01*
X182206000Y-60825000D02*
X182206000Y-49825000D01*
X182206000Y-49825000D02*
X193206000Y-49825000D01*
X182000000Y-65000000D02*
X193000000Y-65000000D01*
X182000000Y-76000000D02*
X182000000Y-65000000D01*
X193000000Y-76000000D02*
X182000000Y-76000000D01*
X193000000Y-65000000D02*
X193000000Y-76000000D01*
X193325000Y-95000000D02*
X193325000Y-106000000D01*
X193325000Y-106000000D02*
X182325000Y-106000000D01*
X182325000Y-106000000D02*
X182325000Y-95000000D01*
X182325000Y-95000000D02*
X193325000Y-95000000D01*
X182175000Y-109675000D02*
X193175000Y-109675000D01*
X182175000Y-120675000D02*
X182175000Y-109675000D01*
X193175000Y-120675000D02*
X182175000Y-120675000D01*
X193175000Y-109675000D02*
X193175000Y-120675000D01*
X169750000Y-94050000D02*
X169750000Y-97950000D01*
X170250000Y-94050000D02*
X169750000Y-94050000D01*
X170250000Y-91250000D02*
X179750000Y-91250000D01*
X179750000Y-100750000D02*
X170250000Y-100750000D01*
X170250000Y-91250000D02*
X170250000Y-94050000D01*
X170250000Y-97950000D02*
X170250000Y-100750000D01*
X170250000Y-97950000D02*
X169750000Y-97950000D01*
X179750000Y-97950000D02*
X179750000Y-100750000D01*
X179750000Y-97950000D02*
X180250000Y-97950000D01*
X180250000Y-94050000D02*
X180250000Y-97950000D01*
X179750000Y-94050000D02*
X180250000Y-94050000D01*
X179750000Y-91250000D02*
X179750000Y-94050000D01*
X157500000Y-110500000D02*
X157250000Y-110500000D01*
X157250000Y-110500000D02*
X157250000Y-125500000D01*
X157500000Y-110500000D02*
X160000000Y-110500000D01*
X160000000Y-110500000D02*
X160000000Y-109500000D01*
X160000000Y-109500000D02*
X164000000Y-109500000D01*
X164000000Y-109500000D02*
X164000000Y-110500000D01*
X164000000Y-110500000D02*
X166750000Y-110500000D01*
X166750000Y-110500000D02*
X166750000Y-112500000D01*
X166750000Y-112500000D02*
X168750000Y-112500000D01*
X168750000Y-112500000D02*
X168750000Y-116500000D01*
X168750000Y-116500000D02*
X166750000Y-116500000D01*
X166750000Y-116500000D02*
X166750000Y-125500000D01*
X166750000Y-125500000D02*
X157250000Y-125500000D01*
X167000000Y-103750000D02*
X157000000Y-103750000D01*
X167000000Y-97250000D02*
X157000000Y-97250000D01*
X167000000Y-103750000D02*
X167000000Y-97250000D01*
X157000000Y-97250000D02*
X157000000Y-103750000D01*
X171680000Y-118920000D02*
X171680000Y-115080000D01*
X171680000Y-115080000D02*
X179320000Y-115080000D01*
X179320000Y-115080000D02*
X179320000Y-118920000D01*
X179320000Y-118920000D02*
X171680000Y-118920000D01*
M02*
