G04 #@! TF.GenerationSoftware,KiCad,Pcbnew,5.1.6-c6e7f7d~87~ubuntu20.04.1*
G04 #@! TF.CreationDate,2020-07-16T12:52:22+01:00*
G04 #@! TF.ProjectId,spikeling,7370696b-656c-4696-9e67-2e6b69636164,rev?*
G04 #@! TF.SameCoordinates,Original*
G04 #@! TF.FileFunction,Copper,L2,Bot*
G04 #@! TF.FilePolarity,Positive*
%FSLAX46Y46*%
G04 Gerber Fmt 4.6, Leading zero omitted, Abs format (unit mm)*
G04 Created by KiCad (PCBNEW 5.1.6-c6e7f7d~87~ubuntu20.04.1) date 2020-07-16 12:52:22*
%MOMM*%
%LPD*%
G01*
G04 APERTURE LIST*
G04 #@! TA.AperFunction,ComponentPad*
%ADD10C,3.810000*%
G04 #@! TD*
G04 #@! TA.AperFunction,ComponentPad*
%ADD11C,3.556000*%
G04 #@! TD*
G04 #@! TA.AperFunction,ComponentPad*
%ADD12O,1.700000X1.700000*%
G04 #@! TD*
G04 #@! TA.AperFunction,ComponentPad*
%ADD13R,1.700000X1.700000*%
G04 #@! TD*
G04 #@! TA.AperFunction,WasherPad*
%ADD14C,4.000000*%
G04 #@! TD*
G04 #@! TA.AperFunction,ComponentPad*
%ADD15C,1.800000*%
G04 #@! TD*
G04 #@! TA.AperFunction,ComponentPad*
%ADD16R,3.500000X3.500000*%
G04 #@! TD*
G04 #@! TA.AperFunction,ViaPad*
%ADD17C,0.800000*%
G04 #@! TD*
G04 #@! TA.AperFunction,Conductor*
%ADD18C,0.500000*%
G04 #@! TD*
G04 #@! TA.AperFunction,Conductor*
%ADD19C,0.254000*%
G04 #@! TD*
G04 APERTURE END LIST*
D10*
X184500000Y-82500000D03*
D11*
X187675000Y-85675000D03*
D10*
X190850000Y-82500000D03*
X184500000Y-88850000D03*
X190850000Y-88850000D03*
D12*
X160584000Y-88392000D03*
X160584000Y-85852000D03*
X160584000Y-83312000D03*
X160584000Y-80772000D03*
X160584000Y-78232000D03*
X160584000Y-75692000D03*
X160584000Y-73152000D03*
X160584000Y-70612000D03*
X160584000Y-68072000D03*
X160584000Y-65532000D03*
X160584000Y-62992000D03*
X160584000Y-60452000D03*
X160584000Y-57912000D03*
X160584000Y-55372000D03*
D13*
X160584000Y-52832000D03*
D12*
X175824000Y-52832000D03*
X175824000Y-55372000D03*
X175824000Y-57912000D03*
X175824000Y-60452000D03*
X175824000Y-62992000D03*
X175824000Y-65532000D03*
X175824000Y-68072000D03*
X175824000Y-70612000D03*
X175824000Y-73152000D03*
X175824000Y-75692000D03*
X175824000Y-78232000D03*
X175824000Y-80772000D03*
X175824000Y-83312000D03*
X175824000Y-85852000D03*
D13*
X175824000Y-88392000D03*
D14*
X149922000Y-101250000D03*
X149922000Y-91750000D03*
D15*
X142422000Y-99000000D03*
X142422000Y-96500000D03*
X142422000Y-94000000D03*
X142500000Y-76500000D03*
X142500000Y-79000000D03*
X142500000Y-81500000D03*
D14*
X150000000Y-74250000D03*
X150000000Y-83750000D03*
X150000000Y-66250000D03*
X150000000Y-56750000D03*
D15*
X142500000Y-64000000D03*
X142500000Y-61500000D03*
X142500000Y-59000000D03*
X142500000Y-111500000D03*
X142500000Y-114000000D03*
X142500000Y-116500000D03*
D14*
X150000000Y-109250000D03*
X150000000Y-118750000D03*
D10*
X184531000Y-52150000D03*
D11*
X187706000Y-55325000D03*
D10*
X190881000Y-52150000D03*
X184531000Y-58500000D03*
X190881000Y-58500000D03*
X190675000Y-73675000D03*
X184325000Y-73675000D03*
X190675000Y-67325000D03*
D11*
X187500000Y-70500000D03*
D10*
X184325000Y-67325000D03*
X184650000Y-97325000D03*
D11*
X187825000Y-100500000D03*
D10*
X191000000Y-97325000D03*
X184650000Y-103675000D03*
X191000000Y-103675000D03*
X190850000Y-118350000D03*
X184500000Y-118350000D03*
X190850000Y-112000000D03*
D11*
X187675000Y-115175000D03*
D10*
X184500000Y-112000000D03*
D16*
X162000000Y-111500000D03*
G04 #@! TA.AperFunction,ComponentPad*
G36*
G01*
X163000000Y-119000000D02*
X161000000Y-119000000D01*
G75*
G02*
X160250000Y-118250000I0J750000D01*
G01*
X160250000Y-116750000D01*
G75*
G02*
X161000000Y-116000000I750000J0D01*
G01*
X163000000Y-116000000D01*
G75*
G02*
X163750000Y-116750000I0J-750000D01*
G01*
X163750000Y-118250000D01*
G75*
G02*
X163000000Y-119000000I-750000J0D01*
G01*
G37*
G04 #@! TD.AperFunction*
G04 #@! TA.AperFunction,ComponentPad*
G36*
G01*
X167575000Y-116250000D02*
X165825000Y-116250000D01*
G75*
G02*
X164950000Y-115375000I0J875000D01*
G01*
X164950000Y-113625000D01*
G75*
G02*
X165825000Y-112750000I875000J0D01*
G01*
X167575000Y-112750000D01*
G75*
G02*
X168450000Y-113625000I0J-875000D01*
G01*
X168450000Y-115375000D01*
G75*
G02*
X167575000Y-116250000I-875000J0D01*
G01*
G37*
G04 #@! TD.AperFunction*
D17*
X171000000Y-63500000D03*
X170650000Y-101137500D03*
X170500000Y-118000000D03*
X150500000Y-52500000D03*
X171527999Y-78000000D03*
X181500000Y-83000000D03*
X181075000Y-93075000D03*
X163500000Y-70000000D03*
X181180001Y-71319999D03*
X177500000Y-91500000D03*
X180000000Y-89000000D03*
X171000000Y-59500000D03*
X171528000Y-82528000D03*
X167528000Y-86528000D03*
X154158000Y-84658000D03*
X150500000Y-88500000D03*
X153500000Y-71000000D03*
X149500000Y-71000000D03*
X151500000Y-79000000D03*
X162500000Y-84000000D03*
X163000000Y-88000000D03*
X155000000Y-109000000D03*
X150000000Y-114000000D03*
D18*
X187706000Y-109956000D02*
X187706000Y-111706000D01*
X185250000Y-107500000D02*
X187706000Y-109956000D01*
X179500000Y-107500000D02*
X185250000Y-107500000D01*
X187706000Y-111706000D02*
X187706000Y-115675000D01*
X173000000Y-101000000D02*
X179500000Y-107500000D01*
X173000000Y-79472001D02*
X173000000Y-101000000D01*
X171527999Y-78000000D02*
X173000000Y-79472001D01*
X181500000Y-86500000D02*
X181500000Y-92500000D01*
X181075000Y-92925000D02*
X181075000Y-93075000D01*
X181500000Y-92500000D02*
X181075000Y-92925000D01*
X181500000Y-86500000D02*
X181500000Y-83000000D01*
X163500000Y-70000000D02*
X163000000Y-69500000D01*
X163000000Y-62868000D02*
X160584000Y-60452000D01*
X163000000Y-69500000D02*
X163000000Y-62868000D01*
X187706000Y-58730000D02*
X187706000Y-55325000D01*
X175824000Y-70612000D02*
X187706000Y-58730000D01*
X177656001Y-71319999D02*
X177488000Y-71488000D01*
X181180001Y-71319999D02*
X177656001Y-71319999D01*
X177656001Y-71319999D02*
X175824000Y-73152000D01*
X180000000Y-89000000D02*
X177500000Y-91500000D01*
X162000000Y-89808000D02*
X160584000Y-88392000D01*
X162000000Y-106500000D02*
X162000000Y-89808000D01*
X162000000Y-106500000D02*
X162000000Y-111500000D01*
X171696000Y-59500000D02*
X171000000Y-59500000D01*
X175824000Y-55372000D02*
X171696000Y-59500000D01*
X171528000Y-82528000D02*
X167528000Y-86528000D01*
X154158000Y-84842000D02*
X154158000Y-84658000D01*
X150500000Y-88500000D02*
X154158000Y-84842000D01*
X153500000Y-71000000D02*
X149500000Y-71000000D01*
X160584000Y-73152000D02*
X157348000Y-73152000D01*
X157348000Y-73152000D02*
X155500000Y-75000000D01*
X155500000Y-75000000D02*
X151500000Y-79000000D01*
X162500000Y-84000000D02*
X163000000Y-84500000D01*
X163000000Y-84500000D02*
X163000000Y-88000000D01*
X155000000Y-109000000D02*
X150000000Y-114000000D01*
D19*
G36*
X194867143Y-51186765D02*
G01*
X194625464Y-120790000D01*
X191558026Y-120790000D01*
X191851447Y-120697613D01*
X192245595Y-120486937D01*
X192450301Y-120129907D01*
X190850000Y-118529605D01*
X189249699Y-120129907D01*
X189454405Y-120486937D01*
X189898117Y-120718143D01*
X190144282Y-120790000D01*
X185208026Y-120790000D01*
X185501447Y-120697613D01*
X185895595Y-120486937D01*
X186100301Y-120129907D01*
X184500000Y-118529605D01*
X182899699Y-120129907D01*
X183104405Y-120486937D01*
X183548117Y-120718143D01*
X183794282Y-120790000D01*
X151686453Y-120790000D01*
X152046738Y-120429715D01*
X152335107Y-119998141D01*
X152533739Y-119518601D01*
X152635000Y-119009525D01*
X152635000Y-119000000D01*
X159611928Y-119000000D01*
X159624188Y-119124482D01*
X159660498Y-119244180D01*
X159719463Y-119354494D01*
X159798815Y-119451185D01*
X159895506Y-119530537D01*
X160005820Y-119589502D01*
X160125518Y-119625812D01*
X160250000Y-119638072D01*
X161714250Y-119635000D01*
X161873000Y-119476250D01*
X161873000Y-117627000D01*
X162127000Y-117627000D01*
X162127000Y-119476250D01*
X162285750Y-119635000D01*
X163750000Y-119638072D01*
X163874482Y-119625812D01*
X163994180Y-119589502D01*
X164104494Y-119530537D01*
X164201185Y-119451185D01*
X164280537Y-119354494D01*
X164339502Y-119244180D01*
X164375812Y-119124482D01*
X164388072Y-119000000D01*
X164386496Y-118376823D01*
X181947851Y-118376823D01*
X182002123Y-118874208D01*
X182152387Y-119351447D01*
X182363063Y-119745595D01*
X182720093Y-119950301D01*
X184320395Y-118350000D01*
X182720093Y-116749699D01*
X182363063Y-116954405D01*
X182131857Y-117398117D01*
X181991657Y-117878409D01*
X181947851Y-118376823D01*
X164386496Y-118376823D01*
X164385000Y-117785750D01*
X164226250Y-117627000D01*
X162127000Y-117627000D01*
X161873000Y-117627000D01*
X159773750Y-117627000D01*
X159615000Y-117785750D01*
X159611928Y-119000000D01*
X152635000Y-119000000D01*
X152635000Y-118490475D01*
X152533739Y-117981399D01*
X152335107Y-117501859D01*
X152046738Y-117070285D01*
X151679715Y-116703262D01*
X151248141Y-116414893D01*
X150768601Y-116216261D01*
X150259525Y-116115000D01*
X149740475Y-116115000D01*
X149231399Y-116216261D01*
X148751859Y-116414893D01*
X148320285Y-116703262D01*
X147953262Y-117070285D01*
X147664893Y-117501859D01*
X147466261Y-117981399D01*
X147365000Y-118490475D01*
X147365000Y-119009525D01*
X147466261Y-119518601D01*
X147664893Y-119998141D01*
X147953262Y-120429715D01*
X148313547Y-120790000D01*
X141210000Y-120790000D01*
X141210000Y-117332305D01*
X141307688Y-117478505D01*
X141521495Y-117692312D01*
X141772905Y-117860299D01*
X142052257Y-117976011D01*
X142348816Y-118035000D01*
X142651184Y-118035000D01*
X142947743Y-117976011D01*
X143227095Y-117860299D01*
X143478505Y-117692312D01*
X143692312Y-117478505D01*
X143860299Y-117227095D01*
X143976011Y-116947743D01*
X144035000Y-116651184D01*
X144035000Y-116348816D01*
X143976011Y-116052257D01*
X143954366Y-116000000D01*
X159611928Y-116000000D01*
X159615000Y-117214250D01*
X159773750Y-117373000D01*
X161873000Y-117373000D01*
X161873000Y-115523750D01*
X162127000Y-115523750D01*
X162127000Y-117373000D01*
X164226250Y-117373000D01*
X164385000Y-117214250D01*
X164388072Y-116000000D01*
X164375812Y-115875518D01*
X164339502Y-115755820D01*
X164280537Y-115645506D01*
X164201185Y-115548815D01*
X164104494Y-115469463D01*
X163994180Y-115410498D01*
X163874482Y-115374188D01*
X163750000Y-115361928D01*
X162285750Y-115365000D01*
X162127000Y-115523750D01*
X161873000Y-115523750D01*
X161714250Y-115365000D01*
X160250000Y-115361928D01*
X160125518Y-115374188D01*
X160005820Y-115410498D01*
X159895506Y-115469463D01*
X159798815Y-115548815D01*
X159719463Y-115645506D01*
X159660498Y-115755820D01*
X159624188Y-115875518D01*
X159611928Y-116000000D01*
X143954366Y-116000000D01*
X143860299Y-115772905D01*
X143692312Y-115521495D01*
X143478505Y-115307688D01*
X143392169Y-115250000D01*
X143478505Y-115192312D01*
X143692312Y-114978505D01*
X143860299Y-114727095D01*
X143976011Y-114447743D01*
X144035000Y-114151184D01*
X144035000Y-113848816D01*
X143976011Y-113552257D01*
X143860299Y-113272905D01*
X143692312Y-113021495D01*
X143478505Y-112807688D01*
X143335690Y-112712262D01*
X143384475Y-112564080D01*
X142500000Y-111679605D01*
X141615525Y-112564080D01*
X141664310Y-112712262D01*
X141521495Y-112807688D01*
X141307688Y-113021495D01*
X141210000Y-113167695D01*
X141210000Y-112310096D01*
X141435920Y-112384475D01*
X142320395Y-111500000D01*
X142679605Y-111500000D01*
X143564080Y-112384475D01*
X143818261Y-112300792D01*
X143949158Y-112028225D01*
X144024365Y-111735358D01*
X144040991Y-111433447D01*
X143998397Y-111134093D01*
X143898222Y-110848801D01*
X143818261Y-110699208D01*
X143564080Y-110615525D01*
X142679605Y-111500000D01*
X142320395Y-111500000D01*
X141435920Y-110615525D01*
X141210000Y-110689904D01*
X141210000Y-110435920D01*
X141615525Y-110435920D01*
X142500000Y-111320395D01*
X143384475Y-110435920D01*
X143300792Y-110181739D01*
X143028225Y-110050842D01*
X142735358Y-109975635D01*
X142433447Y-109959009D01*
X142134093Y-110001603D01*
X141848801Y-110101778D01*
X141699208Y-110181739D01*
X141615525Y-110435920D01*
X141210000Y-110435920D01*
X141210000Y-108990475D01*
X147365000Y-108990475D01*
X147365000Y-109509525D01*
X147466261Y-110018601D01*
X147664893Y-110498141D01*
X147953262Y-110929715D01*
X148320285Y-111296738D01*
X148751859Y-111585107D01*
X149231399Y-111783739D01*
X149740475Y-111885000D01*
X150259525Y-111885000D01*
X150768601Y-111783739D01*
X151103333Y-111645088D01*
X149754957Y-112993465D01*
X149698102Y-113004774D01*
X149509744Y-113082795D01*
X149340226Y-113196063D01*
X149196063Y-113340226D01*
X149082795Y-113509744D01*
X149004774Y-113698102D01*
X148965000Y-113898061D01*
X148965000Y-114101939D01*
X149004774Y-114301898D01*
X149082795Y-114490256D01*
X149196063Y-114659774D01*
X149340226Y-114803937D01*
X149509744Y-114917205D01*
X149698102Y-114995226D01*
X149898061Y-115035000D01*
X150101939Y-115035000D01*
X150301898Y-114995226D01*
X150490256Y-114917205D01*
X150659774Y-114803937D01*
X150803937Y-114659774D01*
X150917205Y-114490256D01*
X150995226Y-114301898D01*
X151006535Y-114245043D01*
X155245044Y-110006535D01*
X155301898Y-109995226D01*
X155490256Y-109917205D01*
X155659774Y-109803937D01*
X155803937Y-109659774D01*
X155917205Y-109490256D01*
X155995226Y-109301898D01*
X156035000Y-109101939D01*
X156035000Y-108898061D01*
X155995226Y-108698102D01*
X155917205Y-108509744D01*
X155803937Y-108340226D01*
X155659774Y-108196063D01*
X155490256Y-108082795D01*
X155301898Y-108004774D01*
X155101939Y-107965000D01*
X154898061Y-107965000D01*
X154698102Y-108004774D01*
X154509744Y-108082795D01*
X154340226Y-108196063D01*
X154196063Y-108340226D01*
X154082795Y-108509744D01*
X154004774Y-108698102D01*
X153993465Y-108754956D01*
X152395088Y-110353333D01*
X152533739Y-110018601D01*
X152635000Y-109509525D01*
X152635000Y-108990475D01*
X152533739Y-108481399D01*
X152335107Y-108001859D01*
X152046738Y-107570285D01*
X151679715Y-107203262D01*
X151248141Y-106914893D01*
X150768601Y-106716261D01*
X150259525Y-106615000D01*
X149740475Y-106615000D01*
X149231399Y-106716261D01*
X148751859Y-106914893D01*
X148320285Y-107203262D01*
X147953262Y-107570285D01*
X147664893Y-108001859D01*
X147466261Y-108481399D01*
X147365000Y-108990475D01*
X141210000Y-108990475D01*
X141210000Y-100990475D01*
X147287000Y-100990475D01*
X147287000Y-101509525D01*
X147388261Y-102018601D01*
X147586893Y-102498141D01*
X147875262Y-102929715D01*
X148242285Y-103296738D01*
X148673859Y-103585107D01*
X149153399Y-103783739D01*
X149662475Y-103885000D01*
X150181525Y-103885000D01*
X150690601Y-103783739D01*
X151170141Y-103585107D01*
X151601715Y-103296738D01*
X151968738Y-102929715D01*
X152257107Y-102498141D01*
X152455739Y-102018601D01*
X152557000Y-101509525D01*
X152557000Y-100990475D01*
X152455739Y-100481399D01*
X152257107Y-100001859D01*
X151968738Y-99570285D01*
X151601715Y-99203262D01*
X151170141Y-98914893D01*
X150690601Y-98716261D01*
X150181525Y-98615000D01*
X149662475Y-98615000D01*
X149153399Y-98716261D01*
X148673859Y-98914893D01*
X148242285Y-99203262D01*
X147875262Y-99570285D01*
X147586893Y-100001859D01*
X147388261Y-100481399D01*
X147287000Y-100990475D01*
X141210000Y-100990475D01*
X141210000Y-99949040D01*
X141229688Y-99978505D01*
X141443495Y-100192312D01*
X141694905Y-100360299D01*
X141974257Y-100476011D01*
X142270816Y-100535000D01*
X142573184Y-100535000D01*
X142869743Y-100476011D01*
X143149095Y-100360299D01*
X143400505Y-100192312D01*
X143614312Y-99978505D01*
X143782299Y-99727095D01*
X143898011Y-99447743D01*
X143957000Y-99151184D01*
X143957000Y-98848816D01*
X143898011Y-98552257D01*
X143782299Y-98272905D01*
X143614312Y-98021495D01*
X143400505Y-97807688D01*
X143314169Y-97750000D01*
X143400505Y-97692312D01*
X143614312Y-97478505D01*
X143782299Y-97227095D01*
X143898011Y-96947743D01*
X143957000Y-96651184D01*
X143957000Y-96348816D01*
X143898011Y-96052257D01*
X143782299Y-95772905D01*
X143614312Y-95521495D01*
X143400505Y-95307688D01*
X143257690Y-95212262D01*
X143306475Y-95064080D01*
X142422000Y-94179605D01*
X141537525Y-95064080D01*
X141586310Y-95212262D01*
X141443495Y-95307688D01*
X141229688Y-95521495D01*
X141210000Y-95550960D01*
X141210000Y-94835776D01*
X141357920Y-94884475D01*
X142242395Y-94000000D01*
X142601605Y-94000000D01*
X143486080Y-94884475D01*
X143740261Y-94800792D01*
X143871158Y-94528225D01*
X143946365Y-94235358D01*
X143962991Y-93933447D01*
X143920397Y-93634093D01*
X143820222Y-93348801D01*
X143740261Y-93199208D01*
X143486080Y-93115525D01*
X142601605Y-94000000D01*
X142242395Y-94000000D01*
X141357920Y-93115525D01*
X141210000Y-93164224D01*
X141210000Y-92935920D01*
X141537525Y-92935920D01*
X142422000Y-93820395D01*
X143306475Y-92935920D01*
X143222792Y-92681739D01*
X142950225Y-92550842D01*
X142657358Y-92475635D01*
X142355447Y-92459009D01*
X142056093Y-92501603D01*
X141770801Y-92601778D01*
X141621208Y-92681739D01*
X141537525Y-92935920D01*
X141210000Y-92935920D01*
X141210000Y-91490475D01*
X147287000Y-91490475D01*
X147287000Y-92009525D01*
X147388261Y-92518601D01*
X147586893Y-92998141D01*
X147875262Y-93429715D01*
X148242285Y-93796738D01*
X148673859Y-94085107D01*
X149153399Y-94283739D01*
X149662475Y-94385000D01*
X150181525Y-94385000D01*
X150690601Y-94283739D01*
X151170141Y-94085107D01*
X151601715Y-93796738D01*
X151968738Y-93429715D01*
X152257107Y-92998141D01*
X152455739Y-92518601D01*
X152557000Y-92009525D01*
X152557000Y-91490475D01*
X152455739Y-90981399D01*
X152257107Y-90501859D01*
X151968738Y-90070285D01*
X151601715Y-89703262D01*
X151170141Y-89414893D01*
X151061231Y-89369781D01*
X151159774Y-89303937D01*
X151303937Y-89159774D01*
X151417205Y-88990256D01*
X151495226Y-88801898D01*
X151506535Y-88745043D01*
X154732994Y-85518585D01*
X154817774Y-85461937D01*
X154961937Y-85317774D01*
X155075205Y-85148256D01*
X155153226Y-84959898D01*
X155193000Y-84759939D01*
X155193000Y-84556061D01*
X155153226Y-84356102D01*
X155075205Y-84167744D01*
X154961937Y-83998226D01*
X154817774Y-83854063D01*
X154648256Y-83740795D01*
X154459898Y-83662774D01*
X154259939Y-83623000D01*
X154056061Y-83623000D01*
X153856102Y-83662774D01*
X153667744Y-83740795D01*
X153498226Y-83854063D01*
X153354063Y-83998226D01*
X153240795Y-84167744D01*
X153162774Y-84356102D01*
X153123000Y-84556061D01*
X153123000Y-84625421D01*
X150254957Y-87493465D01*
X150198102Y-87504774D01*
X150009744Y-87582795D01*
X149840226Y-87696063D01*
X149696063Y-87840226D01*
X149582795Y-88009744D01*
X149504774Y-88198102D01*
X149465000Y-88398061D01*
X149465000Y-88601939D01*
X149504774Y-88801898D01*
X149582795Y-88990256D01*
X149666146Y-89115000D01*
X149662475Y-89115000D01*
X149153399Y-89216261D01*
X148673859Y-89414893D01*
X148242285Y-89703262D01*
X147875262Y-90070285D01*
X147586893Y-90501859D01*
X147388261Y-90981399D01*
X147287000Y-91490475D01*
X141210000Y-91490475D01*
X141210000Y-83490475D01*
X147365000Y-83490475D01*
X147365000Y-84009525D01*
X147466261Y-84518601D01*
X147664893Y-84998141D01*
X147953262Y-85429715D01*
X148320285Y-85796738D01*
X148751859Y-86085107D01*
X149231399Y-86283739D01*
X149740475Y-86385000D01*
X150259525Y-86385000D01*
X150768601Y-86283739D01*
X151248141Y-86085107D01*
X151679715Y-85796738D01*
X152046738Y-85429715D01*
X152335107Y-84998141D01*
X152533739Y-84518601D01*
X152635000Y-84009525D01*
X152635000Y-83490475D01*
X152533739Y-82981399D01*
X152335107Y-82501859D01*
X152046738Y-82070285D01*
X151679715Y-81703262D01*
X151248141Y-81414893D01*
X150768601Y-81216261D01*
X150259525Y-81115000D01*
X149740475Y-81115000D01*
X149231399Y-81216261D01*
X148751859Y-81414893D01*
X148320285Y-81703262D01*
X147953262Y-82070285D01*
X147664893Y-82501859D01*
X147466261Y-82981399D01*
X147365000Y-83490475D01*
X141210000Y-83490475D01*
X141210000Y-82332305D01*
X141307688Y-82478505D01*
X141521495Y-82692312D01*
X141772905Y-82860299D01*
X142052257Y-82976011D01*
X142348816Y-83035000D01*
X142651184Y-83035000D01*
X142947743Y-82976011D01*
X143227095Y-82860299D01*
X143478505Y-82692312D01*
X143692312Y-82478505D01*
X143860299Y-82227095D01*
X143976011Y-81947743D01*
X144035000Y-81651184D01*
X144035000Y-81348816D01*
X143976011Y-81052257D01*
X143860299Y-80772905D01*
X143692312Y-80521495D01*
X143478505Y-80307688D01*
X143392169Y-80250000D01*
X143478505Y-80192312D01*
X143692312Y-79978505D01*
X143860299Y-79727095D01*
X143976011Y-79447743D01*
X144035000Y-79151184D01*
X144035000Y-78898061D01*
X150465000Y-78898061D01*
X150465000Y-79101939D01*
X150504774Y-79301898D01*
X150582795Y-79490256D01*
X150696063Y-79659774D01*
X150840226Y-79803937D01*
X151009744Y-79917205D01*
X151198102Y-79995226D01*
X151398061Y-80035000D01*
X151601939Y-80035000D01*
X151801898Y-79995226D01*
X151990256Y-79917205D01*
X152159774Y-79803937D01*
X152303937Y-79659774D01*
X152417205Y-79490256D01*
X152495226Y-79301898D01*
X152506535Y-79245043D01*
X156156532Y-75595047D01*
X156156536Y-75595042D01*
X157714579Y-74037000D01*
X159389344Y-74037000D01*
X159430525Y-74098632D01*
X159637368Y-74305475D01*
X159811760Y-74422000D01*
X159637368Y-74538525D01*
X159430525Y-74745368D01*
X159268010Y-74988589D01*
X159156068Y-75258842D01*
X159099000Y-75545740D01*
X159099000Y-75838260D01*
X159156068Y-76125158D01*
X159268010Y-76395411D01*
X159430525Y-76638632D01*
X159637368Y-76845475D01*
X159811760Y-76962000D01*
X159637368Y-77078525D01*
X159430525Y-77285368D01*
X159268010Y-77528589D01*
X159156068Y-77798842D01*
X159099000Y-78085740D01*
X159099000Y-78378260D01*
X159156068Y-78665158D01*
X159268010Y-78935411D01*
X159430525Y-79178632D01*
X159637368Y-79385475D01*
X159811760Y-79502000D01*
X159637368Y-79618525D01*
X159430525Y-79825368D01*
X159268010Y-80068589D01*
X159156068Y-80338842D01*
X159099000Y-80625740D01*
X159099000Y-80918260D01*
X159156068Y-81205158D01*
X159268010Y-81475411D01*
X159430525Y-81718632D01*
X159637368Y-81925475D01*
X159811760Y-82042000D01*
X159637368Y-82158525D01*
X159430525Y-82365368D01*
X159268010Y-82608589D01*
X159156068Y-82878842D01*
X159099000Y-83165740D01*
X159099000Y-83458260D01*
X159156068Y-83745158D01*
X159268010Y-84015411D01*
X159430525Y-84258632D01*
X159637368Y-84465475D01*
X159819534Y-84587195D01*
X159702645Y-84656822D01*
X159486412Y-84851731D01*
X159312359Y-85085080D01*
X159187175Y-85347901D01*
X159142524Y-85495110D01*
X159263845Y-85725000D01*
X160457000Y-85725000D01*
X160457000Y-85705000D01*
X160711000Y-85705000D01*
X160711000Y-85725000D01*
X161904155Y-85725000D01*
X162025476Y-85495110D01*
X161980825Y-85347901D01*
X161855641Y-85085080D01*
X161681588Y-84851731D01*
X161465355Y-84656822D01*
X161348466Y-84587195D01*
X161530632Y-84465475D01*
X161560259Y-84435848D01*
X161582795Y-84490256D01*
X161696063Y-84659774D01*
X161840226Y-84803937D01*
X162009744Y-84917205D01*
X162115000Y-84960804D01*
X162115001Y-87461544D01*
X162082795Y-87509744D01*
X162004774Y-87698102D01*
X161972058Y-87862577D01*
X161899990Y-87688589D01*
X161737475Y-87445368D01*
X161530632Y-87238525D01*
X161348466Y-87116805D01*
X161465355Y-87047178D01*
X161681588Y-86852269D01*
X161855641Y-86618920D01*
X161980825Y-86356099D01*
X162025476Y-86208890D01*
X161904155Y-85979000D01*
X160711000Y-85979000D01*
X160711000Y-85999000D01*
X160457000Y-85999000D01*
X160457000Y-85979000D01*
X159263845Y-85979000D01*
X159142524Y-86208890D01*
X159187175Y-86356099D01*
X159312359Y-86618920D01*
X159486412Y-86852269D01*
X159702645Y-87047178D01*
X159819534Y-87116805D01*
X159637368Y-87238525D01*
X159430525Y-87445368D01*
X159268010Y-87688589D01*
X159156068Y-87958842D01*
X159099000Y-88245740D01*
X159099000Y-88538260D01*
X159156068Y-88825158D01*
X159268010Y-89095411D01*
X159430525Y-89338632D01*
X159637368Y-89545475D01*
X159880589Y-89707990D01*
X160150842Y-89819932D01*
X160437740Y-89877000D01*
X160730260Y-89877000D01*
X160802960Y-89862539D01*
X161115001Y-90174580D01*
X161115000Y-106456523D01*
X161115000Y-106456524D01*
X161115001Y-109111928D01*
X160250000Y-109111928D01*
X160125518Y-109124188D01*
X160005820Y-109160498D01*
X159895506Y-109219463D01*
X159798815Y-109298815D01*
X159719463Y-109395506D01*
X159660498Y-109505820D01*
X159624188Y-109625518D01*
X159611928Y-109750000D01*
X159611928Y-113250000D01*
X159624188Y-113374482D01*
X159660498Y-113494180D01*
X159719463Y-113604494D01*
X159798815Y-113701185D01*
X159895506Y-113780537D01*
X160005820Y-113839502D01*
X160125518Y-113875812D01*
X160250000Y-113888072D01*
X163750000Y-113888072D01*
X163874482Y-113875812D01*
X163994180Y-113839502D01*
X164104494Y-113780537D01*
X164201185Y-113701185D01*
X164280537Y-113604494D01*
X164321494Y-113527869D01*
X164311928Y-113625000D01*
X164311928Y-115375000D01*
X164341001Y-115670186D01*
X164427104Y-115954028D01*
X164566927Y-116215618D01*
X164755097Y-116444903D01*
X164984382Y-116633073D01*
X165245972Y-116772896D01*
X165529814Y-116858999D01*
X165825000Y-116888072D01*
X167575000Y-116888072D01*
X167870186Y-116858999D01*
X168154028Y-116772896D01*
X168415618Y-116633073D01*
X168644903Y-116444903D01*
X168833073Y-116215618D01*
X168972896Y-115954028D01*
X169058999Y-115670186D01*
X169088072Y-115375000D01*
X169088072Y-113625000D01*
X169058999Y-113329814D01*
X168972896Y-113045972D01*
X168833073Y-112784382D01*
X168644903Y-112555097D01*
X168415618Y-112366927D01*
X168154028Y-112227104D01*
X167870186Y-112141001D01*
X167575000Y-112111928D01*
X165825000Y-112111928D01*
X165529814Y-112141001D01*
X165245972Y-112227104D01*
X164984382Y-112366927D01*
X164755097Y-112555097D01*
X164566927Y-112784382D01*
X164427104Y-113045972D01*
X164388072Y-113174643D01*
X164388072Y-112026823D01*
X181947851Y-112026823D01*
X182002123Y-112524208D01*
X182152387Y-113001447D01*
X182363063Y-113395595D01*
X182720093Y-113600301D01*
X184320395Y-112000000D01*
X182720093Y-110399699D01*
X182363063Y-110604405D01*
X182131857Y-111048117D01*
X181991657Y-111528409D01*
X181947851Y-112026823D01*
X164388072Y-112026823D01*
X164388072Y-110220093D01*
X182899699Y-110220093D01*
X184500000Y-111820395D01*
X186100301Y-110220093D01*
X185895595Y-109863063D01*
X185451883Y-109631857D01*
X184971591Y-109491657D01*
X184473177Y-109447851D01*
X183975792Y-109502123D01*
X183498553Y-109652387D01*
X183104405Y-109863063D01*
X182899699Y-110220093D01*
X164388072Y-110220093D01*
X164388072Y-109750000D01*
X164375812Y-109625518D01*
X164339502Y-109505820D01*
X164280537Y-109395506D01*
X164201185Y-109298815D01*
X164104494Y-109219463D01*
X163994180Y-109160498D01*
X163874482Y-109124188D01*
X163750000Y-109111928D01*
X162885000Y-109111928D01*
X162885000Y-89851465D01*
X162889281Y-89807999D01*
X162885000Y-89764533D01*
X162885000Y-89764523D01*
X162872195Y-89634510D01*
X162821589Y-89467687D01*
X162739411Y-89313941D01*
X162680370Y-89242000D01*
X162656532Y-89212953D01*
X162656530Y-89212951D01*
X162628817Y-89179183D01*
X162595049Y-89151470D01*
X162054539Y-88610960D01*
X162069000Y-88538260D01*
X162069000Y-88456952D01*
X162082795Y-88490256D01*
X162196063Y-88659774D01*
X162340226Y-88803937D01*
X162509744Y-88917205D01*
X162698102Y-88995226D01*
X162898061Y-89035000D01*
X163101939Y-89035000D01*
X163301898Y-88995226D01*
X163490256Y-88917205D01*
X163659774Y-88803937D01*
X163803937Y-88659774D01*
X163917205Y-88490256D01*
X163995226Y-88301898D01*
X164035000Y-88101939D01*
X164035000Y-87898061D01*
X163995226Y-87698102D01*
X163917205Y-87509744D01*
X163885000Y-87461546D01*
X163885000Y-86426061D01*
X166493000Y-86426061D01*
X166493000Y-86629939D01*
X166532774Y-86829898D01*
X166610795Y-87018256D01*
X166724063Y-87187774D01*
X166868226Y-87331937D01*
X167037744Y-87445205D01*
X167226102Y-87523226D01*
X167426061Y-87563000D01*
X167629939Y-87563000D01*
X167829898Y-87523226D01*
X168018256Y-87445205D01*
X168187774Y-87331937D01*
X168331937Y-87187774D01*
X168445205Y-87018256D01*
X168523226Y-86829898D01*
X168534535Y-86773043D01*
X171773044Y-83534535D01*
X171829898Y-83523226D01*
X172018256Y-83445205D01*
X172115000Y-83380563D01*
X172115001Y-100956521D01*
X172110719Y-101000000D01*
X172127805Y-101173490D01*
X172178412Y-101340313D01*
X172260590Y-101494059D01*
X172343468Y-101595046D01*
X172343471Y-101595049D01*
X172371184Y-101628817D01*
X172404952Y-101656530D01*
X178843470Y-108095049D01*
X178871183Y-108128817D01*
X178904951Y-108156530D01*
X178904953Y-108156532D01*
X178931614Y-108178412D01*
X179005941Y-108239411D01*
X179159687Y-108321589D01*
X179326510Y-108372195D01*
X179456523Y-108385000D01*
X179456533Y-108385000D01*
X179499999Y-108389281D01*
X179543465Y-108385000D01*
X184883422Y-108385000D01*
X186821000Y-110322579D01*
X186821001Y-110948765D01*
X186636937Y-110604405D01*
X186279907Y-110399699D01*
X184679605Y-112000000D01*
X184693748Y-112014143D01*
X184514143Y-112193748D01*
X184500000Y-112179605D01*
X182899699Y-113779907D01*
X183104405Y-114136937D01*
X183548117Y-114368143D01*
X184028409Y-114508343D01*
X184526823Y-114552149D01*
X185024208Y-114497877D01*
X185391574Y-114382208D01*
X185354731Y-114471154D01*
X185262000Y-114937340D01*
X185262000Y-115412660D01*
X185354731Y-115878846D01*
X185389906Y-115963766D01*
X184971591Y-115841657D01*
X184473177Y-115797851D01*
X183975792Y-115852123D01*
X183498553Y-116002387D01*
X183104405Y-116213063D01*
X182899699Y-116570093D01*
X184500000Y-118170395D01*
X184514143Y-118156253D01*
X184693748Y-118335858D01*
X184679605Y-118350000D01*
X186279907Y-119950301D01*
X186636937Y-119745595D01*
X186868143Y-119301883D01*
X187008343Y-118821591D01*
X187052149Y-118323177D01*
X186997877Y-117825792D01*
X186882208Y-117458426D01*
X186971154Y-117495269D01*
X187437340Y-117588000D01*
X187912660Y-117588000D01*
X188378846Y-117495269D01*
X188463766Y-117460094D01*
X188341657Y-117878409D01*
X188297851Y-118376823D01*
X188352123Y-118874208D01*
X188502387Y-119351447D01*
X188713063Y-119745595D01*
X189070093Y-119950301D01*
X190670395Y-118350000D01*
X191029605Y-118350000D01*
X192629907Y-119950301D01*
X192986937Y-119745595D01*
X193218143Y-119301883D01*
X193358343Y-118821591D01*
X193402149Y-118323177D01*
X193347877Y-117825792D01*
X193197613Y-117348553D01*
X192986937Y-116954405D01*
X192629907Y-116749699D01*
X191029605Y-118350000D01*
X190670395Y-118350000D01*
X190656253Y-118335858D01*
X190835858Y-118156253D01*
X190850000Y-118170395D01*
X192450301Y-116570093D01*
X192245595Y-116213063D01*
X191801883Y-115981857D01*
X191321591Y-115841657D01*
X190823177Y-115797851D01*
X190325792Y-115852123D01*
X189958426Y-115967792D01*
X189995269Y-115878846D01*
X190088000Y-115412660D01*
X190088000Y-114937340D01*
X189995269Y-114471154D01*
X189960094Y-114386234D01*
X190378409Y-114508343D01*
X190876823Y-114552149D01*
X191374208Y-114497877D01*
X191851447Y-114347613D01*
X192245595Y-114136937D01*
X192450301Y-113779907D01*
X190850000Y-112179605D01*
X190835858Y-112193748D01*
X190656253Y-112014143D01*
X190670395Y-112000000D01*
X191029605Y-112000000D01*
X192629907Y-113600301D01*
X192986937Y-113395595D01*
X193218143Y-112951883D01*
X193358343Y-112471591D01*
X193402149Y-111973177D01*
X193347877Y-111475792D01*
X193197613Y-110998553D01*
X192986937Y-110604405D01*
X192629907Y-110399699D01*
X191029605Y-112000000D01*
X190670395Y-112000000D01*
X189070093Y-110399699D01*
X188713063Y-110604405D01*
X188591000Y-110838659D01*
X188591000Y-110220093D01*
X189249699Y-110220093D01*
X190850000Y-111820395D01*
X192450301Y-110220093D01*
X192245595Y-109863063D01*
X191801883Y-109631857D01*
X191321591Y-109491657D01*
X190823177Y-109447851D01*
X190325792Y-109502123D01*
X189848553Y-109652387D01*
X189454405Y-109863063D01*
X189249699Y-110220093D01*
X188591000Y-110220093D01*
X188591000Y-109999469D01*
X188595281Y-109956000D01*
X188591000Y-109912531D01*
X188591000Y-109912523D01*
X188578195Y-109782510D01*
X188532494Y-109631857D01*
X188527589Y-109615686D01*
X188445411Y-109461941D01*
X188362532Y-109360953D01*
X188362530Y-109360951D01*
X188334817Y-109327183D01*
X188301050Y-109299471D01*
X185906534Y-106904956D01*
X185878817Y-106871183D01*
X185744059Y-106760589D01*
X185590313Y-106678411D01*
X185423490Y-106627805D01*
X185293477Y-106615000D01*
X185293469Y-106615000D01*
X185250000Y-106610719D01*
X185206531Y-106615000D01*
X179866579Y-106615000D01*
X178706486Y-105454907D01*
X183049699Y-105454907D01*
X183254405Y-105811937D01*
X183698117Y-106043143D01*
X184178409Y-106183343D01*
X184676823Y-106227149D01*
X185174208Y-106172877D01*
X185651447Y-106022613D01*
X186045595Y-105811937D01*
X186250301Y-105454907D01*
X189399699Y-105454907D01*
X189604405Y-105811937D01*
X190048117Y-106043143D01*
X190528409Y-106183343D01*
X191026823Y-106227149D01*
X191524208Y-106172877D01*
X192001447Y-106022613D01*
X192395595Y-105811937D01*
X192600301Y-105454907D01*
X191000000Y-103854605D01*
X189399699Y-105454907D01*
X186250301Y-105454907D01*
X184650000Y-103854605D01*
X183049699Y-105454907D01*
X178706486Y-105454907D01*
X176953402Y-103701823D01*
X182097851Y-103701823D01*
X182152123Y-104199208D01*
X182302387Y-104676447D01*
X182513063Y-105070595D01*
X182870093Y-105275301D01*
X184470395Y-103675000D01*
X182870093Y-102074699D01*
X182513063Y-102279405D01*
X182281857Y-102723117D01*
X182141657Y-103203409D01*
X182097851Y-103701823D01*
X176953402Y-103701823D01*
X173885000Y-100633422D01*
X173885000Y-99104907D01*
X183049699Y-99104907D01*
X183254405Y-99461937D01*
X183698117Y-99693143D01*
X184178409Y-99833343D01*
X184676823Y-99877149D01*
X185174208Y-99822877D01*
X185541574Y-99707208D01*
X185504731Y-99796154D01*
X185412000Y-100262340D01*
X185412000Y-100737660D01*
X185504731Y-101203846D01*
X185539906Y-101288766D01*
X185121591Y-101166657D01*
X184623177Y-101122851D01*
X184125792Y-101177123D01*
X183648553Y-101327387D01*
X183254405Y-101538063D01*
X183049699Y-101895093D01*
X184650000Y-103495395D01*
X184664143Y-103481253D01*
X184843748Y-103660858D01*
X184829605Y-103675000D01*
X186429907Y-105275301D01*
X186786937Y-105070595D01*
X187018143Y-104626883D01*
X187158343Y-104146591D01*
X187202149Y-103648177D01*
X187147877Y-103150792D01*
X187032208Y-102783426D01*
X187121154Y-102820269D01*
X187587340Y-102913000D01*
X188062660Y-102913000D01*
X188528846Y-102820269D01*
X188613766Y-102785094D01*
X188491657Y-103203409D01*
X188447851Y-103701823D01*
X188502123Y-104199208D01*
X188652387Y-104676447D01*
X188863063Y-105070595D01*
X189220093Y-105275301D01*
X190820395Y-103675000D01*
X191179605Y-103675000D01*
X192779907Y-105275301D01*
X193136937Y-105070595D01*
X193368143Y-104626883D01*
X193508343Y-104146591D01*
X193552149Y-103648177D01*
X193497877Y-103150792D01*
X193347613Y-102673553D01*
X193136937Y-102279405D01*
X192779907Y-102074699D01*
X191179605Y-103675000D01*
X190820395Y-103675000D01*
X190806253Y-103660858D01*
X190985858Y-103481253D01*
X191000000Y-103495395D01*
X192600301Y-101895093D01*
X192395595Y-101538063D01*
X191951883Y-101306857D01*
X191471591Y-101166657D01*
X190973177Y-101122851D01*
X190475792Y-101177123D01*
X190108426Y-101292792D01*
X190145269Y-101203846D01*
X190238000Y-100737660D01*
X190238000Y-100262340D01*
X190145269Y-99796154D01*
X190110094Y-99711234D01*
X190528409Y-99833343D01*
X191026823Y-99877149D01*
X191524208Y-99822877D01*
X192001447Y-99672613D01*
X192395595Y-99461937D01*
X192600301Y-99104907D01*
X191000000Y-97504605D01*
X190985858Y-97518748D01*
X190806253Y-97339143D01*
X190820395Y-97325000D01*
X191179605Y-97325000D01*
X192779907Y-98925301D01*
X193136937Y-98720595D01*
X193368143Y-98276883D01*
X193508343Y-97796591D01*
X193552149Y-97298177D01*
X193497877Y-96800792D01*
X193347613Y-96323553D01*
X193136937Y-95929405D01*
X192779907Y-95724699D01*
X191179605Y-97325000D01*
X190820395Y-97325000D01*
X189220093Y-95724699D01*
X188863063Y-95929405D01*
X188631857Y-96373117D01*
X188491657Y-96853409D01*
X188447851Y-97351823D01*
X188502123Y-97849208D01*
X188617792Y-98216574D01*
X188528846Y-98179731D01*
X188062660Y-98087000D01*
X187587340Y-98087000D01*
X187121154Y-98179731D01*
X187036234Y-98214906D01*
X187158343Y-97796591D01*
X187202149Y-97298177D01*
X187147877Y-96800792D01*
X186997613Y-96323553D01*
X186786937Y-95929405D01*
X186429907Y-95724699D01*
X184829605Y-97325000D01*
X184843748Y-97339143D01*
X184664143Y-97518748D01*
X184650000Y-97504605D01*
X183049699Y-99104907D01*
X173885000Y-99104907D01*
X173885000Y-97351823D01*
X182097851Y-97351823D01*
X182152123Y-97849208D01*
X182302387Y-98326447D01*
X182513063Y-98720595D01*
X182870093Y-98925301D01*
X184470395Y-97325000D01*
X182870093Y-95724699D01*
X182513063Y-95929405D01*
X182281857Y-96373117D01*
X182141657Y-96853409D01*
X182097851Y-97351823D01*
X173885000Y-97351823D01*
X173885000Y-95545093D01*
X183049699Y-95545093D01*
X184650000Y-97145395D01*
X186250301Y-95545093D01*
X189399699Y-95545093D01*
X191000000Y-97145395D01*
X192600301Y-95545093D01*
X192395595Y-95188063D01*
X191951883Y-94956857D01*
X191471591Y-94816657D01*
X190973177Y-94772851D01*
X190475792Y-94827123D01*
X189998553Y-94977387D01*
X189604405Y-95188063D01*
X189399699Y-95545093D01*
X186250301Y-95545093D01*
X186045595Y-95188063D01*
X185601883Y-94956857D01*
X185121591Y-94816657D01*
X184623177Y-94772851D01*
X184125792Y-94827123D01*
X183648553Y-94977387D01*
X183254405Y-95188063D01*
X183049699Y-95545093D01*
X173885000Y-95545093D01*
X173885000Y-91398061D01*
X176465000Y-91398061D01*
X176465000Y-91601939D01*
X176504774Y-91801898D01*
X176582795Y-91990256D01*
X176696063Y-92159774D01*
X176840226Y-92303937D01*
X177009744Y-92417205D01*
X177198102Y-92495226D01*
X177398061Y-92535000D01*
X177601939Y-92535000D01*
X177801898Y-92495226D01*
X177990256Y-92417205D01*
X178159774Y-92303937D01*
X178303937Y-92159774D01*
X178417205Y-91990256D01*
X178495226Y-91801898D01*
X178506535Y-91745043D01*
X180245044Y-90006535D01*
X180301898Y-89995226D01*
X180490256Y-89917205D01*
X180615001Y-89833854D01*
X180615001Y-92133421D01*
X180594787Y-92153635D01*
X180584744Y-92157795D01*
X180415226Y-92271063D01*
X180271063Y-92415226D01*
X180157795Y-92584744D01*
X180079774Y-92773102D01*
X180040000Y-92973061D01*
X180040000Y-93176939D01*
X180079774Y-93376898D01*
X180157795Y-93565256D01*
X180271063Y-93734774D01*
X180415226Y-93878937D01*
X180584744Y-93992205D01*
X180773102Y-94070226D01*
X180973061Y-94110000D01*
X181176939Y-94110000D01*
X181376898Y-94070226D01*
X181565256Y-93992205D01*
X181734774Y-93878937D01*
X181878937Y-93734774D01*
X181992205Y-93565256D01*
X182070226Y-93376898D01*
X182110000Y-93176939D01*
X182110000Y-93144260D01*
X182128817Y-93128817D01*
X182239411Y-92994059D01*
X182321589Y-92840313D01*
X182372195Y-92673490D01*
X182385000Y-92543477D01*
X182385000Y-92543469D01*
X182389281Y-92500000D01*
X182385000Y-92456531D01*
X182385000Y-90629907D01*
X182899699Y-90629907D01*
X183104405Y-90986937D01*
X183548117Y-91218143D01*
X184028409Y-91358343D01*
X184526823Y-91402149D01*
X185024208Y-91347877D01*
X185501447Y-91197613D01*
X185895595Y-90986937D01*
X186100301Y-90629907D01*
X189249699Y-90629907D01*
X189454405Y-90986937D01*
X189898117Y-91218143D01*
X190378409Y-91358343D01*
X190876823Y-91402149D01*
X191374208Y-91347877D01*
X191851447Y-91197613D01*
X192245595Y-90986937D01*
X192450301Y-90629907D01*
X190850000Y-89029605D01*
X189249699Y-90629907D01*
X186100301Y-90629907D01*
X184500000Y-89029605D01*
X182899699Y-90629907D01*
X182385000Y-90629907D01*
X182385000Y-90258173D01*
X182720093Y-90450301D01*
X184320395Y-88850000D01*
X182720093Y-87249699D01*
X182385000Y-87441827D01*
X182385000Y-84279907D01*
X182899699Y-84279907D01*
X183104405Y-84636937D01*
X183548117Y-84868143D01*
X184028409Y-85008343D01*
X184526823Y-85052149D01*
X185024208Y-84997877D01*
X185391574Y-84882208D01*
X185354731Y-84971154D01*
X185262000Y-85437340D01*
X185262000Y-85912660D01*
X185354731Y-86378846D01*
X185389906Y-86463766D01*
X184971591Y-86341657D01*
X184473177Y-86297851D01*
X183975792Y-86352123D01*
X183498553Y-86502387D01*
X183104405Y-86713063D01*
X182899699Y-87070093D01*
X184500000Y-88670395D01*
X184514143Y-88656253D01*
X184693748Y-88835858D01*
X184679605Y-88850000D01*
X186279907Y-90450301D01*
X186636937Y-90245595D01*
X186868143Y-89801883D01*
X187008343Y-89321591D01*
X187052149Y-88823177D01*
X186997877Y-88325792D01*
X186882208Y-87958426D01*
X186971154Y-87995269D01*
X187437340Y-88088000D01*
X187912660Y-88088000D01*
X188378846Y-87995269D01*
X188463766Y-87960094D01*
X188341657Y-88378409D01*
X188297851Y-88876823D01*
X188352123Y-89374208D01*
X188502387Y-89851447D01*
X188713063Y-90245595D01*
X189070093Y-90450301D01*
X190670395Y-88850000D01*
X191029605Y-88850000D01*
X192629907Y-90450301D01*
X192986937Y-90245595D01*
X193218143Y-89801883D01*
X193358343Y-89321591D01*
X193402149Y-88823177D01*
X193347877Y-88325792D01*
X193197613Y-87848553D01*
X192986937Y-87454405D01*
X192629907Y-87249699D01*
X191029605Y-88850000D01*
X190670395Y-88850000D01*
X190656253Y-88835858D01*
X190835858Y-88656253D01*
X190850000Y-88670395D01*
X192450301Y-87070093D01*
X192245595Y-86713063D01*
X191801883Y-86481857D01*
X191321591Y-86341657D01*
X190823177Y-86297851D01*
X190325792Y-86352123D01*
X189958426Y-86467792D01*
X189995269Y-86378846D01*
X190088000Y-85912660D01*
X190088000Y-85437340D01*
X189995269Y-84971154D01*
X189960094Y-84886234D01*
X190378409Y-85008343D01*
X190876823Y-85052149D01*
X191374208Y-84997877D01*
X191851447Y-84847613D01*
X192245595Y-84636937D01*
X192450301Y-84279907D01*
X190850000Y-82679605D01*
X190835858Y-82693748D01*
X190656253Y-82514143D01*
X190670395Y-82500000D01*
X191029605Y-82500000D01*
X192629907Y-84100301D01*
X192986937Y-83895595D01*
X193218143Y-83451883D01*
X193358343Y-82971591D01*
X193402149Y-82473177D01*
X193347877Y-81975792D01*
X193197613Y-81498553D01*
X192986937Y-81104405D01*
X192629907Y-80899699D01*
X191029605Y-82500000D01*
X190670395Y-82500000D01*
X189070093Y-80899699D01*
X188713063Y-81104405D01*
X188481857Y-81548117D01*
X188341657Y-82028409D01*
X188297851Y-82526823D01*
X188352123Y-83024208D01*
X188467792Y-83391574D01*
X188378846Y-83354731D01*
X187912660Y-83262000D01*
X187437340Y-83262000D01*
X186971154Y-83354731D01*
X186886234Y-83389906D01*
X187008343Y-82971591D01*
X187052149Y-82473177D01*
X186997877Y-81975792D01*
X186847613Y-81498553D01*
X186636937Y-81104405D01*
X186279907Y-80899699D01*
X184679605Y-82500000D01*
X184693748Y-82514143D01*
X184514143Y-82693748D01*
X184500000Y-82679605D01*
X182899699Y-84279907D01*
X182385000Y-84279907D01*
X182385000Y-83908173D01*
X182720093Y-84100301D01*
X184320395Y-82500000D01*
X182720093Y-80899699D01*
X182363063Y-81104405D01*
X182131857Y-81548117D01*
X181991657Y-82028409D01*
X181986996Y-82081445D01*
X181801898Y-82004774D01*
X181601939Y-81965000D01*
X181398061Y-81965000D01*
X181198102Y-82004774D01*
X181009744Y-82082795D01*
X180840226Y-82196063D01*
X180696063Y-82340226D01*
X180582795Y-82509744D01*
X180504774Y-82698102D01*
X180465000Y-82898061D01*
X180465000Y-83101939D01*
X180504774Y-83301898D01*
X180582795Y-83490256D01*
X180615001Y-83538456D01*
X180615000Y-86456523D01*
X180615000Y-88166146D01*
X180490256Y-88082795D01*
X180301898Y-88004774D01*
X180101939Y-87965000D01*
X179898061Y-87965000D01*
X179698102Y-88004774D01*
X179509744Y-88082795D01*
X179340226Y-88196063D01*
X179196063Y-88340226D01*
X179082795Y-88509744D01*
X179004774Y-88698102D01*
X178993465Y-88754956D01*
X177254957Y-90493465D01*
X177198102Y-90504774D01*
X177009744Y-90582795D01*
X176840226Y-90696063D01*
X176696063Y-90840226D01*
X176582795Y-91009744D01*
X176504774Y-91198102D01*
X176465000Y-91398061D01*
X173885000Y-91398061D01*
X173885000Y-89242000D01*
X174335928Y-89242000D01*
X174348188Y-89366482D01*
X174384498Y-89486180D01*
X174443463Y-89596494D01*
X174522815Y-89693185D01*
X174619506Y-89772537D01*
X174729820Y-89831502D01*
X174849518Y-89867812D01*
X174974000Y-89880072D01*
X175538250Y-89877000D01*
X175697000Y-89718250D01*
X175697000Y-88519000D01*
X175951000Y-88519000D01*
X175951000Y-89718250D01*
X176109750Y-89877000D01*
X176674000Y-89880072D01*
X176798482Y-89867812D01*
X176918180Y-89831502D01*
X177028494Y-89772537D01*
X177125185Y-89693185D01*
X177204537Y-89596494D01*
X177263502Y-89486180D01*
X177299812Y-89366482D01*
X177312072Y-89242000D01*
X177309000Y-88677750D01*
X177150250Y-88519000D01*
X175951000Y-88519000D01*
X175697000Y-88519000D01*
X174497750Y-88519000D01*
X174339000Y-88677750D01*
X174335928Y-89242000D01*
X173885000Y-89242000D01*
X173885000Y-87542000D01*
X174335928Y-87542000D01*
X174339000Y-88106250D01*
X174497750Y-88265000D01*
X175697000Y-88265000D01*
X175697000Y-88245000D01*
X175951000Y-88245000D01*
X175951000Y-88265000D01*
X177150250Y-88265000D01*
X177309000Y-88106250D01*
X177312072Y-87542000D01*
X177299812Y-87417518D01*
X177263502Y-87297820D01*
X177204537Y-87187506D01*
X177125185Y-87090815D01*
X177028494Y-87011463D01*
X176918180Y-86952498D01*
X176845620Y-86930487D01*
X176977475Y-86798632D01*
X177139990Y-86555411D01*
X177251932Y-86285158D01*
X177309000Y-85998260D01*
X177309000Y-85705740D01*
X177251932Y-85418842D01*
X177139990Y-85148589D01*
X176977475Y-84905368D01*
X176770632Y-84698525D01*
X176596240Y-84582000D01*
X176770632Y-84465475D01*
X176977475Y-84258632D01*
X177139990Y-84015411D01*
X177251932Y-83745158D01*
X177309000Y-83458260D01*
X177309000Y-83165740D01*
X177251932Y-82878842D01*
X177139990Y-82608589D01*
X176977475Y-82365368D01*
X176770632Y-82158525D01*
X176588466Y-82036805D01*
X176705355Y-81967178D01*
X176921588Y-81772269D01*
X177095641Y-81538920D01*
X177220825Y-81276099D01*
X177265476Y-81128890D01*
X177144155Y-80899000D01*
X175951000Y-80899000D01*
X175951000Y-80919000D01*
X175697000Y-80919000D01*
X175697000Y-80899000D01*
X174503845Y-80899000D01*
X174382524Y-81128890D01*
X174427175Y-81276099D01*
X174552359Y-81538920D01*
X174726412Y-81772269D01*
X174942645Y-81967178D01*
X175059534Y-82036805D01*
X174877368Y-82158525D01*
X174670525Y-82365368D01*
X174508010Y-82608589D01*
X174396068Y-82878842D01*
X174339000Y-83165740D01*
X174339000Y-83458260D01*
X174396068Y-83745158D01*
X174508010Y-84015411D01*
X174670525Y-84258632D01*
X174877368Y-84465475D01*
X175051760Y-84582000D01*
X174877368Y-84698525D01*
X174670525Y-84905368D01*
X174508010Y-85148589D01*
X174396068Y-85418842D01*
X174339000Y-85705740D01*
X174339000Y-85998260D01*
X174396068Y-86285158D01*
X174508010Y-86555411D01*
X174670525Y-86798632D01*
X174802380Y-86930487D01*
X174729820Y-86952498D01*
X174619506Y-87011463D01*
X174522815Y-87090815D01*
X174443463Y-87187506D01*
X174384498Y-87297820D01*
X174348188Y-87417518D01*
X174335928Y-87542000D01*
X173885000Y-87542000D01*
X173885000Y-80720093D01*
X182899699Y-80720093D01*
X184500000Y-82320395D01*
X186100301Y-80720093D01*
X189249699Y-80720093D01*
X190850000Y-82320395D01*
X192450301Y-80720093D01*
X192245595Y-80363063D01*
X191801883Y-80131857D01*
X191321591Y-79991657D01*
X190823177Y-79947851D01*
X190325792Y-80002123D01*
X189848553Y-80152387D01*
X189454405Y-80363063D01*
X189249699Y-80720093D01*
X186100301Y-80720093D01*
X185895595Y-80363063D01*
X185451883Y-80131857D01*
X184971591Y-79991657D01*
X184473177Y-79947851D01*
X183975792Y-80002123D01*
X183498553Y-80152387D01*
X183104405Y-80363063D01*
X182899699Y-80720093D01*
X173885000Y-80720093D01*
X173885000Y-79515470D01*
X173889281Y-79472001D01*
X173885000Y-79428532D01*
X173885000Y-79428524D01*
X173872195Y-79298511D01*
X173821589Y-79131688D01*
X173739411Y-78977942D01*
X173656532Y-78876954D01*
X173656530Y-78876952D01*
X173628817Y-78843184D01*
X173595050Y-78815472D01*
X172534534Y-77754957D01*
X172523225Y-77698102D01*
X172445204Y-77509744D01*
X172331936Y-77340226D01*
X172187773Y-77196063D01*
X172018255Y-77082795D01*
X171829897Y-77004774D01*
X171629938Y-76965000D01*
X171426060Y-76965000D01*
X171226101Y-77004774D01*
X171037743Y-77082795D01*
X170868225Y-77196063D01*
X170724062Y-77340226D01*
X170610794Y-77509744D01*
X170532773Y-77698102D01*
X170492999Y-77898061D01*
X170492999Y-78101939D01*
X170532773Y-78301898D01*
X170610794Y-78490256D01*
X170724062Y-78659774D01*
X170868225Y-78803937D01*
X171037743Y-78917205D01*
X171226101Y-78995226D01*
X171282956Y-79006535D01*
X172115000Y-79838580D01*
X172115000Y-81675437D01*
X172018256Y-81610795D01*
X171829898Y-81532774D01*
X171629939Y-81493000D01*
X171426061Y-81493000D01*
X171226102Y-81532774D01*
X171037744Y-81610795D01*
X170868226Y-81724063D01*
X170724063Y-81868226D01*
X170610795Y-82037744D01*
X170532774Y-82226102D01*
X170521465Y-82282956D01*
X167282957Y-85521465D01*
X167226102Y-85532774D01*
X167037744Y-85610795D01*
X166868226Y-85724063D01*
X166724063Y-85868226D01*
X166610795Y-86037744D01*
X166532774Y-86226102D01*
X166493000Y-86426061D01*
X163885000Y-86426061D01*
X163885000Y-84543469D01*
X163889281Y-84500000D01*
X163885000Y-84456531D01*
X163885000Y-84456523D01*
X163872195Y-84326510D01*
X163821589Y-84159687D01*
X163739411Y-84005941D01*
X163628817Y-83871183D01*
X163595045Y-83843467D01*
X163506535Y-83754957D01*
X163495226Y-83698102D01*
X163417205Y-83509744D01*
X163303937Y-83340226D01*
X163159774Y-83196063D01*
X162990256Y-83082795D01*
X162801898Y-83004774D01*
X162601939Y-82965000D01*
X162398061Y-82965000D01*
X162198102Y-83004774D01*
X162049246Y-83066432D01*
X162011932Y-82878842D01*
X161899990Y-82608589D01*
X161737475Y-82365368D01*
X161530632Y-82158525D01*
X161356240Y-82042000D01*
X161530632Y-81925475D01*
X161737475Y-81718632D01*
X161899990Y-81475411D01*
X162011932Y-81205158D01*
X162069000Y-80918260D01*
X162069000Y-80625740D01*
X162011932Y-80338842D01*
X161899990Y-80068589D01*
X161737475Y-79825368D01*
X161530632Y-79618525D01*
X161356240Y-79502000D01*
X161530632Y-79385475D01*
X161737475Y-79178632D01*
X161899990Y-78935411D01*
X162011932Y-78665158D01*
X162069000Y-78378260D01*
X162069000Y-78085740D01*
X162011932Y-77798842D01*
X161899990Y-77528589D01*
X161737475Y-77285368D01*
X161530632Y-77078525D01*
X161356240Y-76962000D01*
X161530632Y-76845475D01*
X161737475Y-76638632D01*
X161899990Y-76395411D01*
X162011932Y-76125158D01*
X162069000Y-75838260D01*
X162069000Y-75545740D01*
X162011932Y-75258842D01*
X161899990Y-74988589D01*
X161737475Y-74745368D01*
X161530632Y-74538525D01*
X161356240Y-74422000D01*
X161530632Y-74305475D01*
X161737475Y-74098632D01*
X161899990Y-73855411D01*
X162011932Y-73585158D01*
X162069000Y-73298260D01*
X162069000Y-73005740D01*
X162011932Y-72718842D01*
X161899990Y-72448589D01*
X161737475Y-72205368D01*
X161530632Y-71998525D01*
X161356240Y-71882000D01*
X161530632Y-71765475D01*
X161737475Y-71558632D01*
X161899990Y-71315411D01*
X162011932Y-71045158D01*
X162069000Y-70758260D01*
X162069000Y-70465740D01*
X162011932Y-70178842D01*
X161899990Y-69908589D01*
X161737475Y-69665368D01*
X161530632Y-69458525D01*
X161356240Y-69342000D01*
X161530632Y-69225475D01*
X161737475Y-69018632D01*
X161899990Y-68775411D01*
X162011932Y-68505158D01*
X162069000Y-68218260D01*
X162069000Y-67925740D01*
X162011932Y-67638842D01*
X161899990Y-67368589D01*
X161737475Y-67125368D01*
X161530632Y-66918525D01*
X161356240Y-66802000D01*
X161530632Y-66685475D01*
X161737475Y-66478632D01*
X161899990Y-66235411D01*
X162011932Y-65965158D01*
X162069000Y-65678260D01*
X162069000Y-65385740D01*
X162011932Y-65098842D01*
X161899990Y-64828589D01*
X161737475Y-64585368D01*
X161530632Y-64378525D01*
X161356240Y-64262000D01*
X161530632Y-64145475D01*
X161737475Y-63938632D01*
X161899990Y-63695411D01*
X162011932Y-63425158D01*
X162060652Y-63180230D01*
X162115001Y-63234580D01*
X162115000Y-69456531D01*
X162110719Y-69500000D01*
X162115000Y-69543469D01*
X162115000Y-69543476D01*
X162127805Y-69673489D01*
X162178411Y-69840312D01*
X162260589Y-69994058D01*
X162371183Y-70128817D01*
X162404956Y-70156534D01*
X162493465Y-70245043D01*
X162504774Y-70301898D01*
X162582795Y-70490256D01*
X162696063Y-70659774D01*
X162840226Y-70803937D01*
X163009744Y-70917205D01*
X163198102Y-70995226D01*
X163398061Y-71035000D01*
X163601939Y-71035000D01*
X163801898Y-70995226D01*
X163990256Y-70917205D01*
X164159774Y-70803937D01*
X164303937Y-70659774D01*
X164417205Y-70490256D01*
X164495226Y-70301898D01*
X164535000Y-70101939D01*
X164535000Y-69898061D01*
X164495226Y-69698102D01*
X164417205Y-69509744D01*
X164303937Y-69340226D01*
X164159774Y-69196063D01*
X163990256Y-69082795D01*
X163885000Y-69039196D01*
X163885000Y-62911469D01*
X163889281Y-62868000D01*
X163885000Y-62824531D01*
X163885000Y-62824523D01*
X163872195Y-62694510D01*
X163871529Y-62692312D01*
X163855569Y-62639701D01*
X163821589Y-62527687D01*
X163739411Y-62373941D01*
X163628817Y-62239183D01*
X163595049Y-62211470D01*
X162054539Y-60670961D01*
X162069000Y-60598260D01*
X162069000Y-60305740D01*
X162011932Y-60018842D01*
X161899990Y-59748589D01*
X161737475Y-59505368D01*
X161630168Y-59398061D01*
X169965000Y-59398061D01*
X169965000Y-59601939D01*
X170004774Y-59801898D01*
X170082795Y-59990256D01*
X170196063Y-60159774D01*
X170340226Y-60303937D01*
X170509744Y-60417205D01*
X170698102Y-60495226D01*
X170898061Y-60535000D01*
X171101939Y-60535000D01*
X171301898Y-60495226D01*
X171490256Y-60417205D01*
X171538454Y-60385000D01*
X171652531Y-60385000D01*
X171696000Y-60389281D01*
X171739469Y-60385000D01*
X171739477Y-60385000D01*
X171869490Y-60372195D01*
X172036313Y-60321589D01*
X172190059Y-60239411D01*
X172324817Y-60128817D01*
X172352534Y-60095044D01*
X174347348Y-58100230D01*
X174396068Y-58345158D01*
X174508010Y-58615411D01*
X174670525Y-58858632D01*
X174877368Y-59065475D01*
X175051760Y-59182000D01*
X174877368Y-59298525D01*
X174670525Y-59505368D01*
X174508010Y-59748589D01*
X174396068Y-60018842D01*
X174339000Y-60305740D01*
X174339000Y-60598260D01*
X174396068Y-60885158D01*
X174508010Y-61155411D01*
X174670525Y-61398632D01*
X174877368Y-61605475D01*
X175051760Y-61722000D01*
X174877368Y-61838525D01*
X174670525Y-62045368D01*
X174508010Y-62288589D01*
X174396068Y-62558842D01*
X174339000Y-62845740D01*
X174339000Y-63138260D01*
X174396068Y-63425158D01*
X174508010Y-63695411D01*
X174670525Y-63938632D01*
X174877368Y-64145475D01*
X175051760Y-64262000D01*
X174877368Y-64378525D01*
X174670525Y-64585368D01*
X174508010Y-64828589D01*
X174396068Y-65098842D01*
X174339000Y-65385740D01*
X174339000Y-65678260D01*
X174396068Y-65965158D01*
X174508010Y-66235411D01*
X174670525Y-66478632D01*
X174877368Y-66685475D01*
X175051760Y-66802000D01*
X174877368Y-66918525D01*
X174670525Y-67125368D01*
X174508010Y-67368589D01*
X174396068Y-67638842D01*
X174339000Y-67925740D01*
X174339000Y-68218260D01*
X174396068Y-68505158D01*
X174508010Y-68775411D01*
X174670525Y-69018632D01*
X174877368Y-69225475D01*
X175051760Y-69342000D01*
X174877368Y-69458525D01*
X174670525Y-69665368D01*
X174508010Y-69908589D01*
X174396068Y-70178842D01*
X174339000Y-70465740D01*
X174339000Y-70758260D01*
X174396068Y-71045158D01*
X174508010Y-71315411D01*
X174670525Y-71558632D01*
X174877368Y-71765475D01*
X175051760Y-71882000D01*
X174877368Y-71998525D01*
X174670525Y-72205368D01*
X174508010Y-72448589D01*
X174396068Y-72718842D01*
X174339000Y-73005740D01*
X174339000Y-73298260D01*
X174396068Y-73585158D01*
X174508010Y-73855411D01*
X174670525Y-74098632D01*
X174877368Y-74305475D01*
X175051760Y-74422000D01*
X174877368Y-74538525D01*
X174670525Y-74745368D01*
X174508010Y-74988589D01*
X174396068Y-75258842D01*
X174339000Y-75545740D01*
X174339000Y-75838260D01*
X174396068Y-76125158D01*
X174508010Y-76395411D01*
X174670525Y-76638632D01*
X174877368Y-76845475D01*
X175051760Y-76962000D01*
X174877368Y-77078525D01*
X174670525Y-77285368D01*
X174508010Y-77528589D01*
X174396068Y-77798842D01*
X174339000Y-78085740D01*
X174339000Y-78378260D01*
X174396068Y-78665158D01*
X174508010Y-78935411D01*
X174670525Y-79178632D01*
X174877368Y-79385475D01*
X175059534Y-79507195D01*
X174942645Y-79576822D01*
X174726412Y-79771731D01*
X174552359Y-80005080D01*
X174427175Y-80267901D01*
X174382524Y-80415110D01*
X174503845Y-80645000D01*
X175697000Y-80645000D01*
X175697000Y-80625000D01*
X175951000Y-80625000D01*
X175951000Y-80645000D01*
X177144155Y-80645000D01*
X177265476Y-80415110D01*
X177220825Y-80267901D01*
X177095641Y-80005080D01*
X176921588Y-79771731D01*
X176705355Y-79576822D01*
X176588466Y-79507195D01*
X176770632Y-79385475D01*
X176977475Y-79178632D01*
X177139990Y-78935411D01*
X177251932Y-78665158D01*
X177309000Y-78378260D01*
X177309000Y-78085740D01*
X177251932Y-77798842D01*
X177139990Y-77528589D01*
X176977475Y-77285368D01*
X176770632Y-77078525D01*
X176596240Y-76962000D01*
X176770632Y-76845475D01*
X176977475Y-76638632D01*
X177139990Y-76395411D01*
X177251932Y-76125158D01*
X177309000Y-75838260D01*
X177309000Y-75545740D01*
X177290933Y-75454907D01*
X182724699Y-75454907D01*
X182929405Y-75811937D01*
X183373117Y-76043143D01*
X183853409Y-76183343D01*
X184351823Y-76227149D01*
X184849208Y-76172877D01*
X185326447Y-76022613D01*
X185720595Y-75811937D01*
X185925301Y-75454907D01*
X189074699Y-75454907D01*
X189279405Y-75811937D01*
X189723117Y-76043143D01*
X190203409Y-76183343D01*
X190701823Y-76227149D01*
X191199208Y-76172877D01*
X191676447Y-76022613D01*
X192070595Y-75811937D01*
X192275301Y-75454907D01*
X190675000Y-73854605D01*
X189074699Y-75454907D01*
X185925301Y-75454907D01*
X184325000Y-73854605D01*
X182724699Y-75454907D01*
X177290933Y-75454907D01*
X177251932Y-75258842D01*
X177139990Y-74988589D01*
X176977475Y-74745368D01*
X176770632Y-74538525D01*
X176596240Y-74422000D01*
X176770632Y-74305475D01*
X176977475Y-74098632D01*
X177139990Y-73855411D01*
X177203607Y-73701823D01*
X181772851Y-73701823D01*
X181827123Y-74199208D01*
X181977387Y-74676447D01*
X182188063Y-75070595D01*
X182545093Y-75275301D01*
X184145395Y-73675000D01*
X182545093Y-72074699D01*
X182188063Y-72279405D01*
X181956857Y-72723117D01*
X181816657Y-73203409D01*
X181772851Y-73701823D01*
X177203607Y-73701823D01*
X177251932Y-73585158D01*
X177309000Y-73298260D01*
X177309000Y-73005740D01*
X177294539Y-72933040D01*
X178022580Y-72204999D01*
X180641547Y-72204999D01*
X180689745Y-72237204D01*
X180878103Y-72315225D01*
X181078062Y-72354999D01*
X181281940Y-72354999D01*
X181481899Y-72315225D01*
X181670257Y-72237204D01*
X181839775Y-72123936D01*
X181983938Y-71979773D01*
X182097206Y-71810255D01*
X182175227Y-71621897D01*
X182215001Y-71421938D01*
X182215001Y-71218060D01*
X182175227Y-71018101D01*
X182097206Y-70829743D01*
X181983938Y-70660225D01*
X181839775Y-70516062D01*
X181670257Y-70402794D01*
X181481899Y-70324773D01*
X181281940Y-70284999D01*
X181078062Y-70284999D01*
X180878103Y-70324773D01*
X180689745Y-70402794D01*
X180641547Y-70434999D01*
X177699470Y-70434999D01*
X177656001Y-70430718D01*
X177656000Y-70430718D01*
X177640446Y-70432250D01*
X177612532Y-70434999D01*
X177612524Y-70434999D01*
X177482511Y-70447804D01*
X177315687Y-70498410D01*
X177309000Y-70501984D01*
X177309000Y-70465740D01*
X177294539Y-70393039D01*
X178582671Y-69104907D01*
X182724699Y-69104907D01*
X182929405Y-69461937D01*
X183373117Y-69693143D01*
X183853409Y-69833343D01*
X184351823Y-69877149D01*
X184849208Y-69822877D01*
X185216574Y-69707208D01*
X185179731Y-69796154D01*
X185087000Y-70262340D01*
X185087000Y-70737660D01*
X185179731Y-71203846D01*
X185214906Y-71288766D01*
X184796591Y-71166657D01*
X184298177Y-71122851D01*
X183800792Y-71177123D01*
X183323553Y-71327387D01*
X182929405Y-71538063D01*
X182724699Y-71895093D01*
X184325000Y-73495395D01*
X184339143Y-73481253D01*
X184518748Y-73660858D01*
X184504605Y-73675000D01*
X186104907Y-75275301D01*
X186461937Y-75070595D01*
X186693143Y-74626883D01*
X186833343Y-74146591D01*
X186877149Y-73648177D01*
X186822877Y-73150792D01*
X186707208Y-72783426D01*
X186796154Y-72820269D01*
X187262340Y-72913000D01*
X187737660Y-72913000D01*
X188203846Y-72820269D01*
X188288766Y-72785094D01*
X188166657Y-73203409D01*
X188122851Y-73701823D01*
X188177123Y-74199208D01*
X188327387Y-74676447D01*
X188538063Y-75070595D01*
X188895093Y-75275301D01*
X190495395Y-73675000D01*
X190854605Y-73675000D01*
X192454907Y-75275301D01*
X192811937Y-75070595D01*
X193043143Y-74626883D01*
X193183343Y-74146591D01*
X193227149Y-73648177D01*
X193172877Y-73150792D01*
X193022613Y-72673553D01*
X192811937Y-72279405D01*
X192454907Y-72074699D01*
X190854605Y-73675000D01*
X190495395Y-73675000D01*
X190481253Y-73660858D01*
X190660858Y-73481253D01*
X190675000Y-73495395D01*
X192275301Y-71895093D01*
X192070595Y-71538063D01*
X191626883Y-71306857D01*
X191146591Y-71166657D01*
X190648177Y-71122851D01*
X190150792Y-71177123D01*
X189783426Y-71292792D01*
X189820269Y-71203846D01*
X189913000Y-70737660D01*
X189913000Y-70262340D01*
X189820269Y-69796154D01*
X189785094Y-69711234D01*
X190203409Y-69833343D01*
X190701823Y-69877149D01*
X191199208Y-69822877D01*
X191676447Y-69672613D01*
X192070595Y-69461937D01*
X192275301Y-69104907D01*
X190675000Y-67504605D01*
X190660858Y-67518748D01*
X190481253Y-67339143D01*
X190495395Y-67325000D01*
X190854605Y-67325000D01*
X192454907Y-68925301D01*
X192811937Y-68720595D01*
X193043143Y-68276883D01*
X193183343Y-67796591D01*
X193227149Y-67298177D01*
X193172877Y-66800792D01*
X193022613Y-66323553D01*
X192811937Y-65929405D01*
X192454907Y-65724699D01*
X190854605Y-67325000D01*
X190495395Y-67325000D01*
X188895093Y-65724699D01*
X188538063Y-65929405D01*
X188306857Y-66373117D01*
X188166657Y-66853409D01*
X188122851Y-67351823D01*
X188177123Y-67849208D01*
X188292792Y-68216574D01*
X188203846Y-68179731D01*
X187737660Y-68087000D01*
X187262340Y-68087000D01*
X186796154Y-68179731D01*
X186711234Y-68214906D01*
X186833343Y-67796591D01*
X186877149Y-67298177D01*
X186822877Y-66800792D01*
X186672613Y-66323553D01*
X186461937Y-65929405D01*
X186104907Y-65724699D01*
X184504605Y-67325000D01*
X184518748Y-67339143D01*
X184339143Y-67518748D01*
X184325000Y-67504605D01*
X182724699Y-69104907D01*
X178582671Y-69104907D01*
X180335755Y-67351823D01*
X181772851Y-67351823D01*
X181827123Y-67849208D01*
X181977387Y-68326447D01*
X182188063Y-68720595D01*
X182545093Y-68925301D01*
X184145395Y-67325000D01*
X182545093Y-65724699D01*
X182188063Y-65929405D01*
X181956857Y-66373117D01*
X181816657Y-66853409D01*
X181772851Y-67351823D01*
X180335755Y-67351823D01*
X182142485Y-65545093D01*
X182724699Y-65545093D01*
X184325000Y-67145395D01*
X185925301Y-65545093D01*
X189074699Y-65545093D01*
X190675000Y-67145395D01*
X192275301Y-65545093D01*
X192070595Y-65188063D01*
X191626883Y-64956857D01*
X191146591Y-64816657D01*
X190648177Y-64772851D01*
X190150792Y-64827123D01*
X189673553Y-64977387D01*
X189279405Y-65188063D01*
X189074699Y-65545093D01*
X185925301Y-65545093D01*
X185720595Y-65188063D01*
X185276883Y-64956857D01*
X184796591Y-64816657D01*
X184298177Y-64772851D01*
X183800792Y-64827123D01*
X183323553Y-64977387D01*
X182929405Y-65188063D01*
X182724699Y-65545093D01*
X182142485Y-65545093D01*
X187407671Y-60279907D01*
X189280699Y-60279907D01*
X189485405Y-60636937D01*
X189929117Y-60868143D01*
X190409409Y-61008343D01*
X190907823Y-61052149D01*
X191405208Y-60997877D01*
X191882447Y-60847613D01*
X192276595Y-60636937D01*
X192481301Y-60279907D01*
X190881000Y-58679605D01*
X189280699Y-60279907D01*
X187407671Y-60279907D01*
X188301051Y-59386528D01*
X188334817Y-59358817D01*
X188396433Y-59283739D01*
X188445411Y-59224059D01*
X188445812Y-59223309D01*
X188533387Y-59501447D01*
X188744063Y-59895595D01*
X189101093Y-60100301D01*
X190701395Y-58500000D01*
X191060605Y-58500000D01*
X192660907Y-60100301D01*
X193017937Y-59895595D01*
X193249143Y-59451883D01*
X193389343Y-58971591D01*
X193433149Y-58473177D01*
X193378877Y-57975792D01*
X193228613Y-57498553D01*
X193017937Y-57104405D01*
X192660907Y-56899699D01*
X191060605Y-58500000D01*
X190701395Y-58500000D01*
X190687253Y-58485858D01*
X190866858Y-58306253D01*
X190881000Y-58320395D01*
X192481301Y-56720093D01*
X192276595Y-56363063D01*
X191832883Y-56131857D01*
X191352591Y-55991657D01*
X190854177Y-55947851D01*
X190356792Y-56002123D01*
X189989426Y-56117792D01*
X190026269Y-56028846D01*
X190119000Y-55562660D01*
X190119000Y-55087340D01*
X190026269Y-54621154D01*
X189991094Y-54536234D01*
X190409409Y-54658343D01*
X190907823Y-54702149D01*
X191405208Y-54647877D01*
X191882447Y-54497613D01*
X192276595Y-54286937D01*
X192481301Y-53929907D01*
X190881000Y-52329605D01*
X190866858Y-52343748D01*
X190687253Y-52164143D01*
X190701395Y-52150000D01*
X191060605Y-52150000D01*
X192660907Y-53750301D01*
X193017937Y-53545595D01*
X193249143Y-53101883D01*
X193389343Y-52621591D01*
X193433149Y-52123177D01*
X193378877Y-51625792D01*
X193228613Y-51148553D01*
X193017937Y-50754405D01*
X192660907Y-50549699D01*
X191060605Y-52150000D01*
X190701395Y-52150000D01*
X189101093Y-50549699D01*
X188744063Y-50754405D01*
X188512857Y-51198117D01*
X188372657Y-51678409D01*
X188328851Y-52176823D01*
X188383123Y-52674208D01*
X188498792Y-53041574D01*
X188409846Y-53004731D01*
X187943660Y-52912000D01*
X187468340Y-52912000D01*
X187002154Y-53004731D01*
X186917234Y-53039906D01*
X187039343Y-52621591D01*
X187083149Y-52123177D01*
X187028877Y-51625792D01*
X186878613Y-51148553D01*
X186667937Y-50754405D01*
X186310907Y-50549699D01*
X184710605Y-52150000D01*
X184724748Y-52164143D01*
X184545143Y-52343748D01*
X184531000Y-52329605D01*
X182930699Y-53929907D01*
X183135405Y-54286937D01*
X183579117Y-54518143D01*
X184059409Y-54658343D01*
X184557823Y-54702149D01*
X185055208Y-54647877D01*
X185422574Y-54532208D01*
X185385731Y-54621154D01*
X185293000Y-55087340D01*
X185293000Y-55562660D01*
X185385731Y-56028846D01*
X185420906Y-56113766D01*
X185002591Y-55991657D01*
X184504177Y-55947851D01*
X184006792Y-56002123D01*
X183529553Y-56152387D01*
X183135405Y-56363063D01*
X182930699Y-56720093D01*
X184531000Y-58320395D01*
X184545143Y-58306253D01*
X184724748Y-58485858D01*
X184710605Y-58500000D01*
X184724748Y-58514143D01*
X184545143Y-58693748D01*
X184531000Y-58679605D01*
X182930699Y-60279907D01*
X183135405Y-60636937D01*
X183579117Y-60868143D01*
X184059409Y-61008343D01*
X184166653Y-61017769D01*
X177300652Y-67883770D01*
X177251932Y-67638842D01*
X177139990Y-67368589D01*
X176977475Y-67125368D01*
X176770632Y-66918525D01*
X176596240Y-66802000D01*
X176770632Y-66685475D01*
X176977475Y-66478632D01*
X177139990Y-66235411D01*
X177251932Y-65965158D01*
X177309000Y-65678260D01*
X177309000Y-65385740D01*
X177251932Y-65098842D01*
X177139990Y-64828589D01*
X176977475Y-64585368D01*
X176770632Y-64378525D01*
X176596240Y-64262000D01*
X176770632Y-64145475D01*
X176977475Y-63938632D01*
X177139990Y-63695411D01*
X177251932Y-63425158D01*
X177309000Y-63138260D01*
X177309000Y-62845740D01*
X177251932Y-62558842D01*
X177139990Y-62288589D01*
X176977475Y-62045368D01*
X176770632Y-61838525D01*
X176596240Y-61722000D01*
X176770632Y-61605475D01*
X176977475Y-61398632D01*
X177139990Y-61155411D01*
X177251932Y-60885158D01*
X177309000Y-60598260D01*
X177309000Y-60305740D01*
X177251932Y-60018842D01*
X177139990Y-59748589D01*
X176977475Y-59505368D01*
X176770632Y-59298525D01*
X176596240Y-59182000D01*
X176770632Y-59065475D01*
X176977475Y-58858632D01*
X177139990Y-58615411D01*
X177176684Y-58526823D01*
X181978851Y-58526823D01*
X182033123Y-59024208D01*
X182183387Y-59501447D01*
X182394063Y-59895595D01*
X182751093Y-60100301D01*
X184351395Y-58500000D01*
X182751093Y-56899699D01*
X182394063Y-57104405D01*
X182162857Y-57548117D01*
X182022657Y-58028409D01*
X181978851Y-58526823D01*
X177176684Y-58526823D01*
X177251932Y-58345158D01*
X177309000Y-58058260D01*
X177309000Y-57765740D01*
X177251932Y-57478842D01*
X177139990Y-57208589D01*
X176977475Y-56965368D01*
X176770632Y-56758525D01*
X176596240Y-56642000D01*
X176770632Y-56525475D01*
X176977475Y-56318632D01*
X177139990Y-56075411D01*
X177251932Y-55805158D01*
X177309000Y-55518260D01*
X177309000Y-55225740D01*
X177251932Y-54938842D01*
X177139990Y-54668589D01*
X176977475Y-54425368D01*
X176770632Y-54218525D01*
X176596240Y-54102000D01*
X176770632Y-53985475D01*
X176977475Y-53778632D01*
X177139990Y-53535411D01*
X177251932Y-53265158D01*
X177309000Y-52978260D01*
X177309000Y-52685740D01*
X177251932Y-52398842D01*
X177159970Y-52176823D01*
X181978851Y-52176823D01*
X182033123Y-52674208D01*
X182183387Y-53151447D01*
X182394063Y-53545595D01*
X182751093Y-53750301D01*
X184351395Y-52150000D01*
X182751093Y-50549699D01*
X182394063Y-50754405D01*
X182162857Y-51198117D01*
X182022657Y-51678409D01*
X181978851Y-52176823D01*
X177159970Y-52176823D01*
X177139990Y-52128589D01*
X176977475Y-51885368D01*
X176770632Y-51678525D01*
X176527411Y-51516010D01*
X176257158Y-51404068D01*
X175970260Y-51347000D01*
X175677740Y-51347000D01*
X175390842Y-51404068D01*
X175120589Y-51516010D01*
X174877368Y-51678525D01*
X174670525Y-51885368D01*
X174508010Y-52128589D01*
X174396068Y-52398842D01*
X174339000Y-52685740D01*
X174339000Y-52978260D01*
X174396068Y-53265158D01*
X174508010Y-53535411D01*
X174670525Y-53778632D01*
X174877368Y-53985475D01*
X175051760Y-54102000D01*
X174877368Y-54218525D01*
X174670525Y-54425368D01*
X174508010Y-54668589D01*
X174396068Y-54938842D01*
X174339000Y-55225740D01*
X174339000Y-55518260D01*
X174353461Y-55590960D01*
X171399302Y-58545120D01*
X171301898Y-58504774D01*
X171101939Y-58465000D01*
X170898061Y-58465000D01*
X170698102Y-58504774D01*
X170509744Y-58582795D01*
X170340226Y-58696063D01*
X170196063Y-58840226D01*
X170082795Y-59009744D01*
X170004774Y-59198102D01*
X169965000Y-59398061D01*
X161630168Y-59398061D01*
X161530632Y-59298525D01*
X161356240Y-59182000D01*
X161530632Y-59065475D01*
X161737475Y-58858632D01*
X161899990Y-58615411D01*
X162011932Y-58345158D01*
X162069000Y-58058260D01*
X162069000Y-57765740D01*
X162011932Y-57478842D01*
X161899990Y-57208589D01*
X161737475Y-56965368D01*
X161530632Y-56758525D01*
X161356240Y-56642000D01*
X161530632Y-56525475D01*
X161737475Y-56318632D01*
X161899990Y-56075411D01*
X162011932Y-55805158D01*
X162069000Y-55518260D01*
X162069000Y-55225740D01*
X162011932Y-54938842D01*
X161899990Y-54668589D01*
X161737475Y-54425368D01*
X161605620Y-54293513D01*
X161678180Y-54271502D01*
X161788494Y-54212537D01*
X161885185Y-54133185D01*
X161964537Y-54036494D01*
X162023502Y-53926180D01*
X162059812Y-53806482D01*
X162072072Y-53682000D01*
X162072072Y-51982000D01*
X162059812Y-51857518D01*
X162023502Y-51737820D01*
X161964537Y-51627506D01*
X161885185Y-51530815D01*
X161788494Y-51451463D01*
X161678180Y-51392498D01*
X161558482Y-51356188D01*
X161434000Y-51343928D01*
X159734000Y-51343928D01*
X159609518Y-51356188D01*
X159489820Y-51392498D01*
X159379506Y-51451463D01*
X159282815Y-51530815D01*
X159203463Y-51627506D01*
X159144498Y-51737820D01*
X159108188Y-51857518D01*
X159095928Y-51982000D01*
X159095928Y-53682000D01*
X159108188Y-53806482D01*
X159144498Y-53926180D01*
X159203463Y-54036494D01*
X159282815Y-54133185D01*
X159379506Y-54212537D01*
X159489820Y-54271502D01*
X159562380Y-54293513D01*
X159430525Y-54425368D01*
X159268010Y-54668589D01*
X159156068Y-54938842D01*
X159099000Y-55225740D01*
X159099000Y-55518260D01*
X159156068Y-55805158D01*
X159268010Y-56075411D01*
X159430525Y-56318632D01*
X159637368Y-56525475D01*
X159811760Y-56642000D01*
X159637368Y-56758525D01*
X159430525Y-56965368D01*
X159268010Y-57208589D01*
X159156068Y-57478842D01*
X159099000Y-57765740D01*
X159099000Y-58058260D01*
X159156068Y-58345158D01*
X159268010Y-58615411D01*
X159430525Y-58858632D01*
X159637368Y-59065475D01*
X159811760Y-59182000D01*
X159637368Y-59298525D01*
X159430525Y-59505368D01*
X159268010Y-59748589D01*
X159156068Y-60018842D01*
X159099000Y-60305740D01*
X159099000Y-60598260D01*
X159156068Y-60885158D01*
X159268010Y-61155411D01*
X159430525Y-61398632D01*
X159637368Y-61605475D01*
X159811760Y-61722000D01*
X159637368Y-61838525D01*
X159430525Y-62045368D01*
X159268010Y-62288589D01*
X159156068Y-62558842D01*
X159099000Y-62845740D01*
X159099000Y-63138260D01*
X159156068Y-63425158D01*
X159268010Y-63695411D01*
X159430525Y-63938632D01*
X159637368Y-64145475D01*
X159811760Y-64262000D01*
X159637368Y-64378525D01*
X159430525Y-64585368D01*
X159268010Y-64828589D01*
X159156068Y-65098842D01*
X159099000Y-65385740D01*
X159099000Y-65678260D01*
X159156068Y-65965158D01*
X159268010Y-66235411D01*
X159430525Y-66478632D01*
X159637368Y-66685475D01*
X159811760Y-66802000D01*
X159637368Y-66918525D01*
X159430525Y-67125368D01*
X159268010Y-67368589D01*
X159156068Y-67638842D01*
X159099000Y-67925740D01*
X159099000Y-68218260D01*
X159156068Y-68505158D01*
X159268010Y-68775411D01*
X159430525Y-69018632D01*
X159637368Y-69225475D01*
X159811760Y-69342000D01*
X159637368Y-69458525D01*
X159430525Y-69665368D01*
X159268010Y-69908589D01*
X159156068Y-70178842D01*
X159099000Y-70465740D01*
X159099000Y-70758260D01*
X159156068Y-71045158D01*
X159268010Y-71315411D01*
X159430525Y-71558632D01*
X159637368Y-71765475D01*
X159811760Y-71882000D01*
X159637368Y-71998525D01*
X159430525Y-72205368D01*
X159389344Y-72267000D01*
X157391469Y-72267000D01*
X157348000Y-72262719D01*
X157304531Y-72267000D01*
X157304523Y-72267000D01*
X157174510Y-72279805D01*
X157007686Y-72330411D01*
X156853941Y-72412589D01*
X156752953Y-72495468D01*
X156752951Y-72495470D01*
X156719183Y-72523183D01*
X156691470Y-72556951D01*
X154904958Y-74343464D01*
X154904953Y-74343468D01*
X151254957Y-77993465D01*
X151198102Y-78004774D01*
X151009744Y-78082795D01*
X150840226Y-78196063D01*
X150696063Y-78340226D01*
X150582795Y-78509744D01*
X150504774Y-78698102D01*
X150465000Y-78898061D01*
X144035000Y-78898061D01*
X144035000Y-78848816D01*
X143976011Y-78552257D01*
X143860299Y-78272905D01*
X143692312Y-78021495D01*
X143478505Y-77807688D01*
X143335690Y-77712262D01*
X143384475Y-77564080D01*
X142500000Y-76679605D01*
X141615525Y-77564080D01*
X141664310Y-77712262D01*
X141521495Y-77807688D01*
X141307688Y-78021495D01*
X141210000Y-78167695D01*
X141210000Y-77310096D01*
X141435920Y-77384475D01*
X142320395Y-76500000D01*
X142679605Y-76500000D01*
X143564080Y-77384475D01*
X143818261Y-77300792D01*
X143949158Y-77028225D01*
X144024365Y-76735358D01*
X144040991Y-76433447D01*
X143998397Y-76134093D01*
X143898222Y-75848801D01*
X143818261Y-75699208D01*
X143564080Y-75615525D01*
X142679605Y-76500000D01*
X142320395Y-76500000D01*
X141435920Y-75615525D01*
X141210000Y-75689904D01*
X141210000Y-75435920D01*
X141615525Y-75435920D01*
X142500000Y-76320395D01*
X143384475Y-75435920D01*
X143300792Y-75181739D01*
X143028225Y-75050842D01*
X142735358Y-74975635D01*
X142433447Y-74959009D01*
X142134093Y-75001603D01*
X141848801Y-75101778D01*
X141699208Y-75181739D01*
X141615525Y-75435920D01*
X141210000Y-75435920D01*
X141210000Y-73990475D01*
X147365000Y-73990475D01*
X147365000Y-74509525D01*
X147466261Y-75018601D01*
X147664893Y-75498141D01*
X147953262Y-75929715D01*
X148320285Y-76296738D01*
X148751859Y-76585107D01*
X149231399Y-76783739D01*
X149740475Y-76885000D01*
X150259525Y-76885000D01*
X150768601Y-76783739D01*
X151248141Y-76585107D01*
X151679715Y-76296738D01*
X152046738Y-75929715D01*
X152335107Y-75498141D01*
X152533739Y-75018601D01*
X152635000Y-74509525D01*
X152635000Y-73990475D01*
X152533739Y-73481399D01*
X152335107Y-73001859D01*
X152046738Y-72570285D01*
X151679715Y-72203262D01*
X151248141Y-71914893D01*
X151175973Y-71885000D01*
X152961546Y-71885000D01*
X153009744Y-71917205D01*
X153198102Y-71995226D01*
X153398061Y-72035000D01*
X153601939Y-72035000D01*
X153801898Y-71995226D01*
X153990256Y-71917205D01*
X154159774Y-71803937D01*
X154303937Y-71659774D01*
X154417205Y-71490256D01*
X154495226Y-71301898D01*
X154535000Y-71101939D01*
X154535000Y-70898061D01*
X154495226Y-70698102D01*
X154417205Y-70509744D01*
X154303937Y-70340226D01*
X154159774Y-70196063D01*
X153990256Y-70082795D01*
X153801898Y-70004774D01*
X153601939Y-69965000D01*
X153398061Y-69965000D01*
X153198102Y-70004774D01*
X153009744Y-70082795D01*
X152961546Y-70115000D01*
X150038454Y-70115000D01*
X149990256Y-70082795D01*
X149801898Y-70004774D01*
X149601939Y-69965000D01*
X149398061Y-69965000D01*
X149198102Y-70004774D01*
X149009744Y-70082795D01*
X148840226Y-70196063D01*
X148696063Y-70340226D01*
X148582795Y-70509744D01*
X148504774Y-70698102D01*
X148465000Y-70898061D01*
X148465000Y-71101939D01*
X148504774Y-71301898D01*
X148582795Y-71490256D01*
X148696063Y-71659774D01*
X148840226Y-71803937D01*
X148908919Y-71849836D01*
X148751859Y-71914893D01*
X148320285Y-72203262D01*
X147953262Y-72570285D01*
X147664893Y-73001859D01*
X147466261Y-73481399D01*
X147365000Y-73990475D01*
X141210000Y-73990475D01*
X141210000Y-65990475D01*
X147365000Y-65990475D01*
X147365000Y-66509525D01*
X147466261Y-67018601D01*
X147664893Y-67498141D01*
X147953262Y-67929715D01*
X148320285Y-68296738D01*
X148751859Y-68585107D01*
X149231399Y-68783739D01*
X149740475Y-68885000D01*
X150259525Y-68885000D01*
X150768601Y-68783739D01*
X151248141Y-68585107D01*
X151679715Y-68296738D01*
X152046738Y-67929715D01*
X152335107Y-67498141D01*
X152533739Y-67018601D01*
X152635000Y-66509525D01*
X152635000Y-65990475D01*
X152533739Y-65481399D01*
X152335107Y-65001859D01*
X152046738Y-64570285D01*
X151679715Y-64203262D01*
X151248141Y-63914893D01*
X150768601Y-63716261D01*
X150259525Y-63615000D01*
X149740475Y-63615000D01*
X149231399Y-63716261D01*
X148751859Y-63914893D01*
X148320285Y-64203262D01*
X147953262Y-64570285D01*
X147664893Y-65001859D01*
X147466261Y-65481399D01*
X147365000Y-65990475D01*
X141210000Y-65990475D01*
X141210000Y-64832305D01*
X141307688Y-64978505D01*
X141521495Y-65192312D01*
X141772905Y-65360299D01*
X142052257Y-65476011D01*
X142348816Y-65535000D01*
X142651184Y-65535000D01*
X142947743Y-65476011D01*
X143227095Y-65360299D01*
X143478505Y-65192312D01*
X143692312Y-64978505D01*
X143860299Y-64727095D01*
X143976011Y-64447743D01*
X144035000Y-64151184D01*
X144035000Y-63848816D01*
X143976011Y-63552257D01*
X143860299Y-63272905D01*
X143692312Y-63021495D01*
X143478505Y-62807688D01*
X143392169Y-62750000D01*
X143478505Y-62692312D01*
X143692312Y-62478505D01*
X143860299Y-62227095D01*
X143976011Y-61947743D01*
X144035000Y-61651184D01*
X144035000Y-61348816D01*
X143976011Y-61052257D01*
X143860299Y-60772905D01*
X143692312Y-60521495D01*
X143478505Y-60307688D01*
X143335690Y-60212262D01*
X143384475Y-60064080D01*
X142500000Y-59179605D01*
X141615525Y-60064080D01*
X141664310Y-60212262D01*
X141521495Y-60307688D01*
X141307688Y-60521495D01*
X141210000Y-60667695D01*
X141210000Y-59810096D01*
X141435920Y-59884475D01*
X142320395Y-59000000D01*
X142679605Y-59000000D01*
X143564080Y-59884475D01*
X143818261Y-59800792D01*
X143949158Y-59528225D01*
X144024365Y-59235358D01*
X144040991Y-58933447D01*
X143998397Y-58634093D01*
X143898222Y-58348801D01*
X143818261Y-58199208D01*
X143564080Y-58115525D01*
X142679605Y-59000000D01*
X142320395Y-59000000D01*
X141435920Y-58115525D01*
X141210000Y-58189904D01*
X141210000Y-57935920D01*
X141615525Y-57935920D01*
X142500000Y-58820395D01*
X143384475Y-57935920D01*
X143300792Y-57681739D01*
X143028225Y-57550842D01*
X142735358Y-57475635D01*
X142433447Y-57459009D01*
X142134093Y-57501603D01*
X141848801Y-57601778D01*
X141699208Y-57681739D01*
X141615525Y-57935920D01*
X141210000Y-57935920D01*
X141210000Y-56490475D01*
X147365000Y-56490475D01*
X147365000Y-57009525D01*
X147466261Y-57518601D01*
X147664893Y-57998141D01*
X147953262Y-58429715D01*
X148320285Y-58796738D01*
X148751859Y-59085107D01*
X149231399Y-59283739D01*
X149740475Y-59385000D01*
X150259525Y-59385000D01*
X150768601Y-59283739D01*
X151248141Y-59085107D01*
X151679715Y-58796738D01*
X152046738Y-58429715D01*
X152335107Y-57998141D01*
X152533739Y-57518601D01*
X152635000Y-57009525D01*
X152635000Y-56490475D01*
X152533739Y-55981399D01*
X152335107Y-55501859D01*
X152046738Y-55070285D01*
X151679715Y-54703262D01*
X151248141Y-54414893D01*
X150768601Y-54216261D01*
X150259525Y-54115000D01*
X149740475Y-54115000D01*
X149231399Y-54216261D01*
X148751859Y-54414893D01*
X148320285Y-54703262D01*
X147953262Y-55070285D01*
X147664893Y-55501859D01*
X147466261Y-55981399D01*
X147365000Y-56490475D01*
X141210000Y-56490475D01*
X141210000Y-49849833D01*
X183941077Y-49672814D01*
X183529553Y-49802387D01*
X183135405Y-50013063D01*
X182930699Y-50370093D01*
X184531000Y-51970395D01*
X186131301Y-50370093D01*
X185926595Y-50013063D01*
X185482883Y-49781857D01*
X185092980Y-49668042D01*
X190412873Y-49646004D01*
X190356792Y-49652123D01*
X189879553Y-49802387D01*
X189485405Y-50013063D01*
X189280699Y-50370093D01*
X190881000Y-51970395D01*
X192481301Y-50370093D01*
X192276595Y-50013063D01*
X191832883Y-49781857D01*
X191354124Y-49642105D01*
X194868985Y-49627544D01*
X194867143Y-51186765D01*
G37*
X194867143Y-51186765D02*
X194625464Y-120790000D01*
X191558026Y-120790000D01*
X191851447Y-120697613D01*
X192245595Y-120486937D01*
X192450301Y-120129907D01*
X190850000Y-118529605D01*
X189249699Y-120129907D01*
X189454405Y-120486937D01*
X189898117Y-120718143D01*
X190144282Y-120790000D01*
X185208026Y-120790000D01*
X185501447Y-120697613D01*
X185895595Y-120486937D01*
X186100301Y-120129907D01*
X184500000Y-118529605D01*
X182899699Y-120129907D01*
X183104405Y-120486937D01*
X183548117Y-120718143D01*
X183794282Y-120790000D01*
X151686453Y-120790000D01*
X152046738Y-120429715D01*
X152335107Y-119998141D01*
X152533739Y-119518601D01*
X152635000Y-119009525D01*
X152635000Y-119000000D01*
X159611928Y-119000000D01*
X159624188Y-119124482D01*
X159660498Y-119244180D01*
X159719463Y-119354494D01*
X159798815Y-119451185D01*
X159895506Y-119530537D01*
X160005820Y-119589502D01*
X160125518Y-119625812D01*
X160250000Y-119638072D01*
X161714250Y-119635000D01*
X161873000Y-119476250D01*
X161873000Y-117627000D01*
X162127000Y-117627000D01*
X162127000Y-119476250D01*
X162285750Y-119635000D01*
X163750000Y-119638072D01*
X163874482Y-119625812D01*
X163994180Y-119589502D01*
X164104494Y-119530537D01*
X164201185Y-119451185D01*
X164280537Y-119354494D01*
X164339502Y-119244180D01*
X164375812Y-119124482D01*
X164388072Y-119000000D01*
X164386496Y-118376823D01*
X181947851Y-118376823D01*
X182002123Y-118874208D01*
X182152387Y-119351447D01*
X182363063Y-119745595D01*
X182720093Y-119950301D01*
X184320395Y-118350000D01*
X182720093Y-116749699D01*
X182363063Y-116954405D01*
X182131857Y-117398117D01*
X181991657Y-117878409D01*
X181947851Y-118376823D01*
X164386496Y-118376823D01*
X164385000Y-117785750D01*
X164226250Y-117627000D01*
X162127000Y-117627000D01*
X161873000Y-117627000D01*
X159773750Y-117627000D01*
X159615000Y-117785750D01*
X159611928Y-119000000D01*
X152635000Y-119000000D01*
X152635000Y-118490475D01*
X152533739Y-117981399D01*
X152335107Y-117501859D01*
X152046738Y-117070285D01*
X151679715Y-116703262D01*
X151248141Y-116414893D01*
X150768601Y-116216261D01*
X150259525Y-116115000D01*
X149740475Y-116115000D01*
X149231399Y-116216261D01*
X148751859Y-116414893D01*
X148320285Y-116703262D01*
X147953262Y-117070285D01*
X147664893Y-117501859D01*
X147466261Y-117981399D01*
X147365000Y-118490475D01*
X147365000Y-119009525D01*
X147466261Y-119518601D01*
X147664893Y-119998141D01*
X147953262Y-120429715D01*
X148313547Y-120790000D01*
X141210000Y-120790000D01*
X141210000Y-117332305D01*
X141307688Y-117478505D01*
X141521495Y-117692312D01*
X141772905Y-117860299D01*
X142052257Y-117976011D01*
X142348816Y-118035000D01*
X142651184Y-118035000D01*
X142947743Y-117976011D01*
X143227095Y-117860299D01*
X143478505Y-117692312D01*
X143692312Y-117478505D01*
X143860299Y-117227095D01*
X143976011Y-116947743D01*
X144035000Y-116651184D01*
X144035000Y-116348816D01*
X143976011Y-116052257D01*
X143954366Y-116000000D01*
X159611928Y-116000000D01*
X159615000Y-117214250D01*
X159773750Y-117373000D01*
X161873000Y-117373000D01*
X161873000Y-115523750D01*
X162127000Y-115523750D01*
X162127000Y-117373000D01*
X164226250Y-117373000D01*
X164385000Y-117214250D01*
X164388072Y-116000000D01*
X164375812Y-115875518D01*
X164339502Y-115755820D01*
X164280537Y-115645506D01*
X164201185Y-115548815D01*
X164104494Y-115469463D01*
X163994180Y-115410498D01*
X163874482Y-115374188D01*
X163750000Y-115361928D01*
X162285750Y-115365000D01*
X162127000Y-115523750D01*
X161873000Y-115523750D01*
X161714250Y-115365000D01*
X160250000Y-115361928D01*
X160125518Y-115374188D01*
X160005820Y-115410498D01*
X159895506Y-115469463D01*
X159798815Y-115548815D01*
X159719463Y-115645506D01*
X159660498Y-115755820D01*
X159624188Y-115875518D01*
X159611928Y-116000000D01*
X143954366Y-116000000D01*
X143860299Y-115772905D01*
X143692312Y-115521495D01*
X143478505Y-115307688D01*
X143392169Y-115250000D01*
X143478505Y-115192312D01*
X143692312Y-114978505D01*
X143860299Y-114727095D01*
X143976011Y-114447743D01*
X144035000Y-114151184D01*
X144035000Y-113848816D01*
X143976011Y-113552257D01*
X143860299Y-113272905D01*
X143692312Y-113021495D01*
X143478505Y-112807688D01*
X143335690Y-112712262D01*
X143384475Y-112564080D01*
X142500000Y-111679605D01*
X141615525Y-112564080D01*
X141664310Y-112712262D01*
X141521495Y-112807688D01*
X141307688Y-113021495D01*
X141210000Y-113167695D01*
X141210000Y-112310096D01*
X141435920Y-112384475D01*
X142320395Y-111500000D01*
X142679605Y-111500000D01*
X143564080Y-112384475D01*
X143818261Y-112300792D01*
X143949158Y-112028225D01*
X144024365Y-111735358D01*
X144040991Y-111433447D01*
X143998397Y-111134093D01*
X143898222Y-110848801D01*
X143818261Y-110699208D01*
X143564080Y-110615525D01*
X142679605Y-111500000D01*
X142320395Y-111500000D01*
X141435920Y-110615525D01*
X141210000Y-110689904D01*
X141210000Y-110435920D01*
X141615525Y-110435920D01*
X142500000Y-111320395D01*
X143384475Y-110435920D01*
X143300792Y-110181739D01*
X143028225Y-110050842D01*
X142735358Y-109975635D01*
X142433447Y-109959009D01*
X142134093Y-110001603D01*
X141848801Y-110101778D01*
X141699208Y-110181739D01*
X141615525Y-110435920D01*
X141210000Y-110435920D01*
X141210000Y-108990475D01*
X147365000Y-108990475D01*
X147365000Y-109509525D01*
X147466261Y-110018601D01*
X147664893Y-110498141D01*
X147953262Y-110929715D01*
X148320285Y-111296738D01*
X148751859Y-111585107D01*
X149231399Y-111783739D01*
X149740475Y-111885000D01*
X150259525Y-111885000D01*
X150768601Y-111783739D01*
X151103333Y-111645088D01*
X149754957Y-112993465D01*
X149698102Y-113004774D01*
X149509744Y-113082795D01*
X149340226Y-113196063D01*
X149196063Y-113340226D01*
X149082795Y-113509744D01*
X149004774Y-113698102D01*
X148965000Y-113898061D01*
X148965000Y-114101939D01*
X149004774Y-114301898D01*
X149082795Y-114490256D01*
X149196063Y-114659774D01*
X149340226Y-114803937D01*
X149509744Y-114917205D01*
X149698102Y-114995226D01*
X149898061Y-115035000D01*
X150101939Y-115035000D01*
X150301898Y-114995226D01*
X150490256Y-114917205D01*
X150659774Y-114803937D01*
X150803937Y-114659774D01*
X150917205Y-114490256D01*
X150995226Y-114301898D01*
X151006535Y-114245043D01*
X155245044Y-110006535D01*
X155301898Y-109995226D01*
X155490256Y-109917205D01*
X155659774Y-109803937D01*
X155803937Y-109659774D01*
X155917205Y-109490256D01*
X155995226Y-109301898D01*
X156035000Y-109101939D01*
X156035000Y-108898061D01*
X155995226Y-108698102D01*
X155917205Y-108509744D01*
X155803937Y-108340226D01*
X155659774Y-108196063D01*
X155490256Y-108082795D01*
X155301898Y-108004774D01*
X155101939Y-107965000D01*
X154898061Y-107965000D01*
X154698102Y-108004774D01*
X154509744Y-108082795D01*
X154340226Y-108196063D01*
X154196063Y-108340226D01*
X154082795Y-108509744D01*
X154004774Y-108698102D01*
X153993465Y-108754956D01*
X152395088Y-110353333D01*
X152533739Y-110018601D01*
X152635000Y-109509525D01*
X152635000Y-108990475D01*
X152533739Y-108481399D01*
X152335107Y-108001859D01*
X152046738Y-107570285D01*
X151679715Y-107203262D01*
X151248141Y-106914893D01*
X150768601Y-106716261D01*
X150259525Y-106615000D01*
X149740475Y-106615000D01*
X149231399Y-106716261D01*
X148751859Y-106914893D01*
X148320285Y-107203262D01*
X147953262Y-107570285D01*
X147664893Y-108001859D01*
X147466261Y-108481399D01*
X147365000Y-108990475D01*
X141210000Y-108990475D01*
X141210000Y-100990475D01*
X147287000Y-100990475D01*
X147287000Y-101509525D01*
X147388261Y-102018601D01*
X147586893Y-102498141D01*
X147875262Y-102929715D01*
X148242285Y-103296738D01*
X148673859Y-103585107D01*
X149153399Y-103783739D01*
X149662475Y-103885000D01*
X150181525Y-103885000D01*
X150690601Y-103783739D01*
X151170141Y-103585107D01*
X151601715Y-103296738D01*
X151968738Y-102929715D01*
X152257107Y-102498141D01*
X152455739Y-102018601D01*
X152557000Y-101509525D01*
X152557000Y-100990475D01*
X152455739Y-100481399D01*
X152257107Y-100001859D01*
X151968738Y-99570285D01*
X151601715Y-99203262D01*
X151170141Y-98914893D01*
X150690601Y-98716261D01*
X150181525Y-98615000D01*
X149662475Y-98615000D01*
X149153399Y-98716261D01*
X148673859Y-98914893D01*
X148242285Y-99203262D01*
X147875262Y-99570285D01*
X147586893Y-100001859D01*
X147388261Y-100481399D01*
X147287000Y-100990475D01*
X141210000Y-100990475D01*
X141210000Y-99949040D01*
X141229688Y-99978505D01*
X141443495Y-100192312D01*
X141694905Y-100360299D01*
X141974257Y-100476011D01*
X142270816Y-100535000D01*
X142573184Y-100535000D01*
X142869743Y-100476011D01*
X143149095Y-100360299D01*
X143400505Y-100192312D01*
X143614312Y-99978505D01*
X143782299Y-99727095D01*
X143898011Y-99447743D01*
X143957000Y-99151184D01*
X143957000Y-98848816D01*
X143898011Y-98552257D01*
X143782299Y-98272905D01*
X143614312Y-98021495D01*
X143400505Y-97807688D01*
X143314169Y-97750000D01*
X143400505Y-97692312D01*
X143614312Y-97478505D01*
X143782299Y-97227095D01*
X143898011Y-96947743D01*
X143957000Y-96651184D01*
X143957000Y-96348816D01*
X143898011Y-96052257D01*
X143782299Y-95772905D01*
X143614312Y-95521495D01*
X143400505Y-95307688D01*
X143257690Y-95212262D01*
X143306475Y-95064080D01*
X142422000Y-94179605D01*
X141537525Y-95064080D01*
X141586310Y-95212262D01*
X141443495Y-95307688D01*
X141229688Y-95521495D01*
X141210000Y-95550960D01*
X141210000Y-94835776D01*
X141357920Y-94884475D01*
X142242395Y-94000000D01*
X142601605Y-94000000D01*
X143486080Y-94884475D01*
X143740261Y-94800792D01*
X143871158Y-94528225D01*
X143946365Y-94235358D01*
X143962991Y-93933447D01*
X143920397Y-93634093D01*
X143820222Y-93348801D01*
X143740261Y-93199208D01*
X143486080Y-93115525D01*
X142601605Y-94000000D01*
X142242395Y-94000000D01*
X141357920Y-93115525D01*
X141210000Y-93164224D01*
X141210000Y-92935920D01*
X141537525Y-92935920D01*
X142422000Y-93820395D01*
X143306475Y-92935920D01*
X143222792Y-92681739D01*
X142950225Y-92550842D01*
X142657358Y-92475635D01*
X142355447Y-92459009D01*
X142056093Y-92501603D01*
X141770801Y-92601778D01*
X141621208Y-92681739D01*
X141537525Y-92935920D01*
X141210000Y-92935920D01*
X141210000Y-91490475D01*
X147287000Y-91490475D01*
X147287000Y-92009525D01*
X147388261Y-92518601D01*
X147586893Y-92998141D01*
X147875262Y-93429715D01*
X148242285Y-93796738D01*
X148673859Y-94085107D01*
X149153399Y-94283739D01*
X149662475Y-94385000D01*
X150181525Y-94385000D01*
X150690601Y-94283739D01*
X151170141Y-94085107D01*
X151601715Y-93796738D01*
X151968738Y-93429715D01*
X152257107Y-92998141D01*
X152455739Y-92518601D01*
X152557000Y-92009525D01*
X152557000Y-91490475D01*
X152455739Y-90981399D01*
X152257107Y-90501859D01*
X151968738Y-90070285D01*
X151601715Y-89703262D01*
X151170141Y-89414893D01*
X151061231Y-89369781D01*
X151159774Y-89303937D01*
X151303937Y-89159774D01*
X151417205Y-88990256D01*
X151495226Y-88801898D01*
X151506535Y-88745043D01*
X154732994Y-85518585D01*
X154817774Y-85461937D01*
X154961937Y-85317774D01*
X155075205Y-85148256D01*
X155153226Y-84959898D01*
X155193000Y-84759939D01*
X155193000Y-84556061D01*
X155153226Y-84356102D01*
X155075205Y-84167744D01*
X154961937Y-83998226D01*
X154817774Y-83854063D01*
X154648256Y-83740795D01*
X154459898Y-83662774D01*
X154259939Y-83623000D01*
X154056061Y-83623000D01*
X153856102Y-83662774D01*
X153667744Y-83740795D01*
X153498226Y-83854063D01*
X153354063Y-83998226D01*
X153240795Y-84167744D01*
X153162774Y-84356102D01*
X153123000Y-84556061D01*
X153123000Y-84625421D01*
X150254957Y-87493465D01*
X150198102Y-87504774D01*
X150009744Y-87582795D01*
X149840226Y-87696063D01*
X149696063Y-87840226D01*
X149582795Y-88009744D01*
X149504774Y-88198102D01*
X149465000Y-88398061D01*
X149465000Y-88601939D01*
X149504774Y-88801898D01*
X149582795Y-88990256D01*
X149666146Y-89115000D01*
X149662475Y-89115000D01*
X149153399Y-89216261D01*
X148673859Y-89414893D01*
X148242285Y-89703262D01*
X147875262Y-90070285D01*
X147586893Y-90501859D01*
X147388261Y-90981399D01*
X147287000Y-91490475D01*
X141210000Y-91490475D01*
X141210000Y-83490475D01*
X147365000Y-83490475D01*
X147365000Y-84009525D01*
X147466261Y-84518601D01*
X147664893Y-84998141D01*
X147953262Y-85429715D01*
X148320285Y-85796738D01*
X148751859Y-86085107D01*
X149231399Y-86283739D01*
X149740475Y-86385000D01*
X150259525Y-86385000D01*
X150768601Y-86283739D01*
X151248141Y-86085107D01*
X151679715Y-85796738D01*
X152046738Y-85429715D01*
X152335107Y-84998141D01*
X152533739Y-84518601D01*
X152635000Y-84009525D01*
X152635000Y-83490475D01*
X152533739Y-82981399D01*
X152335107Y-82501859D01*
X152046738Y-82070285D01*
X151679715Y-81703262D01*
X151248141Y-81414893D01*
X150768601Y-81216261D01*
X150259525Y-81115000D01*
X149740475Y-81115000D01*
X149231399Y-81216261D01*
X148751859Y-81414893D01*
X148320285Y-81703262D01*
X147953262Y-82070285D01*
X147664893Y-82501859D01*
X147466261Y-82981399D01*
X147365000Y-83490475D01*
X141210000Y-83490475D01*
X141210000Y-82332305D01*
X141307688Y-82478505D01*
X141521495Y-82692312D01*
X141772905Y-82860299D01*
X142052257Y-82976011D01*
X142348816Y-83035000D01*
X142651184Y-83035000D01*
X142947743Y-82976011D01*
X143227095Y-82860299D01*
X143478505Y-82692312D01*
X143692312Y-82478505D01*
X143860299Y-82227095D01*
X143976011Y-81947743D01*
X144035000Y-81651184D01*
X144035000Y-81348816D01*
X143976011Y-81052257D01*
X143860299Y-80772905D01*
X143692312Y-80521495D01*
X143478505Y-80307688D01*
X143392169Y-80250000D01*
X143478505Y-80192312D01*
X143692312Y-79978505D01*
X143860299Y-79727095D01*
X143976011Y-79447743D01*
X144035000Y-79151184D01*
X144035000Y-78898061D01*
X150465000Y-78898061D01*
X150465000Y-79101939D01*
X150504774Y-79301898D01*
X150582795Y-79490256D01*
X150696063Y-79659774D01*
X150840226Y-79803937D01*
X151009744Y-79917205D01*
X151198102Y-79995226D01*
X151398061Y-80035000D01*
X151601939Y-80035000D01*
X151801898Y-79995226D01*
X151990256Y-79917205D01*
X152159774Y-79803937D01*
X152303937Y-79659774D01*
X152417205Y-79490256D01*
X152495226Y-79301898D01*
X152506535Y-79245043D01*
X156156532Y-75595047D01*
X156156536Y-75595042D01*
X157714579Y-74037000D01*
X159389344Y-74037000D01*
X159430525Y-74098632D01*
X159637368Y-74305475D01*
X159811760Y-74422000D01*
X159637368Y-74538525D01*
X159430525Y-74745368D01*
X159268010Y-74988589D01*
X159156068Y-75258842D01*
X159099000Y-75545740D01*
X159099000Y-75838260D01*
X159156068Y-76125158D01*
X159268010Y-76395411D01*
X159430525Y-76638632D01*
X159637368Y-76845475D01*
X159811760Y-76962000D01*
X159637368Y-77078525D01*
X159430525Y-77285368D01*
X159268010Y-77528589D01*
X159156068Y-77798842D01*
X159099000Y-78085740D01*
X159099000Y-78378260D01*
X159156068Y-78665158D01*
X159268010Y-78935411D01*
X159430525Y-79178632D01*
X159637368Y-79385475D01*
X159811760Y-79502000D01*
X159637368Y-79618525D01*
X159430525Y-79825368D01*
X159268010Y-80068589D01*
X159156068Y-80338842D01*
X159099000Y-80625740D01*
X159099000Y-80918260D01*
X159156068Y-81205158D01*
X159268010Y-81475411D01*
X159430525Y-81718632D01*
X159637368Y-81925475D01*
X159811760Y-82042000D01*
X159637368Y-82158525D01*
X159430525Y-82365368D01*
X159268010Y-82608589D01*
X159156068Y-82878842D01*
X159099000Y-83165740D01*
X159099000Y-83458260D01*
X159156068Y-83745158D01*
X159268010Y-84015411D01*
X159430525Y-84258632D01*
X159637368Y-84465475D01*
X159819534Y-84587195D01*
X159702645Y-84656822D01*
X159486412Y-84851731D01*
X159312359Y-85085080D01*
X159187175Y-85347901D01*
X159142524Y-85495110D01*
X159263845Y-85725000D01*
X160457000Y-85725000D01*
X160457000Y-85705000D01*
X160711000Y-85705000D01*
X160711000Y-85725000D01*
X161904155Y-85725000D01*
X162025476Y-85495110D01*
X161980825Y-85347901D01*
X161855641Y-85085080D01*
X161681588Y-84851731D01*
X161465355Y-84656822D01*
X161348466Y-84587195D01*
X161530632Y-84465475D01*
X161560259Y-84435848D01*
X161582795Y-84490256D01*
X161696063Y-84659774D01*
X161840226Y-84803937D01*
X162009744Y-84917205D01*
X162115000Y-84960804D01*
X162115001Y-87461544D01*
X162082795Y-87509744D01*
X162004774Y-87698102D01*
X161972058Y-87862577D01*
X161899990Y-87688589D01*
X161737475Y-87445368D01*
X161530632Y-87238525D01*
X161348466Y-87116805D01*
X161465355Y-87047178D01*
X161681588Y-86852269D01*
X161855641Y-86618920D01*
X161980825Y-86356099D01*
X162025476Y-86208890D01*
X161904155Y-85979000D01*
X160711000Y-85979000D01*
X160711000Y-85999000D01*
X160457000Y-85999000D01*
X160457000Y-85979000D01*
X159263845Y-85979000D01*
X159142524Y-86208890D01*
X159187175Y-86356099D01*
X159312359Y-86618920D01*
X159486412Y-86852269D01*
X159702645Y-87047178D01*
X159819534Y-87116805D01*
X159637368Y-87238525D01*
X159430525Y-87445368D01*
X159268010Y-87688589D01*
X159156068Y-87958842D01*
X159099000Y-88245740D01*
X159099000Y-88538260D01*
X159156068Y-88825158D01*
X159268010Y-89095411D01*
X159430525Y-89338632D01*
X159637368Y-89545475D01*
X159880589Y-89707990D01*
X160150842Y-89819932D01*
X160437740Y-89877000D01*
X160730260Y-89877000D01*
X160802960Y-89862539D01*
X161115001Y-90174580D01*
X161115000Y-106456523D01*
X161115000Y-106456524D01*
X161115001Y-109111928D01*
X160250000Y-109111928D01*
X160125518Y-109124188D01*
X160005820Y-109160498D01*
X159895506Y-109219463D01*
X159798815Y-109298815D01*
X159719463Y-109395506D01*
X159660498Y-109505820D01*
X159624188Y-109625518D01*
X159611928Y-109750000D01*
X159611928Y-113250000D01*
X159624188Y-113374482D01*
X159660498Y-113494180D01*
X159719463Y-113604494D01*
X159798815Y-113701185D01*
X159895506Y-113780537D01*
X160005820Y-113839502D01*
X160125518Y-113875812D01*
X160250000Y-113888072D01*
X163750000Y-113888072D01*
X163874482Y-113875812D01*
X163994180Y-113839502D01*
X164104494Y-113780537D01*
X164201185Y-113701185D01*
X164280537Y-113604494D01*
X164321494Y-113527869D01*
X164311928Y-113625000D01*
X164311928Y-115375000D01*
X164341001Y-115670186D01*
X164427104Y-115954028D01*
X164566927Y-116215618D01*
X164755097Y-116444903D01*
X164984382Y-116633073D01*
X165245972Y-116772896D01*
X165529814Y-116858999D01*
X165825000Y-116888072D01*
X167575000Y-116888072D01*
X167870186Y-116858999D01*
X168154028Y-116772896D01*
X168415618Y-116633073D01*
X168644903Y-116444903D01*
X168833073Y-116215618D01*
X168972896Y-115954028D01*
X169058999Y-115670186D01*
X169088072Y-115375000D01*
X169088072Y-113625000D01*
X169058999Y-113329814D01*
X168972896Y-113045972D01*
X168833073Y-112784382D01*
X168644903Y-112555097D01*
X168415618Y-112366927D01*
X168154028Y-112227104D01*
X167870186Y-112141001D01*
X167575000Y-112111928D01*
X165825000Y-112111928D01*
X165529814Y-112141001D01*
X165245972Y-112227104D01*
X164984382Y-112366927D01*
X164755097Y-112555097D01*
X164566927Y-112784382D01*
X164427104Y-113045972D01*
X164388072Y-113174643D01*
X164388072Y-112026823D01*
X181947851Y-112026823D01*
X182002123Y-112524208D01*
X182152387Y-113001447D01*
X182363063Y-113395595D01*
X182720093Y-113600301D01*
X184320395Y-112000000D01*
X182720093Y-110399699D01*
X182363063Y-110604405D01*
X182131857Y-111048117D01*
X181991657Y-111528409D01*
X181947851Y-112026823D01*
X164388072Y-112026823D01*
X164388072Y-110220093D01*
X182899699Y-110220093D01*
X184500000Y-111820395D01*
X186100301Y-110220093D01*
X185895595Y-109863063D01*
X185451883Y-109631857D01*
X184971591Y-109491657D01*
X184473177Y-109447851D01*
X183975792Y-109502123D01*
X183498553Y-109652387D01*
X183104405Y-109863063D01*
X182899699Y-110220093D01*
X164388072Y-110220093D01*
X164388072Y-109750000D01*
X164375812Y-109625518D01*
X164339502Y-109505820D01*
X164280537Y-109395506D01*
X164201185Y-109298815D01*
X164104494Y-109219463D01*
X163994180Y-109160498D01*
X163874482Y-109124188D01*
X163750000Y-109111928D01*
X162885000Y-109111928D01*
X162885000Y-89851465D01*
X162889281Y-89807999D01*
X162885000Y-89764533D01*
X162885000Y-89764523D01*
X162872195Y-89634510D01*
X162821589Y-89467687D01*
X162739411Y-89313941D01*
X162680370Y-89242000D01*
X162656532Y-89212953D01*
X162656530Y-89212951D01*
X162628817Y-89179183D01*
X162595049Y-89151470D01*
X162054539Y-88610960D01*
X162069000Y-88538260D01*
X162069000Y-88456952D01*
X162082795Y-88490256D01*
X162196063Y-88659774D01*
X162340226Y-88803937D01*
X162509744Y-88917205D01*
X162698102Y-88995226D01*
X162898061Y-89035000D01*
X163101939Y-89035000D01*
X163301898Y-88995226D01*
X163490256Y-88917205D01*
X163659774Y-88803937D01*
X163803937Y-88659774D01*
X163917205Y-88490256D01*
X163995226Y-88301898D01*
X164035000Y-88101939D01*
X164035000Y-87898061D01*
X163995226Y-87698102D01*
X163917205Y-87509744D01*
X163885000Y-87461546D01*
X163885000Y-86426061D01*
X166493000Y-86426061D01*
X166493000Y-86629939D01*
X166532774Y-86829898D01*
X166610795Y-87018256D01*
X166724063Y-87187774D01*
X166868226Y-87331937D01*
X167037744Y-87445205D01*
X167226102Y-87523226D01*
X167426061Y-87563000D01*
X167629939Y-87563000D01*
X167829898Y-87523226D01*
X168018256Y-87445205D01*
X168187774Y-87331937D01*
X168331937Y-87187774D01*
X168445205Y-87018256D01*
X168523226Y-86829898D01*
X168534535Y-86773043D01*
X171773044Y-83534535D01*
X171829898Y-83523226D01*
X172018256Y-83445205D01*
X172115000Y-83380563D01*
X172115001Y-100956521D01*
X172110719Y-101000000D01*
X172127805Y-101173490D01*
X172178412Y-101340313D01*
X172260590Y-101494059D01*
X172343468Y-101595046D01*
X172343471Y-101595049D01*
X172371184Y-101628817D01*
X172404952Y-101656530D01*
X178843470Y-108095049D01*
X178871183Y-108128817D01*
X178904951Y-108156530D01*
X178904953Y-108156532D01*
X178931614Y-108178412D01*
X179005941Y-108239411D01*
X179159687Y-108321589D01*
X179326510Y-108372195D01*
X179456523Y-108385000D01*
X179456533Y-108385000D01*
X179499999Y-108389281D01*
X179543465Y-108385000D01*
X184883422Y-108385000D01*
X186821000Y-110322579D01*
X186821001Y-110948765D01*
X186636937Y-110604405D01*
X186279907Y-110399699D01*
X184679605Y-112000000D01*
X184693748Y-112014143D01*
X184514143Y-112193748D01*
X184500000Y-112179605D01*
X182899699Y-113779907D01*
X183104405Y-114136937D01*
X183548117Y-114368143D01*
X184028409Y-114508343D01*
X184526823Y-114552149D01*
X185024208Y-114497877D01*
X185391574Y-114382208D01*
X185354731Y-114471154D01*
X185262000Y-114937340D01*
X185262000Y-115412660D01*
X185354731Y-115878846D01*
X185389906Y-115963766D01*
X184971591Y-115841657D01*
X184473177Y-115797851D01*
X183975792Y-115852123D01*
X183498553Y-116002387D01*
X183104405Y-116213063D01*
X182899699Y-116570093D01*
X184500000Y-118170395D01*
X184514143Y-118156253D01*
X184693748Y-118335858D01*
X184679605Y-118350000D01*
X186279907Y-119950301D01*
X186636937Y-119745595D01*
X186868143Y-119301883D01*
X187008343Y-118821591D01*
X187052149Y-118323177D01*
X186997877Y-117825792D01*
X186882208Y-117458426D01*
X186971154Y-117495269D01*
X187437340Y-117588000D01*
X187912660Y-117588000D01*
X188378846Y-117495269D01*
X188463766Y-117460094D01*
X188341657Y-117878409D01*
X188297851Y-118376823D01*
X188352123Y-118874208D01*
X188502387Y-119351447D01*
X188713063Y-119745595D01*
X189070093Y-119950301D01*
X190670395Y-118350000D01*
X191029605Y-118350000D01*
X192629907Y-119950301D01*
X192986937Y-119745595D01*
X193218143Y-119301883D01*
X193358343Y-118821591D01*
X193402149Y-118323177D01*
X193347877Y-117825792D01*
X193197613Y-117348553D01*
X192986937Y-116954405D01*
X192629907Y-116749699D01*
X191029605Y-118350000D01*
X190670395Y-118350000D01*
X190656253Y-118335858D01*
X190835858Y-118156253D01*
X190850000Y-118170395D01*
X192450301Y-116570093D01*
X192245595Y-116213063D01*
X191801883Y-115981857D01*
X191321591Y-115841657D01*
X190823177Y-115797851D01*
X190325792Y-115852123D01*
X189958426Y-115967792D01*
X189995269Y-115878846D01*
X190088000Y-115412660D01*
X190088000Y-114937340D01*
X189995269Y-114471154D01*
X189960094Y-114386234D01*
X190378409Y-114508343D01*
X190876823Y-114552149D01*
X191374208Y-114497877D01*
X191851447Y-114347613D01*
X192245595Y-114136937D01*
X192450301Y-113779907D01*
X190850000Y-112179605D01*
X190835858Y-112193748D01*
X190656253Y-112014143D01*
X190670395Y-112000000D01*
X191029605Y-112000000D01*
X192629907Y-113600301D01*
X192986937Y-113395595D01*
X193218143Y-112951883D01*
X193358343Y-112471591D01*
X193402149Y-111973177D01*
X193347877Y-111475792D01*
X193197613Y-110998553D01*
X192986937Y-110604405D01*
X192629907Y-110399699D01*
X191029605Y-112000000D01*
X190670395Y-112000000D01*
X189070093Y-110399699D01*
X188713063Y-110604405D01*
X188591000Y-110838659D01*
X188591000Y-110220093D01*
X189249699Y-110220093D01*
X190850000Y-111820395D01*
X192450301Y-110220093D01*
X192245595Y-109863063D01*
X191801883Y-109631857D01*
X191321591Y-109491657D01*
X190823177Y-109447851D01*
X190325792Y-109502123D01*
X189848553Y-109652387D01*
X189454405Y-109863063D01*
X189249699Y-110220093D01*
X188591000Y-110220093D01*
X188591000Y-109999469D01*
X188595281Y-109956000D01*
X188591000Y-109912531D01*
X188591000Y-109912523D01*
X188578195Y-109782510D01*
X188532494Y-109631857D01*
X188527589Y-109615686D01*
X188445411Y-109461941D01*
X188362532Y-109360953D01*
X188362530Y-109360951D01*
X188334817Y-109327183D01*
X188301050Y-109299471D01*
X185906534Y-106904956D01*
X185878817Y-106871183D01*
X185744059Y-106760589D01*
X185590313Y-106678411D01*
X185423490Y-106627805D01*
X185293477Y-106615000D01*
X185293469Y-106615000D01*
X185250000Y-106610719D01*
X185206531Y-106615000D01*
X179866579Y-106615000D01*
X178706486Y-105454907D01*
X183049699Y-105454907D01*
X183254405Y-105811937D01*
X183698117Y-106043143D01*
X184178409Y-106183343D01*
X184676823Y-106227149D01*
X185174208Y-106172877D01*
X185651447Y-106022613D01*
X186045595Y-105811937D01*
X186250301Y-105454907D01*
X189399699Y-105454907D01*
X189604405Y-105811937D01*
X190048117Y-106043143D01*
X190528409Y-106183343D01*
X191026823Y-106227149D01*
X191524208Y-106172877D01*
X192001447Y-106022613D01*
X192395595Y-105811937D01*
X192600301Y-105454907D01*
X191000000Y-103854605D01*
X189399699Y-105454907D01*
X186250301Y-105454907D01*
X184650000Y-103854605D01*
X183049699Y-105454907D01*
X178706486Y-105454907D01*
X176953402Y-103701823D01*
X182097851Y-103701823D01*
X182152123Y-104199208D01*
X182302387Y-104676447D01*
X182513063Y-105070595D01*
X182870093Y-105275301D01*
X184470395Y-103675000D01*
X182870093Y-102074699D01*
X182513063Y-102279405D01*
X182281857Y-102723117D01*
X182141657Y-103203409D01*
X182097851Y-103701823D01*
X176953402Y-103701823D01*
X173885000Y-100633422D01*
X173885000Y-99104907D01*
X183049699Y-99104907D01*
X183254405Y-99461937D01*
X183698117Y-99693143D01*
X184178409Y-99833343D01*
X184676823Y-99877149D01*
X185174208Y-99822877D01*
X185541574Y-99707208D01*
X185504731Y-99796154D01*
X185412000Y-100262340D01*
X185412000Y-100737660D01*
X185504731Y-101203846D01*
X185539906Y-101288766D01*
X185121591Y-101166657D01*
X184623177Y-101122851D01*
X184125792Y-101177123D01*
X183648553Y-101327387D01*
X183254405Y-101538063D01*
X183049699Y-101895093D01*
X184650000Y-103495395D01*
X184664143Y-103481253D01*
X184843748Y-103660858D01*
X184829605Y-103675000D01*
X186429907Y-105275301D01*
X186786937Y-105070595D01*
X187018143Y-104626883D01*
X187158343Y-104146591D01*
X187202149Y-103648177D01*
X187147877Y-103150792D01*
X187032208Y-102783426D01*
X187121154Y-102820269D01*
X187587340Y-102913000D01*
X188062660Y-102913000D01*
X188528846Y-102820269D01*
X188613766Y-102785094D01*
X188491657Y-103203409D01*
X188447851Y-103701823D01*
X188502123Y-104199208D01*
X188652387Y-104676447D01*
X188863063Y-105070595D01*
X189220093Y-105275301D01*
X190820395Y-103675000D01*
X191179605Y-103675000D01*
X192779907Y-105275301D01*
X193136937Y-105070595D01*
X193368143Y-104626883D01*
X193508343Y-104146591D01*
X193552149Y-103648177D01*
X193497877Y-103150792D01*
X193347613Y-102673553D01*
X193136937Y-102279405D01*
X192779907Y-102074699D01*
X191179605Y-103675000D01*
X190820395Y-103675000D01*
X190806253Y-103660858D01*
X190985858Y-103481253D01*
X191000000Y-103495395D01*
X192600301Y-101895093D01*
X192395595Y-101538063D01*
X191951883Y-101306857D01*
X191471591Y-101166657D01*
X190973177Y-101122851D01*
X190475792Y-101177123D01*
X190108426Y-101292792D01*
X190145269Y-101203846D01*
X190238000Y-100737660D01*
X190238000Y-100262340D01*
X190145269Y-99796154D01*
X190110094Y-99711234D01*
X190528409Y-99833343D01*
X191026823Y-99877149D01*
X191524208Y-99822877D01*
X192001447Y-99672613D01*
X192395595Y-99461937D01*
X192600301Y-99104907D01*
X191000000Y-97504605D01*
X190985858Y-97518748D01*
X190806253Y-97339143D01*
X190820395Y-97325000D01*
X191179605Y-97325000D01*
X192779907Y-98925301D01*
X193136937Y-98720595D01*
X193368143Y-98276883D01*
X193508343Y-97796591D01*
X193552149Y-97298177D01*
X193497877Y-96800792D01*
X193347613Y-96323553D01*
X193136937Y-95929405D01*
X192779907Y-95724699D01*
X191179605Y-97325000D01*
X190820395Y-97325000D01*
X189220093Y-95724699D01*
X188863063Y-95929405D01*
X188631857Y-96373117D01*
X188491657Y-96853409D01*
X188447851Y-97351823D01*
X188502123Y-97849208D01*
X188617792Y-98216574D01*
X188528846Y-98179731D01*
X188062660Y-98087000D01*
X187587340Y-98087000D01*
X187121154Y-98179731D01*
X187036234Y-98214906D01*
X187158343Y-97796591D01*
X187202149Y-97298177D01*
X187147877Y-96800792D01*
X186997613Y-96323553D01*
X186786937Y-95929405D01*
X186429907Y-95724699D01*
X184829605Y-97325000D01*
X184843748Y-97339143D01*
X184664143Y-97518748D01*
X184650000Y-97504605D01*
X183049699Y-99104907D01*
X173885000Y-99104907D01*
X173885000Y-97351823D01*
X182097851Y-97351823D01*
X182152123Y-97849208D01*
X182302387Y-98326447D01*
X182513063Y-98720595D01*
X182870093Y-98925301D01*
X184470395Y-97325000D01*
X182870093Y-95724699D01*
X182513063Y-95929405D01*
X182281857Y-96373117D01*
X182141657Y-96853409D01*
X182097851Y-97351823D01*
X173885000Y-97351823D01*
X173885000Y-95545093D01*
X183049699Y-95545093D01*
X184650000Y-97145395D01*
X186250301Y-95545093D01*
X189399699Y-95545093D01*
X191000000Y-97145395D01*
X192600301Y-95545093D01*
X192395595Y-95188063D01*
X191951883Y-94956857D01*
X191471591Y-94816657D01*
X190973177Y-94772851D01*
X190475792Y-94827123D01*
X189998553Y-94977387D01*
X189604405Y-95188063D01*
X189399699Y-95545093D01*
X186250301Y-95545093D01*
X186045595Y-95188063D01*
X185601883Y-94956857D01*
X185121591Y-94816657D01*
X184623177Y-94772851D01*
X184125792Y-94827123D01*
X183648553Y-94977387D01*
X183254405Y-95188063D01*
X183049699Y-95545093D01*
X173885000Y-95545093D01*
X173885000Y-91398061D01*
X176465000Y-91398061D01*
X176465000Y-91601939D01*
X176504774Y-91801898D01*
X176582795Y-91990256D01*
X176696063Y-92159774D01*
X176840226Y-92303937D01*
X177009744Y-92417205D01*
X177198102Y-92495226D01*
X177398061Y-92535000D01*
X177601939Y-92535000D01*
X177801898Y-92495226D01*
X177990256Y-92417205D01*
X178159774Y-92303937D01*
X178303937Y-92159774D01*
X178417205Y-91990256D01*
X178495226Y-91801898D01*
X178506535Y-91745043D01*
X180245044Y-90006535D01*
X180301898Y-89995226D01*
X180490256Y-89917205D01*
X180615001Y-89833854D01*
X180615001Y-92133421D01*
X180594787Y-92153635D01*
X180584744Y-92157795D01*
X180415226Y-92271063D01*
X180271063Y-92415226D01*
X180157795Y-92584744D01*
X180079774Y-92773102D01*
X180040000Y-92973061D01*
X180040000Y-93176939D01*
X180079774Y-93376898D01*
X180157795Y-93565256D01*
X180271063Y-93734774D01*
X180415226Y-93878937D01*
X180584744Y-93992205D01*
X180773102Y-94070226D01*
X180973061Y-94110000D01*
X181176939Y-94110000D01*
X181376898Y-94070226D01*
X181565256Y-93992205D01*
X181734774Y-93878937D01*
X181878937Y-93734774D01*
X181992205Y-93565256D01*
X182070226Y-93376898D01*
X182110000Y-93176939D01*
X182110000Y-93144260D01*
X182128817Y-93128817D01*
X182239411Y-92994059D01*
X182321589Y-92840313D01*
X182372195Y-92673490D01*
X182385000Y-92543477D01*
X182385000Y-92543469D01*
X182389281Y-92500000D01*
X182385000Y-92456531D01*
X182385000Y-90629907D01*
X182899699Y-90629907D01*
X183104405Y-90986937D01*
X183548117Y-91218143D01*
X184028409Y-91358343D01*
X184526823Y-91402149D01*
X185024208Y-91347877D01*
X185501447Y-91197613D01*
X185895595Y-90986937D01*
X186100301Y-90629907D01*
X189249699Y-90629907D01*
X189454405Y-90986937D01*
X189898117Y-91218143D01*
X190378409Y-91358343D01*
X190876823Y-91402149D01*
X191374208Y-91347877D01*
X191851447Y-91197613D01*
X192245595Y-90986937D01*
X192450301Y-90629907D01*
X190850000Y-89029605D01*
X189249699Y-90629907D01*
X186100301Y-90629907D01*
X184500000Y-89029605D01*
X182899699Y-90629907D01*
X182385000Y-90629907D01*
X182385000Y-90258173D01*
X182720093Y-90450301D01*
X184320395Y-88850000D01*
X182720093Y-87249699D01*
X182385000Y-87441827D01*
X182385000Y-84279907D01*
X182899699Y-84279907D01*
X183104405Y-84636937D01*
X183548117Y-84868143D01*
X184028409Y-85008343D01*
X184526823Y-85052149D01*
X185024208Y-84997877D01*
X185391574Y-84882208D01*
X185354731Y-84971154D01*
X185262000Y-85437340D01*
X185262000Y-85912660D01*
X185354731Y-86378846D01*
X185389906Y-86463766D01*
X184971591Y-86341657D01*
X184473177Y-86297851D01*
X183975792Y-86352123D01*
X183498553Y-86502387D01*
X183104405Y-86713063D01*
X182899699Y-87070093D01*
X184500000Y-88670395D01*
X184514143Y-88656253D01*
X184693748Y-88835858D01*
X184679605Y-88850000D01*
X186279907Y-90450301D01*
X186636937Y-90245595D01*
X186868143Y-89801883D01*
X187008343Y-89321591D01*
X187052149Y-88823177D01*
X186997877Y-88325792D01*
X186882208Y-87958426D01*
X186971154Y-87995269D01*
X187437340Y-88088000D01*
X187912660Y-88088000D01*
X188378846Y-87995269D01*
X188463766Y-87960094D01*
X188341657Y-88378409D01*
X188297851Y-88876823D01*
X188352123Y-89374208D01*
X188502387Y-89851447D01*
X188713063Y-90245595D01*
X189070093Y-90450301D01*
X190670395Y-88850000D01*
X191029605Y-88850000D01*
X192629907Y-90450301D01*
X192986937Y-90245595D01*
X193218143Y-89801883D01*
X193358343Y-89321591D01*
X193402149Y-88823177D01*
X193347877Y-88325792D01*
X193197613Y-87848553D01*
X192986937Y-87454405D01*
X192629907Y-87249699D01*
X191029605Y-88850000D01*
X190670395Y-88850000D01*
X190656253Y-88835858D01*
X190835858Y-88656253D01*
X190850000Y-88670395D01*
X192450301Y-87070093D01*
X192245595Y-86713063D01*
X191801883Y-86481857D01*
X191321591Y-86341657D01*
X190823177Y-86297851D01*
X190325792Y-86352123D01*
X189958426Y-86467792D01*
X189995269Y-86378846D01*
X190088000Y-85912660D01*
X190088000Y-85437340D01*
X189995269Y-84971154D01*
X189960094Y-84886234D01*
X190378409Y-85008343D01*
X190876823Y-85052149D01*
X191374208Y-84997877D01*
X191851447Y-84847613D01*
X192245595Y-84636937D01*
X192450301Y-84279907D01*
X190850000Y-82679605D01*
X190835858Y-82693748D01*
X190656253Y-82514143D01*
X190670395Y-82500000D01*
X191029605Y-82500000D01*
X192629907Y-84100301D01*
X192986937Y-83895595D01*
X193218143Y-83451883D01*
X193358343Y-82971591D01*
X193402149Y-82473177D01*
X193347877Y-81975792D01*
X193197613Y-81498553D01*
X192986937Y-81104405D01*
X192629907Y-80899699D01*
X191029605Y-82500000D01*
X190670395Y-82500000D01*
X189070093Y-80899699D01*
X188713063Y-81104405D01*
X188481857Y-81548117D01*
X188341657Y-82028409D01*
X188297851Y-82526823D01*
X188352123Y-83024208D01*
X188467792Y-83391574D01*
X188378846Y-83354731D01*
X187912660Y-83262000D01*
X187437340Y-83262000D01*
X186971154Y-83354731D01*
X186886234Y-83389906D01*
X187008343Y-82971591D01*
X187052149Y-82473177D01*
X186997877Y-81975792D01*
X186847613Y-81498553D01*
X186636937Y-81104405D01*
X186279907Y-80899699D01*
X184679605Y-82500000D01*
X184693748Y-82514143D01*
X184514143Y-82693748D01*
X184500000Y-82679605D01*
X182899699Y-84279907D01*
X182385000Y-84279907D01*
X182385000Y-83908173D01*
X182720093Y-84100301D01*
X184320395Y-82500000D01*
X182720093Y-80899699D01*
X182363063Y-81104405D01*
X182131857Y-81548117D01*
X181991657Y-82028409D01*
X181986996Y-82081445D01*
X181801898Y-82004774D01*
X181601939Y-81965000D01*
X181398061Y-81965000D01*
X181198102Y-82004774D01*
X181009744Y-82082795D01*
X180840226Y-82196063D01*
X180696063Y-82340226D01*
X180582795Y-82509744D01*
X180504774Y-82698102D01*
X180465000Y-82898061D01*
X180465000Y-83101939D01*
X180504774Y-83301898D01*
X180582795Y-83490256D01*
X180615001Y-83538456D01*
X180615000Y-86456523D01*
X180615000Y-88166146D01*
X180490256Y-88082795D01*
X180301898Y-88004774D01*
X180101939Y-87965000D01*
X179898061Y-87965000D01*
X179698102Y-88004774D01*
X179509744Y-88082795D01*
X179340226Y-88196063D01*
X179196063Y-88340226D01*
X179082795Y-88509744D01*
X179004774Y-88698102D01*
X178993465Y-88754956D01*
X177254957Y-90493465D01*
X177198102Y-90504774D01*
X177009744Y-90582795D01*
X176840226Y-90696063D01*
X176696063Y-90840226D01*
X176582795Y-91009744D01*
X176504774Y-91198102D01*
X176465000Y-91398061D01*
X173885000Y-91398061D01*
X173885000Y-89242000D01*
X174335928Y-89242000D01*
X174348188Y-89366482D01*
X174384498Y-89486180D01*
X174443463Y-89596494D01*
X174522815Y-89693185D01*
X174619506Y-89772537D01*
X174729820Y-89831502D01*
X174849518Y-89867812D01*
X174974000Y-89880072D01*
X175538250Y-89877000D01*
X175697000Y-89718250D01*
X175697000Y-88519000D01*
X175951000Y-88519000D01*
X175951000Y-89718250D01*
X176109750Y-89877000D01*
X176674000Y-89880072D01*
X176798482Y-89867812D01*
X176918180Y-89831502D01*
X177028494Y-89772537D01*
X177125185Y-89693185D01*
X177204537Y-89596494D01*
X177263502Y-89486180D01*
X177299812Y-89366482D01*
X177312072Y-89242000D01*
X177309000Y-88677750D01*
X177150250Y-88519000D01*
X175951000Y-88519000D01*
X175697000Y-88519000D01*
X174497750Y-88519000D01*
X174339000Y-88677750D01*
X174335928Y-89242000D01*
X173885000Y-89242000D01*
X173885000Y-87542000D01*
X174335928Y-87542000D01*
X174339000Y-88106250D01*
X174497750Y-88265000D01*
X175697000Y-88265000D01*
X175697000Y-88245000D01*
X175951000Y-88245000D01*
X175951000Y-88265000D01*
X177150250Y-88265000D01*
X177309000Y-88106250D01*
X177312072Y-87542000D01*
X177299812Y-87417518D01*
X177263502Y-87297820D01*
X177204537Y-87187506D01*
X177125185Y-87090815D01*
X177028494Y-87011463D01*
X176918180Y-86952498D01*
X176845620Y-86930487D01*
X176977475Y-86798632D01*
X177139990Y-86555411D01*
X177251932Y-86285158D01*
X177309000Y-85998260D01*
X177309000Y-85705740D01*
X177251932Y-85418842D01*
X177139990Y-85148589D01*
X176977475Y-84905368D01*
X176770632Y-84698525D01*
X176596240Y-84582000D01*
X176770632Y-84465475D01*
X176977475Y-84258632D01*
X177139990Y-84015411D01*
X177251932Y-83745158D01*
X177309000Y-83458260D01*
X177309000Y-83165740D01*
X177251932Y-82878842D01*
X177139990Y-82608589D01*
X176977475Y-82365368D01*
X176770632Y-82158525D01*
X176588466Y-82036805D01*
X176705355Y-81967178D01*
X176921588Y-81772269D01*
X177095641Y-81538920D01*
X177220825Y-81276099D01*
X177265476Y-81128890D01*
X177144155Y-80899000D01*
X175951000Y-80899000D01*
X175951000Y-80919000D01*
X175697000Y-80919000D01*
X175697000Y-80899000D01*
X174503845Y-80899000D01*
X174382524Y-81128890D01*
X174427175Y-81276099D01*
X174552359Y-81538920D01*
X174726412Y-81772269D01*
X174942645Y-81967178D01*
X175059534Y-82036805D01*
X174877368Y-82158525D01*
X174670525Y-82365368D01*
X174508010Y-82608589D01*
X174396068Y-82878842D01*
X174339000Y-83165740D01*
X174339000Y-83458260D01*
X174396068Y-83745158D01*
X174508010Y-84015411D01*
X174670525Y-84258632D01*
X174877368Y-84465475D01*
X175051760Y-84582000D01*
X174877368Y-84698525D01*
X174670525Y-84905368D01*
X174508010Y-85148589D01*
X174396068Y-85418842D01*
X174339000Y-85705740D01*
X174339000Y-85998260D01*
X174396068Y-86285158D01*
X174508010Y-86555411D01*
X174670525Y-86798632D01*
X174802380Y-86930487D01*
X174729820Y-86952498D01*
X174619506Y-87011463D01*
X174522815Y-87090815D01*
X174443463Y-87187506D01*
X174384498Y-87297820D01*
X174348188Y-87417518D01*
X174335928Y-87542000D01*
X173885000Y-87542000D01*
X173885000Y-80720093D01*
X182899699Y-80720093D01*
X184500000Y-82320395D01*
X186100301Y-80720093D01*
X189249699Y-80720093D01*
X190850000Y-82320395D01*
X192450301Y-80720093D01*
X192245595Y-80363063D01*
X191801883Y-80131857D01*
X191321591Y-79991657D01*
X190823177Y-79947851D01*
X190325792Y-80002123D01*
X189848553Y-80152387D01*
X189454405Y-80363063D01*
X189249699Y-80720093D01*
X186100301Y-80720093D01*
X185895595Y-80363063D01*
X185451883Y-80131857D01*
X184971591Y-79991657D01*
X184473177Y-79947851D01*
X183975792Y-80002123D01*
X183498553Y-80152387D01*
X183104405Y-80363063D01*
X182899699Y-80720093D01*
X173885000Y-80720093D01*
X173885000Y-79515470D01*
X173889281Y-79472001D01*
X173885000Y-79428532D01*
X173885000Y-79428524D01*
X173872195Y-79298511D01*
X173821589Y-79131688D01*
X173739411Y-78977942D01*
X173656532Y-78876954D01*
X173656530Y-78876952D01*
X173628817Y-78843184D01*
X173595050Y-78815472D01*
X172534534Y-77754957D01*
X172523225Y-77698102D01*
X172445204Y-77509744D01*
X172331936Y-77340226D01*
X172187773Y-77196063D01*
X172018255Y-77082795D01*
X171829897Y-77004774D01*
X171629938Y-76965000D01*
X171426060Y-76965000D01*
X171226101Y-77004774D01*
X171037743Y-77082795D01*
X170868225Y-77196063D01*
X170724062Y-77340226D01*
X170610794Y-77509744D01*
X170532773Y-77698102D01*
X170492999Y-77898061D01*
X170492999Y-78101939D01*
X170532773Y-78301898D01*
X170610794Y-78490256D01*
X170724062Y-78659774D01*
X170868225Y-78803937D01*
X171037743Y-78917205D01*
X171226101Y-78995226D01*
X171282956Y-79006535D01*
X172115000Y-79838580D01*
X172115000Y-81675437D01*
X172018256Y-81610795D01*
X171829898Y-81532774D01*
X171629939Y-81493000D01*
X171426061Y-81493000D01*
X171226102Y-81532774D01*
X171037744Y-81610795D01*
X170868226Y-81724063D01*
X170724063Y-81868226D01*
X170610795Y-82037744D01*
X170532774Y-82226102D01*
X170521465Y-82282956D01*
X167282957Y-85521465D01*
X167226102Y-85532774D01*
X167037744Y-85610795D01*
X166868226Y-85724063D01*
X166724063Y-85868226D01*
X166610795Y-86037744D01*
X166532774Y-86226102D01*
X166493000Y-86426061D01*
X163885000Y-86426061D01*
X163885000Y-84543469D01*
X163889281Y-84500000D01*
X163885000Y-84456531D01*
X163885000Y-84456523D01*
X163872195Y-84326510D01*
X163821589Y-84159687D01*
X163739411Y-84005941D01*
X163628817Y-83871183D01*
X163595045Y-83843467D01*
X163506535Y-83754957D01*
X163495226Y-83698102D01*
X163417205Y-83509744D01*
X163303937Y-83340226D01*
X163159774Y-83196063D01*
X162990256Y-83082795D01*
X162801898Y-83004774D01*
X162601939Y-82965000D01*
X162398061Y-82965000D01*
X162198102Y-83004774D01*
X162049246Y-83066432D01*
X162011932Y-82878842D01*
X161899990Y-82608589D01*
X161737475Y-82365368D01*
X161530632Y-82158525D01*
X161356240Y-82042000D01*
X161530632Y-81925475D01*
X161737475Y-81718632D01*
X161899990Y-81475411D01*
X162011932Y-81205158D01*
X162069000Y-80918260D01*
X162069000Y-80625740D01*
X162011932Y-80338842D01*
X161899990Y-80068589D01*
X161737475Y-79825368D01*
X161530632Y-79618525D01*
X161356240Y-79502000D01*
X161530632Y-79385475D01*
X161737475Y-79178632D01*
X161899990Y-78935411D01*
X162011932Y-78665158D01*
X162069000Y-78378260D01*
X162069000Y-78085740D01*
X162011932Y-77798842D01*
X161899990Y-77528589D01*
X161737475Y-77285368D01*
X161530632Y-77078525D01*
X161356240Y-76962000D01*
X161530632Y-76845475D01*
X161737475Y-76638632D01*
X161899990Y-76395411D01*
X162011932Y-76125158D01*
X162069000Y-75838260D01*
X162069000Y-75545740D01*
X162011932Y-75258842D01*
X161899990Y-74988589D01*
X161737475Y-74745368D01*
X161530632Y-74538525D01*
X161356240Y-74422000D01*
X161530632Y-74305475D01*
X161737475Y-74098632D01*
X161899990Y-73855411D01*
X162011932Y-73585158D01*
X162069000Y-73298260D01*
X162069000Y-73005740D01*
X162011932Y-72718842D01*
X161899990Y-72448589D01*
X161737475Y-72205368D01*
X161530632Y-71998525D01*
X161356240Y-71882000D01*
X161530632Y-71765475D01*
X161737475Y-71558632D01*
X161899990Y-71315411D01*
X162011932Y-71045158D01*
X162069000Y-70758260D01*
X162069000Y-70465740D01*
X162011932Y-70178842D01*
X161899990Y-69908589D01*
X161737475Y-69665368D01*
X161530632Y-69458525D01*
X161356240Y-69342000D01*
X161530632Y-69225475D01*
X161737475Y-69018632D01*
X161899990Y-68775411D01*
X162011932Y-68505158D01*
X162069000Y-68218260D01*
X162069000Y-67925740D01*
X162011932Y-67638842D01*
X161899990Y-67368589D01*
X161737475Y-67125368D01*
X161530632Y-66918525D01*
X161356240Y-66802000D01*
X161530632Y-66685475D01*
X161737475Y-66478632D01*
X161899990Y-66235411D01*
X162011932Y-65965158D01*
X162069000Y-65678260D01*
X162069000Y-65385740D01*
X162011932Y-65098842D01*
X161899990Y-64828589D01*
X161737475Y-64585368D01*
X161530632Y-64378525D01*
X161356240Y-64262000D01*
X161530632Y-64145475D01*
X161737475Y-63938632D01*
X161899990Y-63695411D01*
X162011932Y-63425158D01*
X162060652Y-63180230D01*
X162115001Y-63234580D01*
X162115000Y-69456531D01*
X162110719Y-69500000D01*
X162115000Y-69543469D01*
X162115000Y-69543476D01*
X162127805Y-69673489D01*
X162178411Y-69840312D01*
X162260589Y-69994058D01*
X162371183Y-70128817D01*
X162404956Y-70156534D01*
X162493465Y-70245043D01*
X162504774Y-70301898D01*
X162582795Y-70490256D01*
X162696063Y-70659774D01*
X162840226Y-70803937D01*
X163009744Y-70917205D01*
X163198102Y-70995226D01*
X163398061Y-71035000D01*
X163601939Y-71035000D01*
X163801898Y-70995226D01*
X163990256Y-70917205D01*
X164159774Y-70803937D01*
X164303937Y-70659774D01*
X164417205Y-70490256D01*
X164495226Y-70301898D01*
X164535000Y-70101939D01*
X164535000Y-69898061D01*
X164495226Y-69698102D01*
X164417205Y-69509744D01*
X164303937Y-69340226D01*
X164159774Y-69196063D01*
X163990256Y-69082795D01*
X163885000Y-69039196D01*
X163885000Y-62911469D01*
X163889281Y-62868000D01*
X163885000Y-62824531D01*
X163885000Y-62824523D01*
X163872195Y-62694510D01*
X163871529Y-62692312D01*
X163855569Y-62639701D01*
X163821589Y-62527687D01*
X163739411Y-62373941D01*
X163628817Y-62239183D01*
X163595049Y-62211470D01*
X162054539Y-60670961D01*
X162069000Y-60598260D01*
X162069000Y-60305740D01*
X162011932Y-60018842D01*
X161899990Y-59748589D01*
X161737475Y-59505368D01*
X161630168Y-59398061D01*
X169965000Y-59398061D01*
X169965000Y-59601939D01*
X170004774Y-59801898D01*
X170082795Y-59990256D01*
X170196063Y-60159774D01*
X170340226Y-60303937D01*
X170509744Y-60417205D01*
X170698102Y-60495226D01*
X170898061Y-60535000D01*
X171101939Y-60535000D01*
X171301898Y-60495226D01*
X171490256Y-60417205D01*
X171538454Y-60385000D01*
X171652531Y-60385000D01*
X171696000Y-60389281D01*
X171739469Y-60385000D01*
X171739477Y-60385000D01*
X171869490Y-60372195D01*
X172036313Y-60321589D01*
X172190059Y-60239411D01*
X172324817Y-60128817D01*
X172352534Y-60095044D01*
X174347348Y-58100230D01*
X174396068Y-58345158D01*
X174508010Y-58615411D01*
X174670525Y-58858632D01*
X174877368Y-59065475D01*
X175051760Y-59182000D01*
X174877368Y-59298525D01*
X174670525Y-59505368D01*
X174508010Y-59748589D01*
X174396068Y-60018842D01*
X174339000Y-60305740D01*
X174339000Y-60598260D01*
X174396068Y-60885158D01*
X174508010Y-61155411D01*
X174670525Y-61398632D01*
X174877368Y-61605475D01*
X175051760Y-61722000D01*
X174877368Y-61838525D01*
X174670525Y-62045368D01*
X174508010Y-62288589D01*
X174396068Y-62558842D01*
X174339000Y-62845740D01*
X174339000Y-63138260D01*
X174396068Y-63425158D01*
X174508010Y-63695411D01*
X174670525Y-63938632D01*
X174877368Y-64145475D01*
X175051760Y-64262000D01*
X174877368Y-64378525D01*
X174670525Y-64585368D01*
X174508010Y-64828589D01*
X174396068Y-65098842D01*
X174339000Y-65385740D01*
X174339000Y-65678260D01*
X174396068Y-65965158D01*
X174508010Y-66235411D01*
X174670525Y-66478632D01*
X174877368Y-66685475D01*
X175051760Y-66802000D01*
X174877368Y-66918525D01*
X174670525Y-67125368D01*
X174508010Y-67368589D01*
X174396068Y-67638842D01*
X174339000Y-67925740D01*
X174339000Y-68218260D01*
X174396068Y-68505158D01*
X174508010Y-68775411D01*
X174670525Y-69018632D01*
X174877368Y-69225475D01*
X175051760Y-69342000D01*
X174877368Y-69458525D01*
X174670525Y-69665368D01*
X174508010Y-69908589D01*
X174396068Y-70178842D01*
X174339000Y-70465740D01*
X174339000Y-70758260D01*
X174396068Y-71045158D01*
X174508010Y-71315411D01*
X174670525Y-71558632D01*
X174877368Y-71765475D01*
X175051760Y-71882000D01*
X174877368Y-71998525D01*
X174670525Y-72205368D01*
X174508010Y-72448589D01*
X174396068Y-72718842D01*
X174339000Y-73005740D01*
X174339000Y-73298260D01*
X174396068Y-73585158D01*
X174508010Y-73855411D01*
X174670525Y-74098632D01*
X174877368Y-74305475D01*
X175051760Y-74422000D01*
X174877368Y-74538525D01*
X174670525Y-74745368D01*
X174508010Y-74988589D01*
X174396068Y-75258842D01*
X174339000Y-75545740D01*
X174339000Y-75838260D01*
X174396068Y-76125158D01*
X174508010Y-76395411D01*
X174670525Y-76638632D01*
X174877368Y-76845475D01*
X175051760Y-76962000D01*
X174877368Y-77078525D01*
X174670525Y-77285368D01*
X174508010Y-77528589D01*
X174396068Y-77798842D01*
X174339000Y-78085740D01*
X174339000Y-78378260D01*
X174396068Y-78665158D01*
X174508010Y-78935411D01*
X174670525Y-79178632D01*
X174877368Y-79385475D01*
X175059534Y-79507195D01*
X174942645Y-79576822D01*
X174726412Y-79771731D01*
X174552359Y-80005080D01*
X174427175Y-80267901D01*
X174382524Y-80415110D01*
X174503845Y-80645000D01*
X175697000Y-80645000D01*
X175697000Y-80625000D01*
X175951000Y-80625000D01*
X175951000Y-80645000D01*
X177144155Y-80645000D01*
X177265476Y-80415110D01*
X177220825Y-80267901D01*
X177095641Y-80005080D01*
X176921588Y-79771731D01*
X176705355Y-79576822D01*
X176588466Y-79507195D01*
X176770632Y-79385475D01*
X176977475Y-79178632D01*
X177139990Y-78935411D01*
X177251932Y-78665158D01*
X177309000Y-78378260D01*
X177309000Y-78085740D01*
X177251932Y-77798842D01*
X177139990Y-77528589D01*
X176977475Y-77285368D01*
X176770632Y-77078525D01*
X176596240Y-76962000D01*
X176770632Y-76845475D01*
X176977475Y-76638632D01*
X177139990Y-76395411D01*
X177251932Y-76125158D01*
X177309000Y-75838260D01*
X177309000Y-75545740D01*
X177290933Y-75454907D01*
X182724699Y-75454907D01*
X182929405Y-75811937D01*
X183373117Y-76043143D01*
X183853409Y-76183343D01*
X184351823Y-76227149D01*
X184849208Y-76172877D01*
X185326447Y-76022613D01*
X185720595Y-75811937D01*
X185925301Y-75454907D01*
X189074699Y-75454907D01*
X189279405Y-75811937D01*
X189723117Y-76043143D01*
X190203409Y-76183343D01*
X190701823Y-76227149D01*
X191199208Y-76172877D01*
X191676447Y-76022613D01*
X192070595Y-75811937D01*
X192275301Y-75454907D01*
X190675000Y-73854605D01*
X189074699Y-75454907D01*
X185925301Y-75454907D01*
X184325000Y-73854605D01*
X182724699Y-75454907D01*
X177290933Y-75454907D01*
X177251932Y-75258842D01*
X177139990Y-74988589D01*
X176977475Y-74745368D01*
X176770632Y-74538525D01*
X176596240Y-74422000D01*
X176770632Y-74305475D01*
X176977475Y-74098632D01*
X177139990Y-73855411D01*
X177203607Y-73701823D01*
X181772851Y-73701823D01*
X181827123Y-74199208D01*
X181977387Y-74676447D01*
X182188063Y-75070595D01*
X182545093Y-75275301D01*
X184145395Y-73675000D01*
X182545093Y-72074699D01*
X182188063Y-72279405D01*
X181956857Y-72723117D01*
X181816657Y-73203409D01*
X181772851Y-73701823D01*
X177203607Y-73701823D01*
X177251932Y-73585158D01*
X177309000Y-73298260D01*
X177309000Y-73005740D01*
X177294539Y-72933040D01*
X178022580Y-72204999D01*
X180641547Y-72204999D01*
X180689745Y-72237204D01*
X180878103Y-72315225D01*
X181078062Y-72354999D01*
X181281940Y-72354999D01*
X181481899Y-72315225D01*
X181670257Y-72237204D01*
X181839775Y-72123936D01*
X181983938Y-71979773D01*
X182097206Y-71810255D01*
X182175227Y-71621897D01*
X182215001Y-71421938D01*
X182215001Y-71218060D01*
X182175227Y-71018101D01*
X182097206Y-70829743D01*
X181983938Y-70660225D01*
X181839775Y-70516062D01*
X181670257Y-70402794D01*
X181481899Y-70324773D01*
X181281940Y-70284999D01*
X181078062Y-70284999D01*
X180878103Y-70324773D01*
X180689745Y-70402794D01*
X180641547Y-70434999D01*
X177699470Y-70434999D01*
X177656001Y-70430718D01*
X177656000Y-70430718D01*
X177640446Y-70432250D01*
X177612532Y-70434999D01*
X177612524Y-70434999D01*
X177482511Y-70447804D01*
X177315687Y-70498410D01*
X177309000Y-70501984D01*
X177309000Y-70465740D01*
X177294539Y-70393039D01*
X178582671Y-69104907D01*
X182724699Y-69104907D01*
X182929405Y-69461937D01*
X183373117Y-69693143D01*
X183853409Y-69833343D01*
X184351823Y-69877149D01*
X184849208Y-69822877D01*
X185216574Y-69707208D01*
X185179731Y-69796154D01*
X185087000Y-70262340D01*
X185087000Y-70737660D01*
X185179731Y-71203846D01*
X185214906Y-71288766D01*
X184796591Y-71166657D01*
X184298177Y-71122851D01*
X183800792Y-71177123D01*
X183323553Y-71327387D01*
X182929405Y-71538063D01*
X182724699Y-71895093D01*
X184325000Y-73495395D01*
X184339143Y-73481253D01*
X184518748Y-73660858D01*
X184504605Y-73675000D01*
X186104907Y-75275301D01*
X186461937Y-75070595D01*
X186693143Y-74626883D01*
X186833343Y-74146591D01*
X186877149Y-73648177D01*
X186822877Y-73150792D01*
X186707208Y-72783426D01*
X186796154Y-72820269D01*
X187262340Y-72913000D01*
X187737660Y-72913000D01*
X188203846Y-72820269D01*
X188288766Y-72785094D01*
X188166657Y-73203409D01*
X188122851Y-73701823D01*
X188177123Y-74199208D01*
X188327387Y-74676447D01*
X188538063Y-75070595D01*
X188895093Y-75275301D01*
X190495395Y-73675000D01*
X190854605Y-73675000D01*
X192454907Y-75275301D01*
X192811937Y-75070595D01*
X193043143Y-74626883D01*
X193183343Y-74146591D01*
X193227149Y-73648177D01*
X193172877Y-73150792D01*
X193022613Y-72673553D01*
X192811937Y-72279405D01*
X192454907Y-72074699D01*
X190854605Y-73675000D01*
X190495395Y-73675000D01*
X190481253Y-73660858D01*
X190660858Y-73481253D01*
X190675000Y-73495395D01*
X192275301Y-71895093D01*
X192070595Y-71538063D01*
X191626883Y-71306857D01*
X191146591Y-71166657D01*
X190648177Y-71122851D01*
X190150792Y-71177123D01*
X189783426Y-71292792D01*
X189820269Y-71203846D01*
X189913000Y-70737660D01*
X189913000Y-70262340D01*
X189820269Y-69796154D01*
X189785094Y-69711234D01*
X190203409Y-69833343D01*
X190701823Y-69877149D01*
X191199208Y-69822877D01*
X191676447Y-69672613D01*
X192070595Y-69461937D01*
X192275301Y-69104907D01*
X190675000Y-67504605D01*
X190660858Y-67518748D01*
X190481253Y-67339143D01*
X190495395Y-67325000D01*
X190854605Y-67325000D01*
X192454907Y-68925301D01*
X192811937Y-68720595D01*
X193043143Y-68276883D01*
X193183343Y-67796591D01*
X193227149Y-67298177D01*
X193172877Y-66800792D01*
X193022613Y-66323553D01*
X192811937Y-65929405D01*
X192454907Y-65724699D01*
X190854605Y-67325000D01*
X190495395Y-67325000D01*
X188895093Y-65724699D01*
X188538063Y-65929405D01*
X188306857Y-66373117D01*
X188166657Y-66853409D01*
X188122851Y-67351823D01*
X188177123Y-67849208D01*
X188292792Y-68216574D01*
X188203846Y-68179731D01*
X187737660Y-68087000D01*
X187262340Y-68087000D01*
X186796154Y-68179731D01*
X186711234Y-68214906D01*
X186833343Y-67796591D01*
X186877149Y-67298177D01*
X186822877Y-66800792D01*
X186672613Y-66323553D01*
X186461937Y-65929405D01*
X186104907Y-65724699D01*
X184504605Y-67325000D01*
X184518748Y-67339143D01*
X184339143Y-67518748D01*
X184325000Y-67504605D01*
X182724699Y-69104907D01*
X178582671Y-69104907D01*
X180335755Y-67351823D01*
X181772851Y-67351823D01*
X181827123Y-67849208D01*
X181977387Y-68326447D01*
X182188063Y-68720595D01*
X182545093Y-68925301D01*
X184145395Y-67325000D01*
X182545093Y-65724699D01*
X182188063Y-65929405D01*
X181956857Y-66373117D01*
X181816657Y-66853409D01*
X181772851Y-67351823D01*
X180335755Y-67351823D01*
X182142485Y-65545093D01*
X182724699Y-65545093D01*
X184325000Y-67145395D01*
X185925301Y-65545093D01*
X189074699Y-65545093D01*
X190675000Y-67145395D01*
X192275301Y-65545093D01*
X192070595Y-65188063D01*
X191626883Y-64956857D01*
X191146591Y-64816657D01*
X190648177Y-64772851D01*
X190150792Y-64827123D01*
X189673553Y-64977387D01*
X189279405Y-65188063D01*
X189074699Y-65545093D01*
X185925301Y-65545093D01*
X185720595Y-65188063D01*
X185276883Y-64956857D01*
X184796591Y-64816657D01*
X184298177Y-64772851D01*
X183800792Y-64827123D01*
X183323553Y-64977387D01*
X182929405Y-65188063D01*
X182724699Y-65545093D01*
X182142485Y-65545093D01*
X187407671Y-60279907D01*
X189280699Y-60279907D01*
X189485405Y-60636937D01*
X189929117Y-60868143D01*
X190409409Y-61008343D01*
X190907823Y-61052149D01*
X191405208Y-60997877D01*
X191882447Y-60847613D01*
X192276595Y-60636937D01*
X192481301Y-60279907D01*
X190881000Y-58679605D01*
X189280699Y-60279907D01*
X187407671Y-60279907D01*
X188301051Y-59386528D01*
X188334817Y-59358817D01*
X188396433Y-59283739D01*
X188445411Y-59224059D01*
X188445812Y-59223309D01*
X188533387Y-59501447D01*
X188744063Y-59895595D01*
X189101093Y-60100301D01*
X190701395Y-58500000D01*
X191060605Y-58500000D01*
X192660907Y-60100301D01*
X193017937Y-59895595D01*
X193249143Y-59451883D01*
X193389343Y-58971591D01*
X193433149Y-58473177D01*
X193378877Y-57975792D01*
X193228613Y-57498553D01*
X193017937Y-57104405D01*
X192660907Y-56899699D01*
X191060605Y-58500000D01*
X190701395Y-58500000D01*
X190687253Y-58485858D01*
X190866858Y-58306253D01*
X190881000Y-58320395D01*
X192481301Y-56720093D01*
X192276595Y-56363063D01*
X191832883Y-56131857D01*
X191352591Y-55991657D01*
X190854177Y-55947851D01*
X190356792Y-56002123D01*
X189989426Y-56117792D01*
X190026269Y-56028846D01*
X190119000Y-55562660D01*
X190119000Y-55087340D01*
X190026269Y-54621154D01*
X189991094Y-54536234D01*
X190409409Y-54658343D01*
X190907823Y-54702149D01*
X191405208Y-54647877D01*
X191882447Y-54497613D01*
X192276595Y-54286937D01*
X192481301Y-53929907D01*
X190881000Y-52329605D01*
X190866858Y-52343748D01*
X190687253Y-52164143D01*
X190701395Y-52150000D01*
X191060605Y-52150000D01*
X192660907Y-53750301D01*
X193017937Y-53545595D01*
X193249143Y-53101883D01*
X193389343Y-52621591D01*
X193433149Y-52123177D01*
X193378877Y-51625792D01*
X193228613Y-51148553D01*
X193017937Y-50754405D01*
X192660907Y-50549699D01*
X191060605Y-52150000D01*
X190701395Y-52150000D01*
X189101093Y-50549699D01*
X188744063Y-50754405D01*
X188512857Y-51198117D01*
X188372657Y-51678409D01*
X188328851Y-52176823D01*
X188383123Y-52674208D01*
X188498792Y-53041574D01*
X188409846Y-53004731D01*
X187943660Y-52912000D01*
X187468340Y-52912000D01*
X187002154Y-53004731D01*
X186917234Y-53039906D01*
X187039343Y-52621591D01*
X187083149Y-52123177D01*
X187028877Y-51625792D01*
X186878613Y-51148553D01*
X186667937Y-50754405D01*
X186310907Y-50549699D01*
X184710605Y-52150000D01*
X184724748Y-52164143D01*
X184545143Y-52343748D01*
X184531000Y-52329605D01*
X182930699Y-53929907D01*
X183135405Y-54286937D01*
X183579117Y-54518143D01*
X184059409Y-54658343D01*
X184557823Y-54702149D01*
X185055208Y-54647877D01*
X185422574Y-54532208D01*
X185385731Y-54621154D01*
X185293000Y-55087340D01*
X185293000Y-55562660D01*
X185385731Y-56028846D01*
X185420906Y-56113766D01*
X185002591Y-55991657D01*
X184504177Y-55947851D01*
X184006792Y-56002123D01*
X183529553Y-56152387D01*
X183135405Y-56363063D01*
X182930699Y-56720093D01*
X184531000Y-58320395D01*
X184545143Y-58306253D01*
X184724748Y-58485858D01*
X184710605Y-58500000D01*
X184724748Y-58514143D01*
X184545143Y-58693748D01*
X184531000Y-58679605D01*
X182930699Y-60279907D01*
X183135405Y-60636937D01*
X183579117Y-60868143D01*
X184059409Y-61008343D01*
X184166653Y-61017769D01*
X177300652Y-67883770D01*
X177251932Y-67638842D01*
X177139990Y-67368589D01*
X176977475Y-67125368D01*
X176770632Y-66918525D01*
X176596240Y-66802000D01*
X176770632Y-66685475D01*
X176977475Y-66478632D01*
X177139990Y-66235411D01*
X177251932Y-65965158D01*
X177309000Y-65678260D01*
X177309000Y-65385740D01*
X177251932Y-65098842D01*
X177139990Y-64828589D01*
X176977475Y-64585368D01*
X176770632Y-64378525D01*
X176596240Y-64262000D01*
X176770632Y-64145475D01*
X176977475Y-63938632D01*
X177139990Y-63695411D01*
X177251932Y-63425158D01*
X177309000Y-63138260D01*
X177309000Y-62845740D01*
X177251932Y-62558842D01*
X177139990Y-62288589D01*
X176977475Y-62045368D01*
X176770632Y-61838525D01*
X176596240Y-61722000D01*
X176770632Y-61605475D01*
X176977475Y-61398632D01*
X177139990Y-61155411D01*
X177251932Y-60885158D01*
X177309000Y-60598260D01*
X177309000Y-60305740D01*
X177251932Y-60018842D01*
X177139990Y-59748589D01*
X176977475Y-59505368D01*
X176770632Y-59298525D01*
X176596240Y-59182000D01*
X176770632Y-59065475D01*
X176977475Y-58858632D01*
X177139990Y-58615411D01*
X177176684Y-58526823D01*
X181978851Y-58526823D01*
X182033123Y-59024208D01*
X182183387Y-59501447D01*
X182394063Y-59895595D01*
X182751093Y-60100301D01*
X184351395Y-58500000D01*
X182751093Y-56899699D01*
X182394063Y-57104405D01*
X182162857Y-57548117D01*
X182022657Y-58028409D01*
X181978851Y-58526823D01*
X177176684Y-58526823D01*
X177251932Y-58345158D01*
X177309000Y-58058260D01*
X177309000Y-57765740D01*
X177251932Y-57478842D01*
X177139990Y-57208589D01*
X176977475Y-56965368D01*
X176770632Y-56758525D01*
X176596240Y-56642000D01*
X176770632Y-56525475D01*
X176977475Y-56318632D01*
X177139990Y-56075411D01*
X177251932Y-55805158D01*
X177309000Y-55518260D01*
X177309000Y-55225740D01*
X177251932Y-54938842D01*
X177139990Y-54668589D01*
X176977475Y-54425368D01*
X176770632Y-54218525D01*
X176596240Y-54102000D01*
X176770632Y-53985475D01*
X176977475Y-53778632D01*
X177139990Y-53535411D01*
X177251932Y-53265158D01*
X177309000Y-52978260D01*
X177309000Y-52685740D01*
X177251932Y-52398842D01*
X177159970Y-52176823D01*
X181978851Y-52176823D01*
X182033123Y-52674208D01*
X182183387Y-53151447D01*
X182394063Y-53545595D01*
X182751093Y-53750301D01*
X184351395Y-52150000D01*
X182751093Y-50549699D01*
X182394063Y-50754405D01*
X182162857Y-51198117D01*
X182022657Y-51678409D01*
X181978851Y-52176823D01*
X177159970Y-52176823D01*
X177139990Y-52128589D01*
X176977475Y-51885368D01*
X176770632Y-51678525D01*
X176527411Y-51516010D01*
X176257158Y-51404068D01*
X175970260Y-51347000D01*
X175677740Y-51347000D01*
X175390842Y-51404068D01*
X175120589Y-51516010D01*
X174877368Y-51678525D01*
X174670525Y-51885368D01*
X174508010Y-52128589D01*
X174396068Y-52398842D01*
X174339000Y-52685740D01*
X174339000Y-52978260D01*
X174396068Y-53265158D01*
X174508010Y-53535411D01*
X174670525Y-53778632D01*
X174877368Y-53985475D01*
X175051760Y-54102000D01*
X174877368Y-54218525D01*
X174670525Y-54425368D01*
X174508010Y-54668589D01*
X174396068Y-54938842D01*
X174339000Y-55225740D01*
X174339000Y-55518260D01*
X174353461Y-55590960D01*
X171399302Y-58545120D01*
X171301898Y-58504774D01*
X171101939Y-58465000D01*
X170898061Y-58465000D01*
X170698102Y-58504774D01*
X170509744Y-58582795D01*
X170340226Y-58696063D01*
X170196063Y-58840226D01*
X170082795Y-59009744D01*
X170004774Y-59198102D01*
X169965000Y-59398061D01*
X161630168Y-59398061D01*
X161530632Y-59298525D01*
X161356240Y-59182000D01*
X161530632Y-59065475D01*
X161737475Y-58858632D01*
X161899990Y-58615411D01*
X162011932Y-58345158D01*
X162069000Y-58058260D01*
X162069000Y-57765740D01*
X162011932Y-57478842D01*
X161899990Y-57208589D01*
X161737475Y-56965368D01*
X161530632Y-56758525D01*
X161356240Y-56642000D01*
X161530632Y-56525475D01*
X161737475Y-56318632D01*
X161899990Y-56075411D01*
X162011932Y-55805158D01*
X162069000Y-55518260D01*
X162069000Y-55225740D01*
X162011932Y-54938842D01*
X161899990Y-54668589D01*
X161737475Y-54425368D01*
X161605620Y-54293513D01*
X161678180Y-54271502D01*
X161788494Y-54212537D01*
X161885185Y-54133185D01*
X161964537Y-54036494D01*
X162023502Y-53926180D01*
X162059812Y-53806482D01*
X162072072Y-53682000D01*
X162072072Y-51982000D01*
X162059812Y-51857518D01*
X162023502Y-51737820D01*
X161964537Y-51627506D01*
X161885185Y-51530815D01*
X161788494Y-51451463D01*
X161678180Y-51392498D01*
X161558482Y-51356188D01*
X161434000Y-51343928D01*
X159734000Y-51343928D01*
X159609518Y-51356188D01*
X159489820Y-51392498D01*
X159379506Y-51451463D01*
X159282815Y-51530815D01*
X159203463Y-51627506D01*
X159144498Y-51737820D01*
X159108188Y-51857518D01*
X159095928Y-51982000D01*
X159095928Y-53682000D01*
X159108188Y-53806482D01*
X159144498Y-53926180D01*
X159203463Y-54036494D01*
X159282815Y-54133185D01*
X159379506Y-54212537D01*
X159489820Y-54271502D01*
X159562380Y-54293513D01*
X159430525Y-54425368D01*
X159268010Y-54668589D01*
X159156068Y-54938842D01*
X159099000Y-55225740D01*
X159099000Y-55518260D01*
X159156068Y-55805158D01*
X159268010Y-56075411D01*
X159430525Y-56318632D01*
X159637368Y-56525475D01*
X159811760Y-56642000D01*
X159637368Y-56758525D01*
X159430525Y-56965368D01*
X159268010Y-57208589D01*
X159156068Y-57478842D01*
X159099000Y-57765740D01*
X159099000Y-58058260D01*
X159156068Y-58345158D01*
X159268010Y-58615411D01*
X159430525Y-58858632D01*
X159637368Y-59065475D01*
X159811760Y-59182000D01*
X159637368Y-59298525D01*
X159430525Y-59505368D01*
X159268010Y-59748589D01*
X159156068Y-60018842D01*
X159099000Y-60305740D01*
X159099000Y-60598260D01*
X159156068Y-60885158D01*
X159268010Y-61155411D01*
X159430525Y-61398632D01*
X159637368Y-61605475D01*
X159811760Y-61722000D01*
X159637368Y-61838525D01*
X159430525Y-62045368D01*
X159268010Y-62288589D01*
X159156068Y-62558842D01*
X159099000Y-62845740D01*
X159099000Y-63138260D01*
X159156068Y-63425158D01*
X159268010Y-63695411D01*
X159430525Y-63938632D01*
X159637368Y-64145475D01*
X159811760Y-64262000D01*
X159637368Y-64378525D01*
X159430525Y-64585368D01*
X159268010Y-64828589D01*
X159156068Y-65098842D01*
X159099000Y-65385740D01*
X159099000Y-65678260D01*
X159156068Y-65965158D01*
X159268010Y-66235411D01*
X159430525Y-66478632D01*
X159637368Y-66685475D01*
X159811760Y-66802000D01*
X159637368Y-66918525D01*
X159430525Y-67125368D01*
X159268010Y-67368589D01*
X159156068Y-67638842D01*
X159099000Y-67925740D01*
X159099000Y-68218260D01*
X159156068Y-68505158D01*
X159268010Y-68775411D01*
X159430525Y-69018632D01*
X159637368Y-69225475D01*
X159811760Y-69342000D01*
X159637368Y-69458525D01*
X159430525Y-69665368D01*
X159268010Y-69908589D01*
X159156068Y-70178842D01*
X159099000Y-70465740D01*
X159099000Y-70758260D01*
X159156068Y-71045158D01*
X159268010Y-71315411D01*
X159430525Y-71558632D01*
X159637368Y-71765475D01*
X159811760Y-71882000D01*
X159637368Y-71998525D01*
X159430525Y-72205368D01*
X159389344Y-72267000D01*
X157391469Y-72267000D01*
X157348000Y-72262719D01*
X157304531Y-72267000D01*
X157304523Y-72267000D01*
X157174510Y-72279805D01*
X157007686Y-72330411D01*
X156853941Y-72412589D01*
X156752953Y-72495468D01*
X156752951Y-72495470D01*
X156719183Y-72523183D01*
X156691470Y-72556951D01*
X154904958Y-74343464D01*
X154904953Y-74343468D01*
X151254957Y-77993465D01*
X151198102Y-78004774D01*
X151009744Y-78082795D01*
X150840226Y-78196063D01*
X150696063Y-78340226D01*
X150582795Y-78509744D01*
X150504774Y-78698102D01*
X150465000Y-78898061D01*
X144035000Y-78898061D01*
X144035000Y-78848816D01*
X143976011Y-78552257D01*
X143860299Y-78272905D01*
X143692312Y-78021495D01*
X143478505Y-77807688D01*
X143335690Y-77712262D01*
X143384475Y-77564080D01*
X142500000Y-76679605D01*
X141615525Y-77564080D01*
X141664310Y-77712262D01*
X141521495Y-77807688D01*
X141307688Y-78021495D01*
X141210000Y-78167695D01*
X141210000Y-77310096D01*
X141435920Y-77384475D01*
X142320395Y-76500000D01*
X142679605Y-76500000D01*
X143564080Y-77384475D01*
X143818261Y-77300792D01*
X143949158Y-77028225D01*
X144024365Y-76735358D01*
X144040991Y-76433447D01*
X143998397Y-76134093D01*
X143898222Y-75848801D01*
X143818261Y-75699208D01*
X143564080Y-75615525D01*
X142679605Y-76500000D01*
X142320395Y-76500000D01*
X141435920Y-75615525D01*
X141210000Y-75689904D01*
X141210000Y-75435920D01*
X141615525Y-75435920D01*
X142500000Y-76320395D01*
X143384475Y-75435920D01*
X143300792Y-75181739D01*
X143028225Y-75050842D01*
X142735358Y-74975635D01*
X142433447Y-74959009D01*
X142134093Y-75001603D01*
X141848801Y-75101778D01*
X141699208Y-75181739D01*
X141615525Y-75435920D01*
X141210000Y-75435920D01*
X141210000Y-73990475D01*
X147365000Y-73990475D01*
X147365000Y-74509525D01*
X147466261Y-75018601D01*
X147664893Y-75498141D01*
X147953262Y-75929715D01*
X148320285Y-76296738D01*
X148751859Y-76585107D01*
X149231399Y-76783739D01*
X149740475Y-76885000D01*
X150259525Y-76885000D01*
X150768601Y-76783739D01*
X151248141Y-76585107D01*
X151679715Y-76296738D01*
X152046738Y-75929715D01*
X152335107Y-75498141D01*
X152533739Y-75018601D01*
X152635000Y-74509525D01*
X152635000Y-73990475D01*
X152533739Y-73481399D01*
X152335107Y-73001859D01*
X152046738Y-72570285D01*
X151679715Y-72203262D01*
X151248141Y-71914893D01*
X151175973Y-71885000D01*
X152961546Y-71885000D01*
X153009744Y-71917205D01*
X153198102Y-71995226D01*
X153398061Y-72035000D01*
X153601939Y-72035000D01*
X153801898Y-71995226D01*
X153990256Y-71917205D01*
X154159774Y-71803937D01*
X154303937Y-71659774D01*
X154417205Y-71490256D01*
X154495226Y-71301898D01*
X154535000Y-71101939D01*
X154535000Y-70898061D01*
X154495226Y-70698102D01*
X154417205Y-70509744D01*
X154303937Y-70340226D01*
X154159774Y-70196063D01*
X153990256Y-70082795D01*
X153801898Y-70004774D01*
X153601939Y-69965000D01*
X153398061Y-69965000D01*
X153198102Y-70004774D01*
X153009744Y-70082795D01*
X152961546Y-70115000D01*
X150038454Y-70115000D01*
X149990256Y-70082795D01*
X149801898Y-70004774D01*
X149601939Y-69965000D01*
X149398061Y-69965000D01*
X149198102Y-70004774D01*
X149009744Y-70082795D01*
X148840226Y-70196063D01*
X148696063Y-70340226D01*
X148582795Y-70509744D01*
X148504774Y-70698102D01*
X148465000Y-70898061D01*
X148465000Y-71101939D01*
X148504774Y-71301898D01*
X148582795Y-71490256D01*
X148696063Y-71659774D01*
X148840226Y-71803937D01*
X148908919Y-71849836D01*
X148751859Y-71914893D01*
X148320285Y-72203262D01*
X147953262Y-72570285D01*
X147664893Y-73001859D01*
X147466261Y-73481399D01*
X147365000Y-73990475D01*
X141210000Y-73990475D01*
X141210000Y-65990475D01*
X147365000Y-65990475D01*
X147365000Y-66509525D01*
X147466261Y-67018601D01*
X147664893Y-67498141D01*
X147953262Y-67929715D01*
X148320285Y-68296738D01*
X148751859Y-68585107D01*
X149231399Y-68783739D01*
X149740475Y-68885000D01*
X150259525Y-68885000D01*
X150768601Y-68783739D01*
X151248141Y-68585107D01*
X151679715Y-68296738D01*
X152046738Y-67929715D01*
X152335107Y-67498141D01*
X152533739Y-67018601D01*
X152635000Y-66509525D01*
X152635000Y-65990475D01*
X152533739Y-65481399D01*
X152335107Y-65001859D01*
X152046738Y-64570285D01*
X151679715Y-64203262D01*
X151248141Y-63914893D01*
X150768601Y-63716261D01*
X150259525Y-63615000D01*
X149740475Y-63615000D01*
X149231399Y-63716261D01*
X148751859Y-63914893D01*
X148320285Y-64203262D01*
X147953262Y-64570285D01*
X147664893Y-65001859D01*
X147466261Y-65481399D01*
X147365000Y-65990475D01*
X141210000Y-65990475D01*
X141210000Y-64832305D01*
X141307688Y-64978505D01*
X141521495Y-65192312D01*
X141772905Y-65360299D01*
X142052257Y-65476011D01*
X142348816Y-65535000D01*
X142651184Y-65535000D01*
X142947743Y-65476011D01*
X143227095Y-65360299D01*
X143478505Y-65192312D01*
X143692312Y-64978505D01*
X143860299Y-64727095D01*
X143976011Y-64447743D01*
X144035000Y-64151184D01*
X144035000Y-63848816D01*
X143976011Y-63552257D01*
X143860299Y-63272905D01*
X143692312Y-63021495D01*
X143478505Y-62807688D01*
X143392169Y-62750000D01*
X143478505Y-62692312D01*
X143692312Y-62478505D01*
X143860299Y-62227095D01*
X143976011Y-61947743D01*
X144035000Y-61651184D01*
X144035000Y-61348816D01*
X143976011Y-61052257D01*
X143860299Y-60772905D01*
X143692312Y-60521495D01*
X143478505Y-60307688D01*
X143335690Y-60212262D01*
X143384475Y-60064080D01*
X142500000Y-59179605D01*
X141615525Y-60064080D01*
X141664310Y-60212262D01*
X141521495Y-60307688D01*
X141307688Y-60521495D01*
X141210000Y-60667695D01*
X141210000Y-59810096D01*
X141435920Y-59884475D01*
X142320395Y-59000000D01*
X142679605Y-59000000D01*
X143564080Y-59884475D01*
X143818261Y-59800792D01*
X143949158Y-59528225D01*
X144024365Y-59235358D01*
X144040991Y-58933447D01*
X143998397Y-58634093D01*
X143898222Y-58348801D01*
X143818261Y-58199208D01*
X143564080Y-58115525D01*
X142679605Y-59000000D01*
X142320395Y-59000000D01*
X141435920Y-58115525D01*
X141210000Y-58189904D01*
X141210000Y-57935920D01*
X141615525Y-57935920D01*
X142500000Y-58820395D01*
X143384475Y-57935920D01*
X143300792Y-57681739D01*
X143028225Y-57550842D01*
X142735358Y-57475635D01*
X142433447Y-57459009D01*
X142134093Y-57501603D01*
X141848801Y-57601778D01*
X141699208Y-57681739D01*
X141615525Y-57935920D01*
X141210000Y-57935920D01*
X141210000Y-56490475D01*
X147365000Y-56490475D01*
X147365000Y-57009525D01*
X147466261Y-57518601D01*
X147664893Y-57998141D01*
X147953262Y-58429715D01*
X148320285Y-58796738D01*
X148751859Y-59085107D01*
X149231399Y-59283739D01*
X149740475Y-59385000D01*
X150259525Y-59385000D01*
X150768601Y-59283739D01*
X151248141Y-59085107D01*
X151679715Y-58796738D01*
X152046738Y-58429715D01*
X152335107Y-57998141D01*
X152533739Y-57518601D01*
X152635000Y-57009525D01*
X152635000Y-56490475D01*
X152533739Y-55981399D01*
X152335107Y-55501859D01*
X152046738Y-55070285D01*
X151679715Y-54703262D01*
X151248141Y-54414893D01*
X150768601Y-54216261D01*
X150259525Y-54115000D01*
X149740475Y-54115000D01*
X149231399Y-54216261D01*
X148751859Y-54414893D01*
X148320285Y-54703262D01*
X147953262Y-55070285D01*
X147664893Y-55501859D01*
X147466261Y-55981399D01*
X147365000Y-56490475D01*
X141210000Y-56490475D01*
X141210000Y-49849833D01*
X183941077Y-49672814D01*
X183529553Y-49802387D01*
X183135405Y-50013063D01*
X182930699Y-50370093D01*
X184531000Y-51970395D01*
X186131301Y-50370093D01*
X185926595Y-50013063D01*
X185482883Y-49781857D01*
X185092980Y-49668042D01*
X190412873Y-49646004D01*
X190356792Y-49652123D01*
X189879553Y-49802387D01*
X189485405Y-50013063D01*
X189280699Y-50370093D01*
X190881000Y-51970395D01*
X192481301Y-50370093D01*
X192276595Y-50013063D01*
X191832883Y-49781857D01*
X191354124Y-49642105D01*
X194868985Y-49627544D01*
X194867143Y-51186765D01*
M02*
