G04 #@! TF.GenerationSoftware,KiCad,Pcbnew,5.1.6-c6e7f7d~86~ubuntu20.04.1*
G04 #@! TF.CreationDate,2020-06-08T22:34:45+01:00*
G04 #@! TF.ProjectId,spikeling,7370696b-656c-4696-9e67-2e6b69636164,rev?*
G04 #@! TF.SameCoordinates,Original*
G04 #@! TF.FileFunction,Other,ECO2*
%FSLAX46Y46*%
G04 Gerber Fmt 4.6, Leading zero omitted, Abs format (unit mm)*
G04 Created by KiCad (PCBNEW 5.1.6-c6e7f7d~86~ubuntu20.04.1) date 2020-06-08 22:34:45*
%MOMM*%
%LPD*%
G01*
G04 APERTURE LIST*
%ADD10C,0.150000*%
%ADD11C,0.300000*%
G04 APERTURE END LIST*
D10*
X164420952Y-38284380D02*
X163944761Y-38284380D01*
X163897142Y-38760571D01*
X163944761Y-38712952D01*
X164040000Y-38665333D01*
X164278095Y-38665333D01*
X164373333Y-38712952D01*
X164420952Y-38760571D01*
X164468571Y-38855809D01*
X164468571Y-39093904D01*
X164420952Y-39189142D01*
X164373333Y-39236761D01*
X164278095Y-39284380D01*
X164040000Y-39284380D01*
X163944761Y-39236761D01*
X163897142Y-39189142D01*
X165373333Y-38284380D02*
X164897142Y-38284380D01*
X164849523Y-38760571D01*
X164897142Y-38712952D01*
X164992380Y-38665333D01*
X165230476Y-38665333D01*
X165325714Y-38712952D01*
X165373333Y-38760571D01*
X165420952Y-38855809D01*
X165420952Y-39093904D01*
X165373333Y-39189142D01*
X165325714Y-39236761D01*
X165230476Y-39284380D01*
X164992380Y-39284380D01*
X164897142Y-39236761D01*
X164849523Y-39189142D01*
X165849523Y-39189142D02*
X165897142Y-39236761D01*
X165849523Y-39284380D01*
X165801904Y-39236761D01*
X165849523Y-39189142D01*
X165849523Y-39284380D01*
X166516190Y-38284380D02*
X166611428Y-38284380D01*
X166706666Y-38332000D01*
X166754285Y-38379619D01*
X166801904Y-38474857D01*
X166849523Y-38665333D01*
X166849523Y-38903428D01*
X166801904Y-39093904D01*
X166754285Y-39189142D01*
X166706666Y-39236761D01*
X166611428Y-39284380D01*
X166516190Y-39284380D01*
X166420952Y-39236761D01*
X166373333Y-39189142D01*
X166325714Y-39093904D01*
X166278095Y-38903428D01*
X166278095Y-38665333D01*
X166325714Y-38474857D01*
X166373333Y-38379619D01*
X166420952Y-38332000D01*
X166516190Y-38284380D01*
X167420952Y-38712952D02*
X167325714Y-38665333D01*
X167278095Y-38617714D01*
X167230476Y-38522476D01*
X167230476Y-38474857D01*
X167278095Y-38379619D01*
X167325714Y-38332000D01*
X167420952Y-38284380D01*
X167611428Y-38284380D01*
X167706666Y-38332000D01*
X167754285Y-38379619D01*
X167801904Y-38474857D01*
X167801904Y-38522476D01*
X167754285Y-38617714D01*
X167706666Y-38665333D01*
X167611428Y-38712952D01*
X167420952Y-38712952D01*
X167325714Y-38760571D01*
X167278095Y-38808190D01*
X167230476Y-38903428D01*
X167230476Y-39093904D01*
X167278095Y-39189142D01*
X167325714Y-39236761D01*
X167420952Y-39284380D01*
X167611428Y-39284380D01*
X167706666Y-39236761D01*
X167754285Y-39189142D01*
X167801904Y-39093904D01*
X167801904Y-38903428D01*
X167754285Y-38808190D01*
X167706666Y-38760571D01*
X167611428Y-38712952D01*
X168420952Y-38284380D02*
X168516190Y-38284380D01*
X168611428Y-38332000D01*
X168659047Y-38379619D01*
X168706666Y-38474857D01*
X168754285Y-38665333D01*
X168754285Y-38903428D01*
X168706666Y-39093904D01*
X168659047Y-39189142D01*
X168611428Y-39236761D01*
X168516190Y-39284380D01*
X168420952Y-39284380D01*
X168325714Y-39236761D01*
X168278095Y-39189142D01*
X168230476Y-39093904D01*
X168182857Y-38903428D01*
X168182857Y-38665333D01*
X168230476Y-38474857D01*
X168278095Y-38379619D01*
X168325714Y-38332000D01*
X168420952Y-38284380D01*
X169944761Y-39284380D02*
X169944761Y-38617714D01*
X169944761Y-38712952D02*
X169992380Y-38665333D01*
X170087619Y-38617714D01*
X170230476Y-38617714D01*
X170325714Y-38665333D01*
X170373333Y-38760571D01*
X170373333Y-39284380D01*
X170373333Y-38760571D02*
X170420952Y-38665333D01*
X170516190Y-38617714D01*
X170659047Y-38617714D01*
X170754285Y-38665333D01*
X170801904Y-38760571D01*
X170801904Y-39284380D01*
X171278095Y-39284380D02*
X171278095Y-38617714D01*
X171278095Y-38712952D02*
X171325714Y-38665333D01*
X171420952Y-38617714D01*
X171563809Y-38617714D01*
X171659047Y-38665333D01*
X171706666Y-38760571D01*
X171706666Y-39284380D01*
X171706666Y-38760571D02*
X171754285Y-38665333D01*
X171849523Y-38617714D01*
X171992380Y-38617714D01*
X172087619Y-38665333D01*
X172135238Y-38760571D01*
X172135238Y-39284380D01*
X195580000Y-40132000D02*
X140500000Y-40132000D01*
X195580000Y-48768000D02*
X195580000Y-39545579D01*
X140500000Y-48768000D02*
X140500000Y-39545579D01*
X140500000Y-40132000D02*
X141626504Y-39545579D01*
X140500000Y-40132000D02*
X141626504Y-40718421D01*
X195580000Y-40132000D02*
X194453496Y-39545579D01*
X195580000Y-40132000D02*
X194453496Y-40718421D01*
D11*
X207811816Y-89399053D02*
X207811466Y-89684767D01*
X207882719Y-89827712D01*
X207954060Y-89899228D01*
X208168171Y-90042348D01*
X208453797Y-90114127D01*
X209025225Y-90114827D01*
X209168170Y-90043574D01*
X209239686Y-89972233D01*
X209311290Y-89829464D01*
X209311640Y-89543750D01*
X209240387Y-89400805D01*
X209169046Y-89329289D01*
X209026276Y-89257685D01*
X208669134Y-89257247D01*
X208526189Y-89328500D01*
X208454673Y-89399841D01*
X208383069Y-89542611D01*
X208382719Y-89828325D01*
X208453972Y-89971270D01*
X208525313Y-90042786D01*
X208668083Y-90114389D01*
X207813656Y-87899054D02*
X207812780Y-88613339D01*
X208526978Y-88685644D01*
X208455637Y-88614128D01*
X208384383Y-88471183D01*
X208384821Y-88114040D01*
X208456425Y-87971271D01*
X208527941Y-87899930D01*
X208670886Y-87828677D01*
X209028028Y-87829115D01*
X209170798Y-87900718D01*
X209242139Y-87972235D01*
X209313392Y-88115179D01*
X209312954Y-88472322D01*
X209241350Y-88615091D01*
X209169834Y-88686432D01*
X209171674Y-87186433D02*
X209243190Y-87115092D01*
X209314531Y-87186609D01*
X209243015Y-87257949D01*
X209171674Y-87186433D01*
X209314531Y-87186609D01*
X207958177Y-86542087D02*
X207886836Y-86470571D01*
X207815583Y-86327627D01*
X207816021Y-85970484D01*
X207887625Y-85827715D01*
X207959141Y-85756374D01*
X208102086Y-85685120D01*
X208244943Y-85685296D01*
X208459141Y-85756987D01*
X209315232Y-86615180D01*
X209316370Y-85686610D01*
X207816985Y-85184770D02*
X207818124Y-84256200D01*
X208388938Y-84756900D01*
X208389201Y-84542615D01*
X208460805Y-84399845D01*
X208532321Y-84328504D01*
X208675266Y-84257251D01*
X209032408Y-84257689D01*
X209175178Y-84329293D01*
X209246519Y-84400809D01*
X209317772Y-84543753D01*
X209317246Y-84972324D01*
X209245643Y-85115094D01*
X209174127Y-85186435D01*
X207961681Y-83684947D02*
X207890340Y-83613431D01*
X207819087Y-83470486D01*
X207819525Y-83113343D01*
X207891129Y-82970574D01*
X207962645Y-82899233D01*
X208105590Y-82827980D01*
X208248447Y-82828155D01*
X208462645Y-82899846D01*
X209318736Y-83758040D01*
X209319874Y-82829469D01*
X209322064Y-81043756D02*
X208322065Y-81042530D01*
X208464922Y-81042705D02*
X208393581Y-80971189D01*
X208322328Y-80828244D01*
X208322591Y-80613958D01*
X208394194Y-80471189D01*
X208537139Y-80399936D01*
X209322853Y-80400899D01*
X208537139Y-80399936D02*
X208394370Y-80328332D01*
X208323116Y-80185387D01*
X208323379Y-79971102D01*
X208394983Y-79828332D01*
X208537927Y-79757079D01*
X209323641Y-79758043D01*
X209324517Y-79043757D02*
X208324518Y-79042531D01*
X208467375Y-79042706D02*
X208396034Y-78971190D01*
X208324781Y-78828246D01*
X208325044Y-78613960D01*
X208396647Y-78471191D01*
X208539592Y-78399937D01*
X209325306Y-78400901D01*
X208539592Y-78399937D02*
X208396822Y-78328334D01*
X208325569Y-78185389D01*
X208325832Y-77971103D01*
X208397436Y-77828334D01*
X208540380Y-77757081D01*
X209326094Y-77758044D01*
X206579992Y-51281490D02*
X206499992Y-116513490D01*
X195580000Y-51268000D02*
X207166412Y-51282209D01*
X195500000Y-116500000D02*
X207086412Y-116514209D01*
X206499992Y-116513490D02*
X205914953Y-115386268D01*
X206499992Y-116513490D02*
X207087794Y-115387706D01*
X206579992Y-51281490D02*
X205992190Y-52407274D01*
X206579992Y-51281490D02*
X207165031Y-52408712D01*
M02*
