G04 #@! TF.GenerationSoftware,KiCad,Pcbnew,5.1.6-c6e7f7d~86~ubuntu20.04.1*
G04 #@! TF.CreationDate,2020-06-08T22:40:47+01:00*
G04 #@! TF.ProjectId,spikeling,7370696b-656c-4696-9e67-2e6b69636164,rev?*
G04 #@! TF.SameCoordinates,Original*
G04 #@! TF.FileFunction,Soldermask,Top*
G04 #@! TF.FilePolarity,Negative*
%FSLAX46Y46*%
G04 Gerber Fmt 4.6, Leading zero omitted, Abs format (unit mm)*
G04 Created by KiCad (PCBNEW 5.1.6-c6e7f7d~86~ubuntu20.04.1) date 2020-06-08 22:40:47*
%MOMM*%
%LPD*%
G01*
G04 APERTURE LIST*
%ADD10C,0.100000*%
G04 APERTURE END LIST*
D10*
G36*
X191279735Y-110759993D02*
G01*
X191451544Y-110794168D01*
X191598991Y-110855243D01*
X191807512Y-110941615D01*
X191807513Y-110941616D01*
X192127877Y-111155676D01*
X192400324Y-111428123D01*
X192497266Y-111573207D01*
X192614385Y-111748488D01*
X192691024Y-111933511D01*
X192761832Y-112104456D01*
X192837000Y-112482351D01*
X192837000Y-112867649D01*
X192761832Y-113245544D01*
X192700757Y-113392991D01*
X192614385Y-113601512D01*
X192614384Y-113601513D01*
X192400324Y-113921877D01*
X192127877Y-114194324D01*
X191913816Y-114337355D01*
X191807512Y-114408385D01*
X191598991Y-114494757D01*
X191451544Y-114555832D01*
X191325579Y-114580888D01*
X191073651Y-114631000D01*
X190688349Y-114631000D01*
X190436421Y-114580888D01*
X190310456Y-114555832D01*
X190163009Y-114494757D01*
X189954488Y-114408385D01*
X189848184Y-114337355D01*
X189634123Y-114194324D01*
X189361676Y-113921877D01*
X189147616Y-113601513D01*
X189147615Y-113601512D01*
X189061243Y-113392991D01*
X189000168Y-113245544D01*
X188925000Y-112867649D01*
X188925000Y-112482351D01*
X189000168Y-112104456D01*
X189070976Y-111933511D01*
X189147615Y-111748488D01*
X189264734Y-111573207D01*
X189361676Y-111428123D01*
X189634123Y-111155676D01*
X189954487Y-110941616D01*
X189954488Y-110941615D01*
X190163009Y-110855243D01*
X190310456Y-110794168D01*
X190482265Y-110759993D01*
X190688349Y-110719000D01*
X191073651Y-110719000D01*
X191279735Y-110759993D01*
G37*
G36*
X184929735Y-110759993D02*
G01*
X185101544Y-110794168D01*
X185248991Y-110855243D01*
X185457512Y-110941615D01*
X185457513Y-110941616D01*
X185777877Y-111155676D01*
X186050324Y-111428123D01*
X186147266Y-111573207D01*
X186264385Y-111748488D01*
X186341024Y-111933511D01*
X186411832Y-112104456D01*
X186487000Y-112482351D01*
X186487000Y-112867649D01*
X186411832Y-113245544D01*
X186350757Y-113392991D01*
X186264385Y-113601512D01*
X186264384Y-113601513D01*
X186050324Y-113921877D01*
X185777877Y-114194324D01*
X185563816Y-114337355D01*
X185457512Y-114408385D01*
X185248991Y-114494757D01*
X185101544Y-114555832D01*
X184975579Y-114580888D01*
X184723651Y-114631000D01*
X184338349Y-114631000D01*
X184086421Y-114580888D01*
X183960456Y-114555832D01*
X183813009Y-114494757D01*
X183604488Y-114408385D01*
X183498184Y-114337355D01*
X183284123Y-114194324D01*
X183011676Y-113921877D01*
X182797616Y-113601513D01*
X182797615Y-113601512D01*
X182711243Y-113392991D01*
X182650168Y-113245544D01*
X182575000Y-112867649D01*
X182575000Y-112482351D01*
X182650168Y-112104456D01*
X182720976Y-111933511D01*
X182797615Y-111748488D01*
X182914734Y-111573207D01*
X183011676Y-111428123D01*
X183284123Y-111155676D01*
X183604487Y-110941616D01*
X183604488Y-110941615D01*
X183813009Y-110855243D01*
X183960456Y-110794168D01*
X184132265Y-110759993D01*
X184338349Y-110719000D01*
X184723651Y-110719000D01*
X184929735Y-110759993D01*
G37*
G36*
X163226979Y-110963293D02*
G01*
X163360625Y-111003834D01*
X163483784Y-111069664D01*
X163591740Y-111158260D01*
X163680336Y-111266216D01*
X163746166Y-111389375D01*
X163786707Y-111523021D01*
X163801000Y-111668140D01*
X163801000Y-113331860D01*
X163786707Y-113476979D01*
X163746166Y-113610625D01*
X163680336Y-113733784D01*
X163591740Y-113841740D01*
X163483784Y-113930336D01*
X163360625Y-113996166D01*
X163226979Y-114036707D01*
X163081860Y-114051000D01*
X160918140Y-114051000D01*
X160773021Y-114036707D01*
X160639375Y-113996166D01*
X160516216Y-113930336D01*
X160408260Y-113841740D01*
X160319664Y-113733784D01*
X160253834Y-113610625D01*
X160213293Y-113476979D01*
X160199000Y-113331860D01*
X160199000Y-111668140D01*
X160213293Y-111523021D01*
X160253834Y-111389375D01*
X160319664Y-111266216D01*
X160408260Y-111158260D01*
X160516216Y-111069664D01*
X160639375Y-111003834D01*
X160773021Y-110963293D01*
X160918140Y-110949000D01*
X163081860Y-110949000D01*
X163226979Y-110963293D01*
G37*
G36*
X150774254Y-108989818D02*
G01*
X151147511Y-109144426D01*
X151147513Y-109144427D01*
X151410065Y-109319859D01*
X151483436Y-109368884D01*
X151769116Y-109654564D01*
X151993574Y-109990489D01*
X152148182Y-110363746D01*
X152227000Y-110759993D01*
X152227000Y-111164007D01*
X152148182Y-111560254D01*
X152103494Y-111668140D01*
X151993573Y-111933513D01*
X151769116Y-112269436D01*
X151483436Y-112555116D01*
X151147513Y-112779573D01*
X151147512Y-112779574D01*
X151147511Y-112779574D01*
X150774254Y-112934182D01*
X150378007Y-113013000D01*
X149973993Y-113013000D01*
X149577746Y-112934182D01*
X149204489Y-112779574D01*
X149204488Y-112779574D01*
X149204487Y-112779573D01*
X148868564Y-112555116D01*
X148582884Y-112269436D01*
X148358427Y-111933513D01*
X148248506Y-111668140D01*
X148203818Y-111560254D01*
X148125000Y-111164007D01*
X148125000Y-110759993D01*
X148203818Y-110363746D01*
X148358426Y-109990489D01*
X148582884Y-109654564D01*
X148868564Y-109368884D01*
X148941935Y-109319859D01*
X149204487Y-109144427D01*
X149204489Y-109144426D01*
X149577746Y-108989818D01*
X149973993Y-108911000D01*
X150378007Y-108911000D01*
X150774254Y-108989818D01*
G37*
G36*
X174099675Y-109553202D02*
G01*
X174134798Y-109563857D01*
X174167175Y-109581163D01*
X174195550Y-109604450D01*
X174218837Y-109632825D01*
X174236143Y-109665202D01*
X174246798Y-109700325D01*
X174251000Y-109742995D01*
X174251000Y-111257005D01*
X174246798Y-111299675D01*
X174236143Y-111334798D01*
X174218837Y-111367175D01*
X174195550Y-111395550D01*
X174167175Y-111418837D01*
X174134798Y-111436143D01*
X174099675Y-111446798D01*
X174057005Y-111451000D01*
X172942995Y-111451000D01*
X172900325Y-111446798D01*
X172865202Y-111436143D01*
X172832825Y-111418837D01*
X172804450Y-111395550D01*
X172781163Y-111367175D01*
X172763857Y-111334798D01*
X172753202Y-111299675D01*
X172749000Y-111257005D01*
X172749000Y-109742995D01*
X172753202Y-109700325D01*
X172763857Y-109665202D01*
X172781163Y-109632825D01*
X172804450Y-109604450D01*
X172832825Y-109581163D01*
X172865202Y-109563857D01*
X172900325Y-109553202D01*
X172942995Y-109549000D01*
X174057005Y-109549000D01*
X174099675Y-109553202D01*
G37*
G36*
X178099675Y-109553202D02*
G01*
X178134798Y-109563857D01*
X178167175Y-109581163D01*
X178195550Y-109604450D01*
X178218837Y-109632825D01*
X178236143Y-109665202D01*
X178246798Y-109700325D01*
X178251000Y-109742995D01*
X178251000Y-111257005D01*
X178246798Y-111299675D01*
X178236143Y-111334798D01*
X178218837Y-111367175D01*
X178195550Y-111395550D01*
X178167175Y-111418837D01*
X178134798Y-111436143D01*
X178099675Y-111446798D01*
X178057005Y-111451000D01*
X176942995Y-111451000D01*
X176900325Y-111446798D01*
X176865202Y-111436143D01*
X176832825Y-111418837D01*
X176804450Y-111395550D01*
X176781163Y-111367175D01*
X176763857Y-111334798D01*
X176753202Y-111299675D01*
X176749000Y-111257005D01*
X176749000Y-109742995D01*
X176753202Y-109700325D01*
X176763857Y-109665202D01*
X176781163Y-109632825D01*
X176804450Y-109604450D01*
X176832825Y-109581163D01*
X176865202Y-109563857D01*
X176900325Y-109553202D01*
X176942995Y-109549000D01*
X178057005Y-109549000D01*
X178099675Y-109553202D01*
G37*
G36*
X188062820Y-107706143D02*
G01*
X188239500Y-107741287D01*
X188375321Y-107797546D01*
X188572355Y-107879160D01*
X188572356Y-107879161D01*
X188871920Y-108079323D01*
X189126677Y-108334080D01*
X189227438Y-108484880D01*
X189326840Y-108633645D01*
X189464713Y-108966501D01*
X189535000Y-109319858D01*
X189535000Y-109680142D01*
X189464713Y-110033499D01*
X189326840Y-110366355D01*
X189326839Y-110366356D01*
X189126677Y-110665920D01*
X188871920Y-110920677D01*
X188747467Y-111003834D01*
X188572355Y-111120840D01*
X188468140Y-111164007D01*
X188239500Y-111258713D01*
X188063834Y-111293655D01*
X187886142Y-111329000D01*
X187525858Y-111329000D01*
X187348166Y-111293655D01*
X187172500Y-111258713D01*
X186943860Y-111164007D01*
X186839645Y-111120840D01*
X186664533Y-111003834D01*
X186540080Y-110920677D01*
X186285323Y-110665920D01*
X186085161Y-110366356D01*
X186085160Y-110366355D01*
X185947287Y-110033499D01*
X185877000Y-109680142D01*
X185877000Y-109319858D01*
X185947287Y-108966501D01*
X186085160Y-108633645D01*
X186184562Y-108484880D01*
X186285323Y-108334080D01*
X186540080Y-108079323D01*
X186839644Y-107879161D01*
X186839645Y-107879160D01*
X187036679Y-107797546D01*
X187172500Y-107741287D01*
X187349180Y-107706143D01*
X187525858Y-107671000D01*
X187886142Y-107671000D01*
X188062820Y-107706143D01*
G37*
G36*
X167826366Y-107715695D02*
G01*
X167983460Y-107763349D01*
X168128231Y-107840731D01*
X168255128Y-107944872D01*
X168359269Y-108071769D01*
X168436651Y-108216540D01*
X168484305Y-108373634D01*
X168501000Y-108543140D01*
X168501000Y-110456860D01*
X168484305Y-110626366D01*
X168436651Y-110783460D01*
X168359269Y-110928231D01*
X168255128Y-111055128D01*
X168128231Y-111159269D01*
X167983460Y-111236651D01*
X167826366Y-111284305D01*
X167656860Y-111301000D01*
X165743140Y-111301000D01*
X165573634Y-111284305D01*
X165416540Y-111236651D01*
X165271769Y-111159269D01*
X165144872Y-111055128D01*
X165040731Y-110928231D01*
X164963349Y-110783460D01*
X164915695Y-110626366D01*
X164899000Y-110456860D01*
X164899000Y-108543140D01*
X164915695Y-108373634D01*
X164963349Y-108216540D01*
X165040731Y-108071769D01*
X165144872Y-107944872D01*
X165271769Y-107840731D01*
X165416540Y-107763349D01*
X165573634Y-107715695D01*
X165743140Y-107699000D01*
X167656860Y-107699000D01*
X167826366Y-107715695D01*
G37*
G36*
X142953395Y-107797546D02*
G01*
X143126466Y-107869234D01*
X143203818Y-107920919D01*
X143282227Y-107973310D01*
X143414690Y-108105773D01*
X143414691Y-108105775D01*
X143518766Y-108261534D01*
X143590454Y-108434605D01*
X143627000Y-108618333D01*
X143627000Y-108805667D01*
X143590454Y-108989395D01*
X143518766Y-109162466D01*
X143518765Y-109162467D01*
X143414690Y-109318227D01*
X143282227Y-109450690D01*
X143203818Y-109503081D01*
X143126466Y-109554766D01*
X142953395Y-109626454D01*
X142769667Y-109663000D01*
X142582333Y-109663000D01*
X142398605Y-109626454D01*
X142225534Y-109554766D01*
X142148182Y-109503081D01*
X142069773Y-109450690D01*
X141937310Y-109318227D01*
X141833235Y-109162467D01*
X141833234Y-109162466D01*
X141761546Y-108989395D01*
X141725000Y-108805667D01*
X141725000Y-108618333D01*
X141761546Y-108434605D01*
X141833234Y-108261534D01*
X141937309Y-108105775D01*
X141937310Y-108105773D01*
X142069773Y-107973310D01*
X142148182Y-107920919D01*
X142225534Y-107869234D01*
X142398605Y-107797546D01*
X142582333Y-107761000D01*
X142769667Y-107761000D01*
X142953395Y-107797546D01*
G37*
G36*
X163801000Y-108301000D02*
G01*
X160199000Y-108301000D01*
X160199000Y-104699000D01*
X163801000Y-104699000D01*
X163801000Y-108301000D01*
G37*
G36*
X184975579Y-104419112D02*
G01*
X185101544Y-104444168D01*
X185248991Y-104505243D01*
X185457512Y-104591615D01*
X185509652Y-104626454D01*
X185777877Y-104805676D01*
X186050324Y-105078123D01*
X186103766Y-105158105D01*
X186264385Y-105398488D01*
X186295377Y-105473310D01*
X186411832Y-105754456D01*
X186487000Y-106132351D01*
X186487000Y-106517649D01*
X186411832Y-106895544D01*
X186388989Y-106950691D01*
X186264385Y-107251512D01*
X186264384Y-107251513D01*
X186050324Y-107571877D01*
X185777877Y-107844324D01*
X185584837Y-107973309D01*
X185457512Y-108058385D01*
X185343102Y-108105775D01*
X185101544Y-108205832D01*
X185047711Y-108216540D01*
X184723651Y-108281000D01*
X184338349Y-108281000D01*
X184014289Y-108216540D01*
X183960456Y-108205832D01*
X183718898Y-108105775D01*
X183604488Y-108058385D01*
X183477163Y-107973309D01*
X183284123Y-107844324D01*
X183011676Y-107571877D01*
X182797616Y-107251513D01*
X182797615Y-107251512D01*
X182673011Y-106950691D01*
X182650168Y-106895544D01*
X182575000Y-106517649D01*
X182575000Y-106132351D01*
X182650168Y-105754456D01*
X182766623Y-105473310D01*
X182797615Y-105398488D01*
X182958234Y-105158105D01*
X183011676Y-105078123D01*
X183284123Y-104805676D01*
X183552348Y-104626454D01*
X183604488Y-104591615D01*
X183813009Y-104505243D01*
X183960456Y-104444168D01*
X184086421Y-104419112D01*
X184338349Y-104369000D01*
X184723651Y-104369000D01*
X184975579Y-104419112D01*
G37*
G36*
X191325579Y-104419112D02*
G01*
X191451544Y-104444168D01*
X191598991Y-104505243D01*
X191807512Y-104591615D01*
X191859652Y-104626454D01*
X192127877Y-104805676D01*
X192400324Y-105078123D01*
X192453766Y-105158105D01*
X192614385Y-105398488D01*
X192645377Y-105473310D01*
X192761832Y-105754456D01*
X192837000Y-106132351D01*
X192837000Y-106517649D01*
X192761832Y-106895544D01*
X192738989Y-106950691D01*
X192614385Y-107251512D01*
X192614384Y-107251513D01*
X192400324Y-107571877D01*
X192127877Y-107844324D01*
X191934837Y-107973309D01*
X191807512Y-108058385D01*
X191693102Y-108105775D01*
X191451544Y-108205832D01*
X191397711Y-108216540D01*
X191073651Y-108281000D01*
X190688349Y-108281000D01*
X190364289Y-108216540D01*
X190310456Y-108205832D01*
X190068898Y-108105775D01*
X189954488Y-108058385D01*
X189827163Y-107973309D01*
X189634123Y-107844324D01*
X189361676Y-107571877D01*
X189147616Y-107251513D01*
X189147615Y-107251512D01*
X189023011Y-106950691D01*
X189000168Y-106895544D01*
X188925000Y-106517649D01*
X188925000Y-106132351D01*
X189000168Y-105754456D01*
X189116623Y-105473310D01*
X189147615Y-105398488D01*
X189308234Y-105158105D01*
X189361676Y-105078123D01*
X189634123Y-104805676D01*
X189902348Y-104626454D01*
X189954488Y-104591615D01*
X190163009Y-104505243D01*
X190310456Y-104444168D01*
X190436421Y-104419112D01*
X190688349Y-104369000D01*
X191073651Y-104369000D01*
X191325579Y-104419112D01*
G37*
G36*
X142953395Y-105297546D02*
G01*
X143126466Y-105369234D01*
X143180903Y-105405608D01*
X143282227Y-105473310D01*
X143414690Y-105605773D01*
X143414691Y-105605775D01*
X143518766Y-105761534D01*
X143590454Y-105934605D01*
X143627000Y-106118333D01*
X143627000Y-106305667D01*
X143590454Y-106489395D01*
X143518766Y-106662466D01*
X143518765Y-106662467D01*
X143414690Y-106818227D01*
X143282227Y-106950690D01*
X143203818Y-107003081D01*
X143126466Y-107054766D01*
X142953395Y-107126454D01*
X142769667Y-107163000D01*
X142582333Y-107163000D01*
X142398605Y-107126454D01*
X142225534Y-107054766D01*
X142148182Y-107003081D01*
X142069773Y-106950690D01*
X141937310Y-106818227D01*
X141833235Y-106662467D01*
X141833234Y-106662466D01*
X141761546Y-106489395D01*
X141725000Y-106305667D01*
X141725000Y-106118333D01*
X141761546Y-105934605D01*
X141833234Y-105761534D01*
X141937309Y-105605775D01*
X141937310Y-105605773D01*
X142069773Y-105473310D01*
X142171097Y-105405608D01*
X142225534Y-105369234D01*
X142398605Y-105297546D01*
X142582333Y-105261000D01*
X142769667Y-105261000D01*
X142953395Y-105297546D01*
G37*
G36*
X174625562Y-103578181D02*
G01*
X174660481Y-103588774D01*
X174692663Y-103605976D01*
X174720873Y-103629127D01*
X174744024Y-103657337D01*
X174761226Y-103689519D01*
X174771819Y-103724438D01*
X174776000Y-103766895D01*
X174776000Y-105233105D01*
X174771819Y-105275562D01*
X174761226Y-105310481D01*
X174744024Y-105342663D01*
X174720873Y-105370873D01*
X174692663Y-105394024D01*
X174660481Y-105411226D01*
X174625562Y-105421819D01*
X174583105Y-105426000D01*
X173441895Y-105426000D01*
X173399438Y-105421819D01*
X173364519Y-105411226D01*
X173332337Y-105394024D01*
X173304127Y-105370873D01*
X173280976Y-105342663D01*
X173263774Y-105310481D01*
X173253181Y-105275562D01*
X173249000Y-105233105D01*
X173249000Y-103766895D01*
X173253181Y-103724438D01*
X173263774Y-103689519D01*
X173280976Y-103657337D01*
X173304127Y-103629127D01*
X173332337Y-103605976D01*
X173364519Y-103588774D01*
X173399438Y-103578181D01*
X173441895Y-103574000D01*
X174583105Y-103574000D01*
X174625562Y-103578181D01*
G37*
G36*
X177600562Y-103578181D02*
G01*
X177635481Y-103588774D01*
X177667663Y-103605976D01*
X177695873Y-103629127D01*
X177719024Y-103657337D01*
X177736226Y-103689519D01*
X177746819Y-103724438D01*
X177751000Y-103766895D01*
X177751000Y-105233105D01*
X177746819Y-105275562D01*
X177736226Y-105310481D01*
X177719024Y-105342663D01*
X177695873Y-105370873D01*
X177667663Y-105394024D01*
X177635481Y-105411226D01*
X177600562Y-105421819D01*
X177558105Y-105426000D01*
X176416895Y-105426000D01*
X176374438Y-105421819D01*
X176339519Y-105411226D01*
X176307337Y-105394024D01*
X176279127Y-105370873D01*
X176255976Y-105342663D01*
X176238774Y-105310481D01*
X176228181Y-105275562D01*
X176224000Y-105233105D01*
X176224000Y-103766895D01*
X176228181Y-103724438D01*
X176238774Y-103689519D01*
X176255976Y-103657337D01*
X176279127Y-103629127D01*
X176307337Y-103605976D01*
X176339519Y-103588774D01*
X176374438Y-103578181D01*
X176416895Y-103574000D01*
X177558105Y-103574000D01*
X177600562Y-103578181D01*
G37*
G36*
X142953395Y-102797546D02*
G01*
X143126466Y-102869234D01*
X143126467Y-102869235D01*
X143282227Y-102973310D01*
X143414690Y-103105773D01*
X143414691Y-103105775D01*
X143518766Y-103261534D01*
X143590454Y-103434605D01*
X143627000Y-103618333D01*
X143627000Y-103805667D01*
X143590454Y-103989395D01*
X143518766Y-104162466D01*
X143518765Y-104162467D01*
X143414690Y-104318227D01*
X143282227Y-104450690D01*
X143203818Y-104503081D01*
X143126466Y-104554766D01*
X142953395Y-104626454D01*
X142769667Y-104663000D01*
X142582333Y-104663000D01*
X142398605Y-104626454D01*
X142225534Y-104554766D01*
X142148182Y-104503081D01*
X142069773Y-104450690D01*
X141937310Y-104318227D01*
X141833235Y-104162467D01*
X141833234Y-104162466D01*
X141761546Y-103989395D01*
X141725000Y-103805667D01*
X141725000Y-103618333D01*
X141761546Y-103434605D01*
X141833234Y-103261534D01*
X141937309Y-103105775D01*
X141937310Y-103105773D01*
X142069773Y-102973310D01*
X142225533Y-102869235D01*
X142225534Y-102869234D01*
X142398605Y-102797546D01*
X142582333Y-102761000D01*
X142769667Y-102761000D01*
X142953395Y-102797546D01*
G37*
G36*
X150774254Y-99489818D02*
G01*
X151147511Y-99644426D01*
X151147513Y-99644427D01*
X151483436Y-99868884D01*
X151769116Y-100154564D01*
X151947729Y-100421876D01*
X151993574Y-100490489D01*
X152148182Y-100863746D01*
X152227000Y-101259993D01*
X152227000Y-101664007D01*
X152148182Y-102060254D01*
X151993574Y-102433511D01*
X151993573Y-102433513D01*
X151769116Y-102769436D01*
X151483436Y-103055116D01*
X151147513Y-103279573D01*
X151147512Y-103279574D01*
X151147511Y-103279574D01*
X150774254Y-103434182D01*
X150378007Y-103513000D01*
X149973993Y-103513000D01*
X149577746Y-103434182D01*
X149204489Y-103279574D01*
X149204488Y-103279574D01*
X149204487Y-103279573D01*
X148868564Y-103055116D01*
X148582884Y-102769436D01*
X148358427Y-102433513D01*
X148358426Y-102433511D01*
X148203818Y-102060254D01*
X148125000Y-101664007D01*
X148125000Y-101259993D01*
X148203818Y-100863746D01*
X148358426Y-100490489D01*
X148404272Y-100421876D01*
X148582884Y-100154564D01*
X148868564Y-99868884D01*
X149204487Y-99644427D01*
X149204489Y-99644426D01*
X149577746Y-99489818D01*
X149973993Y-99411000D01*
X150378007Y-99411000D01*
X150774254Y-99489818D01*
G37*
G36*
X184975579Y-97269112D02*
G01*
X185101544Y-97294168D01*
X185248991Y-97355243D01*
X185457512Y-97441615D01*
X185457513Y-97441616D01*
X185777877Y-97655676D01*
X186050324Y-97928123D01*
X186193355Y-98142184D01*
X186264385Y-98248488D01*
X186411832Y-98604457D01*
X186487000Y-98982349D01*
X186487000Y-99367651D01*
X186411832Y-99745543D01*
X186264385Y-100101512D01*
X186264384Y-100101513D01*
X186050324Y-100421877D01*
X185777877Y-100694324D01*
X185563816Y-100837355D01*
X185457512Y-100908385D01*
X185248991Y-100994757D01*
X185101544Y-101055832D01*
X184975579Y-101080888D01*
X184723651Y-101131000D01*
X184338349Y-101131000D01*
X184086421Y-101080888D01*
X183960456Y-101055832D01*
X183813009Y-100994757D01*
X183604488Y-100908385D01*
X183498184Y-100837355D01*
X183284123Y-100694324D01*
X183011676Y-100421877D01*
X182797616Y-100101513D01*
X182797615Y-100101512D01*
X182650168Y-99745543D01*
X182575000Y-99367651D01*
X182575000Y-98982349D01*
X182650168Y-98604457D01*
X182797615Y-98248488D01*
X182868645Y-98142184D01*
X183011676Y-97928123D01*
X183284123Y-97655676D01*
X183604487Y-97441616D01*
X183604488Y-97441615D01*
X183813009Y-97355243D01*
X183960456Y-97294168D01*
X184086421Y-97269112D01*
X184338349Y-97219000D01*
X184723651Y-97219000D01*
X184975579Y-97269112D01*
G37*
G36*
X191325579Y-97269112D02*
G01*
X191451544Y-97294168D01*
X191598991Y-97355243D01*
X191807512Y-97441615D01*
X191807513Y-97441616D01*
X192127877Y-97655676D01*
X192400324Y-97928123D01*
X192543355Y-98142184D01*
X192614385Y-98248488D01*
X192761832Y-98604457D01*
X192837000Y-98982349D01*
X192837000Y-99367651D01*
X192761832Y-99745543D01*
X192614385Y-100101512D01*
X192614384Y-100101513D01*
X192400324Y-100421877D01*
X192127877Y-100694324D01*
X191913816Y-100837355D01*
X191807512Y-100908385D01*
X191598991Y-100994757D01*
X191451544Y-101055832D01*
X191325579Y-101080888D01*
X191073651Y-101131000D01*
X190688349Y-101131000D01*
X190436421Y-101080888D01*
X190310456Y-101055832D01*
X190163009Y-100994757D01*
X189954488Y-100908385D01*
X189848184Y-100837355D01*
X189634123Y-100694324D01*
X189361676Y-100421877D01*
X189147616Y-100101513D01*
X189147615Y-100101512D01*
X189000168Y-99745543D01*
X188925000Y-99367651D01*
X188925000Y-98982349D01*
X189000168Y-98604457D01*
X189147615Y-98248488D01*
X189218645Y-98142184D01*
X189361676Y-97928123D01*
X189634123Y-97655676D01*
X189954487Y-97441616D01*
X189954488Y-97441615D01*
X190163009Y-97355243D01*
X190310456Y-97294168D01*
X190436421Y-97269112D01*
X190688349Y-97219000D01*
X191073651Y-97219000D01*
X191325579Y-97269112D01*
G37*
G36*
X166801000Y-99951000D02*
G01*
X165149000Y-99951000D01*
X165149000Y-98549000D01*
X166801000Y-98549000D01*
X166801000Y-99951000D01*
G37*
G36*
X158851000Y-99951000D02*
G01*
X157199000Y-99951000D01*
X157199000Y-98549000D01*
X158851000Y-98549000D01*
X158851000Y-99951000D01*
G37*
G36*
X188062821Y-94206144D02*
G01*
X188239500Y-94241287D01*
X188377373Y-94298396D01*
X188572355Y-94379160D01*
X188572356Y-94379161D01*
X188871920Y-94579323D01*
X189126677Y-94834080D01*
X189126678Y-94834082D01*
X189326840Y-95133645D01*
X189407604Y-95328627D01*
X189464713Y-95466500D01*
X189535000Y-95819859D01*
X189535000Y-96180141D01*
X189464713Y-96533500D01*
X189407604Y-96671373D01*
X189326840Y-96866355D01*
X189326839Y-96866356D01*
X189126677Y-97165920D01*
X188871920Y-97420677D01*
X188721120Y-97521438D01*
X188572355Y-97620840D01*
X188377373Y-97701604D01*
X188239500Y-97758713D01*
X188062821Y-97793856D01*
X187886142Y-97829000D01*
X187525858Y-97829000D01*
X187349179Y-97793856D01*
X187172500Y-97758713D01*
X187034627Y-97701604D01*
X186839645Y-97620840D01*
X186690880Y-97521438D01*
X186540080Y-97420677D01*
X186285323Y-97165920D01*
X186085161Y-96866356D01*
X186085160Y-96866355D01*
X186004396Y-96671373D01*
X185947287Y-96533500D01*
X185877000Y-96180141D01*
X185877000Y-95819859D01*
X185947287Y-95466500D01*
X186004396Y-95328627D01*
X186085160Y-95133645D01*
X186285322Y-94834082D01*
X186285323Y-94834080D01*
X186540080Y-94579323D01*
X186839644Y-94379161D01*
X186839645Y-94379160D01*
X187034627Y-94298396D01*
X187172500Y-94241287D01*
X187349179Y-94206144D01*
X187525858Y-94171000D01*
X187886142Y-94171000D01*
X188062821Y-94206144D01*
G37*
G36*
X180051000Y-97751000D02*
G01*
X178649000Y-97751000D01*
X178649000Y-94249000D01*
X180051000Y-94249000D01*
X180051000Y-97751000D01*
G37*
G36*
X171351000Y-97751000D02*
G01*
X169949000Y-97751000D01*
X169949000Y-94249000D01*
X171351000Y-94249000D01*
X171351000Y-97751000D01*
G37*
G36*
X150520254Y-92987818D02*
G01*
X150893511Y-93142426D01*
X150893513Y-93142427D01*
X151229436Y-93366884D01*
X151515116Y-93652564D01*
X151739574Y-93988489D01*
X151894182Y-94361746D01*
X151973000Y-94757993D01*
X151973000Y-95162007D01*
X151894182Y-95558254D01*
X151739574Y-95931511D01*
X151739573Y-95931513D01*
X151515116Y-96267436D01*
X151229436Y-96553116D01*
X150893513Y-96777573D01*
X150893512Y-96777574D01*
X150893511Y-96777574D01*
X150520254Y-96932182D01*
X150124007Y-97011000D01*
X149719993Y-97011000D01*
X149323746Y-96932182D01*
X148950489Y-96777574D01*
X148950488Y-96777574D01*
X148950487Y-96777573D01*
X148614564Y-96553116D01*
X148328884Y-96267436D01*
X148104427Y-95931513D01*
X148104426Y-95931511D01*
X147949818Y-95558254D01*
X147871000Y-95162007D01*
X147871000Y-94757993D01*
X147949818Y-94361746D01*
X148104426Y-93988489D01*
X148328884Y-93652564D01*
X148614564Y-93366884D01*
X148950487Y-93142427D01*
X148950489Y-93142426D01*
X149323746Y-92987818D01*
X149719993Y-92909000D01*
X150124007Y-92909000D01*
X150520254Y-92987818D01*
G37*
G36*
X158851000Y-95451000D02*
G01*
X157199000Y-95451000D01*
X157199000Y-94049000D01*
X158851000Y-94049000D01*
X158851000Y-95451000D01*
G37*
G36*
X166801000Y-95451000D02*
G01*
X165149000Y-95451000D01*
X165149000Y-94049000D01*
X166801000Y-94049000D01*
X166801000Y-95451000D01*
G37*
G36*
X191325579Y-90919112D02*
G01*
X191451544Y-90944168D01*
X191462463Y-90948691D01*
X191807512Y-91091615D01*
X191807513Y-91091616D01*
X192127877Y-91305676D01*
X192400324Y-91578123D01*
X192521182Y-91759000D01*
X192614385Y-91898488D01*
X192761832Y-92254457D01*
X192837000Y-92632349D01*
X192837000Y-93017651D01*
X192812180Y-93142427D01*
X192761832Y-93395544D01*
X192700757Y-93542991D01*
X192614385Y-93751512D01*
X192614384Y-93751513D01*
X192400324Y-94071877D01*
X192127877Y-94344324D01*
X191913816Y-94487355D01*
X191807512Y-94558385D01*
X191598991Y-94644757D01*
X191451544Y-94705832D01*
X191325579Y-94730888D01*
X191073651Y-94781000D01*
X190688349Y-94781000D01*
X190436421Y-94730888D01*
X190310456Y-94705832D01*
X190163009Y-94644757D01*
X189954488Y-94558385D01*
X189848184Y-94487355D01*
X189634123Y-94344324D01*
X189361676Y-94071877D01*
X189147616Y-93751513D01*
X189147615Y-93751512D01*
X189061243Y-93542991D01*
X189000168Y-93395544D01*
X188949820Y-93142427D01*
X188925000Y-93017651D01*
X188925000Y-92632349D01*
X189000168Y-92254457D01*
X189147615Y-91898488D01*
X189240818Y-91759000D01*
X189361676Y-91578123D01*
X189634123Y-91305676D01*
X189954487Y-91091616D01*
X189954488Y-91091615D01*
X190299537Y-90948691D01*
X190310456Y-90944168D01*
X190436421Y-90919112D01*
X190688349Y-90869000D01*
X191073651Y-90869000D01*
X191325579Y-90919112D01*
G37*
G36*
X184975579Y-90919112D02*
G01*
X185101544Y-90944168D01*
X185112463Y-90948691D01*
X185457512Y-91091615D01*
X185457513Y-91091616D01*
X185777877Y-91305676D01*
X186050324Y-91578123D01*
X186171182Y-91759000D01*
X186264385Y-91898488D01*
X186411832Y-92254457D01*
X186487000Y-92632349D01*
X186487000Y-93017651D01*
X186462180Y-93142427D01*
X186411832Y-93395544D01*
X186350757Y-93542991D01*
X186264385Y-93751512D01*
X186264384Y-93751513D01*
X186050324Y-94071877D01*
X185777877Y-94344324D01*
X185563816Y-94487355D01*
X185457512Y-94558385D01*
X185248991Y-94644757D01*
X185101544Y-94705832D01*
X184975579Y-94730888D01*
X184723651Y-94781000D01*
X184338349Y-94781000D01*
X184086421Y-94730888D01*
X183960456Y-94705832D01*
X183813009Y-94644757D01*
X183604488Y-94558385D01*
X183498184Y-94487355D01*
X183284123Y-94344324D01*
X183011676Y-94071877D01*
X182797616Y-93751513D01*
X182797615Y-93751512D01*
X182711243Y-93542991D01*
X182650168Y-93395544D01*
X182599820Y-93142427D01*
X182575000Y-93017651D01*
X182575000Y-92632349D01*
X182650168Y-92254457D01*
X182797615Y-91898488D01*
X182890818Y-91759000D01*
X183011676Y-91578123D01*
X183284123Y-91305676D01*
X183604487Y-91091616D01*
X183604488Y-91091615D01*
X183949537Y-90948691D01*
X183960456Y-90944168D01*
X184086421Y-90919112D01*
X184338349Y-90869000D01*
X184723651Y-90869000D01*
X184975579Y-90919112D01*
G37*
G36*
X142699395Y-91795546D02*
G01*
X142872466Y-91867234D01*
X142872467Y-91867235D01*
X143028227Y-91971310D01*
X143160690Y-92103773D01*
X143160691Y-92103775D01*
X143264766Y-92259534D01*
X143336454Y-92432605D01*
X143373000Y-92616333D01*
X143373000Y-92803667D01*
X143336454Y-92987395D01*
X143264766Y-93160466D01*
X143264765Y-93160467D01*
X143160690Y-93316227D01*
X143028227Y-93448690D01*
X142949818Y-93501081D01*
X142872466Y-93552766D01*
X142699395Y-93624454D01*
X142515667Y-93661000D01*
X142328333Y-93661000D01*
X142144605Y-93624454D01*
X141971534Y-93552766D01*
X141894182Y-93501081D01*
X141815773Y-93448690D01*
X141683310Y-93316227D01*
X141579235Y-93160467D01*
X141579234Y-93160466D01*
X141507546Y-92987395D01*
X141471000Y-92803667D01*
X141471000Y-92616333D01*
X141507546Y-92432605D01*
X141579234Y-92259534D01*
X141683309Y-92103775D01*
X141683310Y-92103773D01*
X141815773Y-91971310D01*
X141971533Y-91867235D01*
X141971534Y-91867234D01*
X142144605Y-91795546D01*
X142328333Y-91759000D01*
X142515667Y-91759000D01*
X142699395Y-91795546D01*
G37*
G36*
X142699395Y-89295546D02*
G01*
X142872466Y-89367234D01*
X142905604Y-89389376D01*
X143028227Y-89471310D01*
X143160690Y-89603773D01*
X143160691Y-89603775D01*
X143264766Y-89759534D01*
X143336454Y-89932605D01*
X143373000Y-90116333D01*
X143373000Y-90303667D01*
X143336454Y-90487395D01*
X143264766Y-90660466D01*
X143241108Y-90695873D01*
X143160690Y-90816227D01*
X143028227Y-90948690D01*
X142949818Y-91001081D01*
X142872466Y-91052766D01*
X142699395Y-91124454D01*
X142515667Y-91161000D01*
X142328333Y-91161000D01*
X142144605Y-91124454D01*
X141971534Y-91052766D01*
X141894182Y-91001081D01*
X141815773Y-90948690D01*
X141683310Y-90816227D01*
X141602892Y-90695873D01*
X141579234Y-90660466D01*
X141507546Y-90487395D01*
X141471000Y-90303667D01*
X141471000Y-90116333D01*
X141507546Y-89932605D01*
X141579234Y-89759534D01*
X141683309Y-89603775D01*
X141683310Y-89603773D01*
X141815773Y-89471310D01*
X141938396Y-89389376D01*
X141971534Y-89367234D01*
X142144605Y-89295546D01*
X142328333Y-89259000D01*
X142515667Y-89259000D01*
X142699395Y-89295546D01*
G37*
G36*
X166775562Y-89228181D02*
G01*
X166810481Y-89238774D01*
X166842663Y-89255976D01*
X166870873Y-89279127D01*
X166894024Y-89307337D01*
X166911226Y-89339519D01*
X166921819Y-89374438D01*
X166926000Y-89416895D01*
X166926000Y-90558105D01*
X166921819Y-90600562D01*
X166911226Y-90635481D01*
X166894024Y-90667663D01*
X166870873Y-90695873D01*
X166842663Y-90719024D01*
X166810481Y-90736226D01*
X166775562Y-90746819D01*
X166733105Y-90751000D01*
X165266895Y-90751000D01*
X165224438Y-90746819D01*
X165189519Y-90736226D01*
X165157337Y-90719024D01*
X165129127Y-90695873D01*
X165105976Y-90667663D01*
X165088774Y-90635481D01*
X165078181Y-90600562D01*
X165074000Y-90558105D01*
X165074000Y-89416895D01*
X165078181Y-89374438D01*
X165088774Y-89339519D01*
X165105976Y-89307337D01*
X165129127Y-89279127D01*
X165157337Y-89255976D01*
X165189519Y-89238774D01*
X165224438Y-89228181D01*
X165266895Y-89224000D01*
X166733105Y-89224000D01*
X166775562Y-89228181D01*
G37*
G36*
X160697512Y-87495927D02*
G01*
X160846812Y-87525624D01*
X161010784Y-87593544D01*
X161158354Y-87692147D01*
X161283853Y-87817646D01*
X161382456Y-87965216D01*
X161450376Y-88129188D01*
X161485000Y-88303259D01*
X161485000Y-88480741D01*
X161450376Y-88654812D01*
X161382456Y-88818784D01*
X161283853Y-88966354D01*
X161158354Y-89091853D01*
X161010784Y-89190456D01*
X160846812Y-89258376D01*
X160697512Y-89288073D01*
X160672742Y-89293000D01*
X160495258Y-89293000D01*
X160470488Y-89288073D01*
X160321188Y-89258376D01*
X160157216Y-89190456D01*
X160009646Y-89091853D01*
X159884147Y-88966354D01*
X159785544Y-88818784D01*
X159717624Y-88654812D01*
X159683000Y-88480741D01*
X159683000Y-88303259D01*
X159717624Y-88129188D01*
X159785544Y-87965216D01*
X159884147Y-87817646D01*
X160009646Y-87692147D01*
X160157216Y-87593544D01*
X160321188Y-87525624D01*
X160470488Y-87495927D01*
X160495258Y-87491000D01*
X160672742Y-87491000D01*
X160697512Y-87495927D01*
G37*
G36*
X176725000Y-89293000D02*
G01*
X174923000Y-89293000D01*
X174923000Y-87491000D01*
X176725000Y-87491000D01*
X176725000Y-89293000D01*
G37*
G36*
X142699395Y-86795546D02*
G01*
X142872466Y-86867234D01*
X142872467Y-86867235D01*
X143028227Y-86971310D01*
X143160690Y-87103773D01*
X143160691Y-87103775D01*
X143264766Y-87259534D01*
X143336454Y-87432605D01*
X143373000Y-87616333D01*
X143373000Y-87803667D01*
X143336454Y-87987395D01*
X143264766Y-88160466D01*
X143264765Y-88160467D01*
X143160690Y-88316227D01*
X143028227Y-88448690D01*
X142949818Y-88501081D01*
X142872466Y-88552766D01*
X142699395Y-88624454D01*
X142515667Y-88661000D01*
X142328333Y-88661000D01*
X142144605Y-88624454D01*
X141971534Y-88552766D01*
X141894182Y-88501081D01*
X141815773Y-88448690D01*
X141683310Y-88316227D01*
X141579235Y-88160467D01*
X141579234Y-88160466D01*
X141507546Y-87987395D01*
X141471000Y-87803667D01*
X141471000Y-87616333D01*
X141507546Y-87432605D01*
X141579234Y-87259534D01*
X141683309Y-87103775D01*
X141683310Y-87103773D01*
X141815773Y-86971310D01*
X141971533Y-86867235D01*
X141971534Y-86867234D01*
X142144605Y-86795546D01*
X142328333Y-86759000D01*
X142515667Y-86759000D01*
X142699395Y-86795546D01*
G37*
G36*
X166775562Y-86253181D02*
G01*
X166810481Y-86263774D01*
X166842663Y-86280976D01*
X166870873Y-86304127D01*
X166894024Y-86332337D01*
X166911226Y-86364519D01*
X166921819Y-86399438D01*
X166926000Y-86441895D01*
X166926000Y-87583105D01*
X166921819Y-87625562D01*
X166911226Y-87660481D01*
X166894024Y-87692663D01*
X166870873Y-87720873D01*
X166842663Y-87744024D01*
X166810481Y-87761226D01*
X166775562Y-87771819D01*
X166733105Y-87776000D01*
X165266895Y-87776000D01*
X165224438Y-87771819D01*
X165189519Y-87761226D01*
X165157337Y-87744024D01*
X165129127Y-87720873D01*
X165105976Y-87692663D01*
X165088774Y-87660481D01*
X165078181Y-87625562D01*
X165074000Y-87583105D01*
X165074000Y-86441895D01*
X165078181Y-86399438D01*
X165088774Y-86364519D01*
X165105976Y-86332337D01*
X165129127Y-86304127D01*
X165157337Y-86280976D01*
X165189519Y-86263774D01*
X165224438Y-86253181D01*
X165266895Y-86249000D01*
X166733105Y-86249000D01*
X166775562Y-86253181D01*
G37*
G36*
X191325579Y-83769112D02*
G01*
X191451544Y-83794168D01*
X191598991Y-83855243D01*
X191807512Y-83941615D01*
X191807513Y-83941616D01*
X192127877Y-84155676D01*
X192400324Y-84428123D01*
X192440659Y-84488489D01*
X192614385Y-84748488D01*
X192661298Y-84861746D01*
X192761832Y-85104456D01*
X192837000Y-85482351D01*
X192837000Y-85867649D01*
X192761832Y-86245544D01*
X192700757Y-86392991D01*
X192614385Y-86601512D01*
X192543355Y-86707816D01*
X192400324Y-86921877D01*
X192127877Y-87194324D01*
X192003284Y-87277574D01*
X191807512Y-87408385D01*
X191608061Y-87491000D01*
X191451544Y-87555832D01*
X191325579Y-87580888D01*
X191073651Y-87631000D01*
X190688349Y-87631000D01*
X190436421Y-87580888D01*
X190310456Y-87555832D01*
X190153939Y-87491000D01*
X189954488Y-87408385D01*
X189758716Y-87277574D01*
X189634123Y-87194324D01*
X189361676Y-86921877D01*
X189218645Y-86707816D01*
X189147615Y-86601512D01*
X189061243Y-86392991D01*
X189000168Y-86245544D01*
X188925000Y-85867649D01*
X188925000Y-85482351D01*
X189000168Y-85104456D01*
X189100702Y-84861746D01*
X189147615Y-84748488D01*
X189321341Y-84488489D01*
X189361676Y-84428123D01*
X189634123Y-84155676D01*
X189954487Y-83941616D01*
X189954488Y-83941615D01*
X190163009Y-83855243D01*
X190310456Y-83794168D01*
X190436421Y-83769112D01*
X190688349Y-83719000D01*
X191073651Y-83719000D01*
X191325579Y-83769112D01*
G37*
G36*
X184975579Y-83769112D02*
G01*
X185101544Y-83794168D01*
X185248991Y-83855243D01*
X185457512Y-83941615D01*
X185457513Y-83941616D01*
X185777877Y-84155676D01*
X186050324Y-84428123D01*
X186090659Y-84488489D01*
X186264385Y-84748488D01*
X186311298Y-84861746D01*
X186411832Y-85104456D01*
X186487000Y-85482351D01*
X186487000Y-85867649D01*
X186411832Y-86245544D01*
X186350757Y-86392991D01*
X186264385Y-86601512D01*
X186193355Y-86707816D01*
X186050324Y-86921877D01*
X185777877Y-87194324D01*
X185653284Y-87277574D01*
X185457512Y-87408385D01*
X185258061Y-87491000D01*
X185101544Y-87555832D01*
X184975579Y-87580888D01*
X184723651Y-87631000D01*
X184338349Y-87631000D01*
X184086421Y-87580888D01*
X183960456Y-87555832D01*
X183803939Y-87491000D01*
X183604488Y-87408385D01*
X183408716Y-87277574D01*
X183284123Y-87194324D01*
X183011676Y-86921877D01*
X182868645Y-86707816D01*
X182797615Y-86601512D01*
X182711243Y-86392991D01*
X182650168Y-86245544D01*
X182575000Y-85867649D01*
X182575000Y-85482351D01*
X182650168Y-85104456D01*
X182750702Y-84861746D01*
X182797615Y-84748488D01*
X182971341Y-84488489D01*
X183011676Y-84428123D01*
X183284123Y-84155676D01*
X183604487Y-83941616D01*
X183604488Y-83941615D01*
X183813009Y-83855243D01*
X183960456Y-83794168D01*
X184086421Y-83769112D01*
X184338349Y-83719000D01*
X184723651Y-83719000D01*
X184975579Y-83769112D01*
G37*
G36*
X150520254Y-83487818D02*
G01*
X150893511Y-83642426D01*
X150893513Y-83642427D01*
X151229436Y-83866884D01*
X151515116Y-84152564D01*
X151699240Y-84428124D01*
X151739574Y-84488489D01*
X151894182Y-84861746D01*
X151973000Y-85257993D01*
X151973000Y-85662007D01*
X151894182Y-86058254D01*
X151741710Y-86426354D01*
X151739573Y-86431513D01*
X151515116Y-86767436D01*
X151229436Y-87053116D01*
X150893513Y-87277573D01*
X150893512Y-87277574D01*
X150893511Y-87277574D01*
X150520254Y-87432182D01*
X150124007Y-87511000D01*
X149719993Y-87511000D01*
X149323746Y-87432182D01*
X148950489Y-87277574D01*
X148950488Y-87277574D01*
X148950487Y-87277573D01*
X148614564Y-87053116D01*
X148328884Y-86767436D01*
X148104427Y-86431513D01*
X148102290Y-86426354D01*
X147949818Y-86058254D01*
X147871000Y-85662007D01*
X147871000Y-85257993D01*
X147949818Y-84861746D01*
X148104426Y-84488489D01*
X148144761Y-84428124D01*
X148328884Y-84152564D01*
X148614564Y-83866884D01*
X148950487Y-83642427D01*
X148950489Y-83642426D01*
X149323746Y-83487818D01*
X149719993Y-83409000D01*
X150124007Y-83409000D01*
X150520254Y-83487818D01*
G37*
G36*
X160697512Y-84955927D02*
G01*
X160846812Y-84985624D01*
X161010784Y-85053544D01*
X161158354Y-85152147D01*
X161283853Y-85277646D01*
X161382456Y-85425216D01*
X161450376Y-85589188D01*
X161485000Y-85763259D01*
X161485000Y-85940741D01*
X161450376Y-86114812D01*
X161382456Y-86278784D01*
X161283853Y-86426354D01*
X161158354Y-86551853D01*
X161010784Y-86650456D01*
X160846812Y-86718376D01*
X160697512Y-86748073D01*
X160672742Y-86753000D01*
X160495258Y-86753000D01*
X160470488Y-86748073D01*
X160321188Y-86718376D01*
X160157216Y-86650456D01*
X160009646Y-86551853D01*
X159884147Y-86426354D01*
X159785544Y-86278784D01*
X159717624Y-86114812D01*
X159683000Y-85940741D01*
X159683000Y-85763259D01*
X159717624Y-85589188D01*
X159785544Y-85425216D01*
X159884147Y-85277646D01*
X160009646Y-85152147D01*
X160157216Y-85053544D01*
X160321188Y-84985624D01*
X160470488Y-84955927D01*
X160495258Y-84951000D01*
X160672742Y-84951000D01*
X160697512Y-84955927D01*
G37*
G36*
X175937512Y-84955927D02*
G01*
X176086812Y-84985624D01*
X176250784Y-85053544D01*
X176398354Y-85152147D01*
X176523853Y-85277646D01*
X176622456Y-85425216D01*
X176690376Y-85589188D01*
X176725000Y-85763259D01*
X176725000Y-85940741D01*
X176690376Y-86114812D01*
X176622456Y-86278784D01*
X176523853Y-86426354D01*
X176398354Y-86551853D01*
X176250784Y-86650456D01*
X176086812Y-86718376D01*
X175937512Y-86748073D01*
X175912742Y-86753000D01*
X175735258Y-86753000D01*
X175710488Y-86748073D01*
X175561188Y-86718376D01*
X175397216Y-86650456D01*
X175249646Y-86551853D01*
X175124147Y-86426354D01*
X175025544Y-86278784D01*
X174957624Y-86114812D01*
X174923000Y-85940741D01*
X174923000Y-85763259D01*
X174957624Y-85589188D01*
X175025544Y-85425216D01*
X175124147Y-85277646D01*
X175249646Y-85152147D01*
X175397216Y-85053544D01*
X175561188Y-84985624D01*
X175710488Y-84955927D01*
X175735258Y-84951000D01*
X175912742Y-84951000D01*
X175937512Y-84955927D01*
G37*
G36*
X187947767Y-80683258D02*
G01*
X188239500Y-80741287D01*
X188377373Y-80798396D01*
X188572355Y-80879160D01*
X188572356Y-80879161D01*
X188871920Y-81079323D01*
X189126677Y-81334080D01*
X189134878Y-81346354D01*
X189326840Y-81633645D01*
X189464713Y-81966501D01*
X189535000Y-82319858D01*
X189535000Y-82680142D01*
X189499857Y-82856820D01*
X189464713Y-83033500D01*
X189458214Y-83049189D01*
X189326840Y-83366355D01*
X189326839Y-83366356D01*
X189126677Y-83665920D01*
X188871920Y-83920677D01*
X188735467Y-84011852D01*
X188572355Y-84120840D01*
X188433450Y-84178376D01*
X188239500Y-84258713D01*
X188062821Y-84293856D01*
X187886142Y-84329000D01*
X187525858Y-84329000D01*
X187349180Y-84293857D01*
X187172500Y-84258713D01*
X186978550Y-84178376D01*
X186839645Y-84120840D01*
X186676533Y-84011852D01*
X186540080Y-83920677D01*
X186285323Y-83665920D01*
X186085161Y-83366356D01*
X186085160Y-83366355D01*
X185953786Y-83049189D01*
X185947287Y-83033500D01*
X185912143Y-82856820D01*
X185877000Y-82680142D01*
X185877000Y-82319858D01*
X185947287Y-81966501D01*
X186085160Y-81633645D01*
X186277122Y-81346354D01*
X186285323Y-81334080D01*
X186540080Y-81079323D01*
X186839644Y-80879161D01*
X186839645Y-80879160D01*
X187034627Y-80798396D01*
X187172500Y-80741287D01*
X187464233Y-80683258D01*
X187525858Y-80671000D01*
X187886142Y-80671000D01*
X187947767Y-80683258D01*
G37*
G36*
X175937512Y-82415927D02*
G01*
X176086812Y-82445624D01*
X176250784Y-82513544D01*
X176398354Y-82612147D01*
X176523853Y-82737646D01*
X176622456Y-82885216D01*
X176690376Y-83049188D01*
X176725000Y-83223259D01*
X176725000Y-83400741D01*
X176690376Y-83574812D01*
X176622456Y-83738784D01*
X176523853Y-83886354D01*
X176398354Y-84011853D01*
X176250784Y-84110456D01*
X176086812Y-84178376D01*
X175937512Y-84208073D01*
X175912742Y-84213000D01*
X175735258Y-84213000D01*
X175710488Y-84208073D01*
X175561188Y-84178376D01*
X175397216Y-84110456D01*
X175249646Y-84011853D01*
X175124147Y-83886354D01*
X175025544Y-83738784D01*
X174957624Y-83574812D01*
X174923000Y-83400741D01*
X174923000Y-83223259D01*
X174957624Y-83049188D01*
X175025544Y-82885216D01*
X175124147Y-82737646D01*
X175249646Y-82612147D01*
X175397216Y-82513544D01*
X175561188Y-82445624D01*
X175710488Y-82415927D01*
X175735258Y-82411000D01*
X175912742Y-82411000D01*
X175937512Y-82415927D01*
G37*
G36*
X160697512Y-82415927D02*
G01*
X160846812Y-82445624D01*
X161010784Y-82513544D01*
X161158354Y-82612147D01*
X161283853Y-82737646D01*
X161382456Y-82885216D01*
X161450376Y-83049188D01*
X161485000Y-83223259D01*
X161485000Y-83400741D01*
X161450376Y-83574812D01*
X161382456Y-83738784D01*
X161283853Y-83886354D01*
X161158354Y-84011853D01*
X161010784Y-84110456D01*
X160846812Y-84178376D01*
X160697512Y-84208073D01*
X160672742Y-84213000D01*
X160495258Y-84213000D01*
X160470488Y-84208073D01*
X160321188Y-84178376D01*
X160157216Y-84110456D01*
X160009646Y-84011853D01*
X159884147Y-83886354D01*
X159785544Y-83738784D01*
X159717624Y-83574812D01*
X159683000Y-83400741D01*
X159683000Y-83223259D01*
X159717624Y-83049188D01*
X159785544Y-82885216D01*
X159884147Y-82737646D01*
X160009646Y-82612147D01*
X160157216Y-82513544D01*
X160321188Y-82445624D01*
X160470488Y-82415927D01*
X160495258Y-82411000D01*
X160672742Y-82411000D01*
X160697512Y-82415927D01*
G37*
G36*
X160697512Y-79875927D02*
G01*
X160846812Y-79905624D01*
X161010784Y-79973544D01*
X161158354Y-80072147D01*
X161283853Y-80197646D01*
X161382456Y-80345216D01*
X161450376Y-80509188D01*
X161485000Y-80683259D01*
X161485000Y-80860741D01*
X161450376Y-81034812D01*
X161382456Y-81198784D01*
X161283853Y-81346354D01*
X161158354Y-81471853D01*
X161010784Y-81570456D01*
X160846812Y-81638376D01*
X160697512Y-81668073D01*
X160672742Y-81673000D01*
X160495258Y-81673000D01*
X160470488Y-81668073D01*
X160321188Y-81638376D01*
X160157216Y-81570456D01*
X160009646Y-81471853D01*
X159884147Y-81346354D01*
X159785544Y-81198784D01*
X159717624Y-81034812D01*
X159683000Y-80860741D01*
X159683000Y-80683259D01*
X159717624Y-80509188D01*
X159785544Y-80345216D01*
X159884147Y-80197646D01*
X160009646Y-80072147D01*
X160157216Y-79973544D01*
X160321188Y-79905624D01*
X160470488Y-79875927D01*
X160495258Y-79871000D01*
X160672742Y-79871000D01*
X160697512Y-79875927D01*
G37*
G36*
X175937512Y-79875927D02*
G01*
X176086812Y-79905624D01*
X176250784Y-79973544D01*
X176398354Y-80072147D01*
X176523853Y-80197646D01*
X176622456Y-80345216D01*
X176690376Y-80509188D01*
X176725000Y-80683259D01*
X176725000Y-80860741D01*
X176690376Y-81034812D01*
X176622456Y-81198784D01*
X176523853Y-81346354D01*
X176398354Y-81471853D01*
X176250784Y-81570456D01*
X176086812Y-81638376D01*
X175937512Y-81668073D01*
X175912742Y-81673000D01*
X175735258Y-81673000D01*
X175710488Y-81668073D01*
X175561188Y-81638376D01*
X175397216Y-81570456D01*
X175249646Y-81471853D01*
X175124147Y-81346354D01*
X175025544Y-81198784D01*
X174957624Y-81034812D01*
X174923000Y-80860741D01*
X174923000Y-80683259D01*
X174957624Y-80509188D01*
X175025544Y-80345216D01*
X175124147Y-80197646D01*
X175249646Y-80072147D01*
X175397216Y-79973544D01*
X175561188Y-79905624D01*
X175710488Y-79875927D01*
X175735258Y-79871000D01*
X175912742Y-79871000D01*
X175937512Y-79875927D01*
G37*
G36*
X184975579Y-77419112D02*
G01*
X185101544Y-77444168D01*
X185248991Y-77505243D01*
X185457512Y-77591615D01*
X185457513Y-77591616D01*
X185777877Y-77805676D01*
X186050324Y-78078123D01*
X186093846Y-78143259D01*
X186264385Y-78398488D01*
X186411832Y-78754457D01*
X186462662Y-79009993D01*
X186487000Y-79132351D01*
X186487000Y-79517649D01*
X186411832Y-79895544D01*
X186407656Y-79905625D01*
X186264385Y-80251512D01*
X186264384Y-80251513D01*
X186050324Y-80571877D01*
X185777877Y-80844324D01*
X185563816Y-80987355D01*
X185457512Y-81058385D01*
X185248991Y-81144757D01*
X185101544Y-81205832D01*
X184975579Y-81230888D01*
X184723651Y-81281000D01*
X184338349Y-81281000D01*
X184086421Y-81230888D01*
X183960456Y-81205832D01*
X183813009Y-81144757D01*
X183604488Y-81058385D01*
X183498184Y-80987355D01*
X183284123Y-80844324D01*
X183011676Y-80571877D01*
X182797616Y-80251513D01*
X182797615Y-80251512D01*
X182654344Y-79905625D01*
X182650168Y-79895544D01*
X182575000Y-79517649D01*
X182575000Y-79132351D01*
X182599339Y-79009993D01*
X182650168Y-78754457D01*
X182797615Y-78398488D01*
X182968154Y-78143259D01*
X183011676Y-78078123D01*
X183284123Y-77805676D01*
X183604487Y-77591616D01*
X183604488Y-77591615D01*
X183813009Y-77505243D01*
X183960456Y-77444168D01*
X184086421Y-77419112D01*
X184338349Y-77369000D01*
X184723651Y-77369000D01*
X184975579Y-77419112D01*
G37*
G36*
X191325579Y-77419112D02*
G01*
X191451544Y-77444168D01*
X191598991Y-77505243D01*
X191807512Y-77591615D01*
X191807513Y-77591616D01*
X192127877Y-77805676D01*
X192400324Y-78078123D01*
X192443846Y-78143259D01*
X192614385Y-78398488D01*
X192761832Y-78754457D01*
X192812662Y-79009993D01*
X192837000Y-79132351D01*
X192837000Y-79517649D01*
X192761832Y-79895544D01*
X192757656Y-79905625D01*
X192614385Y-80251512D01*
X192614384Y-80251513D01*
X192400324Y-80571877D01*
X192127877Y-80844324D01*
X191913816Y-80987355D01*
X191807512Y-81058385D01*
X191598991Y-81144757D01*
X191451544Y-81205832D01*
X191325579Y-81230888D01*
X191073651Y-81281000D01*
X190688349Y-81281000D01*
X190436421Y-81230888D01*
X190310456Y-81205832D01*
X190163009Y-81144757D01*
X189954488Y-81058385D01*
X189848184Y-80987355D01*
X189634123Y-80844324D01*
X189361676Y-80571877D01*
X189147616Y-80251513D01*
X189147615Y-80251512D01*
X189004344Y-79905625D01*
X189000168Y-79895544D01*
X188925000Y-79517649D01*
X188925000Y-79132351D01*
X188949339Y-79009993D01*
X189000168Y-78754457D01*
X189147615Y-78398488D01*
X189318154Y-78143259D01*
X189361676Y-78078123D01*
X189634123Y-77805676D01*
X189954487Y-77591616D01*
X189954488Y-77591615D01*
X190163009Y-77505243D01*
X190310456Y-77444168D01*
X190436421Y-77419112D01*
X190688349Y-77369000D01*
X191073651Y-77369000D01*
X191325579Y-77419112D01*
G37*
G36*
X150774254Y-77239818D02*
G01*
X151077979Y-77365625D01*
X151147513Y-77394427D01*
X151483436Y-77618884D01*
X151769116Y-77904564D01*
X151928607Y-78143258D01*
X151993574Y-78240489D01*
X152148182Y-78613746D01*
X152227000Y-79009993D01*
X152227000Y-79414007D01*
X152148182Y-79810254D01*
X152108678Y-79905624D01*
X151993573Y-80183513D01*
X151769116Y-80519436D01*
X151483436Y-80805116D01*
X151147513Y-81029573D01*
X151147512Y-81029574D01*
X151147511Y-81029574D01*
X150774254Y-81184182D01*
X150378007Y-81263000D01*
X149973993Y-81263000D01*
X149577746Y-81184182D01*
X149204489Y-81029574D01*
X149204488Y-81029574D01*
X149204487Y-81029573D01*
X148868564Y-80805116D01*
X148582884Y-80519436D01*
X148358427Y-80183513D01*
X148243322Y-79905624D01*
X148203818Y-79810254D01*
X148125000Y-79414007D01*
X148125000Y-79009993D01*
X148203818Y-78613746D01*
X148358426Y-78240489D01*
X148423394Y-78143258D01*
X148582884Y-77904564D01*
X148868564Y-77618884D01*
X149204487Y-77394427D01*
X149274021Y-77365625D01*
X149577746Y-77239818D01*
X149973993Y-77161000D01*
X150378007Y-77161000D01*
X150774254Y-77239818D01*
G37*
G36*
X160697512Y-77335927D02*
G01*
X160846812Y-77365624D01*
X161010784Y-77433544D01*
X161158354Y-77532147D01*
X161283853Y-77657646D01*
X161382456Y-77805216D01*
X161450376Y-77969188D01*
X161485000Y-78143259D01*
X161485000Y-78320741D01*
X161450376Y-78494812D01*
X161382456Y-78658784D01*
X161283853Y-78806354D01*
X161158354Y-78931853D01*
X161010784Y-79030456D01*
X160846812Y-79098376D01*
X160697512Y-79128073D01*
X160672742Y-79133000D01*
X160495258Y-79133000D01*
X160470488Y-79128073D01*
X160321188Y-79098376D01*
X160157216Y-79030456D01*
X160009646Y-78931853D01*
X159884147Y-78806354D01*
X159785544Y-78658784D01*
X159717624Y-78494812D01*
X159683000Y-78320741D01*
X159683000Y-78143259D01*
X159717624Y-77969188D01*
X159785544Y-77805216D01*
X159884147Y-77657646D01*
X160009646Y-77532147D01*
X160157216Y-77433544D01*
X160321188Y-77365624D01*
X160470488Y-77335927D01*
X160495258Y-77331000D01*
X160672742Y-77331000D01*
X160697512Y-77335927D01*
G37*
G36*
X175937512Y-77335927D02*
G01*
X176086812Y-77365624D01*
X176250784Y-77433544D01*
X176398354Y-77532147D01*
X176523853Y-77657646D01*
X176622456Y-77805216D01*
X176690376Y-77969188D01*
X176725000Y-78143259D01*
X176725000Y-78320741D01*
X176690376Y-78494812D01*
X176622456Y-78658784D01*
X176523853Y-78806354D01*
X176398354Y-78931853D01*
X176250784Y-79030456D01*
X176086812Y-79098376D01*
X175937512Y-79128073D01*
X175912742Y-79133000D01*
X175735258Y-79133000D01*
X175710488Y-79128073D01*
X175561188Y-79098376D01*
X175397216Y-79030456D01*
X175249646Y-78931853D01*
X175124147Y-78806354D01*
X175025544Y-78658784D01*
X174957624Y-78494812D01*
X174923000Y-78320741D01*
X174923000Y-78143259D01*
X174957624Y-77969188D01*
X175025544Y-77805216D01*
X175124147Y-77657646D01*
X175249646Y-77532147D01*
X175397216Y-77433544D01*
X175561188Y-77365624D01*
X175710488Y-77335927D01*
X175735258Y-77331000D01*
X175912742Y-77331000D01*
X175937512Y-77335927D01*
G37*
G36*
X142953395Y-76047546D02*
G01*
X143126466Y-76119234D01*
X143126467Y-76119235D01*
X143282227Y-76223310D01*
X143414690Y-76355773D01*
X143414691Y-76355775D01*
X143518766Y-76511534D01*
X143590454Y-76684605D01*
X143627000Y-76868333D01*
X143627000Y-77055667D01*
X143590454Y-77239395D01*
X143518766Y-77412466D01*
X143518765Y-77412467D01*
X143414690Y-77568227D01*
X143282227Y-77700690D01*
X143203818Y-77753081D01*
X143126466Y-77804766D01*
X142953395Y-77876454D01*
X142769667Y-77913000D01*
X142582333Y-77913000D01*
X142398605Y-77876454D01*
X142225534Y-77804766D01*
X142148182Y-77753081D01*
X142069773Y-77700690D01*
X141937310Y-77568227D01*
X141833235Y-77412467D01*
X141833234Y-77412466D01*
X141761546Y-77239395D01*
X141725000Y-77055667D01*
X141725000Y-76868333D01*
X141761546Y-76684605D01*
X141833234Y-76511534D01*
X141937309Y-76355775D01*
X141937310Y-76355773D01*
X142069773Y-76223310D01*
X142225533Y-76119235D01*
X142225534Y-76119234D01*
X142398605Y-76047546D01*
X142582333Y-76011000D01*
X142769667Y-76011000D01*
X142953395Y-76047546D01*
G37*
G36*
X175937512Y-74795927D02*
G01*
X176086812Y-74825624D01*
X176250784Y-74893544D01*
X176398354Y-74992147D01*
X176523853Y-75117646D01*
X176622456Y-75265216D01*
X176690376Y-75429188D01*
X176725000Y-75603259D01*
X176725000Y-75780741D01*
X176690376Y-75954812D01*
X176622456Y-76118784D01*
X176523853Y-76266354D01*
X176398354Y-76391853D01*
X176250784Y-76490456D01*
X176086812Y-76558376D01*
X175937512Y-76588073D01*
X175912742Y-76593000D01*
X175735258Y-76593000D01*
X175710488Y-76588073D01*
X175561188Y-76558376D01*
X175397216Y-76490456D01*
X175249646Y-76391853D01*
X175124147Y-76266354D01*
X175025544Y-76118784D01*
X174957624Y-75954812D01*
X174923000Y-75780741D01*
X174923000Y-75603259D01*
X174957624Y-75429188D01*
X175025544Y-75265216D01*
X175124147Y-75117646D01*
X175249646Y-74992147D01*
X175397216Y-74893544D01*
X175561188Y-74825624D01*
X175710488Y-74795927D01*
X175735258Y-74791000D01*
X175912742Y-74791000D01*
X175937512Y-74795927D01*
G37*
G36*
X160697512Y-74795927D02*
G01*
X160846812Y-74825624D01*
X161010784Y-74893544D01*
X161158354Y-74992147D01*
X161283853Y-75117646D01*
X161382456Y-75265216D01*
X161450376Y-75429188D01*
X161485000Y-75603259D01*
X161485000Y-75780741D01*
X161450376Y-75954812D01*
X161382456Y-76118784D01*
X161283853Y-76266354D01*
X161158354Y-76391853D01*
X161010784Y-76490456D01*
X160846812Y-76558376D01*
X160697512Y-76588073D01*
X160672742Y-76593000D01*
X160495258Y-76593000D01*
X160470488Y-76588073D01*
X160321188Y-76558376D01*
X160157216Y-76490456D01*
X160009646Y-76391853D01*
X159884147Y-76266354D01*
X159785544Y-76118784D01*
X159717624Y-75954812D01*
X159683000Y-75780741D01*
X159683000Y-75603259D01*
X159717624Y-75429188D01*
X159785544Y-75265216D01*
X159884147Y-75117646D01*
X160009646Y-74992147D01*
X160157216Y-74893544D01*
X160321188Y-74825624D01*
X160470488Y-74795927D01*
X160495258Y-74791000D01*
X160672742Y-74791000D01*
X160697512Y-74795927D01*
G37*
G36*
X142953395Y-73547546D02*
G01*
X143126466Y-73619234D01*
X143126467Y-73619235D01*
X143282227Y-73723310D01*
X143414690Y-73855773D01*
X143414691Y-73855775D01*
X143518766Y-74011534D01*
X143590454Y-74184605D01*
X143627000Y-74368333D01*
X143627000Y-74555667D01*
X143590454Y-74739395D01*
X143518766Y-74912466D01*
X143518765Y-74912467D01*
X143414690Y-75068227D01*
X143282227Y-75200690D01*
X143203818Y-75253081D01*
X143126466Y-75304766D01*
X142953395Y-75376454D01*
X142769667Y-75413000D01*
X142582333Y-75413000D01*
X142398605Y-75376454D01*
X142225534Y-75304766D01*
X142148182Y-75253081D01*
X142069773Y-75200690D01*
X141937310Y-75068227D01*
X141833235Y-74912467D01*
X141833234Y-74912466D01*
X141761546Y-74739395D01*
X141725000Y-74555667D01*
X141725000Y-74368333D01*
X141761546Y-74184605D01*
X141833234Y-74011534D01*
X141937309Y-73855775D01*
X141937310Y-73855773D01*
X142069773Y-73723310D01*
X142225533Y-73619235D01*
X142225534Y-73619234D01*
X142398605Y-73547546D01*
X142582333Y-73511000D01*
X142769667Y-73511000D01*
X142953395Y-73547546D01*
G37*
G36*
X175937512Y-72255927D02*
G01*
X176086812Y-72285624D01*
X176250784Y-72353544D01*
X176398354Y-72452147D01*
X176523853Y-72577646D01*
X176622456Y-72725216D01*
X176690376Y-72889188D01*
X176725000Y-73063259D01*
X176725000Y-73240741D01*
X176690376Y-73414812D01*
X176622456Y-73578784D01*
X176523853Y-73726354D01*
X176398354Y-73851853D01*
X176250784Y-73950456D01*
X176086812Y-74018376D01*
X175937512Y-74048073D01*
X175912742Y-74053000D01*
X175735258Y-74053000D01*
X175710488Y-74048073D01*
X175561188Y-74018376D01*
X175397216Y-73950456D01*
X175249646Y-73851853D01*
X175124147Y-73726354D01*
X175025544Y-73578784D01*
X174957624Y-73414812D01*
X174923000Y-73240741D01*
X174923000Y-73063259D01*
X174957624Y-72889188D01*
X175025544Y-72725216D01*
X175124147Y-72577646D01*
X175249646Y-72452147D01*
X175397216Y-72353544D01*
X175561188Y-72285624D01*
X175710488Y-72255927D01*
X175735258Y-72251000D01*
X175912742Y-72251000D01*
X175937512Y-72255927D01*
G37*
G36*
X160697512Y-72255927D02*
G01*
X160846812Y-72285624D01*
X161010784Y-72353544D01*
X161158354Y-72452147D01*
X161283853Y-72577646D01*
X161382456Y-72725216D01*
X161450376Y-72889188D01*
X161485000Y-73063259D01*
X161485000Y-73240741D01*
X161450376Y-73414812D01*
X161382456Y-73578784D01*
X161283853Y-73726354D01*
X161158354Y-73851853D01*
X161010784Y-73950456D01*
X160846812Y-74018376D01*
X160697512Y-74048073D01*
X160672742Y-74053000D01*
X160495258Y-74053000D01*
X160470488Y-74048073D01*
X160321188Y-74018376D01*
X160157216Y-73950456D01*
X160009646Y-73851853D01*
X159884147Y-73726354D01*
X159785544Y-73578784D01*
X159717624Y-73414812D01*
X159683000Y-73240741D01*
X159683000Y-73063259D01*
X159717624Y-72889188D01*
X159785544Y-72725216D01*
X159884147Y-72577646D01*
X160009646Y-72452147D01*
X160157216Y-72353544D01*
X160321188Y-72285624D01*
X160470488Y-72255927D01*
X160495258Y-72251000D01*
X160672742Y-72251000D01*
X160697512Y-72255927D01*
G37*
G36*
X191325579Y-69769112D02*
G01*
X191451544Y-69794168D01*
X191598991Y-69855243D01*
X191807512Y-69941615D01*
X191807513Y-69941616D01*
X192127877Y-70155676D01*
X192400324Y-70428123D01*
X192543355Y-70642184D01*
X192614385Y-70748488D01*
X192666710Y-70874812D01*
X192761832Y-71104456D01*
X192785473Y-71223309D01*
X192837000Y-71482349D01*
X192837000Y-71867651D01*
X192761832Y-72245543D01*
X192614385Y-72601512D01*
X192543355Y-72707816D01*
X192400324Y-72921877D01*
X192127877Y-73194324D01*
X192058407Y-73240742D01*
X191807512Y-73408385D01*
X191598991Y-73494757D01*
X191451544Y-73555832D01*
X191325579Y-73580888D01*
X191073651Y-73631000D01*
X190688349Y-73631000D01*
X190436421Y-73580888D01*
X190310456Y-73555832D01*
X190163009Y-73494757D01*
X189954488Y-73408385D01*
X189703593Y-73240742D01*
X189634123Y-73194324D01*
X189361676Y-72921877D01*
X189218645Y-72707816D01*
X189147615Y-72601512D01*
X189000168Y-72245543D01*
X188925000Y-71867651D01*
X188925000Y-71482349D01*
X188976527Y-71223309D01*
X189000168Y-71104456D01*
X189095290Y-70874812D01*
X189147615Y-70748488D01*
X189218645Y-70642184D01*
X189361676Y-70428123D01*
X189634123Y-70155676D01*
X189954487Y-69941616D01*
X189954488Y-69941615D01*
X190163009Y-69855243D01*
X190310456Y-69794168D01*
X190436421Y-69769112D01*
X190688349Y-69719000D01*
X191073651Y-69719000D01*
X191325579Y-69769112D01*
G37*
G36*
X184975579Y-69769112D02*
G01*
X185101544Y-69794168D01*
X185248991Y-69855243D01*
X185457512Y-69941615D01*
X185457513Y-69941616D01*
X185777877Y-70155676D01*
X186050324Y-70428123D01*
X186193355Y-70642184D01*
X186264385Y-70748488D01*
X186316710Y-70874812D01*
X186411832Y-71104456D01*
X186435473Y-71223309D01*
X186487000Y-71482349D01*
X186487000Y-71867651D01*
X186411832Y-72245543D01*
X186264385Y-72601512D01*
X186193355Y-72707816D01*
X186050324Y-72921877D01*
X185777877Y-73194324D01*
X185708407Y-73240742D01*
X185457512Y-73408385D01*
X185248991Y-73494757D01*
X185101544Y-73555832D01*
X184975579Y-73580888D01*
X184723651Y-73631000D01*
X184338349Y-73631000D01*
X184086421Y-73580888D01*
X183960456Y-73555832D01*
X183813009Y-73494757D01*
X183604488Y-73408385D01*
X183353593Y-73240742D01*
X183284123Y-73194324D01*
X183011676Y-72921877D01*
X182868645Y-72707816D01*
X182797615Y-72601512D01*
X182650168Y-72245543D01*
X182575000Y-71867651D01*
X182575000Y-71482349D01*
X182626527Y-71223309D01*
X182650168Y-71104456D01*
X182745290Y-70874812D01*
X182797615Y-70748488D01*
X182868645Y-70642184D01*
X183011676Y-70428123D01*
X183284123Y-70155676D01*
X183604487Y-69941616D01*
X183604488Y-69941615D01*
X183813009Y-69855243D01*
X183960456Y-69794168D01*
X184086421Y-69769112D01*
X184338349Y-69719000D01*
X184723651Y-69719000D01*
X184975579Y-69769112D01*
G37*
G36*
X142953395Y-71047546D02*
G01*
X143126466Y-71119234D01*
X143126467Y-71119235D01*
X143282227Y-71223310D01*
X143414690Y-71355773D01*
X143414691Y-71355775D01*
X143518766Y-71511534D01*
X143590454Y-71684605D01*
X143627000Y-71868333D01*
X143627000Y-72055667D01*
X143590454Y-72239395D01*
X143518766Y-72412466D01*
X143518765Y-72412467D01*
X143414690Y-72568227D01*
X143282227Y-72700690D01*
X143245521Y-72725216D01*
X143126466Y-72804766D01*
X142953395Y-72876454D01*
X142769667Y-72913000D01*
X142582333Y-72913000D01*
X142398605Y-72876454D01*
X142225534Y-72804766D01*
X142106479Y-72725216D01*
X142069773Y-72700690D01*
X141937310Y-72568227D01*
X141833235Y-72412467D01*
X141833234Y-72412466D01*
X141761546Y-72239395D01*
X141725000Y-72055667D01*
X141725000Y-71868333D01*
X141761546Y-71684605D01*
X141833234Y-71511534D01*
X141937309Y-71355775D01*
X141937310Y-71355773D01*
X142069773Y-71223310D01*
X142225533Y-71119235D01*
X142225534Y-71119234D01*
X142398605Y-71047546D01*
X142582333Y-71011000D01*
X142769667Y-71011000D01*
X142953395Y-71047546D01*
G37*
G36*
X150774254Y-67739818D02*
G01*
X151147511Y-67894426D01*
X151147513Y-67894427D01*
X151483436Y-68118884D01*
X151769116Y-68404564D01*
X151953252Y-68680142D01*
X151993574Y-68740489D01*
X152148182Y-69113746D01*
X152227000Y-69509993D01*
X152227000Y-69914007D01*
X152148182Y-70310254D01*
X151993574Y-70683511D01*
X151993573Y-70683513D01*
X151769116Y-71019436D01*
X151483436Y-71305116D01*
X151147513Y-71529573D01*
X151147512Y-71529574D01*
X151147511Y-71529574D01*
X150774254Y-71684182D01*
X150378007Y-71763000D01*
X149973993Y-71763000D01*
X149577746Y-71684182D01*
X149204489Y-71529574D01*
X149204488Y-71529574D01*
X149204487Y-71529573D01*
X148868564Y-71305116D01*
X148582884Y-71019436D01*
X148358427Y-70683513D01*
X148358426Y-70683511D01*
X148203818Y-70310254D01*
X148125000Y-69914007D01*
X148125000Y-69509993D01*
X148203818Y-69113746D01*
X148358426Y-68740489D01*
X148398749Y-68680142D01*
X148582884Y-68404564D01*
X148868564Y-68118884D01*
X149204487Y-67894427D01*
X149204489Y-67894426D01*
X149577746Y-67739818D01*
X149973993Y-67661000D01*
X150378007Y-67661000D01*
X150774254Y-67739818D01*
G37*
G36*
X175937512Y-69715927D02*
G01*
X176086812Y-69745624D01*
X176250784Y-69813544D01*
X176398354Y-69912147D01*
X176523853Y-70037646D01*
X176622456Y-70185216D01*
X176690376Y-70349188D01*
X176725000Y-70523259D01*
X176725000Y-70700741D01*
X176690376Y-70874812D01*
X176622456Y-71038784D01*
X176523853Y-71186354D01*
X176398354Y-71311853D01*
X176250784Y-71410456D01*
X176086812Y-71478376D01*
X175937512Y-71508073D01*
X175912742Y-71513000D01*
X175735258Y-71513000D01*
X175710488Y-71508073D01*
X175561188Y-71478376D01*
X175397216Y-71410456D01*
X175249646Y-71311853D01*
X175124147Y-71186354D01*
X175025544Y-71038784D01*
X174957624Y-70874812D01*
X174923000Y-70700741D01*
X174923000Y-70523259D01*
X174957624Y-70349188D01*
X175025544Y-70185216D01*
X175124147Y-70037646D01*
X175249646Y-69912147D01*
X175397216Y-69813544D01*
X175561188Y-69745624D01*
X175710488Y-69715927D01*
X175735258Y-69711000D01*
X175912742Y-69711000D01*
X175937512Y-69715927D01*
G37*
G36*
X160697512Y-69715927D02*
G01*
X160846812Y-69745624D01*
X161010784Y-69813544D01*
X161158354Y-69912147D01*
X161283853Y-70037646D01*
X161382456Y-70185216D01*
X161450376Y-70349188D01*
X161485000Y-70523259D01*
X161485000Y-70700741D01*
X161450376Y-70874812D01*
X161382456Y-71038784D01*
X161283853Y-71186354D01*
X161158354Y-71311853D01*
X161010784Y-71410456D01*
X160846812Y-71478376D01*
X160697512Y-71508073D01*
X160672742Y-71513000D01*
X160495258Y-71513000D01*
X160470488Y-71508073D01*
X160321188Y-71478376D01*
X160157216Y-71410456D01*
X160009646Y-71311853D01*
X159884147Y-71186354D01*
X159785544Y-71038784D01*
X159717624Y-70874812D01*
X159683000Y-70700741D01*
X159683000Y-70523259D01*
X159717624Y-70349188D01*
X159785544Y-70185216D01*
X159884147Y-70037646D01*
X160009646Y-69912147D01*
X160157216Y-69813544D01*
X160321188Y-69745624D01*
X160470488Y-69715927D01*
X160495258Y-69711000D01*
X160672742Y-69711000D01*
X160697512Y-69715927D01*
G37*
G36*
X188062821Y-66706144D02*
G01*
X188239500Y-66741287D01*
X188377373Y-66798396D01*
X188572355Y-66879160D01*
X188572356Y-66879161D01*
X188871920Y-67079323D01*
X189126677Y-67334080D01*
X189152113Y-67372148D01*
X189326840Y-67633645D01*
X189399552Y-67809188D01*
X189464713Y-67966500D01*
X189495024Y-68118884D01*
X189535000Y-68319858D01*
X189535000Y-68680142D01*
X189464713Y-69033499D01*
X189326840Y-69366355D01*
X189326839Y-69366356D01*
X189126677Y-69665920D01*
X188871920Y-69920677D01*
X188721120Y-70021438D01*
X188572355Y-70120840D01*
X188416937Y-70185216D01*
X188239500Y-70258713D01*
X188062820Y-70293857D01*
X187886142Y-70329000D01*
X187525858Y-70329000D01*
X187349180Y-70293857D01*
X187172500Y-70258713D01*
X186995063Y-70185216D01*
X186839645Y-70120840D01*
X186690880Y-70021438D01*
X186540080Y-69920677D01*
X186285323Y-69665920D01*
X186085161Y-69366356D01*
X186085160Y-69366355D01*
X185947287Y-69033499D01*
X185877000Y-68680142D01*
X185877000Y-68319858D01*
X185916976Y-68118884D01*
X185947287Y-67966500D01*
X186012448Y-67809188D01*
X186085160Y-67633645D01*
X186259887Y-67372148D01*
X186285323Y-67334080D01*
X186540080Y-67079323D01*
X186839644Y-66879161D01*
X186839645Y-66879160D01*
X187034627Y-66798396D01*
X187172500Y-66741287D01*
X187349179Y-66706144D01*
X187525858Y-66671000D01*
X187886142Y-66671000D01*
X188062821Y-66706144D01*
G37*
G36*
X175937512Y-67175927D02*
G01*
X176086812Y-67205624D01*
X176250784Y-67273544D01*
X176398354Y-67372147D01*
X176523853Y-67497646D01*
X176622456Y-67645216D01*
X176690376Y-67809188D01*
X176725000Y-67983259D01*
X176725000Y-68160741D01*
X176690376Y-68334812D01*
X176622456Y-68498784D01*
X176523853Y-68646354D01*
X176398354Y-68771853D01*
X176250784Y-68870456D01*
X176086812Y-68938376D01*
X175937512Y-68968073D01*
X175912742Y-68973000D01*
X175735258Y-68973000D01*
X175710488Y-68968073D01*
X175561188Y-68938376D01*
X175397216Y-68870456D01*
X175249646Y-68771853D01*
X175124147Y-68646354D01*
X175025544Y-68498784D01*
X174957624Y-68334812D01*
X174923000Y-68160741D01*
X174923000Y-67983259D01*
X174957624Y-67809188D01*
X175025544Y-67645216D01*
X175124147Y-67497646D01*
X175249646Y-67372147D01*
X175397216Y-67273544D01*
X175561188Y-67205624D01*
X175710488Y-67175927D01*
X175735258Y-67171000D01*
X175912742Y-67171000D01*
X175937512Y-67175927D01*
G37*
G36*
X160697512Y-67175927D02*
G01*
X160846812Y-67205624D01*
X161010784Y-67273544D01*
X161158354Y-67372147D01*
X161283853Y-67497646D01*
X161382456Y-67645216D01*
X161450376Y-67809188D01*
X161485000Y-67983259D01*
X161485000Y-68160741D01*
X161450376Y-68334812D01*
X161382456Y-68498784D01*
X161283853Y-68646354D01*
X161158354Y-68771853D01*
X161010784Y-68870456D01*
X160846812Y-68938376D01*
X160697512Y-68968073D01*
X160672742Y-68973000D01*
X160495258Y-68973000D01*
X160470488Y-68968073D01*
X160321188Y-68938376D01*
X160157216Y-68870456D01*
X160009646Y-68771853D01*
X159884147Y-68646354D01*
X159785544Y-68498784D01*
X159717624Y-68334812D01*
X159683000Y-68160741D01*
X159683000Y-67983259D01*
X159717624Y-67809188D01*
X159785544Y-67645216D01*
X159884147Y-67497646D01*
X160009646Y-67372147D01*
X160157216Y-67273544D01*
X160321188Y-67205624D01*
X160470488Y-67175927D01*
X160495258Y-67171000D01*
X160672742Y-67171000D01*
X160697512Y-67175927D01*
G37*
G36*
X191323920Y-63418782D02*
G01*
X191451544Y-63444168D01*
X191598991Y-63505243D01*
X191807512Y-63591615D01*
X191807513Y-63591616D01*
X192127877Y-63805676D01*
X192400324Y-64078123D01*
X192453766Y-64158105D01*
X192614385Y-64398488D01*
X192676777Y-64549116D01*
X192761832Y-64754456D01*
X192765635Y-64773574D01*
X192837000Y-65132349D01*
X192837000Y-65517651D01*
X192761832Y-65895543D01*
X192614385Y-66251512D01*
X192614384Y-66251513D01*
X192400324Y-66571877D01*
X192127877Y-66844324D01*
X191913816Y-66987355D01*
X191807512Y-67058385D01*
X191598991Y-67144757D01*
X191451544Y-67205832D01*
X191325579Y-67230888D01*
X191073651Y-67281000D01*
X190688349Y-67281000D01*
X190436421Y-67230888D01*
X190310456Y-67205832D01*
X190163009Y-67144757D01*
X189954488Y-67058385D01*
X189848184Y-66987355D01*
X189634123Y-66844324D01*
X189361676Y-66571877D01*
X189147616Y-66251513D01*
X189147615Y-66251512D01*
X189000168Y-65895543D01*
X188925000Y-65517651D01*
X188925000Y-65132349D01*
X188996365Y-64773574D01*
X189000168Y-64754456D01*
X189085223Y-64549116D01*
X189147615Y-64398488D01*
X189308234Y-64158105D01*
X189361676Y-64078123D01*
X189634123Y-63805676D01*
X189954487Y-63591616D01*
X189954488Y-63591615D01*
X190163009Y-63505243D01*
X190310456Y-63444168D01*
X190438080Y-63418782D01*
X190688349Y-63369000D01*
X191073651Y-63369000D01*
X191323920Y-63418782D01*
G37*
G36*
X184973920Y-63418782D02*
G01*
X185101544Y-63444168D01*
X185248991Y-63505243D01*
X185457512Y-63591615D01*
X185457513Y-63591616D01*
X185777877Y-63805676D01*
X186050324Y-64078123D01*
X186103766Y-64158105D01*
X186264385Y-64398488D01*
X186326777Y-64549116D01*
X186411832Y-64754456D01*
X186415635Y-64773574D01*
X186487000Y-65132349D01*
X186487000Y-65517651D01*
X186411832Y-65895543D01*
X186264385Y-66251512D01*
X186264384Y-66251513D01*
X186050324Y-66571877D01*
X185777877Y-66844324D01*
X185563816Y-66987355D01*
X185457512Y-67058385D01*
X185248991Y-67144757D01*
X185101544Y-67205832D01*
X184975579Y-67230888D01*
X184723651Y-67281000D01*
X184338349Y-67281000D01*
X184086421Y-67230888D01*
X183960456Y-67205832D01*
X183813009Y-67144757D01*
X183604488Y-67058385D01*
X183498184Y-66987355D01*
X183284123Y-66844324D01*
X183011676Y-66571877D01*
X182797616Y-66251513D01*
X182797615Y-66251512D01*
X182650168Y-65895543D01*
X182575000Y-65517651D01*
X182575000Y-65132349D01*
X182646365Y-64773574D01*
X182650168Y-64754456D01*
X182735223Y-64549116D01*
X182797615Y-64398488D01*
X182958234Y-64158105D01*
X183011676Y-64078123D01*
X183284123Y-63805676D01*
X183604487Y-63591616D01*
X183604488Y-63591615D01*
X183813009Y-63505243D01*
X183960456Y-63444168D01*
X184088080Y-63418782D01*
X184338349Y-63369000D01*
X184723651Y-63369000D01*
X184973920Y-63418782D01*
G37*
G36*
X160697512Y-64635927D02*
G01*
X160846812Y-64665624D01*
X161010784Y-64733544D01*
X161158354Y-64832147D01*
X161283853Y-64957646D01*
X161382456Y-65105216D01*
X161450376Y-65269188D01*
X161485000Y-65443259D01*
X161485000Y-65620741D01*
X161450376Y-65794812D01*
X161382456Y-65958784D01*
X161283853Y-66106354D01*
X161158354Y-66231853D01*
X161010784Y-66330456D01*
X160846812Y-66398376D01*
X160697512Y-66428073D01*
X160672742Y-66433000D01*
X160495258Y-66433000D01*
X160470488Y-66428073D01*
X160321188Y-66398376D01*
X160157216Y-66330456D01*
X160009646Y-66231853D01*
X159884147Y-66106354D01*
X159785544Y-65958784D01*
X159717624Y-65794812D01*
X159683000Y-65620741D01*
X159683000Y-65443259D01*
X159717624Y-65269188D01*
X159785544Y-65105216D01*
X159884147Y-64957646D01*
X160009646Y-64832147D01*
X160157216Y-64733544D01*
X160321188Y-64665624D01*
X160470488Y-64635927D01*
X160495258Y-64631000D01*
X160672742Y-64631000D01*
X160697512Y-64635927D01*
G37*
G36*
X175937512Y-64635927D02*
G01*
X176086812Y-64665624D01*
X176250784Y-64733544D01*
X176398354Y-64832147D01*
X176523853Y-64957646D01*
X176622456Y-65105216D01*
X176690376Y-65269188D01*
X176725000Y-65443259D01*
X176725000Y-65620741D01*
X176690376Y-65794812D01*
X176622456Y-65958784D01*
X176523853Y-66106354D01*
X176398354Y-66231853D01*
X176250784Y-66330456D01*
X176086812Y-66398376D01*
X175937512Y-66428073D01*
X175912742Y-66433000D01*
X175735258Y-66433000D01*
X175710488Y-66428073D01*
X175561188Y-66398376D01*
X175397216Y-66330456D01*
X175249646Y-66231853D01*
X175124147Y-66106354D01*
X175025544Y-65958784D01*
X174957624Y-65794812D01*
X174923000Y-65620741D01*
X174923000Y-65443259D01*
X174957624Y-65269188D01*
X175025544Y-65105216D01*
X175124147Y-64957646D01*
X175249646Y-64832147D01*
X175397216Y-64733544D01*
X175561188Y-64665624D01*
X175710488Y-64635927D01*
X175735258Y-64631000D01*
X175912742Y-64631000D01*
X175937512Y-64635927D01*
G37*
G36*
X150774254Y-60983818D02*
G01*
X151147511Y-61138426D01*
X151147513Y-61138427D01*
X151416824Y-61318375D01*
X151483436Y-61362884D01*
X151769116Y-61648564D01*
X151993574Y-61984489D01*
X152148182Y-62357746D01*
X152227000Y-62753993D01*
X152227000Y-63158007D01*
X152148182Y-63554254D01*
X152007869Y-63893000D01*
X151993573Y-63927513D01*
X151769116Y-64263436D01*
X151483436Y-64549116D01*
X151147513Y-64773573D01*
X151147512Y-64773574D01*
X151147511Y-64773574D01*
X150774254Y-64928182D01*
X150378007Y-65007000D01*
X149973993Y-65007000D01*
X149577746Y-64928182D01*
X149204489Y-64773574D01*
X149204488Y-64773574D01*
X149204487Y-64773573D01*
X148868564Y-64549116D01*
X148582884Y-64263436D01*
X148358427Y-63927513D01*
X148344131Y-63893000D01*
X148203818Y-63554254D01*
X148125000Y-63158007D01*
X148125000Y-62753993D01*
X148203818Y-62357746D01*
X148358426Y-61984489D01*
X148582884Y-61648564D01*
X148868564Y-61362884D01*
X148935176Y-61318375D01*
X149204487Y-61138427D01*
X149204489Y-61138426D01*
X149577746Y-60983818D01*
X149973993Y-60905000D01*
X150378007Y-60905000D01*
X150774254Y-60983818D01*
G37*
G36*
X170100562Y-62578181D02*
G01*
X170135481Y-62588774D01*
X170167663Y-62605976D01*
X170195873Y-62629127D01*
X170219024Y-62657337D01*
X170236226Y-62689519D01*
X170246819Y-62724438D01*
X170251000Y-62766895D01*
X170251000Y-64233105D01*
X170246819Y-64275562D01*
X170236226Y-64310481D01*
X170219024Y-64342663D01*
X170195873Y-64370873D01*
X170167663Y-64394024D01*
X170135481Y-64411226D01*
X170100562Y-64421819D01*
X170058105Y-64426000D01*
X168916895Y-64426000D01*
X168874438Y-64421819D01*
X168839519Y-64411226D01*
X168807337Y-64394024D01*
X168779127Y-64370873D01*
X168755976Y-64342663D01*
X168738774Y-64310481D01*
X168728181Y-64275562D01*
X168724000Y-64233105D01*
X168724000Y-62766895D01*
X168728181Y-62724438D01*
X168738774Y-62689519D01*
X168755976Y-62657337D01*
X168779127Y-62629127D01*
X168807337Y-62605976D01*
X168839519Y-62588774D01*
X168874438Y-62578181D01*
X168916895Y-62574000D01*
X170058105Y-62574000D01*
X170100562Y-62578181D01*
G37*
G36*
X167125562Y-62578181D02*
G01*
X167160481Y-62588774D01*
X167192663Y-62605976D01*
X167220873Y-62629127D01*
X167244024Y-62657337D01*
X167261226Y-62689519D01*
X167271819Y-62724438D01*
X167276000Y-62766895D01*
X167276000Y-64233105D01*
X167271819Y-64275562D01*
X167261226Y-64310481D01*
X167244024Y-64342663D01*
X167220873Y-64370873D01*
X167192663Y-64394024D01*
X167160481Y-64411226D01*
X167125562Y-64421819D01*
X167083105Y-64426000D01*
X165941895Y-64426000D01*
X165899438Y-64421819D01*
X165864519Y-64411226D01*
X165832337Y-64394024D01*
X165804127Y-64370873D01*
X165780976Y-64342663D01*
X165763774Y-64310481D01*
X165753181Y-64275562D01*
X165749000Y-64233105D01*
X165749000Y-62766895D01*
X165753181Y-62724438D01*
X165763774Y-62689519D01*
X165780976Y-62657337D01*
X165804127Y-62629127D01*
X165832337Y-62605976D01*
X165864519Y-62588774D01*
X165899438Y-62578181D01*
X165941895Y-62574000D01*
X167083105Y-62574000D01*
X167125562Y-62578181D01*
G37*
G36*
X160697512Y-62095927D02*
G01*
X160846812Y-62125624D01*
X161010784Y-62193544D01*
X161158354Y-62292147D01*
X161283853Y-62417646D01*
X161382456Y-62565216D01*
X161450376Y-62729188D01*
X161485000Y-62903259D01*
X161485000Y-63080741D01*
X161450376Y-63254812D01*
X161382456Y-63418784D01*
X161283853Y-63566354D01*
X161158354Y-63691853D01*
X161010784Y-63790456D01*
X160846812Y-63858376D01*
X160697512Y-63888073D01*
X160672742Y-63893000D01*
X160495258Y-63893000D01*
X160470488Y-63888073D01*
X160321188Y-63858376D01*
X160157216Y-63790456D01*
X160009646Y-63691853D01*
X159884147Y-63566354D01*
X159785544Y-63418784D01*
X159717624Y-63254812D01*
X159683000Y-63080741D01*
X159683000Y-62903259D01*
X159717624Y-62729188D01*
X159785544Y-62565216D01*
X159884147Y-62417646D01*
X160009646Y-62292147D01*
X160157216Y-62193544D01*
X160321188Y-62125624D01*
X160470488Y-62095927D01*
X160495258Y-62091000D01*
X160672742Y-62091000D01*
X160697512Y-62095927D01*
G37*
G36*
X175937512Y-62095927D02*
G01*
X176086812Y-62125624D01*
X176250784Y-62193544D01*
X176398354Y-62292147D01*
X176523853Y-62417646D01*
X176622456Y-62565216D01*
X176690376Y-62729188D01*
X176725000Y-62903259D01*
X176725000Y-63080741D01*
X176690376Y-63254812D01*
X176622456Y-63418784D01*
X176523853Y-63566354D01*
X176398354Y-63691853D01*
X176250784Y-63790456D01*
X176086812Y-63858376D01*
X175937512Y-63888073D01*
X175912742Y-63893000D01*
X175735258Y-63893000D01*
X175710488Y-63888073D01*
X175561188Y-63858376D01*
X175397216Y-63790456D01*
X175249646Y-63691853D01*
X175124147Y-63566354D01*
X175025544Y-63418784D01*
X174957624Y-63254812D01*
X174923000Y-63080741D01*
X174923000Y-62903259D01*
X174957624Y-62729188D01*
X175025544Y-62565216D01*
X175124147Y-62417646D01*
X175249646Y-62292147D01*
X175397216Y-62193544D01*
X175561188Y-62125624D01*
X175710488Y-62095927D01*
X175735258Y-62091000D01*
X175912742Y-62091000D01*
X175937512Y-62095927D01*
G37*
G36*
X142953395Y-59791546D02*
G01*
X143126466Y-59863234D01*
X143203818Y-59914919D01*
X143282227Y-59967310D01*
X143414690Y-60099773D01*
X143414691Y-60099775D01*
X143518766Y-60255534D01*
X143590454Y-60428605D01*
X143627000Y-60612333D01*
X143627000Y-60799667D01*
X143590454Y-60983395D01*
X143518766Y-61156466D01*
X143518765Y-61156467D01*
X143414690Y-61312227D01*
X143282227Y-61444690D01*
X143203818Y-61497081D01*
X143126466Y-61548766D01*
X142953395Y-61620454D01*
X142769667Y-61657000D01*
X142582333Y-61657000D01*
X142398605Y-61620454D01*
X142225534Y-61548766D01*
X142148182Y-61497081D01*
X142069773Y-61444690D01*
X141937310Y-61312227D01*
X141833235Y-61156467D01*
X141833234Y-61156466D01*
X141761546Y-60983395D01*
X141725000Y-60799667D01*
X141725000Y-60612333D01*
X141761546Y-60428605D01*
X141833234Y-60255534D01*
X141937309Y-60099775D01*
X141937310Y-60099773D01*
X142069773Y-59967310D01*
X142148182Y-59914919D01*
X142225534Y-59863234D01*
X142398605Y-59791546D01*
X142582333Y-59755000D01*
X142769667Y-59755000D01*
X142953395Y-59791546D01*
G37*
G36*
X160697512Y-59555927D02*
G01*
X160846812Y-59585624D01*
X161010784Y-59653544D01*
X161158354Y-59752147D01*
X161283853Y-59877646D01*
X161382456Y-60025216D01*
X161450376Y-60189188D01*
X161485000Y-60363259D01*
X161485000Y-60540741D01*
X161450376Y-60714812D01*
X161382456Y-60878784D01*
X161283853Y-61026354D01*
X161158354Y-61151853D01*
X161010784Y-61250456D01*
X160846812Y-61318376D01*
X160697512Y-61348073D01*
X160672742Y-61353000D01*
X160495258Y-61353000D01*
X160470488Y-61348073D01*
X160321188Y-61318376D01*
X160157216Y-61250456D01*
X160009646Y-61151853D01*
X159884147Y-61026354D01*
X159785544Y-60878784D01*
X159717624Y-60714812D01*
X159683000Y-60540741D01*
X159683000Y-60363259D01*
X159717624Y-60189188D01*
X159785544Y-60025216D01*
X159884147Y-59877646D01*
X160009646Y-59752147D01*
X160157216Y-59653544D01*
X160321188Y-59585624D01*
X160470488Y-59555927D01*
X160495258Y-59551000D01*
X160672742Y-59551000D01*
X160697512Y-59555927D01*
G37*
G36*
X175937512Y-59555927D02*
G01*
X176086812Y-59585624D01*
X176250784Y-59653544D01*
X176398354Y-59752147D01*
X176523853Y-59877646D01*
X176622456Y-60025216D01*
X176690376Y-60189188D01*
X176725000Y-60363259D01*
X176725000Y-60540741D01*
X176690376Y-60714812D01*
X176622456Y-60878784D01*
X176523853Y-61026354D01*
X176398354Y-61151853D01*
X176250784Y-61250456D01*
X176086812Y-61318376D01*
X175937512Y-61348073D01*
X175912742Y-61353000D01*
X175735258Y-61353000D01*
X175710488Y-61348073D01*
X175561188Y-61318376D01*
X175397216Y-61250456D01*
X175249646Y-61151853D01*
X175124147Y-61026354D01*
X175025544Y-60878784D01*
X174957624Y-60714812D01*
X174923000Y-60540741D01*
X174923000Y-60363259D01*
X174957624Y-60189188D01*
X175025544Y-60025216D01*
X175124147Y-59877646D01*
X175249646Y-59752147D01*
X175397216Y-59653544D01*
X175561188Y-59585624D01*
X175710488Y-59555927D01*
X175735258Y-59551000D01*
X175912742Y-59551000D01*
X175937512Y-59555927D01*
G37*
G36*
X170100562Y-58578181D02*
G01*
X170135481Y-58588774D01*
X170167663Y-58605976D01*
X170195873Y-58629127D01*
X170219024Y-58657337D01*
X170236226Y-58689519D01*
X170246819Y-58724438D01*
X170251000Y-58766895D01*
X170251000Y-60233105D01*
X170246819Y-60275562D01*
X170236226Y-60310481D01*
X170219024Y-60342663D01*
X170195873Y-60370873D01*
X170167663Y-60394024D01*
X170135481Y-60411226D01*
X170100562Y-60421819D01*
X170058105Y-60426000D01*
X168916895Y-60426000D01*
X168874438Y-60421819D01*
X168839519Y-60411226D01*
X168807337Y-60394024D01*
X168779127Y-60370873D01*
X168755976Y-60342663D01*
X168738774Y-60310481D01*
X168728181Y-60275562D01*
X168724000Y-60233105D01*
X168724000Y-58766895D01*
X168728181Y-58724438D01*
X168738774Y-58689519D01*
X168755976Y-58657337D01*
X168779127Y-58629127D01*
X168807337Y-58605976D01*
X168839519Y-58588774D01*
X168874438Y-58578181D01*
X168916895Y-58574000D01*
X170058105Y-58574000D01*
X170100562Y-58578181D01*
G37*
G36*
X167125562Y-58578181D02*
G01*
X167160481Y-58588774D01*
X167192663Y-58605976D01*
X167220873Y-58629127D01*
X167244024Y-58657337D01*
X167261226Y-58689519D01*
X167271819Y-58724438D01*
X167276000Y-58766895D01*
X167276000Y-60233105D01*
X167271819Y-60275562D01*
X167261226Y-60310481D01*
X167244024Y-60342663D01*
X167220873Y-60370873D01*
X167192663Y-60394024D01*
X167160481Y-60411226D01*
X167125562Y-60421819D01*
X167083105Y-60426000D01*
X165941895Y-60426000D01*
X165899438Y-60421819D01*
X165864519Y-60411226D01*
X165832337Y-60394024D01*
X165804127Y-60370873D01*
X165780976Y-60342663D01*
X165763774Y-60310481D01*
X165753181Y-60275562D01*
X165749000Y-60233105D01*
X165749000Y-58766895D01*
X165753181Y-58724438D01*
X165763774Y-58689519D01*
X165780976Y-58657337D01*
X165804127Y-58629127D01*
X165832337Y-58605976D01*
X165864519Y-58588774D01*
X165899438Y-58578181D01*
X165941895Y-58574000D01*
X167083105Y-58574000D01*
X167125562Y-58578181D01*
G37*
G36*
X191325579Y-56133112D02*
G01*
X191451544Y-56158168D01*
X191577568Y-56210369D01*
X191807512Y-56305615D01*
X191905177Y-56370873D01*
X192127877Y-56519676D01*
X192400324Y-56792123D01*
X192543355Y-57006184D01*
X192614385Y-57112488D01*
X192700757Y-57321009D01*
X192761357Y-57467309D01*
X192761832Y-57468457D01*
X192837000Y-57846349D01*
X192837000Y-58231651D01*
X192815690Y-58338782D01*
X192761832Y-58609544D01*
X192700757Y-58756991D01*
X192614385Y-58965512D01*
X192614384Y-58965513D01*
X192400324Y-59285877D01*
X192127877Y-59558324D01*
X191985370Y-59653544D01*
X191807512Y-59772385D01*
X191598991Y-59858757D01*
X191451544Y-59919832D01*
X191325579Y-59944888D01*
X191073651Y-59995000D01*
X190688349Y-59995000D01*
X190436421Y-59944888D01*
X190310456Y-59919832D01*
X190163009Y-59858757D01*
X189954488Y-59772385D01*
X189776630Y-59653544D01*
X189634123Y-59558324D01*
X189361676Y-59285877D01*
X189147616Y-58965513D01*
X189147615Y-58965512D01*
X189061243Y-58756991D01*
X189000168Y-58609544D01*
X188946310Y-58338782D01*
X188925000Y-58231651D01*
X188925000Y-57846349D01*
X189000168Y-57468457D01*
X189000644Y-57467309D01*
X189061243Y-57321009D01*
X189147615Y-57112488D01*
X189218645Y-57006184D01*
X189361676Y-56792123D01*
X189634123Y-56519676D01*
X189856823Y-56370873D01*
X189954488Y-56305615D01*
X190184432Y-56210369D01*
X190310456Y-56158168D01*
X190436421Y-56133112D01*
X190688349Y-56083000D01*
X191073651Y-56083000D01*
X191325579Y-56133112D01*
G37*
G36*
X184975579Y-56133112D02*
G01*
X185101544Y-56158168D01*
X185227568Y-56210369D01*
X185457512Y-56305615D01*
X185555177Y-56370873D01*
X185777877Y-56519676D01*
X186050324Y-56792123D01*
X186193355Y-57006184D01*
X186264385Y-57112488D01*
X186350757Y-57321009D01*
X186411357Y-57467309D01*
X186411832Y-57468457D01*
X186487000Y-57846349D01*
X186487000Y-58231651D01*
X186465690Y-58338782D01*
X186411832Y-58609544D01*
X186350757Y-58756991D01*
X186264385Y-58965512D01*
X186264384Y-58965513D01*
X186050324Y-59285877D01*
X185777877Y-59558324D01*
X185635370Y-59653544D01*
X185457512Y-59772385D01*
X185248991Y-59858757D01*
X185101544Y-59919832D01*
X184975579Y-59944888D01*
X184723651Y-59995000D01*
X184338349Y-59995000D01*
X184086421Y-59944888D01*
X183960456Y-59919832D01*
X183813009Y-59858757D01*
X183604488Y-59772385D01*
X183426630Y-59653544D01*
X183284123Y-59558324D01*
X183011676Y-59285877D01*
X182797616Y-58965513D01*
X182797615Y-58965512D01*
X182711243Y-58756991D01*
X182650168Y-58609544D01*
X182596310Y-58338782D01*
X182575000Y-58231651D01*
X182575000Y-57846349D01*
X182650168Y-57468457D01*
X182650644Y-57467309D01*
X182711243Y-57321009D01*
X182797615Y-57112488D01*
X182868645Y-57006184D01*
X183011676Y-56792123D01*
X183284123Y-56519676D01*
X183506823Y-56370873D01*
X183604488Y-56305615D01*
X183834432Y-56210369D01*
X183960456Y-56158168D01*
X184086421Y-56133112D01*
X184338349Y-56083000D01*
X184723651Y-56083000D01*
X184975579Y-56133112D01*
G37*
G36*
X142953395Y-57291546D02*
G01*
X143126466Y-57363234D01*
X143126467Y-57363235D01*
X143282227Y-57467310D01*
X143414690Y-57599773D01*
X143467081Y-57678182D01*
X143518766Y-57755534D01*
X143590454Y-57928605D01*
X143627000Y-58112333D01*
X143627000Y-58299667D01*
X143590454Y-58483395D01*
X143518766Y-58656466D01*
X143494314Y-58693061D01*
X143414690Y-58812227D01*
X143282227Y-58944690D01*
X143251063Y-58965513D01*
X143126466Y-59048766D01*
X142953395Y-59120454D01*
X142769667Y-59157000D01*
X142582333Y-59157000D01*
X142398605Y-59120454D01*
X142225534Y-59048766D01*
X142100937Y-58965513D01*
X142069773Y-58944690D01*
X141937310Y-58812227D01*
X141857686Y-58693061D01*
X141833234Y-58656466D01*
X141761546Y-58483395D01*
X141725000Y-58299667D01*
X141725000Y-58112333D01*
X141761546Y-57928605D01*
X141833234Y-57755534D01*
X141884919Y-57678182D01*
X141937310Y-57599773D01*
X142069773Y-57467310D01*
X142225533Y-57363235D01*
X142225534Y-57363234D01*
X142398605Y-57291546D01*
X142582333Y-57255000D01*
X142769667Y-57255000D01*
X142953395Y-57291546D01*
G37*
G36*
X175937512Y-57015927D02*
G01*
X176086812Y-57045624D01*
X176250784Y-57113544D01*
X176398354Y-57212147D01*
X176523853Y-57337646D01*
X176622456Y-57485216D01*
X176690376Y-57649188D01*
X176725000Y-57823259D01*
X176725000Y-58000741D01*
X176690376Y-58174812D01*
X176622456Y-58338784D01*
X176523853Y-58486354D01*
X176398354Y-58611853D01*
X176250784Y-58710456D01*
X176086812Y-58778376D01*
X175937512Y-58808073D01*
X175912742Y-58813000D01*
X175735258Y-58813000D01*
X175710488Y-58808073D01*
X175561188Y-58778376D01*
X175397216Y-58710456D01*
X175249646Y-58611853D01*
X175124147Y-58486354D01*
X175025544Y-58338784D01*
X174957624Y-58174812D01*
X174923000Y-58000741D01*
X174923000Y-57823259D01*
X174957624Y-57649188D01*
X175025544Y-57485216D01*
X175124147Y-57337646D01*
X175249646Y-57212147D01*
X175397216Y-57113544D01*
X175561188Y-57045624D01*
X175710488Y-57015927D01*
X175735258Y-57011000D01*
X175912742Y-57011000D01*
X175937512Y-57015927D01*
G37*
G36*
X160697512Y-57015927D02*
G01*
X160846812Y-57045624D01*
X161010784Y-57113544D01*
X161158354Y-57212147D01*
X161283853Y-57337646D01*
X161382456Y-57485216D01*
X161450376Y-57649188D01*
X161485000Y-57823259D01*
X161485000Y-58000741D01*
X161450376Y-58174812D01*
X161382456Y-58338784D01*
X161283853Y-58486354D01*
X161158354Y-58611853D01*
X161010784Y-58710456D01*
X160846812Y-58778376D01*
X160697512Y-58808073D01*
X160672742Y-58813000D01*
X160495258Y-58813000D01*
X160470488Y-58808073D01*
X160321188Y-58778376D01*
X160157216Y-58710456D01*
X160009646Y-58611853D01*
X159884147Y-58486354D01*
X159785544Y-58338784D01*
X159717624Y-58174812D01*
X159683000Y-58000741D01*
X159683000Y-57823259D01*
X159717624Y-57649188D01*
X159785544Y-57485216D01*
X159884147Y-57337646D01*
X160009646Y-57212147D01*
X160157216Y-57113544D01*
X160321188Y-57045624D01*
X160470488Y-57015927D01*
X160495258Y-57011000D01*
X160672742Y-57011000D01*
X160697512Y-57015927D01*
G37*
G36*
X188062821Y-53070144D02*
G01*
X188239500Y-53105287D01*
X188377373Y-53162396D01*
X188572355Y-53243160D01*
X188588569Y-53253994D01*
X188871920Y-53443323D01*
X189126677Y-53698080D01*
X189150010Y-53733000D01*
X189326840Y-53997645D01*
X189407604Y-54192627D01*
X189464713Y-54330500D01*
X189484010Y-54427513D01*
X189535000Y-54683858D01*
X189535000Y-55044142D01*
X189522061Y-55109189D01*
X189464713Y-55397500D01*
X189438517Y-55460742D01*
X189326840Y-55730355D01*
X189326839Y-55730356D01*
X189126677Y-56029920D01*
X188871920Y-56284677D01*
X188777846Y-56347535D01*
X188572355Y-56484840D01*
X188418026Y-56548765D01*
X188239500Y-56622713D01*
X188067126Y-56657000D01*
X187886142Y-56693000D01*
X187525858Y-56693000D01*
X187344874Y-56657000D01*
X187172500Y-56622713D01*
X186993974Y-56548765D01*
X186839645Y-56484840D01*
X186634154Y-56347535D01*
X186540080Y-56284677D01*
X186285323Y-56029920D01*
X186085161Y-55730356D01*
X186085160Y-55730355D01*
X185973483Y-55460742D01*
X185947287Y-55397500D01*
X185889939Y-55109189D01*
X185877000Y-55044142D01*
X185877000Y-54683858D01*
X185927990Y-54427513D01*
X185947287Y-54330500D01*
X186004396Y-54192627D01*
X186085160Y-53997645D01*
X186261990Y-53733000D01*
X186285323Y-53698080D01*
X186540080Y-53443323D01*
X186823431Y-53253994D01*
X186839645Y-53243160D01*
X187034627Y-53162396D01*
X187172500Y-53105287D01*
X187349179Y-53070144D01*
X187525858Y-53035000D01*
X187886142Y-53035000D01*
X188062821Y-53070144D01*
G37*
G36*
X142953395Y-54791546D02*
G01*
X143126466Y-54863234D01*
X143126467Y-54863235D01*
X143282227Y-54967310D01*
X143414690Y-55099773D01*
X143467081Y-55178182D01*
X143518766Y-55255534D01*
X143590454Y-55428605D01*
X143627000Y-55612333D01*
X143627000Y-55799667D01*
X143590454Y-55983395D01*
X143518766Y-56156466D01*
X143509418Y-56170456D01*
X143414690Y-56312227D01*
X143282227Y-56444690D01*
X143222139Y-56484839D01*
X143126466Y-56548766D01*
X142953395Y-56620454D01*
X142769667Y-56657000D01*
X142582333Y-56657000D01*
X142398605Y-56620454D01*
X142225534Y-56548766D01*
X142129861Y-56484839D01*
X142069773Y-56444690D01*
X141937310Y-56312227D01*
X141842582Y-56170456D01*
X141833234Y-56156466D01*
X141761546Y-55983395D01*
X141725000Y-55799667D01*
X141725000Y-55612333D01*
X141761546Y-55428605D01*
X141833234Y-55255534D01*
X141884919Y-55178182D01*
X141937310Y-55099773D01*
X142069773Y-54967310D01*
X142225533Y-54863235D01*
X142225534Y-54863234D01*
X142398605Y-54791546D01*
X142582333Y-54755000D01*
X142769667Y-54755000D01*
X142953395Y-54791546D01*
G37*
G36*
X170100562Y-54578181D02*
G01*
X170135481Y-54588774D01*
X170167663Y-54605976D01*
X170195873Y-54629127D01*
X170219024Y-54657337D01*
X170236226Y-54689519D01*
X170246819Y-54724438D01*
X170251000Y-54766895D01*
X170251000Y-56233105D01*
X170246819Y-56275562D01*
X170236226Y-56310481D01*
X170219024Y-56342663D01*
X170195873Y-56370873D01*
X170167663Y-56394024D01*
X170135481Y-56411226D01*
X170100562Y-56421819D01*
X170058105Y-56426000D01*
X168916895Y-56426000D01*
X168874438Y-56421819D01*
X168839519Y-56411226D01*
X168807337Y-56394024D01*
X168779127Y-56370873D01*
X168755976Y-56342663D01*
X168738774Y-56310481D01*
X168728181Y-56275562D01*
X168724000Y-56233105D01*
X168724000Y-54766895D01*
X168728181Y-54724438D01*
X168738774Y-54689519D01*
X168755976Y-54657337D01*
X168779127Y-54629127D01*
X168807337Y-54605976D01*
X168839519Y-54588774D01*
X168874438Y-54578181D01*
X168916895Y-54574000D01*
X170058105Y-54574000D01*
X170100562Y-54578181D01*
G37*
G36*
X167125562Y-54578181D02*
G01*
X167160481Y-54588774D01*
X167192663Y-54605976D01*
X167220873Y-54629127D01*
X167244024Y-54657337D01*
X167261226Y-54689519D01*
X167271819Y-54724438D01*
X167276000Y-54766895D01*
X167276000Y-56233105D01*
X167271819Y-56275562D01*
X167261226Y-56310481D01*
X167244024Y-56342663D01*
X167220873Y-56370873D01*
X167192663Y-56394024D01*
X167160481Y-56411226D01*
X167125562Y-56421819D01*
X167083105Y-56426000D01*
X165941895Y-56426000D01*
X165899438Y-56421819D01*
X165864519Y-56411226D01*
X165832337Y-56394024D01*
X165804127Y-56370873D01*
X165780976Y-56342663D01*
X165763774Y-56310481D01*
X165753181Y-56275562D01*
X165749000Y-56233105D01*
X165749000Y-54766895D01*
X165753181Y-54724438D01*
X165763774Y-54689519D01*
X165780976Y-54657337D01*
X165804127Y-54629127D01*
X165832337Y-54605976D01*
X165864519Y-54588774D01*
X165899438Y-54578181D01*
X165941895Y-54574000D01*
X167083105Y-54574000D01*
X167125562Y-54578181D01*
G37*
G36*
X160697512Y-54475927D02*
G01*
X160846812Y-54505624D01*
X161010784Y-54573544D01*
X161158354Y-54672147D01*
X161283853Y-54797646D01*
X161382456Y-54945216D01*
X161450376Y-55109188D01*
X161479485Y-55255533D01*
X161483074Y-55273573D01*
X161485000Y-55283259D01*
X161485000Y-55460741D01*
X161450376Y-55634812D01*
X161382456Y-55798784D01*
X161283853Y-55946354D01*
X161158354Y-56071853D01*
X161010784Y-56170456D01*
X160846812Y-56238376D01*
X160697512Y-56268073D01*
X160672742Y-56273000D01*
X160495258Y-56273000D01*
X160470488Y-56268073D01*
X160321188Y-56238376D01*
X160157216Y-56170456D01*
X160009646Y-56071853D01*
X159884147Y-55946354D01*
X159785544Y-55798784D01*
X159717624Y-55634812D01*
X159683000Y-55460741D01*
X159683000Y-55283259D01*
X159684927Y-55273573D01*
X159688515Y-55255533D01*
X159717624Y-55109188D01*
X159785544Y-54945216D01*
X159884147Y-54797646D01*
X160009646Y-54672147D01*
X160157216Y-54573544D01*
X160321188Y-54505624D01*
X160470488Y-54475927D01*
X160495258Y-54471000D01*
X160672742Y-54471000D01*
X160697512Y-54475927D01*
G37*
G36*
X175937512Y-54475927D02*
G01*
X176086812Y-54505624D01*
X176250784Y-54573544D01*
X176398354Y-54672147D01*
X176523853Y-54797646D01*
X176622456Y-54945216D01*
X176690376Y-55109188D01*
X176719485Y-55255533D01*
X176723074Y-55273573D01*
X176725000Y-55283259D01*
X176725000Y-55460741D01*
X176690376Y-55634812D01*
X176622456Y-55798784D01*
X176523853Y-55946354D01*
X176398354Y-56071853D01*
X176250784Y-56170456D01*
X176086812Y-56238376D01*
X175937512Y-56268073D01*
X175912742Y-56273000D01*
X175735258Y-56273000D01*
X175710488Y-56268073D01*
X175561188Y-56238376D01*
X175397216Y-56170456D01*
X175249646Y-56071853D01*
X175124147Y-55946354D01*
X175025544Y-55798784D01*
X174957624Y-55634812D01*
X174923000Y-55460741D01*
X174923000Y-55283259D01*
X174924927Y-55273573D01*
X174928515Y-55255533D01*
X174957624Y-55109188D01*
X175025544Y-54945216D01*
X175124147Y-54797646D01*
X175249646Y-54672147D01*
X175397216Y-54573544D01*
X175561188Y-54505624D01*
X175710488Y-54475927D01*
X175735258Y-54471000D01*
X175912742Y-54471000D01*
X175937512Y-54475927D01*
G37*
G36*
X150774254Y-51483818D02*
G01*
X151147511Y-51638426D01*
X151147513Y-51638427D01*
X151483436Y-51862884D01*
X151769116Y-52148564D01*
X151940606Y-52405216D01*
X151993574Y-52484489D01*
X152148182Y-52857746D01*
X152227000Y-53253993D01*
X152227000Y-53658007D01*
X152148182Y-54054254D01*
X152033757Y-54330500D01*
X151993573Y-54427513D01*
X151769116Y-54763436D01*
X151483436Y-55049116D01*
X151147513Y-55273573D01*
X151147512Y-55273574D01*
X151147511Y-55273574D01*
X150774254Y-55428182D01*
X150378007Y-55507000D01*
X149973993Y-55507000D01*
X149577746Y-55428182D01*
X149204489Y-55273574D01*
X149204488Y-55273574D01*
X149204487Y-55273573D01*
X148868564Y-55049116D01*
X148582884Y-54763436D01*
X148358427Y-54427513D01*
X148318243Y-54330500D01*
X148203818Y-54054254D01*
X148125000Y-53658007D01*
X148125000Y-53253993D01*
X148203818Y-52857746D01*
X148358426Y-52484489D01*
X148411395Y-52405216D01*
X148582884Y-52148564D01*
X148868564Y-51862884D01*
X149204487Y-51638427D01*
X149204489Y-51638426D01*
X149577746Y-51483818D01*
X149973993Y-51405000D01*
X150378007Y-51405000D01*
X150774254Y-51483818D01*
G37*
G36*
X161485000Y-53733000D02*
G01*
X159683000Y-53733000D01*
X159683000Y-51931000D01*
X161485000Y-51931000D01*
X161485000Y-53733000D01*
G37*
G36*
X175937512Y-51935927D02*
G01*
X176086812Y-51965624D01*
X176250784Y-52033544D01*
X176398354Y-52132147D01*
X176523853Y-52257646D01*
X176622456Y-52405216D01*
X176690376Y-52569188D01*
X176725000Y-52743259D01*
X176725000Y-52920741D01*
X176690376Y-53094812D01*
X176622456Y-53258784D01*
X176523853Y-53406354D01*
X176398354Y-53531853D01*
X176250784Y-53630456D01*
X176086812Y-53698376D01*
X175937512Y-53728073D01*
X175912742Y-53733000D01*
X175735258Y-53733000D01*
X175710488Y-53728073D01*
X175561188Y-53698376D01*
X175397216Y-53630456D01*
X175249646Y-53531853D01*
X175124147Y-53406354D01*
X175025544Y-53258784D01*
X174957624Y-53094812D01*
X174923000Y-52920741D01*
X174923000Y-52743259D01*
X174957624Y-52569188D01*
X175025544Y-52405216D01*
X175124147Y-52257646D01*
X175249646Y-52132147D01*
X175397216Y-52033544D01*
X175561188Y-51965624D01*
X175710488Y-51935927D01*
X175735258Y-51931000D01*
X175912742Y-51931000D01*
X175937512Y-51935927D01*
G37*
G36*
X184975579Y-49783112D02*
G01*
X185101544Y-49808168D01*
X185248991Y-49869243D01*
X185457512Y-49955615D01*
X185457513Y-49955616D01*
X185777877Y-50169676D01*
X186050324Y-50442123D01*
X186193355Y-50656184D01*
X186264385Y-50762488D01*
X186411832Y-51118457D01*
X186487000Y-51496349D01*
X186487000Y-51881651D01*
X186470296Y-51965625D01*
X186412210Y-52257646D01*
X186411832Y-52259543D01*
X186264385Y-52615512D01*
X186264384Y-52615513D01*
X186050324Y-52935877D01*
X185777877Y-53208324D01*
X185563816Y-53351355D01*
X185457512Y-53422385D01*
X185248991Y-53508757D01*
X185101544Y-53569832D01*
X184975579Y-53594888D01*
X184723651Y-53645000D01*
X184338349Y-53645000D01*
X184086421Y-53594888D01*
X183960456Y-53569832D01*
X183813009Y-53508757D01*
X183604488Y-53422385D01*
X183498184Y-53351355D01*
X183284123Y-53208324D01*
X183011676Y-52935877D01*
X182797616Y-52615513D01*
X182797615Y-52615512D01*
X182650168Y-52259543D01*
X182649791Y-52257646D01*
X182591704Y-51965625D01*
X182575000Y-51881651D01*
X182575000Y-51496349D01*
X182650168Y-51118457D01*
X182797615Y-50762488D01*
X182868645Y-50656184D01*
X183011676Y-50442123D01*
X183284123Y-50169676D01*
X183604487Y-49955616D01*
X183604488Y-49955615D01*
X183813009Y-49869243D01*
X183960456Y-49808168D01*
X184086421Y-49783112D01*
X184338349Y-49733000D01*
X184723651Y-49733000D01*
X184975579Y-49783112D01*
G37*
G36*
X191325579Y-49783112D02*
G01*
X191451544Y-49808168D01*
X191598991Y-49869243D01*
X191807512Y-49955615D01*
X191807513Y-49955616D01*
X192127877Y-50169676D01*
X192400324Y-50442123D01*
X192543355Y-50656184D01*
X192614385Y-50762488D01*
X192761832Y-51118457D01*
X192837000Y-51496349D01*
X192837000Y-51881651D01*
X192820296Y-51965625D01*
X192762210Y-52257646D01*
X192761832Y-52259543D01*
X192614385Y-52615512D01*
X192614384Y-52615513D01*
X192400324Y-52935877D01*
X192127877Y-53208324D01*
X191913816Y-53351355D01*
X191807512Y-53422385D01*
X191598991Y-53508757D01*
X191451544Y-53569832D01*
X191325579Y-53594888D01*
X191073651Y-53645000D01*
X190688349Y-53645000D01*
X190436421Y-53594888D01*
X190310456Y-53569832D01*
X190163009Y-53508757D01*
X189954488Y-53422385D01*
X189848184Y-53351355D01*
X189634123Y-53208324D01*
X189361676Y-52935877D01*
X189147616Y-52615513D01*
X189147615Y-52615512D01*
X189000168Y-52259543D01*
X188999791Y-52257646D01*
X188941704Y-51965625D01*
X188925000Y-51881651D01*
X188925000Y-51496349D01*
X189000168Y-51118457D01*
X189147615Y-50762488D01*
X189218645Y-50656184D01*
X189361676Y-50442123D01*
X189634123Y-50169676D01*
X189954487Y-49955616D01*
X189954488Y-49955615D01*
X190163009Y-49869243D01*
X190310456Y-49808168D01*
X190436421Y-49783112D01*
X190688349Y-49733000D01*
X191073651Y-49733000D01*
X191325579Y-49783112D01*
G37*
G36*
X170100562Y-50128181D02*
G01*
X170135481Y-50138774D01*
X170167663Y-50155976D01*
X170195873Y-50179127D01*
X170219024Y-50207337D01*
X170236226Y-50239519D01*
X170246819Y-50274438D01*
X170251000Y-50316895D01*
X170251000Y-52683105D01*
X170246819Y-52725562D01*
X170236226Y-52760481D01*
X170219024Y-52792663D01*
X170195873Y-52820873D01*
X170167663Y-52844024D01*
X170135481Y-52861226D01*
X170100562Y-52871819D01*
X170058105Y-52876000D01*
X168916895Y-52876000D01*
X168874438Y-52871819D01*
X168839519Y-52861226D01*
X168807337Y-52844024D01*
X168779127Y-52820873D01*
X168755976Y-52792663D01*
X168738774Y-52760481D01*
X168728181Y-52725562D01*
X168724000Y-52683105D01*
X168724000Y-50316895D01*
X168728181Y-50274438D01*
X168738774Y-50239519D01*
X168755976Y-50207337D01*
X168779127Y-50179127D01*
X168807337Y-50155976D01*
X168839519Y-50138774D01*
X168874438Y-50128181D01*
X168916895Y-50124000D01*
X170058105Y-50124000D01*
X170100562Y-50128181D01*
G37*
G36*
X167125562Y-50128181D02*
G01*
X167160481Y-50138774D01*
X167192663Y-50155976D01*
X167220873Y-50179127D01*
X167244024Y-50207337D01*
X167261226Y-50239519D01*
X167271819Y-50274438D01*
X167276000Y-50316895D01*
X167276000Y-52683105D01*
X167271819Y-52725562D01*
X167261226Y-52760481D01*
X167244024Y-52792663D01*
X167220873Y-52820873D01*
X167192663Y-52844024D01*
X167160481Y-52861226D01*
X167125562Y-52871819D01*
X167083105Y-52876000D01*
X165941895Y-52876000D01*
X165899438Y-52871819D01*
X165864519Y-52861226D01*
X165832337Y-52844024D01*
X165804127Y-52820873D01*
X165780976Y-52792663D01*
X165763774Y-52760481D01*
X165753181Y-52725562D01*
X165749000Y-52683105D01*
X165749000Y-50316895D01*
X165753181Y-50274438D01*
X165763774Y-50239519D01*
X165780976Y-50207337D01*
X165804127Y-50179127D01*
X165832337Y-50155976D01*
X165864519Y-50138774D01*
X165899438Y-50128181D01*
X165941895Y-50124000D01*
X167083105Y-50124000D01*
X167125562Y-50128181D01*
G37*
M02*
