G04 #@! TF.GenerationSoftware,KiCad,Pcbnew,5.1.5-52549c5~84~ubuntu18.04.1*
G04 #@! TF.CreationDate,2020-05-14T17:44:15+01:00*
G04 #@! TF.ProjectId,spikeling,7370696b-656c-4696-9e67-2e6b69636164,rev?*
G04 #@! TF.SameCoordinates,Original*
G04 #@! TF.FileFunction,Legend,Top*
G04 #@! TF.FilePolarity,Positive*
%FSLAX46Y46*%
G04 Gerber Fmt 4.6, Leading zero omitted, Abs format (unit mm)*
G04 Created by KiCad (PCBNEW 5.1.5-52549c5~84~ubuntu18.04.1) date 2020-05-14 17:44:15*
%MOMM*%
%LPD*%
G04 APERTURE LIST*
%ADD10C,0.120000*%
%ADD11C,0.150000*%
G04 APERTURE END LIST*
D10*
X182942411Y-78551337D02*
G75*
G03X182956000Y-82014000I4763589J-1712663D01*
G01*
X185993337Y-85027589D02*
G75*
G03X189456000Y-85014000I1712663J4763589D01*
G01*
X192469589Y-81976663D02*
G75*
G03X192456000Y-78514000I-4763589J1712663D01*
G01*
X189418663Y-75500411D02*
G75*
G03X185956000Y-75514000I-1712663J-4763589D01*
G01*
X177955000Y-103658000D02*
X174865000Y-103658000D01*
X178910000Y-106218000D02*
G75*
G03X178910000Y-106218000I-2500000J0D01*
G01*
X176409538Y-109208000D02*
G75*
G03X177954830Y-103658000I462J2990000D01*
G01*
X176410462Y-109208000D02*
G75*
G02X174865170Y-103658000I-462J2990000D01*
G01*
X170090000Y-105635436D02*
X170090000Y-106839564D01*
X171910000Y-105635436D02*
X171910000Y-106839564D01*
X171839564Y-65590000D02*
X170635436Y-65590000D01*
X171839564Y-67410000D02*
X170635436Y-67410000D01*
X171160436Y-79160000D02*
X172364564Y-79160000D01*
X171160436Y-77340000D02*
X172364564Y-77340000D01*
X170635436Y-63410000D02*
X171839564Y-63410000D01*
X170635436Y-61590000D02*
X171839564Y-61590000D01*
X170885436Y-57910000D02*
X172089564Y-57910000D01*
X170885436Y-56090000D02*
X172089564Y-56090000D01*
X159000000Y-95500000D02*
X159000000Y-97000000D01*
X160250000Y-99500000D02*
X164750000Y-99500000D01*
X166000000Y-97000000D02*
X166000000Y-95500000D01*
X164750000Y-93000000D02*
X160250000Y-93000000D01*
X162754000Y-51502000D02*
X164084000Y-51502000D01*
X162754000Y-52832000D02*
X162754000Y-51502000D01*
X162754000Y-54102000D02*
X165414000Y-54102000D01*
X165414000Y-54102000D02*
X165414000Y-89722000D01*
X162754000Y-54102000D02*
X162754000Y-89722000D01*
X162754000Y-89722000D02*
X165414000Y-89722000D01*
X180654000Y-89722000D02*
X179324000Y-89722000D01*
X180654000Y-88392000D02*
X180654000Y-89722000D01*
X180654000Y-87122000D02*
X177994000Y-87122000D01*
X177994000Y-87122000D02*
X177994000Y-51502000D01*
X180654000Y-87122000D02*
X180654000Y-51502000D01*
X180654000Y-51502000D02*
X177994000Y-51502000D01*
X154892000Y-84040000D02*
X154892000Y-96380000D01*
X143302000Y-93580000D02*
X143302000Y-96380000D01*
X143302000Y-91081000D02*
X143302000Y-91840000D01*
X143302000Y-88581000D02*
X143302000Y-89340000D01*
X143302000Y-84040000D02*
X143302000Y-86839000D01*
X151877000Y-96380000D02*
X154892000Y-96380000D01*
X143302000Y-96380000D02*
X147968000Y-96380000D01*
X151877000Y-84040000D02*
X154892000Y-84040000D01*
X143302000Y-84040000D02*
X147968000Y-84040000D01*
X143556000Y-68292000D02*
X148222000Y-68292000D01*
X152131000Y-68292000D02*
X155146000Y-68292000D01*
X143556000Y-80632000D02*
X148222000Y-80632000D01*
X152131000Y-80632000D02*
X155146000Y-80632000D01*
X143556000Y-68292000D02*
X143556000Y-71091000D01*
X143556000Y-72833000D02*
X143556000Y-73592000D01*
X143556000Y-75333000D02*
X143556000Y-76092000D01*
X143556000Y-77832000D02*
X143556000Y-80632000D01*
X155146000Y-68292000D02*
X155146000Y-80632000D01*
X155146000Y-52036000D02*
X155146000Y-64376000D01*
X143556000Y-61576000D02*
X143556000Y-64376000D01*
X143556000Y-59077000D02*
X143556000Y-59836000D01*
X143556000Y-56577000D02*
X143556000Y-57336000D01*
X143556000Y-52036000D02*
X143556000Y-54835000D01*
X152131000Y-64376000D02*
X155146000Y-64376000D01*
X143556000Y-64376000D02*
X148222000Y-64376000D01*
X152131000Y-52036000D02*
X155146000Y-52036000D01*
X143556000Y-52036000D02*
X148222000Y-52036000D01*
X143556000Y-100042000D02*
X148222000Y-100042000D01*
X152131000Y-100042000D02*
X155146000Y-100042000D01*
X143556000Y-112382000D02*
X148222000Y-112382000D01*
X152131000Y-112382000D02*
X155146000Y-112382000D01*
X143556000Y-100042000D02*
X143556000Y-102841000D01*
X143556000Y-104583000D02*
X143556000Y-105342000D01*
X143556000Y-107083000D02*
X143556000Y-107842000D01*
X143556000Y-109582000D02*
X143556000Y-112382000D01*
X155146000Y-100042000D02*
X155146000Y-112382000D01*
X182942411Y-53151337D02*
G75*
G03X182956000Y-56614000I4763589J-1712663D01*
G01*
X185993337Y-59627589D02*
G75*
G03X189456000Y-59614000I1712663J4763589D01*
G01*
X192469589Y-56576663D02*
G75*
G03X192456000Y-53114000I-4763589J1712663D01*
G01*
X189418663Y-50100411D02*
G75*
G03X185956000Y-50114000I-1712663J-4763589D01*
G01*
X189418663Y-62800411D02*
G75*
G03X185956000Y-62814000I-1712663J-4763589D01*
G01*
X192469589Y-69276663D02*
G75*
G03X192456000Y-65814000I-4763589J1712663D01*
G01*
X185993337Y-72327589D02*
G75*
G03X189456000Y-72314000I1712663J4763589D01*
G01*
X182942411Y-65851337D02*
G75*
G03X182956000Y-69314000I4763589J-1712663D01*
G01*
X182942411Y-91251337D02*
G75*
G03X182956000Y-94714000I4763589J-1712663D01*
G01*
X185993337Y-97727589D02*
G75*
G03X189456000Y-97714000I1712663J4763589D01*
G01*
X192469589Y-94676663D02*
G75*
G03X192456000Y-91214000I-4763589J1712663D01*
G01*
X189418663Y-88200411D02*
G75*
G03X185956000Y-88214000I-1712663J-4763589D01*
G01*
X189418663Y-100900411D02*
G75*
G03X185956000Y-100914000I-1712663J-4763589D01*
G01*
X192469589Y-107376663D02*
G75*
G03X192456000Y-103914000I-4763589J1712663D01*
G01*
X185993337Y-110427589D02*
G75*
G03X189456000Y-110414000I1712663J4763589D01*
G01*
X182942411Y-103951337D02*
G75*
G03X182956000Y-107414000I4763589J-1712663D01*
G01*
X179610000Y-97960000D02*
X179940000Y-97960000D01*
X179610000Y-91390000D02*
X179610000Y-94040000D01*
X170390000Y-91390000D02*
X179610000Y-91390000D01*
X170390000Y-94040000D02*
X170390000Y-91390000D01*
X170390000Y-100610000D02*
X170390000Y-97960000D01*
X179610000Y-100610000D02*
X170390000Y-100610000D01*
X179610000Y-97960000D02*
X179610000Y-100610000D01*
X169650000Y-53835000D02*
X173710000Y-53835000D01*
X173710000Y-53835000D02*
X173710000Y-50665000D01*
X173710000Y-50665000D02*
X169650000Y-50665000D01*
X158250000Y-102900000D02*
X157200000Y-102900000D01*
X157200000Y-103950000D02*
X157200000Y-102900000D01*
X166600000Y-109000000D02*
X166600000Y-117800000D01*
X166600000Y-117800000D02*
X157400000Y-117800000D01*
X163900000Y-103100000D02*
X166600000Y-103100000D01*
X166600000Y-103100000D02*
X166600000Y-105000000D01*
X157400000Y-117800000D02*
X157400000Y-103100000D01*
X157400000Y-103100000D02*
X160000000Y-103100000D01*
D11*
X183816666Y-79716380D02*
X183816666Y-80430666D01*
X183769047Y-80573523D01*
X183673809Y-80668761D01*
X183530952Y-80716380D01*
X183435714Y-80716380D01*
X184197619Y-79716380D02*
X184816666Y-79716380D01*
X184483333Y-80097333D01*
X184626190Y-80097333D01*
X184721428Y-80144952D01*
X184769047Y-80192571D01*
X184816666Y-80287809D01*
X184816666Y-80525904D01*
X184769047Y-80621142D01*
X184721428Y-80668761D01*
X184626190Y-80716380D01*
X184340476Y-80716380D01*
X184245238Y-80668761D01*
X184197619Y-80621142D01*
X180822380Y-106956095D02*
X179822380Y-106956095D01*
X179822380Y-106718000D01*
X179870000Y-106575142D01*
X179965238Y-106479904D01*
X180060476Y-106432285D01*
X180250952Y-106384666D01*
X180393809Y-106384666D01*
X180584285Y-106432285D01*
X180679523Y-106479904D01*
X180774761Y-106575142D01*
X180822380Y-106718000D01*
X180822380Y-106956095D01*
X180822380Y-105432285D02*
X180822380Y-106003714D01*
X180822380Y-105718000D02*
X179822380Y-105718000D01*
X179965238Y-105813238D01*
X180060476Y-105908476D01*
X180108095Y-106003714D01*
X173272380Y-106404166D02*
X172796190Y-106737500D01*
X173272380Y-106975595D02*
X172272380Y-106975595D01*
X172272380Y-106594642D01*
X172320000Y-106499404D01*
X172367619Y-106451785D01*
X172462857Y-106404166D01*
X172605714Y-106404166D01*
X172700952Y-106451785D01*
X172748571Y-106499404D01*
X172796190Y-106594642D01*
X172796190Y-106975595D01*
X173272380Y-105451785D02*
X173272380Y-106023214D01*
X173272380Y-105737500D02*
X172272380Y-105737500D01*
X172415238Y-105832738D01*
X172510476Y-105927976D01*
X172558095Y-106023214D01*
X171070833Y-68677142D02*
X171023214Y-68724761D01*
X170880357Y-68772380D01*
X170785119Y-68772380D01*
X170642261Y-68724761D01*
X170547023Y-68629523D01*
X170499404Y-68534285D01*
X170451785Y-68343809D01*
X170451785Y-68200952D01*
X170499404Y-68010476D01*
X170547023Y-67915238D01*
X170642261Y-67820000D01*
X170785119Y-67772380D01*
X170880357Y-67772380D01*
X171023214Y-67820000D01*
X171070833Y-67867619D01*
X172023214Y-68772380D02*
X171451785Y-68772380D01*
X171737500Y-68772380D02*
X171737500Y-67772380D01*
X171642261Y-67915238D01*
X171547023Y-68010476D01*
X171451785Y-68058095D01*
X170642261Y-65132380D02*
X170070833Y-65132380D01*
X170356547Y-65132380D02*
X170356547Y-64132380D01*
X170261309Y-64275238D01*
X170166071Y-64370476D01*
X170070833Y-64418095D01*
X171070833Y-64465714D02*
X171070833Y-65132380D01*
X171070833Y-64560952D02*
X171118452Y-64513333D01*
X171213690Y-64465714D01*
X171356547Y-64465714D01*
X171451785Y-64513333D01*
X171499404Y-64608571D01*
X171499404Y-65132380D01*
X172308928Y-64608571D02*
X171975595Y-64608571D01*
X171975595Y-65132380D02*
X171975595Y-64132380D01*
X172451785Y-64132380D01*
X171595833Y-76882380D02*
X171262500Y-76406190D01*
X171024404Y-76882380D02*
X171024404Y-75882380D01*
X171405357Y-75882380D01*
X171500595Y-75930000D01*
X171548214Y-75977619D01*
X171595833Y-76072857D01*
X171595833Y-76215714D01*
X171548214Y-76310952D01*
X171500595Y-76358571D01*
X171405357Y-76406190D01*
X171024404Y-76406190D01*
X172452976Y-76215714D02*
X172452976Y-76882380D01*
X172214880Y-75834761D02*
X171976785Y-76549047D01*
X172595833Y-76549047D01*
X171167261Y-80522380D02*
X170595833Y-80522380D01*
X170881547Y-80522380D02*
X170881547Y-79522380D01*
X170786309Y-79665238D01*
X170691071Y-79760476D01*
X170595833Y-79808095D01*
X171786309Y-79522380D02*
X171881547Y-79522380D01*
X171976785Y-79570000D01*
X172024404Y-79617619D01*
X172072023Y-79712857D01*
X172119642Y-79903333D01*
X172119642Y-80141428D01*
X172072023Y-80331904D01*
X172024404Y-80427142D01*
X171976785Y-80474761D01*
X171881547Y-80522380D01*
X171786309Y-80522380D01*
X171691071Y-80474761D01*
X171643452Y-80427142D01*
X171595833Y-80331904D01*
X171548214Y-80141428D01*
X171548214Y-79903333D01*
X171595833Y-79712857D01*
X171643452Y-79617619D01*
X171691071Y-79570000D01*
X171786309Y-79522380D01*
X172548214Y-80522380D02*
X172548214Y-79522380D01*
X172643452Y-80141428D02*
X172929166Y-80522380D01*
X172929166Y-79855714D02*
X172548214Y-80236666D01*
X171070833Y-61132380D02*
X170737500Y-60656190D01*
X170499404Y-61132380D02*
X170499404Y-60132380D01*
X170880357Y-60132380D01*
X170975595Y-60180000D01*
X171023214Y-60227619D01*
X171070833Y-60322857D01*
X171070833Y-60465714D01*
X171023214Y-60560952D01*
X170975595Y-60608571D01*
X170880357Y-60656190D01*
X170499404Y-60656190D01*
X171404166Y-60132380D02*
X172023214Y-60132380D01*
X171689880Y-60513333D01*
X171832738Y-60513333D01*
X171927976Y-60560952D01*
X171975595Y-60608571D01*
X172023214Y-60703809D01*
X172023214Y-60941904D01*
X171975595Y-61037142D01*
X171927976Y-61084761D01*
X171832738Y-61132380D01*
X171547023Y-61132380D01*
X171451785Y-61084761D01*
X171404166Y-61037142D01*
X173488095Y-60952380D02*
X172916666Y-60952380D01*
X173202380Y-60952380D02*
X173202380Y-59952380D01*
X173107142Y-60095238D01*
X173011904Y-60190476D01*
X172916666Y-60238095D01*
X174107142Y-59952380D02*
X174202380Y-59952380D01*
X174297619Y-60000000D01*
X174345238Y-60047619D01*
X174392857Y-60142857D01*
X174440476Y-60333333D01*
X174440476Y-60571428D01*
X174392857Y-60761904D01*
X174345238Y-60857142D01*
X174297619Y-60904761D01*
X174202380Y-60952380D01*
X174107142Y-60952380D01*
X174011904Y-60904761D01*
X173964285Y-60857142D01*
X173916666Y-60761904D01*
X173869047Y-60571428D01*
X173869047Y-60333333D01*
X173916666Y-60142857D01*
X173964285Y-60047619D01*
X174011904Y-60000000D01*
X174107142Y-59952380D01*
X175011904Y-60952380D02*
X174916666Y-60904761D01*
X174869047Y-60857142D01*
X174821428Y-60761904D01*
X174821428Y-60476190D01*
X174869047Y-60380952D01*
X174916666Y-60333333D01*
X175011904Y-60285714D01*
X175154761Y-60285714D01*
X175250000Y-60333333D01*
X175297619Y-60380952D01*
X175345238Y-60476190D01*
X175345238Y-60761904D01*
X175297619Y-60857142D01*
X175250000Y-60904761D01*
X175154761Y-60952380D01*
X175011904Y-60952380D01*
X175773809Y-60952380D02*
X175773809Y-59952380D01*
X176202380Y-60952380D02*
X176202380Y-60428571D01*
X176154761Y-60333333D01*
X176059523Y-60285714D01*
X175916666Y-60285714D01*
X175821428Y-60333333D01*
X175773809Y-60380952D01*
X176678571Y-60952380D02*
X176678571Y-60285714D01*
X176678571Y-60380952D02*
X176726190Y-60333333D01*
X176821428Y-60285714D01*
X176964285Y-60285714D01*
X177059523Y-60333333D01*
X177107142Y-60428571D01*
X177107142Y-60952380D01*
X177107142Y-60428571D02*
X177154761Y-60333333D01*
X177250000Y-60285714D01*
X177392857Y-60285714D01*
X177488095Y-60333333D01*
X177535714Y-60428571D01*
X177535714Y-60952380D01*
X169333333Y-59452380D02*
X169000000Y-58976190D01*
X168761904Y-59452380D02*
X168761904Y-58452380D01*
X169142857Y-58452380D01*
X169238095Y-58500000D01*
X169285714Y-58547619D01*
X169333333Y-58642857D01*
X169333333Y-58785714D01*
X169285714Y-58880952D01*
X169238095Y-58928571D01*
X169142857Y-58976190D01*
X168761904Y-58976190D01*
X169714285Y-58547619D02*
X169761904Y-58500000D01*
X169857142Y-58452380D01*
X170095238Y-58452380D01*
X170190476Y-58500000D01*
X170238095Y-58547619D01*
X170285714Y-58642857D01*
X170285714Y-58738095D01*
X170238095Y-58880952D01*
X169666666Y-59452380D01*
X170285714Y-59452380D01*
X172714285Y-58785714D02*
X172714285Y-59452380D01*
X172476190Y-58404761D02*
X172238095Y-59119047D01*
X172857142Y-59119047D01*
X173142857Y-58452380D02*
X173809523Y-58452380D01*
X173380952Y-59452380D01*
X161166666Y-100904761D02*
X161309523Y-100952380D01*
X161547619Y-100952380D01*
X161642857Y-100904761D01*
X161690476Y-100857142D01*
X161738095Y-100761904D01*
X161738095Y-100666666D01*
X161690476Y-100571428D01*
X161642857Y-100523809D01*
X161547619Y-100476190D01*
X161357142Y-100428571D01*
X161261904Y-100380952D01*
X161214285Y-100333333D01*
X161166666Y-100238095D01*
X161166666Y-100142857D01*
X161214285Y-100047619D01*
X161261904Y-100000000D01*
X161357142Y-99952380D01*
X161595238Y-99952380D01*
X161738095Y-100000000D01*
X162071428Y-99952380D02*
X162309523Y-100952380D01*
X162500000Y-100238095D01*
X162690476Y-100952380D01*
X162928571Y-99952380D01*
X163833333Y-100952380D02*
X163261904Y-100952380D01*
X163547619Y-100952380D02*
X163547619Y-99952380D01*
X163452380Y-100095238D01*
X163357142Y-100190476D01*
X163261904Y-100238095D01*
X163750666Y-49954380D02*
X163750666Y-50668666D01*
X163703047Y-50811523D01*
X163607809Y-50906761D01*
X163464952Y-50954380D01*
X163369714Y-50954380D01*
X164369714Y-50382952D02*
X164274476Y-50335333D01*
X164226857Y-50287714D01*
X164179238Y-50192476D01*
X164179238Y-50144857D01*
X164226857Y-50049619D01*
X164274476Y-50002000D01*
X164369714Y-49954380D01*
X164560190Y-49954380D01*
X164655428Y-50002000D01*
X164703047Y-50049619D01*
X164750666Y-50144857D01*
X164750666Y-50192476D01*
X164703047Y-50287714D01*
X164655428Y-50335333D01*
X164560190Y-50382952D01*
X164369714Y-50382952D01*
X164274476Y-50430571D01*
X164226857Y-50478190D01*
X164179238Y-50573428D01*
X164179238Y-50763904D01*
X164226857Y-50859142D01*
X164274476Y-50906761D01*
X164369714Y-50954380D01*
X164560190Y-50954380D01*
X164655428Y-50906761D01*
X164703047Y-50859142D01*
X164750666Y-50763904D01*
X164750666Y-50573428D01*
X164703047Y-50478190D01*
X164655428Y-50430571D01*
X164560190Y-50382952D01*
X178990666Y-90174380D02*
X178990666Y-90888666D01*
X178943047Y-91031523D01*
X178847809Y-91126761D01*
X178704952Y-91174380D01*
X178609714Y-91174380D01*
X179371619Y-90174380D02*
X180038285Y-90174380D01*
X179609714Y-91174380D01*
X147551761Y-82662380D02*
X147218428Y-82186190D01*
X146980333Y-82662380D02*
X146980333Y-81662380D01*
X147361285Y-81662380D01*
X147456523Y-81710000D01*
X147504142Y-81757619D01*
X147551761Y-81852857D01*
X147551761Y-81995714D01*
X147504142Y-82090952D01*
X147456523Y-82138571D01*
X147361285Y-82186190D01*
X146980333Y-82186190D01*
X147837476Y-81662380D02*
X148170809Y-82662380D01*
X148504142Y-81662380D01*
X148789857Y-81757619D02*
X148837476Y-81710000D01*
X148932714Y-81662380D01*
X149170809Y-81662380D01*
X149266047Y-81710000D01*
X149313666Y-81757619D01*
X149361285Y-81852857D01*
X149361285Y-81948095D01*
X149313666Y-82090952D01*
X148742238Y-82662380D01*
X149361285Y-82662380D01*
X147805761Y-66914380D02*
X147472428Y-66438190D01*
X147234333Y-66914380D02*
X147234333Y-65914380D01*
X147615285Y-65914380D01*
X147710523Y-65962000D01*
X147758142Y-66009619D01*
X147805761Y-66104857D01*
X147805761Y-66247714D01*
X147758142Y-66342952D01*
X147710523Y-66390571D01*
X147615285Y-66438190D01*
X147234333Y-66438190D01*
X148091476Y-65914380D02*
X148424809Y-66914380D01*
X148758142Y-65914380D01*
X148996238Y-65914380D02*
X149615285Y-65914380D01*
X149281952Y-66295333D01*
X149424809Y-66295333D01*
X149520047Y-66342952D01*
X149567666Y-66390571D01*
X149615285Y-66485809D01*
X149615285Y-66723904D01*
X149567666Y-66819142D01*
X149520047Y-66866761D01*
X149424809Y-66914380D01*
X149139095Y-66914380D01*
X149043857Y-66866761D01*
X148996238Y-66819142D01*
X147805761Y-50658380D02*
X147472428Y-50182190D01*
X147234333Y-50658380D02*
X147234333Y-49658380D01*
X147615285Y-49658380D01*
X147710523Y-49706000D01*
X147758142Y-49753619D01*
X147805761Y-49848857D01*
X147805761Y-49991714D01*
X147758142Y-50086952D01*
X147710523Y-50134571D01*
X147615285Y-50182190D01*
X147234333Y-50182190D01*
X148091476Y-49658380D02*
X148424809Y-50658380D01*
X148758142Y-49658380D01*
X149520047Y-49991714D02*
X149520047Y-50658380D01*
X149281952Y-49610761D02*
X149043857Y-50325047D01*
X149662904Y-50325047D01*
X147805761Y-98664380D02*
X147472428Y-98188190D01*
X147234333Y-98664380D02*
X147234333Y-97664380D01*
X147615285Y-97664380D01*
X147710523Y-97712000D01*
X147758142Y-97759619D01*
X147805761Y-97854857D01*
X147805761Y-97997714D01*
X147758142Y-98092952D01*
X147710523Y-98140571D01*
X147615285Y-98188190D01*
X147234333Y-98188190D01*
X148091476Y-97664380D02*
X148424809Y-98664380D01*
X148758142Y-97664380D01*
X149615285Y-98664380D02*
X149043857Y-98664380D01*
X149329571Y-98664380D02*
X149329571Y-97664380D01*
X149234333Y-97807238D01*
X149139095Y-97902476D01*
X149043857Y-97950095D01*
X183816666Y-54316380D02*
X183816666Y-55030666D01*
X183769047Y-55173523D01*
X183673809Y-55268761D01*
X183530952Y-55316380D01*
X183435714Y-55316380D01*
X184816666Y-55316380D02*
X184245238Y-55316380D01*
X184530952Y-55316380D02*
X184530952Y-54316380D01*
X184435714Y-54459238D01*
X184340476Y-54554476D01*
X184245238Y-54602095D01*
X183816666Y-67016380D02*
X183816666Y-67730666D01*
X183769047Y-67873523D01*
X183673809Y-67968761D01*
X183530952Y-68016380D01*
X183435714Y-68016380D01*
X184245238Y-67111619D02*
X184292857Y-67064000D01*
X184388095Y-67016380D01*
X184626190Y-67016380D01*
X184721428Y-67064000D01*
X184769047Y-67111619D01*
X184816666Y-67206857D01*
X184816666Y-67302095D01*
X184769047Y-67444952D01*
X184197619Y-68016380D01*
X184816666Y-68016380D01*
X183816666Y-92416380D02*
X183816666Y-93130666D01*
X183769047Y-93273523D01*
X183673809Y-93368761D01*
X183530952Y-93416380D01*
X183435714Y-93416380D01*
X184721428Y-92749714D02*
X184721428Y-93416380D01*
X184483333Y-92368761D02*
X184245238Y-93083047D01*
X184864285Y-93083047D01*
X183816666Y-105116380D02*
X183816666Y-105830666D01*
X183769047Y-105973523D01*
X183673809Y-106068761D01*
X183530952Y-106116380D01*
X183435714Y-106116380D01*
X184769047Y-105116380D02*
X184292857Y-105116380D01*
X184245238Y-105592571D01*
X184292857Y-105544952D01*
X184388095Y-105497333D01*
X184626190Y-105497333D01*
X184721428Y-105544952D01*
X184769047Y-105592571D01*
X184816666Y-105687809D01*
X184816666Y-105925904D01*
X184769047Y-106021142D01*
X184721428Y-106068761D01*
X184626190Y-106116380D01*
X184388095Y-106116380D01*
X184292857Y-106068761D01*
X184245238Y-106021142D01*
X174119047Y-101428571D02*
X174261904Y-101476190D01*
X174309523Y-101523809D01*
X174357142Y-101619047D01*
X174357142Y-101761904D01*
X174309523Y-101857142D01*
X174261904Y-101904761D01*
X174166666Y-101952380D01*
X173785714Y-101952380D01*
X173785714Y-100952380D01*
X174119047Y-100952380D01*
X174214285Y-101000000D01*
X174261904Y-101047619D01*
X174309523Y-101142857D01*
X174309523Y-101238095D01*
X174261904Y-101333333D01*
X174214285Y-101380952D01*
X174119047Y-101428571D01*
X173785714Y-101428571D01*
X174690476Y-100952380D02*
X175357142Y-100952380D01*
X174690476Y-101952380D01*
X175357142Y-101952380D01*
X176261904Y-101952380D02*
X175690476Y-101952380D01*
X175976190Y-101952380D02*
X175976190Y-100952380D01*
X175880952Y-101095238D01*
X175785714Y-101190476D01*
X175690476Y-101238095D01*
X170511904Y-54982380D02*
X170511904Y-53982380D01*
X170750000Y-53982380D01*
X170892857Y-54030000D01*
X170988095Y-54125238D01*
X171035714Y-54220476D01*
X171083333Y-54410952D01*
X171083333Y-54553809D01*
X171035714Y-54744285D01*
X170988095Y-54839523D01*
X170892857Y-54934761D01*
X170750000Y-54982380D01*
X170511904Y-54982380D01*
X171464285Y-54077619D02*
X171511904Y-54030000D01*
X171607142Y-53982380D01*
X171845238Y-53982380D01*
X171940476Y-54030000D01*
X171988095Y-54077619D01*
X172035714Y-54172857D01*
X172035714Y-54268095D01*
X171988095Y-54410952D01*
X171416666Y-54982380D01*
X172035714Y-54982380D01*
X167202380Y-112783333D02*
X167916666Y-112783333D01*
X168059523Y-112830952D01*
X168154761Y-112926190D01*
X168202380Y-113069047D01*
X168202380Y-113164285D01*
X167202380Y-111878571D02*
X167202380Y-112069047D01*
X167250000Y-112164285D01*
X167297619Y-112211904D01*
X167440476Y-112307142D01*
X167630952Y-112354761D01*
X168011904Y-112354761D01*
X168107142Y-112307142D01*
X168154761Y-112259523D01*
X168202380Y-112164285D01*
X168202380Y-111973809D01*
X168154761Y-111878571D01*
X168107142Y-111830952D01*
X168011904Y-111783333D01*
X167773809Y-111783333D01*
X167678571Y-111830952D01*
X167630952Y-111878571D01*
X167583333Y-111973809D01*
X167583333Y-112164285D01*
X167630952Y-112259523D01*
X167678571Y-112307142D01*
X167773809Y-112354761D01*
M02*
