G04 #@! TF.GenerationSoftware,KiCad,Pcbnew,5.1.6-c6e7f7d~86~ubuntu20.04.1*
G04 #@! TF.CreationDate,2020-06-08T22:34:45+01:00*
G04 #@! TF.ProjectId,spikeling,7370696b-656c-4696-9e67-2e6b69636164,rev?*
G04 #@! TF.SameCoordinates,Original*
G04 #@! TF.FileFunction,Copper,L1,Top*
G04 #@! TF.FilePolarity,Positive*
%FSLAX46Y46*%
G04 Gerber Fmt 4.6, Leading zero omitted, Abs format (unit mm)*
G04 Created by KiCad (PCBNEW 5.1.6-c6e7f7d~86~ubuntu20.04.1) date 2020-06-08 22:34:45*
%MOMM*%
%LPD*%
G01*
G04 APERTURE LIST*
G04 #@! TA.AperFunction,ComponentPad*
%ADD10C,3.810000*%
G04 #@! TD*
G04 #@! TA.AperFunction,ComponentPad*
%ADD11C,3.556000*%
G04 #@! TD*
G04 #@! TA.AperFunction,ComponentPad*
%ADD12O,1.700000X1.700000*%
G04 #@! TD*
G04 #@! TA.AperFunction,ComponentPad*
%ADD13R,1.700000X1.700000*%
G04 #@! TD*
G04 #@! TA.AperFunction,WasherPad*
%ADD14C,4.000000*%
G04 #@! TD*
G04 #@! TA.AperFunction,ComponentPad*
%ADD15C,1.800000*%
G04 #@! TD*
G04 #@! TA.AperFunction,SMDPad,CuDef*
%ADD16R,1.300000X3.400000*%
G04 #@! TD*
G04 #@! TA.AperFunction,ComponentPad*
%ADD17R,3.500000X3.500000*%
G04 #@! TD*
G04 #@! TA.AperFunction,SMDPad,CuDef*
%ADD18R,1.550000X1.300000*%
G04 #@! TD*
G04 #@! TA.AperFunction,ViaPad*
%ADD19C,0.800000*%
G04 #@! TD*
G04 #@! TA.AperFunction,Conductor*
%ADD20C,0.500000*%
G04 #@! TD*
G04 #@! TA.AperFunction,Conductor*
%ADD21C,0.254000*%
G04 #@! TD*
G04 APERTURE END LIST*
D10*
X184531000Y-79325000D03*
D11*
X187706000Y-82500000D03*
D10*
X190881000Y-79325000D03*
X184531000Y-85675000D03*
X190881000Y-85675000D03*
G04 #@! TA.AperFunction,SMDPad,CuDef*
G36*
G01*
X176275000Y-105125000D02*
X176275000Y-103875000D01*
G75*
G02*
X176525000Y-103625000I250000J0D01*
G01*
X177450000Y-103625000D01*
G75*
G02*
X177700000Y-103875000I0J-250000D01*
G01*
X177700000Y-105125000D01*
G75*
G02*
X177450000Y-105375000I-250000J0D01*
G01*
X176525000Y-105375000D01*
G75*
G02*
X176275000Y-105125000I0J250000D01*
G01*
G37*
G04 #@! TD.AperFunction*
G04 #@! TA.AperFunction,SMDPad,CuDef*
G36*
G01*
X173300000Y-105125000D02*
X173300000Y-103875000D01*
G75*
G02*
X173550000Y-103625000I250000J0D01*
G01*
X174475000Y-103625000D01*
G75*
G02*
X174725000Y-103875000I0J-250000D01*
G01*
X174725000Y-105125000D01*
G75*
G02*
X174475000Y-105375000I-250000J0D01*
G01*
X173550000Y-105375000D01*
G75*
G02*
X173300000Y-105125000I0J250000D01*
G01*
G37*
G04 #@! TD.AperFunction*
G04 #@! TA.AperFunction,SMDPad,CuDef*
G36*
G01*
X167225000Y-62875000D02*
X167225000Y-64125000D01*
G75*
G02*
X166975000Y-64375000I-250000J0D01*
G01*
X166050000Y-64375000D01*
G75*
G02*
X165800000Y-64125000I0J250000D01*
G01*
X165800000Y-62875000D01*
G75*
G02*
X166050000Y-62625000I250000J0D01*
G01*
X166975000Y-62625000D01*
G75*
G02*
X167225000Y-62875000I0J-250000D01*
G01*
G37*
G04 #@! TD.AperFunction*
G04 #@! TA.AperFunction,SMDPad,CuDef*
G36*
G01*
X170200000Y-62875000D02*
X170200000Y-64125000D01*
G75*
G02*
X169950000Y-64375000I-250000J0D01*
G01*
X169025000Y-64375000D01*
G75*
G02*
X168775000Y-64125000I0J250000D01*
G01*
X168775000Y-62875000D01*
G75*
G02*
X169025000Y-62625000I250000J0D01*
G01*
X169950000Y-62625000D01*
G75*
G02*
X170200000Y-62875000I0J-250000D01*
G01*
G37*
G04 #@! TD.AperFunction*
G04 #@! TA.AperFunction,SMDPad,CuDef*
G36*
G01*
X165375000Y-89275000D02*
X166625000Y-89275000D01*
G75*
G02*
X166875000Y-89525000I0J-250000D01*
G01*
X166875000Y-90450000D01*
G75*
G02*
X166625000Y-90700000I-250000J0D01*
G01*
X165375000Y-90700000D01*
G75*
G02*
X165125000Y-90450000I0J250000D01*
G01*
X165125000Y-89525000D01*
G75*
G02*
X165375000Y-89275000I250000J0D01*
G01*
G37*
G04 #@! TD.AperFunction*
G04 #@! TA.AperFunction,SMDPad,CuDef*
G36*
G01*
X165375000Y-86300000D02*
X166625000Y-86300000D01*
G75*
G02*
X166875000Y-86550000I0J-250000D01*
G01*
X166875000Y-87475000D01*
G75*
G02*
X166625000Y-87725000I-250000J0D01*
G01*
X165375000Y-87725000D01*
G75*
G02*
X165125000Y-87475000I0J250000D01*
G01*
X165125000Y-86550000D01*
G75*
G02*
X165375000Y-86300000I250000J0D01*
G01*
G37*
G04 #@! TD.AperFunction*
G04 #@! TA.AperFunction,SMDPad,CuDef*
G36*
G01*
X168775000Y-60125000D02*
X168775000Y-58875000D01*
G75*
G02*
X169025000Y-58625000I250000J0D01*
G01*
X169950000Y-58625000D01*
G75*
G02*
X170200000Y-58875000I0J-250000D01*
G01*
X170200000Y-60125000D01*
G75*
G02*
X169950000Y-60375000I-250000J0D01*
G01*
X169025000Y-60375000D01*
G75*
G02*
X168775000Y-60125000I0J250000D01*
G01*
G37*
G04 #@! TD.AperFunction*
G04 #@! TA.AperFunction,SMDPad,CuDef*
G36*
G01*
X165800000Y-60125000D02*
X165800000Y-58875000D01*
G75*
G02*
X166050000Y-58625000I250000J0D01*
G01*
X166975000Y-58625000D01*
G75*
G02*
X167225000Y-58875000I0J-250000D01*
G01*
X167225000Y-60125000D01*
G75*
G02*
X166975000Y-60375000I-250000J0D01*
G01*
X166050000Y-60375000D01*
G75*
G02*
X165800000Y-60125000I0J250000D01*
G01*
G37*
G04 #@! TD.AperFunction*
G04 #@! TA.AperFunction,SMDPad,CuDef*
G36*
G01*
X168775000Y-56125000D02*
X168775000Y-54875000D01*
G75*
G02*
X169025000Y-54625000I250000J0D01*
G01*
X169950000Y-54625000D01*
G75*
G02*
X170200000Y-54875000I0J-250000D01*
G01*
X170200000Y-56125000D01*
G75*
G02*
X169950000Y-56375000I-250000J0D01*
G01*
X169025000Y-56375000D01*
G75*
G02*
X168775000Y-56125000I0J250000D01*
G01*
G37*
G04 #@! TD.AperFunction*
G04 #@! TA.AperFunction,SMDPad,CuDef*
G36*
G01*
X165800000Y-56125000D02*
X165800000Y-54875000D01*
G75*
G02*
X166050000Y-54625000I250000J0D01*
G01*
X166975000Y-54625000D01*
G75*
G02*
X167225000Y-54875000I0J-250000D01*
G01*
X167225000Y-56125000D01*
G75*
G02*
X166975000Y-56375000I-250000J0D01*
G01*
X166050000Y-56375000D01*
G75*
G02*
X165800000Y-56125000I0J250000D01*
G01*
G37*
G04 #@! TD.AperFunction*
D12*
X160584000Y-88392000D03*
X160584000Y-85852000D03*
X160584000Y-83312000D03*
X160584000Y-80772000D03*
X160584000Y-78232000D03*
X160584000Y-75692000D03*
X160584000Y-73152000D03*
X160584000Y-70612000D03*
X160584000Y-68072000D03*
X160584000Y-65532000D03*
X160584000Y-62992000D03*
X160584000Y-60452000D03*
X160584000Y-57912000D03*
X160584000Y-55372000D03*
D13*
X160584000Y-52832000D03*
D12*
X175824000Y-52832000D03*
X175824000Y-55372000D03*
X175824000Y-57912000D03*
X175824000Y-60452000D03*
X175824000Y-62992000D03*
X175824000Y-65532000D03*
X175824000Y-68072000D03*
X175824000Y-70612000D03*
X175824000Y-73152000D03*
X175824000Y-75692000D03*
X175824000Y-78232000D03*
X175824000Y-80772000D03*
X175824000Y-83312000D03*
X175824000Y-85852000D03*
D13*
X175824000Y-88392000D03*
D14*
X149922000Y-94960000D03*
X149922000Y-85460000D03*
D15*
X142422000Y-92710000D03*
X142422000Y-90210000D03*
X142422000Y-87710000D03*
X142676000Y-71962000D03*
X142676000Y-74462000D03*
X142676000Y-76962000D03*
D14*
X150176000Y-69712000D03*
X150176000Y-79212000D03*
X150176000Y-62956000D03*
X150176000Y-53456000D03*
D15*
X142676000Y-60706000D03*
X142676000Y-58206000D03*
X142676000Y-55706000D03*
X142676000Y-103712000D03*
X142676000Y-106212000D03*
X142676000Y-108712000D03*
D14*
X150176000Y-101462000D03*
X150176000Y-110962000D03*
D10*
X184531000Y-51689000D03*
D11*
X187706000Y-54864000D03*
D10*
X190881000Y-51689000D03*
X184531000Y-58039000D03*
X190881000Y-58039000D03*
X190881000Y-71675000D03*
X184531000Y-71675000D03*
X190881000Y-65325000D03*
D11*
X187706000Y-68500000D03*
D10*
X184531000Y-65325000D03*
X184531000Y-92825000D03*
D11*
X187706000Y-96000000D03*
D10*
X190881000Y-92825000D03*
X184531000Y-99175000D03*
X190881000Y-99175000D03*
X190881000Y-112675000D03*
X184531000Y-112675000D03*
X190881000Y-106325000D03*
D11*
X187706000Y-109500000D03*
D10*
X184531000Y-106325000D03*
D16*
X179350000Y-96000000D03*
X170650000Y-96000000D03*
G04 #@! TA.AperFunction,SMDPad,CuDef*
G36*
G01*
X170200000Y-50425000D02*
X170200000Y-52575000D01*
G75*
G02*
X169950000Y-52825000I-250000J0D01*
G01*
X169025000Y-52825000D01*
G75*
G02*
X168775000Y-52575000I0J250000D01*
G01*
X168775000Y-50425000D01*
G75*
G02*
X169025000Y-50175000I250000J0D01*
G01*
X169950000Y-50175000D01*
G75*
G02*
X170200000Y-50425000I0J-250000D01*
G01*
G37*
G04 #@! TD.AperFunction*
G04 #@! TA.AperFunction,SMDPad,CuDef*
G36*
G01*
X167225000Y-50425000D02*
X167225000Y-52575000D01*
G75*
G02*
X166975000Y-52825000I-250000J0D01*
G01*
X166050000Y-52825000D01*
G75*
G02*
X165800000Y-52575000I0J250000D01*
G01*
X165800000Y-50425000D01*
G75*
G02*
X166050000Y-50175000I250000J0D01*
G01*
X166975000Y-50175000D01*
G75*
G02*
X167225000Y-50425000I0J-250000D01*
G01*
G37*
G04 #@! TD.AperFunction*
D17*
X162000000Y-106500000D03*
G04 #@! TA.AperFunction,ComponentPad*
G36*
G01*
X163000000Y-114000000D02*
X161000000Y-114000000D01*
G75*
G02*
X160250000Y-113250000I0J750000D01*
G01*
X160250000Y-111750000D01*
G75*
G02*
X161000000Y-111000000I750000J0D01*
G01*
X163000000Y-111000000D01*
G75*
G02*
X163750000Y-111750000I0J-750000D01*
G01*
X163750000Y-113250000D01*
G75*
G02*
X163000000Y-114000000I-750000J0D01*
G01*
G37*
G04 #@! TD.AperFunction*
G04 #@! TA.AperFunction,ComponentPad*
G36*
G01*
X167575000Y-111250000D02*
X165825000Y-111250000D01*
G75*
G02*
X164950000Y-110375000I0J875000D01*
G01*
X164950000Y-108625000D01*
G75*
G02*
X165825000Y-107750000I875000J0D01*
G01*
X167575000Y-107750000D01*
G75*
G02*
X168450000Y-108625000I0J-875000D01*
G01*
X168450000Y-110375000D01*
G75*
G02*
X167575000Y-111250000I-875000J0D01*
G01*
G37*
G04 #@! TD.AperFunction*
G04 #@! TA.AperFunction,SMDPad,CuDef*
G36*
G01*
X172800000Y-111150001D02*
X172800000Y-109849999D01*
G75*
G02*
X173049999Y-109600000I249999J0D01*
G01*
X173950001Y-109600000D01*
G75*
G02*
X174200000Y-109849999I0J-249999D01*
G01*
X174200000Y-111150001D01*
G75*
G02*
X173950001Y-111400000I-249999J0D01*
G01*
X173049999Y-111400000D01*
G75*
G02*
X172800000Y-111150001I0J249999D01*
G01*
G37*
G04 #@! TD.AperFunction*
G04 #@! TA.AperFunction,SMDPad,CuDef*
G36*
G01*
X176800000Y-111150001D02*
X176800000Y-109849999D01*
G75*
G02*
X177049999Y-109600000I249999J0D01*
G01*
X177950001Y-109600000D01*
G75*
G02*
X178200000Y-109849999I0J-249999D01*
G01*
X178200000Y-111150001D01*
G75*
G02*
X177950001Y-111400000I-249999J0D01*
G01*
X177049999Y-111400000D01*
G75*
G02*
X176800000Y-111150001I0J249999D01*
G01*
G37*
G04 #@! TD.AperFunction*
D18*
X165975000Y-94750000D03*
X165975000Y-99250000D03*
X158025000Y-99250000D03*
X158025000Y-94750000D03*
D19*
X171500000Y-50500000D03*
X171000000Y-63500000D03*
X170650000Y-101137500D03*
X172500000Y-80000000D03*
X181500000Y-86500000D03*
X181075000Y-93075000D03*
X163500000Y-70000000D03*
X171000000Y-59500000D03*
X171528000Y-82528000D03*
X167528000Y-86528000D03*
X152372001Y-81869997D03*
X152372001Y-88627999D03*
X151750000Y-58750000D03*
X157250000Y-64250000D03*
X156656000Y-72000000D03*
X156500000Y-79000000D03*
X156500000Y-91000000D03*
X152626001Y-94873999D03*
D20*
X169487500Y-51500000D02*
X170337501Y-50649999D01*
X171350001Y-50649999D02*
X171500000Y-50500000D01*
X170337501Y-50649999D02*
X171350001Y-50649999D01*
X169487500Y-63500000D02*
X171000000Y-63500000D01*
X170650000Y-101137500D02*
X170650000Y-101137500D01*
X170650000Y-96000000D02*
X170650000Y-101137500D01*
X174012500Y-109987500D02*
X173500000Y-110500000D01*
X174012500Y-104500000D02*
X174012500Y-109987500D01*
X170650000Y-101137500D02*
X174012500Y-104500000D01*
X166000000Y-87012500D02*
X164012500Y-87012500D01*
X162852000Y-85852000D02*
X160584000Y-85852000D01*
X164012500Y-87012500D02*
X162852000Y-85852000D01*
X166512500Y-59500000D02*
X166512500Y-63500000D01*
X166512500Y-63500000D02*
X166512500Y-66512500D01*
X172500000Y-72500000D02*
X172500000Y-80000000D01*
X166512500Y-66512500D02*
X172500000Y-72500000D01*
X166512500Y-55500000D02*
X166512500Y-51500000D01*
X180500000Y-94850000D02*
X179350000Y-96000000D01*
X180500000Y-94000000D02*
X180500000Y-94850000D01*
X180600000Y-93900000D02*
X180500000Y-94000000D01*
X180600000Y-93550000D02*
X180600000Y-93900000D01*
X179324000Y-75692000D02*
X181500000Y-77868000D01*
X181500000Y-77868000D02*
X181500000Y-86500000D01*
X181075000Y-93075000D02*
X180600000Y-93550000D01*
X179324000Y-75692000D02*
X175824000Y-75692000D01*
X184000000Y-96000000D02*
X187706000Y-96000000D01*
X181075000Y-93075000D02*
X184000000Y-96000000D01*
X176987500Y-109987500D02*
X177500000Y-110500000D01*
X176987500Y-104500000D02*
X176987500Y-109987500D01*
X176987500Y-104500000D02*
X176987500Y-96487500D01*
X176987500Y-96487500D02*
X172500000Y-92000000D01*
X172500000Y-92000000D02*
X170000000Y-89500000D01*
X170000000Y-88989963D02*
X169977989Y-88967952D01*
X170000000Y-89500000D02*
X170000000Y-88989963D01*
X169977989Y-76477989D02*
X163500000Y-70000000D01*
X169977989Y-88967952D02*
X169977989Y-76477989D01*
X187706000Y-59182000D02*
X187706000Y-54864000D01*
X185420000Y-61468000D02*
X187706000Y-59182000D01*
X182880000Y-61468000D02*
X185420000Y-61468000D01*
X181356000Y-62992000D02*
X182880000Y-61468000D01*
X181356000Y-68072000D02*
X181356000Y-62992000D01*
X180173999Y-69254001D02*
X181356000Y-68072000D01*
X180173999Y-69762001D02*
X180173999Y-69254001D01*
X179324000Y-70612000D02*
X180173999Y-69762001D01*
X179324000Y-70612000D02*
X175824000Y-70612000D01*
X181864000Y-68834000D02*
X183134000Y-67564000D01*
X183134000Y-67564000D02*
X187706000Y-67564000D01*
X181864000Y-70104000D02*
X181864000Y-68834000D01*
X180173999Y-71794001D02*
X181864000Y-70104000D01*
X180173999Y-72302001D02*
X180173999Y-71794001D01*
X179324000Y-73152000D02*
X180173999Y-72302001D01*
X179324000Y-73152000D02*
X175824000Y-73152000D01*
X187706000Y-82778471D02*
X187706000Y-80264000D01*
X187706000Y-83749402D02*
X187706000Y-82778471D01*
X170677999Y-75625999D02*
X160584000Y-65532000D01*
X173500000Y-91500000D02*
X170677999Y-88677999D01*
X177500000Y-91500000D02*
X173500000Y-91500000D01*
X180000000Y-89000000D02*
X177500000Y-91500000D01*
X170677999Y-88677999D02*
X170677999Y-75625999D01*
X187706000Y-87794000D02*
X186500000Y-89000000D01*
X186500000Y-89000000D02*
X180000000Y-89000000D01*
X187706000Y-82500000D02*
X187706000Y-87794000D01*
X171000000Y-59500000D02*
X169487500Y-59500000D01*
X174439500Y-60452000D02*
X169487500Y-55500000D01*
X175824000Y-60452000D02*
X174439500Y-60452000D01*
X167325010Y-88662490D02*
X166000000Y-89987500D01*
X167325010Y-86730990D02*
X167325010Y-88662490D01*
X175824000Y-78232000D02*
X171528000Y-82528000D01*
X166000000Y-94725000D02*
X165975000Y-94750000D01*
X166000000Y-89987500D02*
X166000000Y-94725000D01*
X165975000Y-94750000D02*
X158025000Y-94750000D01*
X167528000Y-86528000D02*
X167325010Y-86730990D01*
X152372001Y-81869997D02*
X152372001Y-88627999D01*
X151750000Y-58750000D02*
X151206000Y-58206000D01*
X151206000Y-58206000D02*
X142676000Y-58206000D01*
X158000000Y-73000000D02*
X158000000Y-65000000D01*
X160692000Y-75692000D02*
X158000000Y-73000000D01*
X158000000Y-65000000D02*
X157250000Y-64250000D01*
X156656000Y-78656000D02*
X156656000Y-78844000D01*
X156656000Y-78844000D02*
X156500000Y-79000000D01*
X156656000Y-72000000D02*
X156656000Y-78656000D01*
X156500000Y-79000000D02*
X156500000Y-91000000D01*
X149052002Y-106212000D02*
X142676000Y-106212000D01*
X152626001Y-102638001D02*
X149052002Y-106212000D01*
X152626001Y-94873999D02*
X152626001Y-102638001D01*
X156500000Y-91000000D02*
X156500000Y-91000000D01*
X152626001Y-94873999D02*
X152626001Y-94873999D01*
D21*
G36*
X165556614Y-49686595D02*
G01*
X165422038Y-49797038D01*
X165311595Y-49931614D01*
X165229528Y-50085150D01*
X165178992Y-50251746D01*
X165161928Y-50425000D01*
X165161928Y-52575000D01*
X165178992Y-52748254D01*
X165229528Y-52914850D01*
X165311595Y-53068386D01*
X165422038Y-53202962D01*
X165556614Y-53313405D01*
X165627501Y-53351295D01*
X165627500Y-54098705D01*
X165556614Y-54136595D01*
X165422038Y-54247038D01*
X165311595Y-54381614D01*
X165229528Y-54535150D01*
X165178992Y-54701746D01*
X165161928Y-54875000D01*
X165161928Y-56125000D01*
X165178992Y-56298254D01*
X165229528Y-56464850D01*
X165311595Y-56618386D01*
X165422038Y-56752962D01*
X165556614Y-56863405D01*
X165710150Y-56945472D01*
X165876746Y-56996008D01*
X166050000Y-57013072D01*
X166975000Y-57013072D01*
X167148254Y-56996008D01*
X167314850Y-56945472D01*
X167468386Y-56863405D01*
X167602962Y-56752962D01*
X167713405Y-56618386D01*
X167795472Y-56464850D01*
X167846008Y-56298254D01*
X167863072Y-56125000D01*
X167863072Y-54875000D01*
X167846008Y-54701746D01*
X167795472Y-54535150D01*
X167713405Y-54381614D01*
X167602962Y-54247038D01*
X167468386Y-54136595D01*
X167397500Y-54098706D01*
X167397500Y-53351294D01*
X167468386Y-53313405D01*
X167602962Y-53202962D01*
X167713405Y-53068386D01*
X167795472Y-52914850D01*
X167846008Y-52748254D01*
X167863072Y-52575000D01*
X167863072Y-50425000D01*
X167846008Y-50251746D01*
X167795472Y-50085150D01*
X167713405Y-49931614D01*
X167602962Y-49797038D01*
X167468386Y-49686595D01*
X167356892Y-49627000D01*
X168643108Y-49627000D01*
X168531614Y-49686595D01*
X168397038Y-49797038D01*
X168286595Y-49931614D01*
X168204528Y-50085150D01*
X168153992Y-50251746D01*
X168136928Y-50425000D01*
X168136928Y-52575000D01*
X168153992Y-52748254D01*
X168204528Y-52914850D01*
X168286595Y-53068386D01*
X168397038Y-53202962D01*
X168531614Y-53313405D01*
X168685150Y-53395472D01*
X168851746Y-53446008D01*
X169025000Y-53463072D01*
X169950000Y-53463072D01*
X170123254Y-53446008D01*
X170289850Y-53395472D01*
X170443386Y-53313405D01*
X170577962Y-53202962D01*
X170688405Y-53068386D01*
X170770472Y-52914850D01*
X170821008Y-52748254D01*
X170838072Y-52575000D01*
X170838072Y-51534999D01*
X171306532Y-51534999D01*
X171350001Y-51539280D01*
X171393470Y-51534999D01*
X171393478Y-51534999D01*
X171396540Y-51534697D01*
X171398061Y-51535000D01*
X171601939Y-51535000D01*
X171801898Y-51495226D01*
X171990256Y-51417205D01*
X172159774Y-51303937D01*
X172303937Y-51159774D01*
X172417205Y-50990256D01*
X172495226Y-50801898D01*
X172535000Y-50601939D01*
X172535000Y-50398061D01*
X172495226Y-50198102D01*
X172417205Y-50009744D01*
X172303937Y-49840226D01*
X172159774Y-49696063D01*
X172056414Y-49627000D01*
X183045121Y-49627000D01*
X182911844Y-49716053D01*
X182558053Y-50069844D01*
X182280081Y-50485859D01*
X182088611Y-50948109D01*
X181991000Y-51438832D01*
X181991000Y-51939168D01*
X182088611Y-52429891D01*
X182280081Y-52892141D01*
X182558053Y-53308156D01*
X182911844Y-53661947D01*
X183327859Y-53939919D01*
X183790109Y-54131389D01*
X184280832Y-54229000D01*
X184781168Y-54229000D01*
X185271891Y-54131389D01*
X185423691Y-54068512D01*
X185385731Y-54160154D01*
X185293000Y-54626340D01*
X185293000Y-55101660D01*
X185385731Y-55567846D01*
X185423691Y-55659488D01*
X185271891Y-55596611D01*
X184781168Y-55499000D01*
X184280832Y-55499000D01*
X183790109Y-55596611D01*
X183327859Y-55788081D01*
X182911844Y-56066053D01*
X182558053Y-56419844D01*
X182280081Y-56835859D01*
X182088611Y-57298109D01*
X181991000Y-57788832D01*
X181991000Y-58289168D01*
X182088611Y-58779891D01*
X182280081Y-59242141D01*
X182558053Y-59658156D01*
X182911844Y-60011947D01*
X183327859Y-60289919D01*
X183790109Y-60481389D01*
X184280832Y-60579000D01*
X184781168Y-60579000D01*
X185126017Y-60510405D01*
X185053422Y-60583000D01*
X182923465Y-60583000D01*
X182879999Y-60578719D01*
X182836533Y-60583000D01*
X182836523Y-60583000D01*
X182706510Y-60595805D01*
X182539687Y-60646411D01*
X182385941Y-60728589D01*
X182385939Y-60728590D01*
X182385940Y-60728590D01*
X182284953Y-60811468D01*
X182284951Y-60811470D01*
X182251183Y-60839183D01*
X182223470Y-60872951D01*
X180760951Y-62335471D01*
X180727184Y-62363183D01*
X180699471Y-62396951D01*
X180699468Y-62396954D01*
X180616590Y-62497941D01*
X180534412Y-62651687D01*
X180483805Y-62818510D01*
X180466719Y-62992000D01*
X180471001Y-63035479D01*
X180471000Y-67705421D01*
X179578950Y-68597472D01*
X179545183Y-68625184D01*
X179517470Y-68658952D01*
X179517467Y-68658955D01*
X179434589Y-68759942D01*
X179352410Y-68913688D01*
X179301804Y-69080511D01*
X179288999Y-69210524D01*
X179288999Y-69210532D01*
X179284718Y-69254001D01*
X179288999Y-69297470D01*
X179288999Y-69395422D01*
X178957422Y-69727000D01*
X177018656Y-69727000D01*
X176977475Y-69665368D01*
X176770632Y-69458525D01*
X176596240Y-69342000D01*
X176770632Y-69225475D01*
X176977475Y-69018632D01*
X177139990Y-68775411D01*
X177251932Y-68505158D01*
X177309000Y-68218260D01*
X177309000Y-67925740D01*
X177251932Y-67638842D01*
X177139990Y-67368589D01*
X176977475Y-67125368D01*
X176770632Y-66918525D01*
X176596240Y-66802000D01*
X176770632Y-66685475D01*
X176977475Y-66478632D01*
X177139990Y-66235411D01*
X177251932Y-65965158D01*
X177309000Y-65678260D01*
X177309000Y-65385740D01*
X177251932Y-65098842D01*
X177139990Y-64828589D01*
X176977475Y-64585368D01*
X176770632Y-64378525D01*
X176596240Y-64262000D01*
X176770632Y-64145475D01*
X176977475Y-63938632D01*
X177139990Y-63695411D01*
X177251932Y-63425158D01*
X177309000Y-63138260D01*
X177309000Y-62845740D01*
X177251932Y-62558842D01*
X177139990Y-62288589D01*
X176977475Y-62045368D01*
X176770632Y-61838525D01*
X176596240Y-61722000D01*
X176770632Y-61605475D01*
X176977475Y-61398632D01*
X177139990Y-61155411D01*
X177251932Y-60885158D01*
X177309000Y-60598260D01*
X177309000Y-60305740D01*
X177251932Y-60018842D01*
X177139990Y-59748589D01*
X176977475Y-59505368D01*
X176770632Y-59298525D01*
X176596240Y-59182000D01*
X176770632Y-59065475D01*
X176977475Y-58858632D01*
X177139990Y-58615411D01*
X177251932Y-58345158D01*
X177309000Y-58058260D01*
X177309000Y-57765740D01*
X177251932Y-57478842D01*
X177139990Y-57208589D01*
X176977475Y-56965368D01*
X176770632Y-56758525D01*
X176596240Y-56642000D01*
X176770632Y-56525475D01*
X176977475Y-56318632D01*
X177139990Y-56075411D01*
X177251932Y-55805158D01*
X177309000Y-55518260D01*
X177309000Y-55225740D01*
X177251932Y-54938842D01*
X177139990Y-54668589D01*
X176977475Y-54425368D01*
X176770632Y-54218525D01*
X176596240Y-54102000D01*
X176770632Y-53985475D01*
X176977475Y-53778632D01*
X177139990Y-53535411D01*
X177251932Y-53265158D01*
X177309000Y-52978260D01*
X177309000Y-52685740D01*
X177251932Y-52398842D01*
X177139990Y-52128589D01*
X176977475Y-51885368D01*
X176770632Y-51678525D01*
X176527411Y-51516010D01*
X176257158Y-51404068D01*
X175970260Y-51347000D01*
X175677740Y-51347000D01*
X175390842Y-51404068D01*
X175120589Y-51516010D01*
X174877368Y-51678525D01*
X174670525Y-51885368D01*
X174508010Y-52128589D01*
X174396068Y-52398842D01*
X174339000Y-52685740D01*
X174339000Y-52978260D01*
X174396068Y-53265158D01*
X174508010Y-53535411D01*
X174670525Y-53778632D01*
X174877368Y-53985475D01*
X175051760Y-54102000D01*
X174877368Y-54218525D01*
X174670525Y-54425368D01*
X174508010Y-54668589D01*
X174396068Y-54938842D01*
X174339000Y-55225740D01*
X174339000Y-55518260D01*
X174396068Y-55805158D01*
X174508010Y-56075411D01*
X174670525Y-56318632D01*
X174877368Y-56525475D01*
X175051760Y-56642000D01*
X174877368Y-56758525D01*
X174670525Y-56965368D01*
X174508010Y-57208589D01*
X174396068Y-57478842D01*
X174339000Y-57765740D01*
X174339000Y-58058260D01*
X174396068Y-58345158D01*
X174508010Y-58615411D01*
X174670525Y-58858632D01*
X174877368Y-59065475D01*
X175051760Y-59182000D01*
X174877368Y-59298525D01*
X174707486Y-59468407D01*
X170838072Y-55598994D01*
X170838072Y-54875000D01*
X170821008Y-54701746D01*
X170770472Y-54535150D01*
X170688405Y-54381614D01*
X170577962Y-54247038D01*
X170443386Y-54136595D01*
X170289850Y-54054528D01*
X170123254Y-54003992D01*
X169950000Y-53986928D01*
X169025000Y-53986928D01*
X168851746Y-54003992D01*
X168685150Y-54054528D01*
X168531614Y-54136595D01*
X168397038Y-54247038D01*
X168286595Y-54381614D01*
X168204528Y-54535150D01*
X168153992Y-54701746D01*
X168136928Y-54875000D01*
X168136928Y-56125000D01*
X168153992Y-56298254D01*
X168204528Y-56464850D01*
X168286595Y-56618386D01*
X168397038Y-56752962D01*
X168531614Y-56863405D01*
X168685150Y-56945472D01*
X168851746Y-56996008D01*
X169025000Y-57013072D01*
X169748994Y-57013072D01*
X171225499Y-58489577D01*
X171101939Y-58465000D01*
X170898061Y-58465000D01*
X170748841Y-58494681D01*
X170688405Y-58381614D01*
X170577962Y-58247038D01*
X170443386Y-58136595D01*
X170289850Y-58054528D01*
X170123254Y-58003992D01*
X169950000Y-57986928D01*
X169025000Y-57986928D01*
X168851746Y-58003992D01*
X168685150Y-58054528D01*
X168531614Y-58136595D01*
X168397038Y-58247038D01*
X168286595Y-58381614D01*
X168204528Y-58535150D01*
X168153992Y-58701746D01*
X168136928Y-58875000D01*
X168136928Y-60125000D01*
X168153992Y-60298254D01*
X168204528Y-60464850D01*
X168286595Y-60618386D01*
X168397038Y-60752962D01*
X168531614Y-60863405D01*
X168685150Y-60945472D01*
X168851746Y-60996008D01*
X169025000Y-61013072D01*
X169950000Y-61013072D01*
X170123254Y-60996008D01*
X170289850Y-60945472D01*
X170443386Y-60863405D01*
X170577962Y-60752962D01*
X170688405Y-60618386D01*
X170748841Y-60505319D01*
X170898061Y-60535000D01*
X171101939Y-60535000D01*
X171301898Y-60495226D01*
X171490256Y-60417205D01*
X171659774Y-60303937D01*
X171803937Y-60159774D01*
X171917205Y-59990256D01*
X171995226Y-59801898D01*
X172035000Y-59601939D01*
X172035000Y-59398061D01*
X172010423Y-59274501D01*
X173782970Y-61047049D01*
X173810683Y-61080817D01*
X173844451Y-61108530D01*
X173844453Y-61108532D01*
X173945441Y-61191411D01*
X174099186Y-61273589D01*
X174266010Y-61324195D01*
X174396023Y-61337000D01*
X174396031Y-61337000D01*
X174439500Y-61341281D01*
X174482969Y-61337000D01*
X174629344Y-61337000D01*
X174670525Y-61398632D01*
X174877368Y-61605475D01*
X175051760Y-61722000D01*
X174877368Y-61838525D01*
X174670525Y-62045368D01*
X174508010Y-62288589D01*
X174396068Y-62558842D01*
X174339000Y-62845740D01*
X174339000Y-63138260D01*
X174396068Y-63425158D01*
X174508010Y-63695411D01*
X174670525Y-63938632D01*
X174877368Y-64145475D01*
X175051760Y-64262000D01*
X174877368Y-64378525D01*
X174670525Y-64585368D01*
X174508010Y-64828589D01*
X174396068Y-65098842D01*
X174339000Y-65385740D01*
X174339000Y-65678260D01*
X174396068Y-65965158D01*
X174508010Y-66235411D01*
X174670525Y-66478632D01*
X174877368Y-66685475D01*
X175051760Y-66802000D01*
X174877368Y-66918525D01*
X174670525Y-67125368D01*
X174508010Y-67368589D01*
X174396068Y-67638842D01*
X174339000Y-67925740D01*
X174339000Y-68218260D01*
X174396068Y-68505158D01*
X174508010Y-68775411D01*
X174670525Y-69018632D01*
X174877368Y-69225475D01*
X175051760Y-69342000D01*
X174877368Y-69458525D01*
X174670525Y-69665368D01*
X174508010Y-69908589D01*
X174396068Y-70178842D01*
X174339000Y-70465740D01*
X174339000Y-70758260D01*
X174396068Y-71045158D01*
X174508010Y-71315411D01*
X174670525Y-71558632D01*
X174877368Y-71765475D01*
X175051760Y-71882000D01*
X174877368Y-71998525D01*
X174670525Y-72205368D01*
X174508010Y-72448589D01*
X174396068Y-72718842D01*
X174339000Y-73005740D01*
X174339000Y-73298260D01*
X174396068Y-73585158D01*
X174508010Y-73855411D01*
X174670525Y-74098632D01*
X174877368Y-74305475D01*
X175051760Y-74422000D01*
X174877368Y-74538525D01*
X174670525Y-74745368D01*
X174508010Y-74988589D01*
X174396068Y-75258842D01*
X174339000Y-75545740D01*
X174339000Y-75838260D01*
X174396068Y-76125158D01*
X174508010Y-76395411D01*
X174670525Y-76638632D01*
X174877368Y-76845475D01*
X175051760Y-76962000D01*
X174877368Y-77078525D01*
X174670525Y-77285368D01*
X174508010Y-77528589D01*
X174396068Y-77798842D01*
X174339000Y-78085740D01*
X174339000Y-78378260D01*
X174353461Y-78450960D01*
X173385000Y-79419421D01*
X173385000Y-72543469D01*
X173389281Y-72500000D01*
X173385000Y-72456531D01*
X173385000Y-72456523D01*
X173372195Y-72326510D01*
X173321589Y-72159687D01*
X173239411Y-72005941D01*
X173198855Y-71956524D01*
X173156532Y-71904953D01*
X173156530Y-71904951D01*
X173128817Y-71871183D01*
X173095051Y-71843472D01*
X167397500Y-66145922D01*
X167397500Y-64901294D01*
X167468386Y-64863405D01*
X167602962Y-64752962D01*
X167713405Y-64618386D01*
X167795472Y-64464850D01*
X167846008Y-64298254D01*
X167863072Y-64125000D01*
X167863072Y-62875000D01*
X168136928Y-62875000D01*
X168136928Y-64125000D01*
X168153992Y-64298254D01*
X168204528Y-64464850D01*
X168286595Y-64618386D01*
X168397038Y-64752962D01*
X168531614Y-64863405D01*
X168685150Y-64945472D01*
X168851746Y-64996008D01*
X169025000Y-65013072D01*
X169950000Y-65013072D01*
X170123254Y-64996008D01*
X170289850Y-64945472D01*
X170443386Y-64863405D01*
X170577962Y-64752962D01*
X170688405Y-64618386D01*
X170748841Y-64505319D01*
X170898061Y-64535000D01*
X171101939Y-64535000D01*
X171301898Y-64495226D01*
X171490256Y-64417205D01*
X171659774Y-64303937D01*
X171803937Y-64159774D01*
X171917205Y-63990256D01*
X171995226Y-63801898D01*
X172035000Y-63601939D01*
X172035000Y-63398061D01*
X171995226Y-63198102D01*
X171917205Y-63009744D01*
X171803937Y-62840226D01*
X171659774Y-62696063D01*
X171490256Y-62582795D01*
X171301898Y-62504774D01*
X171101939Y-62465000D01*
X170898061Y-62465000D01*
X170748841Y-62494681D01*
X170688405Y-62381614D01*
X170577962Y-62247038D01*
X170443386Y-62136595D01*
X170289850Y-62054528D01*
X170123254Y-62003992D01*
X169950000Y-61986928D01*
X169025000Y-61986928D01*
X168851746Y-62003992D01*
X168685150Y-62054528D01*
X168531614Y-62136595D01*
X168397038Y-62247038D01*
X168286595Y-62381614D01*
X168204528Y-62535150D01*
X168153992Y-62701746D01*
X168136928Y-62875000D01*
X167863072Y-62875000D01*
X167846008Y-62701746D01*
X167795472Y-62535150D01*
X167713405Y-62381614D01*
X167602962Y-62247038D01*
X167468386Y-62136595D01*
X167397500Y-62098706D01*
X167397500Y-60901294D01*
X167468386Y-60863405D01*
X167602962Y-60752962D01*
X167713405Y-60618386D01*
X167795472Y-60464850D01*
X167846008Y-60298254D01*
X167863072Y-60125000D01*
X167863072Y-58875000D01*
X167846008Y-58701746D01*
X167795472Y-58535150D01*
X167713405Y-58381614D01*
X167602962Y-58247038D01*
X167468386Y-58136595D01*
X167314850Y-58054528D01*
X167148254Y-58003992D01*
X166975000Y-57986928D01*
X166050000Y-57986928D01*
X165876746Y-58003992D01*
X165710150Y-58054528D01*
X165556614Y-58136595D01*
X165422038Y-58247038D01*
X165311595Y-58381614D01*
X165229528Y-58535150D01*
X165178992Y-58701746D01*
X165161928Y-58875000D01*
X165161928Y-60125000D01*
X165178992Y-60298254D01*
X165229528Y-60464850D01*
X165311595Y-60618386D01*
X165422038Y-60752962D01*
X165556614Y-60863405D01*
X165627500Y-60901295D01*
X165627501Y-62098705D01*
X165556614Y-62136595D01*
X165422038Y-62247038D01*
X165311595Y-62381614D01*
X165229528Y-62535150D01*
X165178992Y-62701746D01*
X165161928Y-62875000D01*
X165161928Y-64125000D01*
X165178992Y-64298254D01*
X165229528Y-64464850D01*
X165311595Y-64618386D01*
X165422038Y-64752962D01*
X165556614Y-64863405D01*
X165627500Y-64901295D01*
X165627501Y-66469021D01*
X165623219Y-66512500D01*
X165640305Y-66685990D01*
X165690912Y-66852813D01*
X165773090Y-67006559D01*
X165855968Y-67107546D01*
X165855971Y-67107549D01*
X165883684Y-67141317D01*
X165917452Y-67169030D01*
X171615000Y-72866579D01*
X171615001Y-79461544D01*
X171582795Y-79509744D01*
X171562999Y-79557535D01*
X171562999Y-75669464D01*
X171567280Y-75625998D01*
X171562999Y-75582532D01*
X171562999Y-75582522D01*
X171550194Y-75452509D01*
X171499588Y-75285686D01*
X171417410Y-75131940D01*
X171306816Y-74997182D01*
X171273048Y-74969469D01*
X162054539Y-65750961D01*
X162069000Y-65678260D01*
X162069000Y-65385740D01*
X162011932Y-65098842D01*
X161899990Y-64828589D01*
X161737475Y-64585368D01*
X161530632Y-64378525D01*
X161356240Y-64262000D01*
X161530632Y-64145475D01*
X161737475Y-63938632D01*
X161899990Y-63695411D01*
X162011932Y-63425158D01*
X162069000Y-63138260D01*
X162069000Y-62845740D01*
X162011932Y-62558842D01*
X161899990Y-62288589D01*
X161737475Y-62045368D01*
X161530632Y-61838525D01*
X161356240Y-61722000D01*
X161530632Y-61605475D01*
X161737475Y-61398632D01*
X161899990Y-61155411D01*
X162011932Y-60885158D01*
X162069000Y-60598260D01*
X162069000Y-60305740D01*
X162011932Y-60018842D01*
X161899990Y-59748589D01*
X161737475Y-59505368D01*
X161530632Y-59298525D01*
X161356240Y-59182000D01*
X161530632Y-59065475D01*
X161737475Y-58858632D01*
X161899990Y-58615411D01*
X162011932Y-58345158D01*
X162069000Y-58058260D01*
X162069000Y-57765740D01*
X162011932Y-57478842D01*
X161899990Y-57208589D01*
X161737475Y-56965368D01*
X161530632Y-56758525D01*
X161356240Y-56642000D01*
X161530632Y-56525475D01*
X161737475Y-56318632D01*
X161899990Y-56075411D01*
X162011932Y-55805158D01*
X162069000Y-55518260D01*
X162069000Y-55225740D01*
X162011932Y-54938842D01*
X161899990Y-54668589D01*
X161737475Y-54425368D01*
X161605620Y-54293513D01*
X161678180Y-54271502D01*
X161788494Y-54212537D01*
X161885185Y-54133185D01*
X161964537Y-54036494D01*
X162023502Y-53926180D01*
X162059812Y-53806482D01*
X162072072Y-53682000D01*
X162072072Y-51982000D01*
X162059812Y-51857518D01*
X162023502Y-51737820D01*
X161964537Y-51627506D01*
X161885185Y-51530815D01*
X161788494Y-51451463D01*
X161678180Y-51392498D01*
X161558482Y-51356188D01*
X161434000Y-51343928D01*
X159734000Y-51343928D01*
X159609518Y-51356188D01*
X159489820Y-51392498D01*
X159379506Y-51451463D01*
X159282815Y-51530815D01*
X159203463Y-51627506D01*
X159144498Y-51737820D01*
X159108188Y-51857518D01*
X159095928Y-51982000D01*
X159095928Y-53682000D01*
X159108188Y-53806482D01*
X159144498Y-53926180D01*
X159203463Y-54036494D01*
X159282815Y-54133185D01*
X159379506Y-54212537D01*
X159489820Y-54271502D01*
X159562380Y-54293513D01*
X159430525Y-54425368D01*
X159268010Y-54668589D01*
X159156068Y-54938842D01*
X159099000Y-55225740D01*
X159099000Y-55518260D01*
X159156068Y-55805158D01*
X159268010Y-56075411D01*
X159430525Y-56318632D01*
X159637368Y-56525475D01*
X159811760Y-56642000D01*
X159637368Y-56758525D01*
X159430525Y-56965368D01*
X159268010Y-57208589D01*
X159156068Y-57478842D01*
X159099000Y-57765740D01*
X159099000Y-58058260D01*
X159156068Y-58345158D01*
X159268010Y-58615411D01*
X159430525Y-58858632D01*
X159637368Y-59065475D01*
X159811760Y-59182000D01*
X159637368Y-59298525D01*
X159430525Y-59505368D01*
X159268010Y-59748589D01*
X159156068Y-60018842D01*
X159099000Y-60305740D01*
X159099000Y-60598260D01*
X159156068Y-60885158D01*
X159268010Y-61155411D01*
X159430525Y-61398632D01*
X159637368Y-61605475D01*
X159811760Y-61722000D01*
X159637368Y-61838525D01*
X159430525Y-62045368D01*
X159268010Y-62288589D01*
X159156068Y-62558842D01*
X159099000Y-62845740D01*
X159099000Y-63138260D01*
X159156068Y-63425158D01*
X159268010Y-63695411D01*
X159430525Y-63938632D01*
X159637368Y-64145475D01*
X159811760Y-64262000D01*
X159637368Y-64378525D01*
X159430525Y-64585368D01*
X159268010Y-64828589D01*
X159156068Y-65098842D01*
X159099000Y-65385740D01*
X159099000Y-65678260D01*
X159156068Y-65965158D01*
X159268010Y-66235411D01*
X159430525Y-66478632D01*
X159637368Y-66685475D01*
X159811760Y-66802000D01*
X159637368Y-66918525D01*
X159430525Y-67125368D01*
X159268010Y-67368589D01*
X159156068Y-67638842D01*
X159099000Y-67925740D01*
X159099000Y-68218260D01*
X159156068Y-68505158D01*
X159268010Y-68775411D01*
X159430525Y-69018632D01*
X159637368Y-69225475D01*
X159811760Y-69342000D01*
X159637368Y-69458525D01*
X159430525Y-69665368D01*
X159268010Y-69908589D01*
X159156068Y-70178842D01*
X159099000Y-70465740D01*
X159099000Y-70758260D01*
X159156068Y-71045158D01*
X159268010Y-71315411D01*
X159430525Y-71558632D01*
X159637368Y-71765475D01*
X159811760Y-71882000D01*
X159637368Y-71998525D01*
X159430525Y-72205368D01*
X159268010Y-72448589D01*
X159156068Y-72718842D01*
X159125267Y-72873689D01*
X158885000Y-72633422D01*
X158885000Y-65043465D01*
X158889281Y-64999999D01*
X158885000Y-64956533D01*
X158885000Y-64956523D01*
X158872195Y-64826510D01*
X158821589Y-64659687D01*
X158739411Y-64505941D01*
X158628817Y-64371183D01*
X158595049Y-64343470D01*
X158256535Y-64004956D01*
X158245226Y-63948102D01*
X158167205Y-63759744D01*
X158053937Y-63590226D01*
X157909774Y-63446063D01*
X157740256Y-63332795D01*
X157551898Y-63254774D01*
X157351939Y-63215000D01*
X157148061Y-63215000D01*
X156948102Y-63254774D01*
X156759744Y-63332795D01*
X156590226Y-63446063D01*
X156446063Y-63590226D01*
X156332795Y-63759744D01*
X156254774Y-63948102D01*
X156215000Y-64148061D01*
X156215000Y-64351939D01*
X156254774Y-64551898D01*
X156332795Y-64740256D01*
X156446063Y-64909774D01*
X156590226Y-65053937D01*
X156759744Y-65167205D01*
X156948102Y-65245226D01*
X157004956Y-65256535D01*
X157115001Y-65366580D01*
X157115000Y-71069848D01*
X156957898Y-71004774D01*
X156757939Y-70965000D01*
X156554061Y-70965000D01*
X156354102Y-71004774D01*
X156165744Y-71082795D01*
X155996226Y-71196063D01*
X155852063Y-71340226D01*
X155738795Y-71509744D01*
X155660774Y-71698102D01*
X155621000Y-71898061D01*
X155621000Y-72101939D01*
X155660774Y-72301898D01*
X155738795Y-72490256D01*
X155771000Y-72538454D01*
X155771001Y-78265288D01*
X155696063Y-78340226D01*
X155582795Y-78509744D01*
X155504774Y-78698102D01*
X155465000Y-78898061D01*
X155465000Y-79101939D01*
X155504774Y-79301898D01*
X155582795Y-79490256D01*
X155615000Y-79538454D01*
X155615001Y-90461544D01*
X155582795Y-90509744D01*
X155504774Y-90698102D01*
X155465000Y-90898061D01*
X155465000Y-91101939D01*
X155504774Y-91301898D01*
X155582795Y-91490256D01*
X155696063Y-91659774D01*
X155840226Y-91803937D01*
X156009744Y-91917205D01*
X156198102Y-91995226D01*
X156398061Y-92035000D01*
X156601939Y-92035000D01*
X156801898Y-91995226D01*
X156990256Y-91917205D01*
X157159774Y-91803937D01*
X157303937Y-91659774D01*
X157417205Y-91490256D01*
X157495226Y-91301898D01*
X157535000Y-91101939D01*
X157535000Y-90898061D01*
X157495226Y-90698102D01*
X157417205Y-90509744D01*
X157385000Y-90461546D01*
X157385000Y-79538454D01*
X157417205Y-79490256D01*
X157495226Y-79301898D01*
X157535000Y-79101939D01*
X157535000Y-78948396D01*
X157541000Y-78887476D01*
X157541000Y-78887467D01*
X157545281Y-78844001D01*
X157541000Y-78800535D01*
X157541000Y-73792578D01*
X159131380Y-75382958D01*
X159099000Y-75545740D01*
X159099000Y-75838260D01*
X159156068Y-76125158D01*
X159268010Y-76395411D01*
X159430525Y-76638632D01*
X159637368Y-76845475D01*
X159811760Y-76962000D01*
X159637368Y-77078525D01*
X159430525Y-77285368D01*
X159268010Y-77528589D01*
X159156068Y-77798842D01*
X159099000Y-78085740D01*
X159099000Y-78378260D01*
X159156068Y-78665158D01*
X159268010Y-78935411D01*
X159430525Y-79178632D01*
X159637368Y-79385475D01*
X159819534Y-79507195D01*
X159702645Y-79576822D01*
X159486412Y-79771731D01*
X159312359Y-80005080D01*
X159187175Y-80267901D01*
X159142524Y-80415110D01*
X159263845Y-80645000D01*
X160457000Y-80645000D01*
X160457000Y-80625000D01*
X160711000Y-80625000D01*
X160711000Y-80645000D01*
X161904155Y-80645000D01*
X162025476Y-80415110D01*
X161980825Y-80267901D01*
X161855641Y-80005080D01*
X161681588Y-79771731D01*
X161465355Y-79576822D01*
X161348466Y-79507195D01*
X161530632Y-79385475D01*
X161737475Y-79178632D01*
X161899990Y-78935411D01*
X162011932Y-78665158D01*
X162069000Y-78378260D01*
X162069000Y-78085740D01*
X162011932Y-77798842D01*
X161899990Y-77528589D01*
X161737475Y-77285368D01*
X161530632Y-77078525D01*
X161356240Y-76962000D01*
X161530632Y-76845475D01*
X161737475Y-76638632D01*
X161899990Y-76395411D01*
X162011932Y-76125158D01*
X162069000Y-75838260D01*
X162069000Y-75545740D01*
X162011932Y-75258842D01*
X161899990Y-74988589D01*
X161737475Y-74745368D01*
X161530632Y-74538525D01*
X161356240Y-74422000D01*
X161530632Y-74305475D01*
X161737475Y-74098632D01*
X161899990Y-73855411D01*
X162011932Y-73585158D01*
X162069000Y-73298260D01*
X162069000Y-73005740D01*
X162011932Y-72718842D01*
X161899990Y-72448589D01*
X161737475Y-72205368D01*
X161530632Y-71998525D01*
X161356240Y-71882000D01*
X161530632Y-71765475D01*
X161737475Y-71558632D01*
X161899990Y-71315411D01*
X162011932Y-71045158D01*
X162069000Y-70758260D01*
X162069000Y-70465740D01*
X162011932Y-70178842D01*
X161899990Y-69908589D01*
X161737475Y-69665368D01*
X161530632Y-69458525D01*
X161356240Y-69342000D01*
X161530632Y-69225475D01*
X161737475Y-69018632D01*
X161899990Y-68775411D01*
X162011932Y-68505158D01*
X162060652Y-68260230D01*
X162933896Y-69133475D01*
X162840226Y-69196063D01*
X162696063Y-69340226D01*
X162582795Y-69509744D01*
X162504774Y-69698102D01*
X162465000Y-69898061D01*
X162465000Y-70101939D01*
X162504774Y-70301898D01*
X162582795Y-70490256D01*
X162696063Y-70659774D01*
X162840226Y-70803937D01*
X163009744Y-70917205D01*
X163198102Y-70995226D01*
X163254957Y-71006535D01*
X169092990Y-76844569D01*
X169092989Y-88924483D01*
X169088708Y-88967952D01*
X169092989Y-89011421D01*
X169092989Y-89011428D01*
X169105794Y-89141441D01*
X169115000Y-89171789D01*
X169115000Y-89456531D01*
X169110719Y-89500000D01*
X169115000Y-89543469D01*
X169115000Y-89543476D01*
X169127805Y-89673489D01*
X169178411Y-89840312D01*
X169260589Y-89994058D01*
X169371183Y-90128817D01*
X169404956Y-90156534D01*
X171904953Y-92656532D01*
X171904959Y-92656537D01*
X176102501Y-96854080D01*
X176102500Y-103098705D01*
X176031614Y-103136595D01*
X175897038Y-103247038D01*
X175786595Y-103381614D01*
X175704528Y-103535150D01*
X175653992Y-103701746D01*
X175636928Y-103875000D01*
X175636928Y-105125000D01*
X175653992Y-105298254D01*
X175704528Y-105464850D01*
X175786595Y-105618386D01*
X175897038Y-105752962D01*
X176031614Y-105863405D01*
X176102500Y-105901295D01*
X176102501Y-109944021D01*
X176098219Y-109987500D01*
X176115305Y-110160990D01*
X176161928Y-110314680D01*
X176161928Y-111150001D01*
X176178992Y-111323255D01*
X176229528Y-111489851D01*
X176311595Y-111643387D01*
X176422038Y-111777962D01*
X176556613Y-111888405D01*
X176710149Y-111970472D01*
X176876745Y-112021008D01*
X177049999Y-112038072D01*
X177950001Y-112038072D01*
X178123255Y-112021008D01*
X178289851Y-111970472D01*
X178443387Y-111888405D01*
X178577962Y-111777962D01*
X178688405Y-111643387D01*
X178770472Y-111489851D01*
X178821008Y-111323255D01*
X178838072Y-111150001D01*
X178838072Y-109849999D01*
X178821008Y-109676745D01*
X178770472Y-109510149D01*
X178688405Y-109356613D01*
X178577962Y-109222038D01*
X178443387Y-109111595D01*
X178289851Y-109029528D01*
X178123255Y-108978992D01*
X177950001Y-108961928D01*
X177872500Y-108961928D01*
X177872500Y-106074832D01*
X181991000Y-106074832D01*
X181991000Y-106575168D01*
X182088611Y-107065891D01*
X182280081Y-107528141D01*
X182558053Y-107944156D01*
X182911844Y-108297947D01*
X183327859Y-108575919D01*
X183790109Y-108767389D01*
X184280832Y-108865000D01*
X184781168Y-108865000D01*
X185271891Y-108767389D01*
X185423691Y-108704512D01*
X185385731Y-108796154D01*
X185293000Y-109262340D01*
X185293000Y-109737660D01*
X185385731Y-110203846D01*
X185423691Y-110295488D01*
X185271891Y-110232611D01*
X184781168Y-110135000D01*
X184280832Y-110135000D01*
X183790109Y-110232611D01*
X183327859Y-110424081D01*
X182911844Y-110702053D01*
X182558053Y-111055844D01*
X182280081Y-111471859D01*
X182088611Y-111934109D01*
X181991000Y-112424832D01*
X181991000Y-112925168D01*
X182088611Y-113415891D01*
X182280081Y-113878141D01*
X182558053Y-114294156D01*
X182911844Y-114647947D01*
X183327859Y-114925919D01*
X183790109Y-115117389D01*
X184280832Y-115215000D01*
X184781168Y-115215000D01*
X185271891Y-115117389D01*
X185734141Y-114925919D01*
X186150156Y-114647947D01*
X186503947Y-114294156D01*
X186781919Y-113878141D01*
X186973389Y-113415891D01*
X187071000Y-112925168D01*
X187071000Y-112424832D01*
X186973389Y-111934109D01*
X186910512Y-111782309D01*
X187002154Y-111820269D01*
X187468340Y-111913000D01*
X187943660Y-111913000D01*
X188409846Y-111820269D01*
X188501488Y-111782309D01*
X188438611Y-111934109D01*
X188341000Y-112424832D01*
X188341000Y-112925168D01*
X188438611Y-113415891D01*
X188630081Y-113878141D01*
X188908053Y-114294156D01*
X189261844Y-114647947D01*
X189677859Y-114925919D01*
X190140109Y-115117389D01*
X190630832Y-115215000D01*
X191131168Y-115215000D01*
X191621891Y-115117389D01*
X192084141Y-114925919D01*
X192500156Y-114647947D01*
X192853947Y-114294156D01*
X193131919Y-113878141D01*
X193323389Y-113415891D01*
X193421000Y-112925168D01*
X193421000Y-112424832D01*
X193323389Y-111934109D01*
X193131919Y-111471859D01*
X192853947Y-111055844D01*
X192500156Y-110702053D01*
X192084141Y-110424081D01*
X191621891Y-110232611D01*
X191131168Y-110135000D01*
X190630832Y-110135000D01*
X190140109Y-110232611D01*
X189988309Y-110295488D01*
X190026269Y-110203846D01*
X190119000Y-109737660D01*
X190119000Y-109262340D01*
X190026269Y-108796154D01*
X189988309Y-108704512D01*
X190140109Y-108767389D01*
X190630832Y-108865000D01*
X191131168Y-108865000D01*
X191621891Y-108767389D01*
X192084141Y-108575919D01*
X192500156Y-108297947D01*
X192853947Y-107944156D01*
X193131919Y-107528141D01*
X193323389Y-107065891D01*
X193421000Y-106575168D01*
X193421000Y-106074832D01*
X193323389Y-105584109D01*
X193131919Y-105121859D01*
X192853947Y-104705844D01*
X192500156Y-104352053D01*
X192084141Y-104074081D01*
X191621891Y-103882611D01*
X191131168Y-103785000D01*
X190630832Y-103785000D01*
X190140109Y-103882611D01*
X189677859Y-104074081D01*
X189261844Y-104352053D01*
X188908053Y-104705844D01*
X188630081Y-105121859D01*
X188438611Y-105584109D01*
X188341000Y-106074832D01*
X188341000Y-106575168D01*
X188438611Y-107065891D01*
X188501488Y-107217691D01*
X188409846Y-107179731D01*
X187943660Y-107087000D01*
X187468340Y-107087000D01*
X187002154Y-107179731D01*
X186910512Y-107217691D01*
X186973389Y-107065891D01*
X187071000Y-106575168D01*
X187071000Y-106074832D01*
X186973389Y-105584109D01*
X186781919Y-105121859D01*
X186503947Y-104705844D01*
X186150156Y-104352053D01*
X185734141Y-104074081D01*
X185271891Y-103882611D01*
X184781168Y-103785000D01*
X184280832Y-103785000D01*
X183790109Y-103882611D01*
X183327859Y-104074081D01*
X182911844Y-104352053D01*
X182558053Y-104705844D01*
X182280081Y-105121859D01*
X182088611Y-105584109D01*
X181991000Y-106074832D01*
X177872500Y-106074832D01*
X177872500Y-105901294D01*
X177943386Y-105863405D01*
X178077962Y-105752962D01*
X178188405Y-105618386D01*
X178270472Y-105464850D01*
X178321008Y-105298254D01*
X178338072Y-105125000D01*
X178338072Y-103875000D01*
X178321008Y-103701746D01*
X178270472Y-103535150D01*
X178188405Y-103381614D01*
X178077962Y-103247038D01*
X177943386Y-103136595D01*
X177872500Y-103098706D01*
X177872500Y-96530965D01*
X177876781Y-96487499D01*
X177872500Y-96444033D01*
X177872500Y-96444023D01*
X177859695Y-96314010D01*
X177809089Y-96147187D01*
X177726911Y-95993441D01*
X177616317Y-95858683D01*
X177582549Y-95830970D01*
X176051579Y-94300000D01*
X178061928Y-94300000D01*
X178061928Y-97700000D01*
X178074188Y-97824482D01*
X178110498Y-97944180D01*
X178169463Y-98054494D01*
X178248815Y-98151185D01*
X178345506Y-98230537D01*
X178455820Y-98289502D01*
X178575518Y-98325812D01*
X178700000Y-98338072D01*
X180000000Y-98338072D01*
X180124482Y-98325812D01*
X180244180Y-98289502D01*
X180354494Y-98230537D01*
X180451185Y-98151185D01*
X180530537Y-98054494D01*
X180589502Y-97944180D01*
X180625812Y-97824482D01*
X180638072Y-97700000D01*
X180638072Y-95963507D01*
X181095049Y-95506530D01*
X181128817Y-95478817D01*
X181188141Y-95406532D01*
X181239411Y-95344059D01*
X181321589Y-95190314D01*
X181372195Y-95023490D01*
X181376878Y-94975938D01*
X181385000Y-94893477D01*
X181385000Y-94893469D01*
X181389281Y-94850000D01*
X181385000Y-94806531D01*
X181385000Y-94636578D01*
X183343470Y-96595049D01*
X183371183Y-96628817D01*
X183404951Y-96656530D01*
X183404953Y-96656532D01*
X183505941Y-96739411D01*
X183622842Y-96801895D01*
X183327859Y-96924081D01*
X182911844Y-97202053D01*
X182558053Y-97555844D01*
X182280081Y-97971859D01*
X182088611Y-98434109D01*
X181991000Y-98924832D01*
X181991000Y-99425168D01*
X182088611Y-99915891D01*
X182280081Y-100378141D01*
X182558053Y-100794156D01*
X182911844Y-101147947D01*
X183327859Y-101425919D01*
X183790109Y-101617389D01*
X184280832Y-101715000D01*
X184781168Y-101715000D01*
X185271891Y-101617389D01*
X185734141Y-101425919D01*
X186150156Y-101147947D01*
X186503947Y-100794156D01*
X186781919Y-100378141D01*
X186973389Y-99915891D01*
X187071000Y-99425168D01*
X187071000Y-98924832D01*
X186973389Y-98434109D01*
X186910512Y-98282309D01*
X187002154Y-98320269D01*
X187468340Y-98413000D01*
X187943660Y-98413000D01*
X188409846Y-98320269D01*
X188501488Y-98282309D01*
X188438611Y-98434109D01*
X188341000Y-98924832D01*
X188341000Y-99425168D01*
X188438611Y-99915891D01*
X188630081Y-100378141D01*
X188908053Y-100794156D01*
X189261844Y-101147947D01*
X189677859Y-101425919D01*
X190140109Y-101617389D01*
X190630832Y-101715000D01*
X191131168Y-101715000D01*
X191621891Y-101617389D01*
X192084141Y-101425919D01*
X192500156Y-101147947D01*
X192853947Y-100794156D01*
X193131919Y-100378141D01*
X193323389Y-99915891D01*
X193421000Y-99425168D01*
X193421000Y-98924832D01*
X193323389Y-98434109D01*
X193131919Y-97971859D01*
X192853947Y-97555844D01*
X192500156Y-97202053D01*
X192084141Y-96924081D01*
X191621891Y-96732611D01*
X191131168Y-96635000D01*
X190630832Y-96635000D01*
X190140109Y-96732611D01*
X189988309Y-96795488D01*
X190026269Y-96703846D01*
X190119000Y-96237660D01*
X190119000Y-95762340D01*
X190026269Y-95296154D01*
X189988309Y-95204512D01*
X190140109Y-95267389D01*
X190630832Y-95365000D01*
X191131168Y-95365000D01*
X191621891Y-95267389D01*
X192084141Y-95075919D01*
X192500156Y-94797947D01*
X192853947Y-94444156D01*
X193131919Y-94028141D01*
X193323389Y-93565891D01*
X193421000Y-93075168D01*
X193421000Y-92574832D01*
X193323389Y-92084109D01*
X193131919Y-91621859D01*
X192853947Y-91205844D01*
X192500156Y-90852053D01*
X192084141Y-90574081D01*
X191621891Y-90382611D01*
X191131168Y-90285000D01*
X190630832Y-90285000D01*
X190140109Y-90382611D01*
X189677859Y-90574081D01*
X189261844Y-90852053D01*
X188908053Y-91205844D01*
X188630081Y-91621859D01*
X188438611Y-92084109D01*
X188341000Y-92574832D01*
X188341000Y-93075168D01*
X188438611Y-93565891D01*
X188501488Y-93717691D01*
X188409846Y-93679731D01*
X187943660Y-93587000D01*
X187468340Y-93587000D01*
X187002154Y-93679731D01*
X186910512Y-93717691D01*
X186973389Y-93565891D01*
X187071000Y-93075168D01*
X187071000Y-92574832D01*
X186973389Y-92084109D01*
X186781919Y-91621859D01*
X186503947Y-91205844D01*
X186150156Y-90852053D01*
X185734141Y-90574081D01*
X185271891Y-90382611D01*
X184781168Y-90285000D01*
X184280832Y-90285000D01*
X183790109Y-90382611D01*
X183327859Y-90574081D01*
X182911844Y-90852053D01*
X182558053Y-91205844D01*
X182280081Y-91621859D01*
X182088611Y-92084109D01*
X181991000Y-92574832D01*
X181991000Y-92582941D01*
X181878937Y-92415226D01*
X181734774Y-92271063D01*
X181565256Y-92157795D01*
X181376898Y-92079774D01*
X181176939Y-92040000D01*
X180973061Y-92040000D01*
X180773102Y-92079774D01*
X180584744Y-92157795D01*
X180415226Y-92271063D01*
X180271063Y-92415226D01*
X180157795Y-92584744D01*
X180079774Y-92773102D01*
X180068465Y-92829957D01*
X180004956Y-92893466D01*
X179971183Y-92921183D01*
X179860589Y-93055942D01*
X179778411Y-93209688D01*
X179727805Y-93376511D01*
X179715000Y-93506524D01*
X179715000Y-93506531D01*
X179710719Y-93550000D01*
X179714814Y-93591582D01*
X179678411Y-93659688D01*
X179677731Y-93661928D01*
X178700000Y-93661928D01*
X178575518Y-93674188D01*
X178455820Y-93710498D01*
X178345506Y-93769463D01*
X178248815Y-93848815D01*
X178169463Y-93945506D01*
X178110498Y-94055820D01*
X178074188Y-94175518D01*
X178061928Y-94300000D01*
X176051579Y-94300000D01*
X174136578Y-92385000D01*
X177456531Y-92385000D01*
X177500000Y-92389281D01*
X177543469Y-92385000D01*
X177543477Y-92385000D01*
X177673490Y-92372195D01*
X177840313Y-92321589D01*
X177994059Y-92239411D01*
X178128817Y-92128817D01*
X178156534Y-92095044D01*
X180366579Y-89885000D01*
X186456531Y-89885000D01*
X186500000Y-89889281D01*
X186543469Y-89885000D01*
X186543477Y-89885000D01*
X186673490Y-89872195D01*
X186840313Y-89821589D01*
X186994059Y-89739411D01*
X187128817Y-89628817D01*
X187156534Y-89595044D01*
X188301049Y-88450530D01*
X188334817Y-88422817D01*
X188377193Y-88371183D01*
X188445411Y-88288059D01*
X188527589Y-88134314D01*
X188578195Y-87967490D01*
X188582569Y-87923080D01*
X188591000Y-87837477D01*
X188591000Y-87837469D01*
X188595281Y-87794000D01*
X188591000Y-87750531D01*
X188591000Y-86783791D01*
X188630081Y-86878141D01*
X188908053Y-87294156D01*
X189261844Y-87647947D01*
X189677859Y-87925919D01*
X190140109Y-88117389D01*
X190630832Y-88215000D01*
X191131168Y-88215000D01*
X191621891Y-88117389D01*
X192084141Y-87925919D01*
X192500156Y-87647947D01*
X192853947Y-87294156D01*
X193131919Y-86878141D01*
X193323389Y-86415891D01*
X193421000Y-85925168D01*
X193421000Y-85424832D01*
X193323389Y-84934109D01*
X193131919Y-84471859D01*
X192853947Y-84055844D01*
X192500156Y-83702053D01*
X192084141Y-83424081D01*
X191621891Y-83232611D01*
X191131168Y-83135000D01*
X190630832Y-83135000D01*
X190140109Y-83232611D01*
X189988309Y-83295488D01*
X190026269Y-83203846D01*
X190119000Y-82737660D01*
X190119000Y-82262340D01*
X190026269Y-81796154D01*
X189988309Y-81704512D01*
X190140109Y-81767389D01*
X190630832Y-81865000D01*
X191131168Y-81865000D01*
X191621891Y-81767389D01*
X192084141Y-81575919D01*
X192500156Y-81297947D01*
X192853947Y-80944156D01*
X193131919Y-80528141D01*
X193323389Y-80065891D01*
X193421000Y-79575168D01*
X193421000Y-79074832D01*
X193323389Y-78584109D01*
X193131919Y-78121859D01*
X192853947Y-77705844D01*
X192500156Y-77352053D01*
X192084141Y-77074081D01*
X191621891Y-76882611D01*
X191131168Y-76785000D01*
X190630832Y-76785000D01*
X190140109Y-76882611D01*
X189677859Y-77074081D01*
X189261844Y-77352053D01*
X188908053Y-77705844D01*
X188630081Y-78121859D01*
X188438611Y-78584109D01*
X188341000Y-79074832D01*
X188341000Y-79575168D01*
X188358735Y-79664327D01*
X188334817Y-79635183D01*
X188200059Y-79524589D01*
X188046313Y-79442411D01*
X187879490Y-79391805D01*
X187706000Y-79374718D01*
X187532511Y-79391805D01*
X187365688Y-79442411D01*
X187211942Y-79524589D01*
X187077184Y-79635183D01*
X187053265Y-79664328D01*
X187071000Y-79575168D01*
X187071000Y-79074832D01*
X186973389Y-78584109D01*
X186781919Y-78121859D01*
X186503947Y-77705844D01*
X186150156Y-77352053D01*
X185734141Y-77074081D01*
X185271891Y-76882611D01*
X184781168Y-76785000D01*
X184280832Y-76785000D01*
X183790109Y-76882611D01*
X183327859Y-77074081D01*
X182911844Y-77352053D01*
X182558053Y-77705844D01*
X182385000Y-77964836D01*
X182385000Y-77911469D01*
X182389281Y-77868000D01*
X182385000Y-77824531D01*
X182385000Y-77824523D01*
X182372195Y-77694510D01*
X182321589Y-77527687D01*
X182239411Y-77373941D01*
X182178382Y-77299577D01*
X182156532Y-77272953D01*
X182156530Y-77272951D01*
X182128817Y-77239183D01*
X182095050Y-77211471D01*
X179980534Y-75096956D01*
X179952817Y-75063183D01*
X179818059Y-74952589D01*
X179664313Y-74870411D01*
X179497490Y-74819805D01*
X179367477Y-74807000D01*
X179367469Y-74807000D01*
X179324000Y-74802719D01*
X179280531Y-74807000D01*
X177018656Y-74807000D01*
X176977475Y-74745368D01*
X176770632Y-74538525D01*
X176596240Y-74422000D01*
X176770632Y-74305475D01*
X176977475Y-74098632D01*
X177018656Y-74037000D01*
X179280531Y-74037000D01*
X179324000Y-74041281D01*
X179367469Y-74037000D01*
X179367477Y-74037000D01*
X179497490Y-74024195D01*
X179664313Y-73973589D01*
X179818059Y-73891411D01*
X179952817Y-73780817D01*
X179980534Y-73747044D01*
X180769049Y-72958530D01*
X180802816Y-72930818D01*
X180846048Y-72878141D01*
X180913409Y-72796061D01*
X180913410Y-72796060D01*
X180995588Y-72642314D01*
X181046194Y-72475491D01*
X181058999Y-72345478D01*
X181058999Y-72345468D01*
X181063280Y-72302002D01*
X181058999Y-72258536D01*
X181058999Y-72160579D01*
X182039730Y-71179848D01*
X181991000Y-71424832D01*
X181991000Y-71925168D01*
X182088611Y-72415891D01*
X182280081Y-72878141D01*
X182558053Y-73294156D01*
X182911844Y-73647947D01*
X183327859Y-73925919D01*
X183790109Y-74117389D01*
X184280832Y-74215000D01*
X184781168Y-74215000D01*
X185271891Y-74117389D01*
X185734141Y-73925919D01*
X186150156Y-73647947D01*
X186503947Y-73294156D01*
X186781919Y-72878141D01*
X186973389Y-72415891D01*
X187071000Y-71925168D01*
X187071000Y-71424832D01*
X186973389Y-70934109D01*
X186910512Y-70782309D01*
X187002154Y-70820269D01*
X187468340Y-70913000D01*
X187943660Y-70913000D01*
X188409846Y-70820269D01*
X188501488Y-70782309D01*
X188438611Y-70934109D01*
X188341000Y-71424832D01*
X188341000Y-71925168D01*
X188438611Y-72415891D01*
X188630081Y-72878141D01*
X188908053Y-73294156D01*
X189261844Y-73647947D01*
X189677859Y-73925919D01*
X190140109Y-74117389D01*
X190630832Y-74215000D01*
X191131168Y-74215000D01*
X191621891Y-74117389D01*
X192084141Y-73925919D01*
X192500156Y-73647947D01*
X192853947Y-73294156D01*
X193131919Y-72878141D01*
X193323389Y-72415891D01*
X193421000Y-71925168D01*
X193421000Y-71424832D01*
X193323389Y-70934109D01*
X193131919Y-70471859D01*
X192853947Y-70055844D01*
X192500156Y-69702053D01*
X192084141Y-69424081D01*
X191621891Y-69232611D01*
X191131168Y-69135000D01*
X190630832Y-69135000D01*
X190140109Y-69232611D01*
X189988309Y-69295488D01*
X190026269Y-69203846D01*
X190119000Y-68737660D01*
X190119000Y-68262340D01*
X190026269Y-67796154D01*
X189988309Y-67704512D01*
X190140109Y-67767389D01*
X190630832Y-67865000D01*
X191131168Y-67865000D01*
X191621891Y-67767389D01*
X192084141Y-67575919D01*
X192500156Y-67297947D01*
X192853947Y-66944156D01*
X193131919Y-66528141D01*
X193323389Y-66065891D01*
X193421000Y-65575168D01*
X193421000Y-65074832D01*
X193323389Y-64584109D01*
X193131919Y-64121859D01*
X192853947Y-63705844D01*
X192500156Y-63352053D01*
X192084141Y-63074081D01*
X191621891Y-62882611D01*
X191131168Y-62785000D01*
X190630832Y-62785000D01*
X190140109Y-62882611D01*
X189677859Y-63074081D01*
X189261844Y-63352053D01*
X188908053Y-63705844D01*
X188630081Y-64121859D01*
X188438611Y-64584109D01*
X188341000Y-65074832D01*
X188341000Y-65575168D01*
X188438611Y-66065891D01*
X188501488Y-66217691D01*
X188409846Y-66179731D01*
X187943660Y-66087000D01*
X187468340Y-66087000D01*
X187002154Y-66179731D01*
X186910512Y-66217691D01*
X186973389Y-66065891D01*
X187071000Y-65575168D01*
X187071000Y-65074832D01*
X186973389Y-64584109D01*
X186781919Y-64121859D01*
X186503947Y-63705844D01*
X186150156Y-63352053D01*
X185734141Y-63074081D01*
X185271891Y-62882611D01*
X184781168Y-62785000D01*
X184280832Y-62785000D01*
X183790109Y-62882611D01*
X183327859Y-63074081D01*
X182911844Y-63352053D01*
X182558053Y-63705844D01*
X182280081Y-64121859D01*
X182241000Y-64216209D01*
X182241000Y-63358578D01*
X183246579Y-62353000D01*
X185376531Y-62353000D01*
X185420000Y-62357281D01*
X185463469Y-62353000D01*
X185463477Y-62353000D01*
X185593490Y-62340195D01*
X185760313Y-62289589D01*
X185914059Y-62207411D01*
X186048817Y-62096817D01*
X186076534Y-62063044D01*
X188301050Y-59838529D01*
X188334817Y-59810817D01*
X188445411Y-59676059D01*
X188527589Y-59522313D01*
X188578195Y-59355490D01*
X188591000Y-59225477D01*
X188591000Y-59225467D01*
X188595281Y-59182001D01*
X188592196Y-59150679D01*
X188630081Y-59242141D01*
X188908053Y-59658156D01*
X189261844Y-60011947D01*
X189677859Y-60289919D01*
X190140109Y-60481389D01*
X190630832Y-60579000D01*
X191131168Y-60579000D01*
X191621891Y-60481389D01*
X192084141Y-60289919D01*
X192500156Y-60011947D01*
X192853947Y-59658156D01*
X193131919Y-59242141D01*
X193323389Y-58779891D01*
X193421000Y-58289168D01*
X193421000Y-57788832D01*
X193323389Y-57298109D01*
X193131919Y-56835859D01*
X192853947Y-56419844D01*
X192500156Y-56066053D01*
X192084141Y-55788081D01*
X191621891Y-55596611D01*
X191131168Y-55499000D01*
X190630832Y-55499000D01*
X190140109Y-55596611D01*
X189988309Y-55659488D01*
X190026269Y-55567846D01*
X190119000Y-55101660D01*
X190119000Y-54626340D01*
X190026269Y-54160154D01*
X189988309Y-54068512D01*
X190140109Y-54131389D01*
X190630832Y-54229000D01*
X191131168Y-54229000D01*
X191621891Y-54131389D01*
X192084141Y-53939919D01*
X192500156Y-53661947D01*
X192853947Y-53308156D01*
X193131919Y-52892141D01*
X193323389Y-52429891D01*
X193421000Y-51939168D01*
X193421000Y-51438832D01*
X193323389Y-50948109D01*
X193131919Y-50485859D01*
X192853947Y-50069844D01*
X192500156Y-49716053D01*
X192366879Y-49627000D01*
X194870001Y-49627000D01*
X194870000Y-114034876D01*
X194873000Y-114065337D01*
X194873000Y-115790000D01*
X141127000Y-115790000D01*
X141127000Y-114333127D01*
X141159128Y-114273020D01*
X141199727Y-114139184D01*
X141210000Y-114034877D01*
X141210000Y-110702475D01*
X147541000Y-110702475D01*
X147541000Y-111221525D01*
X147642261Y-111730601D01*
X147840893Y-112210141D01*
X148129262Y-112641715D01*
X148496285Y-113008738D01*
X148927859Y-113297107D01*
X149407399Y-113495739D01*
X149916475Y-113597000D01*
X150435525Y-113597000D01*
X150944601Y-113495739D01*
X151424141Y-113297107D01*
X151855715Y-113008738D01*
X152222738Y-112641715D01*
X152511107Y-112210141D01*
X152701703Y-111750000D01*
X159611928Y-111750000D01*
X159611928Y-113250000D01*
X159638599Y-113520799D01*
X159717589Y-113781192D01*
X159845860Y-114021171D01*
X160018485Y-114231515D01*
X160228829Y-114404140D01*
X160468808Y-114532411D01*
X160729201Y-114611401D01*
X161000000Y-114638072D01*
X163000000Y-114638072D01*
X163270799Y-114611401D01*
X163531192Y-114532411D01*
X163771171Y-114404140D01*
X163981515Y-114231515D01*
X164154140Y-114021171D01*
X164282411Y-113781192D01*
X164361401Y-113520799D01*
X164388072Y-113250000D01*
X164388072Y-111750000D01*
X164361401Y-111479201D01*
X164282411Y-111218808D01*
X164154140Y-110978829D01*
X163981515Y-110768485D01*
X163771171Y-110595860D01*
X163531192Y-110467589D01*
X163270799Y-110388599D01*
X163000000Y-110361928D01*
X161000000Y-110361928D01*
X160729201Y-110388599D01*
X160468808Y-110467589D01*
X160228829Y-110595860D01*
X160018485Y-110768485D01*
X159845860Y-110978829D01*
X159717589Y-111218808D01*
X159638599Y-111479201D01*
X159611928Y-111750000D01*
X152701703Y-111750000D01*
X152709739Y-111730601D01*
X152811000Y-111221525D01*
X152811000Y-110702475D01*
X152709739Y-110193399D01*
X152511107Y-109713859D01*
X152222738Y-109282285D01*
X151855715Y-108915262D01*
X151424141Y-108626893D01*
X150944601Y-108428261D01*
X150435525Y-108327000D01*
X149916475Y-108327000D01*
X149407399Y-108428261D01*
X148927859Y-108626893D01*
X148496285Y-108915262D01*
X148129262Y-109282285D01*
X147840893Y-109713859D01*
X147642261Y-110193399D01*
X147541000Y-110702475D01*
X141210000Y-110702475D01*
X141210000Y-109776080D01*
X141791525Y-109776080D01*
X141875208Y-110030261D01*
X142147775Y-110161158D01*
X142440642Y-110236365D01*
X142742553Y-110252991D01*
X143041907Y-110210397D01*
X143327199Y-110110222D01*
X143476792Y-110030261D01*
X143560475Y-109776080D01*
X142676000Y-108891605D01*
X141791525Y-109776080D01*
X141210000Y-109776080D01*
X141210000Y-109170172D01*
X141277778Y-109363199D01*
X141357739Y-109512792D01*
X141611920Y-109596475D01*
X142496395Y-108712000D01*
X142855605Y-108712000D01*
X143740080Y-109596475D01*
X143994261Y-109512792D01*
X144125158Y-109240225D01*
X144200365Y-108947358D01*
X144216991Y-108645447D01*
X144174397Y-108346093D01*
X144074222Y-108060801D01*
X143994261Y-107911208D01*
X143740080Y-107827525D01*
X142855605Y-108712000D01*
X142496395Y-108712000D01*
X141611920Y-107827525D01*
X141357739Y-107911208D01*
X141226842Y-108183775D01*
X141210000Y-108249360D01*
X141210000Y-106683912D01*
X141315701Y-106939095D01*
X141483688Y-107190505D01*
X141697495Y-107404312D01*
X141840310Y-107499738D01*
X141791525Y-107647920D01*
X142676000Y-108532395D01*
X143560475Y-107647920D01*
X143511690Y-107499738D01*
X143654505Y-107404312D01*
X143868312Y-107190505D01*
X143930790Y-107097000D01*
X149008533Y-107097000D01*
X149052002Y-107101281D01*
X149095471Y-107097000D01*
X149095479Y-107097000D01*
X149225492Y-107084195D01*
X149392315Y-107033589D01*
X149546061Y-106951411D01*
X149680819Y-106840817D01*
X149708536Y-106807044D01*
X151765580Y-104750000D01*
X159611928Y-104750000D01*
X159611928Y-108250000D01*
X159624188Y-108374482D01*
X159660498Y-108494180D01*
X159719463Y-108604494D01*
X159798815Y-108701185D01*
X159895506Y-108780537D01*
X160005820Y-108839502D01*
X160125518Y-108875812D01*
X160250000Y-108888072D01*
X163750000Y-108888072D01*
X163874482Y-108875812D01*
X163994180Y-108839502D01*
X164104494Y-108780537D01*
X164201185Y-108701185D01*
X164280537Y-108604494D01*
X164321494Y-108527869D01*
X164311928Y-108625000D01*
X164311928Y-110375000D01*
X164341001Y-110670186D01*
X164427104Y-110954028D01*
X164566927Y-111215618D01*
X164755097Y-111444903D01*
X164984382Y-111633073D01*
X165245972Y-111772896D01*
X165529814Y-111858999D01*
X165825000Y-111888072D01*
X167575000Y-111888072D01*
X167870186Y-111858999D01*
X168154028Y-111772896D01*
X168415618Y-111633073D01*
X168644903Y-111444903D01*
X168833073Y-111215618D01*
X168972896Y-110954028D01*
X169058999Y-110670186D01*
X169088072Y-110375000D01*
X169088072Y-108625000D01*
X169058999Y-108329814D01*
X168972896Y-108045972D01*
X168833073Y-107784382D01*
X168644903Y-107555097D01*
X168415618Y-107366927D01*
X168154028Y-107227104D01*
X167870186Y-107141001D01*
X167575000Y-107111928D01*
X165825000Y-107111928D01*
X165529814Y-107141001D01*
X165245972Y-107227104D01*
X164984382Y-107366927D01*
X164755097Y-107555097D01*
X164566927Y-107784382D01*
X164427104Y-108045972D01*
X164388072Y-108174643D01*
X164388072Y-104750000D01*
X164375812Y-104625518D01*
X164339502Y-104505820D01*
X164280537Y-104395506D01*
X164201185Y-104298815D01*
X164104494Y-104219463D01*
X163994180Y-104160498D01*
X163874482Y-104124188D01*
X163750000Y-104111928D01*
X160250000Y-104111928D01*
X160125518Y-104124188D01*
X160005820Y-104160498D01*
X159895506Y-104219463D01*
X159798815Y-104298815D01*
X159719463Y-104395506D01*
X159660498Y-104505820D01*
X159624188Y-104625518D01*
X159611928Y-104750000D01*
X151765580Y-104750000D01*
X153221050Y-103294531D01*
X153254818Y-103266818D01*
X153365412Y-103132060D01*
X153447590Y-102978314D01*
X153498196Y-102811491D01*
X153511001Y-102681478D01*
X153511001Y-102681470D01*
X153515282Y-102638001D01*
X153511001Y-102594532D01*
X153511001Y-99900000D01*
X156611928Y-99900000D01*
X156624188Y-100024482D01*
X156660498Y-100144180D01*
X156719463Y-100254494D01*
X156798815Y-100351185D01*
X156895506Y-100430537D01*
X157005820Y-100489502D01*
X157125518Y-100525812D01*
X157250000Y-100538072D01*
X157739250Y-100535000D01*
X157898000Y-100376250D01*
X157898000Y-99377000D01*
X158152000Y-99377000D01*
X158152000Y-100376250D01*
X158310750Y-100535000D01*
X158800000Y-100538072D01*
X158924482Y-100525812D01*
X159044180Y-100489502D01*
X159154494Y-100430537D01*
X159251185Y-100351185D01*
X159330537Y-100254494D01*
X159389502Y-100144180D01*
X159425812Y-100024482D01*
X159438072Y-99900000D01*
X164561928Y-99900000D01*
X164574188Y-100024482D01*
X164610498Y-100144180D01*
X164669463Y-100254494D01*
X164748815Y-100351185D01*
X164845506Y-100430537D01*
X164955820Y-100489502D01*
X165075518Y-100525812D01*
X165200000Y-100538072D01*
X165689250Y-100535000D01*
X165848000Y-100376250D01*
X165848000Y-99377000D01*
X166102000Y-99377000D01*
X166102000Y-100376250D01*
X166260750Y-100535000D01*
X166750000Y-100538072D01*
X166874482Y-100525812D01*
X166994180Y-100489502D01*
X167104494Y-100430537D01*
X167201185Y-100351185D01*
X167280537Y-100254494D01*
X167339502Y-100144180D01*
X167375812Y-100024482D01*
X167388072Y-99900000D01*
X167385000Y-99535750D01*
X167226250Y-99377000D01*
X166102000Y-99377000D01*
X165848000Y-99377000D01*
X164723750Y-99377000D01*
X164565000Y-99535750D01*
X164561928Y-99900000D01*
X159438072Y-99900000D01*
X159435000Y-99535750D01*
X159276250Y-99377000D01*
X158152000Y-99377000D01*
X157898000Y-99377000D01*
X156773750Y-99377000D01*
X156615000Y-99535750D01*
X156611928Y-99900000D01*
X153511001Y-99900000D01*
X153511001Y-98600000D01*
X156611928Y-98600000D01*
X156615000Y-98964250D01*
X156773750Y-99123000D01*
X157898000Y-99123000D01*
X157898000Y-98123750D01*
X158152000Y-98123750D01*
X158152000Y-99123000D01*
X159276250Y-99123000D01*
X159435000Y-98964250D01*
X159438072Y-98600000D01*
X164561928Y-98600000D01*
X164565000Y-98964250D01*
X164723750Y-99123000D01*
X165848000Y-99123000D01*
X165848000Y-98123750D01*
X166102000Y-98123750D01*
X166102000Y-99123000D01*
X167226250Y-99123000D01*
X167385000Y-98964250D01*
X167388072Y-98600000D01*
X167375812Y-98475518D01*
X167339502Y-98355820D01*
X167280537Y-98245506D01*
X167201185Y-98148815D01*
X167104494Y-98069463D01*
X166994180Y-98010498D01*
X166874482Y-97974188D01*
X166750000Y-97961928D01*
X166260750Y-97965000D01*
X166102000Y-98123750D01*
X165848000Y-98123750D01*
X165689250Y-97965000D01*
X165200000Y-97961928D01*
X165075518Y-97974188D01*
X164955820Y-98010498D01*
X164845506Y-98069463D01*
X164748815Y-98148815D01*
X164669463Y-98245506D01*
X164610498Y-98355820D01*
X164574188Y-98475518D01*
X164561928Y-98600000D01*
X159438072Y-98600000D01*
X159425812Y-98475518D01*
X159389502Y-98355820D01*
X159330537Y-98245506D01*
X159251185Y-98148815D01*
X159154494Y-98069463D01*
X159044180Y-98010498D01*
X158924482Y-97974188D01*
X158800000Y-97961928D01*
X158310750Y-97965000D01*
X158152000Y-98123750D01*
X157898000Y-98123750D01*
X157739250Y-97965000D01*
X157250000Y-97961928D01*
X157125518Y-97974188D01*
X157005820Y-98010498D01*
X156895506Y-98069463D01*
X156798815Y-98148815D01*
X156719463Y-98245506D01*
X156660498Y-98355820D01*
X156624188Y-98475518D01*
X156611928Y-98600000D01*
X153511001Y-98600000D01*
X153511001Y-95412453D01*
X153543206Y-95364255D01*
X153621227Y-95175897D01*
X153661001Y-94975938D01*
X153661001Y-94772060D01*
X153621227Y-94572101D01*
X153543206Y-94383743D01*
X153429938Y-94214225D01*
X153315713Y-94100000D01*
X156611928Y-94100000D01*
X156611928Y-95400000D01*
X156624188Y-95524482D01*
X156660498Y-95644180D01*
X156719463Y-95754494D01*
X156798815Y-95851185D01*
X156895506Y-95930537D01*
X157005820Y-95989502D01*
X157125518Y-96025812D01*
X157250000Y-96038072D01*
X158800000Y-96038072D01*
X158924482Y-96025812D01*
X159044180Y-95989502D01*
X159154494Y-95930537D01*
X159251185Y-95851185D01*
X159330537Y-95754494D01*
X159389502Y-95644180D01*
X159392287Y-95635000D01*
X164607713Y-95635000D01*
X164610498Y-95644180D01*
X164669463Y-95754494D01*
X164748815Y-95851185D01*
X164845506Y-95930537D01*
X164955820Y-95989502D01*
X165075518Y-96025812D01*
X165200000Y-96038072D01*
X166750000Y-96038072D01*
X166874482Y-96025812D01*
X166994180Y-95989502D01*
X167104494Y-95930537D01*
X167201185Y-95851185D01*
X167280537Y-95754494D01*
X167339502Y-95644180D01*
X167375812Y-95524482D01*
X167388072Y-95400000D01*
X167388072Y-94300000D01*
X169361928Y-94300000D01*
X169361928Y-97700000D01*
X169374188Y-97824482D01*
X169410498Y-97944180D01*
X169469463Y-98054494D01*
X169548815Y-98151185D01*
X169645506Y-98230537D01*
X169755820Y-98289502D01*
X169765000Y-98292287D01*
X169765001Y-100599044D01*
X169732795Y-100647244D01*
X169654774Y-100835602D01*
X169615000Y-101035561D01*
X169615000Y-101239439D01*
X169654774Y-101439398D01*
X169732795Y-101627756D01*
X169846063Y-101797274D01*
X169990226Y-101941437D01*
X170159744Y-102054705D01*
X170348102Y-102132726D01*
X170404957Y-102144035D01*
X172661928Y-104401007D01*
X172661928Y-105125000D01*
X172678992Y-105298254D01*
X172729528Y-105464850D01*
X172811595Y-105618386D01*
X172922038Y-105752962D01*
X173056614Y-105863405D01*
X173127500Y-105901295D01*
X173127501Y-108961928D01*
X173049999Y-108961928D01*
X172876745Y-108978992D01*
X172710149Y-109029528D01*
X172556613Y-109111595D01*
X172422038Y-109222038D01*
X172311595Y-109356613D01*
X172229528Y-109510149D01*
X172178992Y-109676745D01*
X172161928Y-109849999D01*
X172161928Y-111150001D01*
X172178992Y-111323255D01*
X172229528Y-111489851D01*
X172311595Y-111643387D01*
X172422038Y-111777962D01*
X172556613Y-111888405D01*
X172710149Y-111970472D01*
X172876745Y-112021008D01*
X173049999Y-112038072D01*
X173950001Y-112038072D01*
X174123255Y-112021008D01*
X174289851Y-111970472D01*
X174443387Y-111888405D01*
X174577962Y-111777962D01*
X174688405Y-111643387D01*
X174770472Y-111489851D01*
X174821008Y-111323255D01*
X174838072Y-111150001D01*
X174838072Y-110314683D01*
X174884695Y-110160990D01*
X174897500Y-110030977D01*
X174897500Y-110030967D01*
X174901781Y-109987501D01*
X174897500Y-109944035D01*
X174897500Y-105901294D01*
X174968386Y-105863405D01*
X175102962Y-105752962D01*
X175213405Y-105618386D01*
X175295472Y-105464850D01*
X175346008Y-105298254D01*
X175363072Y-105125000D01*
X175363072Y-103875000D01*
X175346008Y-103701746D01*
X175295472Y-103535150D01*
X175213405Y-103381614D01*
X175102962Y-103247038D01*
X174968386Y-103136595D01*
X174814850Y-103054528D01*
X174648254Y-103003992D01*
X174475000Y-102986928D01*
X173751007Y-102986928D01*
X171656535Y-100892457D01*
X171645226Y-100835602D01*
X171567205Y-100647244D01*
X171535000Y-100599046D01*
X171535000Y-98292287D01*
X171544180Y-98289502D01*
X171654494Y-98230537D01*
X171751185Y-98151185D01*
X171830537Y-98054494D01*
X171889502Y-97944180D01*
X171925812Y-97824482D01*
X171938072Y-97700000D01*
X171938072Y-94300000D01*
X171925812Y-94175518D01*
X171889502Y-94055820D01*
X171830537Y-93945506D01*
X171751185Y-93848815D01*
X171654494Y-93769463D01*
X171544180Y-93710498D01*
X171424482Y-93674188D01*
X171300000Y-93661928D01*
X170000000Y-93661928D01*
X169875518Y-93674188D01*
X169755820Y-93710498D01*
X169645506Y-93769463D01*
X169548815Y-93848815D01*
X169469463Y-93945506D01*
X169410498Y-94055820D01*
X169374188Y-94175518D01*
X169361928Y-94300000D01*
X167388072Y-94300000D01*
X167388072Y-94100000D01*
X167375812Y-93975518D01*
X167339502Y-93855820D01*
X167280537Y-93745506D01*
X167201185Y-93648815D01*
X167104494Y-93569463D01*
X166994180Y-93510498D01*
X166885000Y-93477379D01*
X166885000Y-91294694D01*
X166964850Y-91270472D01*
X167118386Y-91188405D01*
X167252962Y-91077962D01*
X167363405Y-90943386D01*
X167445472Y-90789850D01*
X167496008Y-90623254D01*
X167513072Y-90450000D01*
X167513072Y-89726007D01*
X167920059Y-89319020D01*
X167953827Y-89291307D01*
X167982134Y-89256816D01*
X168064420Y-89156550D01*
X168064421Y-89156549D01*
X168146599Y-89002803D01*
X168197205Y-88835980D01*
X168210010Y-88705967D01*
X168210010Y-88705957D01*
X168214291Y-88662491D01*
X168210010Y-88619025D01*
X168210010Y-87309701D01*
X168331937Y-87187774D01*
X168445205Y-87018256D01*
X168523226Y-86829898D01*
X168563000Y-86629939D01*
X168563000Y-86426061D01*
X168523226Y-86226102D01*
X168445205Y-86037744D01*
X168331937Y-85868226D01*
X168187774Y-85724063D01*
X168018256Y-85610795D01*
X167829898Y-85532774D01*
X167629939Y-85493000D01*
X167426061Y-85493000D01*
X167226102Y-85532774D01*
X167037744Y-85610795D01*
X166892770Y-85707663D01*
X166798254Y-85678992D01*
X166625000Y-85661928D01*
X165375000Y-85661928D01*
X165201746Y-85678992D01*
X165035150Y-85729528D01*
X164881614Y-85811595D01*
X164747038Y-85922038D01*
X164636595Y-86056614D01*
X164598706Y-86127500D01*
X164379079Y-86127500D01*
X163508534Y-85256956D01*
X163480817Y-85223183D01*
X163346059Y-85112589D01*
X163192313Y-85030411D01*
X163025490Y-84979805D01*
X162895477Y-84967000D01*
X162895469Y-84967000D01*
X162852000Y-84962719D01*
X162808531Y-84967000D01*
X161778656Y-84967000D01*
X161737475Y-84905368D01*
X161530632Y-84698525D01*
X161356240Y-84582000D01*
X161530632Y-84465475D01*
X161737475Y-84258632D01*
X161899990Y-84015411D01*
X162011932Y-83745158D01*
X162069000Y-83458260D01*
X162069000Y-83165740D01*
X162011932Y-82878842D01*
X161899990Y-82608589D01*
X161737475Y-82365368D01*
X161530632Y-82158525D01*
X161348466Y-82036805D01*
X161465355Y-81967178D01*
X161681588Y-81772269D01*
X161855641Y-81538920D01*
X161980825Y-81276099D01*
X162025476Y-81128890D01*
X161904155Y-80899000D01*
X160711000Y-80899000D01*
X160711000Y-80919000D01*
X160457000Y-80919000D01*
X160457000Y-80899000D01*
X159263845Y-80899000D01*
X159142524Y-81128890D01*
X159187175Y-81276099D01*
X159312359Y-81538920D01*
X159486412Y-81772269D01*
X159702645Y-81967178D01*
X159819534Y-82036805D01*
X159637368Y-82158525D01*
X159430525Y-82365368D01*
X159268010Y-82608589D01*
X159156068Y-82878842D01*
X159099000Y-83165740D01*
X159099000Y-83458260D01*
X159156068Y-83745158D01*
X159268010Y-84015411D01*
X159430525Y-84258632D01*
X159637368Y-84465475D01*
X159811760Y-84582000D01*
X159637368Y-84698525D01*
X159430525Y-84905368D01*
X159268010Y-85148589D01*
X159156068Y-85418842D01*
X159099000Y-85705740D01*
X159099000Y-85998260D01*
X159156068Y-86285158D01*
X159268010Y-86555411D01*
X159430525Y-86798632D01*
X159637368Y-87005475D01*
X159811760Y-87122000D01*
X159637368Y-87238525D01*
X159430525Y-87445368D01*
X159268010Y-87688589D01*
X159156068Y-87958842D01*
X159099000Y-88245740D01*
X159099000Y-88538260D01*
X159156068Y-88825158D01*
X159268010Y-89095411D01*
X159430525Y-89338632D01*
X159637368Y-89545475D01*
X159880589Y-89707990D01*
X160150842Y-89819932D01*
X160437740Y-89877000D01*
X160730260Y-89877000D01*
X161017158Y-89819932D01*
X161287411Y-89707990D01*
X161530632Y-89545475D01*
X161737475Y-89338632D01*
X161899990Y-89095411D01*
X162011932Y-88825158D01*
X162069000Y-88538260D01*
X162069000Y-88245740D01*
X162011932Y-87958842D01*
X161899990Y-87688589D01*
X161737475Y-87445368D01*
X161530632Y-87238525D01*
X161356240Y-87122000D01*
X161530632Y-87005475D01*
X161737475Y-86798632D01*
X161778656Y-86737000D01*
X162485422Y-86737000D01*
X163355970Y-87607549D01*
X163383683Y-87641317D01*
X163417451Y-87669030D01*
X163417453Y-87669032D01*
X163468340Y-87710794D01*
X163518441Y-87751911D01*
X163672187Y-87834089D01*
X163839010Y-87884695D01*
X163969023Y-87897500D01*
X163969031Y-87897500D01*
X164012500Y-87901781D01*
X164055969Y-87897500D01*
X164598706Y-87897500D01*
X164636595Y-87968386D01*
X164747038Y-88102962D01*
X164881614Y-88213405D01*
X165035150Y-88295472D01*
X165201746Y-88346008D01*
X165375000Y-88363072D01*
X166372849Y-88363072D01*
X166098993Y-88636928D01*
X165375000Y-88636928D01*
X165201746Y-88653992D01*
X165035150Y-88704528D01*
X164881614Y-88786595D01*
X164747038Y-88897038D01*
X164636595Y-89031614D01*
X164554528Y-89185150D01*
X164503992Y-89351746D01*
X164486928Y-89525000D01*
X164486928Y-90450000D01*
X164503992Y-90623254D01*
X164554528Y-90789850D01*
X164636595Y-90943386D01*
X164747038Y-91077962D01*
X164881614Y-91188405D01*
X165035150Y-91270472D01*
X165115000Y-91294694D01*
X165115001Y-93470299D01*
X165075518Y-93474188D01*
X164955820Y-93510498D01*
X164845506Y-93569463D01*
X164748815Y-93648815D01*
X164669463Y-93745506D01*
X164610498Y-93855820D01*
X164607713Y-93865000D01*
X159392287Y-93865000D01*
X159389502Y-93855820D01*
X159330537Y-93745506D01*
X159251185Y-93648815D01*
X159154494Y-93569463D01*
X159044180Y-93510498D01*
X158924482Y-93474188D01*
X158800000Y-93461928D01*
X157250000Y-93461928D01*
X157125518Y-93474188D01*
X157005820Y-93510498D01*
X156895506Y-93569463D01*
X156798815Y-93648815D01*
X156719463Y-93745506D01*
X156660498Y-93855820D01*
X156624188Y-93975518D01*
X156611928Y-94100000D01*
X153315713Y-94100000D01*
X153285775Y-94070062D01*
X153116257Y-93956794D01*
X152927899Y-93878773D01*
X152727940Y-93838999D01*
X152524062Y-93838999D01*
X152326082Y-93878379D01*
X152257107Y-93711859D01*
X151968738Y-93280285D01*
X151601715Y-92913262D01*
X151170141Y-92624893D01*
X150690601Y-92426261D01*
X150181525Y-92325000D01*
X149662475Y-92325000D01*
X149153399Y-92426261D01*
X148673859Y-92624893D01*
X148242285Y-92913262D01*
X147875262Y-93280285D01*
X147586893Y-93711859D01*
X147388261Y-94191399D01*
X147287000Y-94700475D01*
X147287000Y-95219525D01*
X147388261Y-95728601D01*
X147586893Y-96208141D01*
X147875262Y-96639715D01*
X148242285Y-97006738D01*
X148673859Y-97295107D01*
X149153399Y-97493739D01*
X149662475Y-97595000D01*
X150181525Y-97595000D01*
X150690601Y-97493739D01*
X151170141Y-97295107D01*
X151601715Y-97006738D01*
X151741001Y-96867452D01*
X151741002Y-99338613D01*
X151424141Y-99126893D01*
X150944601Y-98928261D01*
X150435525Y-98827000D01*
X149916475Y-98827000D01*
X149407399Y-98928261D01*
X148927859Y-99126893D01*
X148496285Y-99415262D01*
X148129262Y-99782285D01*
X147840893Y-100213859D01*
X147642261Y-100693399D01*
X147541000Y-101202475D01*
X147541000Y-101721525D01*
X147642261Y-102230601D01*
X147840893Y-102710141D01*
X148129262Y-103141715D01*
X148496285Y-103508738D01*
X148927859Y-103797107D01*
X149407399Y-103995739D01*
X149915598Y-104096826D01*
X148685424Y-105327000D01*
X143930790Y-105327000D01*
X143868312Y-105233495D01*
X143654505Y-105019688D01*
X143568169Y-104962000D01*
X143654505Y-104904312D01*
X143868312Y-104690505D01*
X144036299Y-104439095D01*
X144152011Y-104159743D01*
X144211000Y-103863184D01*
X144211000Y-103560816D01*
X144152011Y-103264257D01*
X144036299Y-102984905D01*
X143868312Y-102733495D01*
X143654505Y-102519688D01*
X143403095Y-102351701D01*
X143123743Y-102235989D01*
X142827184Y-102177000D01*
X142524816Y-102177000D01*
X142228257Y-102235989D01*
X141948905Y-102351701D01*
X141697495Y-102519688D01*
X141483688Y-102733495D01*
X141315701Y-102984905D01*
X141210000Y-103240088D01*
X141210000Y-93774080D01*
X141537525Y-93774080D01*
X141621208Y-94028261D01*
X141893775Y-94159158D01*
X142186642Y-94234365D01*
X142488553Y-94250991D01*
X142787907Y-94208397D01*
X143073199Y-94108222D01*
X143222792Y-94028261D01*
X143306475Y-93774080D01*
X142422000Y-92889605D01*
X141537525Y-93774080D01*
X141210000Y-93774080D01*
X141210000Y-93545776D01*
X141357920Y-93594475D01*
X142242395Y-92710000D01*
X142601605Y-92710000D01*
X143486080Y-93594475D01*
X143740261Y-93510792D01*
X143871158Y-93238225D01*
X143946365Y-92945358D01*
X143962991Y-92643447D01*
X143920397Y-92344093D01*
X143820222Y-92058801D01*
X143740261Y-91909208D01*
X143486080Y-91825525D01*
X142601605Y-92710000D01*
X142242395Y-92710000D01*
X141357920Y-91825525D01*
X141210000Y-91874224D01*
X141210000Y-91159040D01*
X141229688Y-91188505D01*
X141443495Y-91402312D01*
X141586310Y-91497738D01*
X141537525Y-91645920D01*
X142422000Y-92530395D01*
X143306475Y-91645920D01*
X143257690Y-91497738D01*
X143400505Y-91402312D01*
X143614312Y-91188505D01*
X143782299Y-90937095D01*
X143898011Y-90657743D01*
X143957000Y-90361184D01*
X143957000Y-90058816D01*
X143898011Y-89762257D01*
X143782299Y-89482905D01*
X143614312Y-89231495D01*
X143400505Y-89017688D01*
X143314169Y-88960000D01*
X143400505Y-88902312D01*
X143614312Y-88688505D01*
X143782299Y-88437095D01*
X143898011Y-88157743D01*
X143957000Y-87861184D01*
X143957000Y-87558816D01*
X143898011Y-87262257D01*
X143782299Y-86982905D01*
X143614312Y-86731495D01*
X143400505Y-86517688D01*
X143149095Y-86349701D01*
X142869743Y-86233989D01*
X142573184Y-86175000D01*
X142270816Y-86175000D01*
X141974257Y-86233989D01*
X141694905Y-86349701D01*
X141443495Y-86517688D01*
X141229688Y-86731495D01*
X141210000Y-86760960D01*
X141210000Y-85200475D01*
X147287000Y-85200475D01*
X147287000Y-85719525D01*
X147388261Y-86228601D01*
X147586893Y-86708141D01*
X147875262Y-87139715D01*
X148242285Y-87506738D01*
X148673859Y-87795107D01*
X149153399Y-87993739D01*
X149662475Y-88095000D01*
X150181525Y-88095000D01*
X150690601Y-87993739D01*
X151170141Y-87795107D01*
X151487002Y-87583387D01*
X151487002Y-88089543D01*
X151454796Y-88137743D01*
X151376775Y-88326101D01*
X151337001Y-88526060D01*
X151337001Y-88729938D01*
X151376775Y-88929897D01*
X151454796Y-89118255D01*
X151568064Y-89287773D01*
X151712227Y-89431936D01*
X151881745Y-89545204D01*
X152070103Y-89623225D01*
X152270062Y-89662999D01*
X152473940Y-89662999D01*
X152673899Y-89623225D01*
X152862257Y-89545204D01*
X153031775Y-89431936D01*
X153175938Y-89287773D01*
X153289206Y-89118255D01*
X153367227Y-88929897D01*
X153407001Y-88729938D01*
X153407001Y-88526060D01*
X153367227Y-88326101D01*
X153289206Y-88137743D01*
X153257001Y-88089545D01*
X153257001Y-82408451D01*
X153289206Y-82360253D01*
X153367227Y-82171895D01*
X153407001Y-81971936D01*
X153407001Y-81768058D01*
X153367227Y-81568099D01*
X153289206Y-81379741D01*
X153175938Y-81210223D01*
X153031775Y-81066060D01*
X152862257Y-80952792D01*
X152673899Y-80874771D01*
X152473940Y-80834997D01*
X152270062Y-80834997D01*
X152259191Y-80837159D01*
X152511107Y-80460141D01*
X152709739Y-79980601D01*
X152811000Y-79471525D01*
X152811000Y-78952475D01*
X152709739Y-78443399D01*
X152511107Y-77963859D01*
X152222738Y-77532285D01*
X151855715Y-77165262D01*
X151424141Y-76876893D01*
X150944601Y-76678261D01*
X150435525Y-76577000D01*
X149916475Y-76577000D01*
X149407399Y-76678261D01*
X148927859Y-76876893D01*
X148496285Y-77165262D01*
X148129262Y-77532285D01*
X147840893Y-77963859D01*
X147642261Y-78443399D01*
X147541000Y-78952475D01*
X147541000Y-79471525D01*
X147642261Y-79980601D01*
X147840893Y-80460141D01*
X148129262Y-80891715D01*
X148496285Y-81258738D01*
X148927859Y-81547107D01*
X149407399Y-81745739D01*
X149916475Y-81847000D01*
X150435525Y-81847000D01*
X150944601Y-81745739D01*
X151377461Y-81566442D01*
X151376775Y-81568099D01*
X151337001Y-81768058D01*
X151337001Y-81971936D01*
X151376775Y-82171895D01*
X151454796Y-82360253D01*
X151487001Y-82408451D01*
X151487001Y-83336613D01*
X151170141Y-83124893D01*
X150690601Y-82926261D01*
X150181525Y-82825000D01*
X149662475Y-82825000D01*
X149153399Y-82926261D01*
X148673859Y-83124893D01*
X148242285Y-83413262D01*
X147875262Y-83780285D01*
X147586893Y-84211859D01*
X147388261Y-84691399D01*
X147287000Y-85200475D01*
X141210000Y-85200475D01*
X141210000Y-78026080D01*
X141791525Y-78026080D01*
X141875208Y-78280261D01*
X142147775Y-78411158D01*
X142440642Y-78486365D01*
X142742553Y-78502991D01*
X143041907Y-78460397D01*
X143327199Y-78360222D01*
X143476792Y-78280261D01*
X143560475Y-78026080D01*
X142676000Y-77141605D01*
X141791525Y-78026080D01*
X141210000Y-78026080D01*
X141210000Y-77420172D01*
X141277778Y-77613199D01*
X141357739Y-77762792D01*
X141611920Y-77846475D01*
X142496395Y-76962000D01*
X142855605Y-76962000D01*
X143740080Y-77846475D01*
X143994261Y-77762792D01*
X144125158Y-77490225D01*
X144200365Y-77197358D01*
X144216991Y-76895447D01*
X144174397Y-76596093D01*
X144074222Y-76310801D01*
X143994261Y-76161208D01*
X143740080Y-76077525D01*
X142855605Y-76962000D01*
X142496395Y-76962000D01*
X141611920Y-76077525D01*
X141357739Y-76161208D01*
X141226842Y-76433775D01*
X141210000Y-76499360D01*
X141210000Y-74933912D01*
X141315701Y-75189095D01*
X141483688Y-75440505D01*
X141697495Y-75654312D01*
X141840310Y-75749738D01*
X141791525Y-75897920D01*
X142676000Y-76782395D01*
X143560475Y-75897920D01*
X143511690Y-75749738D01*
X143654505Y-75654312D01*
X143868312Y-75440505D01*
X144036299Y-75189095D01*
X144152011Y-74909743D01*
X144211000Y-74613184D01*
X144211000Y-74310816D01*
X144152011Y-74014257D01*
X144036299Y-73734905D01*
X143868312Y-73483495D01*
X143654505Y-73269688D01*
X143568169Y-73212000D01*
X143654505Y-73154312D01*
X143868312Y-72940505D01*
X144036299Y-72689095D01*
X144152011Y-72409743D01*
X144211000Y-72113184D01*
X144211000Y-71810816D01*
X144152011Y-71514257D01*
X144036299Y-71234905D01*
X143868312Y-70983495D01*
X143654505Y-70769688D01*
X143403095Y-70601701D01*
X143123743Y-70485989D01*
X142827184Y-70427000D01*
X142524816Y-70427000D01*
X142228257Y-70485989D01*
X141948905Y-70601701D01*
X141697495Y-70769688D01*
X141483688Y-70983495D01*
X141315701Y-71234905D01*
X141210000Y-71490088D01*
X141210000Y-69452475D01*
X147541000Y-69452475D01*
X147541000Y-69971525D01*
X147642261Y-70480601D01*
X147840893Y-70960141D01*
X148129262Y-71391715D01*
X148496285Y-71758738D01*
X148927859Y-72047107D01*
X149407399Y-72245739D01*
X149916475Y-72347000D01*
X150435525Y-72347000D01*
X150944601Y-72245739D01*
X151424141Y-72047107D01*
X151855715Y-71758738D01*
X152222738Y-71391715D01*
X152511107Y-70960141D01*
X152709739Y-70480601D01*
X152811000Y-69971525D01*
X152811000Y-69452475D01*
X152709739Y-68943399D01*
X152511107Y-68463859D01*
X152222738Y-68032285D01*
X151855715Y-67665262D01*
X151424141Y-67376893D01*
X150944601Y-67178261D01*
X150435525Y-67077000D01*
X149916475Y-67077000D01*
X149407399Y-67178261D01*
X148927859Y-67376893D01*
X148496285Y-67665262D01*
X148129262Y-68032285D01*
X147840893Y-68463859D01*
X147642261Y-68943399D01*
X147541000Y-69452475D01*
X141210000Y-69452475D01*
X141210000Y-62696475D01*
X147541000Y-62696475D01*
X147541000Y-63215525D01*
X147642261Y-63724601D01*
X147840893Y-64204141D01*
X148129262Y-64635715D01*
X148496285Y-65002738D01*
X148927859Y-65291107D01*
X149407399Y-65489739D01*
X149916475Y-65591000D01*
X150435525Y-65591000D01*
X150944601Y-65489739D01*
X151424141Y-65291107D01*
X151855715Y-65002738D01*
X152222738Y-64635715D01*
X152511107Y-64204141D01*
X152709739Y-63724601D01*
X152811000Y-63215525D01*
X152811000Y-62696475D01*
X152709739Y-62187399D01*
X152511107Y-61707859D01*
X152222738Y-61276285D01*
X151855715Y-60909262D01*
X151424141Y-60620893D01*
X150944601Y-60422261D01*
X150435525Y-60321000D01*
X149916475Y-60321000D01*
X149407399Y-60422261D01*
X148927859Y-60620893D01*
X148496285Y-60909262D01*
X148129262Y-61276285D01*
X147840893Y-61707859D01*
X147642261Y-62187399D01*
X147541000Y-62696475D01*
X141210000Y-62696475D01*
X141210000Y-61770080D01*
X141791525Y-61770080D01*
X141875208Y-62024261D01*
X142147775Y-62155158D01*
X142440642Y-62230365D01*
X142742553Y-62246991D01*
X143041907Y-62204397D01*
X143327199Y-62104222D01*
X143476792Y-62024261D01*
X143560475Y-61770080D01*
X142676000Y-60885605D01*
X141791525Y-61770080D01*
X141210000Y-61770080D01*
X141210000Y-61164172D01*
X141277778Y-61357199D01*
X141357739Y-61506792D01*
X141611920Y-61590475D01*
X142496395Y-60706000D01*
X142855605Y-60706000D01*
X143740080Y-61590475D01*
X143994261Y-61506792D01*
X144125158Y-61234225D01*
X144200365Y-60941358D01*
X144216991Y-60639447D01*
X144174397Y-60340093D01*
X144074222Y-60054801D01*
X143994261Y-59905208D01*
X143740080Y-59821525D01*
X142855605Y-60706000D01*
X142496395Y-60706000D01*
X141611920Y-59821525D01*
X141357739Y-59905208D01*
X141226842Y-60177775D01*
X141210000Y-60243360D01*
X141210000Y-58677912D01*
X141315701Y-58933095D01*
X141483688Y-59184505D01*
X141697495Y-59398312D01*
X141840310Y-59493738D01*
X141791525Y-59641920D01*
X142676000Y-60526395D01*
X143560475Y-59641920D01*
X143511690Y-59493738D01*
X143654505Y-59398312D01*
X143868312Y-59184505D01*
X143930790Y-59091000D01*
X150770971Y-59091000D01*
X150832795Y-59240256D01*
X150946063Y-59409774D01*
X151090226Y-59553937D01*
X151259744Y-59667205D01*
X151448102Y-59745226D01*
X151648061Y-59785000D01*
X151851939Y-59785000D01*
X152051898Y-59745226D01*
X152240256Y-59667205D01*
X152409774Y-59553937D01*
X152553937Y-59409774D01*
X152667205Y-59240256D01*
X152745226Y-59051898D01*
X152785000Y-58851939D01*
X152785000Y-58648061D01*
X152745226Y-58448102D01*
X152667205Y-58259744D01*
X152553937Y-58090226D01*
X152409774Y-57946063D01*
X152240256Y-57832795D01*
X152051898Y-57754774D01*
X151995043Y-57743465D01*
X151862534Y-57610956D01*
X151834817Y-57577183D01*
X151700059Y-57466589D01*
X151546313Y-57384411D01*
X151379490Y-57333805D01*
X151249477Y-57321000D01*
X151249469Y-57321000D01*
X151206000Y-57316719D01*
X151162531Y-57321000D01*
X143930790Y-57321000D01*
X143868312Y-57227495D01*
X143654505Y-57013688D01*
X143568169Y-56956000D01*
X143654505Y-56898312D01*
X143868312Y-56684505D01*
X144036299Y-56433095D01*
X144152011Y-56153743D01*
X144211000Y-55857184D01*
X144211000Y-55554816D01*
X144152011Y-55258257D01*
X144036299Y-54978905D01*
X143868312Y-54727495D01*
X143654505Y-54513688D01*
X143403095Y-54345701D01*
X143123743Y-54229989D01*
X142827184Y-54171000D01*
X142524816Y-54171000D01*
X142228257Y-54229989D01*
X141948905Y-54345701D01*
X141697495Y-54513688D01*
X141483688Y-54727495D01*
X141315701Y-54978905D01*
X141210000Y-55234088D01*
X141210000Y-53196475D01*
X147541000Y-53196475D01*
X147541000Y-53715525D01*
X147642261Y-54224601D01*
X147840893Y-54704141D01*
X148129262Y-55135715D01*
X148496285Y-55502738D01*
X148927859Y-55791107D01*
X149407399Y-55989739D01*
X149916475Y-56091000D01*
X150435525Y-56091000D01*
X150944601Y-55989739D01*
X151424141Y-55791107D01*
X151855715Y-55502738D01*
X152222738Y-55135715D01*
X152511107Y-54704141D01*
X152709739Y-54224601D01*
X152811000Y-53715525D01*
X152811000Y-53196475D01*
X152709739Y-52687399D01*
X152511107Y-52207859D01*
X152222738Y-51776285D01*
X151855715Y-51409262D01*
X151424141Y-51120893D01*
X150944601Y-50922261D01*
X150435525Y-50821000D01*
X149916475Y-50821000D01*
X149407399Y-50922261D01*
X148927859Y-51120893D01*
X148496285Y-51409262D01*
X148129262Y-51776285D01*
X147840893Y-52207859D01*
X147642261Y-52687399D01*
X147541000Y-53196475D01*
X141210000Y-53196475D01*
X141210000Y-49627000D01*
X165668108Y-49627000D01*
X165556614Y-49686595D01*
G37*
X165556614Y-49686595D02*
X165422038Y-49797038D01*
X165311595Y-49931614D01*
X165229528Y-50085150D01*
X165178992Y-50251746D01*
X165161928Y-50425000D01*
X165161928Y-52575000D01*
X165178992Y-52748254D01*
X165229528Y-52914850D01*
X165311595Y-53068386D01*
X165422038Y-53202962D01*
X165556614Y-53313405D01*
X165627501Y-53351295D01*
X165627500Y-54098705D01*
X165556614Y-54136595D01*
X165422038Y-54247038D01*
X165311595Y-54381614D01*
X165229528Y-54535150D01*
X165178992Y-54701746D01*
X165161928Y-54875000D01*
X165161928Y-56125000D01*
X165178992Y-56298254D01*
X165229528Y-56464850D01*
X165311595Y-56618386D01*
X165422038Y-56752962D01*
X165556614Y-56863405D01*
X165710150Y-56945472D01*
X165876746Y-56996008D01*
X166050000Y-57013072D01*
X166975000Y-57013072D01*
X167148254Y-56996008D01*
X167314850Y-56945472D01*
X167468386Y-56863405D01*
X167602962Y-56752962D01*
X167713405Y-56618386D01*
X167795472Y-56464850D01*
X167846008Y-56298254D01*
X167863072Y-56125000D01*
X167863072Y-54875000D01*
X167846008Y-54701746D01*
X167795472Y-54535150D01*
X167713405Y-54381614D01*
X167602962Y-54247038D01*
X167468386Y-54136595D01*
X167397500Y-54098706D01*
X167397500Y-53351294D01*
X167468386Y-53313405D01*
X167602962Y-53202962D01*
X167713405Y-53068386D01*
X167795472Y-52914850D01*
X167846008Y-52748254D01*
X167863072Y-52575000D01*
X167863072Y-50425000D01*
X167846008Y-50251746D01*
X167795472Y-50085150D01*
X167713405Y-49931614D01*
X167602962Y-49797038D01*
X167468386Y-49686595D01*
X167356892Y-49627000D01*
X168643108Y-49627000D01*
X168531614Y-49686595D01*
X168397038Y-49797038D01*
X168286595Y-49931614D01*
X168204528Y-50085150D01*
X168153992Y-50251746D01*
X168136928Y-50425000D01*
X168136928Y-52575000D01*
X168153992Y-52748254D01*
X168204528Y-52914850D01*
X168286595Y-53068386D01*
X168397038Y-53202962D01*
X168531614Y-53313405D01*
X168685150Y-53395472D01*
X168851746Y-53446008D01*
X169025000Y-53463072D01*
X169950000Y-53463072D01*
X170123254Y-53446008D01*
X170289850Y-53395472D01*
X170443386Y-53313405D01*
X170577962Y-53202962D01*
X170688405Y-53068386D01*
X170770472Y-52914850D01*
X170821008Y-52748254D01*
X170838072Y-52575000D01*
X170838072Y-51534999D01*
X171306532Y-51534999D01*
X171350001Y-51539280D01*
X171393470Y-51534999D01*
X171393478Y-51534999D01*
X171396540Y-51534697D01*
X171398061Y-51535000D01*
X171601939Y-51535000D01*
X171801898Y-51495226D01*
X171990256Y-51417205D01*
X172159774Y-51303937D01*
X172303937Y-51159774D01*
X172417205Y-50990256D01*
X172495226Y-50801898D01*
X172535000Y-50601939D01*
X172535000Y-50398061D01*
X172495226Y-50198102D01*
X172417205Y-50009744D01*
X172303937Y-49840226D01*
X172159774Y-49696063D01*
X172056414Y-49627000D01*
X183045121Y-49627000D01*
X182911844Y-49716053D01*
X182558053Y-50069844D01*
X182280081Y-50485859D01*
X182088611Y-50948109D01*
X181991000Y-51438832D01*
X181991000Y-51939168D01*
X182088611Y-52429891D01*
X182280081Y-52892141D01*
X182558053Y-53308156D01*
X182911844Y-53661947D01*
X183327859Y-53939919D01*
X183790109Y-54131389D01*
X184280832Y-54229000D01*
X184781168Y-54229000D01*
X185271891Y-54131389D01*
X185423691Y-54068512D01*
X185385731Y-54160154D01*
X185293000Y-54626340D01*
X185293000Y-55101660D01*
X185385731Y-55567846D01*
X185423691Y-55659488D01*
X185271891Y-55596611D01*
X184781168Y-55499000D01*
X184280832Y-55499000D01*
X183790109Y-55596611D01*
X183327859Y-55788081D01*
X182911844Y-56066053D01*
X182558053Y-56419844D01*
X182280081Y-56835859D01*
X182088611Y-57298109D01*
X181991000Y-57788832D01*
X181991000Y-58289168D01*
X182088611Y-58779891D01*
X182280081Y-59242141D01*
X182558053Y-59658156D01*
X182911844Y-60011947D01*
X183327859Y-60289919D01*
X183790109Y-60481389D01*
X184280832Y-60579000D01*
X184781168Y-60579000D01*
X185126017Y-60510405D01*
X185053422Y-60583000D01*
X182923465Y-60583000D01*
X182879999Y-60578719D01*
X182836533Y-60583000D01*
X182836523Y-60583000D01*
X182706510Y-60595805D01*
X182539687Y-60646411D01*
X182385941Y-60728589D01*
X182385939Y-60728590D01*
X182385940Y-60728590D01*
X182284953Y-60811468D01*
X182284951Y-60811470D01*
X182251183Y-60839183D01*
X182223470Y-60872951D01*
X180760951Y-62335471D01*
X180727184Y-62363183D01*
X180699471Y-62396951D01*
X180699468Y-62396954D01*
X180616590Y-62497941D01*
X180534412Y-62651687D01*
X180483805Y-62818510D01*
X180466719Y-62992000D01*
X180471001Y-63035479D01*
X180471000Y-67705421D01*
X179578950Y-68597472D01*
X179545183Y-68625184D01*
X179517470Y-68658952D01*
X179517467Y-68658955D01*
X179434589Y-68759942D01*
X179352410Y-68913688D01*
X179301804Y-69080511D01*
X179288999Y-69210524D01*
X179288999Y-69210532D01*
X179284718Y-69254001D01*
X179288999Y-69297470D01*
X179288999Y-69395422D01*
X178957422Y-69727000D01*
X177018656Y-69727000D01*
X176977475Y-69665368D01*
X176770632Y-69458525D01*
X176596240Y-69342000D01*
X176770632Y-69225475D01*
X176977475Y-69018632D01*
X177139990Y-68775411D01*
X177251932Y-68505158D01*
X177309000Y-68218260D01*
X177309000Y-67925740D01*
X177251932Y-67638842D01*
X177139990Y-67368589D01*
X176977475Y-67125368D01*
X176770632Y-66918525D01*
X176596240Y-66802000D01*
X176770632Y-66685475D01*
X176977475Y-66478632D01*
X177139990Y-66235411D01*
X177251932Y-65965158D01*
X177309000Y-65678260D01*
X177309000Y-65385740D01*
X177251932Y-65098842D01*
X177139990Y-64828589D01*
X176977475Y-64585368D01*
X176770632Y-64378525D01*
X176596240Y-64262000D01*
X176770632Y-64145475D01*
X176977475Y-63938632D01*
X177139990Y-63695411D01*
X177251932Y-63425158D01*
X177309000Y-63138260D01*
X177309000Y-62845740D01*
X177251932Y-62558842D01*
X177139990Y-62288589D01*
X176977475Y-62045368D01*
X176770632Y-61838525D01*
X176596240Y-61722000D01*
X176770632Y-61605475D01*
X176977475Y-61398632D01*
X177139990Y-61155411D01*
X177251932Y-60885158D01*
X177309000Y-60598260D01*
X177309000Y-60305740D01*
X177251932Y-60018842D01*
X177139990Y-59748589D01*
X176977475Y-59505368D01*
X176770632Y-59298525D01*
X176596240Y-59182000D01*
X176770632Y-59065475D01*
X176977475Y-58858632D01*
X177139990Y-58615411D01*
X177251932Y-58345158D01*
X177309000Y-58058260D01*
X177309000Y-57765740D01*
X177251932Y-57478842D01*
X177139990Y-57208589D01*
X176977475Y-56965368D01*
X176770632Y-56758525D01*
X176596240Y-56642000D01*
X176770632Y-56525475D01*
X176977475Y-56318632D01*
X177139990Y-56075411D01*
X177251932Y-55805158D01*
X177309000Y-55518260D01*
X177309000Y-55225740D01*
X177251932Y-54938842D01*
X177139990Y-54668589D01*
X176977475Y-54425368D01*
X176770632Y-54218525D01*
X176596240Y-54102000D01*
X176770632Y-53985475D01*
X176977475Y-53778632D01*
X177139990Y-53535411D01*
X177251932Y-53265158D01*
X177309000Y-52978260D01*
X177309000Y-52685740D01*
X177251932Y-52398842D01*
X177139990Y-52128589D01*
X176977475Y-51885368D01*
X176770632Y-51678525D01*
X176527411Y-51516010D01*
X176257158Y-51404068D01*
X175970260Y-51347000D01*
X175677740Y-51347000D01*
X175390842Y-51404068D01*
X175120589Y-51516010D01*
X174877368Y-51678525D01*
X174670525Y-51885368D01*
X174508010Y-52128589D01*
X174396068Y-52398842D01*
X174339000Y-52685740D01*
X174339000Y-52978260D01*
X174396068Y-53265158D01*
X174508010Y-53535411D01*
X174670525Y-53778632D01*
X174877368Y-53985475D01*
X175051760Y-54102000D01*
X174877368Y-54218525D01*
X174670525Y-54425368D01*
X174508010Y-54668589D01*
X174396068Y-54938842D01*
X174339000Y-55225740D01*
X174339000Y-55518260D01*
X174396068Y-55805158D01*
X174508010Y-56075411D01*
X174670525Y-56318632D01*
X174877368Y-56525475D01*
X175051760Y-56642000D01*
X174877368Y-56758525D01*
X174670525Y-56965368D01*
X174508010Y-57208589D01*
X174396068Y-57478842D01*
X174339000Y-57765740D01*
X174339000Y-58058260D01*
X174396068Y-58345158D01*
X174508010Y-58615411D01*
X174670525Y-58858632D01*
X174877368Y-59065475D01*
X175051760Y-59182000D01*
X174877368Y-59298525D01*
X174707486Y-59468407D01*
X170838072Y-55598994D01*
X170838072Y-54875000D01*
X170821008Y-54701746D01*
X170770472Y-54535150D01*
X170688405Y-54381614D01*
X170577962Y-54247038D01*
X170443386Y-54136595D01*
X170289850Y-54054528D01*
X170123254Y-54003992D01*
X169950000Y-53986928D01*
X169025000Y-53986928D01*
X168851746Y-54003992D01*
X168685150Y-54054528D01*
X168531614Y-54136595D01*
X168397038Y-54247038D01*
X168286595Y-54381614D01*
X168204528Y-54535150D01*
X168153992Y-54701746D01*
X168136928Y-54875000D01*
X168136928Y-56125000D01*
X168153992Y-56298254D01*
X168204528Y-56464850D01*
X168286595Y-56618386D01*
X168397038Y-56752962D01*
X168531614Y-56863405D01*
X168685150Y-56945472D01*
X168851746Y-56996008D01*
X169025000Y-57013072D01*
X169748994Y-57013072D01*
X171225499Y-58489577D01*
X171101939Y-58465000D01*
X170898061Y-58465000D01*
X170748841Y-58494681D01*
X170688405Y-58381614D01*
X170577962Y-58247038D01*
X170443386Y-58136595D01*
X170289850Y-58054528D01*
X170123254Y-58003992D01*
X169950000Y-57986928D01*
X169025000Y-57986928D01*
X168851746Y-58003992D01*
X168685150Y-58054528D01*
X168531614Y-58136595D01*
X168397038Y-58247038D01*
X168286595Y-58381614D01*
X168204528Y-58535150D01*
X168153992Y-58701746D01*
X168136928Y-58875000D01*
X168136928Y-60125000D01*
X168153992Y-60298254D01*
X168204528Y-60464850D01*
X168286595Y-60618386D01*
X168397038Y-60752962D01*
X168531614Y-60863405D01*
X168685150Y-60945472D01*
X168851746Y-60996008D01*
X169025000Y-61013072D01*
X169950000Y-61013072D01*
X170123254Y-60996008D01*
X170289850Y-60945472D01*
X170443386Y-60863405D01*
X170577962Y-60752962D01*
X170688405Y-60618386D01*
X170748841Y-60505319D01*
X170898061Y-60535000D01*
X171101939Y-60535000D01*
X171301898Y-60495226D01*
X171490256Y-60417205D01*
X171659774Y-60303937D01*
X171803937Y-60159774D01*
X171917205Y-59990256D01*
X171995226Y-59801898D01*
X172035000Y-59601939D01*
X172035000Y-59398061D01*
X172010423Y-59274501D01*
X173782970Y-61047049D01*
X173810683Y-61080817D01*
X173844451Y-61108530D01*
X173844453Y-61108532D01*
X173945441Y-61191411D01*
X174099186Y-61273589D01*
X174266010Y-61324195D01*
X174396023Y-61337000D01*
X174396031Y-61337000D01*
X174439500Y-61341281D01*
X174482969Y-61337000D01*
X174629344Y-61337000D01*
X174670525Y-61398632D01*
X174877368Y-61605475D01*
X175051760Y-61722000D01*
X174877368Y-61838525D01*
X174670525Y-62045368D01*
X174508010Y-62288589D01*
X174396068Y-62558842D01*
X174339000Y-62845740D01*
X174339000Y-63138260D01*
X174396068Y-63425158D01*
X174508010Y-63695411D01*
X174670525Y-63938632D01*
X174877368Y-64145475D01*
X175051760Y-64262000D01*
X174877368Y-64378525D01*
X174670525Y-64585368D01*
X174508010Y-64828589D01*
X174396068Y-65098842D01*
X174339000Y-65385740D01*
X174339000Y-65678260D01*
X174396068Y-65965158D01*
X174508010Y-66235411D01*
X174670525Y-66478632D01*
X174877368Y-66685475D01*
X175051760Y-66802000D01*
X174877368Y-66918525D01*
X174670525Y-67125368D01*
X174508010Y-67368589D01*
X174396068Y-67638842D01*
X174339000Y-67925740D01*
X174339000Y-68218260D01*
X174396068Y-68505158D01*
X174508010Y-68775411D01*
X174670525Y-69018632D01*
X174877368Y-69225475D01*
X175051760Y-69342000D01*
X174877368Y-69458525D01*
X174670525Y-69665368D01*
X174508010Y-69908589D01*
X174396068Y-70178842D01*
X174339000Y-70465740D01*
X174339000Y-70758260D01*
X174396068Y-71045158D01*
X174508010Y-71315411D01*
X174670525Y-71558632D01*
X174877368Y-71765475D01*
X175051760Y-71882000D01*
X174877368Y-71998525D01*
X174670525Y-72205368D01*
X174508010Y-72448589D01*
X174396068Y-72718842D01*
X174339000Y-73005740D01*
X174339000Y-73298260D01*
X174396068Y-73585158D01*
X174508010Y-73855411D01*
X174670525Y-74098632D01*
X174877368Y-74305475D01*
X175051760Y-74422000D01*
X174877368Y-74538525D01*
X174670525Y-74745368D01*
X174508010Y-74988589D01*
X174396068Y-75258842D01*
X174339000Y-75545740D01*
X174339000Y-75838260D01*
X174396068Y-76125158D01*
X174508010Y-76395411D01*
X174670525Y-76638632D01*
X174877368Y-76845475D01*
X175051760Y-76962000D01*
X174877368Y-77078525D01*
X174670525Y-77285368D01*
X174508010Y-77528589D01*
X174396068Y-77798842D01*
X174339000Y-78085740D01*
X174339000Y-78378260D01*
X174353461Y-78450960D01*
X173385000Y-79419421D01*
X173385000Y-72543469D01*
X173389281Y-72500000D01*
X173385000Y-72456531D01*
X173385000Y-72456523D01*
X173372195Y-72326510D01*
X173321589Y-72159687D01*
X173239411Y-72005941D01*
X173198855Y-71956524D01*
X173156532Y-71904953D01*
X173156530Y-71904951D01*
X173128817Y-71871183D01*
X173095051Y-71843472D01*
X167397500Y-66145922D01*
X167397500Y-64901294D01*
X167468386Y-64863405D01*
X167602962Y-64752962D01*
X167713405Y-64618386D01*
X167795472Y-64464850D01*
X167846008Y-64298254D01*
X167863072Y-64125000D01*
X167863072Y-62875000D01*
X168136928Y-62875000D01*
X168136928Y-64125000D01*
X168153992Y-64298254D01*
X168204528Y-64464850D01*
X168286595Y-64618386D01*
X168397038Y-64752962D01*
X168531614Y-64863405D01*
X168685150Y-64945472D01*
X168851746Y-64996008D01*
X169025000Y-65013072D01*
X169950000Y-65013072D01*
X170123254Y-64996008D01*
X170289850Y-64945472D01*
X170443386Y-64863405D01*
X170577962Y-64752962D01*
X170688405Y-64618386D01*
X170748841Y-64505319D01*
X170898061Y-64535000D01*
X171101939Y-64535000D01*
X171301898Y-64495226D01*
X171490256Y-64417205D01*
X171659774Y-64303937D01*
X171803937Y-64159774D01*
X171917205Y-63990256D01*
X171995226Y-63801898D01*
X172035000Y-63601939D01*
X172035000Y-63398061D01*
X171995226Y-63198102D01*
X171917205Y-63009744D01*
X171803937Y-62840226D01*
X171659774Y-62696063D01*
X171490256Y-62582795D01*
X171301898Y-62504774D01*
X171101939Y-62465000D01*
X170898061Y-62465000D01*
X170748841Y-62494681D01*
X170688405Y-62381614D01*
X170577962Y-62247038D01*
X170443386Y-62136595D01*
X170289850Y-62054528D01*
X170123254Y-62003992D01*
X169950000Y-61986928D01*
X169025000Y-61986928D01*
X168851746Y-62003992D01*
X168685150Y-62054528D01*
X168531614Y-62136595D01*
X168397038Y-62247038D01*
X168286595Y-62381614D01*
X168204528Y-62535150D01*
X168153992Y-62701746D01*
X168136928Y-62875000D01*
X167863072Y-62875000D01*
X167846008Y-62701746D01*
X167795472Y-62535150D01*
X167713405Y-62381614D01*
X167602962Y-62247038D01*
X167468386Y-62136595D01*
X167397500Y-62098706D01*
X167397500Y-60901294D01*
X167468386Y-60863405D01*
X167602962Y-60752962D01*
X167713405Y-60618386D01*
X167795472Y-60464850D01*
X167846008Y-60298254D01*
X167863072Y-60125000D01*
X167863072Y-58875000D01*
X167846008Y-58701746D01*
X167795472Y-58535150D01*
X167713405Y-58381614D01*
X167602962Y-58247038D01*
X167468386Y-58136595D01*
X167314850Y-58054528D01*
X167148254Y-58003992D01*
X166975000Y-57986928D01*
X166050000Y-57986928D01*
X165876746Y-58003992D01*
X165710150Y-58054528D01*
X165556614Y-58136595D01*
X165422038Y-58247038D01*
X165311595Y-58381614D01*
X165229528Y-58535150D01*
X165178992Y-58701746D01*
X165161928Y-58875000D01*
X165161928Y-60125000D01*
X165178992Y-60298254D01*
X165229528Y-60464850D01*
X165311595Y-60618386D01*
X165422038Y-60752962D01*
X165556614Y-60863405D01*
X165627500Y-60901295D01*
X165627501Y-62098705D01*
X165556614Y-62136595D01*
X165422038Y-62247038D01*
X165311595Y-62381614D01*
X165229528Y-62535150D01*
X165178992Y-62701746D01*
X165161928Y-62875000D01*
X165161928Y-64125000D01*
X165178992Y-64298254D01*
X165229528Y-64464850D01*
X165311595Y-64618386D01*
X165422038Y-64752962D01*
X165556614Y-64863405D01*
X165627500Y-64901295D01*
X165627501Y-66469021D01*
X165623219Y-66512500D01*
X165640305Y-66685990D01*
X165690912Y-66852813D01*
X165773090Y-67006559D01*
X165855968Y-67107546D01*
X165855971Y-67107549D01*
X165883684Y-67141317D01*
X165917452Y-67169030D01*
X171615000Y-72866579D01*
X171615001Y-79461544D01*
X171582795Y-79509744D01*
X171562999Y-79557535D01*
X171562999Y-75669464D01*
X171567280Y-75625998D01*
X171562999Y-75582532D01*
X171562999Y-75582522D01*
X171550194Y-75452509D01*
X171499588Y-75285686D01*
X171417410Y-75131940D01*
X171306816Y-74997182D01*
X171273048Y-74969469D01*
X162054539Y-65750961D01*
X162069000Y-65678260D01*
X162069000Y-65385740D01*
X162011932Y-65098842D01*
X161899990Y-64828589D01*
X161737475Y-64585368D01*
X161530632Y-64378525D01*
X161356240Y-64262000D01*
X161530632Y-64145475D01*
X161737475Y-63938632D01*
X161899990Y-63695411D01*
X162011932Y-63425158D01*
X162069000Y-63138260D01*
X162069000Y-62845740D01*
X162011932Y-62558842D01*
X161899990Y-62288589D01*
X161737475Y-62045368D01*
X161530632Y-61838525D01*
X161356240Y-61722000D01*
X161530632Y-61605475D01*
X161737475Y-61398632D01*
X161899990Y-61155411D01*
X162011932Y-60885158D01*
X162069000Y-60598260D01*
X162069000Y-60305740D01*
X162011932Y-60018842D01*
X161899990Y-59748589D01*
X161737475Y-59505368D01*
X161530632Y-59298525D01*
X161356240Y-59182000D01*
X161530632Y-59065475D01*
X161737475Y-58858632D01*
X161899990Y-58615411D01*
X162011932Y-58345158D01*
X162069000Y-58058260D01*
X162069000Y-57765740D01*
X162011932Y-57478842D01*
X161899990Y-57208589D01*
X161737475Y-56965368D01*
X161530632Y-56758525D01*
X161356240Y-56642000D01*
X161530632Y-56525475D01*
X161737475Y-56318632D01*
X161899990Y-56075411D01*
X162011932Y-55805158D01*
X162069000Y-55518260D01*
X162069000Y-55225740D01*
X162011932Y-54938842D01*
X161899990Y-54668589D01*
X161737475Y-54425368D01*
X161605620Y-54293513D01*
X161678180Y-54271502D01*
X161788494Y-54212537D01*
X161885185Y-54133185D01*
X161964537Y-54036494D01*
X162023502Y-53926180D01*
X162059812Y-53806482D01*
X162072072Y-53682000D01*
X162072072Y-51982000D01*
X162059812Y-51857518D01*
X162023502Y-51737820D01*
X161964537Y-51627506D01*
X161885185Y-51530815D01*
X161788494Y-51451463D01*
X161678180Y-51392498D01*
X161558482Y-51356188D01*
X161434000Y-51343928D01*
X159734000Y-51343928D01*
X159609518Y-51356188D01*
X159489820Y-51392498D01*
X159379506Y-51451463D01*
X159282815Y-51530815D01*
X159203463Y-51627506D01*
X159144498Y-51737820D01*
X159108188Y-51857518D01*
X159095928Y-51982000D01*
X159095928Y-53682000D01*
X159108188Y-53806482D01*
X159144498Y-53926180D01*
X159203463Y-54036494D01*
X159282815Y-54133185D01*
X159379506Y-54212537D01*
X159489820Y-54271502D01*
X159562380Y-54293513D01*
X159430525Y-54425368D01*
X159268010Y-54668589D01*
X159156068Y-54938842D01*
X159099000Y-55225740D01*
X159099000Y-55518260D01*
X159156068Y-55805158D01*
X159268010Y-56075411D01*
X159430525Y-56318632D01*
X159637368Y-56525475D01*
X159811760Y-56642000D01*
X159637368Y-56758525D01*
X159430525Y-56965368D01*
X159268010Y-57208589D01*
X159156068Y-57478842D01*
X159099000Y-57765740D01*
X159099000Y-58058260D01*
X159156068Y-58345158D01*
X159268010Y-58615411D01*
X159430525Y-58858632D01*
X159637368Y-59065475D01*
X159811760Y-59182000D01*
X159637368Y-59298525D01*
X159430525Y-59505368D01*
X159268010Y-59748589D01*
X159156068Y-60018842D01*
X159099000Y-60305740D01*
X159099000Y-60598260D01*
X159156068Y-60885158D01*
X159268010Y-61155411D01*
X159430525Y-61398632D01*
X159637368Y-61605475D01*
X159811760Y-61722000D01*
X159637368Y-61838525D01*
X159430525Y-62045368D01*
X159268010Y-62288589D01*
X159156068Y-62558842D01*
X159099000Y-62845740D01*
X159099000Y-63138260D01*
X159156068Y-63425158D01*
X159268010Y-63695411D01*
X159430525Y-63938632D01*
X159637368Y-64145475D01*
X159811760Y-64262000D01*
X159637368Y-64378525D01*
X159430525Y-64585368D01*
X159268010Y-64828589D01*
X159156068Y-65098842D01*
X159099000Y-65385740D01*
X159099000Y-65678260D01*
X159156068Y-65965158D01*
X159268010Y-66235411D01*
X159430525Y-66478632D01*
X159637368Y-66685475D01*
X159811760Y-66802000D01*
X159637368Y-66918525D01*
X159430525Y-67125368D01*
X159268010Y-67368589D01*
X159156068Y-67638842D01*
X159099000Y-67925740D01*
X159099000Y-68218260D01*
X159156068Y-68505158D01*
X159268010Y-68775411D01*
X159430525Y-69018632D01*
X159637368Y-69225475D01*
X159811760Y-69342000D01*
X159637368Y-69458525D01*
X159430525Y-69665368D01*
X159268010Y-69908589D01*
X159156068Y-70178842D01*
X159099000Y-70465740D01*
X159099000Y-70758260D01*
X159156068Y-71045158D01*
X159268010Y-71315411D01*
X159430525Y-71558632D01*
X159637368Y-71765475D01*
X159811760Y-71882000D01*
X159637368Y-71998525D01*
X159430525Y-72205368D01*
X159268010Y-72448589D01*
X159156068Y-72718842D01*
X159125267Y-72873689D01*
X158885000Y-72633422D01*
X158885000Y-65043465D01*
X158889281Y-64999999D01*
X158885000Y-64956533D01*
X158885000Y-64956523D01*
X158872195Y-64826510D01*
X158821589Y-64659687D01*
X158739411Y-64505941D01*
X158628817Y-64371183D01*
X158595049Y-64343470D01*
X158256535Y-64004956D01*
X158245226Y-63948102D01*
X158167205Y-63759744D01*
X158053937Y-63590226D01*
X157909774Y-63446063D01*
X157740256Y-63332795D01*
X157551898Y-63254774D01*
X157351939Y-63215000D01*
X157148061Y-63215000D01*
X156948102Y-63254774D01*
X156759744Y-63332795D01*
X156590226Y-63446063D01*
X156446063Y-63590226D01*
X156332795Y-63759744D01*
X156254774Y-63948102D01*
X156215000Y-64148061D01*
X156215000Y-64351939D01*
X156254774Y-64551898D01*
X156332795Y-64740256D01*
X156446063Y-64909774D01*
X156590226Y-65053937D01*
X156759744Y-65167205D01*
X156948102Y-65245226D01*
X157004956Y-65256535D01*
X157115001Y-65366580D01*
X157115000Y-71069848D01*
X156957898Y-71004774D01*
X156757939Y-70965000D01*
X156554061Y-70965000D01*
X156354102Y-71004774D01*
X156165744Y-71082795D01*
X155996226Y-71196063D01*
X155852063Y-71340226D01*
X155738795Y-71509744D01*
X155660774Y-71698102D01*
X155621000Y-71898061D01*
X155621000Y-72101939D01*
X155660774Y-72301898D01*
X155738795Y-72490256D01*
X155771000Y-72538454D01*
X155771001Y-78265288D01*
X155696063Y-78340226D01*
X155582795Y-78509744D01*
X155504774Y-78698102D01*
X155465000Y-78898061D01*
X155465000Y-79101939D01*
X155504774Y-79301898D01*
X155582795Y-79490256D01*
X155615000Y-79538454D01*
X155615001Y-90461544D01*
X155582795Y-90509744D01*
X155504774Y-90698102D01*
X155465000Y-90898061D01*
X155465000Y-91101939D01*
X155504774Y-91301898D01*
X155582795Y-91490256D01*
X155696063Y-91659774D01*
X155840226Y-91803937D01*
X156009744Y-91917205D01*
X156198102Y-91995226D01*
X156398061Y-92035000D01*
X156601939Y-92035000D01*
X156801898Y-91995226D01*
X156990256Y-91917205D01*
X157159774Y-91803937D01*
X157303937Y-91659774D01*
X157417205Y-91490256D01*
X157495226Y-91301898D01*
X157535000Y-91101939D01*
X157535000Y-90898061D01*
X157495226Y-90698102D01*
X157417205Y-90509744D01*
X157385000Y-90461546D01*
X157385000Y-79538454D01*
X157417205Y-79490256D01*
X157495226Y-79301898D01*
X157535000Y-79101939D01*
X157535000Y-78948396D01*
X157541000Y-78887476D01*
X157541000Y-78887467D01*
X157545281Y-78844001D01*
X157541000Y-78800535D01*
X157541000Y-73792578D01*
X159131380Y-75382958D01*
X159099000Y-75545740D01*
X159099000Y-75838260D01*
X159156068Y-76125158D01*
X159268010Y-76395411D01*
X159430525Y-76638632D01*
X159637368Y-76845475D01*
X159811760Y-76962000D01*
X159637368Y-77078525D01*
X159430525Y-77285368D01*
X159268010Y-77528589D01*
X159156068Y-77798842D01*
X159099000Y-78085740D01*
X159099000Y-78378260D01*
X159156068Y-78665158D01*
X159268010Y-78935411D01*
X159430525Y-79178632D01*
X159637368Y-79385475D01*
X159819534Y-79507195D01*
X159702645Y-79576822D01*
X159486412Y-79771731D01*
X159312359Y-80005080D01*
X159187175Y-80267901D01*
X159142524Y-80415110D01*
X159263845Y-80645000D01*
X160457000Y-80645000D01*
X160457000Y-80625000D01*
X160711000Y-80625000D01*
X160711000Y-80645000D01*
X161904155Y-80645000D01*
X162025476Y-80415110D01*
X161980825Y-80267901D01*
X161855641Y-80005080D01*
X161681588Y-79771731D01*
X161465355Y-79576822D01*
X161348466Y-79507195D01*
X161530632Y-79385475D01*
X161737475Y-79178632D01*
X161899990Y-78935411D01*
X162011932Y-78665158D01*
X162069000Y-78378260D01*
X162069000Y-78085740D01*
X162011932Y-77798842D01*
X161899990Y-77528589D01*
X161737475Y-77285368D01*
X161530632Y-77078525D01*
X161356240Y-76962000D01*
X161530632Y-76845475D01*
X161737475Y-76638632D01*
X161899990Y-76395411D01*
X162011932Y-76125158D01*
X162069000Y-75838260D01*
X162069000Y-75545740D01*
X162011932Y-75258842D01*
X161899990Y-74988589D01*
X161737475Y-74745368D01*
X161530632Y-74538525D01*
X161356240Y-74422000D01*
X161530632Y-74305475D01*
X161737475Y-74098632D01*
X161899990Y-73855411D01*
X162011932Y-73585158D01*
X162069000Y-73298260D01*
X162069000Y-73005740D01*
X162011932Y-72718842D01*
X161899990Y-72448589D01*
X161737475Y-72205368D01*
X161530632Y-71998525D01*
X161356240Y-71882000D01*
X161530632Y-71765475D01*
X161737475Y-71558632D01*
X161899990Y-71315411D01*
X162011932Y-71045158D01*
X162069000Y-70758260D01*
X162069000Y-70465740D01*
X162011932Y-70178842D01*
X161899990Y-69908589D01*
X161737475Y-69665368D01*
X161530632Y-69458525D01*
X161356240Y-69342000D01*
X161530632Y-69225475D01*
X161737475Y-69018632D01*
X161899990Y-68775411D01*
X162011932Y-68505158D01*
X162060652Y-68260230D01*
X162933896Y-69133475D01*
X162840226Y-69196063D01*
X162696063Y-69340226D01*
X162582795Y-69509744D01*
X162504774Y-69698102D01*
X162465000Y-69898061D01*
X162465000Y-70101939D01*
X162504774Y-70301898D01*
X162582795Y-70490256D01*
X162696063Y-70659774D01*
X162840226Y-70803937D01*
X163009744Y-70917205D01*
X163198102Y-70995226D01*
X163254957Y-71006535D01*
X169092990Y-76844569D01*
X169092989Y-88924483D01*
X169088708Y-88967952D01*
X169092989Y-89011421D01*
X169092989Y-89011428D01*
X169105794Y-89141441D01*
X169115000Y-89171789D01*
X169115000Y-89456531D01*
X169110719Y-89500000D01*
X169115000Y-89543469D01*
X169115000Y-89543476D01*
X169127805Y-89673489D01*
X169178411Y-89840312D01*
X169260589Y-89994058D01*
X169371183Y-90128817D01*
X169404956Y-90156534D01*
X171904953Y-92656532D01*
X171904959Y-92656537D01*
X176102501Y-96854080D01*
X176102500Y-103098705D01*
X176031614Y-103136595D01*
X175897038Y-103247038D01*
X175786595Y-103381614D01*
X175704528Y-103535150D01*
X175653992Y-103701746D01*
X175636928Y-103875000D01*
X175636928Y-105125000D01*
X175653992Y-105298254D01*
X175704528Y-105464850D01*
X175786595Y-105618386D01*
X175897038Y-105752962D01*
X176031614Y-105863405D01*
X176102500Y-105901295D01*
X176102501Y-109944021D01*
X176098219Y-109987500D01*
X176115305Y-110160990D01*
X176161928Y-110314680D01*
X176161928Y-111150001D01*
X176178992Y-111323255D01*
X176229528Y-111489851D01*
X176311595Y-111643387D01*
X176422038Y-111777962D01*
X176556613Y-111888405D01*
X176710149Y-111970472D01*
X176876745Y-112021008D01*
X177049999Y-112038072D01*
X177950001Y-112038072D01*
X178123255Y-112021008D01*
X178289851Y-111970472D01*
X178443387Y-111888405D01*
X178577962Y-111777962D01*
X178688405Y-111643387D01*
X178770472Y-111489851D01*
X178821008Y-111323255D01*
X178838072Y-111150001D01*
X178838072Y-109849999D01*
X178821008Y-109676745D01*
X178770472Y-109510149D01*
X178688405Y-109356613D01*
X178577962Y-109222038D01*
X178443387Y-109111595D01*
X178289851Y-109029528D01*
X178123255Y-108978992D01*
X177950001Y-108961928D01*
X177872500Y-108961928D01*
X177872500Y-106074832D01*
X181991000Y-106074832D01*
X181991000Y-106575168D01*
X182088611Y-107065891D01*
X182280081Y-107528141D01*
X182558053Y-107944156D01*
X182911844Y-108297947D01*
X183327859Y-108575919D01*
X183790109Y-108767389D01*
X184280832Y-108865000D01*
X184781168Y-108865000D01*
X185271891Y-108767389D01*
X185423691Y-108704512D01*
X185385731Y-108796154D01*
X185293000Y-109262340D01*
X185293000Y-109737660D01*
X185385731Y-110203846D01*
X185423691Y-110295488D01*
X185271891Y-110232611D01*
X184781168Y-110135000D01*
X184280832Y-110135000D01*
X183790109Y-110232611D01*
X183327859Y-110424081D01*
X182911844Y-110702053D01*
X182558053Y-111055844D01*
X182280081Y-111471859D01*
X182088611Y-111934109D01*
X181991000Y-112424832D01*
X181991000Y-112925168D01*
X182088611Y-113415891D01*
X182280081Y-113878141D01*
X182558053Y-114294156D01*
X182911844Y-114647947D01*
X183327859Y-114925919D01*
X183790109Y-115117389D01*
X184280832Y-115215000D01*
X184781168Y-115215000D01*
X185271891Y-115117389D01*
X185734141Y-114925919D01*
X186150156Y-114647947D01*
X186503947Y-114294156D01*
X186781919Y-113878141D01*
X186973389Y-113415891D01*
X187071000Y-112925168D01*
X187071000Y-112424832D01*
X186973389Y-111934109D01*
X186910512Y-111782309D01*
X187002154Y-111820269D01*
X187468340Y-111913000D01*
X187943660Y-111913000D01*
X188409846Y-111820269D01*
X188501488Y-111782309D01*
X188438611Y-111934109D01*
X188341000Y-112424832D01*
X188341000Y-112925168D01*
X188438611Y-113415891D01*
X188630081Y-113878141D01*
X188908053Y-114294156D01*
X189261844Y-114647947D01*
X189677859Y-114925919D01*
X190140109Y-115117389D01*
X190630832Y-115215000D01*
X191131168Y-115215000D01*
X191621891Y-115117389D01*
X192084141Y-114925919D01*
X192500156Y-114647947D01*
X192853947Y-114294156D01*
X193131919Y-113878141D01*
X193323389Y-113415891D01*
X193421000Y-112925168D01*
X193421000Y-112424832D01*
X193323389Y-111934109D01*
X193131919Y-111471859D01*
X192853947Y-111055844D01*
X192500156Y-110702053D01*
X192084141Y-110424081D01*
X191621891Y-110232611D01*
X191131168Y-110135000D01*
X190630832Y-110135000D01*
X190140109Y-110232611D01*
X189988309Y-110295488D01*
X190026269Y-110203846D01*
X190119000Y-109737660D01*
X190119000Y-109262340D01*
X190026269Y-108796154D01*
X189988309Y-108704512D01*
X190140109Y-108767389D01*
X190630832Y-108865000D01*
X191131168Y-108865000D01*
X191621891Y-108767389D01*
X192084141Y-108575919D01*
X192500156Y-108297947D01*
X192853947Y-107944156D01*
X193131919Y-107528141D01*
X193323389Y-107065891D01*
X193421000Y-106575168D01*
X193421000Y-106074832D01*
X193323389Y-105584109D01*
X193131919Y-105121859D01*
X192853947Y-104705844D01*
X192500156Y-104352053D01*
X192084141Y-104074081D01*
X191621891Y-103882611D01*
X191131168Y-103785000D01*
X190630832Y-103785000D01*
X190140109Y-103882611D01*
X189677859Y-104074081D01*
X189261844Y-104352053D01*
X188908053Y-104705844D01*
X188630081Y-105121859D01*
X188438611Y-105584109D01*
X188341000Y-106074832D01*
X188341000Y-106575168D01*
X188438611Y-107065891D01*
X188501488Y-107217691D01*
X188409846Y-107179731D01*
X187943660Y-107087000D01*
X187468340Y-107087000D01*
X187002154Y-107179731D01*
X186910512Y-107217691D01*
X186973389Y-107065891D01*
X187071000Y-106575168D01*
X187071000Y-106074832D01*
X186973389Y-105584109D01*
X186781919Y-105121859D01*
X186503947Y-104705844D01*
X186150156Y-104352053D01*
X185734141Y-104074081D01*
X185271891Y-103882611D01*
X184781168Y-103785000D01*
X184280832Y-103785000D01*
X183790109Y-103882611D01*
X183327859Y-104074081D01*
X182911844Y-104352053D01*
X182558053Y-104705844D01*
X182280081Y-105121859D01*
X182088611Y-105584109D01*
X181991000Y-106074832D01*
X177872500Y-106074832D01*
X177872500Y-105901294D01*
X177943386Y-105863405D01*
X178077962Y-105752962D01*
X178188405Y-105618386D01*
X178270472Y-105464850D01*
X178321008Y-105298254D01*
X178338072Y-105125000D01*
X178338072Y-103875000D01*
X178321008Y-103701746D01*
X178270472Y-103535150D01*
X178188405Y-103381614D01*
X178077962Y-103247038D01*
X177943386Y-103136595D01*
X177872500Y-103098706D01*
X177872500Y-96530965D01*
X177876781Y-96487499D01*
X177872500Y-96444033D01*
X177872500Y-96444023D01*
X177859695Y-96314010D01*
X177809089Y-96147187D01*
X177726911Y-95993441D01*
X177616317Y-95858683D01*
X177582549Y-95830970D01*
X176051579Y-94300000D01*
X178061928Y-94300000D01*
X178061928Y-97700000D01*
X178074188Y-97824482D01*
X178110498Y-97944180D01*
X178169463Y-98054494D01*
X178248815Y-98151185D01*
X178345506Y-98230537D01*
X178455820Y-98289502D01*
X178575518Y-98325812D01*
X178700000Y-98338072D01*
X180000000Y-98338072D01*
X180124482Y-98325812D01*
X180244180Y-98289502D01*
X180354494Y-98230537D01*
X180451185Y-98151185D01*
X180530537Y-98054494D01*
X180589502Y-97944180D01*
X180625812Y-97824482D01*
X180638072Y-97700000D01*
X180638072Y-95963507D01*
X181095049Y-95506530D01*
X181128817Y-95478817D01*
X181188141Y-95406532D01*
X181239411Y-95344059D01*
X181321589Y-95190314D01*
X181372195Y-95023490D01*
X181376878Y-94975938D01*
X181385000Y-94893477D01*
X181385000Y-94893469D01*
X181389281Y-94850000D01*
X181385000Y-94806531D01*
X181385000Y-94636578D01*
X183343470Y-96595049D01*
X183371183Y-96628817D01*
X183404951Y-96656530D01*
X183404953Y-96656532D01*
X183505941Y-96739411D01*
X183622842Y-96801895D01*
X183327859Y-96924081D01*
X182911844Y-97202053D01*
X182558053Y-97555844D01*
X182280081Y-97971859D01*
X182088611Y-98434109D01*
X181991000Y-98924832D01*
X181991000Y-99425168D01*
X182088611Y-99915891D01*
X182280081Y-100378141D01*
X182558053Y-100794156D01*
X182911844Y-101147947D01*
X183327859Y-101425919D01*
X183790109Y-101617389D01*
X184280832Y-101715000D01*
X184781168Y-101715000D01*
X185271891Y-101617389D01*
X185734141Y-101425919D01*
X186150156Y-101147947D01*
X186503947Y-100794156D01*
X186781919Y-100378141D01*
X186973389Y-99915891D01*
X187071000Y-99425168D01*
X187071000Y-98924832D01*
X186973389Y-98434109D01*
X186910512Y-98282309D01*
X187002154Y-98320269D01*
X187468340Y-98413000D01*
X187943660Y-98413000D01*
X188409846Y-98320269D01*
X188501488Y-98282309D01*
X188438611Y-98434109D01*
X188341000Y-98924832D01*
X188341000Y-99425168D01*
X188438611Y-99915891D01*
X188630081Y-100378141D01*
X188908053Y-100794156D01*
X189261844Y-101147947D01*
X189677859Y-101425919D01*
X190140109Y-101617389D01*
X190630832Y-101715000D01*
X191131168Y-101715000D01*
X191621891Y-101617389D01*
X192084141Y-101425919D01*
X192500156Y-101147947D01*
X192853947Y-100794156D01*
X193131919Y-100378141D01*
X193323389Y-99915891D01*
X193421000Y-99425168D01*
X193421000Y-98924832D01*
X193323389Y-98434109D01*
X193131919Y-97971859D01*
X192853947Y-97555844D01*
X192500156Y-97202053D01*
X192084141Y-96924081D01*
X191621891Y-96732611D01*
X191131168Y-96635000D01*
X190630832Y-96635000D01*
X190140109Y-96732611D01*
X189988309Y-96795488D01*
X190026269Y-96703846D01*
X190119000Y-96237660D01*
X190119000Y-95762340D01*
X190026269Y-95296154D01*
X189988309Y-95204512D01*
X190140109Y-95267389D01*
X190630832Y-95365000D01*
X191131168Y-95365000D01*
X191621891Y-95267389D01*
X192084141Y-95075919D01*
X192500156Y-94797947D01*
X192853947Y-94444156D01*
X193131919Y-94028141D01*
X193323389Y-93565891D01*
X193421000Y-93075168D01*
X193421000Y-92574832D01*
X193323389Y-92084109D01*
X193131919Y-91621859D01*
X192853947Y-91205844D01*
X192500156Y-90852053D01*
X192084141Y-90574081D01*
X191621891Y-90382611D01*
X191131168Y-90285000D01*
X190630832Y-90285000D01*
X190140109Y-90382611D01*
X189677859Y-90574081D01*
X189261844Y-90852053D01*
X188908053Y-91205844D01*
X188630081Y-91621859D01*
X188438611Y-92084109D01*
X188341000Y-92574832D01*
X188341000Y-93075168D01*
X188438611Y-93565891D01*
X188501488Y-93717691D01*
X188409846Y-93679731D01*
X187943660Y-93587000D01*
X187468340Y-93587000D01*
X187002154Y-93679731D01*
X186910512Y-93717691D01*
X186973389Y-93565891D01*
X187071000Y-93075168D01*
X187071000Y-92574832D01*
X186973389Y-92084109D01*
X186781919Y-91621859D01*
X186503947Y-91205844D01*
X186150156Y-90852053D01*
X185734141Y-90574081D01*
X185271891Y-90382611D01*
X184781168Y-90285000D01*
X184280832Y-90285000D01*
X183790109Y-90382611D01*
X183327859Y-90574081D01*
X182911844Y-90852053D01*
X182558053Y-91205844D01*
X182280081Y-91621859D01*
X182088611Y-92084109D01*
X181991000Y-92574832D01*
X181991000Y-92582941D01*
X181878937Y-92415226D01*
X181734774Y-92271063D01*
X181565256Y-92157795D01*
X181376898Y-92079774D01*
X181176939Y-92040000D01*
X180973061Y-92040000D01*
X180773102Y-92079774D01*
X180584744Y-92157795D01*
X180415226Y-92271063D01*
X180271063Y-92415226D01*
X180157795Y-92584744D01*
X180079774Y-92773102D01*
X180068465Y-92829957D01*
X180004956Y-92893466D01*
X179971183Y-92921183D01*
X179860589Y-93055942D01*
X179778411Y-93209688D01*
X179727805Y-93376511D01*
X179715000Y-93506524D01*
X179715000Y-93506531D01*
X179710719Y-93550000D01*
X179714814Y-93591582D01*
X179678411Y-93659688D01*
X179677731Y-93661928D01*
X178700000Y-93661928D01*
X178575518Y-93674188D01*
X178455820Y-93710498D01*
X178345506Y-93769463D01*
X178248815Y-93848815D01*
X178169463Y-93945506D01*
X178110498Y-94055820D01*
X178074188Y-94175518D01*
X178061928Y-94300000D01*
X176051579Y-94300000D01*
X174136578Y-92385000D01*
X177456531Y-92385000D01*
X177500000Y-92389281D01*
X177543469Y-92385000D01*
X177543477Y-92385000D01*
X177673490Y-92372195D01*
X177840313Y-92321589D01*
X177994059Y-92239411D01*
X178128817Y-92128817D01*
X178156534Y-92095044D01*
X180366579Y-89885000D01*
X186456531Y-89885000D01*
X186500000Y-89889281D01*
X186543469Y-89885000D01*
X186543477Y-89885000D01*
X186673490Y-89872195D01*
X186840313Y-89821589D01*
X186994059Y-89739411D01*
X187128817Y-89628817D01*
X187156534Y-89595044D01*
X188301049Y-88450530D01*
X188334817Y-88422817D01*
X188377193Y-88371183D01*
X188445411Y-88288059D01*
X188527589Y-88134314D01*
X188578195Y-87967490D01*
X188582569Y-87923080D01*
X188591000Y-87837477D01*
X188591000Y-87837469D01*
X188595281Y-87794000D01*
X188591000Y-87750531D01*
X188591000Y-86783791D01*
X188630081Y-86878141D01*
X188908053Y-87294156D01*
X189261844Y-87647947D01*
X189677859Y-87925919D01*
X190140109Y-88117389D01*
X190630832Y-88215000D01*
X191131168Y-88215000D01*
X191621891Y-88117389D01*
X192084141Y-87925919D01*
X192500156Y-87647947D01*
X192853947Y-87294156D01*
X193131919Y-86878141D01*
X193323389Y-86415891D01*
X193421000Y-85925168D01*
X193421000Y-85424832D01*
X193323389Y-84934109D01*
X193131919Y-84471859D01*
X192853947Y-84055844D01*
X192500156Y-83702053D01*
X192084141Y-83424081D01*
X191621891Y-83232611D01*
X191131168Y-83135000D01*
X190630832Y-83135000D01*
X190140109Y-83232611D01*
X189988309Y-83295488D01*
X190026269Y-83203846D01*
X190119000Y-82737660D01*
X190119000Y-82262340D01*
X190026269Y-81796154D01*
X189988309Y-81704512D01*
X190140109Y-81767389D01*
X190630832Y-81865000D01*
X191131168Y-81865000D01*
X191621891Y-81767389D01*
X192084141Y-81575919D01*
X192500156Y-81297947D01*
X192853947Y-80944156D01*
X193131919Y-80528141D01*
X193323389Y-80065891D01*
X193421000Y-79575168D01*
X193421000Y-79074832D01*
X193323389Y-78584109D01*
X193131919Y-78121859D01*
X192853947Y-77705844D01*
X192500156Y-77352053D01*
X192084141Y-77074081D01*
X191621891Y-76882611D01*
X191131168Y-76785000D01*
X190630832Y-76785000D01*
X190140109Y-76882611D01*
X189677859Y-77074081D01*
X189261844Y-77352053D01*
X188908053Y-77705844D01*
X188630081Y-78121859D01*
X188438611Y-78584109D01*
X188341000Y-79074832D01*
X188341000Y-79575168D01*
X188358735Y-79664327D01*
X188334817Y-79635183D01*
X188200059Y-79524589D01*
X188046313Y-79442411D01*
X187879490Y-79391805D01*
X187706000Y-79374718D01*
X187532511Y-79391805D01*
X187365688Y-79442411D01*
X187211942Y-79524589D01*
X187077184Y-79635183D01*
X187053265Y-79664328D01*
X187071000Y-79575168D01*
X187071000Y-79074832D01*
X186973389Y-78584109D01*
X186781919Y-78121859D01*
X186503947Y-77705844D01*
X186150156Y-77352053D01*
X185734141Y-77074081D01*
X185271891Y-76882611D01*
X184781168Y-76785000D01*
X184280832Y-76785000D01*
X183790109Y-76882611D01*
X183327859Y-77074081D01*
X182911844Y-77352053D01*
X182558053Y-77705844D01*
X182385000Y-77964836D01*
X182385000Y-77911469D01*
X182389281Y-77868000D01*
X182385000Y-77824531D01*
X182385000Y-77824523D01*
X182372195Y-77694510D01*
X182321589Y-77527687D01*
X182239411Y-77373941D01*
X182178382Y-77299577D01*
X182156532Y-77272953D01*
X182156530Y-77272951D01*
X182128817Y-77239183D01*
X182095050Y-77211471D01*
X179980534Y-75096956D01*
X179952817Y-75063183D01*
X179818059Y-74952589D01*
X179664313Y-74870411D01*
X179497490Y-74819805D01*
X179367477Y-74807000D01*
X179367469Y-74807000D01*
X179324000Y-74802719D01*
X179280531Y-74807000D01*
X177018656Y-74807000D01*
X176977475Y-74745368D01*
X176770632Y-74538525D01*
X176596240Y-74422000D01*
X176770632Y-74305475D01*
X176977475Y-74098632D01*
X177018656Y-74037000D01*
X179280531Y-74037000D01*
X179324000Y-74041281D01*
X179367469Y-74037000D01*
X179367477Y-74037000D01*
X179497490Y-74024195D01*
X179664313Y-73973589D01*
X179818059Y-73891411D01*
X179952817Y-73780817D01*
X179980534Y-73747044D01*
X180769049Y-72958530D01*
X180802816Y-72930818D01*
X180846048Y-72878141D01*
X180913409Y-72796061D01*
X180913410Y-72796060D01*
X180995588Y-72642314D01*
X181046194Y-72475491D01*
X181058999Y-72345478D01*
X181058999Y-72345468D01*
X181063280Y-72302002D01*
X181058999Y-72258536D01*
X181058999Y-72160579D01*
X182039730Y-71179848D01*
X181991000Y-71424832D01*
X181991000Y-71925168D01*
X182088611Y-72415891D01*
X182280081Y-72878141D01*
X182558053Y-73294156D01*
X182911844Y-73647947D01*
X183327859Y-73925919D01*
X183790109Y-74117389D01*
X184280832Y-74215000D01*
X184781168Y-74215000D01*
X185271891Y-74117389D01*
X185734141Y-73925919D01*
X186150156Y-73647947D01*
X186503947Y-73294156D01*
X186781919Y-72878141D01*
X186973389Y-72415891D01*
X187071000Y-71925168D01*
X187071000Y-71424832D01*
X186973389Y-70934109D01*
X186910512Y-70782309D01*
X187002154Y-70820269D01*
X187468340Y-70913000D01*
X187943660Y-70913000D01*
X188409846Y-70820269D01*
X188501488Y-70782309D01*
X188438611Y-70934109D01*
X188341000Y-71424832D01*
X188341000Y-71925168D01*
X188438611Y-72415891D01*
X188630081Y-72878141D01*
X188908053Y-73294156D01*
X189261844Y-73647947D01*
X189677859Y-73925919D01*
X190140109Y-74117389D01*
X190630832Y-74215000D01*
X191131168Y-74215000D01*
X191621891Y-74117389D01*
X192084141Y-73925919D01*
X192500156Y-73647947D01*
X192853947Y-73294156D01*
X193131919Y-72878141D01*
X193323389Y-72415891D01*
X193421000Y-71925168D01*
X193421000Y-71424832D01*
X193323389Y-70934109D01*
X193131919Y-70471859D01*
X192853947Y-70055844D01*
X192500156Y-69702053D01*
X192084141Y-69424081D01*
X191621891Y-69232611D01*
X191131168Y-69135000D01*
X190630832Y-69135000D01*
X190140109Y-69232611D01*
X189988309Y-69295488D01*
X190026269Y-69203846D01*
X190119000Y-68737660D01*
X190119000Y-68262340D01*
X190026269Y-67796154D01*
X189988309Y-67704512D01*
X190140109Y-67767389D01*
X190630832Y-67865000D01*
X191131168Y-67865000D01*
X191621891Y-67767389D01*
X192084141Y-67575919D01*
X192500156Y-67297947D01*
X192853947Y-66944156D01*
X193131919Y-66528141D01*
X193323389Y-66065891D01*
X193421000Y-65575168D01*
X193421000Y-65074832D01*
X193323389Y-64584109D01*
X193131919Y-64121859D01*
X192853947Y-63705844D01*
X192500156Y-63352053D01*
X192084141Y-63074081D01*
X191621891Y-62882611D01*
X191131168Y-62785000D01*
X190630832Y-62785000D01*
X190140109Y-62882611D01*
X189677859Y-63074081D01*
X189261844Y-63352053D01*
X188908053Y-63705844D01*
X188630081Y-64121859D01*
X188438611Y-64584109D01*
X188341000Y-65074832D01*
X188341000Y-65575168D01*
X188438611Y-66065891D01*
X188501488Y-66217691D01*
X188409846Y-66179731D01*
X187943660Y-66087000D01*
X187468340Y-66087000D01*
X187002154Y-66179731D01*
X186910512Y-66217691D01*
X186973389Y-66065891D01*
X187071000Y-65575168D01*
X187071000Y-65074832D01*
X186973389Y-64584109D01*
X186781919Y-64121859D01*
X186503947Y-63705844D01*
X186150156Y-63352053D01*
X185734141Y-63074081D01*
X185271891Y-62882611D01*
X184781168Y-62785000D01*
X184280832Y-62785000D01*
X183790109Y-62882611D01*
X183327859Y-63074081D01*
X182911844Y-63352053D01*
X182558053Y-63705844D01*
X182280081Y-64121859D01*
X182241000Y-64216209D01*
X182241000Y-63358578D01*
X183246579Y-62353000D01*
X185376531Y-62353000D01*
X185420000Y-62357281D01*
X185463469Y-62353000D01*
X185463477Y-62353000D01*
X185593490Y-62340195D01*
X185760313Y-62289589D01*
X185914059Y-62207411D01*
X186048817Y-62096817D01*
X186076534Y-62063044D01*
X188301050Y-59838529D01*
X188334817Y-59810817D01*
X188445411Y-59676059D01*
X188527589Y-59522313D01*
X188578195Y-59355490D01*
X188591000Y-59225477D01*
X188591000Y-59225467D01*
X188595281Y-59182001D01*
X188592196Y-59150679D01*
X188630081Y-59242141D01*
X188908053Y-59658156D01*
X189261844Y-60011947D01*
X189677859Y-60289919D01*
X190140109Y-60481389D01*
X190630832Y-60579000D01*
X191131168Y-60579000D01*
X191621891Y-60481389D01*
X192084141Y-60289919D01*
X192500156Y-60011947D01*
X192853947Y-59658156D01*
X193131919Y-59242141D01*
X193323389Y-58779891D01*
X193421000Y-58289168D01*
X193421000Y-57788832D01*
X193323389Y-57298109D01*
X193131919Y-56835859D01*
X192853947Y-56419844D01*
X192500156Y-56066053D01*
X192084141Y-55788081D01*
X191621891Y-55596611D01*
X191131168Y-55499000D01*
X190630832Y-55499000D01*
X190140109Y-55596611D01*
X189988309Y-55659488D01*
X190026269Y-55567846D01*
X190119000Y-55101660D01*
X190119000Y-54626340D01*
X190026269Y-54160154D01*
X189988309Y-54068512D01*
X190140109Y-54131389D01*
X190630832Y-54229000D01*
X191131168Y-54229000D01*
X191621891Y-54131389D01*
X192084141Y-53939919D01*
X192500156Y-53661947D01*
X192853947Y-53308156D01*
X193131919Y-52892141D01*
X193323389Y-52429891D01*
X193421000Y-51939168D01*
X193421000Y-51438832D01*
X193323389Y-50948109D01*
X193131919Y-50485859D01*
X192853947Y-50069844D01*
X192500156Y-49716053D01*
X192366879Y-49627000D01*
X194870001Y-49627000D01*
X194870000Y-114034876D01*
X194873000Y-114065337D01*
X194873000Y-115790000D01*
X141127000Y-115790000D01*
X141127000Y-114333127D01*
X141159128Y-114273020D01*
X141199727Y-114139184D01*
X141210000Y-114034877D01*
X141210000Y-110702475D01*
X147541000Y-110702475D01*
X147541000Y-111221525D01*
X147642261Y-111730601D01*
X147840893Y-112210141D01*
X148129262Y-112641715D01*
X148496285Y-113008738D01*
X148927859Y-113297107D01*
X149407399Y-113495739D01*
X149916475Y-113597000D01*
X150435525Y-113597000D01*
X150944601Y-113495739D01*
X151424141Y-113297107D01*
X151855715Y-113008738D01*
X152222738Y-112641715D01*
X152511107Y-112210141D01*
X152701703Y-111750000D01*
X159611928Y-111750000D01*
X159611928Y-113250000D01*
X159638599Y-113520799D01*
X159717589Y-113781192D01*
X159845860Y-114021171D01*
X160018485Y-114231515D01*
X160228829Y-114404140D01*
X160468808Y-114532411D01*
X160729201Y-114611401D01*
X161000000Y-114638072D01*
X163000000Y-114638072D01*
X163270799Y-114611401D01*
X163531192Y-114532411D01*
X163771171Y-114404140D01*
X163981515Y-114231515D01*
X164154140Y-114021171D01*
X164282411Y-113781192D01*
X164361401Y-113520799D01*
X164388072Y-113250000D01*
X164388072Y-111750000D01*
X164361401Y-111479201D01*
X164282411Y-111218808D01*
X164154140Y-110978829D01*
X163981515Y-110768485D01*
X163771171Y-110595860D01*
X163531192Y-110467589D01*
X163270799Y-110388599D01*
X163000000Y-110361928D01*
X161000000Y-110361928D01*
X160729201Y-110388599D01*
X160468808Y-110467589D01*
X160228829Y-110595860D01*
X160018485Y-110768485D01*
X159845860Y-110978829D01*
X159717589Y-111218808D01*
X159638599Y-111479201D01*
X159611928Y-111750000D01*
X152701703Y-111750000D01*
X152709739Y-111730601D01*
X152811000Y-111221525D01*
X152811000Y-110702475D01*
X152709739Y-110193399D01*
X152511107Y-109713859D01*
X152222738Y-109282285D01*
X151855715Y-108915262D01*
X151424141Y-108626893D01*
X150944601Y-108428261D01*
X150435525Y-108327000D01*
X149916475Y-108327000D01*
X149407399Y-108428261D01*
X148927859Y-108626893D01*
X148496285Y-108915262D01*
X148129262Y-109282285D01*
X147840893Y-109713859D01*
X147642261Y-110193399D01*
X147541000Y-110702475D01*
X141210000Y-110702475D01*
X141210000Y-109776080D01*
X141791525Y-109776080D01*
X141875208Y-110030261D01*
X142147775Y-110161158D01*
X142440642Y-110236365D01*
X142742553Y-110252991D01*
X143041907Y-110210397D01*
X143327199Y-110110222D01*
X143476792Y-110030261D01*
X143560475Y-109776080D01*
X142676000Y-108891605D01*
X141791525Y-109776080D01*
X141210000Y-109776080D01*
X141210000Y-109170172D01*
X141277778Y-109363199D01*
X141357739Y-109512792D01*
X141611920Y-109596475D01*
X142496395Y-108712000D01*
X142855605Y-108712000D01*
X143740080Y-109596475D01*
X143994261Y-109512792D01*
X144125158Y-109240225D01*
X144200365Y-108947358D01*
X144216991Y-108645447D01*
X144174397Y-108346093D01*
X144074222Y-108060801D01*
X143994261Y-107911208D01*
X143740080Y-107827525D01*
X142855605Y-108712000D01*
X142496395Y-108712000D01*
X141611920Y-107827525D01*
X141357739Y-107911208D01*
X141226842Y-108183775D01*
X141210000Y-108249360D01*
X141210000Y-106683912D01*
X141315701Y-106939095D01*
X141483688Y-107190505D01*
X141697495Y-107404312D01*
X141840310Y-107499738D01*
X141791525Y-107647920D01*
X142676000Y-108532395D01*
X143560475Y-107647920D01*
X143511690Y-107499738D01*
X143654505Y-107404312D01*
X143868312Y-107190505D01*
X143930790Y-107097000D01*
X149008533Y-107097000D01*
X149052002Y-107101281D01*
X149095471Y-107097000D01*
X149095479Y-107097000D01*
X149225492Y-107084195D01*
X149392315Y-107033589D01*
X149546061Y-106951411D01*
X149680819Y-106840817D01*
X149708536Y-106807044D01*
X151765580Y-104750000D01*
X159611928Y-104750000D01*
X159611928Y-108250000D01*
X159624188Y-108374482D01*
X159660498Y-108494180D01*
X159719463Y-108604494D01*
X159798815Y-108701185D01*
X159895506Y-108780537D01*
X160005820Y-108839502D01*
X160125518Y-108875812D01*
X160250000Y-108888072D01*
X163750000Y-108888072D01*
X163874482Y-108875812D01*
X163994180Y-108839502D01*
X164104494Y-108780537D01*
X164201185Y-108701185D01*
X164280537Y-108604494D01*
X164321494Y-108527869D01*
X164311928Y-108625000D01*
X164311928Y-110375000D01*
X164341001Y-110670186D01*
X164427104Y-110954028D01*
X164566927Y-111215618D01*
X164755097Y-111444903D01*
X164984382Y-111633073D01*
X165245972Y-111772896D01*
X165529814Y-111858999D01*
X165825000Y-111888072D01*
X167575000Y-111888072D01*
X167870186Y-111858999D01*
X168154028Y-111772896D01*
X168415618Y-111633073D01*
X168644903Y-111444903D01*
X168833073Y-111215618D01*
X168972896Y-110954028D01*
X169058999Y-110670186D01*
X169088072Y-110375000D01*
X169088072Y-108625000D01*
X169058999Y-108329814D01*
X168972896Y-108045972D01*
X168833073Y-107784382D01*
X168644903Y-107555097D01*
X168415618Y-107366927D01*
X168154028Y-107227104D01*
X167870186Y-107141001D01*
X167575000Y-107111928D01*
X165825000Y-107111928D01*
X165529814Y-107141001D01*
X165245972Y-107227104D01*
X164984382Y-107366927D01*
X164755097Y-107555097D01*
X164566927Y-107784382D01*
X164427104Y-108045972D01*
X164388072Y-108174643D01*
X164388072Y-104750000D01*
X164375812Y-104625518D01*
X164339502Y-104505820D01*
X164280537Y-104395506D01*
X164201185Y-104298815D01*
X164104494Y-104219463D01*
X163994180Y-104160498D01*
X163874482Y-104124188D01*
X163750000Y-104111928D01*
X160250000Y-104111928D01*
X160125518Y-104124188D01*
X160005820Y-104160498D01*
X159895506Y-104219463D01*
X159798815Y-104298815D01*
X159719463Y-104395506D01*
X159660498Y-104505820D01*
X159624188Y-104625518D01*
X159611928Y-104750000D01*
X151765580Y-104750000D01*
X153221050Y-103294531D01*
X153254818Y-103266818D01*
X153365412Y-103132060D01*
X153447590Y-102978314D01*
X153498196Y-102811491D01*
X153511001Y-102681478D01*
X153511001Y-102681470D01*
X153515282Y-102638001D01*
X153511001Y-102594532D01*
X153511001Y-99900000D01*
X156611928Y-99900000D01*
X156624188Y-100024482D01*
X156660498Y-100144180D01*
X156719463Y-100254494D01*
X156798815Y-100351185D01*
X156895506Y-100430537D01*
X157005820Y-100489502D01*
X157125518Y-100525812D01*
X157250000Y-100538072D01*
X157739250Y-100535000D01*
X157898000Y-100376250D01*
X157898000Y-99377000D01*
X158152000Y-99377000D01*
X158152000Y-100376250D01*
X158310750Y-100535000D01*
X158800000Y-100538072D01*
X158924482Y-100525812D01*
X159044180Y-100489502D01*
X159154494Y-100430537D01*
X159251185Y-100351185D01*
X159330537Y-100254494D01*
X159389502Y-100144180D01*
X159425812Y-100024482D01*
X159438072Y-99900000D01*
X164561928Y-99900000D01*
X164574188Y-100024482D01*
X164610498Y-100144180D01*
X164669463Y-100254494D01*
X164748815Y-100351185D01*
X164845506Y-100430537D01*
X164955820Y-100489502D01*
X165075518Y-100525812D01*
X165200000Y-100538072D01*
X165689250Y-100535000D01*
X165848000Y-100376250D01*
X165848000Y-99377000D01*
X166102000Y-99377000D01*
X166102000Y-100376250D01*
X166260750Y-100535000D01*
X166750000Y-100538072D01*
X166874482Y-100525812D01*
X166994180Y-100489502D01*
X167104494Y-100430537D01*
X167201185Y-100351185D01*
X167280537Y-100254494D01*
X167339502Y-100144180D01*
X167375812Y-100024482D01*
X167388072Y-99900000D01*
X167385000Y-99535750D01*
X167226250Y-99377000D01*
X166102000Y-99377000D01*
X165848000Y-99377000D01*
X164723750Y-99377000D01*
X164565000Y-99535750D01*
X164561928Y-99900000D01*
X159438072Y-99900000D01*
X159435000Y-99535750D01*
X159276250Y-99377000D01*
X158152000Y-99377000D01*
X157898000Y-99377000D01*
X156773750Y-99377000D01*
X156615000Y-99535750D01*
X156611928Y-99900000D01*
X153511001Y-99900000D01*
X153511001Y-98600000D01*
X156611928Y-98600000D01*
X156615000Y-98964250D01*
X156773750Y-99123000D01*
X157898000Y-99123000D01*
X157898000Y-98123750D01*
X158152000Y-98123750D01*
X158152000Y-99123000D01*
X159276250Y-99123000D01*
X159435000Y-98964250D01*
X159438072Y-98600000D01*
X164561928Y-98600000D01*
X164565000Y-98964250D01*
X164723750Y-99123000D01*
X165848000Y-99123000D01*
X165848000Y-98123750D01*
X166102000Y-98123750D01*
X166102000Y-99123000D01*
X167226250Y-99123000D01*
X167385000Y-98964250D01*
X167388072Y-98600000D01*
X167375812Y-98475518D01*
X167339502Y-98355820D01*
X167280537Y-98245506D01*
X167201185Y-98148815D01*
X167104494Y-98069463D01*
X166994180Y-98010498D01*
X166874482Y-97974188D01*
X166750000Y-97961928D01*
X166260750Y-97965000D01*
X166102000Y-98123750D01*
X165848000Y-98123750D01*
X165689250Y-97965000D01*
X165200000Y-97961928D01*
X165075518Y-97974188D01*
X164955820Y-98010498D01*
X164845506Y-98069463D01*
X164748815Y-98148815D01*
X164669463Y-98245506D01*
X164610498Y-98355820D01*
X164574188Y-98475518D01*
X164561928Y-98600000D01*
X159438072Y-98600000D01*
X159425812Y-98475518D01*
X159389502Y-98355820D01*
X159330537Y-98245506D01*
X159251185Y-98148815D01*
X159154494Y-98069463D01*
X159044180Y-98010498D01*
X158924482Y-97974188D01*
X158800000Y-97961928D01*
X158310750Y-97965000D01*
X158152000Y-98123750D01*
X157898000Y-98123750D01*
X157739250Y-97965000D01*
X157250000Y-97961928D01*
X157125518Y-97974188D01*
X157005820Y-98010498D01*
X156895506Y-98069463D01*
X156798815Y-98148815D01*
X156719463Y-98245506D01*
X156660498Y-98355820D01*
X156624188Y-98475518D01*
X156611928Y-98600000D01*
X153511001Y-98600000D01*
X153511001Y-95412453D01*
X153543206Y-95364255D01*
X153621227Y-95175897D01*
X153661001Y-94975938D01*
X153661001Y-94772060D01*
X153621227Y-94572101D01*
X153543206Y-94383743D01*
X153429938Y-94214225D01*
X153315713Y-94100000D01*
X156611928Y-94100000D01*
X156611928Y-95400000D01*
X156624188Y-95524482D01*
X156660498Y-95644180D01*
X156719463Y-95754494D01*
X156798815Y-95851185D01*
X156895506Y-95930537D01*
X157005820Y-95989502D01*
X157125518Y-96025812D01*
X157250000Y-96038072D01*
X158800000Y-96038072D01*
X158924482Y-96025812D01*
X159044180Y-95989502D01*
X159154494Y-95930537D01*
X159251185Y-95851185D01*
X159330537Y-95754494D01*
X159389502Y-95644180D01*
X159392287Y-95635000D01*
X164607713Y-95635000D01*
X164610498Y-95644180D01*
X164669463Y-95754494D01*
X164748815Y-95851185D01*
X164845506Y-95930537D01*
X164955820Y-95989502D01*
X165075518Y-96025812D01*
X165200000Y-96038072D01*
X166750000Y-96038072D01*
X166874482Y-96025812D01*
X166994180Y-95989502D01*
X167104494Y-95930537D01*
X167201185Y-95851185D01*
X167280537Y-95754494D01*
X167339502Y-95644180D01*
X167375812Y-95524482D01*
X167388072Y-95400000D01*
X167388072Y-94300000D01*
X169361928Y-94300000D01*
X169361928Y-97700000D01*
X169374188Y-97824482D01*
X169410498Y-97944180D01*
X169469463Y-98054494D01*
X169548815Y-98151185D01*
X169645506Y-98230537D01*
X169755820Y-98289502D01*
X169765000Y-98292287D01*
X169765001Y-100599044D01*
X169732795Y-100647244D01*
X169654774Y-100835602D01*
X169615000Y-101035561D01*
X169615000Y-101239439D01*
X169654774Y-101439398D01*
X169732795Y-101627756D01*
X169846063Y-101797274D01*
X169990226Y-101941437D01*
X170159744Y-102054705D01*
X170348102Y-102132726D01*
X170404957Y-102144035D01*
X172661928Y-104401007D01*
X172661928Y-105125000D01*
X172678992Y-105298254D01*
X172729528Y-105464850D01*
X172811595Y-105618386D01*
X172922038Y-105752962D01*
X173056614Y-105863405D01*
X173127500Y-105901295D01*
X173127501Y-108961928D01*
X173049999Y-108961928D01*
X172876745Y-108978992D01*
X172710149Y-109029528D01*
X172556613Y-109111595D01*
X172422038Y-109222038D01*
X172311595Y-109356613D01*
X172229528Y-109510149D01*
X172178992Y-109676745D01*
X172161928Y-109849999D01*
X172161928Y-111150001D01*
X172178992Y-111323255D01*
X172229528Y-111489851D01*
X172311595Y-111643387D01*
X172422038Y-111777962D01*
X172556613Y-111888405D01*
X172710149Y-111970472D01*
X172876745Y-112021008D01*
X173049999Y-112038072D01*
X173950001Y-112038072D01*
X174123255Y-112021008D01*
X174289851Y-111970472D01*
X174443387Y-111888405D01*
X174577962Y-111777962D01*
X174688405Y-111643387D01*
X174770472Y-111489851D01*
X174821008Y-111323255D01*
X174838072Y-111150001D01*
X174838072Y-110314683D01*
X174884695Y-110160990D01*
X174897500Y-110030977D01*
X174897500Y-110030967D01*
X174901781Y-109987501D01*
X174897500Y-109944035D01*
X174897500Y-105901294D01*
X174968386Y-105863405D01*
X175102962Y-105752962D01*
X175213405Y-105618386D01*
X175295472Y-105464850D01*
X175346008Y-105298254D01*
X175363072Y-105125000D01*
X175363072Y-103875000D01*
X175346008Y-103701746D01*
X175295472Y-103535150D01*
X175213405Y-103381614D01*
X175102962Y-103247038D01*
X174968386Y-103136595D01*
X174814850Y-103054528D01*
X174648254Y-103003992D01*
X174475000Y-102986928D01*
X173751007Y-102986928D01*
X171656535Y-100892457D01*
X171645226Y-100835602D01*
X171567205Y-100647244D01*
X171535000Y-100599046D01*
X171535000Y-98292287D01*
X171544180Y-98289502D01*
X171654494Y-98230537D01*
X171751185Y-98151185D01*
X171830537Y-98054494D01*
X171889502Y-97944180D01*
X171925812Y-97824482D01*
X171938072Y-97700000D01*
X171938072Y-94300000D01*
X171925812Y-94175518D01*
X171889502Y-94055820D01*
X171830537Y-93945506D01*
X171751185Y-93848815D01*
X171654494Y-93769463D01*
X171544180Y-93710498D01*
X171424482Y-93674188D01*
X171300000Y-93661928D01*
X170000000Y-93661928D01*
X169875518Y-93674188D01*
X169755820Y-93710498D01*
X169645506Y-93769463D01*
X169548815Y-93848815D01*
X169469463Y-93945506D01*
X169410498Y-94055820D01*
X169374188Y-94175518D01*
X169361928Y-94300000D01*
X167388072Y-94300000D01*
X167388072Y-94100000D01*
X167375812Y-93975518D01*
X167339502Y-93855820D01*
X167280537Y-93745506D01*
X167201185Y-93648815D01*
X167104494Y-93569463D01*
X166994180Y-93510498D01*
X166885000Y-93477379D01*
X166885000Y-91294694D01*
X166964850Y-91270472D01*
X167118386Y-91188405D01*
X167252962Y-91077962D01*
X167363405Y-90943386D01*
X167445472Y-90789850D01*
X167496008Y-90623254D01*
X167513072Y-90450000D01*
X167513072Y-89726007D01*
X167920059Y-89319020D01*
X167953827Y-89291307D01*
X167982134Y-89256816D01*
X168064420Y-89156550D01*
X168064421Y-89156549D01*
X168146599Y-89002803D01*
X168197205Y-88835980D01*
X168210010Y-88705967D01*
X168210010Y-88705957D01*
X168214291Y-88662491D01*
X168210010Y-88619025D01*
X168210010Y-87309701D01*
X168331937Y-87187774D01*
X168445205Y-87018256D01*
X168523226Y-86829898D01*
X168563000Y-86629939D01*
X168563000Y-86426061D01*
X168523226Y-86226102D01*
X168445205Y-86037744D01*
X168331937Y-85868226D01*
X168187774Y-85724063D01*
X168018256Y-85610795D01*
X167829898Y-85532774D01*
X167629939Y-85493000D01*
X167426061Y-85493000D01*
X167226102Y-85532774D01*
X167037744Y-85610795D01*
X166892770Y-85707663D01*
X166798254Y-85678992D01*
X166625000Y-85661928D01*
X165375000Y-85661928D01*
X165201746Y-85678992D01*
X165035150Y-85729528D01*
X164881614Y-85811595D01*
X164747038Y-85922038D01*
X164636595Y-86056614D01*
X164598706Y-86127500D01*
X164379079Y-86127500D01*
X163508534Y-85256956D01*
X163480817Y-85223183D01*
X163346059Y-85112589D01*
X163192313Y-85030411D01*
X163025490Y-84979805D01*
X162895477Y-84967000D01*
X162895469Y-84967000D01*
X162852000Y-84962719D01*
X162808531Y-84967000D01*
X161778656Y-84967000D01*
X161737475Y-84905368D01*
X161530632Y-84698525D01*
X161356240Y-84582000D01*
X161530632Y-84465475D01*
X161737475Y-84258632D01*
X161899990Y-84015411D01*
X162011932Y-83745158D01*
X162069000Y-83458260D01*
X162069000Y-83165740D01*
X162011932Y-82878842D01*
X161899990Y-82608589D01*
X161737475Y-82365368D01*
X161530632Y-82158525D01*
X161348466Y-82036805D01*
X161465355Y-81967178D01*
X161681588Y-81772269D01*
X161855641Y-81538920D01*
X161980825Y-81276099D01*
X162025476Y-81128890D01*
X161904155Y-80899000D01*
X160711000Y-80899000D01*
X160711000Y-80919000D01*
X160457000Y-80919000D01*
X160457000Y-80899000D01*
X159263845Y-80899000D01*
X159142524Y-81128890D01*
X159187175Y-81276099D01*
X159312359Y-81538920D01*
X159486412Y-81772269D01*
X159702645Y-81967178D01*
X159819534Y-82036805D01*
X159637368Y-82158525D01*
X159430525Y-82365368D01*
X159268010Y-82608589D01*
X159156068Y-82878842D01*
X159099000Y-83165740D01*
X159099000Y-83458260D01*
X159156068Y-83745158D01*
X159268010Y-84015411D01*
X159430525Y-84258632D01*
X159637368Y-84465475D01*
X159811760Y-84582000D01*
X159637368Y-84698525D01*
X159430525Y-84905368D01*
X159268010Y-85148589D01*
X159156068Y-85418842D01*
X159099000Y-85705740D01*
X159099000Y-85998260D01*
X159156068Y-86285158D01*
X159268010Y-86555411D01*
X159430525Y-86798632D01*
X159637368Y-87005475D01*
X159811760Y-87122000D01*
X159637368Y-87238525D01*
X159430525Y-87445368D01*
X159268010Y-87688589D01*
X159156068Y-87958842D01*
X159099000Y-88245740D01*
X159099000Y-88538260D01*
X159156068Y-88825158D01*
X159268010Y-89095411D01*
X159430525Y-89338632D01*
X159637368Y-89545475D01*
X159880589Y-89707990D01*
X160150842Y-89819932D01*
X160437740Y-89877000D01*
X160730260Y-89877000D01*
X161017158Y-89819932D01*
X161287411Y-89707990D01*
X161530632Y-89545475D01*
X161737475Y-89338632D01*
X161899990Y-89095411D01*
X162011932Y-88825158D01*
X162069000Y-88538260D01*
X162069000Y-88245740D01*
X162011932Y-87958842D01*
X161899990Y-87688589D01*
X161737475Y-87445368D01*
X161530632Y-87238525D01*
X161356240Y-87122000D01*
X161530632Y-87005475D01*
X161737475Y-86798632D01*
X161778656Y-86737000D01*
X162485422Y-86737000D01*
X163355970Y-87607549D01*
X163383683Y-87641317D01*
X163417451Y-87669030D01*
X163417453Y-87669032D01*
X163468340Y-87710794D01*
X163518441Y-87751911D01*
X163672187Y-87834089D01*
X163839010Y-87884695D01*
X163969023Y-87897500D01*
X163969031Y-87897500D01*
X164012500Y-87901781D01*
X164055969Y-87897500D01*
X164598706Y-87897500D01*
X164636595Y-87968386D01*
X164747038Y-88102962D01*
X164881614Y-88213405D01*
X165035150Y-88295472D01*
X165201746Y-88346008D01*
X165375000Y-88363072D01*
X166372849Y-88363072D01*
X166098993Y-88636928D01*
X165375000Y-88636928D01*
X165201746Y-88653992D01*
X165035150Y-88704528D01*
X164881614Y-88786595D01*
X164747038Y-88897038D01*
X164636595Y-89031614D01*
X164554528Y-89185150D01*
X164503992Y-89351746D01*
X164486928Y-89525000D01*
X164486928Y-90450000D01*
X164503992Y-90623254D01*
X164554528Y-90789850D01*
X164636595Y-90943386D01*
X164747038Y-91077962D01*
X164881614Y-91188405D01*
X165035150Y-91270472D01*
X165115000Y-91294694D01*
X165115001Y-93470299D01*
X165075518Y-93474188D01*
X164955820Y-93510498D01*
X164845506Y-93569463D01*
X164748815Y-93648815D01*
X164669463Y-93745506D01*
X164610498Y-93855820D01*
X164607713Y-93865000D01*
X159392287Y-93865000D01*
X159389502Y-93855820D01*
X159330537Y-93745506D01*
X159251185Y-93648815D01*
X159154494Y-93569463D01*
X159044180Y-93510498D01*
X158924482Y-93474188D01*
X158800000Y-93461928D01*
X157250000Y-93461928D01*
X157125518Y-93474188D01*
X157005820Y-93510498D01*
X156895506Y-93569463D01*
X156798815Y-93648815D01*
X156719463Y-93745506D01*
X156660498Y-93855820D01*
X156624188Y-93975518D01*
X156611928Y-94100000D01*
X153315713Y-94100000D01*
X153285775Y-94070062D01*
X153116257Y-93956794D01*
X152927899Y-93878773D01*
X152727940Y-93838999D01*
X152524062Y-93838999D01*
X152326082Y-93878379D01*
X152257107Y-93711859D01*
X151968738Y-93280285D01*
X151601715Y-92913262D01*
X151170141Y-92624893D01*
X150690601Y-92426261D01*
X150181525Y-92325000D01*
X149662475Y-92325000D01*
X149153399Y-92426261D01*
X148673859Y-92624893D01*
X148242285Y-92913262D01*
X147875262Y-93280285D01*
X147586893Y-93711859D01*
X147388261Y-94191399D01*
X147287000Y-94700475D01*
X147287000Y-95219525D01*
X147388261Y-95728601D01*
X147586893Y-96208141D01*
X147875262Y-96639715D01*
X148242285Y-97006738D01*
X148673859Y-97295107D01*
X149153399Y-97493739D01*
X149662475Y-97595000D01*
X150181525Y-97595000D01*
X150690601Y-97493739D01*
X151170141Y-97295107D01*
X151601715Y-97006738D01*
X151741001Y-96867452D01*
X151741002Y-99338613D01*
X151424141Y-99126893D01*
X150944601Y-98928261D01*
X150435525Y-98827000D01*
X149916475Y-98827000D01*
X149407399Y-98928261D01*
X148927859Y-99126893D01*
X148496285Y-99415262D01*
X148129262Y-99782285D01*
X147840893Y-100213859D01*
X147642261Y-100693399D01*
X147541000Y-101202475D01*
X147541000Y-101721525D01*
X147642261Y-102230601D01*
X147840893Y-102710141D01*
X148129262Y-103141715D01*
X148496285Y-103508738D01*
X148927859Y-103797107D01*
X149407399Y-103995739D01*
X149915598Y-104096826D01*
X148685424Y-105327000D01*
X143930790Y-105327000D01*
X143868312Y-105233495D01*
X143654505Y-105019688D01*
X143568169Y-104962000D01*
X143654505Y-104904312D01*
X143868312Y-104690505D01*
X144036299Y-104439095D01*
X144152011Y-104159743D01*
X144211000Y-103863184D01*
X144211000Y-103560816D01*
X144152011Y-103264257D01*
X144036299Y-102984905D01*
X143868312Y-102733495D01*
X143654505Y-102519688D01*
X143403095Y-102351701D01*
X143123743Y-102235989D01*
X142827184Y-102177000D01*
X142524816Y-102177000D01*
X142228257Y-102235989D01*
X141948905Y-102351701D01*
X141697495Y-102519688D01*
X141483688Y-102733495D01*
X141315701Y-102984905D01*
X141210000Y-103240088D01*
X141210000Y-93774080D01*
X141537525Y-93774080D01*
X141621208Y-94028261D01*
X141893775Y-94159158D01*
X142186642Y-94234365D01*
X142488553Y-94250991D01*
X142787907Y-94208397D01*
X143073199Y-94108222D01*
X143222792Y-94028261D01*
X143306475Y-93774080D01*
X142422000Y-92889605D01*
X141537525Y-93774080D01*
X141210000Y-93774080D01*
X141210000Y-93545776D01*
X141357920Y-93594475D01*
X142242395Y-92710000D01*
X142601605Y-92710000D01*
X143486080Y-93594475D01*
X143740261Y-93510792D01*
X143871158Y-93238225D01*
X143946365Y-92945358D01*
X143962991Y-92643447D01*
X143920397Y-92344093D01*
X143820222Y-92058801D01*
X143740261Y-91909208D01*
X143486080Y-91825525D01*
X142601605Y-92710000D01*
X142242395Y-92710000D01*
X141357920Y-91825525D01*
X141210000Y-91874224D01*
X141210000Y-91159040D01*
X141229688Y-91188505D01*
X141443495Y-91402312D01*
X141586310Y-91497738D01*
X141537525Y-91645920D01*
X142422000Y-92530395D01*
X143306475Y-91645920D01*
X143257690Y-91497738D01*
X143400505Y-91402312D01*
X143614312Y-91188505D01*
X143782299Y-90937095D01*
X143898011Y-90657743D01*
X143957000Y-90361184D01*
X143957000Y-90058816D01*
X143898011Y-89762257D01*
X143782299Y-89482905D01*
X143614312Y-89231495D01*
X143400505Y-89017688D01*
X143314169Y-88960000D01*
X143400505Y-88902312D01*
X143614312Y-88688505D01*
X143782299Y-88437095D01*
X143898011Y-88157743D01*
X143957000Y-87861184D01*
X143957000Y-87558816D01*
X143898011Y-87262257D01*
X143782299Y-86982905D01*
X143614312Y-86731495D01*
X143400505Y-86517688D01*
X143149095Y-86349701D01*
X142869743Y-86233989D01*
X142573184Y-86175000D01*
X142270816Y-86175000D01*
X141974257Y-86233989D01*
X141694905Y-86349701D01*
X141443495Y-86517688D01*
X141229688Y-86731495D01*
X141210000Y-86760960D01*
X141210000Y-85200475D01*
X147287000Y-85200475D01*
X147287000Y-85719525D01*
X147388261Y-86228601D01*
X147586893Y-86708141D01*
X147875262Y-87139715D01*
X148242285Y-87506738D01*
X148673859Y-87795107D01*
X149153399Y-87993739D01*
X149662475Y-88095000D01*
X150181525Y-88095000D01*
X150690601Y-87993739D01*
X151170141Y-87795107D01*
X151487002Y-87583387D01*
X151487002Y-88089543D01*
X151454796Y-88137743D01*
X151376775Y-88326101D01*
X151337001Y-88526060D01*
X151337001Y-88729938D01*
X151376775Y-88929897D01*
X151454796Y-89118255D01*
X151568064Y-89287773D01*
X151712227Y-89431936D01*
X151881745Y-89545204D01*
X152070103Y-89623225D01*
X152270062Y-89662999D01*
X152473940Y-89662999D01*
X152673899Y-89623225D01*
X152862257Y-89545204D01*
X153031775Y-89431936D01*
X153175938Y-89287773D01*
X153289206Y-89118255D01*
X153367227Y-88929897D01*
X153407001Y-88729938D01*
X153407001Y-88526060D01*
X153367227Y-88326101D01*
X153289206Y-88137743D01*
X153257001Y-88089545D01*
X153257001Y-82408451D01*
X153289206Y-82360253D01*
X153367227Y-82171895D01*
X153407001Y-81971936D01*
X153407001Y-81768058D01*
X153367227Y-81568099D01*
X153289206Y-81379741D01*
X153175938Y-81210223D01*
X153031775Y-81066060D01*
X152862257Y-80952792D01*
X152673899Y-80874771D01*
X152473940Y-80834997D01*
X152270062Y-80834997D01*
X152259191Y-80837159D01*
X152511107Y-80460141D01*
X152709739Y-79980601D01*
X152811000Y-79471525D01*
X152811000Y-78952475D01*
X152709739Y-78443399D01*
X152511107Y-77963859D01*
X152222738Y-77532285D01*
X151855715Y-77165262D01*
X151424141Y-76876893D01*
X150944601Y-76678261D01*
X150435525Y-76577000D01*
X149916475Y-76577000D01*
X149407399Y-76678261D01*
X148927859Y-76876893D01*
X148496285Y-77165262D01*
X148129262Y-77532285D01*
X147840893Y-77963859D01*
X147642261Y-78443399D01*
X147541000Y-78952475D01*
X147541000Y-79471525D01*
X147642261Y-79980601D01*
X147840893Y-80460141D01*
X148129262Y-80891715D01*
X148496285Y-81258738D01*
X148927859Y-81547107D01*
X149407399Y-81745739D01*
X149916475Y-81847000D01*
X150435525Y-81847000D01*
X150944601Y-81745739D01*
X151377461Y-81566442D01*
X151376775Y-81568099D01*
X151337001Y-81768058D01*
X151337001Y-81971936D01*
X151376775Y-82171895D01*
X151454796Y-82360253D01*
X151487001Y-82408451D01*
X151487001Y-83336613D01*
X151170141Y-83124893D01*
X150690601Y-82926261D01*
X150181525Y-82825000D01*
X149662475Y-82825000D01*
X149153399Y-82926261D01*
X148673859Y-83124893D01*
X148242285Y-83413262D01*
X147875262Y-83780285D01*
X147586893Y-84211859D01*
X147388261Y-84691399D01*
X147287000Y-85200475D01*
X141210000Y-85200475D01*
X141210000Y-78026080D01*
X141791525Y-78026080D01*
X141875208Y-78280261D01*
X142147775Y-78411158D01*
X142440642Y-78486365D01*
X142742553Y-78502991D01*
X143041907Y-78460397D01*
X143327199Y-78360222D01*
X143476792Y-78280261D01*
X143560475Y-78026080D01*
X142676000Y-77141605D01*
X141791525Y-78026080D01*
X141210000Y-78026080D01*
X141210000Y-77420172D01*
X141277778Y-77613199D01*
X141357739Y-77762792D01*
X141611920Y-77846475D01*
X142496395Y-76962000D01*
X142855605Y-76962000D01*
X143740080Y-77846475D01*
X143994261Y-77762792D01*
X144125158Y-77490225D01*
X144200365Y-77197358D01*
X144216991Y-76895447D01*
X144174397Y-76596093D01*
X144074222Y-76310801D01*
X143994261Y-76161208D01*
X143740080Y-76077525D01*
X142855605Y-76962000D01*
X142496395Y-76962000D01*
X141611920Y-76077525D01*
X141357739Y-76161208D01*
X141226842Y-76433775D01*
X141210000Y-76499360D01*
X141210000Y-74933912D01*
X141315701Y-75189095D01*
X141483688Y-75440505D01*
X141697495Y-75654312D01*
X141840310Y-75749738D01*
X141791525Y-75897920D01*
X142676000Y-76782395D01*
X143560475Y-75897920D01*
X143511690Y-75749738D01*
X143654505Y-75654312D01*
X143868312Y-75440505D01*
X144036299Y-75189095D01*
X144152011Y-74909743D01*
X144211000Y-74613184D01*
X144211000Y-74310816D01*
X144152011Y-74014257D01*
X144036299Y-73734905D01*
X143868312Y-73483495D01*
X143654505Y-73269688D01*
X143568169Y-73212000D01*
X143654505Y-73154312D01*
X143868312Y-72940505D01*
X144036299Y-72689095D01*
X144152011Y-72409743D01*
X144211000Y-72113184D01*
X144211000Y-71810816D01*
X144152011Y-71514257D01*
X144036299Y-71234905D01*
X143868312Y-70983495D01*
X143654505Y-70769688D01*
X143403095Y-70601701D01*
X143123743Y-70485989D01*
X142827184Y-70427000D01*
X142524816Y-70427000D01*
X142228257Y-70485989D01*
X141948905Y-70601701D01*
X141697495Y-70769688D01*
X141483688Y-70983495D01*
X141315701Y-71234905D01*
X141210000Y-71490088D01*
X141210000Y-69452475D01*
X147541000Y-69452475D01*
X147541000Y-69971525D01*
X147642261Y-70480601D01*
X147840893Y-70960141D01*
X148129262Y-71391715D01*
X148496285Y-71758738D01*
X148927859Y-72047107D01*
X149407399Y-72245739D01*
X149916475Y-72347000D01*
X150435525Y-72347000D01*
X150944601Y-72245739D01*
X151424141Y-72047107D01*
X151855715Y-71758738D01*
X152222738Y-71391715D01*
X152511107Y-70960141D01*
X152709739Y-70480601D01*
X152811000Y-69971525D01*
X152811000Y-69452475D01*
X152709739Y-68943399D01*
X152511107Y-68463859D01*
X152222738Y-68032285D01*
X151855715Y-67665262D01*
X151424141Y-67376893D01*
X150944601Y-67178261D01*
X150435525Y-67077000D01*
X149916475Y-67077000D01*
X149407399Y-67178261D01*
X148927859Y-67376893D01*
X148496285Y-67665262D01*
X148129262Y-68032285D01*
X147840893Y-68463859D01*
X147642261Y-68943399D01*
X147541000Y-69452475D01*
X141210000Y-69452475D01*
X141210000Y-62696475D01*
X147541000Y-62696475D01*
X147541000Y-63215525D01*
X147642261Y-63724601D01*
X147840893Y-64204141D01*
X148129262Y-64635715D01*
X148496285Y-65002738D01*
X148927859Y-65291107D01*
X149407399Y-65489739D01*
X149916475Y-65591000D01*
X150435525Y-65591000D01*
X150944601Y-65489739D01*
X151424141Y-65291107D01*
X151855715Y-65002738D01*
X152222738Y-64635715D01*
X152511107Y-64204141D01*
X152709739Y-63724601D01*
X152811000Y-63215525D01*
X152811000Y-62696475D01*
X152709739Y-62187399D01*
X152511107Y-61707859D01*
X152222738Y-61276285D01*
X151855715Y-60909262D01*
X151424141Y-60620893D01*
X150944601Y-60422261D01*
X150435525Y-60321000D01*
X149916475Y-60321000D01*
X149407399Y-60422261D01*
X148927859Y-60620893D01*
X148496285Y-60909262D01*
X148129262Y-61276285D01*
X147840893Y-61707859D01*
X147642261Y-62187399D01*
X147541000Y-62696475D01*
X141210000Y-62696475D01*
X141210000Y-61770080D01*
X141791525Y-61770080D01*
X141875208Y-62024261D01*
X142147775Y-62155158D01*
X142440642Y-62230365D01*
X142742553Y-62246991D01*
X143041907Y-62204397D01*
X143327199Y-62104222D01*
X143476792Y-62024261D01*
X143560475Y-61770080D01*
X142676000Y-60885605D01*
X141791525Y-61770080D01*
X141210000Y-61770080D01*
X141210000Y-61164172D01*
X141277778Y-61357199D01*
X141357739Y-61506792D01*
X141611920Y-61590475D01*
X142496395Y-60706000D01*
X142855605Y-60706000D01*
X143740080Y-61590475D01*
X143994261Y-61506792D01*
X144125158Y-61234225D01*
X144200365Y-60941358D01*
X144216991Y-60639447D01*
X144174397Y-60340093D01*
X144074222Y-60054801D01*
X143994261Y-59905208D01*
X143740080Y-59821525D01*
X142855605Y-60706000D01*
X142496395Y-60706000D01*
X141611920Y-59821525D01*
X141357739Y-59905208D01*
X141226842Y-60177775D01*
X141210000Y-60243360D01*
X141210000Y-58677912D01*
X141315701Y-58933095D01*
X141483688Y-59184505D01*
X141697495Y-59398312D01*
X141840310Y-59493738D01*
X141791525Y-59641920D01*
X142676000Y-60526395D01*
X143560475Y-59641920D01*
X143511690Y-59493738D01*
X143654505Y-59398312D01*
X143868312Y-59184505D01*
X143930790Y-59091000D01*
X150770971Y-59091000D01*
X150832795Y-59240256D01*
X150946063Y-59409774D01*
X151090226Y-59553937D01*
X151259744Y-59667205D01*
X151448102Y-59745226D01*
X151648061Y-59785000D01*
X151851939Y-59785000D01*
X152051898Y-59745226D01*
X152240256Y-59667205D01*
X152409774Y-59553937D01*
X152553937Y-59409774D01*
X152667205Y-59240256D01*
X152745226Y-59051898D01*
X152785000Y-58851939D01*
X152785000Y-58648061D01*
X152745226Y-58448102D01*
X152667205Y-58259744D01*
X152553937Y-58090226D01*
X152409774Y-57946063D01*
X152240256Y-57832795D01*
X152051898Y-57754774D01*
X151995043Y-57743465D01*
X151862534Y-57610956D01*
X151834817Y-57577183D01*
X151700059Y-57466589D01*
X151546313Y-57384411D01*
X151379490Y-57333805D01*
X151249477Y-57321000D01*
X151249469Y-57321000D01*
X151206000Y-57316719D01*
X151162531Y-57321000D01*
X143930790Y-57321000D01*
X143868312Y-57227495D01*
X143654505Y-57013688D01*
X143568169Y-56956000D01*
X143654505Y-56898312D01*
X143868312Y-56684505D01*
X144036299Y-56433095D01*
X144152011Y-56153743D01*
X144211000Y-55857184D01*
X144211000Y-55554816D01*
X144152011Y-55258257D01*
X144036299Y-54978905D01*
X143868312Y-54727495D01*
X143654505Y-54513688D01*
X143403095Y-54345701D01*
X143123743Y-54229989D01*
X142827184Y-54171000D01*
X142524816Y-54171000D01*
X142228257Y-54229989D01*
X141948905Y-54345701D01*
X141697495Y-54513688D01*
X141483688Y-54727495D01*
X141315701Y-54978905D01*
X141210000Y-55234088D01*
X141210000Y-53196475D01*
X147541000Y-53196475D01*
X147541000Y-53715525D01*
X147642261Y-54224601D01*
X147840893Y-54704141D01*
X148129262Y-55135715D01*
X148496285Y-55502738D01*
X148927859Y-55791107D01*
X149407399Y-55989739D01*
X149916475Y-56091000D01*
X150435525Y-56091000D01*
X150944601Y-55989739D01*
X151424141Y-55791107D01*
X151855715Y-55502738D01*
X152222738Y-55135715D01*
X152511107Y-54704141D01*
X152709739Y-54224601D01*
X152811000Y-53715525D01*
X152811000Y-53196475D01*
X152709739Y-52687399D01*
X152511107Y-52207859D01*
X152222738Y-51776285D01*
X151855715Y-51409262D01*
X151424141Y-51120893D01*
X150944601Y-50922261D01*
X150435525Y-50821000D01*
X149916475Y-50821000D01*
X149407399Y-50922261D01*
X148927859Y-51120893D01*
X148496285Y-51409262D01*
X148129262Y-51776285D01*
X147840893Y-52207859D01*
X147642261Y-52687399D01*
X147541000Y-53196475D01*
X141210000Y-53196475D01*
X141210000Y-49627000D01*
X165668108Y-49627000D01*
X165556614Y-49686595D01*
M02*
