G04 #@! TF.GenerationSoftware,KiCad,Pcbnew,5.1.6-c6e7f7d~87~ubuntu20.04.1*
G04 #@! TF.CreationDate,2020-08-05T12:50:38+01:00*
G04 #@! TF.ProjectId,spikeling,7370696b-656c-4696-9e67-2e6b69636164,rev?*
G04 #@! TF.SameCoordinates,Original*
G04 #@! TF.FileFunction,Legend,Top*
G04 #@! TF.FilePolarity,Positive*
%FSLAX46Y46*%
G04 Gerber Fmt 4.6, Leading zero omitted, Abs format (unit mm)*
G04 Created by KiCad (PCBNEW 5.1.6-c6e7f7d~87~ubuntu20.04.1) date 2020-08-05 12:50:38*
%MOMM*%
%LPD*%
G01*
G04 APERTURE LIST*
%ADD10C,0.120000*%
%ADD11C,0.150000*%
G04 APERTURE END LIST*
D10*
X155612500Y-50415000D02*
X151552500Y-50415000D01*
X151552500Y-50415000D02*
X151552500Y-53585000D01*
X151552500Y-53585000D02*
X155612500Y-53585000D01*
X182911411Y-83962337D02*
G75*
G03*
X182925000Y-87425000I4763589J-1712663D01*
G01*
X185962337Y-90438589D02*
G75*
G03*
X189425000Y-90425000I1712663J4763589D01*
G01*
X192438589Y-87387663D02*
G75*
G03*
X192425000Y-83925000I-4763589J1712663D01*
G01*
X189387663Y-80911411D02*
G75*
G03*
X185925000Y-80925000I-1712663J-4763589D01*
G01*
X174897936Y-111410000D02*
X176102064Y-111410000D01*
X174897936Y-109590000D02*
X176102064Y-109590000D01*
X168602064Y-62590000D02*
X167397936Y-62590000D01*
X168602064Y-64410000D02*
X167397936Y-64410000D01*
X165090000Y-87897936D02*
X165090000Y-89102064D01*
X166910000Y-87897936D02*
X166910000Y-89102064D01*
X167397936Y-60410000D02*
X168602064Y-60410000D01*
X167397936Y-58590000D02*
X168602064Y-58590000D01*
X167397936Y-56410000D02*
X168602064Y-56410000D01*
X167397936Y-54590000D02*
X168602064Y-54590000D01*
X159254000Y-51502000D02*
X160584000Y-51502000D01*
X159254000Y-52832000D02*
X159254000Y-51502000D01*
X159254000Y-54102000D02*
X161914000Y-54102000D01*
X161914000Y-54102000D02*
X161914000Y-89722000D01*
X159254000Y-54102000D02*
X159254000Y-89722000D01*
X159254000Y-89722000D02*
X161914000Y-89722000D01*
X177154000Y-89722000D02*
X175824000Y-89722000D01*
X177154000Y-88392000D02*
X177154000Y-89722000D01*
X177154000Y-87122000D02*
X174494000Y-87122000D01*
X174494000Y-87122000D02*
X174494000Y-51502000D01*
X177154000Y-87122000D02*
X177154000Y-51502000D01*
X177154000Y-51502000D02*
X174494000Y-51502000D01*
X154892000Y-90330000D02*
X154892000Y-102670000D01*
X143302000Y-99870000D02*
X143302000Y-102670000D01*
X143302000Y-97371000D02*
X143302000Y-98130000D01*
X143302000Y-94871000D02*
X143302000Y-95630000D01*
X143302000Y-90330000D02*
X143302000Y-93129000D01*
X151877000Y-102670000D02*
X154892000Y-102670000D01*
X143302000Y-102670000D02*
X147968000Y-102670000D01*
X151877000Y-90330000D02*
X154892000Y-90330000D01*
X143302000Y-90330000D02*
X147968000Y-90330000D01*
X143380000Y-72830000D02*
X148046000Y-72830000D01*
X151955000Y-72830000D02*
X154970000Y-72830000D01*
X143380000Y-85170000D02*
X148046000Y-85170000D01*
X151955000Y-85170000D02*
X154970000Y-85170000D01*
X143380000Y-72830000D02*
X143380000Y-75629000D01*
X143380000Y-77371000D02*
X143380000Y-78130000D01*
X143380000Y-79871000D02*
X143380000Y-80630000D01*
X143380000Y-82370000D02*
X143380000Y-85170000D01*
X154970000Y-72830000D02*
X154970000Y-85170000D01*
X154970000Y-55330000D02*
X154970000Y-67670000D01*
X143380000Y-64870000D02*
X143380000Y-67670000D01*
X143380000Y-62371000D02*
X143380000Y-63130000D01*
X143380000Y-59871000D02*
X143380000Y-60630000D01*
X143380000Y-55330000D02*
X143380000Y-58129000D01*
X151955000Y-67670000D02*
X154970000Y-67670000D01*
X143380000Y-67670000D02*
X148046000Y-67670000D01*
X151955000Y-55330000D02*
X154970000Y-55330000D01*
X143380000Y-55330000D02*
X148046000Y-55330000D01*
X143380000Y-107830000D02*
X148046000Y-107830000D01*
X151955000Y-107830000D02*
X154970000Y-107830000D01*
X143380000Y-120170000D02*
X148046000Y-120170000D01*
X151955000Y-120170000D02*
X154970000Y-120170000D01*
X143380000Y-107830000D02*
X143380000Y-110629000D01*
X143380000Y-112371000D02*
X143380000Y-113130000D01*
X143380000Y-114871000D02*
X143380000Y-115630000D01*
X143380000Y-117370000D02*
X143380000Y-120170000D01*
X154970000Y-107830000D02*
X154970000Y-120170000D01*
X182942411Y-53612337D02*
G75*
G03*
X182956000Y-57075000I4763589J-1712663D01*
G01*
X185993337Y-60088589D02*
G75*
G03*
X189456000Y-60075000I1712663J4763589D01*
G01*
X192469589Y-57037663D02*
G75*
G03*
X192456000Y-53575000I-4763589J1712663D01*
G01*
X189418663Y-50561411D02*
G75*
G03*
X185956000Y-50575000I-1712663J-4763589D01*
G01*
X189212663Y-65736411D02*
G75*
G03*
X185750000Y-65750000I-1712663J-4763589D01*
G01*
X192263589Y-72212663D02*
G75*
G03*
X192250000Y-68750000I-4763589J1712663D01*
G01*
X185787337Y-75263589D02*
G75*
G03*
X189250000Y-75250000I1712663J4763589D01*
G01*
X182736411Y-68787337D02*
G75*
G03*
X182750000Y-72250000I4763589J-1712663D01*
G01*
X183061411Y-98787337D02*
G75*
G03*
X183075000Y-102250000I4763589J-1712663D01*
G01*
X186112337Y-105263589D02*
G75*
G03*
X189575000Y-105250000I1712663J4763589D01*
G01*
X192588589Y-102212663D02*
G75*
G03*
X192575000Y-98750000I-4763589J1712663D01*
G01*
X189537663Y-95736411D02*
G75*
G03*
X186075000Y-95750000I-1712663J-4763589D01*
G01*
X189387663Y-110411411D02*
G75*
G03*
X185925000Y-110425000I-1712663J-4763589D01*
G01*
X192438589Y-116887663D02*
G75*
G03*
X192425000Y-113425000I-4763589J1712663D01*
G01*
X185962337Y-119938589D02*
G75*
G03*
X189425000Y-119925000I1712663J4763589D01*
G01*
X182911411Y-113462337D02*
G75*
G03*
X182925000Y-116925000I4763589J-1712663D01*
G01*
X179610000Y-97960000D02*
X179940000Y-97960000D01*
X179610000Y-91390000D02*
X179610000Y-94040000D01*
X170390000Y-91390000D02*
X179610000Y-91390000D01*
X170390000Y-94040000D02*
X170390000Y-91390000D01*
X170390000Y-100610000D02*
X170390000Y-97960000D01*
X179610000Y-100610000D02*
X170390000Y-100610000D01*
X179610000Y-97960000D02*
X179610000Y-100610000D01*
X158250000Y-110400000D02*
X157200000Y-110400000D01*
X157200000Y-111450000D02*
X157200000Y-110400000D01*
X166600000Y-116500000D02*
X166600000Y-125300000D01*
X166600000Y-125300000D02*
X157400000Y-125300000D01*
X163900000Y-110600000D02*
X166600000Y-110600000D01*
X166600000Y-110600000D02*
X166600000Y-112500000D01*
X157400000Y-125300000D02*
X157400000Y-110600000D01*
X157400000Y-110600000D02*
X160000000Y-110600000D01*
X165230000Y-97270000D02*
X158770000Y-97270000D01*
X165230000Y-101800000D02*
X165230000Y-99200000D01*
X165230000Y-103730000D02*
X158770000Y-103730000D01*
X158770000Y-101800000D02*
X158770000Y-99200000D01*
X165230000Y-103700000D02*
X165230000Y-103730000D01*
X165230000Y-97270000D02*
X165230000Y-97300000D01*
X158770000Y-97270000D02*
X158770000Y-97300000D01*
X158770000Y-103730000D02*
X158770000Y-103700000D01*
X178650000Y-115065000D02*
X171665000Y-115065000D01*
X171665000Y-115065000D02*
X171665000Y-118935000D01*
X171665000Y-118935000D02*
X178650000Y-118935000D01*
D11*
X153274404Y-50172380D02*
X153274404Y-49172380D01*
X153512500Y-49172380D01*
X153655357Y-49220000D01*
X153750595Y-49315238D01*
X153798214Y-49410476D01*
X153845833Y-49600952D01*
X153845833Y-49743809D01*
X153798214Y-49934285D01*
X153750595Y-50029523D01*
X153655357Y-50124761D01*
X153512500Y-50172380D01*
X153274404Y-50172380D01*
X154226785Y-49267619D02*
X154274404Y-49220000D01*
X154369642Y-49172380D01*
X154607738Y-49172380D01*
X154702976Y-49220000D01*
X154750595Y-49267619D01*
X154798214Y-49362857D01*
X154798214Y-49458095D01*
X154750595Y-49600952D01*
X154179166Y-50172380D01*
X154798214Y-50172380D01*
X148757142Y-51352380D02*
X148280952Y-51352380D01*
X148280952Y-50352380D01*
X149090476Y-50828571D02*
X149423809Y-50828571D01*
X149566666Y-51352380D02*
X149090476Y-51352380D01*
X149090476Y-50352380D01*
X149566666Y-50352380D01*
X149995238Y-51352380D02*
X149995238Y-50352380D01*
X150233333Y-50352380D01*
X150376190Y-50400000D01*
X150471428Y-50495238D01*
X150519047Y-50590476D01*
X150566666Y-50780952D01*
X150566666Y-50923809D01*
X150519047Y-51114285D01*
X150471428Y-51209523D01*
X150376190Y-51304761D01*
X150233333Y-51352380D01*
X149995238Y-51352380D01*
X183785666Y-85127380D02*
X183785666Y-85841666D01*
X183738047Y-85984523D01*
X183642809Y-86079761D01*
X183499952Y-86127380D01*
X183404714Y-86127380D01*
X184166619Y-85127380D02*
X184785666Y-85127380D01*
X184452333Y-85508333D01*
X184595190Y-85508333D01*
X184690428Y-85555952D01*
X184738047Y-85603571D01*
X184785666Y-85698809D01*
X184785666Y-85936904D01*
X184738047Y-86032142D01*
X184690428Y-86079761D01*
X184595190Y-86127380D01*
X184309476Y-86127380D01*
X184214238Y-86079761D01*
X184166619Y-86032142D01*
X194266666Y-90980952D02*
X194266666Y-90504761D01*
X194552380Y-91076190D02*
X193552380Y-90742857D01*
X194552380Y-90409523D01*
X194647619Y-90314285D02*
X194647619Y-89552380D01*
X194552380Y-89314285D02*
X193552380Y-89314285D01*
X194552380Y-88838095D02*
X193552380Y-88838095D01*
X194552380Y-88266666D01*
X193552380Y-88266666D01*
X175333333Y-109132380D02*
X175000000Y-108656190D01*
X174761904Y-109132380D02*
X174761904Y-108132380D01*
X175142857Y-108132380D01*
X175238095Y-108180000D01*
X175285714Y-108227619D01*
X175333333Y-108322857D01*
X175333333Y-108465714D01*
X175285714Y-108560952D01*
X175238095Y-108608571D01*
X175142857Y-108656190D01*
X174761904Y-108656190D01*
X176285714Y-109132380D02*
X175714285Y-109132380D01*
X176000000Y-109132380D02*
X176000000Y-108132380D01*
X175904761Y-108275238D01*
X175809523Y-108370476D01*
X175714285Y-108418095D01*
X174904761Y-112772380D02*
X174333333Y-112772380D01*
X174619047Y-112772380D02*
X174619047Y-111772380D01*
X174523809Y-111915238D01*
X174428571Y-112010476D01*
X174333333Y-112058095D01*
X175523809Y-111772380D02*
X175619047Y-111772380D01*
X175714285Y-111820000D01*
X175761904Y-111867619D01*
X175809523Y-111962857D01*
X175857142Y-112153333D01*
X175857142Y-112391428D01*
X175809523Y-112581904D01*
X175761904Y-112677142D01*
X175714285Y-112724761D01*
X175619047Y-112772380D01*
X175523809Y-112772380D01*
X175428571Y-112724761D01*
X175380952Y-112677142D01*
X175333333Y-112581904D01*
X175285714Y-112391428D01*
X175285714Y-112153333D01*
X175333333Y-111962857D01*
X175380952Y-111867619D01*
X175428571Y-111820000D01*
X175523809Y-111772380D01*
X176285714Y-112772380D02*
X176285714Y-111772380D01*
X176380952Y-112391428D02*
X176666666Y-112772380D01*
X176666666Y-112105714D02*
X176285714Y-112486666D01*
X167833333Y-65677142D02*
X167785714Y-65724761D01*
X167642857Y-65772380D01*
X167547619Y-65772380D01*
X167404761Y-65724761D01*
X167309523Y-65629523D01*
X167261904Y-65534285D01*
X167214285Y-65343809D01*
X167214285Y-65200952D01*
X167261904Y-65010476D01*
X167309523Y-64915238D01*
X167404761Y-64820000D01*
X167547619Y-64772380D01*
X167642857Y-64772380D01*
X167785714Y-64820000D01*
X167833333Y-64867619D01*
X168785714Y-65772380D02*
X168214285Y-65772380D01*
X168500000Y-65772380D02*
X168500000Y-64772380D01*
X168404761Y-64915238D01*
X168309523Y-65010476D01*
X168214285Y-65058095D01*
X167404761Y-62132380D02*
X166833333Y-62132380D01*
X167119047Y-62132380D02*
X167119047Y-61132380D01*
X167023809Y-61275238D01*
X166928571Y-61370476D01*
X166833333Y-61418095D01*
X167833333Y-61465714D02*
X167833333Y-62132380D01*
X167833333Y-61560952D02*
X167880952Y-61513333D01*
X167976190Y-61465714D01*
X168119047Y-61465714D01*
X168214285Y-61513333D01*
X168261904Y-61608571D01*
X168261904Y-62132380D01*
X169071428Y-61608571D02*
X168738095Y-61608571D01*
X168738095Y-62132380D02*
X168738095Y-61132380D01*
X169214285Y-61132380D01*
X168272380Y-88666666D02*
X167796190Y-89000000D01*
X168272380Y-89238095D02*
X167272380Y-89238095D01*
X167272380Y-88857142D01*
X167320000Y-88761904D01*
X167367619Y-88714285D01*
X167462857Y-88666666D01*
X167605714Y-88666666D01*
X167700952Y-88714285D01*
X167748571Y-88761904D01*
X167796190Y-88857142D01*
X167796190Y-89238095D01*
X167605714Y-87809523D02*
X168272380Y-87809523D01*
X167224761Y-88047619D02*
X167939047Y-88285714D01*
X167939047Y-87666666D01*
X164632380Y-89095238D02*
X164632380Y-89666666D01*
X164632380Y-89380952D02*
X163632380Y-89380952D01*
X163775238Y-89476190D01*
X163870476Y-89571428D01*
X163918095Y-89666666D01*
X163632380Y-88476190D02*
X163632380Y-88380952D01*
X163680000Y-88285714D01*
X163727619Y-88238095D01*
X163822857Y-88190476D01*
X164013333Y-88142857D01*
X164251428Y-88142857D01*
X164441904Y-88190476D01*
X164537142Y-88238095D01*
X164584761Y-88285714D01*
X164632380Y-88380952D01*
X164632380Y-88476190D01*
X164584761Y-88571428D01*
X164537142Y-88619047D01*
X164441904Y-88666666D01*
X164251428Y-88714285D01*
X164013333Y-88714285D01*
X163822857Y-88666666D01*
X163727619Y-88619047D01*
X163680000Y-88571428D01*
X163632380Y-88476190D01*
X164632380Y-87714285D02*
X163632380Y-87714285D01*
X164251428Y-87619047D02*
X164632380Y-87333333D01*
X163965714Y-87333333D02*
X164346666Y-87714285D01*
X164333333Y-59952380D02*
X164000000Y-59476190D01*
X163761904Y-59952380D02*
X163761904Y-58952380D01*
X164142857Y-58952380D01*
X164238095Y-59000000D01*
X164285714Y-59047619D01*
X164333333Y-59142857D01*
X164333333Y-59285714D01*
X164285714Y-59380952D01*
X164238095Y-59428571D01*
X164142857Y-59476190D01*
X163761904Y-59476190D01*
X164666666Y-58952380D02*
X165285714Y-58952380D01*
X164952380Y-59333333D01*
X165095238Y-59333333D01*
X165190476Y-59380952D01*
X165238095Y-59428571D01*
X165285714Y-59523809D01*
X165285714Y-59761904D01*
X165238095Y-59857142D01*
X165190476Y-59904761D01*
X165095238Y-59952380D01*
X164809523Y-59952380D01*
X164714285Y-59904761D01*
X164666666Y-59857142D01*
X166238095Y-58452380D02*
X165666666Y-58452380D01*
X165952380Y-58452380D02*
X165952380Y-57452380D01*
X165857142Y-57595238D01*
X165761904Y-57690476D01*
X165666666Y-57738095D01*
X166857142Y-57452380D02*
X166952380Y-57452380D01*
X167047619Y-57500000D01*
X167095238Y-57547619D01*
X167142857Y-57642857D01*
X167190476Y-57833333D01*
X167190476Y-58071428D01*
X167142857Y-58261904D01*
X167095238Y-58357142D01*
X167047619Y-58404761D01*
X166952380Y-58452380D01*
X166857142Y-58452380D01*
X166761904Y-58404761D01*
X166714285Y-58357142D01*
X166666666Y-58261904D01*
X166619047Y-58071428D01*
X166619047Y-57833333D01*
X166666666Y-57642857D01*
X166714285Y-57547619D01*
X166761904Y-57500000D01*
X166857142Y-57452380D01*
X167761904Y-58452380D02*
X167666666Y-58404761D01*
X167619047Y-58357142D01*
X167571428Y-58261904D01*
X167571428Y-57976190D01*
X167619047Y-57880952D01*
X167666666Y-57833333D01*
X167761904Y-57785714D01*
X167904761Y-57785714D01*
X168000000Y-57833333D01*
X168047619Y-57880952D01*
X168095238Y-57976190D01*
X168095238Y-58261904D01*
X168047619Y-58357142D01*
X168000000Y-58404761D01*
X167904761Y-58452380D01*
X167761904Y-58452380D01*
X168523809Y-58452380D02*
X168523809Y-57452380D01*
X168952380Y-58452380D02*
X168952380Y-57928571D01*
X168904761Y-57833333D01*
X168809523Y-57785714D01*
X168666666Y-57785714D01*
X168571428Y-57833333D01*
X168523809Y-57880952D01*
X169428571Y-58452380D02*
X169428571Y-57785714D01*
X169428571Y-57880952D02*
X169476190Y-57833333D01*
X169571428Y-57785714D01*
X169714285Y-57785714D01*
X169809523Y-57833333D01*
X169857142Y-57928571D01*
X169857142Y-58452380D01*
X169857142Y-57928571D02*
X169904761Y-57833333D01*
X170000000Y-57785714D01*
X170142857Y-57785714D01*
X170238095Y-57833333D01*
X170285714Y-57928571D01*
X170285714Y-58452380D01*
X164333333Y-55952380D02*
X164000000Y-55476190D01*
X163761904Y-55952380D02*
X163761904Y-54952380D01*
X164142857Y-54952380D01*
X164238095Y-55000000D01*
X164285714Y-55047619D01*
X164333333Y-55142857D01*
X164333333Y-55285714D01*
X164285714Y-55380952D01*
X164238095Y-55428571D01*
X164142857Y-55476190D01*
X163761904Y-55476190D01*
X164714285Y-55047619D02*
X164761904Y-55000000D01*
X164857142Y-54952380D01*
X165095238Y-54952380D01*
X165190476Y-55000000D01*
X165238095Y-55047619D01*
X165285714Y-55142857D01*
X165285714Y-55238095D01*
X165238095Y-55380952D01*
X164666666Y-55952380D01*
X165285714Y-55952380D01*
X167714285Y-53285714D02*
X167714285Y-53952380D01*
X167476190Y-52904761D02*
X167238095Y-53619047D01*
X167857142Y-53619047D01*
X168142857Y-52952380D02*
X168809523Y-52952380D01*
X168380952Y-53952380D01*
X160250666Y-49954380D02*
X160250666Y-50668666D01*
X160203047Y-50811523D01*
X160107809Y-50906761D01*
X159964952Y-50954380D01*
X159869714Y-50954380D01*
X160869714Y-50382952D02*
X160774476Y-50335333D01*
X160726857Y-50287714D01*
X160679238Y-50192476D01*
X160679238Y-50144857D01*
X160726857Y-50049619D01*
X160774476Y-50002000D01*
X160869714Y-49954380D01*
X161060190Y-49954380D01*
X161155428Y-50002000D01*
X161203047Y-50049619D01*
X161250666Y-50144857D01*
X161250666Y-50192476D01*
X161203047Y-50287714D01*
X161155428Y-50335333D01*
X161060190Y-50382952D01*
X160869714Y-50382952D01*
X160774476Y-50430571D01*
X160726857Y-50478190D01*
X160679238Y-50573428D01*
X160679238Y-50763904D01*
X160726857Y-50859142D01*
X160774476Y-50906761D01*
X160869714Y-50954380D01*
X161060190Y-50954380D01*
X161155428Y-50906761D01*
X161203047Y-50859142D01*
X161250666Y-50763904D01*
X161250666Y-50573428D01*
X161203047Y-50478190D01*
X161155428Y-50430571D01*
X161060190Y-50382952D01*
X175490666Y-90174380D02*
X175490666Y-90888666D01*
X175443047Y-91031523D01*
X175347809Y-91126761D01*
X175204952Y-91174380D01*
X175109714Y-91174380D01*
X175871619Y-90174380D02*
X176538285Y-90174380D01*
X176109714Y-91174380D01*
X142504761Y-89052380D02*
X142171428Y-88576190D01*
X141933333Y-89052380D02*
X141933333Y-88052380D01*
X142314285Y-88052380D01*
X142409523Y-88100000D01*
X142457142Y-88147619D01*
X142504761Y-88242857D01*
X142504761Y-88385714D01*
X142457142Y-88480952D01*
X142409523Y-88528571D01*
X142314285Y-88576190D01*
X141933333Y-88576190D01*
X142790476Y-88052380D02*
X143123809Y-89052380D01*
X143457142Y-88052380D01*
X143742857Y-88147619D02*
X143790476Y-88100000D01*
X143885714Y-88052380D01*
X144123809Y-88052380D01*
X144219047Y-88100000D01*
X144266666Y-88147619D01*
X144314285Y-88242857D01*
X144314285Y-88338095D01*
X144266666Y-88480952D01*
X143695238Y-89052380D01*
X144314285Y-89052380D01*
X151028571Y-88852380D02*
X151028571Y-87852380D01*
X151266666Y-87852380D01*
X151409523Y-87900000D01*
X151504761Y-87995238D01*
X151552380Y-88090476D01*
X151600000Y-88280952D01*
X151600000Y-88423809D01*
X151552380Y-88614285D01*
X151504761Y-88709523D01*
X151409523Y-88804761D01*
X151266666Y-88852380D01*
X151028571Y-88852380D01*
X152028571Y-88852380D02*
X152028571Y-88185714D01*
X152028571Y-87852380D02*
X151980952Y-87900000D01*
X152028571Y-87947619D01*
X152076190Y-87900000D01*
X152028571Y-87852380D01*
X152028571Y-87947619D01*
X152933333Y-88852380D02*
X152933333Y-88328571D01*
X152885714Y-88233333D01*
X152790476Y-88185714D01*
X152600000Y-88185714D01*
X152504761Y-88233333D01*
X152933333Y-88804761D02*
X152838095Y-88852380D01*
X152600000Y-88852380D01*
X152504761Y-88804761D01*
X152457142Y-88709523D01*
X152457142Y-88614285D01*
X152504761Y-88519047D01*
X152600000Y-88471428D01*
X152838095Y-88471428D01*
X152933333Y-88423809D01*
X153552380Y-88852380D02*
X153457142Y-88804761D01*
X153409523Y-88709523D01*
X153409523Y-87852380D01*
X154647619Y-87947619D02*
X154695238Y-87900000D01*
X154790476Y-87852380D01*
X155028571Y-87852380D01*
X155123809Y-87900000D01*
X155171428Y-87947619D01*
X155219047Y-88042857D01*
X155219047Y-88138095D01*
X155171428Y-88280952D01*
X154600000Y-88852380D01*
X155219047Y-88852380D01*
X142204761Y-71352380D02*
X141871428Y-70876190D01*
X141633333Y-71352380D02*
X141633333Y-70352380D01*
X142014285Y-70352380D01*
X142109523Y-70400000D01*
X142157142Y-70447619D01*
X142204761Y-70542857D01*
X142204761Y-70685714D01*
X142157142Y-70780952D01*
X142109523Y-70828571D01*
X142014285Y-70876190D01*
X141633333Y-70876190D01*
X142490476Y-70352380D02*
X142823809Y-71352380D01*
X143157142Y-70352380D01*
X143395238Y-70352380D02*
X144014285Y-70352380D01*
X143680952Y-70733333D01*
X143823809Y-70733333D01*
X143919047Y-70780952D01*
X143966666Y-70828571D01*
X144014285Y-70923809D01*
X144014285Y-71161904D01*
X143966666Y-71257142D01*
X143919047Y-71304761D01*
X143823809Y-71352380D01*
X143538095Y-71352380D01*
X143442857Y-71304761D01*
X143395238Y-71257142D01*
X150728571Y-71552380D02*
X150728571Y-70552380D01*
X150966666Y-70552380D01*
X151109523Y-70600000D01*
X151204761Y-70695238D01*
X151252380Y-70790476D01*
X151300000Y-70980952D01*
X151300000Y-71123809D01*
X151252380Y-71314285D01*
X151204761Y-71409523D01*
X151109523Y-71504761D01*
X150966666Y-71552380D01*
X150728571Y-71552380D01*
X151728571Y-71552380D02*
X151728571Y-70885714D01*
X151728571Y-70552380D02*
X151680952Y-70600000D01*
X151728571Y-70647619D01*
X151776190Y-70600000D01*
X151728571Y-70552380D01*
X151728571Y-70647619D01*
X152633333Y-71552380D02*
X152633333Y-71028571D01*
X152585714Y-70933333D01*
X152490476Y-70885714D01*
X152300000Y-70885714D01*
X152204761Y-70933333D01*
X152633333Y-71504761D02*
X152538095Y-71552380D01*
X152300000Y-71552380D01*
X152204761Y-71504761D01*
X152157142Y-71409523D01*
X152157142Y-71314285D01*
X152204761Y-71219047D01*
X152300000Y-71171428D01*
X152538095Y-71171428D01*
X152633333Y-71123809D01*
X153252380Y-71552380D02*
X153157142Y-71504761D01*
X153109523Y-71409523D01*
X153109523Y-70552380D01*
X154300000Y-70552380D02*
X154919047Y-70552380D01*
X154585714Y-70933333D01*
X154728571Y-70933333D01*
X154823809Y-70980952D01*
X154871428Y-71028571D01*
X154919047Y-71123809D01*
X154919047Y-71361904D01*
X154871428Y-71457142D01*
X154823809Y-71504761D01*
X154728571Y-71552380D01*
X154442857Y-71552380D01*
X154347619Y-71504761D01*
X154300000Y-71457142D01*
X142104761Y-53952380D02*
X141771428Y-53476190D01*
X141533333Y-53952380D02*
X141533333Y-52952380D01*
X141914285Y-52952380D01*
X142009523Y-53000000D01*
X142057142Y-53047619D01*
X142104761Y-53142857D01*
X142104761Y-53285714D01*
X142057142Y-53380952D01*
X142009523Y-53428571D01*
X141914285Y-53476190D01*
X141533333Y-53476190D01*
X142390476Y-52952380D02*
X142723809Y-53952380D01*
X143057142Y-52952380D01*
X143819047Y-53285714D02*
X143819047Y-53952380D01*
X143580952Y-52904761D02*
X143342857Y-53619047D01*
X143961904Y-53619047D01*
X145228571Y-53952380D02*
X145228571Y-52952380D01*
X145466666Y-52952380D01*
X145609523Y-53000000D01*
X145704761Y-53095238D01*
X145752380Y-53190476D01*
X145800000Y-53380952D01*
X145800000Y-53523809D01*
X145752380Y-53714285D01*
X145704761Y-53809523D01*
X145609523Y-53904761D01*
X145466666Y-53952380D01*
X145228571Y-53952380D01*
X146228571Y-53952380D02*
X146228571Y-53285714D01*
X146228571Y-52952380D02*
X146180952Y-53000000D01*
X146228571Y-53047619D01*
X146276190Y-53000000D01*
X146228571Y-52952380D01*
X146228571Y-53047619D01*
X147133333Y-53952380D02*
X147133333Y-53428571D01*
X147085714Y-53333333D01*
X146990476Y-53285714D01*
X146800000Y-53285714D01*
X146704761Y-53333333D01*
X147133333Y-53904761D02*
X147038095Y-53952380D01*
X146800000Y-53952380D01*
X146704761Y-53904761D01*
X146657142Y-53809523D01*
X146657142Y-53714285D01*
X146704761Y-53619047D01*
X146800000Y-53571428D01*
X147038095Y-53571428D01*
X147133333Y-53523809D01*
X147752380Y-53952380D02*
X147657142Y-53904761D01*
X147609523Y-53809523D01*
X147609523Y-52952380D01*
X149323809Y-53285714D02*
X149323809Y-53952380D01*
X149085714Y-52904761D02*
X148847619Y-53619047D01*
X149466666Y-53619047D01*
X142504761Y-106652380D02*
X142171428Y-106176190D01*
X141933333Y-106652380D02*
X141933333Y-105652380D01*
X142314285Y-105652380D01*
X142409523Y-105700000D01*
X142457142Y-105747619D01*
X142504761Y-105842857D01*
X142504761Y-105985714D01*
X142457142Y-106080952D01*
X142409523Y-106128571D01*
X142314285Y-106176190D01*
X141933333Y-106176190D01*
X142790476Y-105652380D02*
X143123809Y-106652380D01*
X143457142Y-105652380D01*
X144314285Y-106652380D02*
X143742857Y-106652380D01*
X144028571Y-106652380D02*
X144028571Y-105652380D01*
X143933333Y-105795238D01*
X143838095Y-105890476D01*
X143742857Y-105938095D01*
X150628571Y-106452380D02*
X150628571Y-105452380D01*
X150866666Y-105452380D01*
X151009523Y-105500000D01*
X151104761Y-105595238D01*
X151152380Y-105690476D01*
X151200000Y-105880952D01*
X151200000Y-106023809D01*
X151152380Y-106214285D01*
X151104761Y-106309523D01*
X151009523Y-106404761D01*
X150866666Y-106452380D01*
X150628571Y-106452380D01*
X151628571Y-106452380D02*
X151628571Y-105785714D01*
X151628571Y-105452380D02*
X151580952Y-105500000D01*
X151628571Y-105547619D01*
X151676190Y-105500000D01*
X151628571Y-105452380D01*
X151628571Y-105547619D01*
X152533333Y-106452380D02*
X152533333Y-105928571D01*
X152485714Y-105833333D01*
X152390476Y-105785714D01*
X152200000Y-105785714D01*
X152104761Y-105833333D01*
X152533333Y-106404761D02*
X152438095Y-106452380D01*
X152200000Y-106452380D01*
X152104761Y-106404761D01*
X152057142Y-106309523D01*
X152057142Y-106214285D01*
X152104761Y-106119047D01*
X152200000Y-106071428D01*
X152438095Y-106071428D01*
X152533333Y-106023809D01*
X153152380Y-106452380D02*
X153057142Y-106404761D01*
X153009523Y-106309523D01*
X153009523Y-105452380D01*
X154819047Y-106452380D02*
X154247619Y-106452380D01*
X154533333Y-106452380D02*
X154533333Y-105452380D01*
X154438095Y-105595238D01*
X154342857Y-105690476D01*
X154247619Y-105738095D01*
X183816666Y-54777380D02*
X183816666Y-55491666D01*
X183769047Y-55634523D01*
X183673809Y-55729761D01*
X183530952Y-55777380D01*
X183435714Y-55777380D01*
X184816666Y-55777380D02*
X184245238Y-55777380D01*
X184530952Y-55777380D02*
X184530952Y-54777380D01*
X184435714Y-54920238D01*
X184340476Y-55015476D01*
X184245238Y-55063095D01*
X194552380Y-60680952D02*
X193552380Y-60680952D01*
X193552380Y-60442857D01*
X193600000Y-60300000D01*
X193695238Y-60204761D01*
X193790476Y-60157142D01*
X193980952Y-60109523D01*
X194123809Y-60109523D01*
X194314285Y-60157142D01*
X194409523Y-60204761D01*
X194504761Y-60300000D01*
X194552380Y-60442857D01*
X194552380Y-60680952D01*
X194647619Y-59919047D02*
X194647619Y-59157142D01*
X194552380Y-58919047D02*
X193552380Y-58919047D01*
X194552380Y-58442857D02*
X193552380Y-58442857D01*
X194552380Y-57871428D01*
X193552380Y-57871428D01*
X194552380Y-56871428D02*
X194552380Y-57442857D01*
X194552380Y-57157142D02*
X193552380Y-57157142D01*
X193695238Y-57252380D01*
X193790476Y-57347619D01*
X193838095Y-57442857D01*
X183610666Y-69952380D02*
X183610666Y-70666666D01*
X183563047Y-70809523D01*
X183467809Y-70904761D01*
X183324952Y-70952380D01*
X183229714Y-70952380D01*
X184039238Y-70047619D02*
X184086857Y-70000000D01*
X184182095Y-69952380D01*
X184420190Y-69952380D01*
X184515428Y-70000000D01*
X184563047Y-70047619D01*
X184610666Y-70142857D01*
X184610666Y-70238095D01*
X184563047Y-70380952D01*
X183991619Y-70952380D01*
X184610666Y-70952380D01*
X194152380Y-75880952D02*
X193152380Y-75880952D01*
X193152380Y-75642857D01*
X193200000Y-75500000D01*
X193295238Y-75404761D01*
X193390476Y-75357142D01*
X193580952Y-75309523D01*
X193723809Y-75309523D01*
X193914285Y-75357142D01*
X194009523Y-75404761D01*
X194104761Y-75500000D01*
X194152380Y-75642857D01*
X194152380Y-75880952D01*
X194247619Y-75119047D02*
X194247619Y-74357142D01*
X194152380Y-74119047D02*
X193152380Y-74119047D01*
X194152380Y-73642857D02*
X193152380Y-73642857D01*
X194152380Y-73071428D01*
X193152380Y-73071428D01*
X193247619Y-72642857D02*
X193200000Y-72595238D01*
X193152380Y-72500000D01*
X193152380Y-72261904D01*
X193200000Y-72166666D01*
X193247619Y-72119047D01*
X193342857Y-72071428D01*
X193438095Y-72071428D01*
X193580952Y-72119047D01*
X194152380Y-72690476D01*
X194152380Y-72071428D01*
X183935666Y-99952380D02*
X183935666Y-100666666D01*
X183888047Y-100809523D01*
X183792809Y-100904761D01*
X183649952Y-100952380D01*
X183554714Y-100952380D01*
X184840428Y-100285714D02*
X184840428Y-100952380D01*
X184602333Y-99904761D02*
X184364238Y-100619047D01*
X184983285Y-100619047D01*
X194552380Y-105871428D02*
X193552380Y-105871428D01*
X193552380Y-105633333D01*
X193600000Y-105490476D01*
X193695238Y-105395238D01*
X193790476Y-105347619D01*
X193980952Y-105300000D01*
X194123809Y-105300000D01*
X194314285Y-105347619D01*
X194409523Y-105395238D01*
X194504761Y-105490476D01*
X194552380Y-105633333D01*
X194552380Y-105871428D01*
X194647619Y-105109523D02*
X194647619Y-104347619D01*
X193552380Y-103919047D02*
X193552380Y-103728571D01*
X193600000Y-103633333D01*
X193695238Y-103538095D01*
X193885714Y-103490476D01*
X194219047Y-103490476D01*
X194409523Y-103538095D01*
X194504761Y-103633333D01*
X194552380Y-103728571D01*
X194552380Y-103919047D01*
X194504761Y-104014285D01*
X194409523Y-104109523D01*
X194219047Y-104157142D01*
X193885714Y-104157142D01*
X193695238Y-104109523D01*
X193600000Y-104014285D01*
X193552380Y-103919047D01*
X193552380Y-103061904D02*
X194361904Y-103061904D01*
X194457142Y-103014285D01*
X194504761Y-102966666D01*
X194552380Y-102871428D01*
X194552380Y-102680952D01*
X194504761Y-102585714D01*
X194457142Y-102538095D01*
X194361904Y-102490476D01*
X193552380Y-102490476D01*
X193552380Y-102157142D02*
X193552380Y-101585714D01*
X194552380Y-101871428D02*
X193552380Y-101871428D01*
X183785666Y-114627380D02*
X183785666Y-115341666D01*
X183738047Y-115484523D01*
X183642809Y-115579761D01*
X183499952Y-115627380D01*
X183404714Y-115627380D01*
X184738047Y-114627380D02*
X184261857Y-114627380D01*
X184214238Y-115103571D01*
X184261857Y-115055952D01*
X184357095Y-115008333D01*
X184595190Y-115008333D01*
X184690428Y-115055952D01*
X184738047Y-115103571D01*
X184785666Y-115198809D01*
X184785666Y-115436904D01*
X184738047Y-115532142D01*
X184690428Y-115579761D01*
X184595190Y-115627380D01*
X184357095Y-115627380D01*
X184261857Y-115579761D01*
X184214238Y-115532142D01*
X194135666Y-120547619D02*
X194135666Y-120071428D01*
X194421380Y-120642857D02*
X193421380Y-120309523D01*
X194421380Y-119976190D01*
X194516619Y-119880952D02*
X194516619Y-119119047D01*
X193421380Y-118690476D02*
X193421380Y-118500000D01*
X193469000Y-118404761D01*
X193564238Y-118309523D01*
X193754714Y-118261904D01*
X194088047Y-118261904D01*
X194278523Y-118309523D01*
X194373761Y-118404761D01*
X194421380Y-118500000D01*
X194421380Y-118690476D01*
X194373761Y-118785714D01*
X194278523Y-118880952D01*
X194088047Y-118928571D01*
X193754714Y-118928571D01*
X193564238Y-118880952D01*
X193469000Y-118785714D01*
X193421380Y-118690476D01*
X193421380Y-117833333D02*
X194230904Y-117833333D01*
X194326142Y-117785714D01*
X194373761Y-117738095D01*
X194421380Y-117642857D01*
X194421380Y-117452380D01*
X194373761Y-117357142D01*
X194326142Y-117309523D01*
X194230904Y-117261904D01*
X193421380Y-117261904D01*
X193421380Y-116928571D02*
X193421380Y-116357142D01*
X194421380Y-116642857D02*
X193421380Y-116642857D01*
X170619047Y-101528571D02*
X170761904Y-101576190D01*
X170809523Y-101623809D01*
X170857142Y-101719047D01*
X170857142Y-101861904D01*
X170809523Y-101957142D01*
X170761904Y-102004761D01*
X170666666Y-102052380D01*
X170285714Y-102052380D01*
X170285714Y-101052380D01*
X170619047Y-101052380D01*
X170714285Y-101100000D01*
X170761904Y-101147619D01*
X170809523Y-101242857D01*
X170809523Y-101338095D01*
X170761904Y-101433333D01*
X170714285Y-101480952D01*
X170619047Y-101528571D01*
X170285714Y-101528571D01*
X171190476Y-101052380D02*
X171857142Y-101052380D01*
X171190476Y-102052380D01*
X171857142Y-102052380D01*
X172761904Y-102052380D02*
X172190476Y-102052380D01*
X172476190Y-102052380D02*
X172476190Y-101052380D01*
X172380952Y-101195238D01*
X172285714Y-101290476D01*
X172190476Y-101338095D01*
X175471428Y-101428571D02*
X175614285Y-101476190D01*
X175661904Y-101523809D01*
X175709523Y-101619047D01*
X175709523Y-101761904D01*
X175661904Y-101857142D01*
X175614285Y-101904761D01*
X175519047Y-101952380D01*
X175138095Y-101952380D01*
X175138095Y-100952380D01*
X175471428Y-100952380D01*
X175566666Y-101000000D01*
X175614285Y-101047619D01*
X175661904Y-101142857D01*
X175661904Y-101238095D01*
X175614285Y-101333333D01*
X175566666Y-101380952D01*
X175471428Y-101428571D01*
X175138095Y-101428571D01*
X176566666Y-101285714D02*
X176566666Y-101952380D01*
X176138095Y-101285714D02*
X176138095Y-101809523D01*
X176185714Y-101904761D01*
X176280952Y-101952380D01*
X176423809Y-101952380D01*
X176519047Y-101904761D01*
X176566666Y-101857142D01*
X176947619Y-101285714D02*
X177471428Y-101285714D01*
X176947619Y-101952380D01*
X177471428Y-101952380D01*
X177757142Y-101285714D02*
X178280952Y-101285714D01*
X177757142Y-101952380D01*
X178280952Y-101952380D01*
X179042857Y-101904761D02*
X178947619Y-101952380D01*
X178757142Y-101952380D01*
X178661904Y-101904761D01*
X178614285Y-101809523D01*
X178614285Y-101428571D01*
X178661904Y-101333333D01*
X178757142Y-101285714D01*
X178947619Y-101285714D01*
X179042857Y-101333333D01*
X179090476Y-101428571D01*
X179090476Y-101523809D01*
X178614285Y-101619047D01*
X179519047Y-101952380D02*
X179519047Y-101285714D01*
X179519047Y-101476190D02*
X179566666Y-101380952D01*
X179614285Y-101333333D01*
X179709523Y-101285714D01*
X179804761Y-101285714D01*
X167202380Y-120283333D02*
X167916666Y-120283333D01*
X168059523Y-120330952D01*
X168154761Y-120426190D01*
X168202380Y-120569047D01*
X168202380Y-120664285D01*
X167202380Y-119378571D02*
X167202380Y-119569047D01*
X167250000Y-119664285D01*
X167297619Y-119711904D01*
X167440476Y-119807142D01*
X167630952Y-119854761D01*
X168011904Y-119854761D01*
X168107142Y-119807142D01*
X168154761Y-119759523D01*
X168202380Y-119664285D01*
X168202380Y-119473809D01*
X168154761Y-119378571D01*
X168107142Y-119330952D01*
X168011904Y-119283333D01*
X167773809Y-119283333D01*
X167678571Y-119330952D01*
X167630952Y-119378571D01*
X167583333Y-119473809D01*
X167583333Y-119664285D01*
X167630952Y-119759523D01*
X167678571Y-119807142D01*
X167773809Y-119854761D01*
X155852380Y-117823809D02*
X156852380Y-117490476D01*
X155852380Y-117157142D01*
X156852380Y-116823809D02*
X156185714Y-116823809D01*
X155852380Y-116823809D02*
X155900000Y-116871428D01*
X155947619Y-116823809D01*
X155900000Y-116776190D01*
X155852380Y-116823809D01*
X155947619Y-116823809D01*
X156185714Y-116347619D02*
X156852380Y-116347619D01*
X156280952Y-116347619D02*
X156233333Y-116300000D01*
X156185714Y-116204761D01*
X156185714Y-116061904D01*
X156233333Y-115966666D01*
X156328571Y-115919047D01*
X156852380Y-115919047D01*
X160666666Y-104954761D02*
X160809523Y-105002380D01*
X161047619Y-105002380D01*
X161142857Y-104954761D01*
X161190476Y-104907142D01*
X161238095Y-104811904D01*
X161238095Y-104716666D01*
X161190476Y-104621428D01*
X161142857Y-104573809D01*
X161047619Y-104526190D01*
X160857142Y-104478571D01*
X160761904Y-104430952D01*
X160714285Y-104383333D01*
X160666666Y-104288095D01*
X160666666Y-104192857D01*
X160714285Y-104097619D01*
X160761904Y-104050000D01*
X160857142Y-104002380D01*
X161095238Y-104002380D01*
X161238095Y-104050000D01*
X161571428Y-104002380D02*
X161809523Y-105002380D01*
X162000000Y-104288095D01*
X162190476Y-105002380D01*
X162428571Y-104002380D01*
X163333333Y-105002380D02*
X162761904Y-105002380D01*
X163047619Y-105002380D02*
X163047619Y-104002380D01*
X162952380Y-104145238D01*
X162857142Y-104240476D01*
X162761904Y-104288095D01*
X160142857Y-96278571D02*
X160285714Y-96326190D01*
X160333333Y-96373809D01*
X160380952Y-96469047D01*
X160380952Y-96611904D01*
X160333333Y-96707142D01*
X160285714Y-96754761D01*
X160190476Y-96802380D01*
X159809523Y-96802380D01*
X159809523Y-95802380D01*
X160142857Y-95802380D01*
X160238095Y-95850000D01*
X160285714Y-95897619D01*
X160333333Y-95992857D01*
X160333333Y-96088095D01*
X160285714Y-96183333D01*
X160238095Y-96230952D01*
X160142857Y-96278571D01*
X159809523Y-96278571D01*
X161238095Y-96135714D02*
X161238095Y-96802380D01*
X160809523Y-96135714D02*
X160809523Y-96659523D01*
X160857142Y-96754761D01*
X160952380Y-96802380D01*
X161095238Y-96802380D01*
X161190476Y-96754761D01*
X161238095Y-96707142D01*
X161571428Y-96135714D02*
X161952380Y-96135714D01*
X161714285Y-95802380D02*
X161714285Y-96659523D01*
X161761904Y-96754761D01*
X161857142Y-96802380D01*
X161952380Y-96802380D01*
X162142857Y-96135714D02*
X162523809Y-96135714D01*
X162285714Y-95802380D02*
X162285714Y-96659523D01*
X162333333Y-96754761D01*
X162428571Y-96802380D01*
X162523809Y-96802380D01*
X163000000Y-96802380D02*
X162904761Y-96754761D01*
X162857142Y-96707142D01*
X162809523Y-96611904D01*
X162809523Y-96326190D01*
X162857142Y-96230952D01*
X162904761Y-96183333D01*
X163000000Y-96135714D01*
X163142857Y-96135714D01*
X163238095Y-96183333D01*
X163285714Y-96230952D01*
X163333333Y-96326190D01*
X163333333Y-96611904D01*
X163285714Y-96707142D01*
X163238095Y-96754761D01*
X163142857Y-96802380D01*
X163000000Y-96802380D01*
X163761904Y-96135714D02*
X163761904Y-96802380D01*
X163761904Y-96230952D02*
X163809523Y-96183333D01*
X163904761Y-96135714D01*
X164047619Y-96135714D01*
X164142857Y-96183333D01*
X164190476Y-96278571D01*
X164190476Y-96802380D01*
X174761904Y-114832380D02*
X174761904Y-113832380D01*
X175000000Y-113832380D01*
X175142857Y-113880000D01*
X175238095Y-113975238D01*
X175285714Y-114070476D01*
X175333333Y-114260952D01*
X175333333Y-114403809D01*
X175285714Y-114594285D01*
X175238095Y-114689523D01*
X175142857Y-114784761D01*
X175000000Y-114832380D01*
X174761904Y-114832380D01*
X176285714Y-114832380D02*
X175714285Y-114832380D01*
X176000000Y-114832380D02*
X176000000Y-113832380D01*
X175904761Y-113975238D01*
X175809523Y-114070476D01*
X175714285Y-114118095D01*
X172714285Y-120072380D02*
X172714285Y-119072380D01*
X172952380Y-119072380D01*
X173095238Y-119120000D01*
X173190476Y-119215238D01*
X173238095Y-119310476D01*
X173285714Y-119500952D01*
X173285714Y-119643809D01*
X173238095Y-119834285D01*
X173190476Y-119929523D01*
X173095238Y-120024761D01*
X172952380Y-120072380D01*
X172714285Y-120072380D01*
X173476190Y-120167619D02*
X174238095Y-120167619D01*
X174476190Y-120072380D02*
X174476190Y-119072380D01*
X174857142Y-119072380D01*
X174952380Y-119120000D01*
X175000000Y-119167619D01*
X175047619Y-119262857D01*
X175047619Y-119405714D01*
X175000000Y-119500952D01*
X174952380Y-119548571D01*
X174857142Y-119596190D01*
X174476190Y-119596190D01*
X175476190Y-120072380D02*
X175476190Y-119072380D01*
X175904761Y-120072380D02*
X175904761Y-119548571D01*
X175857142Y-119453333D01*
X175761904Y-119405714D01*
X175619047Y-119405714D01*
X175523809Y-119453333D01*
X175476190Y-119500952D01*
X176523809Y-120072380D02*
X176428571Y-120024761D01*
X176380952Y-119977142D01*
X176333333Y-119881904D01*
X176333333Y-119596190D01*
X176380952Y-119500952D01*
X176428571Y-119453333D01*
X176523809Y-119405714D01*
X176666666Y-119405714D01*
X176761904Y-119453333D01*
X176809523Y-119500952D01*
X176857142Y-119596190D01*
X176857142Y-119881904D01*
X176809523Y-119977142D01*
X176761904Y-120024761D01*
X176666666Y-120072380D01*
X176523809Y-120072380D01*
X177142857Y-119405714D02*
X177523809Y-119405714D01*
X177285714Y-119072380D02*
X177285714Y-119929523D01*
X177333333Y-120024761D01*
X177428571Y-120072380D01*
X177523809Y-120072380D01*
X178000000Y-120072380D02*
X177904761Y-120024761D01*
X177857142Y-119977142D01*
X177809523Y-119881904D01*
X177809523Y-119596190D01*
X177857142Y-119500952D01*
X177904761Y-119453333D01*
X178000000Y-119405714D01*
X178142857Y-119405714D01*
X178238095Y-119453333D01*
X178285714Y-119500952D01*
X178333333Y-119596190D01*
X178333333Y-119881904D01*
X178285714Y-119977142D01*
X178238095Y-120024761D01*
X178142857Y-120072380D01*
X178000000Y-120072380D01*
M02*
