G04 #@! TF.GenerationSoftware,KiCad,Pcbnew,5.1.6-c6e7f7d~86~ubuntu20.04.1*
G04 #@! TF.CreationDate,2020-06-08T22:34:45+01:00*
G04 #@! TF.ProjectId,spikeling,7370696b-656c-4696-9e67-2e6b69636164,rev?*
G04 #@! TF.SameCoordinates,Original*
G04 #@! TF.FileFunction,Other,Fab,Top*
%FSLAX46Y46*%
G04 Gerber Fmt 4.6, Leading zero omitted, Abs format (unit mm)*
G04 Created by KiCad (PCBNEW 5.1.6-c6e7f7d~86~ubuntu20.04.1) date 2020-06-08 22:34:45*
%MOMM*%
%LPD*%
G01*
G04 APERTURE LIST*
%ADD10C,0.100000*%
%ADD11C,0.150000*%
%ADD12C,0.120000*%
G04 APERTURE END LIST*
D10*
X192506000Y-82500000D02*
G75*
G03*
X192506000Y-82500000I-4800000J0D01*
G01*
X177100000Y-105300000D02*
X173900000Y-105300000D01*
X177100000Y-103700000D02*
X177100000Y-105300000D01*
X173900000Y-103700000D02*
X177100000Y-103700000D01*
X173900000Y-105300000D02*
X173900000Y-103700000D01*
X166400000Y-62700000D02*
X169600000Y-62700000D01*
X166400000Y-64300000D02*
X166400000Y-62700000D01*
X169600000Y-64300000D02*
X166400000Y-64300000D01*
X169600000Y-62700000D02*
X169600000Y-64300000D01*
X165200000Y-90100000D02*
X165200000Y-86900000D01*
X166800000Y-90100000D02*
X165200000Y-90100000D01*
X166800000Y-86900000D02*
X166800000Y-90100000D01*
X165200000Y-86900000D02*
X166800000Y-86900000D01*
X169600000Y-60300000D02*
X166400000Y-60300000D01*
X169600000Y-58700000D02*
X169600000Y-60300000D01*
X166400000Y-58700000D02*
X169600000Y-58700000D01*
X166400000Y-60300000D02*
X166400000Y-58700000D01*
X169600000Y-56300000D02*
X166400000Y-56300000D01*
X169600000Y-54700000D02*
X169600000Y-56300000D01*
X166400000Y-54700000D02*
X169600000Y-54700000D01*
X166400000Y-56300000D02*
X166400000Y-54700000D01*
X159314000Y-52197000D02*
X159949000Y-51562000D01*
X159314000Y-89662000D02*
X159314000Y-52197000D01*
X161854000Y-89662000D02*
X159314000Y-89662000D01*
X161854000Y-51562000D02*
X161854000Y-89662000D01*
X159949000Y-51562000D02*
X161854000Y-51562000D01*
X177094000Y-89027000D02*
X176459000Y-89662000D01*
X177094000Y-51562000D02*
X177094000Y-89027000D01*
X174554000Y-51562000D02*
X177094000Y-51562000D01*
X174554000Y-89662000D02*
X174554000Y-51562000D01*
X176459000Y-89662000D02*
X174554000Y-89662000D01*
X154772000Y-84160000D02*
X143422000Y-84160000D01*
X154772000Y-96260000D02*
X154772000Y-84160000D01*
X143422000Y-96260000D02*
X154772000Y-96260000D01*
X143422000Y-84160000D02*
X143422000Y-96260000D01*
X152922000Y-90210000D02*
G75*
G03*
X152922000Y-90210000I-3000000J0D01*
G01*
X153176000Y-74462000D02*
G75*
G03*
X153176000Y-74462000I-3000000J0D01*
G01*
X143676000Y-68412000D02*
X143676000Y-80512000D01*
X143676000Y-80512000D02*
X155026000Y-80512000D01*
X155026000Y-80512000D02*
X155026000Y-68412000D01*
X155026000Y-68412000D02*
X143676000Y-68412000D01*
X155026000Y-52156000D02*
X143676000Y-52156000D01*
X155026000Y-64256000D02*
X155026000Y-52156000D01*
X143676000Y-64256000D02*
X155026000Y-64256000D01*
X143676000Y-52156000D02*
X143676000Y-64256000D01*
X153176000Y-58206000D02*
G75*
G03*
X153176000Y-58206000I-3000000J0D01*
G01*
X153176000Y-106212000D02*
G75*
G03*
X153176000Y-106212000I-3000000J0D01*
G01*
X143676000Y-100162000D02*
X143676000Y-112262000D01*
X143676000Y-112262000D02*
X155026000Y-112262000D01*
X155026000Y-112262000D02*
X155026000Y-100162000D01*
X155026000Y-100162000D02*
X143676000Y-100162000D01*
X192506000Y-54864000D02*
G75*
G03*
X192506000Y-54864000I-4800000J0D01*
G01*
X192506000Y-68500000D02*
G75*
G03*
X192506000Y-68500000I-4800000J0D01*
G01*
X192506000Y-96000000D02*
G75*
G03*
X192506000Y-96000000I-4800000J0D01*
G01*
X192506000Y-109500000D02*
G75*
G03*
X192506000Y-109500000I-4800000J0D01*
G01*
X179500000Y-99500000D02*
X178500000Y-100500000D01*
X170500000Y-91500000D02*
X179500000Y-91500000D01*
X170500000Y-100500000D02*
X170500000Y-91500000D01*
X178500000Y-100500000D02*
X170500000Y-100500000D01*
X179500000Y-91500000D02*
X179500000Y-99500000D01*
X166400000Y-52750000D02*
X168975000Y-52750000D01*
X168975000Y-52750000D02*
X169600000Y-52125000D01*
X169600000Y-52125000D02*
X169600000Y-50250000D01*
X169600000Y-50250000D02*
X166400000Y-50250000D01*
X166400000Y-50250000D02*
X166400000Y-52750000D01*
X157494575Y-106503213D02*
X158250000Y-105700000D01*
X157500000Y-116700000D02*
X166500000Y-116700000D01*
X157500000Y-120200000D02*
X166500000Y-120200000D01*
X166500000Y-120200000D02*
X166500000Y-105700000D01*
X166500000Y-105700000D02*
X158250000Y-105700000D01*
X157500000Y-106500000D02*
X157500000Y-120200000D01*
X177750000Y-111300000D02*
X177750000Y-109700000D01*
X173250000Y-111300000D02*
X177750000Y-111300000D01*
X173250000Y-110100000D02*
X173250000Y-111300000D01*
X173650000Y-109700000D02*
X173250000Y-110100000D01*
X177750000Y-109700000D02*
X173650000Y-109700000D01*
X163750714Y-97000000D02*
G75*
G03*
X163750714Y-97000000I-1750714J0D01*
G01*
X159000000Y-100000000D02*
X165000000Y-100000000D01*
X159000000Y-94000000D02*
X159000000Y-100000000D01*
X165000000Y-94000000D02*
X159000000Y-94000000D01*
X165000000Y-100000000D02*
X165000000Y-94000000D01*
D11*
X186325047Y-89166666D02*
X186801238Y-89166666D01*
X186229809Y-89452380D02*
X186563142Y-88452380D01*
X186896476Y-89452380D01*
X186991714Y-89547619D02*
X187753619Y-89547619D01*
X187991714Y-89452380D02*
X187991714Y-88452380D01*
X188467904Y-89452380D02*
X188467904Y-88452380D01*
X189039333Y-89452380D01*
X189039333Y-88452380D01*
X187372666Y-81952380D02*
X187372666Y-82666666D01*
X187325047Y-82809523D01*
X187229809Y-82904761D01*
X187086952Y-82952380D01*
X186991714Y-82952380D01*
X187753619Y-81952380D02*
X188372666Y-81952380D01*
X188039333Y-82333333D01*
X188182190Y-82333333D01*
X188277428Y-82380952D01*
X188325047Y-82428571D01*
X188372666Y-82523809D01*
X188372666Y-82761904D01*
X188325047Y-82857142D01*
X188277428Y-82904761D01*
X188182190Y-82952380D01*
X187896476Y-82952380D01*
X187801238Y-82904761D01*
X187753619Y-82857142D01*
D12*
X175366666Y-104861904D02*
X175100000Y-104480952D01*
X174909523Y-104861904D02*
X174909523Y-104061904D01*
X175214285Y-104061904D01*
X175290476Y-104100000D01*
X175328571Y-104138095D01*
X175366666Y-104214285D01*
X175366666Y-104328571D01*
X175328571Y-104404761D01*
X175290476Y-104442857D01*
X175214285Y-104480952D01*
X174909523Y-104480952D01*
X176128571Y-104861904D02*
X175671428Y-104861904D01*
X175900000Y-104861904D02*
X175900000Y-104061904D01*
X175823809Y-104176190D01*
X175747619Y-104252380D01*
X175671428Y-104290476D01*
X167866666Y-63785714D02*
X167828571Y-63823809D01*
X167714285Y-63861904D01*
X167638095Y-63861904D01*
X167523809Y-63823809D01*
X167447619Y-63747619D01*
X167409523Y-63671428D01*
X167371428Y-63519047D01*
X167371428Y-63404761D01*
X167409523Y-63252380D01*
X167447619Y-63176190D01*
X167523809Y-63100000D01*
X167638095Y-63061904D01*
X167714285Y-63061904D01*
X167828571Y-63100000D01*
X167866666Y-63138095D01*
X168628571Y-63861904D02*
X168171428Y-63861904D01*
X168400000Y-63861904D02*
X168400000Y-63061904D01*
X168323809Y-63176190D01*
X168247619Y-63252380D01*
X168171428Y-63290476D01*
X166361904Y-88633333D02*
X165980952Y-88900000D01*
X166361904Y-89090476D02*
X165561904Y-89090476D01*
X165561904Y-88785714D01*
X165600000Y-88709523D01*
X165638095Y-88671428D01*
X165714285Y-88633333D01*
X165828571Y-88633333D01*
X165904761Y-88671428D01*
X165942857Y-88709523D01*
X165980952Y-88785714D01*
X165980952Y-89090476D01*
X165828571Y-87947619D02*
X166361904Y-87947619D01*
X165523809Y-88138095D02*
X166095238Y-88328571D01*
X166095238Y-87833333D01*
X167866666Y-59861904D02*
X167600000Y-59480952D01*
X167409523Y-59861904D02*
X167409523Y-59061904D01*
X167714285Y-59061904D01*
X167790476Y-59100000D01*
X167828571Y-59138095D01*
X167866666Y-59214285D01*
X167866666Y-59328571D01*
X167828571Y-59404761D01*
X167790476Y-59442857D01*
X167714285Y-59480952D01*
X167409523Y-59480952D01*
X168133333Y-59061904D02*
X168628571Y-59061904D01*
X168361904Y-59366666D01*
X168476190Y-59366666D01*
X168552380Y-59404761D01*
X168590476Y-59442857D01*
X168628571Y-59519047D01*
X168628571Y-59709523D01*
X168590476Y-59785714D01*
X168552380Y-59823809D01*
X168476190Y-59861904D01*
X168247619Y-59861904D01*
X168171428Y-59823809D01*
X168133333Y-59785714D01*
X167879166Y-55861904D02*
X167612500Y-55480952D01*
X167422023Y-55861904D02*
X167422023Y-55061904D01*
X167726785Y-55061904D01*
X167802976Y-55100000D01*
X167841071Y-55138095D01*
X167879166Y-55214285D01*
X167879166Y-55328571D01*
X167841071Y-55404761D01*
X167802976Y-55442857D01*
X167726785Y-55480952D01*
X167422023Y-55480952D01*
X168183928Y-55138095D02*
X168222023Y-55100000D01*
X168298214Y-55061904D01*
X168488690Y-55061904D01*
X168564880Y-55100000D01*
X168602976Y-55138095D01*
X168641071Y-55214285D01*
X168641071Y-55290476D01*
X168602976Y-55404761D01*
X168145833Y-55861904D01*
X168641071Y-55861904D01*
D11*
X155464952Y-90888666D02*
X155941142Y-90888666D01*
X155369714Y-91174380D02*
X155703047Y-90174380D01*
X156036380Y-91174380D01*
X156369714Y-91174380D02*
X156369714Y-90507714D01*
X156369714Y-90698190D02*
X156417333Y-90602952D01*
X156464952Y-90555333D01*
X156560190Y-90507714D01*
X156655428Y-90507714D01*
X157417333Y-91174380D02*
X157417333Y-90174380D01*
X157417333Y-91126761D02*
X157322095Y-91174380D01*
X157131619Y-91174380D01*
X157036380Y-91126761D01*
X156988761Y-91079142D01*
X156941142Y-90983904D01*
X156941142Y-90698190D01*
X156988761Y-90602952D01*
X157036380Y-90555333D01*
X157131619Y-90507714D01*
X157322095Y-90507714D01*
X157417333Y-90555333D01*
X158322095Y-90507714D02*
X158322095Y-91174380D01*
X157893523Y-90507714D02*
X157893523Y-91031523D01*
X157941142Y-91126761D01*
X158036380Y-91174380D01*
X158179238Y-91174380D01*
X158274476Y-91126761D01*
X158322095Y-91079142D01*
X158798285Y-91174380D02*
X158798285Y-90507714D01*
X158798285Y-90174380D02*
X158750666Y-90222000D01*
X158798285Y-90269619D01*
X158845904Y-90222000D01*
X158798285Y-90174380D01*
X158798285Y-90269619D01*
X159274476Y-90507714D02*
X159274476Y-91174380D01*
X159274476Y-90602952D02*
X159322095Y-90555333D01*
X159417333Y-90507714D01*
X159560190Y-90507714D01*
X159655428Y-90555333D01*
X159703047Y-90650571D01*
X159703047Y-91174380D01*
X160322095Y-91174380D02*
X160226857Y-91126761D01*
X160179238Y-91079142D01*
X160131619Y-90983904D01*
X160131619Y-90698190D01*
X160179238Y-90602952D01*
X160226857Y-90555333D01*
X160322095Y-90507714D01*
X160464952Y-90507714D01*
X160560190Y-90555333D01*
X160607809Y-90602952D01*
X160655428Y-90698190D01*
X160655428Y-90983904D01*
X160607809Y-91079142D01*
X160560190Y-91126761D01*
X160464952Y-91174380D01*
X160322095Y-91174380D01*
X161607809Y-91174380D02*
X161036380Y-91174380D01*
X161322095Y-91174380D02*
X161322095Y-90174380D01*
X161226857Y-90317238D01*
X161131619Y-90412476D01*
X161036380Y-90460095D01*
X162464952Y-90174380D02*
X162274476Y-90174380D01*
X162179238Y-90222000D01*
X162131619Y-90269619D01*
X162036380Y-90412476D01*
X161988761Y-90602952D01*
X161988761Y-90983904D01*
X162036380Y-91079142D01*
X162084000Y-91126761D01*
X162179238Y-91174380D01*
X162369714Y-91174380D01*
X162464952Y-91126761D01*
X162512571Y-91079142D01*
X162560190Y-90983904D01*
X162560190Y-90745809D01*
X162512571Y-90650571D01*
X162464952Y-90602952D01*
X162369714Y-90555333D01*
X162179238Y-90555333D01*
X162084000Y-90602952D01*
X162036380Y-90650571D01*
X161988761Y-90745809D01*
X162988761Y-90793428D02*
X163750666Y-90793428D01*
X164131619Y-90174380D02*
X164750666Y-90174380D01*
X164417333Y-90555333D01*
X164560190Y-90555333D01*
X164655428Y-90602952D01*
X164703047Y-90650571D01*
X164750666Y-90745809D01*
X164750666Y-90983904D01*
X164703047Y-91079142D01*
X164655428Y-91126761D01*
X164560190Y-91174380D01*
X164274476Y-91174380D01*
X164179238Y-91126761D01*
X164131619Y-91079142D01*
X165369714Y-90174380D02*
X165464952Y-90174380D01*
X165560190Y-90222000D01*
X165607809Y-90269619D01*
X165655428Y-90364857D01*
X165703047Y-90555333D01*
X165703047Y-90793428D01*
X165655428Y-90983904D01*
X165607809Y-91079142D01*
X165560190Y-91126761D01*
X165464952Y-91174380D01*
X165369714Y-91174380D01*
X165274476Y-91126761D01*
X165226857Y-91079142D01*
X165179238Y-90983904D01*
X165131619Y-90793428D01*
X165131619Y-90555333D01*
X165179238Y-90364857D01*
X165226857Y-90269619D01*
X165274476Y-90222000D01*
X165369714Y-90174380D01*
X160036380Y-70945333D02*
X160750666Y-70945333D01*
X160893523Y-70992952D01*
X160988761Y-71088190D01*
X161036380Y-71231047D01*
X161036380Y-71326285D01*
X160464952Y-70326285D02*
X160417333Y-70421523D01*
X160369714Y-70469142D01*
X160274476Y-70516761D01*
X160226857Y-70516761D01*
X160131619Y-70469142D01*
X160084000Y-70421523D01*
X160036380Y-70326285D01*
X160036380Y-70135809D01*
X160084000Y-70040571D01*
X160131619Y-69992952D01*
X160226857Y-69945333D01*
X160274476Y-69945333D01*
X160369714Y-69992952D01*
X160417333Y-70040571D01*
X160464952Y-70135809D01*
X160464952Y-70326285D01*
X160512571Y-70421523D01*
X160560190Y-70469142D01*
X160655428Y-70516761D01*
X160845904Y-70516761D01*
X160941142Y-70469142D01*
X160988761Y-70421523D01*
X161036380Y-70326285D01*
X161036380Y-70135809D01*
X160988761Y-70040571D01*
X160941142Y-69992952D01*
X160845904Y-69945333D01*
X160655428Y-69945333D01*
X160560190Y-69992952D01*
X160512571Y-70040571D01*
X160464952Y-70135809D01*
X171181142Y-50668666D02*
X171657333Y-50668666D01*
X171085904Y-50954380D02*
X171419238Y-49954380D01*
X171752571Y-50954380D01*
X172085904Y-50954380D02*
X172085904Y-50287714D01*
X172085904Y-50478190D02*
X172133523Y-50382952D01*
X172181142Y-50335333D01*
X172276380Y-50287714D01*
X172371619Y-50287714D01*
X173133523Y-50954380D02*
X173133523Y-49954380D01*
X173133523Y-50906761D02*
X173038285Y-50954380D01*
X172847809Y-50954380D01*
X172752571Y-50906761D01*
X172704952Y-50859142D01*
X172657333Y-50763904D01*
X172657333Y-50478190D01*
X172704952Y-50382952D01*
X172752571Y-50335333D01*
X172847809Y-50287714D01*
X173038285Y-50287714D01*
X173133523Y-50335333D01*
X174038285Y-50287714D02*
X174038285Y-50954380D01*
X173609714Y-50287714D02*
X173609714Y-50811523D01*
X173657333Y-50906761D01*
X173752571Y-50954380D01*
X173895428Y-50954380D01*
X173990666Y-50906761D01*
X174038285Y-50859142D01*
X174514476Y-50954380D02*
X174514476Y-50287714D01*
X174514476Y-49954380D02*
X174466857Y-50002000D01*
X174514476Y-50049619D01*
X174562095Y-50002000D01*
X174514476Y-49954380D01*
X174514476Y-50049619D01*
X174990666Y-50287714D02*
X174990666Y-50954380D01*
X174990666Y-50382952D02*
X175038285Y-50335333D01*
X175133523Y-50287714D01*
X175276380Y-50287714D01*
X175371619Y-50335333D01*
X175419238Y-50430571D01*
X175419238Y-50954380D01*
X176038285Y-50954380D02*
X175943047Y-50906761D01*
X175895428Y-50859142D01*
X175847809Y-50763904D01*
X175847809Y-50478190D01*
X175895428Y-50382952D01*
X175943047Y-50335333D01*
X176038285Y-50287714D01*
X176181142Y-50287714D01*
X176276380Y-50335333D01*
X176324000Y-50382952D01*
X176371619Y-50478190D01*
X176371619Y-50763904D01*
X176324000Y-50859142D01*
X176276380Y-50906761D01*
X176181142Y-50954380D01*
X176038285Y-50954380D01*
X177324000Y-50954380D02*
X176752571Y-50954380D01*
X177038285Y-50954380D02*
X177038285Y-49954380D01*
X176943047Y-50097238D01*
X176847809Y-50192476D01*
X176752571Y-50240095D01*
X177752571Y-50573428D02*
X178514476Y-50573428D01*
X179514476Y-50954380D02*
X178943047Y-50954380D01*
X179228761Y-50954380D02*
X179228761Y-49954380D01*
X179133523Y-50097238D01*
X179038285Y-50192476D01*
X178943047Y-50240095D01*
X180419238Y-49954380D02*
X179943047Y-49954380D01*
X179895428Y-50430571D01*
X179943047Y-50382952D01*
X180038285Y-50335333D01*
X180276380Y-50335333D01*
X180371619Y-50382952D01*
X180419238Y-50430571D01*
X180466857Y-50525809D01*
X180466857Y-50763904D01*
X180419238Y-50859142D01*
X180371619Y-50906761D01*
X180276380Y-50954380D01*
X180038285Y-50954380D01*
X179943047Y-50906761D01*
X179895428Y-50859142D01*
X175276380Y-70945333D02*
X175990666Y-70945333D01*
X176133523Y-70992952D01*
X176228761Y-71088190D01*
X176276380Y-71231047D01*
X176276380Y-71326285D01*
X175276380Y-70564380D02*
X175276380Y-69897714D01*
X176276380Y-70326285D01*
X146075571Y-98662380D02*
X146075571Y-97662380D01*
X146313666Y-97662380D01*
X146456523Y-97710000D01*
X146551761Y-97805238D01*
X146599380Y-97900476D01*
X146647000Y-98090952D01*
X146647000Y-98233809D01*
X146599380Y-98424285D01*
X146551761Y-98519523D01*
X146456523Y-98614761D01*
X146313666Y-98662380D01*
X146075571Y-98662380D01*
X147075571Y-98662380D02*
X147075571Y-97995714D01*
X147075571Y-97662380D02*
X147027952Y-97710000D01*
X147075571Y-97757619D01*
X147123190Y-97710000D01*
X147075571Y-97662380D01*
X147075571Y-97757619D01*
X147980333Y-98662380D02*
X147980333Y-98138571D01*
X147932714Y-98043333D01*
X147837476Y-97995714D01*
X147647000Y-97995714D01*
X147551761Y-98043333D01*
X147980333Y-98614761D02*
X147885095Y-98662380D01*
X147647000Y-98662380D01*
X147551761Y-98614761D01*
X147504142Y-98519523D01*
X147504142Y-98424285D01*
X147551761Y-98329047D01*
X147647000Y-98281428D01*
X147885095Y-98281428D01*
X147980333Y-98233809D01*
X148599380Y-98662380D02*
X148504142Y-98614761D01*
X148456523Y-98519523D01*
X148456523Y-97662380D01*
X149694619Y-97757619D02*
X149742238Y-97710000D01*
X149837476Y-97662380D01*
X150075571Y-97662380D01*
X150170809Y-97710000D01*
X150218428Y-97757619D01*
X150266047Y-97852857D01*
X150266047Y-97948095D01*
X150218428Y-98090952D01*
X149647000Y-98662380D01*
X150266047Y-98662380D01*
X144874380Y-90805238D02*
X144398190Y-91138571D01*
X144874380Y-91376666D02*
X143874380Y-91376666D01*
X143874380Y-90995714D01*
X143922000Y-90900476D01*
X143969619Y-90852857D01*
X144064857Y-90805238D01*
X144207714Y-90805238D01*
X144302952Y-90852857D01*
X144350571Y-90900476D01*
X144398190Y-90995714D01*
X144398190Y-91376666D01*
X143874380Y-90519523D02*
X144874380Y-90186190D01*
X143874380Y-89852857D01*
X143969619Y-89567142D02*
X143922000Y-89519523D01*
X143874380Y-89424285D01*
X143874380Y-89186190D01*
X143922000Y-89090952D01*
X143969619Y-89043333D01*
X144064857Y-88995714D01*
X144160095Y-88995714D01*
X144302952Y-89043333D01*
X144874380Y-89614761D01*
X144874380Y-88995714D01*
X146329571Y-82914380D02*
X146329571Y-81914380D01*
X146567666Y-81914380D01*
X146710523Y-81962000D01*
X146805761Y-82057238D01*
X146853380Y-82152476D01*
X146901000Y-82342952D01*
X146901000Y-82485809D01*
X146853380Y-82676285D01*
X146805761Y-82771523D01*
X146710523Y-82866761D01*
X146567666Y-82914380D01*
X146329571Y-82914380D01*
X147329571Y-82914380D02*
X147329571Y-82247714D01*
X147329571Y-81914380D02*
X147281952Y-81962000D01*
X147329571Y-82009619D01*
X147377190Y-81962000D01*
X147329571Y-81914380D01*
X147329571Y-82009619D01*
X148234333Y-82914380D02*
X148234333Y-82390571D01*
X148186714Y-82295333D01*
X148091476Y-82247714D01*
X147901000Y-82247714D01*
X147805761Y-82295333D01*
X148234333Y-82866761D02*
X148139095Y-82914380D01*
X147901000Y-82914380D01*
X147805761Y-82866761D01*
X147758142Y-82771523D01*
X147758142Y-82676285D01*
X147805761Y-82581047D01*
X147901000Y-82533428D01*
X148139095Y-82533428D01*
X148234333Y-82485809D01*
X148853380Y-82914380D02*
X148758142Y-82866761D01*
X148710523Y-82771523D01*
X148710523Y-81914380D01*
X149901000Y-81914380D02*
X150520047Y-81914380D01*
X150186714Y-82295333D01*
X150329571Y-82295333D01*
X150424809Y-82342952D01*
X150472428Y-82390571D01*
X150520047Y-82485809D01*
X150520047Y-82723904D01*
X150472428Y-82819142D01*
X150424809Y-82866761D01*
X150329571Y-82914380D01*
X150043857Y-82914380D01*
X149948619Y-82866761D01*
X149901000Y-82819142D01*
X145128380Y-75057238D02*
X144652190Y-75390571D01*
X145128380Y-75628666D02*
X144128380Y-75628666D01*
X144128380Y-75247714D01*
X144176000Y-75152476D01*
X144223619Y-75104857D01*
X144318857Y-75057238D01*
X144461714Y-75057238D01*
X144556952Y-75104857D01*
X144604571Y-75152476D01*
X144652190Y-75247714D01*
X144652190Y-75628666D01*
X144128380Y-74771523D02*
X145128380Y-74438190D01*
X144128380Y-74104857D01*
X144128380Y-73866761D02*
X144128380Y-73247714D01*
X144509333Y-73581047D01*
X144509333Y-73438190D01*
X144556952Y-73342952D01*
X144604571Y-73295333D01*
X144699809Y-73247714D01*
X144937904Y-73247714D01*
X145033142Y-73295333D01*
X145080761Y-73342952D01*
X145128380Y-73438190D01*
X145128380Y-73723904D01*
X145080761Y-73819142D01*
X145033142Y-73866761D01*
X146329571Y-66658380D02*
X146329571Y-65658380D01*
X146567666Y-65658380D01*
X146710523Y-65706000D01*
X146805761Y-65801238D01*
X146853380Y-65896476D01*
X146901000Y-66086952D01*
X146901000Y-66229809D01*
X146853380Y-66420285D01*
X146805761Y-66515523D01*
X146710523Y-66610761D01*
X146567666Y-66658380D01*
X146329571Y-66658380D01*
X147329571Y-66658380D02*
X147329571Y-65991714D01*
X147329571Y-65658380D02*
X147281952Y-65706000D01*
X147329571Y-65753619D01*
X147377190Y-65706000D01*
X147329571Y-65658380D01*
X147329571Y-65753619D01*
X148234333Y-66658380D02*
X148234333Y-66134571D01*
X148186714Y-66039333D01*
X148091476Y-65991714D01*
X147901000Y-65991714D01*
X147805761Y-66039333D01*
X148234333Y-66610761D02*
X148139095Y-66658380D01*
X147901000Y-66658380D01*
X147805761Y-66610761D01*
X147758142Y-66515523D01*
X147758142Y-66420285D01*
X147805761Y-66325047D01*
X147901000Y-66277428D01*
X148139095Y-66277428D01*
X148234333Y-66229809D01*
X148853380Y-66658380D02*
X148758142Y-66610761D01*
X148710523Y-66515523D01*
X148710523Y-65658380D01*
X150424809Y-65991714D02*
X150424809Y-66658380D01*
X150186714Y-65610761D02*
X149948619Y-66325047D01*
X150567666Y-66325047D01*
X145128380Y-58801238D02*
X144652190Y-59134571D01*
X145128380Y-59372666D02*
X144128380Y-59372666D01*
X144128380Y-58991714D01*
X144176000Y-58896476D01*
X144223619Y-58848857D01*
X144318857Y-58801238D01*
X144461714Y-58801238D01*
X144556952Y-58848857D01*
X144604571Y-58896476D01*
X144652190Y-58991714D01*
X144652190Y-59372666D01*
X144128380Y-58515523D02*
X145128380Y-58182190D01*
X144128380Y-57848857D01*
X144461714Y-57086952D02*
X145128380Y-57086952D01*
X144080761Y-57325047D02*
X144795047Y-57563142D01*
X144795047Y-56944095D01*
X146329571Y-114664380D02*
X146329571Y-113664380D01*
X146567666Y-113664380D01*
X146710523Y-113712000D01*
X146805761Y-113807238D01*
X146853380Y-113902476D01*
X146901000Y-114092952D01*
X146901000Y-114235809D01*
X146853380Y-114426285D01*
X146805761Y-114521523D01*
X146710523Y-114616761D01*
X146567666Y-114664380D01*
X146329571Y-114664380D01*
X147329571Y-114664380D02*
X147329571Y-113997714D01*
X147329571Y-113664380D02*
X147281952Y-113712000D01*
X147329571Y-113759619D01*
X147377190Y-113712000D01*
X147329571Y-113664380D01*
X147329571Y-113759619D01*
X148234333Y-114664380D02*
X148234333Y-114140571D01*
X148186714Y-114045333D01*
X148091476Y-113997714D01*
X147901000Y-113997714D01*
X147805761Y-114045333D01*
X148234333Y-114616761D02*
X148139095Y-114664380D01*
X147901000Y-114664380D01*
X147805761Y-114616761D01*
X147758142Y-114521523D01*
X147758142Y-114426285D01*
X147805761Y-114331047D01*
X147901000Y-114283428D01*
X148139095Y-114283428D01*
X148234333Y-114235809D01*
X148853380Y-114664380D02*
X148758142Y-114616761D01*
X148710523Y-114521523D01*
X148710523Y-113664380D01*
X150520047Y-114664380D02*
X149948619Y-114664380D01*
X150234333Y-114664380D02*
X150234333Y-113664380D01*
X150139095Y-113807238D01*
X150043857Y-113902476D01*
X149948619Y-113950095D01*
X145128380Y-106807238D02*
X144652190Y-107140571D01*
X145128380Y-107378666D02*
X144128380Y-107378666D01*
X144128380Y-106997714D01*
X144176000Y-106902476D01*
X144223619Y-106854857D01*
X144318857Y-106807238D01*
X144461714Y-106807238D01*
X144556952Y-106854857D01*
X144604571Y-106902476D01*
X144652190Y-106997714D01*
X144652190Y-107378666D01*
X144128380Y-106521523D02*
X145128380Y-106188190D01*
X144128380Y-105854857D01*
X145128380Y-104997714D02*
X145128380Y-105569142D01*
X145128380Y-105283428D02*
X144128380Y-105283428D01*
X144271238Y-105378666D01*
X144366476Y-105473904D01*
X144414095Y-105569142D01*
X185825047Y-61816380D02*
X185825047Y-60816380D01*
X186063142Y-60816380D01*
X186206000Y-60864000D01*
X186301238Y-60959238D01*
X186348857Y-61054476D01*
X186396476Y-61244952D01*
X186396476Y-61387809D01*
X186348857Y-61578285D01*
X186301238Y-61673523D01*
X186206000Y-61768761D01*
X186063142Y-61816380D01*
X185825047Y-61816380D01*
X186586952Y-61911619D02*
X187348857Y-61911619D01*
X187586952Y-61816380D02*
X187586952Y-60816380D01*
X188063142Y-61816380D02*
X188063142Y-60816380D01*
X188634571Y-61816380D01*
X188634571Y-60816380D01*
X189634571Y-61816380D02*
X189063142Y-61816380D01*
X189348857Y-61816380D02*
X189348857Y-60816380D01*
X189253619Y-60959238D01*
X189158380Y-61054476D01*
X189063142Y-61102095D01*
X187372666Y-54316380D02*
X187372666Y-55030666D01*
X187325047Y-55173523D01*
X187229809Y-55268761D01*
X187086952Y-55316380D01*
X186991714Y-55316380D01*
X188372666Y-55316380D02*
X187801238Y-55316380D01*
X188086952Y-55316380D02*
X188086952Y-54316380D01*
X187991714Y-54459238D01*
X187896476Y-54554476D01*
X187801238Y-54602095D01*
X185825047Y-75452380D02*
X185825047Y-74452380D01*
X186063142Y-74452380D01*
X186206000Y-74500000D01*
X186301238Y-74595238D01*
X186348857Y-74690476D01*
X186396476Y-74880952D01*
X186396476Y-75023809D01*
X186348857Y-75214285D01*
X186301238Y-75309523D01*
X186206000Y-75404761D01*
X186063142Y-75452380D01*
X185825047Y-75452380D01*
X186586952Y-75547619D02*
X187348857Y-75547619D01*
X187586952Y-75452380D02*
X187586952Y-74452380D01*
X188063142Y-75452380D02*
X188063142Y-74452380D01*
X188634571Y-75452380D01*
X188634571Y-74452380D01*
X189063142Y-74547619D02*
X189110761Y-74500000D01*
X189206000Y-74452380D01*
X189444095Y-74452380D01*
X189539333Y-74500000D01*
X189586952Y-74547619D01*
X189634571Y-74642857D01*
X189634571Y-74738095D01*
X189586952Y-74880952D01*
X189015523Y-75452380D01*
X189634571Y-75452380D01*
X187372666Y-67952380D02*
X187372666Y-68666666D01*
X187325047Y-68809523D01*
X187229809Y-68904761D01*
X187086952Y-68952380D01*
X186991714Y-68952380D01*
X187801238Y-68047619D02*
X187848857Y-68000000D01*
X187944095Y-67952380D01*
X188182190Y-67952380D01*
X188277428Y-68000000D01*
X188325047Y-68047619D01*
X188372666Y-68142857D01*
X188372666Y-68238095D01*
X188325047Y-68380952D01*
X187753619Y-68952380D01*
X188372666Y-68952380D01*
X185634571Y-102952380D02*
X185634571Y-101952380D01*
X185872666Y-101952380D01*
X186015523Y-102000000D01*
X186110761Y-102095238D01*
X186158380Y-102190476D01*
X186206000Y-102380952D01*
X186206000Y-102523809D01*
X186158380Y-102714285D01*
X186110761Y-102809523D01*
X186015523Y-102904761D01*
X185872666Y-102952380D01*
X185634571Y-102952380D01*
X186396476Y-103047619D02*
X187158380Y-103047619D01*
X187586952Y-101952380D02*
X187777428Y-101952380D01*
X187872666Y-102000000D01*
X187967904Y-102095238D01*
X188015523Y-102285714D01*
X188015523Y-102619047D01*
X187967904Y-102809523D01*
X187872666Y-102904761D01*
X187777428Y-102952380D01*
X187586952Y-102952380D01*
X187491714Y-102904761D01*
X187396476Y-102809523D01*
X187348857Y-102619047D01*
X187348857Y-102285714D01*
X187396476Y-102095238D01*
X187491714Y-102000000D01*
X187586952Y-101952380D01*
X188444095Y-101952380D02*
X188444095Y-102761904D01*
X188491714Y-102857142D01*
X188539333Y-102904761D01*
X188634571Y-102952380D01*
X188825047Y-102952380D01*
X188920285Y-102904761D01*
X188967904Y-102857142D01*
X189015523Y-102761904D01*
X189015523Y-101952380D01*
X189348857Y-101952380D02*
X189920285Y-101952380D01*
X189634571Y-102952380D02*
X189634571Y-101952380D01*
X187372666Y-95452380D02*
X187372666Y-96166666D01*
X187325047Y-96309523D01*
X187229809Y-96404761D01*
X187086952Y-96452380D01*
X186991714Y-96452380D01*
X188277428Y-95785714D02*
X188277428Y-96452380D01*
X188039333Y-95404761D02*
X187801238Y-96119047D01*
X188420285Y-96119047D01*
X185658380Y-116166666D02*
X186134571Y-116166666D01*
X185563142Y-116452380D02*
X185896476Y-115452380D01*
X186229809Y-116452380D01*
X186325047Y-116547619D02*
X187086952Y-116547619D01*
X187515523Y-115452380D02*
X187706000Y-115452380D01*
X187801238Y-115500000D01*
X187896476Y-115595238D01*
X187944095Y-115785714D01*
X187944095Y-116119047D01*
X187896476Y-116309523D01*
X187801238Y-116404761D01*
X187706000Y-116452380D01*
X187515523Y-116452380D01*
X187420285Y-116404761D01*
X187325047Y-116309523D01*
X187277428Y-116119047D01*
X187277428Y-115785714D01*
X187325047Y-115595238D01*
X187420285Y-115500000D01*
X187515523Y-115452380D01*
X188372666Y-115452380D02*
X188372666Y-116261904D01*
X188420285Y-116357142D01*
X188467904Y-116404761D01*
X188563142Y-116452380D01*
X188753619Y-116452380D01*
X188848857Y-116404761D01*
X188896476Y-116357142D01*
X188944095Y-116261904D01*
X188944095Y-115452380D01*
X189277428Y-115452380D02*
X189848857Y-115452380D01*
X189563142Y-116452380D02*
X189563142Y-115452380D01*
X187372666Y-108952380D02*
X187372666Y-109666666D01*
X187325047Y-109809523D01*
X187229809Y-109904761D01*
X187086952Y-109952380D01*
X186991714Y-109952380D01*
X188325047Y-108952380D02*
X187848857Y-108952380D01*
X187801238Y-109428571D01*
X187848857Y-109380952D01*
X187944095Y-109333333D01*
X188182190Y-109333333D01*
X188277428Y-109380952D01*
X188325047Y-109428571D01*
X188372666Y-109523809D01*
X188372666Y-109761904D01*
X188325047Y-109857142D01*
X188277428Y-109904761D01*
X188182190Y-109952380D01*
X187944095Y-109952380D01*
X187848857Y-109904761D01*
X187801238Y-109857142D01*
X173071428Y-90428571D02*
X173214285Y-90476190D01*
X173261904Y-90523809D01*
X173309523Y-90619047D01*
X173309523Y-90761904D01*
X173261904Y-90857142D01*
X173214285Y-90904761D01*
X173119047Y-90952380D01*
X172738095Y-90952380D01*
X172738095Y-89952380D01*
X173071428Y-89952380D01*
X173166666Y-90000000D01*
X173214285Y-90047619D01*
X173261904Y-90142857D01*
X173261904Y-90238095D01*
X173214285Y-90333333D01*
X173166666Y-90380952D01*
X173071428Y-90428571D01*
X172738095Y-90428571D01*
X174166666Y-90285714D02*
X174166666Y-90952380D01*
X173738095Y-90285714D02*
X173738095Y-90809523D01*
X173785714Y-90904761D01*
X173880952Y-90952380D01*
X174023809Y-90952380D01*
X174119047Y-90904761D01*
X174166666Y-90857142D01*
X174547619Y-90285714D02*
X175071428Y-90285714D01*
X174547619Y-90952380D01*
X175071428Y-90952380D01*
X175357142Y-90285714D02*
X175880952Y-90285714D01*
X175357142Y-90952380D01*
X175880952Y-90952380D01*
X176642857Y-90904761D02*
X176547619Y-90952380D01*
X176357142Y-90952380D01*
X176261904Y-90904761D01*
X176214285Y-90809523D01*
X176214285Y-90428571D01*
X176261904Y-90333333D01*
X176357142Y-90285714D01*
X176547619Y-90285714D01*
X176642857Y-90333333D01*
X176690476Y-90428571D01*
X176690476Y-90523809D01*
X176214285Y-90619047D01*
X177119047Y-90952380D02*
X177119047Y-90285714D01*
X177119047Y-90476190D02*
X177166666Y-90380952D01*
X177214285Y-90333333D01*
X177309523Y-90285714D01*
X177404761Y-90285714D01*
X174119047Y-95928571D02*
X174261904Y-95976190D01*
X174309523Y-96023809D01*
X174357142Y-96119047D01*
X174357142Y-96261904D01*
X174309523Y-96357142D01*
X174261904Y-96404761D01*
X174166666Y-96452380D01*
X173785714Y-96452380D01*
X173785714Y-95452380D01*
X174119047Y-95452380D01*
X174214285Y-95500000D01*
X174261904Y-95547619D01*
X174309523Y-95642857D01*
X174309523Y-95738095D01*
X174261904Y-95833333D01*
X174214285Y-95880952D01*
X174119047Y-95928571D01*
X173785714Y-95928571D01*
X174690476Y-95452380D02*
X175357142Y-95452380D01*
X174690476Y-96452380D01*
X175357142Y-96452380D01*
X176261904Y-96452380D02*
X175690476Y-96452380D01*
X175976190Y-96452380D02*
X175976190Y-95452380D01*
X175880952Y-95595238D01*
X175785714Y-95690476D01*
X175690476Y-95738095D01*
X167357142Y-49672380D02*
X166880952Y-49672380D01*
X166880952Y-48672380D01*
X167690476Y-49148571D02*
X168023809Y-49148571D01*
X168166666Y-49672380D02*
X167690476Y-49672380D01*
X167690476Y-48672380D01*
X168166666Y-48672380D01*
X168595238Y-49672380D02*
X168595238Y-48672380D01*
X168833333Y-48672380D01*
X168976190Y-48720000D01*
X169071428Y-48815238D01*
X169119047Y-48910476D01*
X169166666Y-49100952D01*
X169166666Y-49243809D01*
X169119047Y-49434285D01*
X169071428Y-49529523D01*
X168976190Y-49624761D01*
X168833333Y-49672380D01*
X168595238Y-49672380D01*
D12*
X167409523Y-51861904D02*
X167409523Y-51061904D01*
X167600000Y-51061904D01*
X167714285Y-51100000D01*
X167790476Y-51176190D01*
X167828571Y-51252380D01*
X167866666Y-51404761D01*
X167866666Y-51519047D01*
X167828571Y-51671428D01*
X167790476Y-51747619D01*
X167714285Y-51823809D01*
X167600000Y-51861904D01*
X167409523Y-51861904D01*
X168171428Y-51138095D02*
X168209523Y-51100000D01*
X168285714Y-51061904D01*
X168476190Y-51061904D01*
X168552380Y-51100000D01*
X168590476Y-51138095D01*
X168628571Y-51214285D01*
X168628571Y-51290476D01*
X168590476Y-51404761D01*
X168133333Y-51861904D01*
X168628571Y-51861904D01*
D11*
X158502380Y-109833333D02*
X159216666Y-109833333D01*
X159359523Y-109880952D01*
X159454761Y-109976190D01*
X159502380Y-110119047D01*
X159502380Y-110214285D01*
X158502380Y-108928571D02*
X158502380Y-109119047D01*
X158550000Y-109214285D01*
X158597619Y-109261904D01*
X158740476Y-109357142D01*
X158930952Y-109404761D01*
X159311904Y-109404761D01*
X159407142Y-109357142D01*
X159454761Y-109309523D01*
X159502380Y-109214285D01*
X159502380Y-109023809D01*
X159454761Y-108928571D01*
X159407142Y-108880952D01*
X159311904Y-108833333D01*
X159073809Y-108833333D01*
X158978571Y-108880952D01*
X158930952Y-108928571D01*
X158883333Y-109023809D01*
X158883333Y-109214285D01*
X158930952Y-109309523D01*
X158978571Y-109357142D01*
X159073809Y-109404761D01*
X172714285Y-112802380D02*
X172714285Y-111802380D01*
X172952380Y-111802380D01*
X173095238Y-111850000D01*
X173190476Y-111945238D01*
X173238095Y-112040476D01*
X173285714Y-112230952D01*
X173285714Y-112373809D01*
X173238095Y-112564285D01*
X173190476Y-112659523D01*
X173095238Y-112754761D01*
X172952380Y-112802380D01*
X172714285Y-112802380D01*
X173476190Y-112897619D02*
X174238095Y-112897619D01*
X174476190Y-112802380D02*
X174476190Y-111802380D01*
X174857142Y-111802380D01*
X174952380Y-111850000D01*
X175000000Y-111897619D01*
X175047619Y-111992857D01*
X175047619Y-112135714D01*
X175000000Y-112230952D01*
X174952380Y-112278571D01*
X174857142Y-112326190D01*
X174476190Y-112326190D01*
X175476190Y-112802380D02*
X175476190Y-111802380D01*
X175904761Y-112802380D02*
X175904761Y-112278571D01*
X175857142Y-112183333D01*
X175761904Y-112135714D01*
X175619047Y-112135714D01*
X175523809Y-112183333D01*
X175476190Y-112230952D01*
X176523809Y-112802380D02*
X176428571Y-112754761D01*
X176380952Y-112707142D01*
X176333333Y-112611904D01*
X176333333Y-112326190D01*
X176380952Y-112230952D01*
X176428571Y-112183333D01*
X176523809Y-112135714D01*
X176666666Y-112135714D01*
X176761904Y-112183333D01*
X176809523Y-112230952D01*
X176857142Y-112326190D01*
X176857142Y-112611904D01*
X176809523Y-112707142D01*
X176761904Y-112754761D01*
X176666666Y-112802380D01*
X176523809Y-112802380D01*
X177142857Y-112135714D02*
X177523809Y-112135714D01*
X177285714Y-111802380D02*
X177285714Y-112659523D01*
X177333333Y-112754761D01*
X177428571Y-112802380D01*
X177523809Y-112802380D01*
X178000000Y-112802380D02*
X177904761Y-112754761D01*
X177857142Y-112707142D01*
X177809523Y-112611904D01*
X177809523Y-112326190D01*
X177857142Y-112230952D01*
X177904761Y-112183333D01*
X178000000Y-112135714D01*
X178142857Y-112135714D01*
X178238095Y-112183333D01*
X178285714Y-112230952D01*
X178333333Y-112326190D01*
X178333333Y-112611904D01*
X178285714Y-112707142D01*
X178238095Y-112754761D01*
X178142857Y-112802380D01*
X178000000Y-112802380D01*
X174761904Y-110952380D02*
X174761904Y-109952380D01*
X175000000Y-109952380D01*
X175142857Y-110000000D01*
X175238095Y-110095238D01*
X175285714Y-110190476D01*
X175333333Y-110380952D01*
X175333333Y-110523809D01*
X175285714Y-110714285D01*
X175238095Y-110809523D01*
X175142857Y-110904761D01*
X175000000Y-110952380D01*
X174761904Y-110952380D01*
X176285714Y-110952380D02*
X175714285Y-110952380D01*
X176000000Y-110952380D02*
X176000000Y-109952380D01*
X175904761Y-110095238D01*
X175809523Y-110190476D01*
X175714285Y-110238095D01*
X160142857Y-92778571D02*
X160285714Y-92826190D01*
X160333333Y-92873809D01*
X160380952Y-92969047D01*
X160380952Y-93111904D01*
X160333333Y-93207142D01*
X160285714Y-93254761D01*
X160190476Y-93302380D01*
X159809523Y-93302380D01*
X159809523Y-92302380D01*
X160142857Y-92302380D01*
X160238095Y-92350000D01*
X160285714Y-92397619D01*
X160333333Y-92492857D01*
X160333333Y-92588095D01*
X160285714Y-92683333D01*
X160238095Y-92730952D01*
X160142857Y-92778571D01*
X159809523Y-92778571D01*
X161238095Y-92635714D02*
X161238095Y-93302380D01*
X160809523Y-92635714D02*
X160809523Y-93159523D01*
X160857142Y-93254761D01*
X160952380Y-93302380D01*
X161095238Y-93302380D01*
X161190476Y-93254761D01*
X161238095Y-93207142D01*
X161571428Y-92635714D02*
X161952380Y-92635714D01*
X161714285Y-92302380D02*
X161714285Y-93159523D01*
X161761904Y-93254761D01*
X161857142Y-93302380D01*
X161952380Y-93302380D01*
X162142857Y-92635714D02*
X162523809Y-92635714D01*
X162285714Y-92302380D02*
X162285714Y-93159523D01*
X162333333Y-93254761D01*
X162428571Y-93302380D01*
X162523809Y-93302380D01*
X163000000Y-93302380D02*
X162904761Y-93254761D01*
X162857142Y-93207142D01*
X162809523Y-93111904D01*
X162809523Y-92826190D01*
X162857142Y-92730952D01*
X162904761Y-92683333D01*
X163000000Y-92635714D01*
X163142857Y-92635714D01*
X163238095Y-92683333D01*
X163285714Y-92730952D01*
X163333333Y-92826190D01*
X163333333Y-93111904D01*
X163285714Y-93207142D01*
X163238095Y-93254761D01*
X163142857Y-93302380D01*
X163000000Y-93302380D01*
X163761904Y-92635714D02*
X163761904Y-93302380D01*
X163761904Y-92730952D02*
X163809523Y-92683333D01*
X163904761Y-92635714D01*
X164047619Y-92635714D01*
X164142857Y-92683333D01*
X164190476Y-92778571D01*
X164190476Y-93302380D01*
X160666666Y-101454761D02*
X160809523Y-101502380D01*
X161047619Y-101502380D01*
X161142857Y-101454761D01*
X161190476Y-101407142D01*
X161238095Y-101311904D01*
X161238095Y-101216666D01*
X161190476Y-101121428D01*
X161142857Y-101073809D01*
X161047619Y-101026190D01*
X160857142Y-100978571D01*
X160761904Y-100930952D01*
X160714285Y-100883333D01*
X160666666Y-100788095D01*
X160666666Y-100692857D01*
X160714285Y-100597619D01*
X160761904Y-100550000D01*
X160857142Y-100502380D01*
X161095238Y-100502380D01*
X161238095Y-100550000D01*
X161571428Y-100502380D02*
X161809523Y-101502380D01*
X162000000Y-100788095D01*
X162190476Y-101502380D01*
X162428571Y-100502380D01*
X163333333Y-101502380D02*
X162761904Y-101502380D01*
X163047619Y-101502380D02*
X163047619Y-100502380D01*
X162952380Y-100645238D01*
X162857142Y-100740476D01*
X162761904Y-100788095D01*
M02*
